<?xml version="1.0" encoding="UTF-8"?>
<svg id="Layer_2" data-name="Layer 2" xmlns="http://www.w3.org/2000/svg" viewBox="0 0 889.4 545.47">
  <defs>
    <style>
      .cls-1 {
        fill: none;
      }

      .cls-1, .cls-2, .cls-3, .cls-4, .cls-5, .cls-6, .cls-7 {
        stroke-width: 0px;
      }

      .cls-3 {
        fill: #756746;
      }

      .cls-4 {
        fill: #5c5c5c;
      }

      .cls-5 {
        fill: #2c2c7c;
      }

      .cls-6 {
        fill: #d0d8d7;
      }

      .cls-7 {
        fill: #fff;
      }
    </style>
  </defs>
  <g id="Layer_2-2" data-name="Layer 2">
    <rect class="cls-1" x="123.7" y="462.22" height=".37"/>
    <path class="cls-1" d="m133.86,385.46l11.51,5.23,17.11,19.29c-1.32,8.47-2.55,16.97-3.69,25.48,1.99,1.26,4.01,2.51,6.01,3.77l1.33,9.06.84-7.7c4.06,2.54,8.11,5.08,12.2,7.6l1.27-16.83c-.81-.33-1.63-.66-2.45-.99l-.59-9.46,4.22-8.24-3.79-10.14-3.72-2.97.18.49-4.22,8.24.17,2.72.86.69-.16,10.58.2,3.19-.24-.72-.08,5.21,1.84,5.6c-2.19-.9-4.39-1.78-6.57-2.69-.33-8.58-.55-17.16-.7-25.73l1.1.88.13-8.42-18.42-14.72-12.23-3.19-9.97-12.53-6.03-7.58.81-8.56-1.5-1.8-.7-6.98.78-10.48-5.97-6.92-1.64-1.9-.55,4.72-8.39,27.92,7.48,13.55-3.99,4.27,10.96,114,8.91-118,7.69,14.05h0Z"/>
    <path class="cls-1" d="m330.85,271.61c.1-.44.2-.88.3-1.31l-.74.07.44,1.24Z"/>
    <path class="cls-1" d="m341.7,294.16v-.04l-2.83-7.93-.2-.56-2.2-6.17c.29,1.98.57,3.96.86,5.94.1.69.2,1.37.3,2.06l.58,3.99,3.5,2.71h0Z"/>
    <path class="cls-1" d="m353.27,214.83l-.14-.17v.1s.1.05.15.07h0Z"/>
    <polygon class="cls-1" points="258.66 185.66 258.69 186.03 258.73 186.41 258.73 186.41 258.69 186.03 258.66 185.66 258.66 185.66"/>
    <path class="cls-6" d="m549.66,423.71l5.05,2.78c-1.26-1.51-2.5-3.03-3.75-4.54l-1.3,1.76Z"/>
    <path class="cls-5" d="m463.34.11c-.31.02-.62.04-.94.07l1.1.29-.16-.37h0Z"/>
    <path class="cls-1" d="m330,272.78c.08.52.15,1.04.23,1.56.1-.43.19-.86.29-1.29-.17-.09-.35-.18-.52-.27h0Z"/>
    <path class="cls-1" d="m330.85,271.61l-.44-1.24-.74.07c.11.78.23,1.56.34,2.34.17.09.34.18.52.27.11-.48.22-.96.32-1.44Z"/>
    <polygon class="cls-6" points="341.71 294.12 341.7 294.16 341.73 294.17 341.71 294.12"/>
    <polygon class="cls-6" points="341.41 300.18 341.27 300.02 340.48 310.5 341.19 317.47 342.68 319.27 344.18 303.39 341.41 300.18"/>
    <polygon class="cls-6" points="342.02 294.99 342.08 294.45 341.73 294.17 342.02 294.99"/>
    <path class="cls-6" d="m388.73,256.94l.05-3.16-1.1-.88c.15,8.57.37,17.15.7,25.73,2.18.91,4.38,1.79,6.57,2.69l-1.84-5.6.08-5.21-2.62-7.98-1.84-5.6h0Z"/>
    <polygon class="cls-6" points="393.23 268.04 393.39 257.46 392.53 256.77 392.95 263.51 393.23 268.04"/>
    <polygon class="cls-4" points="359.7 285.05 364.61 283.16 364.61 283.16 359.7 285.05 359.7 285.05"/>
    <polygon class="cls-2" points="364.61 283.16 364.61 283.16 359.7 285.04 359.7 285.05 364.61 283.16"/>
    <path class="cls-1" d="m402.72,277.12l-1.27,16.83c5.12,3.16,10.26,6.31,15.43,9.43-1.41,13.21-2.61,26.46-3.59,39.74.98-13.28,2.18-26.53,3.59-39.74-5.17-3.12-10.3-6.27-15.43-9.43l-5.9,78.19h.05l3.27,18.83,12.86-1.24c.5-.3,1-.6,1.51-.9l.65.68,14.59-1.4c-.09.14-.19.27-.28.4-2.19,3.19-4.37,6.39-6.53,9.61,1.15.64,2.31,1.25,3.47,1.88,5.33-5.36,10.7-10.68,16.13-15.92-12.4-10.26-24.61-20.77-36.62-31.53,11.23-10.46,22.67-20.68,34.28-30.66-11.62-10.75-23.03-21.74-34.22-32.96,12.01-9.97,24.19-19.68,36.54-29.15-10.8-11.2-21.38-22.61-31.72-34.25,12.74-9.43,25.64-18.6,38.69-27.5-9.9-11.53-19.56-23.27-28.97-35.2l-9.85,25.93-.35,4.62h0l-.06.75h0l-1.67,22.13,6.27,65.27c-3.64-1.46-7.25-2.94-10.87-4.42h0Z"/>
    <polygon class="cls-5" points="388.54 376.24 340.33 372.6 340.19 373.34 388.49 376.99 388.54 376.24"/>
    <path class="cls-6" d="m342.24,362.73l-1.03,5.3,54.33,4.1,5.9-78.19c-4.09-2.52-8.14-5.06-12.2-7.6l-.84,7.7-1.33-9.06c-2-1.26-4.02-2.5-6.01-3.77,1.14-8.51,2.38-17,3.69-25.48l-17.11-19.29-11.51-5.23-7.69-14.05-8.91,118,2.65,27.57h.06Z"/>
    <path class="cls-6" d="m537.19,368.32l-5.36,7.81,19.21-5.76c.92-.7,1.87-1.37,2.85-1.99,1.82-3.57,3.67-7.12,5.52-10.67-.88-1.2-1.77-2.4-2.65-3.6-7.91,2.33-14.84,7.31-19.57,14.2h0Z"/>
    <path class="cls-6" d="m577.23,397.12c.86-.54,1.72-1.07,2.58-1.61-.89.31-1.75.85-2.58,1.61Z"/>
    <path class="cls-6" d="m554.44,408.95c2.5-5.3,5.01-10.55,7.53-15.74-6.23-6.22-12.57-5.59-17.49,1.76l-4.61,6.9,12.51,7.6c.68-.26,1.36-.43,2.06-.52h0Z"/>
    <path class="cls-6" d="m525.17,413.47l-3.04,4.13,8.1,4.46c.44-.16.89-.26,1.34-.32,1.65-3.17,3.31-6.31,4.99-9.41-4.02-3.67-8.15-3.26-11.39,1.14Z"/>
    <path class="cls-6" d="m698.73,474.05l-3.04,4.13,8.1,4.46c.44-.16.89-.26,1.34-.32,1.03-1.97,2.07-3.91,3.1-5.86-1.7-1.93-3.4-3.87-5.09-5.81-1.58.45-3.08,1.57-4.42,3.4h.01Z"/>
    <path class="cls-4" d="m811.6,436.35l37.89,18.29h0l18.08,8.73c6.71,3.24,13.2-.34,15.67-5.77,1.69-3.72,1.49-8.31-1.81-12.19h0l-61.2-52.89-8.62,43.84h-.01Z"/>
    <path class="cls-6" d="m559.1,427.85c1.65-3.17,3.31-6.31,4.99-9.41-4.02-3.67-8.15-3.26-11.39,1.14l-1.74,2.37c1.25,1.51,2.5,3.04,3.75,4.54l3.05,1.68c.44-.16.89-.26,1.34-.32Z"/>
    <path class="cls-6" d="m556.76,354.12c.88,1.2,1.77,2.4,2.65,3.6.82-1.57,1.62-3.15,2.44-4.72-1.73.25-3.43.63-5.09,1.12Z"/>
    <path class="cls-6" d="m575.73,398.8l-3.04,4.13,8.1,4.46c.44-.16.89-.26,1.34-.32,1.65-3.17,3.31-6.31,4.99-9.41-2.47-2.26-4.99-2.97-7.31-2.15-.86.54-1.72,1.07-2.58,1.61-.52.48-1.02,1.03-1.5,1.68h0Z"/>
    <path class="cls-6" d="m598,424.53c-6.61-1.95-13.71-1.12-19.71,2.35l-5.93,3.42,14.21,2.53c.07-.01.15-.03.22-.04-.11-.14-.23-.28-.35-.41,3.84-2.64,7.69-5.25,11.55-7.85h.01Z"/>
    <path class="cls-6" d="m589.35,364.24c1.65-3.17,3.31-6.31,4.99-9.41-4.02-3.67-8.15-3.26-11.39,1.14l-3.04,4.13,8.1,4.46c.44-.16.89-.26,1.34-.32Z"/>
    <polygon class="cls-1" points="663.17 328.87 664.86 332.67 669.9 311.21 669.56 311.46 663.17 328.87"/>
    <polygon class="cls-6" points="672.35 383.24 674.92 384.38 685.94 388.31 689.03 392.36 684.25 395.45 684.14 402.16 680.44 396.48 681.97 389.38 665.04 383.31 654.76 383.41 619.96 441.13 628.01 441.47 619.96 441.13 617.53 445.15 617.58 445.16 674.61 450.39 715.34 382.83 672.35 383.24"/>
    <polygon class="cls-6" points="769.91 310.24 764.19 334.55 766.44 333.3 769.91 310.24"/>
    <polygon class="cls-6" points="793.15 325.71 802.69 327.96 810.03 324.58 810.25 323.96 790.69 324.44 790.83 333.41 791.4 333.14 793.15 325.71"/>
    <path class="cls-6" d="m830.1,379.52l-4.22.1-.51,3.79-4.65,2.25,39.42,9.27-2.28,9.71,17.31-30.36-21.96-5.16c-5.73,6.19-13.93,10.17-23.11,10.39h0Z"/>
    <polygon class="cls-6" points="813.45 332.4 824.74 327.21 815.2 324.97 813.45 332.4"/>
    <polygon class="cls-6" points="841.02 322.13 826.68 315.37 849.62 362.95 849.62 362.95 858.61 358.61 841.02 322.13"/>
    <path class="cls-6" d="m605.45,385.72l-5.32-5.54c-2.35,1.39-4.7,2.78-7.04,4.19l12.36,1.36h0Z"/>
    <path class="cls-6" d="m412.23,389.67l1.65-.16-.65-.68c-.5.3-1,.6-1.51.9l.51-.05h0Z"/>
    <path class="cls-6" d="m568.25,372.5c.15,1.31.3,2.61.45,3.92l2.61-2.71c-.29-.38-.58-.76-.87-1.14l-2.2-.07h.01Z"/>
    <path class="cls-6" d="m570.45,372.56c.29.38.58.76.87,1.14l1.05-1.08-1.91-.06h-.01Z"/>
    <path class="cls-6" d="m525.84,280.96l.87-.9c-.32,0-.65.02-.97.02.03.29.07.59.1.88Z"/>
    <path class="cls-7" d="m327.37,332.95l.84,8.72,3.99-4.27-7.48-13.55,8.39-27.92.55-4.72-5.74-6.64c.25-1.09.49-2.18.74-3.27l-.69-.8-2.85,6.9,3.23,8.66-4.42,15.96-1.57,2.56-1.02,10.8,6.03,7.58h0Z"/>
    <polygon class="cls-7" points="318.41 225.32 309.12 234.42 309.87 237.21 319.36 227.04 318.41 225.32"/>
    <polygon class="cls-7" points="583.02 294.56 581.48 312.76 585.18 327.35 585.3 310.13 590.07 302.2 586.98 291.83 575.97 281.73 573.39 278.83 566.08 279.01 583.02 294.56"/>
    <polygon class="cls-7" points="752.01 317.63 751.98 315.61 748.87 317.03 739.48 340.96 742.84 353.14 741.39 362.81 745.55 345.12 743.86 341.32 750.25 323.91 750.59 323.66 752.01 317.63 752.01 317.63"/>
    <polygon class="cls-7" points="750.5 342.2 740.47 353.43 754.81 343.89 762.09 343.52 764.19 334.55 750.5 342.2"/>
    <polygon class="cls-7" points="669.9 311.21 675.24 307.35 676.99 306.51 671.32 305.18 669.9 311.21"/>
    <polygon class="cls-7" points="671.32 305.18 671.86 302.89 671.29 303.16 671.32 305.18 671.32 305.18"/>
    <polygon class="cls-7" points="690.49 294.33 683.15 297.71 691.26 299.61 695.91 297.36 696.42 293.57 690.7 293.71 690.49 294.33"/>
    <polygon class="cls-7" points="671.86 302.89 671.32 305.18 676.99 306.51 691.26 299.61 683.15 297.71 671.86 302.89"/>
    <polygon class="cls-1" points="326.54 337.15 319.83 334.39 317.27 322.86 322.36 314.56 323.64 300.93 320.87 297.72 319.89 306.07 311.5 333.99 318.03 345.82 318.14 345.72 326.54 337.15"/>
    <polygon class="cls-5" points="336.79 372.33 336.73 373.08 340.19 373.34 340.33 372.6 336.79 372.33"/>
    <polygon class="cls-6" points="342.24 362.73 342.19 362.74 339.54 335.17 337.09 367.72 337.14 367.72 341.22 368.03 342.24 362.73"/>
    <polygon class="cls-7" points="313.15 357.79 328.21 341.67 327.37 332.95 321.34 325.37 322.36 314.56 317.27 322.86 319.83 334.39 326.54 337.15 318.14 345.72 318.03 345.82 318.98 347.55 309.48 357.72 312.64 369.55 313.15 357.79"/>
    <polygon class="cls-6" points="184.71 362.52 191.36 361.88 191.36 361.88 184.71 362.52"/>
    <polygon class="cls-6" points="86.81 438.17 125.2 403.23 118.73 396.12 75.37 435.59 82.09 442.97 87.07 438.45 86.81 438.17"/>
    <polygon class="cls-6" points="195.7 384.24 195.65 384.25 195.65 384.25 189.11 385.63 189.19 386 138.41 396.75 138.34 396.38 135.61 430.83 210.74 414.94 195.7 384.24"/>
    <path class="cls-6" d="m231.16,425.06l-9.29-.19h0l-43.82-.87h0l.04-.38.17-1.67-72.86,21.03,4.55,27.01,140.74-40.61c-5.43-3.94-10.83-8-16.23-12.15-1.05,2.49-2.11,4.96-3.15,7.47-.05.12-.1.25-.15.37h0Zm-108.02,33.6l-.08-.37h0l.08.37h0Z"/>
    <path class="cls-6" d="m428.19,388.51l-13.98,1.34,4.34,4.52-12.36-1.36c1.59-.95,3.19-1.9,4.79-2.85l-12.05,1.16,2.51,14.48,16.69,1.26c2.32-2.37,4.67-4.71,7.01-7.07-1.15-.63-2.32-1.25-3.47-1.88,2.16-3.22,4.34-6.42,6.53-9.61h-.01Z"/>
    <path class="cls-6" d="m417.78,407.42c.11-.12.23-.23.34-.35l-16.69-1.26.07.38,16.28,1.23Z"/>
    <rect class="cls-6" x="135.71" y="450.62" height=".37"/>
    <path class="cls-6" d="m406.19,393.02l12.36,1.36-4.34-4.52-3.24.31c-1.6.95-3.19,1.89-4.79,2.85h.01Z"/>
    <path class="cls-4" d="m47,506.69h0c-.34,1.53-.38,2.98-.19,4.33,1.35,9.45,14.38,13.86,20.86,5.01l6.1-8.34h0l80.1-109.44c-2.01-2.21-4.03-4.43-6.02-6.66-7.93,2.64-15.86,5.19-23.79,7.7l-17.15,23.43c-4.62,6.31-14.56,1.81-12.88-5.82h0l5.8-26.32c-5.48-6.59-10.89-13.23-16.24-19.93-2.35.65-4.69,1.25-7.04,1.89l-29.56,134.16h0Z"/>
    <path class="cls-5" d="m428.19,388.51c.09-.14.19-.27.28-.4l-14.59,1.4.33.35,13.98-1.34h0Z"/>
    <path class="cls-5" d="m410.98,390.17c.25-.15.5-.3.75-.44l-12.86,1.24.06.37,12.05-1.16h0Z"/>
    <path class="cls-5" d="m414.21,389.86l-.33-.35-1.65.16h0l-.51.05c-.25.15-.5.3-.75.44l3.24-.31h0Z"/>
    <polygon class="cls-7" points="394.81 378.08 380.06 365.18 371.88 352.62 359.92 341.36 344.53 336.96 339.18 317.1 340.38 341.07 349.24 341.36 353.77 344.77 358.75 343.55 369.3 354.87 375.86 368.49 383.25 379.83 392.22 382.07 397.4 388.24 395.41 378.82 394.81 378.08"/>
    <polygon class="cls-7" points="122.31 288.66 133.26 293.07 139.34 289.11 141.64 300.89 143.9 313.84 158.17 318.91 148.77 311.82 142.74 284.59 127.33 283.08 109.66 261.1 111.65 270.52 117.13 277.03 122.31 288.66"/>
    <path class="cls-7" d="m392.53,256.77l-.17-2.72,4.22-8.24-.18-.49-5.85-4.67c.02,2.02.06,4.05.09,6.07l-1.72-1.38-.13,8.42,3.75,2.99v.02Z"/>
    <path class="cls-7" d="m388.73,256.94l1.84,5.6c.79.33,1.58.65,2.38.97l-.42-6.74-3.75-2.99-.05,3.16Z"/>
    <polygon class="cls-7" points="393.43 271.24 393.23 268.04 393.19 270.52 393.43 271.24"/>
    <path class="cls-7" d="m390.57,262.54l2.62,7.98.04-2.47-.28-4.54c-.79-.32-1.59-.65-2.38-.97Z"/>
    <polygon class="cls-6" points="384.22 234.85 388.43 238.98 389 239.43 389.01 238.68 384.22 234.85"/>
    <path class="cls-6" d="m390.46,231.95c-1.82-.81-3.62-1.65-5.44-2.47l5.45,4.35c0-.63-.01-1.26-.02-1.88h0Z"/>
    <path class="cls-6" d="m353.27,214.83l7.5,9,13.72,1.47,8.82,8.64c-.03-1.76-.06-3.52-.08-5.28-10.05-4.54-20.05-9.14-29.94-13.84h-.02Z"/>
    <path class="cls-6" d="m390.48,233.84l-5.45-4.35c-.6-.27-1.2-.55-1.8-.82.02,1.76.05,3.52.08,5.28l.92.9,4.79,3.83v.75l1.52,1.22c-.03-2.27-.05-4.55-.06-6.82h0Z"/>
    <path class="cls-7" d="m342.04,289.61l.61-.06.06-.48.31-.74c-1.38-.71-2.77-1.42-4.14-2.14l2.83,7.93.34-4.51h0Z"/>
    <polygon class="cls-7" points="342.08 294.45 342.66 289.55 342.04 289.61 341.71 294.12 341.73 294.17 342.08 294.45"/>
    <path class="cls-7" d="m336.47,279.46l-3.34-9.34,1.96-.19h0l-3.95.38c-.1.44-.2.88-.3,1.31l.5,1.4.2.56,2.85,7.98.36.28-.06.54-.29-.82-3.52-2.73-.58-3.99c-.02-.17-.05-.33-.07-.5-.49,2.17-.98,4.35-1.48,6.52,2.86,1.51,5.71,3.03,8.58,4.53-.29-1.98-.57-3.96-.86-5.94h0Z"/>
    <path class="cls-7" d="m331.14,273.37c-.21-.11-.42-.21-.62-.32-.1.43-.19.86-.29,1.29.02.17.05.33.07.5l.84-1.47Z"/>
    <path class="cls-7" d="m331.14,273.37l.2-.35-.5-1.4c-.11.48-.22.96-.32,1.44.21.11.42.21.62.32h0Z"/>
    <path class="cls-7" d="m331.55,273.58l-.2-.56-.2.35c.13.07.27.14.4.21h0Z"/>
    <path class="cls-7" d="m330.3,274.84l.58,3.99,3.52,2.73-2.85-7.98c-.13-.07-.27-.14-.4-.21l-.84,1.47h0Z"/>
    <path class="cls-7" d="m333.66,291.2l1.64,1.9,2.32-5.61.02-.03c-.1-.69-.2-1.37-.3-2.06-2.87-1.5-5.72-3.02-8.58-4.53-.03.14-.06.28-.1.43l5.42,6.28-.43,3.64v-.02Z"/>
    <path class="cls-7" d="m333.66,291.2l.43-3.64-5.42-6.28c-.25,1.09-.49,2.18-.74,3.27l5.74,6.64h0Z"/>
    <path class="cls-7" d="m345.56,322.72s-.1-.05-.15-.07v-.1l-2.74-3.28-.81,8.56,6.03,7.58-2.21-23.04c-.1,3.39-.2,6.79-.27,10.18l.14.17h0Z"/>
    <path class="cls-7" d="m344.76,302.67l-2.74-7.68-.61,5.19,2.77,3.21-1.5,15.88,2.74,3.28c.07-3.4.17-6.79.27-10.18l-.93-9.7h0Z"/>
    <path class="cls-7" d="m345.95,202.22l-.14-.17v.1s.1.05.15.07h0Z"/>
    <path class="cls-6" d="m338.68,285.63l6.45-11.26,1.23-5.53-11.26,1.08,1.38,9.53,2.2,6.17h0Z"/>
    <path class="cls-6" d="m350.34,292.1c-1.28-.65-2.55-1.31-3.82-1.97-.04.78-.07,1.56-.11,2.34l3.93-.38h0Z"/>
    <path class="cls-6" d="m342.66,289.55l2.31-.22c-.65-.34-1.3-.67-1.95-1.01l-.31.74-.06.48h.01Z"/>
    <path class="cls-6" d="m342.08,294.45l2.04,1.58-.32-3.3,2.61-.25c.04-.78.07-1.56.11-2.34-.52-.27-1.04-.53-1.55-.8l-2.31.22-.57,4.9h0Z"/>
    <path class="cls-6" d="m353.79,293.88l-7.47.72c-.04,1.02-.07,2.04-.12,3.05l3.31,2.57-.15,2.01,4.53-.43c.12-2.56.24-5.11.38-7.67-.16-.08-.32-.17-.48-.25Z"/>
    <path class="cls-6" d="m346.35,293.84l6.2-.6c-.74-.38-1.48-.76-2.22-1.14l-3.93.38c-.02.45-.04.91-.06,1.36h0Z"/>
    <path class="cls-6" d="m344.57,294.01l1.79-.17c.02-.45.04-.91.06-1.36l-2.61.25.32,3.3,2.09,1.62c.04-1.02.07-2.04.12-3.05l-1.68.16-.07-.75h-.02Z"/>
    <path class="cls-6" d="m344.57,294.01l.07.75,1.68-.16c.01-.25.02-.5.03-.76l-1.79.17h.01Z"/>
    <path class="cls-6" d="m346.32,294.59l7.47-.72c-.41-.21-.82-.42-1.23-.63l-6.2.6c-.01.25-.02.5-.03.76h0Z"/>
    <path class="cls-7" d="m338.68,285.63l.2.56c1.38.72,2.76,1.42,4.14,2.14l5.41-13.11,1.03-6.67-3.12.3-1.23,5.53-6.45,11.26h.02Z"/>
    <path class="cls-6" d="m329.14,266.85l.52,3.6.74-.07-1.26-3.52h0Z"/>
    <path class="cls-6" d="m382.84,349.17v-.63l1.81,1.44c1.82.82,3.62,1.65,5.44,2.47,0,.63.01,1.26.02,1.88l2.31,1.84,3.61,9.65,3.72,2.97,3.79,10.14-4.22,8.24.59,9.46c.81.33,1.63.66,2.45.99l4.59-60.85-3.3-34.36-49.98,4.8c-.4,9.31-.71,18.63-.9,27.96l.14.17c9.9,4.69,19.89,9.29,29.94,13.84h-.01Z"/>
    <path class="cls-6" d="m413.59,281.54l-6.27-65.27-4.59,60.85c3.62,1.48,7.23,2.96,10.87,4.42h-.01Z"/>
    <path class="cls-6" d="m396.39,245.32l-3.61-9.65-2.31-1.84c.02,2.27.04,4.55.06,6.82l5.85,4.67h0Z"/>
    <path class="cls-6" d="m383.21,228.04v.63c.6.27,1.2.55,1.8.82l-1.81-1.44h.01Z"/>
    <path class="cls-6" d="m353.9,301.79c-.07,1.55-.15,3.11-.21,4.66l49.88-4.79-.44-4.61h0l-49.22,4.74h-.01Z"/>
    <path class="cls-6" d="m158.55,422.93c.62.39,1.24.77,1.86,1.16l1.61-.02c-.04.32-.08.63-.12.95,1.21.76,2.43,1.52,3.64,2.27l52.06-.72.14,9.97,7.5-26.71c-.06-.06-.11-.12-.17-.17.09-.07.18-.14.28-.22l1.84-6.54-60.58.84-1.58,6.56-6.47,12.62h-.01Z"/>
    <path class="cls-6" d="m346.57,289.18l-1.6.15c.52.27,1.04.53,1.55.8.01-.32.03-.64.04-.95h.01Z"/>
    <path class="cls-6" d="m350.34,292.1c.74.38,1.48.76,2.22,1.14l43.67-4.2h0l.07.75h0l-42.51,4.09c.16.08.32.17.48.25-.14,2.55-.26,5.11-.38,7.67l49.22-4.73h0l-.95-9.94-51.82,4.98h0Z"/>
    <rect class="cls-6" x="396.65" y="168.56" height=".75"/>
    <path class="cls-6" d="m396.31,289.79l-.07-.75-43.67,4.2c.41.21.82.42,1.23.63l42.51-4.09h0Z"/>
    <path class="cls-6" d="m346.73,207.3l-.03-.41c-.06.1-.12.2-.18.3.07.04.14.07.22.11h-.01Z"/>
    <path class="cls-4" d="m213.58,336.97c-15.45-3.67,7.09-36.02-4.32-29.1-.28.17-.56.35-.88.56,0,0-.02.01-.03.02l-105.73,71.76c2.14,1.15,4.26,2.32,6.41,3.47-.72,8.54-1.35,17.08-1.9,25.64l106.58-72.34h-.14.01Zm-109.49,42.77h0l105.73-71.76s.02-.01.03-.02c0,0-.02.01-.03.02l-105.73,71.76Z"/>
    <path class="cls-7" d="m345.69,312.37l2.21,23.04,9.97,12.53,12.23,3.19,18.42,14.72.09-5.92-.57-.46-4.21-4.13-.92-.73v-.17l-8.82-8.64-13.72-1.47-7.5-9s-.1-.05-.15-.07v-.1l-4.23-5.08-.7-6.98,1.56-20.88-3.35.32c-.12,3.27-.23,6.55-.33,9.82h.02Z"/>
    <path class="cls-7" d="m345.69,312.37c.1-3.27.21-6.55.33-9.82l-1.26.12.93,9.7h0Z"/>
    <path class="cls-7" d="m383.3,234.12l.92.73-.92-.9v.17Z"/>
    <path class="cls-7" d="m390.54,240.66l-1.54-1.22-.09,5.92,1.72,1.38c-.03-2.02-.07-4.05-.09-6.07h0Z"/>
    <path class="cls-7" d="m336.47,279.46l-1.38-9.53-1.96.19,3.34,9.34Z"/>
    <polygon class="cls-7" points="344.76 302.67 344.76 302.67 344.12 296.03 342.08 294.45 342.02 294.99 344.76 302.67"/>
    <path class="cls-7" d="m346.21,297.65c-.07,1.63-.12,3.27-.19,4.9l3.35-.32.15-2.01-3.31-2.57h0Z"/>
    <path class="cls-7" d="m344.76,302.67l1.26-.12c.06-1.63.12-3.27.19-4.9l-2.09-1.62.64,6.64h0Z"/>
    <path class="cls-7" d="m341.7,294.16l-3.5-2.71-.58-3.99-.02.03-2.32,5.61,5.97,6.92.44-5.86h0Z"/>
    <polygon class="cls-7" points="342.02 294.99 341.73 294.17 341.7 294.16 341.27 300.02 341.41 300.18 342.02 294.99"/>
    <polygon class="cls-7" points="334.75 281.84 334.4 281.56 334.69 282.38 334.75 281.84"/>
    <path class="cls-3" d="m464.58.77h.02c.42-.26.85-.52,1.27-.77-.84,0-1.69.05-2.53.12l.16.37,1.08.29h0Z"/>
    <path class="cls-3" d="m511.12,268.45l-1.05,1.43c3.09-1.55,6.17-3.1,9.27-4.62-2.96-1.13-5.83-.06-8.22,3.18h0Z"/>
    <polygon class="cls-3" points="616.46 277.2 616.64 276.47 616.64 276.47 616.46 277.2"/>
    <path class="cls-3" d="m495.26,267.59l-4.11-.13c.15,1.31.3,2.61.45,3.92l3.66-3.79Z"/>
    <path class="cls-3" d="m525.39,277.04c.11,1.01.23,2.02.35,3.04.32,0,.65-.01.97-.02l2.79-2.89-4.11-.13h0Z"/>
    <path class="cls-6" d="m527.3,391.4l3.66-3.79-4.11-.13c.15,1.31.3,2.61.45,3.92Z"/>
    <path class="cls-6" d="m483.44,325.52c.15,1.31.3,2.61.45,3.92l3.66-3.79-4.11-.13Z"/>
    <path class="cls-6" d="m508.94,317.63c-2.67-.58-5.34-1.15-8.01-1.72l6.61,7.64c.49-.27.99-.54,1.48-.82l-.09-5.1h.01Z"/>
    <path class="cls-6" d="m509.03,322.73c-.49.27-.99.54-1.48.82l1.53,1.76-.04-2.58h-.01Z"/>
    <g>
      <path class="cls-1" d="m782.02,459.7l-44.73-10.52-.03.12,44.76,10.52c.92-.04,1.84-.08,2.76-.12l-.44-.1c-.77.03-1.54.07-2.32.1Z"/>
      <path class="cls-1" d="m604.22,398.28c.07-.01.15-.03.22-.04-.11-.14-.23-.28-.35-.41,3.84-2.64,7.69-5.25,11.55-7.85-6.61-1.95-13.71-1.12-19.71,2.35l-5.93,3.42,14.21,2.53h.01Z"/>
      <path class="cls-1" d="m623.1,351.17l-5.32-5.54c-2.35,1.39-4.7,2.78-7.04,4.19l12.36,1.36h0Z"/>
      <path class="cls-1" d="m607,329.7c1.65-3.17,3.31-6.31,4.99-9.41-4.02-3.67-8.15-3.26-11.39,1.14l-3.04,4.13,8.1,4.46c.44-.16.89-.26,1.34-.32Z"/>
      <polygon class="cls-1" points="666.43 427.83 616.62 416.12 616.23 416.79 666.26 428.56 666.43 427.83"/>
      <path class="cls-1" d="m785.29,472.32l.4,24.62,22.22,5.22-.09.36h0l-6.46,27.48,65.79,15.47,13.43-57.14c-4.18-1.96-8.3-3.87-12.38-5.76-11.9,4.61-24.1,9.37-36.63,14.3-15.86-8.49-31.29-16.67-46.3-24.57l.02.02Zm18.85,22.71c2.34-1.4,4.69-2.8,7.04-4.19l5.32,5.54-12.36-1.36h0Z"/>
      <path class="cls-1" d="m802.89,463.76c.83.41,1.66.98,2.49,1.74-1.67,3.1-3.33,6.24-4.99,9.41-.45.06-.9.16-1.34.32l-8.1-4.46,3.04-4.13c.85-1.15,1.76-2.02,2.71-2.63-3.75.16-7.59.32-11.54.49l.13,7.82c15.01,7.9,30.44,16.08,46.3,24.57,12.53-4.93,24.73-9.69,36.63-14.3-15.3-7.08-29.85-13.65-43.61-19.75-6.76.3-14,.61-21.7.93h-.02Z"/>
      <path class="cls-6" d="m666.43,427.83l-.17.73-50.03-11.76-16.38,28.72,2.68.63c26.05-3.8,49.94-7,71.63-9.8l-.12-7.42h-.05l-57.03-13.42-.35.61,49.82,11.71h0Z"/>
      <polygon class="cls-6" points="615.91 415.95 615.74 416.68 616.23 416.79 616.62 416.12 615.91 415.95"/>
      <path class="cls-6" d="m664.15,468.01l-.43-26.39c-21.69,2.8-45.58,6-71.63,9.8l70.75,16.64v-.36l1.3.31h.01Z"/>
      <polygon class="cls-6" points="738.49 448.86 789.23 457.48 825.59 345.69 780.63 338.05 780.78 337.58 825.74 345.22 826.68 342.32 826.68 342.33 780.94 334.55 779.38 335.09 774.63 337.57 770.15 351.38 773.63 357.05 769.31 369.22 767.35 378.72 761.23 384.1 759.48 384.17 738.45 448.85 738.49 448.86"/>
      <path class="cls-6" d="m795.52,457.48l-57.03-13.41-3.02,5.3c9.92,3.47,20.35,7.18,31.26,11.16,5.24-.25,10.34-.49,15.29-.71l-44.76-10.52.03-.12h-.03l.17-.74,47.34,11.13c-.15,0-.29.01-.44.02l.44.1c3.69-.16,7.3-.32,10.82-.47l-.03-1.74h-.05.01Z"/>
      <path class="cls-6" d="m747.78,488.03l37.91,8.91-.4-24.62c-.2-.11-.41-.22-.62-.33-12.01,5.18-24.31,10.52-36.89,16.03h0Zm34.58-3.65c-.29-.38-.58-.76-.87-1.14l1.91.06-1.05,1.08h.01Z"/>
      <path class="cls-6" d="m711.67,478.08l-.74,1.29,6.53,1.53c-1.94-.95-3.86-1.88-5.79-2.82h0Z"/>
      <path class="cls-6" d="m717.46,480.9l30.32,7.13c12.57-5.51,24.88-10.85,36.89-16.03.2.11.41.22.62.33l-.13-7.82c-3.52.15-7.13.31-10.82.47l3.18.75-.17.73-5.77-1.36c-4.95.22-10.04.46-15.29.71-10.92-3.98-21.34-7.69-31.26-11.16l-13.36,23.43c1.93.94,3.85,1.87,5.79,2.82Z"/>
      <path class="cls-6" d="m746.64,488.53l-26.14-6.15c6.25,3.05,12.55,6.14,18.96,9.3,2.41-1.06,4.79-2.1,7.18-3.15Z"/>
      <path class="cls-6" d="m573.37,448.27l-16.96-3.99c-.24.18-.47.36-.71.54.41.09.83.18,1.25.27.15-.12.31-.23.46-.35,5.03,1.09,10.36,2.27,15.96,3.52h0Z"/>
      <path class="cls-5" d="m590.83,451.61l-.45-.11c-.34.05-.67.1-1.01.15l.45.11c.08-.01.16-.02.24-.04.26-.04.51-.07.77-.11Z"/>
      <path class="cls-5" d="m599.65,445.86l1.87.44c.34-.05.67-.1,1.01-.15l-2.68-.63-.19.34h-.01Z"/>
      <path class="cls-6" d="m717.46,480.9l-6.53-1.53-.19.34,8.23,1.94c-.5-.25-1.01-.5-1.51-.74h0Z"/>
      <path class="cls-6" d="m747.21,488.28c.19-.08.38-.17.57-.25l-30.32-7.13c.5.24,1.01.49,1.51.74l28.24,6.64Z"/>
      <path class="cls-6" d="m747.21,488.28l38.48,9.05v-.39l-37.91-8.91c-.19.08-.38.17-.57.25h0Z"/>
      <path class="cls-6" d="m747.2,488.28l-28.2-6.63c.5.24,1,.49,1.5.73l26.14,6.15c.19-.08.38-.17.56-.25Z"/>
      <path class="cls-5" d="m599.65,445.86l1.86.44h.02l-1.87-.44h-.01Z"/>
      <path class="cls-5" d="m710.74,479.7h0l8.26,1.95s-.02,0-.02-.01l-8.23-1.94h-.01Z"/>
      <path class="cls-6" d="m796.7,464.02c2.1-.09,4.16-.17,6.19-.26-2.14-1.06-4.26-.97-6.19.26Z"/>
      <path class="cls-6" d="m793.99,466.65l-3.04,4.13,8.1,4.46c.44-.16.89-.26,1.34-.32,1.65-3.17,3.31-6.31,4.99-9.41-.83-.76-1.66-1.33-2.49-1.74-2.03.08-4.09.17-6.19.26-.95.6-1.86,1.47-2.71,2.63h0Z"/>
      <path class="cls-6" d="m804.13,495.03l12.36,1.36-5.32-5.54c-2.35,1.39-4.7,2.78-7.04,4.19h0Z"/>
      <path class="cls-6" d="m782.36,484.38l1.05-1.08-1.91-.06c.29.38.58.76.87,1.14h-.01Z"/>
      <path class="cls-6" d="m725.03,501.15l12.36,1.36-5.32-5.54c-2.35,1.39-4.7,2.78-7.04,4.19h0Z"/>
      <path class="cls-6" d="m775.84,522l12.36,1.36-5.32-5.54c-2.35,1.39-4.7,2.78-7.04,4.19h0Z"/>
      <path class="cls-6" d="m685.91,456.25l12.36,1.36-5.32-5.54c-2.35,1.39-4.7,2.78-7.04,4.19h0Z"/>
      <path class="cls-6" d="m706.44,453.31l8.99,8.59-.86-7.64c-2.71-.33-5.42-.65-8.13-.96h0Z"/>
      <path class="cls-6" d="m630.82,495.03l12.36,1.36-5.32-5.54c-2.35,1.39-4.7,2.78-7.04,4.19h0Z"/>
      <path class="cls-6" d="m673.29,494.37l3.98,11.78,2.78-7.16c-2.25-1.54-4.5-3.09-6.76-4.62Z"/>
      <path class="cls-6" d="m645.47,500.75l3.98,11.78,2.78-7.16c-2.25-1.54-4.5-3.09-6.76-4.62Z"/>
      <path class="cls-6" d="m383.67,341.32l12.36,1.36-5.32-5.54c-2.35,1.39-4.7,2.78-7.04,4.19h0Z"/>
      <path class="cls-6" d="m390.21,365.24l7.91-9.6-7.55,1.41c-.13,2.73-.25,5.45-.36,8.18h0Z"/>
    </g>
    <path class="cls-6" d="m738.21,506.09l-5.36,7.81,19.21-5.76c.92-.7,1.87-1.37,2.85-1.99,1.82-3.57,3.67-7.12,5.52-10.67-.88-1.2-1.77-2.4-2.65-3.6-7.91,2.33-14.84,7.31-19.57,14.2h0Z"/>
    <path class="cls-6" d="m717.72,506.12c2.5-5.3,5.01-10.55,7.53-15.74-6.23-6.22-12.57-5.59-17.49,1.76l-4.61,6.9,12.51,7.6c.68-.26,1.36-.43,2.06-.52h0Z"/>
    <path class="cls-6" d="m773.8,503l-3.04,4.13,8.1,4.46c.44-.16.89-.26,1.34-.32,1.65-3.17,3.31-6.31,4.99-9.41-4.02-3.67-8.15-3.26-11.39,1.14Z"/>
    <path class="cls-6" d="m772.66,517.82l3.66-3.79-4.11-.13c.15,1.31.3,2.61.45,3.92Z"/>
    <path class="cls-6" d="m761.23,500.93c.15,1.31.3,2.61.45,3.92l3.66-3.79-4.11-.13Z"/>
    <polygon class="cls-7" points="689.01 470.38 674.26 457.48 666.08 444.92 654.13 433.66 638.74 429.26 633.38 409.4 634.59 433.37 643.45 433.66 647.98 437.07 652.96 435.84 663.51 447.17 670.07 460.79 677.46 472.13 686.42 474.37 691.61 480.54 689.61 471.12 689.01 470.38"/>
    <polygon class="cls-7" points="191.49 410.67 172.21 395.61 161.6 380.86 145.99 367.7 125.74 362.72 118.98 339.28 120.2 367.66 131.89 367.87 137.82 371.84 144.41 370.31 158.17 383.56 166.62 399.6 176.2 412.93 188 415.44 194.75 422.67 192.27 411.54 191.49 410.67"/>
    <line class="cls-1" x1="519.52" y1="506.64" x2="861.23" y2="430.88"/>
    <path class="cls-4" d="m240.97,450.19l-190.85,36.94-.03-.37L0,496.45l1.32,19.04c10.14-.21,20.3-.26,30.49-.11,16.54-10.27,32.46-19.92,47.75-28.98,15.5,1.33,31.04,3.1,46.62,5.31,14.59-8.03,28.53-15.51,41.8-22.5,14.86,3.19,29.75,6.81,44.64,10.87,12.02-5.82,23.4-11.22,34.15-16.23,1.2-2.61,2.4-5.23,3.63-7.82-3.15-1.92-6.29-3.88-9.43-5.85h0Z"/>
    <path class="cls-4" d="m106.08,510.07l-1.63,5.77,5.83-4.25c.28-.52.57-1.01.86-1.47.55-2.63,1.11-5.25,1.67-7.87-.27-.89-.54-1.77-.8-2.66-2.4,1.72-4.5,5.4-5.94,10.48h.01Z"/>
    <path class="cls-4" d="m84.84,526.75l-5.45,2.49,7.01,1.7c.58-.12,1.14-.22,1.68-.29,2.37-1.28,4.73-2.55,7.09-3.81.5-.78,1-1.55,1.51-2.33-2.87-.72-7.03.06-11.84,2.25h0Z"/>
    <path class="cls-4" d="m142.56,501.66l-5.45,2.49,7.01,1.7c.58-.12,1.14-.22,1.68-.29,2.37-1.28,4.73-2.55,7.09-3.81.5-.78,1-1.55,1.51-2.33-2.87-.72-7.03.06-11.84,2.25h0Z"/>
    <path class="cls-4" d="m190.22,486.35l-3.04,4.13,8.1,4.46c.44-.16.89-.26,1.34-.32,1.65-3.17,3.31-6.31,4.99-9.41-4.02-3.67-8.15-3.26-11.39,1.14h0Z"/>
    <path class="cls-4" d="m90.29,524.26l-5.45,2.49,7.01,1.7c.58-.12,1.14-.22,1.68-.29,2.37-1.28,4.73-2.55,7.09-3.81.5-.78,1-1.55,1.51-2.33-2.87-.72-7.03.06-11.84,2.25h0Z"/>
    <polygon class="cls-7" points="208.97 470.89 186.53 455.59 174.28 440.46 156.13 427.08 132.37 422.24 124.79 398.05 125.77 427.45 139.53 427.48 146.44 431.5 154.23 429.81 170.2 443.33 179.89 459.81 190.95 473.47 204.8 475.89 212.62 483.28 209.88 471.78 208.97 470.89"/>
    <polygon class="cls-7" points="59.63 463.07 74.17 467.77 82.43 473.48 94.24 477.75 109.08 477.45 114.91 487.86 112.88 474.33 104.43 475.79 99.98 474.66 95.28 476.28 84.8 471.72 78.05 465.11 70.58 459.95 61.96 460.31 56.79 457.72 59.03 462.76 59.63 463.07"/>
    <path class="cls-4" d="m174.51,471.15l-1.63,5.77,5.83-4.25c.28-.52.57-1.01.86-1.47.55-2.63,1.11-5.25,1.67-7.87-.27-.89-.54-1.77-.8-2.66-2.4,1.72-4.5,5.4-5.94,10.48h.01Z"/>
    <path class="cls-4" d="m239.83,453.6l-5.45,2.49,7.01,1.7c.58-.12,1.14-.22,1.68-.29,2.37-1.28,4.73-2.55,7.09-3.81.5-.78,1-1.55,1.51-2.33-2.87-.72-7.03.06-11.84,2.25h0Z"/>
    <path class="cls-4" d="m158.71,485.35l-5.45,2.49,7.01,1.7c.58-.12,1.14-.22,1.68-.29,2.37-1.28,4.73-2.55,7.09-3.81.5-.78,1-1.55,1.51-2.33-2.87-.72-7.03.06-11.84,2.25h0Z"/>
    <path class="cls-4" d="m163.53,498.94l-1.63,5.77,5.83-4.25c.28-.52.57-1.01.86-1.47.55-2.63,1.11-5.25,1.67-7.87-.27-.89-.54-1.77-.8-2.66-2.4,1.72-4.5,5.4-5.94,10.48h.01Z"/>
    <path class="cls-4" d="m96.87,503.67l-5.45,2.49,7.01,1.7c.58-.12,1.14-.22,1.68-.29,2.37-1.28,4.73-2.55,7.09-3.81.5-.78,1-1.55,1.51-2.33-2.87-.72-7.03.06-11.84,2.25h0Z"/>
    <path class="cls-4" d="m181.58,485.35l-5.45,2.49,7.01,1.7c.58-.12,1.14-.22,1.68-.29,2.37-1.28,4.73-2.55,7.09-3.81.5-.78,1-1.55,1.51-2.33-2.87-.72-7.03.06-11.84,2.25h0Z"/>
    <path class="cls-4" d="m129.01,493.93l-3.04,4.13,8.1,4.46c.44-.16.89-.26,1.34-.32,1.65-3.17,3.31-6.31,4.99-9.41-4.02-3.67-8.15-3.26-11.39,1.14h0Z"/>
    <path class="cls-4" d="m191.57,500.21l-3.04,4.13,8.1,4.46c.44-.16.89-.26,1.34-.32,1.65-3.17,3.31-6.31,4.99-9.41-4.02-3.67-8.15-3.26-11.39,1.14h0Z"/>
    <path class="cls-4" d="m119.5,496.28l-3.04-6.3,8.1-6.8c.44.24.89.4,1.34.49,1.65,4.83,3.31,9.62,4.99,14.35-4.02,5.6-8.15,4.97-11.39-1.74h0Z"/>
    <path class="cls-6" d="m706.66,440.56c2.5-5.3,5.01-10.55,7.53-15.74-6.23-6.22-12.57-5.59-17.49,1.76l-4.61,6.9,12.51,7.6c.68-.26,1.36-.43,2.06-.52h0Z"/>
    <polygon class="cls-7" points="810.86 399.96 796.11 387.06 787.93 374.5 775.97 363.24 760.58 358.84 755.23 338.99 756.43 362.95 765.29 363.25 769.82 366.65 774.8 365.43 785.36 376.75 791.92 390.37 799.31 401.72 808.27 403.96 813.45 410.13 811.46 400.71 810.86 399.96"/>
    <polygon class="cls-7" points="849.36 434.29 846.3 437.87 848.11 440.08 841.52 440.47 834.28 440.82 830.66 445.52 835.1 442.54 850.4 441.38 852.12 436.18 865.22 430.88 859.93 431.25 856.04 432.9 849.36 434.29"/>
    <path class="cls-6" d="m659.24,495.2l-5.09-.59.14,9.25c.36.31.67.64.94,1.01,3.57-.13,7.12-.24,10.65-.33,1.2-5.31-1.2-8.7-6.63-9.33h-.01Z"/>
    <path class="cls-6" d="m180.77,352.66l-5.36,7.81,19.21-5.76c.92-.7,1.87-1.37,2.85-1.99,1.82-3.57,3.67-7.12,5.52-10.67-.88-1.2-1.77-2.4-2.65-3.6-7.91,2.33-14.84,7.31-19.57,14.2h0Z"/>
    <path class="cls-6" d="m310.58,361.32l-5.09-.59.14,9.25c.36.31.67.64.94,1.01,3.57-.13,7.12-.24,10.65-.33,1.2-5.31-1.2-8.7-6.63-9.33h-.01Z"/>
    <path class="cls-6" d="m317.66,404.96l-5.09-.59.14,9.25c.36.31.67.64.94,1.01,3.57-.13,7.12-.24,10.65-.33,1.2-5.31-1.2-8.7-6.63-9.33h-.01Z"/>
    <path class="cls-6" d="m192.96,372.8l-1.63-4.86-8.31,4.06c-.13.45-.3.88-.51,1.28,1.64,3.17,3.25,6.34,4.83,9.49,5.32-1.18,7.36-4.79,5.62-9.97h0Z"/>
    <g id="Layer_4" data-name="Layer 4">
      <g id="Group_133" data-name="Group 133">
        <path id="Path_1" data-name="Path 1" class="cls-3" d="m456.96,129.04c9-.03,17.67,3.34,24.3,9.42l118.79,109.31c7.08,6.49,11.12,15.65,11.16,25.25l-.03,124.69c0,19.11-15.91,34.66-35.47,34.66l-237.62-.05c-19.55,0-35.46-15.56-35.45-34.67l.03-124.69c.04-9.6,4.09-18.76,11.17-25.25l118.83-109.26c6.63-6.08,15.31-9.44,24.3-9.41h0Z"/>
        <path id="Path_13" data-name="Path 13" class="cls-7" d="m556.95,350.96v36.31h17.84v5.25h-64.07v-5.26h17.85v-36.31h-70.73v-22.76l66.24-91.85h32.9l-.02,107.4h23v7.22h-23.01Zm-27.02-79.4l-41.34,56.64h41.33v-56.64Z"/>
        <path id="Path_14" data-name="Path 14" class="cls-7" d="m452.92,363.58c-3.49,6.39-8.21,12.02-13.88,16.59-5.81,4.67-12.37,8.33-19.41,10.82-6.93,2.54-14.26,3.85-21.64,3.88-3.46-.03-6.92-.3-10.35-.83-3.75-.55-7.45-1.41-11.05-2.59-3.52-1.13-6.91-2.63-10.11-4.47-2.97-1.66-5.6-3.85-7.76-6.47v11.06h-6.59v-49.89h10.36c-.02,3.71,1.04,7.35,3.06,10.47,2.02,3.2,4.66,5.96,7.76,8.12,3.18,2.22,6.66,3.96,10.35,5.18,3.48,1.21,7.13,1.85,10.82,1.88,3.46-.05,6.91-.56,10.23-1.53,3.62-.99,7.1-2.46,10.35-4.35,3.14-1.81,5.86-4.25,8-7.18,2.12-2.9,3.23-6.41,3.18-10,0-5.96-1.96-10.55-5.88-13.77-4.47-3.52-9.47-6.3-14.82-8.24-5.96-2.27-12.39-4.47-19.28-6.59-6.76-2.05-13.24-4.94-19.28-8.59-5.98-3.63-11.05-8.58-14.82-14.48-3.92-6.04-5.88-14.08-5.87-24.12-.05-6.89,1.83-13.65,5.41-19.53,3.59-5.94,8.26-11.17,13.76-15.41,5.6-4.33,11.88-7.71,18.58-10,6.46-2.29,13.26-3.48,20.11-3.53,3.19.03,6.37.26,9.53.71,3.54.48,7.04,1.22,10.47,2.24,3.35.98,6.58,2.32,9.64,4,2.8,1.5,5.28,3.54,7.29,6v-9.41h5.64v45.18h-9.88c.02-3.22-1.01-6.36-2.94-8.94-2.01-2.71-4.48-5.06-7.29-6.94-2.89-1.96-6.06-3.46-9.41-4.47-3.01-.96-6.14-1.48-9.29-1.53-3.22.05-6.41.49-9.53,1.29-3.44.83-6.73,2.18-9.76,4-2.89,1.72-5.44,3.96-7.53,6.59-2.03,2.58-3.12,5.78-3.06,9.06,0,5.96,2,10.55,5.99,13.77,4.46,3.47,9.47,6.18,14.81,8.01,5.88,2.12,12.31,4.16,19.28,6.12,6.77,1.87,13.25,4.64,19.28,8.24,5.94,3.58,11,8.45,14.81,14.24,4,5.96,5.99,13.96,5.99,24,.09,7.47-1.73,14.84-5.29,21.41h.02Z"/>
      </g>
    </g>
    <g id="Group_133-2" data-name="Group 133">
      <path id="Path_1-2" data-name="Path 1" class="cls-3" d="m419.06,76.47c11.77-1.02,23.51,2.45,32.87,9.68l167.57,130.08c10,7.74,16.27,19.27,17.38,31.83l13.67,163.27c2.1,25.04-17.04,47.15-42.65,49.28l-311.17,26.05c-25.6,2.14-48.14-16.46-50.23-41.51l-13.67-163.27c-1-12.59,3.28-25.01,11.84-34.29l143.62-156.1c8.01-8.7,19-14.05,30.79-14.99h.01s0-.02,0-.02h-.01s0,0,0,0Z"/>
      <path id="Path_13-2" data-name="Path 13" class="cls-7" d="m574.39,356.08l4,47.55,23.38-1.95.57,6.89-83.9,7.04-.57-6.89,23.38-1.95-4-47.55-92.63,7.76-2.49-29.77,76.62-127.54,43.07-3.61,11.79,140.61,30.13-2.52.78,9.45-30.1,2.51h0v-.02s0-.01,0-.01h-.02s0,0,0,0Zm-44.11-100.99l-47.92,78.69,54.12-4.54-6.21-74.19h.01s0,.02,0,.02h0Z"/>
      <path id="Path_14-2" data-name="Path 14" class="cls-7" d="m439.54,384.03c-3.86,8.75-9.42,16.65-16.35,23.25-7.09,6.76-15.27,12.28-24.2,16.31-8.81,4.1-18.24,6.6-27.91,7.43-4.53.36-9.1.36-13.64.04-4.98-.32-9.91-1-14.77-2.16-4.73-1.1-9.35-2.68-13.72-4.75-4.06-1.85-7.76-4.43-10.9-7.63l1.21,14.48-8.6.72-5.49-65.32,13.54-1.12c.38,4.88,2.16,9.5,5.14,13.39,2.99,3.96,6.76,7.3,11.05,9.78,4.41,2.55,9.19,4.45,14.13,5.64,4.69,1.19,9.54,1.63,14.39,1.28,4.53-.44,8.97-1.49,13.24-3.15,4.64-1.7,9.03-4,13.05-6.84,3.91-2.72,7.21-6.21,9.67-10.29,2.45-4.05,3.52-8.74,3.07-13.44-.65-7.82-3.72-13.59-9.21-17.38-6.24-4.11-13.1-7.21-20.32-9.15-8.04-2.32-16.69-4.47-25.98-6.5-9.08-1.92-17.88-5.01-26.18-9.15-8.26-4.09-15.41-10.03-20.97-17.31-5.79-7.48-9.25-17.79-10.35-30.95-.83-9,.89-18.07,4.92-26.18,4.05-8.18,9.59-15.54,16.32-21.68,6.87-6.3,14.71-11.41,23.24-15.12,8.23-3.72,16.96-6,25.95-6.83,4.19-.32,8.38-.36,12.56-.14,4.67.22,9.36.82,13.94,1.76,4.48.92,8.86,2.33,13.07,4.17,3.84,1.65,7.3,4.05,10.23,7.05l-1.02-12.31,7.38-.62,4.96,59.15-12.93,1.09c-.32-4.22-2.04-8.24-4.83-11.4-2.95-3.33-6.43-6.15-10.32-8.29-4-2.23-8.32-3.87-12.8-4.82-4.06-.93-8.2-1.25-12.32-1-4.19.42-8.34,1.34-12.33,2.74-4.42,1.47-8.58,3.59-12.32,6.32-3.59,2.57-6.68,5.78-9.14,9.45-2.37,3.6-3.46,7.91-3.02,12.2.65,7.82,3.78,13.61,9.37,17.38,6.21,4.04,13.07,7.03,20.29,8.86,7.91,2.13,16.56,4.08,25.94,5.9,9.05,1.71,17.89,4.63,26.14,8.65,8.15,4.04,15.32,9.84,20.97,17.02,5.91,7.38,9.4,17.63,10.5,30.77.94,9.75-.62,19.63-4.56,28.63v.05s.02,0,.02,0l-.03-.06h0l.03.03-.06.03h-.03s0,.01,0,.01Z"/>
    </g>
    <path class="cls-6" d="m813.16,370.25l-35.23-47.86-42.55-42.43c.23.54.44,1.09.63,1.65,1.03,2.96,1.45,6.1,1.18,9.21-.52,6.29-4.04,11.98-9.53,15.4-2.72,1.7-5.77,2.83-8.95,3.35-3.36.56-6.78.51-10.12-.12-3.58-.68-7.01-1.95-10.13-3.77-2.29-1.31-4.38-2.91-6.25-4.75-4.03.2-8.05.42-12.09.67.24,1.52.48,3.04.72,4.57l124.66,72.1c5.36,3.1,11.29-3.07,7.65-8h-.02s.02,0,.02,0h0Z"/>
    <polygon class="cls-7" points="759.59 361.85 766.87 363.55 766.87 363.55 759.59 361.84 759.59 361.85"/>
    <path class="cls-7" d="m753.49,379.5l-7.33,3.39,8.11,1.89,4.66-2.26,1.89-14.19c2.02-1.59,4.03-3.19,6.04-4.78l-7.28-1.71-6.1,17.65h0Z"/>
    <polygon class="cls-1" points="732.02 335.76 732.03 335.77 732.44 335.17 775.55 364.03 775.56 364.02 732.44 335.14 732.02 335.76"/>
    <polygon class="cls-1" points="805.01 337.83 741.03 295 729.41 327.55 778.13 360.18 805.01 337.83"/>
    <path class="cls-1" d="m714.09,304.8l-2.24,6.65,4.89,17.89,8.22,4.87,4.45-6.67,11.62-32.56,63.97,42.83-26.88,22.34-2.56,3.84v.02h0l-.41.63h0l-25.87,38.63c3.64-1.16,7.24-2.34,10.78-3.53,10.5,10.09,21.38,20.84,32.6,32.23,6.78-2.49,13.35-5.05,19.7-7.69l.9-9.86,17.2-19.1,3.41-.26,10.94-30.65,22.06,14.78h0l-141.94-95.07.27.53-11.05,20.12h0v.02s-.03,0-.03,0h0Z"/>
    <path class="cls-6" d="m732.02,335.79h0l-.02-.02.42-.63,43.13,28.88,2.56-3.84-48.72-32.62-4.45,6.67,3.64,2.15,7.01,18.23,6.77,13.33-.76,10.79-7.25,5.75-6.14,16.07,1.65-14.96,7.84-16.49-14.95-29.5-.9-.73-34.79,51.96c8.73,7.2,17.72,14.79,26.97,22.82,12.25-3.31,23.99-6.75,35.23-10.34l25.87-38.63-43.11-28.87v.02h0v-.03h0-.01Z"/>
    <polygon class="cls-5" points="775.15 364.64 775.14 364.65 775.15 364.67 775.57 364.03 775.55 364.03 775.14 364.64 775.55 364.03 775.55 364.03 775.15 364.64"/>
    <polygon class="cls-7" points="737.69 369.08 729.87 385.57 728.2 400.54 734.36 384.46 741.61 378.71 742.37 367.93 735.61 354.6 728.6 336.36 724.96 334.2 721.86 338.85 722.76 339.56 737.69 369.08"/>
    <path class="cls-4" d="m772,317.8l81.78,61.72-105.57-108.95c.49,2.76,1,5.51,1.53,8.27-4.61.54-9.21,1.13-13.81,1.75.02.01.04.03.06.05l36.01,37.16h0s0,0,0,0Z"/>
    <g>
      <path class="cls-4" d="m832.59,405.05l-14.45,23.67,36.76,31.02v-.02s.01,0,.01,0l15.35,12.94c5.69,4.81,12.87,2.94,16.61-1.68,2.56-3.18,3.51-7.69,1.27-12.26l-25.99-37.43-3.66,6-25.89-22.24h0Z"/>
      <path class="cls-4" d="m805.72,376.7c4.5,6.37-2.92,14.38-9.62,10.36l-155.57-93.4c1.51,10.13,3.16,20.23,4.94,30.31l164.54,98.79,10.5-25.67,29.11,17.82,2.66-6.51-90.38-93.75,43.83,62.04h0Z"/>
    </g>
  </g>
</svg>