<?xml version="1.0" encoding="UTF-8"?>
<svg id="Layer_2" data-name="Layer 2" xmlns="http://www.w3.org/2000/svg" viewBox="0 0 1108.07 521.53">
  <defs>
    <style>
      .cls-1 {
        fill: none;
      }

      .cls-1, .cls-2, .cls-3, .cls-4, .cls-5, .cls-6 {
        stroke-width: 0px;
      }

      .cls-2 {
        fill: #756746;
      }

      .cls-3 {
        fill: #5c5c5c;
      }

      .cls-4 {
        fill: #2c2c7c;
      }

      .cls-5 {
        fill: #d0d8d7;
      }

      .cls-6 {
        fill: #fff;
      }
    </style>
  </defs>
  <g id="Layer_2-2" data-name="Layer 2">
    <path class="cls-1" d="m238.42,299.63c.1,1.37.2,2.74.29,4.11,3.55,1.26,7.11,2.47,10.67,3.7.24-3.6.5-7.2.74-10.81l-11.72,2.99h.02Z"/>
    <path class="cls-1" d="m257.11,312.02l-3.9-5.28c.85,1.82,1.68,3.63,2.54,5.44.43.09.84.15,1.27.24l.09-.4h0Z"/>
    <path class="cls-5" d="m114.73,396.15l-6.34-3.64c1.45,8.45,2.98,16.9,4.61,25.32,2.29.57,4.6,1.1,6.91,1.66l-2.68-5.25-2.5-18.09h0Z"/>
    <path class="cls-5" d="m452.25.4l.08-.4c-.09.08-.17.16-.26.24.06.05.12.11.18.16h0Z"/>
    <path class="cls-5" d="m155.83,430.71l-3.07,4.11,8.07,4.51c.44-.16.89-.25,1.34-.31,1.67-3.16,3.35-6.29,5.05-9.38-4-3.7-8.13-3.31-11.4,1.06h.01Z"/>
    <path class="cls-5" d="m151.97,456.45c2.5-5.3,5.01-10.55,7.53-15.74-6.23-6.22-12.57-5.59-17.49,1.76l-4.61,6.9,12.51,7.6c.68-.26,1.36-.43,2.06-.52h0Z"/>
    <path class="cls-5" d="m220.46,466.67c-6.61-1.95-17.63,15.32-23.63,18.79l-2.01-13.02,14.21,2.53c.07-.01.15-.03.22-.04-.11-.14-.23-.28-.35-.41,3.84-2.64,7.69-5.25,11.55-7.85h.01Z"/>
    <path class="cls-5" d="m152.13,440.46l-3.04,4.13,8.1,4.46c.44-.16.89-.26,1.34-.32,1.65-3.17,3.31-6.31,4.99-9.41-4.02-3.67-8.15-3.26-11.39,1.14h0Z"/>
    <path class="cls-5" d="m217.42,411.94c-2.36,1.37-4.72,2.75-7.07,4.14l12.35,1.44-5.28-5.58h0Z"/>
    <path class="cls-6" d="m257.47,312.5l-.35-.48-.09.4c.15.03.3.06.45.08h0Z"/>
    <polygon class="cls-6" points="257.53 292.78 250.28 312.39 255.3 308.48 257.53 292.78"/>
    <path class="cls-6" d="m571.71.98c-1.45,8.44-2.89,16.88-4.34,25.31l7.29,7.59c1.07-.63,2.15-1.26,3.22-1.89-2.06-10.34-4.12-20.67-6.17-31.01h0Z"/>
    <path class="cls-6" d="m584.72,108.18l-10.67-8.62c-.03-.21-.05-.43-.09-.65-1.11.55-2.24,1.11-3.35,1.65l4.9,5.91,9.2,1.69h0v.02h.01Z"/>
    <path class="cls-6" d="m912.12,360.45l-2.8,5.54,6.97,2.68c7.05-4.17,14.09-8.33,21.15-12.49-8.44,1.42-16.88,2.85-25.33,4.27h.01Z"/>
    <path class="cls-6" d="m256.82,304.89l-4.74-8.72,1.9-.49h0l-3.85.97c-.24,3.6-.5,7.2-.74,10.81,3.05,1.06,6.11,2.12,9.17,3.16-.59-1.92-1.16-3.82-1.76-5.74h.02Z"/>
    <path class="cls-6" d="m252.06,296.17l4.74,8.72-2.83-9.21-1.9.49h-.01Z"/>
    <g>
      <path class="cls-5" d="m880.09,388.16l-21.4-20.83.91-1.15c-2.31-2.19-4.61-4.36-6.89-6.48l-65.37,85.65.04.04,46.57,35.54,42.15-55.21-14.51-14.12,18.51-23.44h0Z"/>
      <path class="cls-5" d="m894.68,459.15h0c1.5,3.53,3,6.93,4.47,10.23l.52-.4-5.12-11.83,10.57-8.16-3.47-8.02-21.91,17.47c4.82.1,9.79.35,14.93.72h0Z"/>
    </g>
    <path class="cls-1" d="m1026.2,430.38l-5.68-4.56-17.04-2.43,14.95-1.69,15.31,3.42,20.44-14.34,7.53-6.26,1.22-2.46c-6.87.18-13.92.2-21.14.07-6.35-14.69-12.62-28.62-18.76-41.84-3.73-.16-7.5-.37-11.32-.6l-108.08,75.75.03.05-22.33,25.88,27.58,39.35,32.77-11-.03-.05,84.57-59.27h-.03s0-.02,0-.02h0Z"/>
    <polygon class="cls-1" points="1015.18 363.68 1014.16 367.72 1031.4 353.96 1030.98 353.94 1015.18 363.68"/>
    <path class="cls-5" d="m1046.61,415.08h0v-.03s.65-.37.65-.37l24.98,45.5,4.04-2.23-28.22-51.4-7.02,3.87,2.24,3.59-2.18,19.41-.13,14.95-5.65,9.23-9.08,1.76-12.85,11.43,8.36-12.52,14.56-11.02.32-33.07-.46-1.06-54.82,30.09c4.43,10.41,8.91,21.29,13.43,32.68,12.4,2.71,24.4,5.06,36.03,7.05l40.76-22.37-24.96-45.48v.02h0v-.03h.01,0s.01,0,.01,0Z"/>
    <polygon class="cls-4" points="1042.81 353.6 1042.8 353.61 1042.79 353.63 1043.39 353.16 1043.37 353.14 1042.8 353.6 1043.37 353.14 1043.37 353.14 1042.81 353.6"/>
    <path class="cls-5" d="m1024.95,337.66c-4.53.33-9.15.6-13.84.78l-2.43,7.64-16.22,10.88-11.48,9.55-10.71,1.67-1.53-1.23-84.57,59.27.03.05,33.63,47.97,132.68-92.99c-3.03.48-6.11.9-9.21,1.29-5.48-15.69-10.95-30.64-16.31-44.86v-.03h-.04Z"/>
    <polygon class="cls-6" points="847.25 394.9 847.25 394.9 850.35 390.28 842.12 385.39 837.23 367.5 839.47 360.86 850.53 340.75 850.27 340.23 842.49 335.02 844.37 341.42 832.13 362.7 838.32 387.63 847.25 394.9 847.25 394.9"/>
    <polygon class="cls-6" points="970.94 431.48 956.4 442.5 948.03 455.02 960.91 443.58 969.99 441.83 975.63 432.6 975.77 417.66 977.95 398.25 975.71 394.65 970.82 397.35 971.29 398.4 970.94 431.48"/>
    <path class="cls-6" d="m932.07,343.17l-.09,2.74-4.28,8.79,7.85-13.24c-1.15.57-2.31,1.14-3.47,1.7h0Z"/>
    <polygon class="cls-6" points="899.61 379.37 886.7 387.09 903.22 382.29 910.27 384.12 914.97 376.18 899.61 379.37"/>
    <path class="cls-6" d="m1011.87,348.04l-16.07,16.89-2.55-.25-6.89,6.13,1.67,1.05,10.44-2.91,10.29-10.82,14.84-12.71,1.55-7.87c-.6.09-1.17.18-1.78.28l-11.49,10.24h0l-.02-.03h0Z"/>
    <path class="cls-6" d="m937.15,340.66l-.18-1.61-1.42,2.4c.54-.27,1.07-.53,1.61-.8h0v.02h-.01Z"/>
    <path class="cls-5" d="m139.14,471.98c-2.36,1.37-4.72,2.75-7.07,4.14l12.35,1.44-5.28-5.58h0Z"/>
    <path class="cls-5" d="m188.41,424.12c-2.35,1.39-4.7,2.78-7.04,4.19l12.36,1.36-5.32-5.54h0Z"/>
    <path class="cls-5" d="m201.67,458.94c-2.35,1.39-4.7,2.78-7.04,4.19l12.36,1.36-5.32-5.54h0Z"/>
    <polygon class="cls-1" points="167.52 416.69 167.52 416.69 167.52 416.69 172.98 443.62 172.98 443.62 167.52 416.69"/>
    <path class="cls-1" d="m112.35,388.21l-42.58,40.11.29.27.3.28,42.57-40.1,100.42,94.7h.02s-100.43-94.72-100.43-94.72l-.29-.27-18.18-32.44h0l18.18,32.44-.3-.28h-.01s0,.01,0,.01Z"/>
    <path class="cls-1" d="m196.72,321.65c1.73.11,3.46.21,5.18.34l-1.54-5.42-17.18-.91c.51,1.87,1.05,3.7,1.55,5.56,3.91.06,7.83.22,11.74.44l.22-.15v.16h.05-.01Z"/>
    <polygon class="cls-1" points="167.36 415.95 167.38 416.02 167.36 415.95 167.36 415.95"/>
    <path class="cls-1" d="m207.15,465.25l2.78,12.86,14.46,4.49-9.68-6.7-5.77-21.86c-1.51-.12-3.02-.22-4.53-.32l2.75,11.53h-.02,0Z"/>
    <polygon class="cls-4" points="167.44 416.33 167.44 416.33 167.38 416.02 167.44 416.33"/>
    <polygon class="cls-4" points="167.52 416.69 167.52 416.69 167.43 416.33 167.52 416.69"/>
    <path class="cls-5" d="m86.22,463.04c10-4.79,20.24-9.09,30.71-12.88,7.97,8.89,15.84,17.87,23.57,26.92,2.84-.94,5.71-1.81,8.57-2.67l-100.17-94.93-42.67,40.01-.3-.28-5.53,5.18H.4l31.92,30.26c4.17-2.68,8.38-5.28,12.67-7.78,7.31,6.58,14.5,13.26,21.68,19.98l15.37-7.71,4.18,3.88h0l-.02.03h.01Z"/>
    <path class="cls-5" d="m146.64,388.41c-5.56-10.44-11.27-20.8-17.09-31.11-10.96,1.74-21.83,4.05-32.56,6.87l13.76,19.81,12.77,3.16-17.2.84-7.43-11.88-6.94-10.56c-.08.03-.17.04-.24.08l-4.78,6.2-13.39.11-10.04-9.37-8.35-4.2,77.22,113.53.05-.02-.22-.35,50.03-31.39.21.34,6.43-4.04-33.33-49.01c-2.97.3-5.93.63-8.89,1h-.02s0-.02,0-.02h.01s0,0,0,0Z"/>
    <path class="cls-5" d="m232.26,307.95l-.19.14c.07,0,.15,0,.22.02v-.15h-.03Z"/>
    <polygon class="cls-4" points="167.26 416.56 167.62 416.49 167.62 416.49 167.26 416.56"/>
    <polygon class="cls-4" points="167.43 416.33 167.52 416.69 167.44 416.33 167.43 416.33"/>
    <path class="cls-5" d="m91.16,351.57l-2.72,4.83,9.93,3.37c.47-.24.96-.41,1.46-.55,1.31-3.6,2.64-7.16,3.99-10.68-5.18-3.2-9.77-2.1-12.66,3.04h0Z"/>
    <path class="cls-5" d="m355.37,467.47c2.78-5.16,5.57-10.26,8.37-15.31-5.88-6.55-12.25-6.26-17.56.81l-4.98,6.64,12.08,8.27c.69-.22,1.38-.36,2.09-.41h0Z"/>
    <path class="cls-5" d="m159.64,486.55c-2.36,1.37-4.72,2.75-7.07,4.14l12.35,1.44-5.28-5.58h0Z"/>
    <path class="cls-5" d="m840.05,377.38l-3.26,3.96,7.85,4.89c.45-.14.9-.21,1.36-.25,1.82-3.08,3.65-6.12,5.49-9.13-3.82-3.88-7.96-3.7-11.44.52h0Z"/>
    <path class="cls-5" d="m865.26,399.84c-2.59-.87-5.17-1.73-7.77-2.59l7.06,10.24.71-7.65h0Z"/>
    <polygon class="cls-1" points="889.91 427.98 889.92 428.01 905.41 431.47 905.53 430.92 905.41 431.44 889.91 427.98"/>
    <polygon class="cls-1" points="854.75 420.15 854.74 420.18 883.09 426.48 883.08 426.45 854.75 420.15"/>
    <path class="cls-1" d="m931.45,468.89h0l-.04.37-151.77-17.32h-.02l151.8,17.33.04-.38h0Z"/>
    <path class="cls-1" d="m931.45,468.88l-151.16-17.25h-.02l151.18,17.26h0Z"/>
    <path class="cls-1" d="m847.37,430.05c-4.39-1.13-8.76-2.25-13.12-3.32-1.97.9-3.96,1.82-5.96,2.72l18.25,2.08.82-1.49h.01Z"/>
    <path class="cls-5" d="m913.82,451.82l-.67-24.13h-.05l-25.98-5.8,2.4,5.24,16.05,3.58-.05.21-.12.55-15.48-3.45.81,1.77,5.66,8.74-.98,8.77-1.42,1.39-2.87-5.83,1.05-2.14-8.82-13.65h0l-.28-.57-28.35-6.32v-.02h0l.16-.73,27.76,6.18-2.6-5.28-24.13-5.38-14.98,26.99c3.55.91,7.1,1.85,10.65,2.8l62.21,7.1.02-.02h0Z"/>
    <path class="cls-5" d="m858.02,432.84c-3.56-.95-7.11-1.88-10.65-2.8l-.82,1.49,11.49,1.31h-.02Z"/>
    <polygon class="cls-5" points="934.59 441.23 934.55 441.6 934.55 441.6 934.59 441.23"/>
    <polygon class="cls-5" points="931.45 468.89 931.39 469.28 931.41 469.26 931.45 468.89 931.45 468.89 931.45 468.89"/>
    <path class="cls-5" d="m858.02,432.84l-11.49-1.31-.23.43,14.5,1.64c-.93-.25-1.86-.51-2.78-.76h0Z"/>
    <path class="cls-3" d="m899.19,480.22h0l-.02.38-73.48-3.92c-5.47,6.26-11.02,12.66-16.68,19.22-7.28-1.2-14.48-2.09-21.61-2.69-1.41,3.28-2.81,6.56-4.21,9.87l146.79,7.84,1.57-28.97-32.37-1.74h.01Z"/>
    <path class="cls-5" d="m946.55,426.48c1.82-3.08,3.65-6.12,5.49-9.13-3.82-3.88-7.96-3.7-11.44.52l-3.26,3.96,7.85,4.89c.45-.14.9-.21,1.36-.25h0Z"/>
    <polygon class="cls-4" points="889.54 427.16 889.91 427.98 905.41 431.44 905.53 430.92 905.57 430.73 889.54 427.16"/>
    <polygon class="cls-4" points="882.67 425.62 854.9 419.44 854.75 420.15 883.08 426.45 882.67 425.62"/>
    <polygon class="cls-4" points="905.57 430.73 905.53 430.92 905.57 430.7 889.52 427.13 889.54 427.16 905.57 430.73"/>
    <polygon class="cls-4" points="882.67 425.62 882.65 425.59 854.91 419.42 854.74 420.15 854.75 420.15 854.9 419.44 882.67 425.62"/>
    <path class="cls-5" d="m952.09,468.5l9.49,8.04-1.32-7.56h0c-2.72-.17-5.45-.33-8.18-.46h0v-.02Z"/>
    <path class="cls-5" d="m933.47,446.87h0c-2.42,1.25-4.84,2.51-7.26,3.79l12.27,2.03-5.01-5.82h0Z"/>
    <path class="cls-6" d="m884.98,417.22l-6.05-1.39c-.12.49-.22.99-.34,1.49l1.48,2.99,7.06,1.58-2.14-4.67h0Z"/>
    <polygon class="cls-6" points="883.08 426.45 883.09 426.48 889.92 428.01 889.91 427.98 883.08 426.45"/>
    <polygon class="cls-6" points="889.52 427.13 887.12 421.89 880.05 420.31 882.65 425.59 889.52 427.13"/>
    <polygon class="cls-6" points="883.37 427.05 883.36 427.05 892.19 440.71 891.14 442.84 894.01 448.67 895.42 447.29 896.4 438.52 890.74 429.77 889.92 428.01 883.09 426.48 883.37 427.05"/>
    <polygon class="cls-6" points="889.91 427.98 889.54 427.16 882.67 425.62 883.08 426.45 889.91 427.98"/>
    <polygon class="cls-6" points="882.67 425.62 889.54 427.16 889.52 427.13 882.65 425.59 882.67 425.62"/>
    <path class="cls-5" d="m951.17,456.63c-1.65.96-3.3,1.92-4.96,2.9-7.48-1.27-14.92-2.46-22.33-3.6l-62.31-4.38h.02l.39-1.03-19.42.71c-13.92,9.1-28.19,18.47-42.81,28.16l152.05-5.38-.62-17.37h-.01Z"/>
    <g>
      <path class="cls-5" d="m106.12,456.64c8.68,4.89,17.18,10.54,25.44,16.94-.36.97-.74,1.94-1.1,2.9l118.49,11.1c-8.76-6.89-17.44-13.91-26.03-21.03,2.72-2.76,5.47-5.49,8.23-8.22l-121.04-11.34c-1.33,3.23-2.65,6.45-3.98,9.65h0Z"/>
      <path class="cls-3" d="m266.18,503.34c-3.49-3.22-6.96-6.46-10.44-9.7l.02-.02h-.05s.03.02.04.03l-118.41-21.72c-2.81,5.82-5.61,11.62-8.39,17.37,3.41,3.86,6.73,7.87,9.96,12.03l107.61,19.73c6.49-5.99,13.03-11.92,19.66-17.72h0Z"/>
    </g>
    <path class="cls-5" d="m965.09,480.75l-3.26,3.96,7.85,4.89c.45-.14.9-.21,1.36-.25,1.82-3.08,3.65-6.12,5.49-9.13-3.82-3.88-7.96-3.7-11.44.52h0Z"/>
    <path class="cls-5" d="m975.15,464.77c2.31-5.18,4.63-10.31,6.94-15.39-4.71-6.48-9.87-6.13-14.25.99l-4.11,6.69,9.71,8.14c.56-.23,1.12-.37,1.7-.43h0Z"/>
    <path class="cls-5" d="m953.88,410.6c-2.42,1.26-4.84,2.52-7.26,3.8l12.27,2.03-5.01-5.82h0Z"/>
    <path class="cls-5" d="m922.42,438.32l-3.26,3.96,7.85,4.89c.45-.14.9-.21,1.36-.25,1.82-3.08,3.65-6.12,5.49-9.13-3.82-3.88-7.96-3.7-11.44.52h0Z"/>
    <path class="cls-5" d="m966.72,502.38h0c-2.42,1.25-4.84,2.51-7.26,3.79l12.27,2.03-5.01-5.82h0Z"/>
    <path class="cls-5" d="m932.81,373.65l-3.26,3.96,7.85,4.89c.45-.14.9-.21,1.36-.25,1.82-3.08,3.65-6.12,5.49-9.13-3.82-3.88-7.96-3.7-11.44.52h0Z"/>
    <path class="cls-5" d="m936.84,418.38c2.31-5.18,4.63-10.31,6.94-15.39-4.71-6.48-9.87-6.13-14.25.99l-4.11,6.69,9.71,8.14c.56-.23,1.12-.37,1.7-.43h0Z"/>
    <path class="cls-5" d="m889.82,359.01c-2.42,1.26-4.84,2.52-7.26,3.8l12.27,2.03-5.01-5.82h0Z"/>
    <path class="cls-5" d="m884.11,391.95l-3.26,3.96,7.85,4.89c.45-.14.9-.21,1.36-.25,1.82-3.08,3.65-6.12,5.49-9.13-3.82-3.88-7.96-3.7-11.44.52h0Z"/>
    <path class="cls-5" d="m970.76,411.84h0c-2.42,1.25-4.84,2.51-7.26,3.79l12.27,2.03-5.01-5.82h0Z"/>
    <path class="cls-3" d="m257.92,494.06l-80.4-12.33c3.56,3.14,7.12,6.27,10.69,9.38-3.37,3.14-6.71,6.3-10.04,9.49,14.71,2.48,29.56,5.26,44.53,8.38,11.94-5.1,23.68-10.07,35.22-14.91h0Z"/>
    <path class="cls-6" d="m150.2,441.18l-5.23-25.24c-1.28,1.58-2.54,3.16-3.81,4.73l.55,2.64,2.01,19.43,9.63,9.89.03,11.72s.05.1.06.16l-.07.07.02,6.62-3.92,5.82-14.54,15.08,3.83,2.61,18.48-27.21.33-16.01-7.37-10.26h.03v-.04h-.03Z"/>
    <path class="cls-5" d="m159.86,419.51l-.84,5.07,9.25.3c.32-.35.68-.63,1.05-.89.03-3.58.09-7.12.17-10.65-5.24-1.44-8.74.79-9.63,6.18h0Z"/>
    <path class="cls-6" d="m161.64,454.33c-.2-.67-.4-1.33-.62-1.99-3.06-1.04-6.11-2.11-9.17-3.16-.1,1.26-.18,2.53-.26,3.78l8.6,7.31,1.44-5.91.02-.03h-.02,0Z"/>
    <path class="cls-5" d="m172.98,443.62l-3.07,4.11,8.07,4.51c.44-.16.89-.25,1.34-.31,1.67-3.16,3.35-6.29,5.05-9.38-4-3.7-8.13-3.31-11.4,1.06h.01Z"/>
    <path class="cls-5" d="m230.9,459.73c-6.61-1.95-17.63,15.32-23.63,18.79l-2.01-13.02,14.21,2.53c.07-.01.15-.03.22-.04-.11-.14-.23-.28-.35-.41,3.84-2.64,7.69-5.25,11.55-7.85h.01Z"/>
    <path class="cls-5" d="m254.4,466.45l-3.07,4.11,8.07,4.51c.44-.16.89-.25,1.34-.31,1.67-3.16,3.35-6.29,5.05-9.38-4-3.7-8.13-3.31-11.4,1.06h.01Z"/>
    <path class="cls-5" d="m215.29,429.18c-2.36,1.37-4.72,2.75-7.07,4.14l12.35,1.44-5.28-5.58h0Z"/>
    <path class="cls-5" d="m196.25,477.38c-2.36,1.37-4.72,2.75-7.07,4.14l12.35,1.44-5.28-5.58h0Z"/>
    <path class="cls-5" d="m612.15,468.72c2.03-5.3,4.06-10.55,6.1-15.74-5.05-6.22-10.19-5.59-14.18,1.76l-3.74,6.9,10.14,7.6c.55-.26,1.1-.43,1.67-.52h.01Z"/>
    <path class="cls-5" d="m296.06,473.44c-2.35,1.39-4.7,2.78-7.04,4.19l12.36,1.36-5.32-5.54h0Z"/>
    <path class="cls-5" d="m314.81,447.52c-2.42,1.26-4.84,2.52-7.26,3.8l12.27,2.03-5.01-5.82h0Z"/>
    <path class="cls-5" d="m221.51,502.57l-3.04,4.13,8.1,4.46c.44-.16.89-.26,1.34-.32,1.65-3.17,3.31-6.31,4.99-9.41-4.02-3.67-8.15-3.26-11.39,1.14h0Z"/>
    <path class="cls-5" d="m144.01,420.52l-1.6,4.87,9.09,1.71c.37-.29.76-.53,1.17-.72.58-3.53,1.17-7.03,1.8-10.5-4.97-2.23-8.76-.55-10.46,4.64h0Z"/>
    <path class="cls-5" d="m118.53,443.62c2.03-5.3,4.06-10.55,6.1-15.74-5.05-6.22-10.19-5.59-14.18,1.76l-3.74,6.9,10.14,7.6c.55-.26,1.1-.43,1.67-.52h0Z"/>
    <path class="cls-5" d="m105.92,474.36l-3.04,4.13,8.1,4.46c.44-.16.89-.26,1.34-.32,1.65-3.17,3.31-6.31,4.99-9.41-4.02-3.67-8.15-3.26-11.39,1.14h0Z"/>
    <path class="cls-5" d="m93.97,507.62c2.03-5.3,4.06-10.55,6.1-15.74-5.05-6.22-10.19-5.59-14.18,1.76l-3.74,6.9,10.14,7.6c.55-.26,1.1-.43,1.67-.52h0Z"/>
    <path class="cls-5" d="m49.04,409.31c-2.69,1.48-5.37,2.95-8.05,4.45l14.13,1.44-6.08-5.88h0Z"/>
    <path class="cls-5" d="m87.67,459.27c-2.35,1.39-4.7,2.78-7.04,4.19l12.36,1.36-5.32-5.54h0Z"/>
    <path class="cls-5" d="m67.59,420.04l-3.04,4.13,8.1,4.46c.44-.16.89-.26,1.34-.32,1.65-3.17,3.31-6.31,4.99-9.41-4.02-3.67-8.15-3.26-11.39,1.14h0Z"/>
    <path class="cls-5" d="m130.06,512.56c1.65-3.17,3.31-6.31,4.99-9.41-4.02-3.67-8.15-3.26-11.39,1.14h0l-3.04,4.13,8.1,4.46c.44-.16.89-.26,1.34-.32h0Z"/>
    <path class="cls-5" d="m146.6,422.74h0c-2.35,1.38-4.7,2.77-7.04,4.18l12.36,1.36-5.32-5.54h0Z"/>
    <path class="cls-5" d="m824.32,460.43l-3.04,4.13,8.1,4.46c.44-.16.89-.26,1.34-.32,1.65-3.17,3.31-6.31,4.99-9.41-4.02-3.67-8.15-3.26-11.39,1.14h0Z"/>
    <path class="cls-5" d="m812.37,493.69c2.03-5.3,4.06-10.55,6.1-15.74-5.05-6.22-10.19-5.59-14.18,1.76l-3.74,6.9,10.14,7.6c.55-.26,1.1-.43,1.67-.52h.01Z"/>
    <path class="cls-5" d="m848.46,498.63c1.65-3.17,3.31-6.31,4.99-9.41-4.02-3.67-8.15-3.26-11.39,1.14h0l-3.04,4.13,8.1,4.46c.44-.16.89-.26,1.34-.32h0Z"/>
    <path class="cls-5" d="m1060.91,475.22l-4.31,2.79,6,7.04c.47,0,.92.07,1.37.17,2.67-2.38,5.33-4.73,8-7.04-2.47-4.85-6.47-5.94-11.06-2.97h0Z"/>
    <g id="Group_133" data-name="Group 133">
      <path id="Path_1" data-name="Path 1" class="cls-2" d="m522,33.36c14.4-.22,28.37,5.02,39.13,14.62l192.48,172.73c11.48,10.28,18.12,24.85,18.37,40.21l2.44,199.73c.38,30.62-24.82,55.87-56.14,56.22l-380.66,4.66c-31.32.38-57.11-24.2-57.48-54.83l-2.44-199.73c-.12-15.4,6.16-30.13,17.38-40.67L483.26,48.93c10.49-9.89,24.32-15.44,38.74-15.55h.01s0-.02,0-.02h-.01s0,0,0,0Z"/>
      <path id="Path_13" data-name="Path 13" class="cls-6" d="m686.62,386.85l.73,58.17,28.6-.34.1,8.44-102.63,1.28-.1-8.44,28.6-.34-.73-58.17-113.32,1.4-.44-36.41,104.24-148.44,52.69-.65,2.12,172.02,36.85-.46.13,11.56-36.83.44h0v-.02s0-.01,0-.01h-.02s.01-.02.01-.02Zm-44.86-126.63l-65.11,91.52,66.21-.81-1.11-90.75h.01s0,.02,0,.02h0Z"/>
      <path id="Path_14" data-name="Path 14" class="cls-6" d="m520.21,409.14c-5.45,10.3-12.89,19.43-21.9,26.86-9.21,7.6-19.64,13.61-30.85,17.73-11.06,4.22-22.75,6.44-34.59,6.62-5.53.04-11.1-.35-16.59-1.14-6.03-.82-11.96-2.09-17.78-3.91-5.66-1.75-11.14-4.07-16.28-6.97-4.77-2.6-9.05-6.07-12.59-10.22l.22,17.71-10.52.12-1.01-79.91,16.55-.19c.04,5.96,1.8,11.74,5.09,16.73,3.29,5.07,7.59,9.46,12.59,12.86,5.13,3.49,10.78,6.21,16.7,8.09,5.6,1.86,11.47,2.81,17.38,2.81,5.55-.14,11.04-1.03,16.37-2.68,5.79-1.66,11.33-4.08,16.46-7.19,4.99-2.96,9.31-6.92,12.66-11.67,3.33-4.71,5.03-10.33,4.9-16.08-.12-9.56-3.34-16.85-9.69-21.92-7.23-5.53-15.3-9.9-23.91-12.89-9.58-3.52-19.91-6.89-31.03-10.15-10.87-3.13-21.32-7.65-31.05-13.4-9.68-5.69-17.86-13.53-24-22.87-6.4-9.6-9.71-22.44-9.91-38.53-.22-11.02,2.66-21.9,8.26-31.4,5.64-9.59,13.01-18.08,21.72-24.94,8.9-7.06,18.88-12.59,29.57-16.36,10.34-3.82,21.15-5.83,32.14-6.06,5.12-.04,10.22.29,15.28.93,5.66.68,11.31,1.81,16.8,3.36,5.38,1.51,10.58,3.59,15.54,6.2,4.53,2.33,8.52,5.56,11.82,9.46l-.17-15.06,9.02-.11.89,72.36-15.82.2c-.02-5.17-1.75-10.2-4.88-14.29-3.3-4.3-7.29-8.03-11.83-10.97-4.68-3.06-9.79-5.43-15.14-6.98-4.85-1.48-9.85-2.23-14.89-2.28-5.13.15-10.26.9-15.24,2.25-5.5,1.39-10.74,3.61-15.53,6.61-4.59,2.82-8.62,6.45-11.93,10.69-3.19,4.17-4.88,9.32-4.74,14.58.12,9.56,3.41,16.89,9.88,21.95,7.2,5.45,15.28,9.68,23.9,12.53,9.44,3.27,19.78,6.39,31.03,9.42,10.86,2.86,21.35,7.19,31.03,12.79,9.56,5.63,17.77,13.3,24.03,22.52,6.55,9.49,9.9,22.25,10.1,38.33.3,11.95-2.46,23.82-8.03,34.41v.05s.02,0,.02,0l-.04-.07h0l.04.05-.07.04h-.04s.04-.01.04-.01Z"/>
    </g>
    <path class="cls-5" d="m92.23,449.97l-3.26,3.96,7.85,4.89c.45-.14.9-.21,1.36-.25,1.82-3.08,3.65-6.12,5.49-9.13-3.82-3.88-7.96-3.7-11.44.52h0Z"/>
    <path class="cls-5" d="m76.97,464c2.31-5.18,4.63-10.31,6.94-15.39-4.71-6.48-9.87-6.13-14.25.99l-4.11,6.69,9.71,8.14c.56-.23,1.12-.37,1.7-.43h.01Z"/>
    <path class="cls-5" d="m93.86,471.6h0c-2.42,1.25-4.84,2.51-7.26,3.79l12.27,2.03-5.01-5.82h0Z"/>
    <path class="cls-5" d="m83.45,492.27l-2.35-4.56-7.59,5.28c-.05.47-.16.91-.31,1.34,2.11,2.89,4.19,5.77,6.22,8.65,5.07-1.97,6.54-5.86,4.03-10.71h0Z"/>
    <path class="cls-5" d="m76.58,472.71c3.85,4.17,7.65,8.32,11.4,12.45,7.81-1.77,9.53-6.65,4.71-13.49l-4.52-6.41-11.31,5.72c-.01.61-.1,1.18-.27,1.73h0Z"/>
    <path class="cls-5" d="m62.94,485.23h0c-.19-2.72-.4-5.44-.62-8.16l-6.7,10.47,7.33-2.31h-.01Z"/>
    <path class="cls-6" d="m813.46,428.4l-5.23-25.24c-1.28,1.58-2.54,3.16-3.81,4.73l.55,2.64,2.01,19.43,9.63,9.89.03,11.72s.05.1.06.16l-.07.07.02,6.62-3.92,5.82-14.54,15.08,3.83,2.61,18.48-27.21.33-16.01-7.37-10.26h.03v-.04h-.03Z"/>
    <path class="cls-3" d="m1027.31,502.52l-3.26,3.96,7.85,4.89c.45-.14.9-.21,1.36-.25,1.82-3.08,3.65-6.12,5.49-9.13-3.82-3.88-7.96-3.7-11.44.52h0Z"/>
    <path class="cls-3" d="m1009.8,509.63c2.31-5.18,4.63-10.31,6.94-15.39-4.71-6.48-9.87-6.13-14.25.99l-4.11,6.69,9.71,8.14c.56-.23,1.12-.37,1.7-.43h0Z"/>
    <path class="cls-3" d="m1098.43,492.34l-.99,4.77,9.03-.1c.32-.34.68-.62,1.06-.88.15-3.35.33-6.67.54-9.97-5.09-1.14-8.58,1.09-9.64,6.18h0Z"/>
    <path class="cls-3" d="m1086.59,506.77c-.39-5.25-.75-10.47-1.09-15.64-7.05-2.74-11.35.14-11.85,7.96l-.47,7.35,12.13,1.53c.38-.46.8-.86,1.27-1.2h0Z"/>
    <path class="cls-6" d="m56.72,446.06l29.27-1.05c-1.45-1.62-2.91-3.24-4.35-4.86l-3.06.11-22.05-1.32-13.26,8.41-13.02-2.04s-.12.04-.19.04l-.07-.09-7.36-1.15-5.54-5.16-13.3-18.01-3.81,3.58,25.84,24.31,17.7,3.18,13.14-5.96h0v.03s.04-.01.04-.01h0Z"/>
    <path class="cls-6" d="m101.47,403.96l29.27-1.05c-1.45-1.62-2.91-3.24-4.35-4.86l-3.06.11-22.05-1.32-13.26,8.41-13.02-2.04s-.12.04-.19.04l-.07-.09-7.36-1.15-5.54-5.16-13.3-18.01-3.81,3.58,25.84,24.31,17.7,3.18,13.14-5.96h0v.03s.04-.01.04-.01h0Z"/>
  </g>
</svg>