<?xml version="1.0" encoding="UTF-8"?>
<svg id="Layer_2" data-name="Layer 2" xmlns="http://www.w3.org/2000/svg" viewBox="0 0 778.03 773.42">
  <defs>
    <style>
      .cls-1 {
        fill: rgba(92, 92, 92, 0);
      }

      .cls-1, .cls-2, .cls-3, .cls-4, .cls-5, .cls-6, .cls-7 {
        stroke-width: 0px;
      }

      .cls-2 {
        fill: none;
      }

      .cls-3 {
        fill: #756746;
      }

      .cls-4 {
        fill: #5c5c5c;
      }

      .cls-5 {
        fill: #2c2c7c;
      }

      .cls-6 {
        fill: #d0d8d7;
      }

      .cls-7 {
        fill: #fff;
      }
    </style>
  </defs>
  <g id="Layer_8" data-name="Layer 8">
    <g>
      <polygon class="cls-2" points="519.05 693.03 519.05 693.04 519.05 693.03 472.29 687.89 519.05 693.03"/>
      <path class="cls-5" d="m375.88,256.66l1.1.29-.16-.37c-.31.02-.62.04-.94.07Z"/>
      <path class="cls-2" d="m196.1,291.36l111.47-62.47s.02-.01.03-.02c.33-.19.64-.34.93-.49,6.84-3.67,14.27-5.9,21.85-6.63,7.93-.76,16.02.11,23.75,2.66l3.17,1.05c-1.57-1.94-3.15-3.89-4.7-5.84l-173.95,16.72c-2.87,12.61-5.57,25.27-8.07,37.96,8.41,5.76,16.94,11.43,25.53,17.05Z"/>
      <path class="cls-2" d="m255.99,391.91l60.31-5.8-1.29,6.67c2.61-2.45,5.23-4.88,7.86-7.31l-66.87,6.43h0Z"/>
      <path class="cls-2" d="m243.86,408.76c.1.69.2,1.37.3,2.06l.84-1.47c-.38-.2-.76-.39-1.14-.59Z"/>
      <path class="cls-2" d="m225.64,394.82c-.11,1.37-.23,2.74-.34,4.11,3.31,1.78,6.65,3.53,9.98,5.29.8-3.52,1.59-7.04,2.39-10.56l-12.03,1.16Z"/>
      <polygon class="cls-2" points="252.88 392.2 241.62 393.28 241.62 393.29 252.88 392.21 252.88 392.2"/>
      <path class="cls-2" d="m245.2,409l-2.2-6.17c.29,1.98.57,3.96.86,5.94.38.2.76.39,1.14.59l.2-.35Z"/>
      <rect class="cls-5" x="185.4" y="432.36" width="0" height=".37" transform="translate(-26.62 12.41) rotate(-3.58)"/>
      <rect class="cls-5" x="185.36" y="431.99" width="0" height=".38" transform="translate(-40.53 19.74) rotate(-5.49)"/>
      <path class="cls-6" d="m259.42,458.7l7.5,9,13.72,1.47,13.95,13.67,2.11,1.68c-.04-2.9-.07-5.8-.08-8.7-12.51-5.59-24.91-11.3-37.18-17.12Z"/>
      <path class="cls-6" d="m258.49,430.74l-.07-.75,1.79-.17c.07-1.55.14-3.11.21-4.66l-4.53.43-1.56,20.88.7,6.98,4.23,5.08c.19-9.33.5-18.65.9-27.96l-1.68.16Z"/>
      <path class="cls-6" d="m306.87,513.94l-5.71-4.56c.15,8.57.37,17.15.7,25.73,2.18.91,4.38,1.79,6.57,2.69l-1.84-5.6.28-18.26Z"/>
      <path class="cls-6" d="m251.65,397.74l1.23-5.53-11.26,1.08,1.38,9.53,2.2,6.17,6.45-11.26Z"/>
      <path class="cls-6" d="m248.61,417.82l2.04,1.58-.32-3.3,6.54-.63c-2.45-1.25-4.89-2.51-7.32-3.77l-.31.74-.63,5.38Z"/>
      <path class="cls-6" d="m314.93,393.18l.08-.4c-.09.08-.17.16-.26.24.06.05.12.11.18.16Z"/>
      <path class="cls-6" d="m250.65,419.4l5.4,4.18-.15,2.01,4.53-.43c.12-2.56.24-5.11.38-7.67-1.32-.67-2.62-1.35-3.93-2.03l-6.54.63.32,3.3Z"/>
      <rect class="cls-5" x="310.12" y="425.02" width="0" height=".75" transform="translate(-39.29 31.63) rotate(-5.49)"/>
      <path class="cls-5" d="m258.49,430.74l1.68-.16c.01-.25.02-.5.03-.76l-1.79.17.07.75Z"/>
      <path class="cls-5" d="m260.18,430.57l49.98-4.8-.07-.75-49.88,4.79c-.01.25-.02.5-.03.76Z"/>
      <path class="cls-6" d="m240.11,382.88c.5,3.47,1,6.94,1.51,10.41l11.26-1.08,2.13-9.58-3.83-3.41.24-5.66-4.77-7.47,2.46-1.88-20.79,2c-1,9.52-1.89,19.06-2.68,28.62l12.03-1.16c.81-3.6,1.63-7.19,2.44-10.79Z"/>
      <path class="cls-4" d="m307.57,228.89s.02-.01.03-.02c-.01,0-.02.01-.03.02l-111.47,62.47s0,0,0,0l111.47-62.47Z"/>
      <polygon class="cls-4" points="228.32 366.2 228.32 366.2 249.11 364.21 249.11 364.21 228.32 366.2"/>
      <polygon class="cls-4" points="255.44 363.6 344.45 355.04 344.45 355.04 255.44 363.6 255.44 363.6"/>
      <path class="cls-1" d="m76.25,358.52h0c-1.37.77-2.48,1.7-3.36,2.74.88-1.04,1.99-1.97,3.36-2.74Z"/>
      <polygon class="cls-1" points="249.11 364.21 249.11 364.2 228.32 366.2 228.32 366.2 249.11 364.21"/>
      <polygon class="cls-1" points="255.44 363.6 344.45 355.04 344.45 355.04 255.44 363.6 255.44 363.6"/>
      <g>
        <path class="cls-6" d="m259.27,458.53l.14.17c12.28,5.82,24.67,11.53,37.18,17.12.02,2.9.05,5.8.08,8.7l9.58,7.64,3.79,10.14-4.22,8.24.59,9.46c4.43,1.82,8.86,3.63,13.32,5.41l-9.58-99.63-49.98,4.8c-.4,9.31-.71,18.63-.9,27.96Z"/>
        <path class="cls-6" d="m260.42,425.16c-.07,1.55-.15,3.11-.21,4.66l49.88-4.79-.44-4.61h0s-49.22,4.74-49.22,4.74Z"/>
        <path class="cls-6" d="m255.99,391.91l-1.03,6.67-5.41,13.11c2.44,1.26,4.88,2.52,7.32,3.77l51.82-4.98.95,9.93,5.28-27.23c-.06-.05-.12-.11-.18-.16.09-.08.17-.16.26-.24l1.29-6.67-60.31,5.8Z"/>
        <path class="cls-6" d="m260.42,425.16l49.22-4.73h0s-.95-9.94-.95-9.94l-51.82,4.98c1.31.67,2.62,1.36,3.93,2.03-.14,2.55-.26,5.11-.38,7.67Z"/>
        <path class="cls-6" d="m252.39,367.18l5.08,15.18-1.48,9.55,66.87-6.43c9.1-8.4,18.31-16.65,27.61-24.76-2.02-1.88-4.02-3.78-6.03-5.67l-89.02,8.56-3.05,3.58Z"/>
        <path class="cls-4" d="m229.29,357.27c-.33,2.97-.65,5.95-.97,8.93l20.79-2,16.61-12.68-10.28,12.07,89.01-8.56c-7.44-7.04-14.77-14.18-21.99-21.44l-114.74,11.03c7.14,4.25,14.32,8.48,21.57,12.64Z"/>
        <path class="cls-4" d="m307.57,228.89l-111.47,62.47c2.03,1.33,4.05,2.68,6.09,4-1.45,8.44-2.8,16.91-4.08,25.38l112.37-62.97-.14-.02c-15.08-4.98,10.14-35.28-1.82-29.36-.29.14-.59.3-.93.49-.01,0-.02.01-.03.02Z"/>
        <path class="cls-6" d="m311.29,272.07c-2.74,2.84-4.88,6.21-6.28,9.9-2.82,7.44-2.02,15.76,2.16,22.52,2.08,3.36,4.82,6.25,8.05,8.52,3.4,2.4,7.21,4.16,11.25,5.19,1.4.36,2.8.63,4.22.82,8.42-6.93,16.92-13.75,25.48-20.45-10.12-10.66-20-21.54-29.63-32.64,1.98-1.49,3.96-2.97,5.95-4.45h-.01c-3.86.53-7.61,1.66-11.14,3.34-3.76,1.78-7.17,4.24-10.05,7.25Z"/>
        <path class="cls-6" d="m195.68,337.43c3.99,2.42,8.01,4.81,12.03,7.2l114.74-11.03c-1.41-1.41-2.82-2.82-4.22-4.24,3.87-3.26,7.75-6.48,11.65-9.69-1.21-.19-2.42-.44-3.61-.75-4.12-1.06-8.02-2.86-11.49-5.31-3.32-2.32-6.12-5.3-8.26-8.74-4.3-6.96-5.12-15.52-2.23-23.18,1.44-3.79,3.63-7.24,6.44-10.15,2.94-3.07,6.42-5.58,10.27-7.4,2.96-1.4,6.07-2.41,9.24-3.04l-19.78-3.34-112.37,62.97c-.84,5.56-1.65,11.12-2.42,16.68Z"/>
      </g>
      <path class="cls-5" d="m310.74,271.55c-2.81,2.91-5,6.37-6.44,10.15-2.9,7.65-2.07,16.22,2.23,23.18,2.13,3.44,4.94,6.41,8.26,8.74,3.48,2.45,7.37,4.25,11.49,5.31,1.19.31,2.4.56,3.61.75.27-.22.53-.44.8-.65-1.41-.2-2.82-.47-4.22-.82-4.03-1.03-7.85-2.79-11.25-5.19-3.23-2.27-5.97-5.16-8.05-8.52-4.18-6.76-4.98-15.08-2.16-22.52,1.4-3.69,3.54-7.06,6.28-9.9,2.88-3.01,6.29-5.46,10.05-7.25,3.52-1.68,7.28-2.81,11.14-3.34l-2.22-.37c-3.17.63-6.28,1.64-9.24,3.04-3.85,1.82-7.33,4.33-10.27,7.4Z"/>
      <g>
        <path class="cls-2" d="m322.52,449.87h0s-.06.75-.06.75h0s-7.54,99.81-7.54,99.81c5.12,3.16,10.26,6.31,15.43,9.43-1.41,13.21-2.61,26.46-3.59,39.74.98-13.28,2.18-26.53,3.59-39.74-5.17-3.12-10.3-6.27-15.43-9.43l-5.9,78.19h.05s5.84,33.68,5.84,33.68l16.69,1.26c7.61-7.78,15.32-15.45,23.14-22.99-12.4-10.26-24.61-20.77-36.62-31.53,11.23-10.46,22.67-20.68,34.28-30.66-11.62-10.75-23.03-21.74-34.22-32.96,12.01-9.97,24.19-19.68,36.54-29.15-10.8-11.2-21.38-22.61-31.72-34.25,12.74-9.43,25.64-18.6,38.69-27.5-9.9-11.53-19.56-23.27-28.97-35.2l-9.85,25.93-.35,4.62Z"/>
        <rect class="cls-5" x="275.73" y="605.19" width=".75" height="51.9" transform="translate(-374.04 858.9) rotate(-85.68)"/>
        <g>
          <path class="cls-6" d="m314.93,550.42c-4.09-2.52-8.14-5.06-12.2-7.6l-.84,7.7-1.33-9.06c-2-1.26-4.02-2.5-6.01-3.77,1.14-8.51,2.38-17,3.69-25.48l-17.11-19.29-11.51-5.23-7.69-14.05-11.37,150.56h.05s58.41,4.41,58.41,4.41l5.9-78.19Z"/>
          <path class="cls-6" d="m309.07,628.62h-.05s-58.41-4.41-58.41-4.41l-12.26,32.31,76.57,5.78-5.84-33.67Zm-58.87.94l.06-.75,51.76,3.91-.06.75-51.76-3.91Z"/>
          <path class="cls-5" d="m314.98,662.67l16.28,1.23c.11-.12.23-.23.34-.35l-16.69-1.26.07.38Z"/>
        </g>
        <polygon class="cls-5" points="314.98 662.67 314.91 662.29 238.34 656.51 238.21 656.88 314.98 662.67"/>
        <rect class="cls-5" x="276.59" y="621.28" width="0" height="76.99" transform="translate(-402.14 885.91) rotate(-85.68)"/>
      </g>
      <rect class="cls-5" x="122.71" y="684.77" width="0" height=".37" transform="translate(-63.4 14.44) rotate(-5.36)"/>
      <path class="cls-6" d="m409.03,407.67c4.63-3.45,9.28-6.88,13.95-10.27-9.6-3.14-20.08-2.11-28.89,2.82l-8.27,4.63,19.78,3.34c1.14-.22,2.28-.4,3.43-.52Z"/>
      <path class="cls-6" d="m391.15,519.51l-3.04,4.13,8.1,4.46c.44-.16.89-.26,1.34-.32,1.65-3.17,3.31-6.31,4.99-9.41-4.02-3.67-8.15-3.26-11.39,1.14Z"/>
      <path class="cls-6" d="m371.82,514.43c2.5-5.3,5.01-10.55,7.53-15.74-6.23-6.22-12.57-5.59-17.49,1.76l-4.61,6.9,12.51,7.6c.68-.26,1.36-.43,2.06-.52Z"/>
      <path class="cls-6" d="m420.96,556.6c-6.61-1.95-13.71-1.12-19.71,2.35l-5.93,3.42,14.21,2.53c.07-.01.15-.03.22-.04-.11-.14-.23-.28-.35-.41,3.84-2.64,7.69-5.25,11.55-7.85Z"/>
      <path class="cls-6" d="m391.15,452.45l-3.04,4.13,8.1,4.46c.44-.16.89-.26,1.34-.32,1.65-3.17,3.31-6.31,4.99-9.41-4.02-3.67-8.15-3.26-11.39,1.14Z"/>
      <path class="cls-6" d="m350.15,579.47l-3.04,4.13,8.1,4.46c.44-.16.89-.26,1.34-.32,1.65-3.17,3.31-6.31,4.99-9.41-4.02-3.67-8.15-3.26-11.39,1.14Z"/>
      <path class="cls-6" d="m391.15,614.56l-3.04,4.13,8.1,4.46c.44-.16.89-.26,1.34-.32,1.65-3.17,3.31-6.31,4.99-9.41-4.02-3.67-8.15-3.26-11.39,1.14Z"/>
      <path class="cls-4" d="m496.61,281.22l-2.89-1.67c-2.99-1.73-6.11-3.15-9.31-4.31l-43.5,18.97c-1,3.63-.51,6.93,3.16,9.05l.13.05,9.04-2.85c9.64-3.04,20.1-1.9,28.86,3.12,7.08-3.19,14.18-6.32,21.3-9.38-2.3-4.31-4.55-8.64-6.79-12.98Z"/>
      <path class="cls-4" d="m716.18,433.86l-19.96-2.19h0s19.96,2.19,19.96,2.19c7.4.81,12.33-4.73,12.85-10.67-.51,5.95-5.44,11.49-12.85,10.67Z"/>
      <polygon class="cls-4" points="696.22 431.67 457.64 405.46 457.64 405.46 696.22 431.67 696.22 431.67"/>
      <path class="cls-1" d="m729.03,423.18c.35-4.07-1.37-8.33-5.78-10.88h0s0,0,0,0c4.41,2.55,6.13,6.81,5.78,10.88Z"/>
      <polygon class="cls-1" points="696.22 431.67 457.64 405.46 457.64 405.46 696.22 431.67 696.22 431.67"/>
      <path class="cls-6" d="m479.46,315.29c-4.01-1.98-8.34-3.24-12.78-3.71-.56-.06-1.12-.11-1.68-.15,0,0,0,0,0,0l21.36,8.34c-2.1-1.76-4.41-3.27-6.89-4.48Z"/>
      <path class="cls-6" d="m473.61,368.59c4.05-.98,7.88-2.69,11.32-5.04,3.26-2.22,6.04-5.08,8.17-8.41,4.27-6.71,5.18-15.02,2.47-22.49-1.35-3.71-3.44-7.11-6.15-9.98-.96-1.03-1.99-1.99-3.07-2.9l-21.36-8.34c-2.24,1.05-4.49,2.09-6.73,3.15,7.17,12.83,14.62,25.5,22.36,37.99-9.75,4.81-19.46,9.76-29.11,14.83,7.07,2.53,14.75,2.97,22.1,1.2Z"/>
      <path class="cls-4" d="m696.22,431.67l19.96,2.19c7.4.81,12.33-4.73,12.85-10.67.35-4.07-1.37-8.33-5.78-10.88h0s-163.74-63.96-163.74-63.96l65.75,38.02c6.76,3.91,3.36,14.29-4.4,13.43l-180.37-19.81c5.6,8.57,11.32,17.06,17.16,25.47l238.58,26.2h0Z"/>
      <polygon class="cls-2" points="580.12 666.02 580.07 666.02 591.35 563.35 584.17 564.61 571.1 575.81 579.69 563.45 592.36 554.19 595.08 529.37 595.35 519.6 590.54 507.91 596.96 483.02 599.87 481.23 595.4 449 621.79 451.89 621.79 451.89 451.97 433.24 452.45 433.58 451.95 456.53 453.03 463.46 465.63 477.06 475.18 477.58 476.05 469.61 471.31 435.37 547.84 443.78 534.33 476.01 533.83 480.6 533.83 480.6 533.75 481.35 533.75 481.35 514.26 658.79 514.31 658.8 519 692.65 566.77 697.89 580.12 666.02"/>
      <path class="cls-2" d="m455.98,652.39l18.59-169.28-11.26-2.31-17.04-19.24,1.01-24.53-4.62-4.81-12.36-1.36c-3.07,1.84-6.13,3.69-9.18,5.55l-.16.38c9,12.25,18.26,24.31,27.76,36.17-9.42,5.97-18.77,12.09-28.05,18.33.34.1.69.2,1.03.32-3.34,2.51-6.67,5.04-9.99,7.6-.75.08-1.5.2-2.24.34,9.83,11.84,19.9,23.47,30.19,34.9-12.66,9.04-25.17,18.33-37.51,27.89,10.8,11.59,21.84,22.96,33.08,34.1-11.95,9.58-23.72,19.4-35.3,29.47,11.64,11.16,23.49,22.08,35.53,32.76-8.07,7.27-16.04,14.67-23.91,22.19l31.13,3.42,13.35-31.87h-.05Z"/>
      <polygon class="cls-2" points="594.93 507.74 597.07 511.3 599.47 489.39 599.16 489.68 594.93 507.74"/>
      <path class="cls-2" d="m493.2,274.54c1.12,2.23,2.27,4.46,3.41,6.68l226.63,131.08h0c4.41,2.55,6.13,6.82,5.78,10.89-.51,5.95-5.44,11.49-12.85,10.67l-19.96-2.19-3.08,28.06-63.91-7.02s0,0,0,0l42.71,4.69-13.5,32.23-.51,4.6-.08.75-19.49,177.44h.05s4.69,33.86,4.69,33.86l22.68,2.49-.04.37h0s-3.08,28.06-3.08,28.06l67.18,7.38,48.19-438.75-284.84-31.28Z"/>
      <polygon class="cls-6" points="482.15 475.68 482.24 474.94 533.83 480.6 534.33 476.01 476.05 469.61 475.18 477.58 479.4 477.81 494.05 490.73 506.21 499.41 510.53 509.34 506.75 517.78 508.73 534.89 503.28 520.86 502.6 502.61 475.7 483.34 474.57 483.11 455.98 652.39 456.03 652.4 514.26 658.79 533.75 481.35 482.15 475.68"/>
      <polygon class="cls-6" points="535.42 466.09 534.33 476.01 547.84 443.78 471.31 435.37 476.05 469.61 477.14 459.68 535.42 466.09"/>
      <rect class="cls-6" x="500.74" y="438.53" width="9.99" height="58.63" transform="translate(-14.53 919.49) rotate(-83.73)"/>
      <rect class="cls-5" x="533.41" y="480.98" width=".75" height="0" transform="translate(-2.61 959.04) rotate(-83.73)"/>
      <rect class="cls-5" x="507.62" y="452.19" width=".75" height="51.9" transform="translate(-22.75 930.9) rotate(-83.73)"/>
      <path class="cls-6" d="m514.31,658.8h-.05s-58.23-6.4-58.23-6.4l-13.35,31.87,76.33,8.38-4.69-33.85Zm-7.27,4.6l-51.59-5.67.08-.75,51.59,5.67-.08.75Z"/>
      <rect class="cls-5" x="480.9" y="634.24" width=".75" height="51.91" transform="translate(-227.51 1066.52) rotate(-83.73)"/>
      <polygon class="cls-6" points="595.08 529.37 592.36 554.19 594.43 552.68 595.08 529.37"/>
      <polygon class="cls-6" points="605.93 483.87 604.3 484.92 599.47 489.39 597.07 511.3 602.02 519.58 599.5 538.94 599.1 553.88 593.29 563.01 591.35 563.35 580.07 666.02 580.12 666.02 638.35 672.42 657.84 494.98 606.25 489.31 606.33 488.57 657.92 494.23 658.43 489.63 658.43 489.64 605.93 483.87"/>
      <polygon class="cls-6" points="599.87 481.23 600.41 480.9 601.24 473.31 610.98 474.38 617.86 470.14 621.79 451.89 595.4 449 599.87 481.23"/>
      <path class="cls-6" d="m623.61,472.5l-4.35,2.8,40.26,4.42-1.09,9.92,13.5-32.23-42.71-4.69c-1.81,1.82-3.62,3.65-5.42,5.47l-.18,14.31Z"/>
      <polygon class="cls-6" points="600.41 480.9 610.98 474.38 601.24 473.31 600.41 480.9"/>
      <polygon class="cls-6" points="619.26 475.29 605.93 483.87 658.43 489.64 658.43 489.63 659.52 479.71 619.26 475.29"/>
      <rect class="cls-5" x="631.71" y="465.82" width=".75" height="51.9" transform="translate(74.25 1066.39) rotate(-83.73)"/>
      <path class="cls-6" d="m566.77,697.89l76.33,8.38-4.69-33.85h-.05s-58.23-6.4-58.23-6.4l-13.35,31.87Zm64.36-20.87l-51.59-5.67.08-.75,51.59,5.67-.08.75Z"/>
      <rect class="cls-5" x="605" y="647.87" width=".75" height="51.91" transform="translate(-130.51 1202.01) rotate(-83.73)"/>
      <path class="cls-6" d="m451.97,433.24l169.82,18.65,1.31-6.07c7.8-3.52,15.61-7.04,23.41-10.56-5.76,5.82-11.52,11.63-17.29,17.45l63.91,7.02,3.08-28.06-238.58-26.2c1.58,2.26,3.15,4.53,4.74,6.78-7.31,4.1-14.58,8.28-21.82,12.53.04.21.08.43.13.64l11.27,7.82Z"/>
      <path class="cls-6" d="m437.64,492c-2.35,1.39-4.7,2.78-7.04,4.19l12.36,1.36-5.32-5.54Z"/>
      <path class="cls-6" d="m662.66,737.2h0s3.08-28.06,3.08-28.06h0s-.04.37-.04.37l-254.87-27.99c-2.8,2.68-5.58,5.37-8.35,8.08,8.48,7.28,17.06,14.43,25.72,21.47l234.51,25.76-.04.37Z"/>
      <path class="cls-4" d="m662.66,737.2l-.04.37-233.36-25.63c3.69,2.99,7.39,5.97,11.1,8.93-6.19,6.28-12.3,12.65-18.34,19.09l304.66,33.46,3.17-28.84-67.18-7.38h0Z"/>
      <path class="cls-4" d="m559.5,348.35l163.74,63.95-226.63-131.08c2.23,4.34,4.49,8.67,6.79,12.98-7.12,3.06-14.22,6.19-21.3,9.38.04.02.07.04.11.06l77.29,44.7Z"/>
      <path class="cls-6" d="m488.35,320.55l71.15,27.79-77.29-44.7s-.07-.04-.11-.06c-5.26,2.37-10.51,4.78-15.75,7.21,4.64.46,9.2,1.74,13.45,3.82,3.14,1.54,6.02,3.55,8.55,5.94Z"/>
      <path class="cls-6" d="m625.25,386.37l-65.75-38.02-71.15-27.79c.55.52,1.09,1.05,1.61,1.61,2.77,2.95,4.92,6.44,6.3,10.24,2.79,7.69,1.85,16.24-2.54,23.14-2.18,3.41-5.03,6.35-8.37,8.63-3.51,2.41-7.43,4.15-11.56,5.15-4.43,1.08-9.01,1.38-13.54.86-3.31-.35-6.55-1.14-9.65-2.32-4.47,2.35-8.93,4.71-13.38,7.11,1.08,1.67,2.18,3.34,3.27,5.01l180.37,19.81c7.76.85,11.17-9.52,4.4-13.43Z"/>
      <path class="cls-5" d="m479.46,315.29c2.47,1.21,4.78,2.72,6.89,4.48l2,.78c-2.54-2.39-5.42-4.4-8.55-5.94-4.25-2.08-8.81-3.36-13.45-3.82-.45.21-.9.42-1.35.63.56.04,1.12.09,1.68.15,4.45.47,8.77,1.73,12.78,3.71Z"/>
      <path class="cls-5" d="m473.79,369.33c4.14-1,8.05-2.75,11.56-5.15,3.35-2.28,6.2-5.21,8.37-8.63,4.4-6.9,5.33-15.45,2.54-23.14-1.39-3.8-3.53-7.29-6.3-10.24-.52-.56-1.06-1.09-1.61-1.61l-2-.78c1.08.9,2.11,1.86,3.07,2.9,2.7,2.88,4.79,6.27,6.15,9.98,2.71,7.47,1.8,15.78-2.47,22.49-2.13,3.33-4.9,6.19-8.17,8.41-3.43,2.36-7.27,4.06-11.32,5.04-7.36,1.78-15.04,1.34-22.1-1.2-.3.16-.61.32-.91.48,3.1,1.18,6.34,1.96,9.65,2.32,4.53.51,9.12.22,13.54-.86Z"/>
      <polygon class="cls-5" points="519 692.65 519.05 693.03 566.62 698.25 566.77 697.89 519 692.65"/>
      <polygon class="cls-5" points="665.74 709.14 665.78 708.77 643.1 706.28 643.15 706.66 665.74 709.14"/>
      <polygon class="cls-5" points="519.05 693.03 519 692.65 442.67 684.26 442.52 684.62 472.29 687.89 519.05 693.03"/>
      <polygon class="cls-5" points="566.62 698.25 643.15 706.66 643.1 706.28 566.77 697.89 566.62 698.25"/>
      <path class="cls-5" d="m665.74,709.14l-22.59-2.48h0s-76.54-8.4-76.54-8.4h0s-47.56-5.23-47.56-5.23h0s-107.56-11.81-107.56-11.81h0s18.93,2.07,18.93,2.07l-19.25-2.11c-.12.11-.24.23-.36.34l254.87,27.99.04-.37Z"/>
      <polygon class="cls-5" points="442.52 684.62 430.43 683.3 442.52 684.62 442.52 684.62"/>
      <polygon class="cls-5" points="472.29 687.89 442.52 684.62 442.52 684.63 519.05 693.04 519.05 693.03 472.29 687.89"/>
      <polygon class="cls-5" points="472.29 687.89 442.52 684.62 442.52 684.62 472.29 687.89"/>
      <polygon class="cls-5" points="411.5 681.22 519.05 693.04 442.52 684.63 442.52 684.62 430.43 683.3 411.5 681.22 411.5 681.22"/>
      <rect class="cls-5" x="604.88" y="663.96" width="0" height="77" transform="translate(-159.42 1227.04) rotate(-83.73)"/>
      <path class="cls-5" d="m662.7,736.83l-234.51-25.76c.18.14.36.29.53.44l233.93,25.69.04-.37Z"/>
      <path class="cls-5" d="m662.66,737.2l-233.93-25.69c.18.14.35.29.53.44l233.36,25.63.04-.37Z"/>
      <polygon class="cls-7" points="238.97 423.37 242.2 432.02 237.78 447.99 231.12 458.84 233.69 470.37 240.39 473.13 231.99 481.7 222.59 490.9 226.49 505.53 227.01 493.77 246.05 473.38 238.56 459.82 246.96 431.9 247.94 423.55 241.82 416.47 238.97 423.37"/>
      <path class="cls-7" d="m245.4,409.56l-.2-.56-.2.35c.13.07.27.14.4.21Z"/>
      <path class="cls-7" d="m245,409.35l-.84,1.47.58,3.99,3.52,2.73-2.85-7.98c-.13-.07-.27-.14-.4-.21Z"/>
      <polygon class="cls-7" points="252.88 392.21 255.99 391.91 255.99 391.9 252.88 392.2 252.88 392.21"/>
      <path class="cls-7" d="m251.65,397.74l-6.45,11.26.2.56c1.38.72,2.76,1.42,4.14,2.14l5.41-13.11,1.03-6.67-3.12.3-1.23,5.53Z"/>
      <path class="cls-7" d="m248.25,417.54l.36.28.63-5.38.31-.74c-1.38-.71-2.77-1.42-4.14-2.14l2.85,7.98Z"/>
      <polygon class="cls-7" points="246.65 366.08 251.42 373.55 251.18 379.21 255.01 382.63 252.88 392.2 255.99 391.9 257.47 382.35 252.39 367.18 255.44 363.6 249.11 364.21 246.65 366.08"/>
      <rect class="cls-7" x="249.1" y="363.9" width="6.36" height="0" transform="translate(-33.66 25.81) rotate(-5.49)"/>
      <polygon class="cls-7" points="265.72 351.52 249.11 364.2 255.44 363.6 265.72 351.52"/>
      <rect class="cls-7" x="252.27" y="360.72" width="0" height="6.35" transform="translate(-187.5 312.3) rotate(-48.58)"/>
      <path class="cls-7" d="m434.39,393.77c-1.45,8.44-2.89,16.88-4.34,25.31l7.29,7.59c1.07-.63,2.15-1.26,3.22-1.89-2.06-10.34-4.12-20.67-6.17-31.01Z"/>
      <polygon class="cls-7" points="465.63 477.06 453.03 463.46 451.95 456.53 452.45 433.58 451.97 433.24 442.67 432.22 447.29 437.03 446.28 461.56 463.31 480.8 474.57 483.11 475.18 477.58 465.63 477.06"/>
      <polygon class="cls-7" points="502.6 502.61 503.28 520.86 508.73 534.89 506.75 517.78 510.53 509.34 506.21 499.41 494.05 490.73 479.4 477.81 475.18 477.58 474.57 483.11 475.7 483.34 502.6 502.61"/>
      <path class="cls-7" d="m451.97,433.24l-11.27-7.82c-.04-.21-.08-.43-.13-.64-1.07.63-2.15,1.26-3.22,1.89l5.32,5.54,9.3,1.02Z"/>
      <polygon class="cls-7" points="600.15 483.24 599.87 481.23 596.96 483.02 590.54 507.91 595.35 519.6 595.08 529.37 597.07 511.3 594.93 507.74 599.16 489.68 599.47 489.39 600.15 483.24 600.15 483.24"/>
      <polygon class="cls-7" points="579.69 563.45 571.1 575.81 584.17 564.61 591.35 563.35 592.36 554.19 579.69 563.45"/>
      <polygon class="cls-7" points="621.79 451.89 629.22 452.71 629.22 452.71 621.79 451.89 621.79 451.89"/>
      <polygon class="cls-7" points="599.47 489.39 604.3 484.92 605.93 483.87 600.15 483.24 599.47 489.39"/>
      <polygon class="cls-7" points="594.43 552.68 592.36 554.19 591.35 563.35 593.29 563.01 599.1 553.88 599.5 538.94 602.02 519.58 597.07 511.3 595.08 529.37 594.43 552.68"/>
      <polygon class="cls-7" points="600.15 483.24 600.41 480.9 599.87 481.23 600.15 483.24 600.15 483.24"/>
      <path class="cls-7" d="m617.86,470.14l-6.88,4.24,8.28.91,4.35-2.8.18-14.31c1.81-1.82,3.62-3.65,5.42-5.47l-7.43-.82-3.93,18.25Z"/>
      <polygon class="cls-7" points="600.15 483.24 605.93 483.87 619.26 475.29 610.98 474.38 600.41 480.9 600.15 483.24"/>
      <path class="cls-7" d="m623.1,445.82l-1.31,6.07,7.43.82c5.76-5.82,11.52-11.63,17.29-17.45-7.8,3.52-15.61,7.04-23.41,10.56Z"/>
      <g>
        <rect class="cls-5" x="120.4" y="445" width="51.9" height=".37" transform="translate(-41.91 16.04) rotate(-5.49)"/>
        <rect class="cls-5" x="120.36" y="444.62" width="51.9" height=".38" transform="translate(-41.89 16.04) rotate(-5.49)"/>
        <path class="cls-4" d="m69.82,390.32c-10.92,1.05-16.29-11.62-10.14-18.91-6.16,7.29-.78,19.96,10.14,18.91l10.29-.99h0s-10.29.99-10.29.99Z"/>
        <polygon class="cls-4" points="182.88 301.51 182.88 301.51 63.04 368.67 63.04 368.67 63.04 368.67 182.88 301.51"/>
        <polygon class="cls-4" points="215.11 376.35 80.1 389.33 80.1 389.33 215.11 376.35 215.11 376.35"/>
        <polygon class="cls-1" points="80.1 389.33 215.11 376.35 215.11 376.35 80.1 389.33 80.1 389.33"/>
        <g>
          <path class="cls-2" d="m109.48,694.92h0s-2.63-27.35-2.63-27.35h0s-.07-.75-.07-.75l18.09-1.74,6.58-33.92h0s-.05,0-.05,0l-12.31-128.07-4.46-6.71-8.65-3.23-6.07-12.1-4.99-14.27-9.21-12.44-5.09.65-4.12-3.89-8.77-1.29,1.5-23.95,3.09,20.33,14.8,6.1,10.61,12.53,6.72,13.4,13.21,14.48.51.81-4.36-45.38h0s-11.62-32.55-11.62-32.55l76.64-7.37-6.65,34.31.04.37h0s17.56,182.66,17.56,182.66h.05s11.49,32.19,11.49,32.19l47.83-4.6,6.58-33.92h-.05s-14.45-150.29-14.45-150.29l-6.03-7.58,2.3-24.44-2.77-3.21-.98,8.35-8.39,27.92,7.48,13.55-19.04,20.39-.52,11.77-3.9-14.64,9.4-9.2,8.4-8.56-6.7-2.77-2.57-11.52,6.65-10.85,4.42-15.96-3.23-8.66,2.85-6.9-7.38-8.54c.28-1.23.56-2.47.84-3.7-3.33-1.76-6.67-3.51-9.98-5.29.11-1.37.23-2.74.34-4.11l-129.62,12.46-2.7-28.1-10.29.99c-10.92,1.05-16.29-11.62-10.14-18.91.88-1.04,1.99-1.97,3.36-2.74h0s119.84-67.16,119.84-67.16c-8.59-5.63-17.12-11.3-25.53-17.05,2.5-12.7,5.2-25.35,8.07-37.96L0,262.39l42.23,439.37,67.28-6.47-.04-.37Z"/>
          <rect class="cls-6" x="183.1" y="625.87" width="6.68" height="0" transform="translate(-59.03 20.71) rotate(-5.49)"/>
          <polygon class="cls-5" points="131.45 631.15 131.45 631.16 131.45 631.15 131.45 631.15"/>
          <polygon class="cls-5" points="131.45 631.15 183.11 626.19 183.08 625.81 131.41 630.78 131.45 631.15 131.45 631.15 131.45 631.15"/>
          <polygon class="cls-5" points="183.15 626.56 183.11 626.19 131.45 631.15 131.45 631.16 131.48 631.52 183.15 626.56"/>
          <rect class="cls-5" x="157.28" y="602.72" width="0" height="51.9" transform="translate(-489.61 667.4) rotate(-79.38)"/>
          <polygon class="cls-5" points="249.06 653.52 249.14 653.14 201.3 657.73 201.43 658.1 124.8 665.46 124.87 665.08 106.78 666.82 106.85 667.57 106.85 667.57 106.81 667.19 249.06 653.52"/>
          <polygon class="cls-5" points="201.43 658.1 201.3 657.73 124.87 665.08 124.8 665.46 201.43 658.1"/>
          <path class="cls-5" d="m109.51,695.29l255.79-24.59c-.2-.11-.41-.21-.61-.32l-255.21,24.53.04.37Z"/>
          <g>
            <g>
              <polygon class="cls-6" points="183.08 625.81 183.11 626.19 189.76 625.55 172.2 442.89 120.54 447.85 120.5 447.48 113.8 448.12 118.17 493.51 133.25 517.34 148.39 520.56 151.32 548.31 159.87 556.41 146.26 549.76 145.47 536.64 144.5 524.68 138.02 527.93 127.63 522.32 123.79 510.18 119.09 503.09 131.4 631.16 131.45 631.15 131.41 630.78 183.08 625.81"/>
              <polygon class="cls-6" points="171.21 432.57 172.13 442.14 172.13 442.14 172.17 442.51 178.82 408.2 102.18 415.57 113.8 448.12 113.8 448.12 112.85 438.18 171.21 432.57"/>
              <polygon class="cls-6" points="120.46 447.11 172.13 442.14 171.21 432.57 112.85 438.18 113.8 448.12 120.5 447.48 120.46 447.11"/>
              <polygon class="cls-6" points="189.81 625.54 189.76 625.55 189.76 625.55 183.11 626.19 183.15 626.56 131.48 631.52 131.45 631.16 124.87 665.08 201.3 657.73 189.81 625.54"/>
              <path class="cls-6" d="m80.1,389.33l2.7,28.1,129.62-12.46c.79-9.55,1.68-19.09,2.68-28.62l-135,12.98Z"/>
              <path class="cls-6" d="m109.48,694.92l255.21-24.53c-9.91-5.13-19.77-10.39-29.55-15.78,2.16-3.22,4.34-6.42,6.53-9.61l-234.82,22.57,2.63,27.35Z"/>
              <path class="cls-4" d="m109.55,695.67l-.04-.37-67.28,6.47,2.78,28.88,319.52-30.71c4.6-7.54,9.28-15.02,14.07-22.43-4.24-2.13-8.47-4.3-12.69-6.48l-256.36,24.64Z"/>
              <path class="cls-4" d="m69.82,390.32l10.29-.99h0s135-12.98,135-12.98c.31-2.98.63-5.95.97-8.93-7.25-4.16-14.43-8.39-21.57-12.64l-28.9,2.78c-7.78.75-11.04-9.67-4.22-13.49h0s23.51-13.18,23.51-13.18c1.28-8.47,2.64-16.94,4.08-25.38-2.04-1.32-4.06-2.67-6.09-4l-119.84,67.16s0,0,0,0h0c-1.37.77-2.48,1.7-3.36,2.74-6.16,7.29-.78,19.96,10.14,18.91Z"/>
              <path class="cls-6" d="m161.38,344.07c-6.82,3.82-3.56,14.24,4.22,13.49l28.9-2.78c-4.02-2.39-8.04-4.78-12.03-7.2.77-5.57,1.58-11.13,2.42-16.68l-23.51,13.18h0Z"/>
            </g>
            <path class="cls-5" d="m325.7,646.16l-76.64,7.37h0s-142.25,13.67-142.25,13.67l.04.37,234.82-22.57c.09-.14.19-.27.28-.4l-16.25,1.56h0Z"/>
            <path class="cls-5" d="m109.51,695.29l.04.37,256.36-24.64c-.2-.11-.41-.21-.61-.32l-255.79,24.59h0Z"/>
          </g>
        </g>
        <polygon class="cls-7" points="117.66 492.7 104.45 478.22 97.73 464.82 87.12 452.29 72.32 446.19 69.23 425.86 67.74 449.81 76.51 451.1 80.62 454.99 85.71 454.33 94.92 466.77 99.91 481.04 105.98 493.14 114.63 496.38 119.09 503.09 118.17 493.51 117.66 492.7"/>
        <polygon class="cls-7" points="127.63 522.32 138.02 527.93 144.5 524.68 145.47 536.64 146.26 549.76 159.87 556.41 151.32 548.31 148.39 520.56 133.25 517.34 118.17 493.51 119.09 503.09 123.79 510.18 127.63 522.32"/>
      </g>
      <path class="cls-7" d="m243,402.82l-3.34-9.34,1.96-.19s0,0,0,0l-3.95.38c-.8,3.52-1.59,7.04-2.39,10.56,2.86,1.51,5.71,3.03,8.58,4.53-.29-1.98-.57-3.96-.86-5.94Z"/>
      <path class="cls-7" d="m244.15,410.82c-.1-.69-.2-1.37-.3-2.06-2.87-1.5-5.72-3.02-8.58-4.53-.28,1.23-.56,2.47-.84,3.7l7.38,8.54,2.32-5.61.02-.03Z"/>
      <polygon class="cls-7" points="251.28 426.04 248.54 418.36 247.94 423.55 250.71 426.76 248.4 451.2 254.43 458.78 251.29 426.04 251.28 426.04"/>
      <path class="cls-7" d="m310.05,502.3l-3.79-10.14-9.58-7.64c.02,2.02.06,4.05.09,6.07l5.71,4.56-.28,18.26,1.84,5.6c.79.33,1.58.65,2.38.97l-.59-9.46,4.22-8.24Z"/>
      <path class="cls-7" d="m276.63,474.5l20.14,16.09c-.03-2.02-.07-4.05-.09-6.07l-2.11-1.68-13.95-13.67-13.72-1.47-7.5-9s-.1-.05-.15-.07c0-.03,0-.07,0-.1l-4.23-5.08-.7-6.98,1.56-20.88-4.61.44,3.15,32.74,9.97,12.53,12.23,3.19Z"/>
      <path class="cls-7" d="m259.27,458.63s.1.05.15.07l-.14-.17s0,.07,0,.1Z"/>
      <path class="cls-7" d="m306.9,527.72l-.48-7.73c-.79-.32-1.59-.65-2.38-.97l2.86,8.7Z"/>
      <path class="cls-7" d="m239.66,393.48l3.34,9.34-1.38-9.53-1.96.19Z"/>
      <polygon class="cls-7" points="248.61 417.82 248.54 418.36 251.28 426.04 251.29 426.04 250.65 419.4 248.61 417.82"/>
      <polygon class="cls-7" points="250.65 419.4 251.29 426.04 255.9 425.59 256.05 423.58 250.65 419.4"/>
      <path class="cls-7" d="m237.67,393.66l3.95-.38c-.5-3.47-1-6.94-1.51-10.41-.81,3.6-1.63,7.19-2.44,10.79Z"/>
      <path class="cls-7" d="m248.25,417.54l-3.52-2.73-.58-3.99-.02.03-2.32,5.61,6.12,7.08.61-5.19-.29-.82Z"/>
      <polygon class="cls-7" points="248.25 417.54 248.54 418.36 248.61 417.82 248.25 417.54"/>
      <polygon class="cls-3" points="531.85 95.02 517.99 157.26 552.45 142.24 531.85 95.02"/>
      <path class="cls-3" d="m448.27,274.15c7.45-2.2,15.17-2.87,22.74-2.04,4.56.5,9.06,1.56,13.4,3.13l144.08-62.83c16.3-7.11,23.91-25.85,16.96-41.79l-45.33-103.95c-3.52-7.99-10.22-14.15-18.48-16.99L442.87,1.77c-7.74-2.66-16.19-2.31-23.68.98-7.51,3.25-13.52,9.2-16.83,16.68l-59.32,134.29c-3.54,7.98-3.59,17.09-.13,25.1l33.91,77.75c.84-.06,1.69-.11,2.53-.12-.42.26-.85.52-1.27.77,0,0,0,0,0,0h-.01s-1.08-.29-1.08-.29l11.26,25.83c6.95,15.93,25.86,23.12,42.16,16.01l10.51-4.58c2.76-9.99,16.83-22.53,7.36-20.06Zm-10.69-23.48c-3.08-.3-6.07-1.18-8.83-2.57l4.02,9.22-5.49,2.39-18.14-41.59,8.63-3.76c1.34,3.1,3.54,5.75,6.36,7.62,2.84,1.93,6.05,3.28,9.42,3.95,3.46.69,7,.88,10.51.55,3.34-.26,6.62-1.06,9.7-2.36,2.87-1.3,5.55-2.98,7.97-5,2.66-2.15,5.03-4.63,7.04-7.39,1.96-2.65,3.34-5.68,4.06-8.89.71-3.19.36-6.52-.99-9.49-2.17-4.97-5.47-8.08-9.9-9.34-5-1.31-10.19-1.81-15.35-1.48-5.79.27-11.95.78-18.47,1.52-6.38.75-12.83.7-19.2-.15-6.31-.85-12.33-3.13-17.61-6.68-5.46-3.61-10.02-9.6-13.67-17.97-2.54-5.72-3.44-12.04-2.59-18.25.83-6.26,2.82-12.31,5.87-17.85,3.09-5.65,7.1-10.75,11.86-15.09,4.55-4.26,9.78-7.72,15.48-10.25,2.67-1.14,5.41-2.1,8.2-2.88,3.12-.89,6.31-1.54,9.54-1.94,3.15-.4,6.33-.46,9.49-.17,2.88.23,5.69,1.03,8.26,2.35l-3.42-7.85,4.7-2.05,16.42,37.66-8.23,3.59c-1.15-2.69-3.16-4.94-5.7-6.39-2.67-1.53-5.58-2.59-8.6-3.14-3.12-.58-6.31-.68-9.47-.31-2.86.29-5.65,1-8.3,2.1-2.66,1.21-5.17,2.74-7.47,4.54-2.57,1.94-4.82,4.26-6.68,6.88-1.78,2.49-3.09,5.28-3.88,8.23-.76,2.89-.5,5.95.74,8.66,2.17,4.97,5.5,8.07,10,9.3,4.98,1.27,10.14,1.7,15.26,1.29,5.67-.37,11.77-1.01,18.3-1.91,6.32-.9,12.74-.95,19.07-.15,6.25.83,12.24,3.04,17.53,6.48,4.12,2.64,7.72,6.63,10.81,11.99l-2.48-5.68,21.81-100.65,27.42-11.96,39.04,89.52,19.18-8.36,2.62,6.02-19.17,8.36,13.2,30.27,14.88-6.49,1.91,4.38-53.41,23.29-1.91-4.38,14.88-6.49-13.2-30.27-58.97,25.71-.94-2.15c1.36,4.68,1.86,9.59,1.44,14.47-.59,6.59-2.47,13.01-5.54,18.88-3.14,6.01-7.28,11.45-12.24,16.08-4.86,4.64-10.48,8.39-16.63,11.1-2.9,1.24-5.88,2.26-8.93,3.07-3.33.91-6.72,1.53-10.16,1.86-3.35.33-6.72.32-10.06-.05Z"/>
      <path class="cls-3" d="m378.07,257.25s0,0,0,0c0,0-.01,0-.02,0h.01Z"/>
      <path class="cls-3" d="m378.08,257.24c.42-.26.85-.52,1.27-.77-.84,0-1.69.05-2.53.12l.16.37,1.08.29s.01,0,.02,0Z"/>
      <path class="cls-3" d="m471.01,272.11c-7.57-.83-15.3-.16-22.74,2.04,9.47-2.47-4.61,10.07-7.36,20.06l43.5-18.97c-4.34-1.57-8.84-2.63-13.4-3.13Z"/>
      <path class="cls-7" d="m499.68,185.26l.94,2.15,58.97-25.71,13.2,30.27-14.88,6.49,1.91,4.38,53.41-23.29-1.91-4.38-14.88,6.49-13.2-30.27,19.17-8.36-2.62-6.02-19.18,8.36-39.04-89.52-27.42,11.96-21.81,100.65,2.48,5.68c1.03,1.79,2,3.74,2.92,5.84.78,1.72,1.41,3.5,1.94,5.3Zm32.17-90.24l20.59,47.23-34.45,15.02,13.86-62.25Z"/>
      <path class="cls-7" d="m466.72,245.79c6.14-2.71,11.77-6.47,16.63-11.1,4.96-4.63,9.1-10.07,12.24-16.08,3.07-5.87,4.95-12.28,5.54-18.88.42-4.89-.08-9.79-1.44-14.47l-4.85-11.13c-3.08-5.36-6.68-9.36-10.81-11.99-5.29-3.44-11.28-5.65-17.53-6.48-6.34-.8-12.75-.76-19.07.15-6.53.9-12.63,1.54-18.3,1.91-5.12.42-10.28-.02-15.26-1.29-4.5-1.22-7.84-4.32-10-9.3-1.24-2.72-1.5-5.78-.74-8.66.78-2.96,2.1-5.74,3.88-8.23,1.86-2.62,4.12-4.94,6.68-6.88,2.3-1.8,4.81-3.33,7.47-4.54,2.65-1.1,5.45-1.81,8.3-2.1,3.15-.37,6.34-.27,9.47.31,3.03.54,5.94,1.6,8.6,3.14,2.55,1.45,4.55,3.69,5.7,6.39l8.23-3.59-16.42-37.66-4.7,2.05,3.42,7.85c-2.57-1.32-5.38-2.12-8.26-2.35-3.16-.29-6.34-.23-9.49.17-3.22.4-6.41,1.05-9.54,1.94-2.79.78-5.53,1.74-8.2,2.88-5.7,2.53-10.93,6-15.48,10.25-4.76,4.34-8.76,9.44-11.86,15.09-3.04,5.54-5.03,11.59-5.87,17.85-.85,6.21.05,12.53,2.59,18.25,3.65,8.37,8.21,14.36,13.67,17.97,5.28,3.54,11.31,5.83,17.61,6.68,6.37.85,12.82.9,19.2.15,6.52-.74,12.68-1.25,18.47-1.52,5.16-.33,10.34.17,15.35,1.48,4.44,1.26,7.74,4.37,9.9,9.34,1.35,2.97,1.7,6.3.99,9.49-.72,3.21-2.1,6.24-4.06,8.89-2.02,2.76-4.38,5.24-7.04,7.39-2.42,2.02-5.1,3.7-7.97,5-3.09,1.31-6.36,2.1-9.7,2.36-3.51.33-7.05.14-10.51-.55-3.37-.67-6.58-2.01-9.42-3.95-2.81-1.87-5.02-4.52-6.36-7.62l-8.63,3.76,18.14,41.59,5.49-2.39-4.02-9.22c2.76,1.4,5.75,2.27,8.83,2.57,3.34.37,6.71.38,10.06.05,3.43-.33,6.83-.95,10.16-1.86,3.05-.81,6.03-1.84,8.93-3.07Z"/>
      <path class="cls-7" d="m497.75,179.96c-.91-2.1-1.89-4.04-2.92-5.84l4.85,11.13c-.52-1.8-1.16-3.58-1.94-5.3Z"/>
    </g>
  </g>
</svg>