<?xml version="1.0" encoding="UTF-8"?>
<svg id="Layer_2" data-name="Layer 2" xmlns="http://www.w3.org/2000/svg" viewBox="0 0 764.82 773.42">
  <defs>
    <style>
      .cls-1 {
        fill: rgba(92, 92, 92, 0);
      }

      .cls-1, .cls-2, .cls-3, .cls-4, .cls-5, .cls-6, .cls-7 {
        stroke-width: 0px;
      }

      .cls-2 {
        fill: none;
      }

      .cls-3 {
        fill: #756746;
      }

      .cls-4 {
        fill: #5c5c5c;
      }

      .cls-5 {
        fill: #2c2c7c;
      }

      .cls-6 {
        fill: #d0d8d7;
      }

      .cls-7 {
        fill: #fff;
      }
    </style>
  </defs>
  <g id="Layer_7" data-name="Layer 7">
    <g>
      <path class="cls-6" d="m364.86,257.24s-.01,0-.02,0h.01s0,0,0,0Z"/>
      <path class="cls-5" d="m364.86,257.24c.42-.26.85-.52,1.27-.77-1.16.01-2.31.08-3.47.19l2.17.58s.01,0,.02,0Z"/>
      <g>
        <path class="cls-2" d="m109.48,684.77h0s-2.63-27.35-2.63-27.35h0s-.07-.75-.07-.75l18.09-1.74,6.58-33.92h0s-.05,0-.05,0l-17.59-183.03h0s-11.62-32.55-11.62-32.55l76.64-7.37-6.65,34.31.04.37h0s17.56,182.66,17.56,182.66h.05s11.49,32.19,11.49,32.19l47.83-4.6,6.58-33.92h-.05s-17.59-183.03-17.59-183.03h0s-11.62-32.55-11.62-32.55l76.64-7.37-1.29,6.67c2.61-2.45,5.23-4.88,7.86-7.31l-226.85,21.8-2.7-28.1-10.29.99c-10.92,1.05-16.29-11.62-10.14-18.91.88-1.04,1.99-1.97,3.36-2.74h0s231.31-129.63,231.31-129.63c.01,0,.02-.01.03-.02.33-.19.64-.34.93-.49,6.84-3.67,14.27-5.9,21.85-6.63s16.02.11,23.75,2.66l3.17,1.05c-1.57-1.94-3.15-3.89-4.7-5.84L0,252.24l42.23,439.37,67.28-6.47-.04-.37Z"/>
        <path class="cls-2" d="m296.88,425.02h0s.07.75.07.75h0s17.08,177.69,17.08,177.69h.05s11.49,32.18,11.49,32.18l16.66-1.6c6.17-8.96,12.46-17.83,18.89-26.6-13.97-8-27.79-16.28-41.46-24.83,9.29-12.22,18.81-24.24,28.56-36.05-13.28-8.61-26.39-17.5-39.33-26.64,10.13-11.87,20.49-23.52,31.04-34.95-12.55-9.19-24.92-18.64-37.09-28.35,10.95-11.46,22.1-22.69,33.43-33.69-11.72-9.67-23.24-19.59-34.55-29.75l-5.28,27.23.44,4.61Z"/>
        <polygon class="cls-6" points="183.08 615.66 183.11 616.04 189.76 615.4 172.2 432.74 120.54 437.7 120.5 437.33 113.8 437.97 131.4 621.01 131.45 621 131.41 620.63 183.08 615.66"/>
        <polygon class="cls-6" points="171.21 422.42 172.13 431.99 172.13 431.99 172.17 432.36 178.82 398.05 102.18 405.42 113.8 437.97 113.8 437.97 112.85 428.03 171.21 422.42"/>
        <polygon class="cls-6" points="120.46 436.96 172.13 431.99 171.21 422.42 112.85 428.03 113.8 437.97 120.5 437.33 120.46 436.96"/>
        <rect class="cls-5" x="172.18" y="432.36" width="0" height=".37" transform="translate(-40.6 18.46) rotate(-5.49)"/>
        <rect class="cls-5" x="120.4" y="434.85" width="51.9" height=".37" transform="translate(-40.95 16) rotate(-5.49)"/>
        <rect class="cls-5" x="172.15" y="431.99" width="0" height=".38" transform="translate(-40.56 18.45) rotate(-5.49)"/>
        <rect class="cls-5" x="120.36" y="434.47" width="51.9" height=".38" transform="translate(-40.92 15.99) rotate(-5.49)"/>
        <polygon class="cls-6" points="189.81 615.39 189.76 615.4 189.76 615.4 183.11 616.04 183.15 616.41 131.48 621.38 131.45 621.01 124.87 654.93 201.3 647.58 189.81 615.39"/>
        <rect class="cls-6" x="183.1" y="615.72" width="6.68" height="0" transform="translate(-58.06 20.66) rotate(-5.49)"/>
        <polygon class="cls-5" points="131.45 621 131.45 621.01 131.45 621 131.45 621"/>
        <polygon class="cls-5" points="131.45 621 183.11 616.04 183.08 615.66 131.41 620.63 131.45 621 131.45 621 131.45 621"/>
        <polygon class="cls-5" points="183.15 616.41 183.11 616.04 131.45 621 131.45 621.01 131.48 621.38 183.15 616.41"/>
        <rect class="cls-5" x="157.28" y="592.57" width="0" height="51.9" transform="translate(-480.36 645.28) rotate(-78.14)"/>
        <polygon class="cls-6" points="296.95 425.77 245.28 430.74 245.21 429.99 296.88 425.02 296.43 420.41 296.43 420.43 238.07 426.04 255.67 609.07 255.72 609.06 314.03 603.46 296.95 425.77"/>
        <path class="cls-6" d="m226.45,393.48l11.62,32.55h0s-.96-9.94-.96-9.94l58.36-5.61.95,9.93,5.28-27.23c-.06-.05-.12-.11-.18-.16.09-.08.17-.16.26-.24l1.29-6.67-76.64,7.37Z"/>
        <path class="cls-6" d="m301.72,393.18l.08-.4c-.09.08-.17.16-.26.24.06.05.12.11.18.16Z"/>
        <polygon class="cls-6" points="296.43 420.41 295.48 410.48 237.12 416.09 238.07 426.04 296.43 420.43 296.43 420.41"/>
        <rect class="cls-5" x="296.91" y="425.02" width="0" height=".75" transform="translate(-39.34 30.36) rotate(-5.49)"/>
        <rect class="cls-5" x="245.13" y="427.5" width="51.9" height=".75" transform="translate(-39.7 27.9) rotate(-5.49)"/>
        <path class="cls-6" d="m314.08,603.45h-.05s-58.31,5.61-58.31,5.61l-6.58,33.92,76.43-7.35-11.49-32.19Zm-6.18,5.99l-51.67,4.97-.07-.75,51.67-4.97.07.75Z"/>
        <rect class="cls-5" x="256.07" y="611.18" width="51.9" height=".75" transform="translate(-57.22 29.79) rotate(-5.49)"/>
        <path class="cls-6" d="m331.24,355.04l-251.14,24.14,2.7,28.1,226.85-21.8c9.1-8.4,18.31-16.65,27.61-24.76-2.02-1.88-4.02-3.78-6.03-5.67Z"/>
        <path class="cls-6" d="m335.14,644.46c2.16-3.22,4.34-6.42,6.53-9.61l-234.82,22.57,2.63,27.35,255.21-24.53c-9.91-5.13-19.77-10.39-29.55-15.78Z"/>
        <path class="cls-4" d="m365.91,660.87l-256.36,24.64-.04-.37-67.28,6.47,2.78,28.88,319.52-30.71c4.6-7.54,9.28-15.02,14.07-22.43-4.24-2.13-8.47-4.3-12.69-6.48Z"/>
        <path class="cls-4" d="m69.82,380.17c-10.92,1.05-16.29-11.62-10.14-18.91-6.16,7.29-.78,19.96,10.14,18.91l10.29-.99h0s-10.29.99-10.29.99Z"/>
        <path class="cls-4" d="m294.36,228.89s.02-.01.03-.02c-.01,0-.02.01-.03.02L63.04,358.52h0s0,0,0,0l231.31-129.63Z"/>
        <polygon class="cls-4" points="331.24 355.04 80.1 379.18 80.1 379.18 331.24 355.04 331.24 355.04"/>
        <path class="cls-1" d="m63.04,358.52c-1.37.77-2.48,1.7-3.36,2.74.88-1.04,1.99-1.97,3.36-2.74h0Z"/>
        <path class="cls-4" d="m69.82,380.17l10.29-.99h0s251.13-24.14,251.13-24.14c-7.44-7.04-14.77-14.18-21.99-21.44l-143.64,13.81c-7.78.75-11.04-9.67-4.22-13.49h0s135.88-76.15,135.88-76.15l-.14-.02c-15.08-4.98,10.14-35.28-1.82-29.36-.29.14-.59.3-.93.49-.01,0-.02.01-.03.02L63.04,358.52s0,0,0,0h0c-1.37.77-2.48,1.7-3.36,2.74-6.16,7.29-.78,19.96,10.14,18.91Z"/>
        <polygon class="cls-1" points="80.1 379.18 331.24 355.04 331.24 355.04 80.1 379.18 80.1 379.18"/>
        <path class="cls-6" d="m313.33,265.94c1.98-1.49,3.96-2.97,5.95-4.45h-.01c-3.86.53-7.61,1.66-11.14,3.34-3.76,1.78-7.17,4.24-10.05,7.25-2.74,2.84-4.88,6.21-6.28,9.9-2.82,7.44-2.02,15.76,2.16,22.52,2.08,3.36,4.82,6.25,8.05,8.52,3.4,2.4,7.21,4.16,11.25,5.19,1.4.36,2.8.63,4.22.82,8.42-6.93,16.92-13.75,25.48-20.45-10.12-10.66-20-21.54-29.63-32.64Z"/>
        <path class="cls-6" d="m161.38,333.92c-6.82,3.82-3.56,14.24,4.22,13.49l143.64-13.81c-1.41-1.41-2.82-2.82-4.22-4.24,3.87-3.26,7.75-6.48,11.65-9.69-1.21-.19-2.42-.44-3.61-.75-4.12-1.06-8.02-2.86-11.49-5.31-3.32-2.32-6.12-5.3-8.26-8.74-4.3-6.96-5.12-15.52-2.23-23.18,1.44-3.79,3.63-7.24,6.44-10.15,2.94-3.07,6.42-5.58,10.27-7.4,2.96-1.4,6.07-2.41,9.24-3.04l-19.78-3.34-135.88,76.15h0Z"/>
        <path class="cls-5" d="m313.26,318.2c-4.03-1.03-7.85-2.79-11.25-5.19-3.23-2.27-5.97-5.16-8.05-8.52-4.18-6.76-4.98-15.08-2.16-22.52,1.4-3.69,3.54-7.06,6.28-9.9,2.88-3.01,6.29-5.46,10.05-7.25,3.52-1.68,7.28-2.81,11.14-3.34l-2.22-.37c-3.17.63-6.28,1.64-9.24,3.04-3.85,1.82-7.33,4.33-10.27,7.4-2.81,2.91-5,6.37-6.44,10.15-2.9,7.65-2.07,16.22,2.23,23.18,2.13,3.44,4.94,6.41,8.26,8.74,3.48,2.45,7.37,4.25,11.49,5.31,1.19.31,2.4.56,3.61.75.27-.22.53-.44.8-.65-1.41-.2-2.82-.47-4.22-.82Z"/>
        <polygon class="cls-5" points="249.06 643.37 249.14 642.99 201.3 647.58 201.43 647.95 124.8 655.31 124.87 654.93 106.78 656.67 106.85 657.42 106.85 657.42 106.81 657.04 249.06 643.37"/>
        <path class="cls-5" d="m325.7,636l16.25-1.56c.09-.13.19-.27.28-.4l-16.66,1.6.13.36Z"/>
        <polygon class="cls-5" points="201.43 647.95 201.3 647.58 124.87 654.93 124.8 655.31 201.43 647.95"/>
        <polygon class="cls-5" points="325.7 636 325.57 635.64 249.14 642.99 249.06 643.37 325.7 636"/>
        <path class="cls-5" d="m341.95,634.44l-16.25,1.56h0s-76.64,7.37-76.64,7.37h0s-142.25,13.67-142.25,13.67l.04.37,234.82-22.57c.09-.14.19-.27.28-.4Z"/>
        <rect class="cls-5" x="248.88" y="639.69" width="76.99" height="0" transform="translate(-59.89 30.43) rotate(-5.49)"/>
        <rect class="cls-5" x="109.49" y="684.77" width="0" height=".37" transform="translate(-65.03 13.62) rotate(-5.49)"/>
        <path class="cls-5" d="m365.3,660.56c-.2-.11-.41-.21-.61-.32l-255.21,24.53.04.37,255.79-24.59Z"/>
        <path class="cls-5" d="m109.51,685.14h0s.04.37.04.37l256.36-24.64c-.2-.11-.41-.21-.61-.32l-255.79,24.59Z"/>
        <g>
          <path class="cls-6" d="m395.52,342.35c4.63-3.45,9.28-6.88,13.95-10.27-9.6-3.14-20.08-2.11-28.89,2.82l-8.27,4.63,19.78,3.34c1.14-.22,2.28-.4,3.43-.52Z"/>
          <path class="cls-6" d="m384.05,462.46c1.65-3.17,3.31-6.31,4.99-9.41-4.02-3.67-8.15-3.26-11.39,1.14l-3.04,4.13,8.1,4.46c.44-.16.89-.26,1.34-.32Z"/>
          <path class="cls-6" d="m358.31,449.1c2.5-5.3,5.01-10.55,7.53-15.74-6.23-6.22-12.57-5.59-17.49,1.76l-4.61,6.9,12.51,7.6c.68-.26,1.36-.43,2.06-.52Z"/>
          <path class="cls-6" d="m398.5,499.2c3.32-2.56,6.65-5.09,9.99-7.6-6.9-2.35-14.42-1.62-20.74,2.03l-5.93,3.42,14.21,2.53c.82-.16,1.64-.29,2.46-.38Z"/>
          <path class="cls-6" d="m384.05,395.4c1.65-3.17,3.31-6.31,4.99-9.41-4.02-3.67-8.15-3.26-11.39,1.14l-3.04,4.13,8.1,4.46c.44-.16.89-.26,1.34-.32Z"/>
          <path class="cls-6" d="m343.05,522.41c1.65-3.17,3.31-6.31,4.99-9.41-4.02-3.67-8.15-3.26-11.39,1.14l-3.04,4.13,8.1,4.46c.44-.16.89-.26,1.34-.32Z"/>
          <path class="cls-6" d="m384.05,557.51c1.65-3.17,3.31-6.31,4.99-9.41-4.02-3.67-8.15-3.26-11.39,1.14l-3.04,4.13,8.1,4.46c.44-.16.89-.26,1.34-.32Z"/>
        </g>
      </g>
      <g>
        <path class="cls-4" d="m457.8,272.11c-7.57-.83-15.3-.16-22.74,2.04,12.91-3.36-17.96,21.16-4.2,29.11l.13.05,9.04-2.85c9.64-3.04,20.1-1.9,28.86,3.12,7.08-3.19,14.18-6.32,21.3-9.38-2.3-4.31-4.55-8.64-6.79-12.98l-2.89-1.67c-7.05-4.07-14.79-6.57-22.71-7.44Z"/>
        <path class="cls-4" d="m702.97,433.86l-19.96-2.19h0s19.96,2.19,19.96,2.19c7.4.81,12.33-4.73,12.85-10.67-.51,5.95-5.44,11.49-12.85,10.67Z"/>
        <polygon class="cls-4" points="444.43 405.46 444.43 405.46 683.01 431.67 683.01 431.67 444.43 405.46"/>
        <path class="cls-1" d="m715.81,423.18c.35-4.07-1.37-8.33-5.78-10.88h0s0,0,0,0c4.41,2.55,6.13,6.81,5.78,10.88Z"/>
        <polygon class="cls-1" points="683.01 431.67 683.01 431.67 444.43 405.46 444.43 405.46 683.01 431.67"/>
        <path class="cls-6" d="m453.47,311.58c-.56-.06-1.12-.11-1.68-.15,0,0,0,0,0,0l21.36,8.34c-2.1-1.76-4.41-3.27-6.89-4.48-4.01-1.98-8.34-3.24-12.78-3.71Z"/>
        <path class="cls-6" d="m445.05,314.58c7.17,12.83,14.62,25.5,22.36,37.99-9.75,4.81-19.46,9.76-29.11,14.83,7.07,2.53,14.75,2.97,22.1,1.2,4.05-.98,7.88-2.69,11.32-5.04,3.26-2.22,6.04-5.08,8.17-8.41,4.27-6.71,5.18-15.02,2.47-22.49-1.35-3.71-3.44-7.11-6.15-9.98-.96-1.03-1.99-1.99-3.07-2.9l-21.36-8.34c-2.24,1.05-4.49,2.09-6.73,3.15Z"/>
        <g>
          <path class="cls-4" d="m612.04,386.37c6.76,3.91,3.36,14.29-4.4,13.43l-180.37-19.81c5.6,8.57,11.32,17.06,17.16,25.47l238.58,26.2h0s19.96,2.19,19.96,2.19c7.4.81,12.33-4.73,12.85-10.67.35-4.07-1.37-8.33-5.78-10.88h0s-163.74-63.96-163.74-63.96l65.75,38.02Z"/>
          <g>
            <path class="cls-2" d="m479.98,274.54c1.13,2.23,2.27,4.46,3.41,6.68l226.63,131.08h0c4.41,2.55,6.13,6.82,5.78,10.89-.51,5.95-5.44,11.49-12.85,10.67l-19.96-2.19-3.08,28.06-262.83-28.87c-3.07,1.84-6.13,3.69-9.18,5.55l-.16.38c9,12.25,18.26,24.31,27.76,36.17-13.34,8.46-26.55,17.18-39.6,26.17,9.94,11.98,20.12,23.75,30.54,35.31-12.66,9.04-25.17,18.33-37.51,27.89,10.8,11.59,21.84,22.96,33.08,34.1-11.95,9.58-23.72,19.4-35.3,29.47,11.64,11.16,23.49,22.08,35.53,32.76-8.07,7.27-16.04,14.67-23.91,22.19l31.13,3.42,13.35-31.87h-.05s20.07-182.78,20.07-182.78l-4.75-34.24,76.53,8.41-13.51,32.23-.5,4.59h0s-.08.75-.08.75h0s-19.49,177.44-19.49,177.44h.05s4.69,33.86,4.69,33.86l47.77,5.25,13.35-31.87h-.05s20.08-182.79,20.08-182.79h0s-4.75-34.24-4.75-34.24l76.53,8.41-13.5,32.23-.51,4.6-.08.75-19.49,177.44h.05s4.69,33.86,4.69,33.86l22.68,2.49-.04.37h0s-3.08,28.06-3.08,28.06l67.18,7.38,48.19-438.75-284.84-31.28Z"/>
            <polygon class="cls-6" points="520.53 481.35 468.94 475.68 469.02 474.94 520.62 480.6 521.12 476.01 462.84 469.61 442.77 652.39 442.82 652.4 501.05 658.79 520.53 481.35"/>
            <polygon class="cls-6" points="522.21 466.09 521.12 476.01 534.63 443.78 458.1 435.37 462.84 469.61 463.93 459.68 522.21 466.09"/>
            <rect class="cls-6" x="487.53" y="438.53" width="9.99" height="58.63" transform="translate(-26.3 906.35) rotate(-83.73)"/>
            <rect class="cls-5" x="520.2" y="480.98" width=".75" height="0" transform="translate(-14.36 945.93) rotate(-83.73)"/>
            <rect class="cls-5" x="494.4" y="452.19" width=".75" height="51.9" transform="translate(-34.52 917.76) rotate(-83.73)"/>
            <path class="cls-6" d="m501.09,658.8h-.05s-58.23-6.4-58.23-6.4l-13.35,31.87,76.33,8.38-4.69-33.85Zm-7.27,4.6l-51.59-5.67.08-.75,51.59,5.67-.08.75Z"/>
            <rect class="cls-5" x="467.69" y="634.24" width=".75" height="51.91" transform="translate(-239.28 1053.38) rotate(-83.73)"/>
            <polygon class="cls-6" points="644.63 494.98 593.03 489.31 593.12 488.57 644.71 494.23 645.22 489.63 645.22 489.64 586.94 483.24 566.86 666.02 566.91 666.02 625.14 672.42 644.63 494.98"/>
            <polygon class="cls-6" points="646.31 479.71 645.22 489.63 658.72 457.4 582.19 449 586.94 483.24 586.94 483.24 588.03 473.31 646.31 479.71"/>
            <polygon class="cls-6" points="645.22 489.63 646.31 479.71 588.03 473.31 586.94 483.24 645.22 489.64 645.22 489.63"/>
            <rect class="cls-5" x="618.5" y="465.82" width=".75" height="51.9" transform="translate(62.48 1053.26) rotate(-83.73)"/>
            <path class="cls-6" d="m625.19,672.43h-.05s-58.23-6.4-58.23-6.4l-13.35,31.87,76.33,8.38-4.69-33.85Zm-7.28,4.6l-51.59-5.67.08-.75,51.59,5.67-.08.75Z"/>
            <rect class="cls-5" x="591.79" y="647.87" width=".75" height="51.91" transform="translate(-142.28 1188.88) rotate(-83.73)"/>
            <path class="cls-6" d="m449.17,412.25c-10.77,6.04-21.46,12.25-32.08,18.61l262.83,28.87,3.08-28.06-238.58-26.2c1.58,2.26,3.15,4.53,4.74,6.78Z"/>
            <path class="cls-6" d="m397.61,681.52c-2.8,2.68-5.58,5.37-8.35,8.08,8.48,7.28,17.06,14.43,25.72,21.47l234.51,25.76-.04.37h0s3.08-28.06,3.08-28.06h0s-.04.37-.04.37l-254.87-27.99Z"/>
            <path class="cls-4" d="m649.45,737.2l-.04.37-233.36-25.63c3.69,2.99,7.39,5.97,11.1,8.93-6.19,6.28-12.3,12.65-18.34,19.09l304.66,33.46,3.17-28.84-67.18-7.38h0Z"/>
            <path class="cls-4" d="m468.89,303.58s.07.04.11.06l77.29,44.7,163.74,63.95-226.63-131.08c2.23,4.34,4.49,8.67,6.79,12.98-7.12,3.06-14.22,6.19-21.3,9.38Z"/>
            <path class="cls-6" d="m466.58,314.62c3.14,1.54,6.02,3.55,8.55,5.94l71.15,27.79-77.29-44.7s-.07-.04-.11-.06c-5.26,2.37-10.51,4.78-15.75,7.21,4.64.46,9.2,1.74,13.45,3.82Z"/>
            <path class="cls-6" d="m476.75,322.16c2.77,2.95,4.92,6.44,6.3,10.24,2.79,7.69,1.85,16.24-2.54,23.14-2.18,3.41-5.03,6.35-8.37,8.63-3.51,2.41-7.43,4.15-11.56,5.15-4.43,1.08-9.01,1.38-13.54.86-3.31-.35-6.55-1.14-9.65-2.32-4.47,2.35-8.93,4.71-13.38,7.11,1.08,1.67,2.18,3.34,3.27,5.01l180.37,19.81c7.76.85,11.17-9.52,4.4-13.43l-65.75-38.02-71.15-27.79c.55.52,1.09,1.05,1.61,1.61Z"/>
          </g>
        </g>
        <path class="cls-5" d="m453.47,311.58c4.45.47,8.77,1.73,12.78,3.71,2.47,1.21,4.78,2.72,6.89,4.48l2,.78c-2.54-2.39-5.42-4.4-8.55-5.94-4.25-2.08-8.81-3.36-13.45-3.82-.45.21-.9.42-1.35.63.56.04,1.12.09,1.68.15Z"/>
        <path class="cls-5" d="m460.57,369.33c4.14-1,8.05-2.75,11.56-5.15,3.35-2.28,6.2-5.21,8.37-8.63,4.4-6.9,5.33-15.45,2.54-23.14-1.39-3.8-3.53-7.29-6.3-10.24-.52-.56-1.06-1.09-1.61-1.61l-2-.78c1.08.9,2.11,1.86,3.07,2.9,2.7,2.88,4.79,6.27,6.15,9.98,2.71,7.47,1.8,15.78-2.47,22.49-2.13,3.33-4.9,6.19-8.17,8.41-3.43,2.36-7.27,4.06-11.32,5.04-7.36,1.78-15.04,1.34-22.1-1.2-.3.16-.61.32-.91.48,3.1,1.18,6.34,1.96,9.65,2.32,4.53.51,9.12.22,13.54-.86Z"/>
        <polygon class="cls-5" points="553.4 698.25 553.56 697.89 505.79 692.65 505.84 693.03 553.4 698.25"/>
        <polygon class="cls-5" points="652.53 709.14 652.57 708.77 629.89 706.28 629.94 706.66 652.53 709.14"/>
        <polygon class="cls-5" points="505.84 693.03 505.79 692.65 429.46 684.26 429.31 684.62 505.84 693.03"/>
        <polygon class="cls-5" points="629.94 706.66 629.89 706.28 553.56 697.89 553.4 698.25 629.94 706.66"/>
        <path class="cls-5" d="m629.94,706.67l-76.54-8.41h0s-47.56-5.23-47.56-5.23h0s-76.53-8.4-76.53-8.4h0s-31.34-3.45-31.34-3.45c-.12.11-.24.23-.36.34l254.87,27.99.04-.37-22.59-2.48h0Z"/>
        <rect class="cls-5" x="397.96" y="687.12" width="108.2" height="0" transform="translate(-147.48 124.05) rotate(-13.46)"/>
        <rect class="cls-5" x="553.17" y="702.46" width="77" height="0" transform="translate(-92.47 89.7) rotate(-8.04)"/>
        <path class="cls-5" d="m414.98,711.07c.18.14.36.29.53.44l233.93,25.69.04-.37-234.51-25.76Z"/>
        <path class="cls-5" d="m416.05,711.94l233.36,25.63.04-.37-233.93-25.69c.18.14.35.29.53.44Z"/>
      </g>
    </g>
    <polygon class="cls-7" points="252.51 351.52 239.18 367.18 244.26 382.35 241.75 398.58 236.03 412.44 233.74 431.9 225.35 459.82 232.83 473.38 213.8 493.77 213.28 505.53 209.38 490.9 218.78 481.7 227.18 473.13 220.48 470.37 217.91 458.84 224.56 447.99 228.98 432.02 225.76 423.37 230.92 410.85 238.44 397.74 241.8 382.63 237.97 379.21 238.21 373.55 233.44 366.08 252.51 351.52"/>
    <path class="cls-7" d="m416.84,419.08l17.24,17.95-1.01,24.53,17.04,19.24,12.38,2.54,26.91,19.26.68,18.25,5.44,14.03-1.97-17.1,3.78-8.45-4.32-9.92-12.16-8.69-14.65-12.92-13.77-.75-12.61-13.6-1.07-6.93.5-22.95-11.76-8.16c-2.1-10.55-4.2-21.1-6.3-31.65-1.45,8.44-2.89,16.88-4.34,25.31Z"/>
    <path class="cls-7" d="m609.88,445.82l-5.24,24.32-20.9,12.88-6.42,24.89,4.82,11.69-.92,33.08-14.75,10.77-8.59,12.36,13.08-11.2,9.11-1.59,5.81-9.13.4-14.94,2.52-19.37-7.08-11.84,4.22-18.06,5.15-4.76,19.31-12.42.18-14.31c7.57-7.64,15.14-15.28,22.71-22.92-7.8,3.52-15.61,7.04-23.41,10.56Z"/>
    <polygon class="cls-7" points="69.23 415.71 72.32 436.04 87.12 442.14 97.73 454.67 104.45 468.07 117.66 482.55 133.25 507.19 148.39 510.42 151.32 538.16 159.87 546.26 146.26 539.61 145.47 526.49 144.5 514.53 138.02 517.78 127.63 512.17 123.79 500.03 114.63 486.23 105.98 483 99.91 470.89 94.92 456.62 85.71 444.18 80.62 444.84 76.51 440.95 67.74 439.66 69.23 415.71"/>
    <path class="cls-7" d="m221.23,407.93l16.26,18.83-2.3,24.44,16,20.11,12.23,3.19,25.85,20.66-.28,18.26,4.7,14.3-1.07-17.19,4.22-8.24-3.79-10.14-11.68-9.32-13.95-13.67-13.72-1.47-11.87-14.25-.7-6.98,1.71-22.89-11.31-8.77c-1.54-10.65-3.08-21.29-4.62-31.94-1.89,8.35-3.78,16.7-5.67,25.05Z"/>
    <g id="Group_133" data-name="Group 133">
      <path id="Path_1" data-name="Path 1" class="cls-3" d="m405.98,2.75c7.49-3.29,15.95-3.64,23.68-.98l138.77,47.91c8.26,2.84,14.96,9,18.48,16.99l45.33,103.95c6.95,15.93-.66,34.68-16.96,41.79l-198.1,86.38c-16.3,7.11-35.21-.07-42.16-16.01l-45.33-103.95c-3.46-8.02-3.42-17.12.13-25.1l59.32-134.29c3.31-7.48,9.32-13.44,16.83-16.68Z"/>
      <path id="Path_13" data-name="Path 13" class="cls-7" d="m570.04,151.37l13.2,30.27,14.88-6.49,1.91,4.38-53.41,23.29-1.91-4.38,14.88-6.49-13.2-30.27-58.97,25.71-8.27-18.96,21.81-100.65,27.42-11.96,39.04,89.52,19.18-8.36,2.62,6.02-19.17,8.36Zm-51.4-56.36l-13.86,62.25,34.45-15.02-20.59-47.23Z"/>
      <path id="Path_14" data-name="Path 14" class="cls-7" d="m487.91,199.73c-.59,6.59-2.47,13.01-5.54,18.88-3.14,6.01-7.28,11.45-12.24,16.08-4.86,4.64-10.48,8.39-16.63,11.1-2.9,1.24-5.88,2.26-8.93,3.07-3.33.91-6.72,1.53-10.16,1.86-3.35.33-6.72.32-10.06-.05-3.08-.3-6.07-1.18-8.83-2.57l4.02,9.22-5.49,2.39-18.14-41.59,8.63-3.76c1.34,3.1,3.54,5.75,6.36,7.62,2.84,1.93,6.05,3.28,9.42,3.95,3.46.69,7,.88,10.51.55,3.34-.26,6.62-1.06,9.7-2.36,2.87-1.3,5.55-2.98,7.97-5,2.66-2.15,5.03-4.63,7.04-7.39,1.96-2.65,3.34-5.68,4.06-8.89.71-3.19.36-6.52-.99-9.49-2.17-4.97-5.47-8.08-9.9-9.34-5-1.31-10.19-1.81-15.35-1.48-5.79.27-11.95.78-18.47,1.52-6.38.75-12.83.7-19.2-.15-6.31-.85-12.33-3.13-17.61-6.68-5.46-3.61-10.02-9.6-13.67-17.97-2.54-5.72-3.44-12.04-2.59-18.25.83-6.26,2.82-12.31,5.87-17.85,3.09-5.65,7.1-10.75,11.86-15.09,4.55-4.26,9.78-7.72,15.48-10.25,2.67-1.14,5.41-2.1,8.2-2.88,3.12-.89,6.31-1.54,9.54-1.94,3.15-.4,6.33-.46,9.49-.17,2.88.23,5.69,1.03,8.26,2.35l-3.42-7.85,4.7-2.05,16.42,37.66-8.23,3.59c-1.15-2.69-3.16-4.94-5.7-6.39-2.67-1.53-5.58-2.59-8.6-3.14-3.12-.58-6.31-.68-9.47-.31-2.86.29-5.65,1-8.3,2.1-2.66,1.21-5.17,2.74-7.47,4.54-2.57,1.94-4.82,4.26-6.68,6.88-1.78,2.49-3.09,5.28-3.88,8.23-.76,2.89-.5,5.95.74,8.66,2.17,4.97,5.5,8.07,10,9.3,4.98,1.27,10.14,1.7,15.26,1.29,5.67-.37,11.77-1.01,18.3-1.91,6.32-.9,12.74-.95,19.07-.15,6.25.83,12.24,3.04,17.53,6.48,5.5,3.52,10.08,9.46,13.72,17.83,2.79,6.19,3.96,13,3.38,19.77Z"/>
    </g>
  </g>
</svg>