<?xml version="1.0" encoding="UTF-8"?>
<svg id="Layer_2" data-name="Layer 2" xmlns="http://www.w3.org/2000/svg" viewBox="0 0 823.97 634.81">
  <defs>
    <style>
      .cls-1 {
        fill: none;
      }

      .cls-1, .cls-2, .cls-3, .cls-4, .cls-5, .cls-6, .cls-7 {
        stroke-width: 0px;
      }

      .cls-3 {
        fill: #756746;
      }

      .cls-4 {
        fill: #5c5c5c;
      }

      .cls-5 {
        fill: #2c2c7c;
      }

      .cls-6 {
        fill: #d0d8d7;
      }

      .cls-7 {
        fill: #fff;
      }
    </style>
  </defs>
  <g id="Layer_2-2" data-name="Layer 2">
    <g id="Layer_2-2" data-name="Layer 2-2">
      <polygon class="cls-1" points="583.25 543 583.25 543.01 583.25 543 536.85 535.28 583.25 543"/>
      <path class="cls-5" d="m441.04,118.02l1.1.29-.16-.37c-.31.02-.62.04-.94.07h0Z"/>
      <path class="cls-1" d="m220.85,172.68l105.4-72.24s.02,0,.03-.02c.31-.22.61-.4.88-.57,6.48-4.27,13.68-7.16,21.16-8.57,7.83-1.47,15.96-1.33,23.89.51l3.25.76c-1.74-1.79-3.49-3.59-5.21-5.39l-171.74,32.3c-1.72,12.82-3.27,25.67-4.62,38.53,8.89,4.98,17.9,9.86,26.96,14.68h0s0,.01,0,.01Z"/>
      <path class="cls-1" d="m289.54,267.44l59.54-11.2-.68,6.76c2.38-2.67,4.77-5.33,7.17-7.99l-66.02,12.42h0Z"/>
      <path class="cls-1" d="m278.98,285.31c.16.68.32,1.35.48,2.02l.7-1.54c-.4-.17-.79-.32-1.19-.49h0Z"/>
      <path class="cls-1" d="m259.58,273.06c.01,1.37.02,2.75.03,4.12,3.46,1.48,6.94,2.92,10.42,4.37.48-3.58.95-7.15,1.43-10.73l-11.88,2.24h0Z"/>
      <polygon class="cls-1" points="286.47 268.01 275.36 270.1 275.36 270.11 286.47 268.02 286.47 268.01"/>
      <path class="cls-1" d="m280.33,285.42l-2.75-5.95c.47,1.95.92,3.89,1.39,5.84.4.17.79.32,1.19.49l.17-.37h0Z"/>
      <path class="cls-6" d="m298.97,333.65l8.28,8.29,13.8.23,15.12,12.36,2.25,1.48c-.3-2.88-.59-5.77-.86-8.66-12.96-4.44-25.83-9.01-38.57-13.71h-.02s0,0,0,0Z"/>
      <path class="cls-6" d="m295.53,305.88l-.14-.74,1.77-.33c-.07-1.55-.14-3.11-.21-4.66l-4.47.84.32,20.94,1.33,6.89,4.67,4.68c-.65-9.31-1.18-18.62-1.62-27.93l-1.66.31h0s0,0,0,0Z"/>
      <path class="cls-6" d="m351.2,384.4l-6.1-4.03c.92,8.52,1.91,17.05,3.01,25.56,2.25.71,4.52,1.39,6.79,2.09l-2.34-5.41-1.36-18.21h0Z"/>
      <path class="cls-6" d="m285.74,273.63l.73-5.62-11.12,2.09,2.23,9.37,2.75,5.95,5.41-11.79h0Z"/>
      <path class="cls-6" d="m284.52,293.9l2.17,1.39-.62-3.26,6.46-1.22c-2.55-1.02-5.1-2.06-7.63-3.1l-.24.76-.14,5.41h0Z"/>
      <path class="cls-6" d="m380.09,254.54l.08-.4c-.09.08-.17.16-.26.24.06.05.12.11.18.16h0Z"/>
      <path class="cls-6" d="m286.7,295.29l5.75,3.68.03,2.02,4.47-.84c-.11-2.56-.22-5.11-.31-7.67-1.37-.55-2.73-1.11-4.1-1.67l-6.46,1.22.62,3.26h0s0,.01,0,.01Z"/>
      <path class="cls-5" d="m295.53,305.88l1.66-.31c-.01-.25-.03-.5-.04-.76l-1.77.33.14.74h0Z"/>
      <path class="cls-5" d="m297.19,305.57l49.35-9.28-.14-.74-49.25,9.26c.01.25.03.5.04.76h0Z"/>
      <path class="cls-6" d="m272.91,259.87c.81,3.41,1.62,6.82,2.44,10.23l11.12-2.09,1.26-9.73-4.12-3.05-.27-5.66-5.42-7.01,2.28-2.09-20.53,3.86c-.14,9.57-.17,19.15-.09,28.75l11.88-2.24c.48-3.66.98-7.31,1.46-10.97h0Z"/>
      <path class="cls-4" d="m326.25,100.44s.02,0,.03-.02c0,0-.02,0-.03.02l-105.4,72.24h0s105.4-72.24,105.4-72.24Z"/>
      <polygon class="cls-4" points="259.67 244.33 259.67 244.33 280.2 240.46 280.2 240.46 259.67 244.33"/>
      <polygon class="cls-4" points="286.45 239.29 374.33 222.76 374.33 222.76 286.45 239.29 286.45 239.29"/>
      <path class="cls-2" d="m94.3,258.86h0c-1.17,1.04-2.06,2.18-2.7,3.4.63-1.2,1.53-2.35,2.7-3.4Z"/>
      <polygon class="cls-2" points="280.2 240.46 280.2 240.46 259.67 244.33 259.67 244.33 280.2 240.46"/>
      <polygon class="cls-2" points="286.45 239.29 374.33 222.76 374.33 222.75 286.45 239.29 286.45 239.29"/>
      <g>
        <path class="cls-6" d="m298.8,333.49l.15.16c12.75,4.69,25.61,9.26,38.57,13.71.28,2.89.57,5.77.86,8.66l10.23,6.75,4.69,9.76-3.46,8.59,1.44,9.37c4.58,1.41,9.15,2.82,13.75,4.19l-18.5-98.36-49.35,9.28c.44,9.31.97,18.62,1.62,27.93h0Z"/>
        <path class="cls-6" d="m296.95,300.15c.07,1.55.13,3.11.21,4.66l49.25-9.26-.85-4.55h0l-48.59,9.15h0Z"/>
        <path class="cls-6" d="m289.54,267.44l-.43,6.74-4.21,13.54c2.54,1.04,5.09,2.07,7.63,3.1l51.16-9.62,1.84,9.8,2.81-27.59c-.06-.04-.13-.1-.19-.14.08-.09.15-.17.24-.26l.68-6.76-59.54,11.2h0Z"/>
        <path class="cls-6" d="m296.95,300.15l48.59-9.14h0l-1.84-9.81-51.16,9.62c1.36.55,2.73,1.12,4.1,1.67.09,2.55.2,5.11.31,7.67h0Z"/>
        <path class="cls-6" d="m283.73,243.13l6.43,14.66-.61,9.64,66.02-12.42c8.31-9.18,16.74-18.23,25.27-27.14-2.18-1.69-4.34-3.4-6.52-5.1l-87.89,16.53-2.72,3.84h.02s0-.01,0-.01Z"/>
        <path class="cls-4" d="m259.84,235.34c-.06,2.99-.11,5.98-.16,8.98l20.53-3.86,15.4-14.12-9.15,12.95,87.88-16.53c-8.04-6.34-15.99-12.79-23.83-19.37l-113.28,21.31c7.49,3.59,15.02,7.16,22.62,10.65h0Z"/>
        <path class="cls-4" d="m326.25,100.44l-105.4,72.24c2.14,1.14,4.27,2.3,6.43,3.44-.68,8.54-1.27,17.09-1.78,25.64l106.25-72.82h-.14c-15.47-3.61,6.93-36.06-4.45-29.08-.28.17-.56.35-.88.57,0,0-.02,0-.03.02h0s0-.01,0-.01Z"/>
        <path class="cls-6" d="m333.84,143.1c-2.47,3.07-4.3,6.62-5.36,10.42-2.14,7.66-.59,15.88,4.18,22.23,2.37,3.16,5.36,5.79,8.78,7.76,3.6,2.08,7.56,3.49,11.67,4.16,1.43.23,2.85.38,4.28.44,7.76-7.66,15.61-15.22,23.54-22.66-11.04-9.71-21.86-19.65-32.45-29.84,1.84-1.66,3.68-3.31,5.53-4.97h0c-3.8.88-7.43,2.34-10.79,4.33-3.58,2.11-6.76,4.87-9.36,8.12h0Z"/>
        <path class="cls-6" d="m224.58,218.6c4.19,2.05,8.41,4.07,12.63,6.09l113.28-21.31c-1.53-1.28-3.06-2.55-4.58-3.84,3.56-3.59,7.14-7.15,10.73-10.7-1.22-.08-2.45-.22-3.66-.42-4.2-.69-8.24-2.13-11.92-4.25-3.52-2.01-6.57-4.73-9.01-7.96-4.91-6.54-6.5-15-4.31-22.89,1.09-3.9,2.96-7.54,5.5-10.69,2.65-3.32,5.89-6.13,9.56-8.29,2.82-1.66,5.83-2.95,8.93-3.86l-20-1.55-106.25,72.82c-.34,5.61-.64,11.22-.91,16.83v.02s.01,0,.01,0h0Z"/>
      </g>
      <path class="cls-5" d="m332.49,143.95c-2.3,3.33-3.9,7.1-4.71,11.06-1.62,8.02.58,16.34,5.95,22.51,2.66,3.05,5.91,5.53,9.57,7.29,3.83,1.85,7.96,3,12.2,3.38,1.22.11,2.46.16,3.68.16.23-.26.45-.52.68-.77-1.42.03-2.86,0-4.3-.13-4.14-.36-8.2-1.48-11.94-3.3-3.55-1.72-6.73-4.13-9.32-7.11-5.22-5.99-7.35-14.08-5.78-21.87.78-3.87,2.35-7.54,4.6-10.79,2.35-3.44,5.32-6.41,8.74-8.78,3.2-2.23,6.73-3.95,10.45-5.1h-2.25c-3.03,1.13-5.93,2.63-8.63,4.49-3.5,2.42-6.53,5.46-8.94,8.96h0s0,0,0,0Z"/>
      <g>
        <path class="cls-1" d="m361.02,319.17h0v.75h0l1.47,100.08c5.38,2.69,10.79,5.36,16.22,8-.22,13.28-.22,26.59,0,39.9-.22-13.31-.22-26.62,0-39.9-5.43-2.64-10.82-5.32-16.22-8l1.16,78.4h.05s8.85,33.01,8.85,33.01l16.74-.25c6.88-8.43,13.87-16.77,20.98-24.98-13.27-9.1-26.38-18.47-39.31-28.11,10.24-11.43,20.72-22.64,31.38-33.62-12.54-9.66-24.89-19.58-37.05-29.75,11.06-11.01,22.32-21.78,33.77-32.32-11.76-10.18-23.33-20.59-34.67-31.26,11.84-10.54,23.86-20.83,36.06-30.87-10.9-10.59-21.57-21.42-32.02-32.45l-7.48,26.71.07,4.63h0Z"/>
        <rect class="cls-5" x="305.15" y="503.49" width="51.9" height=".75" transform="translate(-7.36 4.92) rotate(-.84)"/>
        <g>
          <path class="cls-6" d="m362.5,420.01c-4.3-2.14-8.56-4.31-12.83-6.47l-.14,7.74-2.14-8.9c-2.11-1.07-4.23-2.13-6.32-3.21.37-8.58.84-17.15,1.38-25.71l-18.78-17.67-11.93-4.17-8.92-13.3,2.22,150.97h.05s58.57-.87,58.57-.87l-1.16-78.4h0s0,0,0,0Z"/>
          <path class="cls-6" d="m363.7,498.41h-.05s-58.57.87-58.57.87l-9.3,33.28,76.78-1.13-8.85-33.01h0s0,0,0,0Zm-58.55,6.23v-.75s51.89-.76,51.89-.76v.75s-51.89.76-51.89.76h0Z"/>
          <path class="cls-5" d="m372.65,531.8l16.32-.24c.1-.13.21-.25.31-.38l-16.74.25.1.37Z"/>
        </g>
        <polygon class="cls-5" points="372.65 531.8 372.55 531.42 295.77 532.56 295.67 532.93 372.65 531.8"/>
      </g>
      <path class="cls-6" d="m507.14,379.16c4.63-3.45,9.28-6.88,13.95-10.27-9.6-3.14-20.08-2.11-28.89,2.82l-8.27,4.63,19.78,3.34c1.14-.22,2.28-.4,3.43-.52h0Z"/>
      <path class="cls-6" d="m456.31,380.87l-3.04,4.13,8.1,4.46c.44-.16.89-.26,1.34-.32,1.65-3.17,3.31-6.31,4.99-9.41-4.02-3.67-8.15-3.26-11.39,1.14h0Z"/>
      <path class="cls-6" d="m436.98,375.78c2.5-5.3,5.01-10.55,7.53-15.74-6.23-6.22-12.57-5.59-17.49,1.76l-4.61,6.9,12.51,7.6c.68-.26,1.36-.43,2.06-.52h0Z"/>
      <path class="cls-6" d="m486.12,417.96c-6.61-1.95-13.71-1.12-19.71,2.35l-5.93,3.42,14.21,2.53c.07-.01.15-.03.22-.04-.11-.14-.23-.28-.35-.41,3.84-2.64,7.69-5.25,11.55-7.85h.01Z"/>
      <path class="cls-6" d="m477.02,330.9l-3.04,4.13,8.1,4.46c.44-.16.89-.26,1.34-.32,1.65-3.17,3.31-6.31,4.99-9.41-4.02-3.67-8.15-3.26-11.39,1.14h0Z"/>
      <path class="cls-6" d="m415.31,440.82l-3.04,4.13,8.1,4.46c.44-.16.89-.26,1.34-.32,1.65-3.17,3.31-6.31,4.99-9.41-4.02-3.67-8.15-3.26-11.39,1.14h0Z"/>
      <path class="cls-6" d="m456.31,475.92l-3.04,4.13,8.1,4.46c.44-.16.89-.26,1.34-.32,1.65-3.17,3.31-6.31,4.99-9.41-4.02-3.67-8.15-3.26-11.39,1.14h0Z"/>
      <path class="cls-4" d="m561.77,142.58l-2.89-1.67c-2.99-1.73-6.11-3.15-9.31-4.31l-43.5,18.97c-1,3.63-.51,6.93,3.16,9.05l.13.05,9.04-2.85c9.64-3.04,20.1-1.9,28.86,3.12,7.08-3.19,14.18-6.32,21.3-9.38-2.3-4.31-4.55-8.64-6.79-12.98h0Z"/>
      <path class="cls-4" d="m781.34,295.21l-19.96-2.19h0l19.96,2.19c7.4.81,12.33-4.73,12.85-10.67-.51,5.95-5.44,11.49-12.85,10.67Z"/>
      <polygon class="cls-4" points="790.78 307.18 553.35 272.1 553.35 272.1 790.78 307.18 790.78 307.18"/>
      <path class="cls-2" d="m794.19,284.54c.35-4.07-1.37-8.33-5.78-10.88h0c4.41,2.55,6.13,6.81,5.78,10.88Z"/>
      <polygon class="cls-2" points="790.78 307.18 553.35 272.1 553.35 272.1 790.78 307.18 790.78 307.18"/>
      <path class="cls-6" d="m544.62,176.64c-4.01-1.98-8.34-3.24-12.78-3.71-.56-.06-1.12-.11-1.68-.15h0l21.36,8.34c-2.1-1.76-4.41-3.27-6.89-4.48h-.01Z"/>
      <path class="cls-6" d="m570.68,235.85c4.08-.83,7.97-2.39,11.5-4.61,3.34-2.1,6.23-4.85,8.48-8.1,4.52-6.55,5.74-14.82,3.31-22.38-1.21-3.76-3.17-7.23-5.77-10.2-.92-1.07-1.91-2.06-2.96-3.01l-21.03-9.13c-2.28.97-4.56,1.92-6.84,2.9,6.69,13.09,13.66,26.03,20.93,38.8-9.92,4.44-19.81,9.03-29.64,13.73,6.97,2.79,14.63,3.52,22.04,2.02h0l-.02-.02h0Z"/>
      <path class="cls-4" d="m790.78,307.18l19.86,2.93c7.36,1.09,12.5-4.27,13.24-10.18.5-4.05-1.06-8.38-5.37-11.09h0l-161.24-70.02,64.29,40.45c6.61,4.16,2.82,14.41-4.9,13.26l-179.51-26.52c5.28,8.77,10.68,17.47,16.2,26.09l237.44,35.08h-.01,0Z"/>
      <polygon class="cls-6" points="600.58 327.44 599.49 337.37 613 305.13 536.47 296.73 541.21 330.97 542.3 321.04 600.58 327.44"/>
      <rect class="cls-6" x="565.93" y="299.92" width="9.99" height="58.63" transform="translate(181.3 860.78) rotate(-83.73)"/>
      <path class="cls-6" d="m580.42,508.56h-.05l-57.78-9.63-15.1,31.08,75.75,12.61-2.8-34.06h-.02Zm-7.51,4.19l-51.2-8.53.12-.74,51.2,8.53-.12.74Z"/>
      <path class="cls-6" d="m630.63,550.52l75.75,12.61-2.8-34.06h-.05l-57.78-9.63-15.1,31.08h-.02Zm65.42-17.26l-51.2-8.53.12-.74,51.2,8.53-.12.74Z"/>
      <path class="cls-6" d="m546.64,299.64l169.01,24.97,1.54-6.02c7.93-3.23,15.86-6.45,23.79-9.68-5.97,5.6-11.95,11.19-17.93,16.79l63.6,9.4,4.12-27.93-237.44-35.08c1.49,2.32,2.98,4.64,4.48,6.95-7.46,3.82-14.88,7.73-22.27,11.71.03.21.06.43.11.64l10.97,8.23h.02v.02h0Z"/>
      <path class="cls-6" d="m502.8,353.35c-2.35,1.39-4.7,2.78-7.04,4.19l12.36,1.36-5.32-5.54h0Z"/>
      <path class="cls-6" d="m724.18,595.09h0l4.63-27.85h0l-.06.37-252.92-42.1c-2.94,2.52-5.87,5.05-8.79,7.6,8.06,7.74,16.23,15.36,24.49,22.87l232.72,38.74-.06.37h-.01Z"/>
      <path class="cls-4" d="m724.18,595.09l-.06.37-231.58-38.55c3.52,3.19,7.05,6.37,10.59,9.53-6.53,5.93-12.98,11.95-19.37,18.04l302.33,50.33,4.77-28.62-66.67-11.1h-.01Z"/>
      <path class="cls-4" d="m657.27,218.82l161.24,70.01-221.58-139.44c2.07,4.42,4.16,8.83,6.3,13.22-7.23,2.79-14.44,5.66-21.64,8.58.04.02.07.04.11.06l75.57,47.55h0v.02h0Z"/>
      <path class="cls-6" d="m587.2,188.39l70.06,30.42-75.57-47.55s-.07-.04-.11-.06c-5.34,2.17-10.68,4.38-16.01,6.62,4.62.63,9.13,2.08,13.3,4.32,3.08,1.66,5.88,3.77,8.32,6.25h.01Z"/>
      <path class="cls-6" d="m721.55,259.26l-64.29-40.45-70.06-30.42c.53.54,1.05,1.09,1.55,1.67,2.66,3.05,4.68,6.62,5.91,10.47,2.5,7.79,1.24,16.3-3.4,23.03-2.31,3.33-5.26,6.16-8.69,8.31-3.6,2.28-7.58,3.87-11.74,4.72-4.47.91-9.06,1.04-13.56.35-3.29-.47-6.5-1.38-9.56-2.68-4.55,2.18-9.1,4.37-13.64,6.61,1.02,1.71,2.05,3.42,3.08,5.13l179.51,26.52c7.72,1.14,11.52-9.1,4.9-13.26h-.01,0Z"/>
      <path class="cls-5" d="m544.62,176.64c2.47,1.21,4.78,2.72,6.89,4.48l2,.78c-2.54-2.39-5.42-4.4-8.55-5.94-4.25-2.08-8.81-3.36-13.45-3.82-.45.21-.9.42-1.35.63.56.04,1.12.09,1.68.15,4.45.47,8.77,1.73,12.78,3.71h0Z"/>
      <path class="cls-5" d="m570.83,236.59c4.17-.84,8.15-2.45,11.74-4.72,3.43-2.15,6.39-4.98,8.69-8.31,4.65-6.73,5.9-15.24,3.4-23.03-1.25-3.85-3.26-7.42-5.91-10.47-.5-.58-1.02-1.13-1.55-1.67l-1.97-.85c1.05.94,2.04,1.94,2.96,3.01,2.59,2.98,4.55,6.44,5.77,10.2,2.43,7.57,1.21,15.84-3.31,22.38-2.25,3.25-5.13,6-8.48,8.1-3.52,2.23-7.42,3.79-11.5,4.61-7.42,1.5-15.08.78-22.04-2.02-.31.15-.62.3-.93.45,3.05,1.29,6.26,2.2,9.56,2.68,4.51.68,9.11.56,13.56-.35h0Z"/>
      <polygon class="cls-5" points="583.22 542.62 583.25 543 630.46 550.87 630.63 550.52 583.22 542.62"/>
      <polygon class="cls-5" points="728.82 567.23 728.88 566.87 706.37 563.12 706.4 563.5 728.82 567.23"/>
      <polygon class="cls-5" points="583.25 543 583.22 542.62 507.47 530.02 507.3 530.37 536.85 535.28 583.25 543"/>
      <polygon class="cls-5" points="630.46 550.87 706.4 563.5 706.37 563.12 630.63 550.52 630.46 550.87"/>
      <path class="cls-5" d="m728.82,567.23l-22.42-3.73h0l-75.96-12.64h0l-47.2-7.86h0l-106.74-17.77h0l18.79,3.12-19.1-3.18c-.13.1-.25.22-.38.32l252.92,42.1.06-.37h.03Z"/>
      <polygon class="cls-5" points="536.85 535.28 507.3 530.37 507.3 530.37 583.25 543.01 583.25 543 536.85 535.28"/>
      <polygon class="cls-5" points="536.85 535.28 507.3 530.37 507.3 530.37 536.85 535.28"/>
      <polygon class="cls-5" points="476.52 525.25 583.25 543.01 507.3 530.37 507.3 530.37 495.31 528.37 476.52 525.24 476.52 525.25"/>
      <path class="cls-5" d="m724.25,594.71l-232.72-38.74c.17.15.34.31.5.47l232.14,38.64.06-.37h.02Z"/>
      <path class="cls-5" d="m724.18,595.09l-232.14-38.64c.17.15.33.31.5.47l231.58,38.55.06-.37h0Z"/>
      <polygon class="cls-7" points="275.42 300.3 279.42 308.63 276.45 324.92 270.8 336.34 274.39 347.58 281.31 349.74 273.72 359.02 265.18 369.03 270.38 383.25 269.84 371.49 286.97 349.47 278.29 336.64 284.15 308.07 284.37 299.67 277.64 293.17 275.42 300.3"/>
      <path class="cls-7" d="m280.58,285.96l-.25-.54-.17.37c.14.06.28.12.42.17h0Z"/>
      <path class="cls-7" d="m280.17,285.79l-.7,1.54.94,3.92,3.75,2.4-3.56-7.69c-.14-.06-.28-.12-.42-.17h0s0,0,0,0Z"/>
      <polygon class="cls-7" points="286.47 268.02 289.54 267.44 289.54 267.43 286.47 268.01 286.47 268.02"/>
      <path class="cls-7" d="m285.74,273.63l-5.41,11.79.25.54c1.44.59,2.88,1.17,4.32,1.76l4.21-13.54.43-6.74-3.08.58-.73,5.62h.02s0-.01,0-.01Z"/>
      <path class="cls-7" d="m284.14,293.65l.38.25.14-5.41.24-.76c-1.44-.58-2.89-1.17-4.32-1.76l3.56,7.69h0s0,0,0,0Z"/>
      <polygon class="cls-7" points="277.92 242.56 283.34 249.57 283.61 255.23 287.73 258.28 286.47 268.01 289.54 267.43 290.16 257.79 283.73 243.13 286.45 239.29 280.2 240.46 277.92 242.56"/>
      <polygon class="cls-7" points="280.21 240.46 286.46 239.29 286.46 239.29 280.21 240.46"/>
      <polygon class="cls-7" points="295.6 226.34 280.2 240.46 286.45 239.29 295.6 226.34"/>
      <path class="cls-7" d="m499.55,255.12c-1.45,8.44-2.89,16.88-4.34,25.31l7.29,7.59c1.07-.63,2.15-1.26,3.22-1.89-2.06-10.34-4.12-20.67-6.17-31.01h0Z"/>
      <path class="cls-7" d="m517.13,294.59l-11.27-7.82c-.04-.21-.08-.43-.13-.64-1.07.63-2.15,1.26-3.22,1.89l5.32,5.54,9.3,1.02h0Z"/>
      <polygon class="cls-7" points="686.95 313.25 694.38 314.06 694.38 314.06 686.95 313.24 686.95 313.25"/>
      <path class="cls-7" d="m683.02,331.5l-6.88,4.24,8.28.91,4.35-2.8.18-14.31c1.81-1.82,3.62-3.65,5.42-5.47l-7.43-.82-3.93,18.25h.01Z"/>
      <path class="cls-7" d="m688.26,307.17l-1.31,6.07,7.43.82c5.76-5.82,11.52-11.63,17.29-17.45-7.8,3.52-15.61,7.04-23.41,10.56Z"/>
      <rect class="cls-5" x="155.27" y="328.45" width="51.9" height=".37" transform="translate(-91.66 70.99) rotate(-17.77)"/>
      <rect class="cls-5" x="155.16" y="328.11" width="51.9" height=".38" transform="translate(-91.56 70.94) rotate(-17.77)"/>
      <path class="cls-4" d="m94.78,291.31c-10.45,3.35-18.39-7.89-13.93-16.32-4.47,8.44,3.48,19.67,13.93,16.32l9.85-3.16h0l-9.85,3.16Z"/>
      <polygon class="cls-4" points="186.35 180.47 186.35 180.47 83.55 271.59 83.55 271.59 83.55 271.59 186.35 180.47"/>
      <polygon class="cls-4" points="233.78 246.74 104.62 288.15 104.62 288.15 233.78 246.74 233.78 246.74"/>
      <polygon class="cls-2" points="104.62 288.15 233.78 246.74 233.78 246.74 104.62 288.15 104.62 288.15"/>
      <polygon class="cls-7" points="163.31 381.16 147.33 369.83 137.91 358.17 124.88 348.18 109.11 345.36 101.77 326.15 105.41 349.87 114.25 349.27 119.1 352.2 123.93 350.48 135.58 360.66 143.49 373.54 152 384.09 161.13 385.4 166.92 391 163.99 381.84 163.31 381.16"/>
      <path class="cls-7" d="m277.59,279.48l-4.17-9,1.93-.37h0l-3.9.73c-.48,3.58-.95,7.15-1.43,10.73,2.98,1.25,5.96,2.5,8.95,3.74-.47-1.95-.92-3.89-1.39-5.84h0Z"/>
      <path class="cls-7" d="m279.45,287.34c-.16-.68-.32-1.35-.48-2.02-2.99-1.24-5.97-2.49-8.95-3.74-.17,1.25-.34,2.51-.5,3.76l8.12,7.84,1.81-5.8.02-.03h0Z"/>
      <polygon class="cls-7" points="287.92 301.85 284.5 294.44 284.37 299.67 287.42 302.62 287.32 327.16 294 334.17 287.93 301.85 287.92 301.85"/>
      <path class="cls-7" d="m353.31,372.51l-4.69-9.76-10.23-6.75c.2,2.01.42,4.03.64,6.04l6.1,4.03,1.36,18.21,2.34,5.41c.82.26,1.63.51,2.46.75l-1.44-9.37,3.46-8.59v.02Z"/>
      <path class="cls-7" d="m317.53,347.84l21.51,14.21c-.21-2.01-.43-4.03-.64-6.04l-2.25-1.48-15.12-12.36-13.8-.23-8.28-8.29s-.1-.04-.16-.06v-.1s-4.68-4.68-4.68-4.68l-1.33-6.89-.32-20.94-4.55.85,6.08,32.32,11.06,11.58,12.47,2.08h.01Z"/>
      <path class="cls-7" d="m298.81,333.6s.1.04.16.06l-.15-.16v.1h0,0Z"/>
      <path class="cls-7" d="m372.06,389.07l-.48-7.73c-.79-.32-1.59-.65-2.38-.97l2.86,8.7h0Z"/>
      <path class="cls-7" d="m273.42,270.47l4.17,9-2.23-9.37-1.93.37h0Z"/>
      <polygon class="cls-7" points="284.52 293.9 284.5 294.44 287.92 301.85 287.93 301.85 286.7 295.29 284.52 293.9"/>
      <polygon class="cls-7" points="286.7 295.29 287.93 301.85 292.48 300.99 292.45 298.97 286.7 295.29"/>
      <path class="cls-7" d="m271.46,270.83l3.9-.73c-.81-3.41-1.62-6.82-2.44-10.23-.48,3.66-.98,7.31-1.46,10.97Z"/>
      <path class="cls-7" d="m284.14,293.65l-3.75-2.4-.94-3.92-.02.03-1.81,5.8,6.73,6.5.14-5.22-.36-.79h0Z"/>
      <polygon class="cls-7" points="284.14 293.65 284.5 294.44 284.52 293.9 284.14 293.65"/>
      <path class="cls-7" d="m560.3,93.58c-.61-2.2-1.31-4.27-2.08-6.18l3.26,11.7c-.27-1.86-.65-3.7-1.18-5.52h0Z"/>
      <g id="Group_133" data-name="Group 133">
        <path id="Path_1" data-name="Path 1" class="cls-3" d="m425.48,2.75c7.49-3.29,15.95-3.64,23.68-.98l138.77,47.91c8.26,2.84,14.96,9,18.48,16.99l45.33,103.95c6.95,15.93-.66,34.68-16.96,41.79l-198.1,86.38c-16.3,7.11-35.21-.07-42.16-16.01l-45.33-103.95c-3.46-8.02-3.42-17.12.13-25.1l59.32-134.29c3.31-7.48,9.32-13.44,16.83-16.68h.01Z"/>
        <path id="Path_13" data-name="Path 13" class="cls-7" d="m589.54,151.37l13.2,30.27,14.88-6.49,1.91,4.38-53.41,23.29-1.91-4.38,14.88-6.49-13.2-30.27-58.97,25.71-8.27-18.96,21.81-100.65,27.42-11.96,39.04,89.52,19.18-8.36,2.62,6.02-19.17,8.36h-.01Zm-51.4-56.36l-13.86,62.25,34.45-15.02-20.59-47.23Z"/>
        <path id="Path_14" data-name="Path 14" class="cls-7" d="m507.41,199.73c-.59,6.59-2.47,13.01-5.54,18.88-3.14,6.01-7.28,11.45-12.24,16.08-4.86,4.64-10.48,8.39-16.63,11.1-2.9,1.24-5.88,2.26-8.93,3.07-3.33.91-6.72,1.53-10.16,1.86-3.35.33-6.72.32-10.06-.05-3.08-.3-6.07-1.18-8.83-2.57l4.02,9.22-5.49,2.39-18.14-41.59,8.63-3.76c1.34,3.1,3.54,5.75,6.36,7.62,2.84,1.93,6.05,3.28,9.42,3.95,3.46.69,7,.88,10.51.55,3.34-.26,6.62-1.06,9.7-2.36,2.87-1.3,5.55-2.98,7.97-5,2.66-2.15,5.03-4.63,7.04-7.39,1.96-2.65,3.34-5.68,4.06-8.89.71-3.19.36-6.52-.99-9.49-2.17-4.97-5.47-8.08-9.9-9.34-5-1.31-10.19-1.81-15.35-1.48-5.79.27-11.95.78-18.47,1.52-6.38.75-12.83.7-19.2-.15-6.31-.85-12.33-3.13-17.61-6.68-5.46-3.61-10.02-9.6-13.67-17.97-2.54-5.72-3.44-12.04-2.59-18.25.83-6.26,2.82-12.31,5.87-17.85,3.09-5.65,7.1-10.75,11.86-15.09,4.55-4.26,9.78-7.72,15.48-10.25,2.67-1.14,5.41-2.1,8.2-2.88,3.12-.89,6.31-1.54,9.54-1.94,3.15-.4,6.33-.46,9.49-.17,2.88.23,5.69,1.03,8.26,2.35l-3.42-7.85,4.7-2.05,16.42,37.66-8.23,3.59c-1.15-2.69-3.16-4.94-5.7-6.39-2.67-1.53-5.58-2.59-8.6-3.14-3.12-.58-6.31-.68-9.47-.31-2.86.29-5.65,1-8.3,2.1-2.66,1.21-5.17,2.74-7.47,4.54-2.57,1.94-4.82,4.26-6.68,6.88-1.78,2.49-3.09,5.28-3.88,8.23-.76,2.89-.5,5.95.74,8.66,2.17,4.97,5.5,8.07,10,9.3,4.98,1.27,10.14,1.7,15.26,1.29,5.67-.37,11.77-1.01,18.3-1.91,6.32-.9,12.74-.95,19.07-.15,6.25.83,12.24,3.04,17.53,6.48,5.5,3.52,10.08,9.46,13.72,17.83,2.79,6.19,3.96,13,3.38,19.77l.02.03h0Z"/>
      </g>
      <rect class="cls-5" x="294.98" y="300.28" width="51.9" height=".75" transform="translate(-49.38 63.46) rotate(-10.49)"/>
      <rect class="cls-5" x="155.21" y="327.92" width="51.9" height=".75" transform="translate(-90.88 70.25) rotate(-17.62)"/>
      <rect class="cls-5" x="191.09" y="513.82" width="51.9" height=".75" transform="translate(-96.56 52.5) rotate(-11.3)"/>
      <rect class="cls-5" x="305.16" y="503.55" width="51.9" height=".75" transform="translate(-7.63 5.09) rotate(-.87)"/>
      <g>
        <path class="cls-6" d="m605.75,412.27c-11.24-4.84-22.11-9.35-32.62-13.57l-29.98,103.49h0l.05.02,56.27,16.3,36.73-126.77c-9.63,6.83-19.77,13.66-30.44,20.53h0Z"/>
        <polygon class="cls-1" points="589.67 314.55 589.7 314.56 589.86 313.84 640.49 325.17 640.49 325.15 589.85 313.82 589.67 314.55"/>
        <polygon class="cls-1" points="763.33 347.89 762.32 352.41 711.67 341.07 711.51 341.81 711.52 341.81 711.68 341.1 762.31 352.42 762.32 352.41 763.33 347.89 780.31 317.35 780.31 317.35 763.33 347.89"/>
        <polygon class="cls-1" points="658.49 290.09 583.35 273.29 584.28 307.85 641.5 320.65 658.49 290.09"/>
        <polygon class="cls-1" points="762.15 353.16 758.56 369.22 758.56 369.22 762.15 353.16 762.15 353.16"/>
        <polygon class="cls-1" points="581.32 321.1 567.66 382.13 567.67 382.13 581.32 321.1 581.32 321.1"/>
        <polygon class="cls-1" points="544.98 498.42 574.96 394.93 574.96 394.93 544.98 498.42"/>
        <path class="cls-1" d="m561.77,292.17l.31,7.01,11.02,14.91,9.43,1.57,1.74-7.82-.93-34.55,75.13,16.8-16.99,30.55-1,4.51v.02h.01l-.16.73h-.01l-10.15,45.38c2.98-2.4,5.9-4.8,8.77-7.19,13.44,5.62,27.47,11.7,42.05,18.27,5.43-4.77,10.62-9.54,15.58-14.3l-2.73-9.51,9.13-24.02,3.09-1.47-.88-32.53,25.91,5.8h0l-166.72-37.31.44.39-3.03,22.75h-.01Z"/>
        <path class="cls-1" d="m693.63,433.96h-7.29l-14.8,8.79,10.59-10.7,14.07-6.94,6.94-23.98,1.95-9.59-.59-2.68c-5.24,4.45-10.72,8.88-16.43,13.31-14.15-7.46-27.77-14.39-40.84-20.84-3.01,2.21-6.08,4.42-9.2,6.63l-36.73,126.77.05.02-1.19,34.15,46.16,13.38,18.63-29.1-.05-.02,28.74-99.2h-.01Z"/>
        <path class="cls-1" d="m567.66,382.13l13.65-61.03-10.93-3.55-14.81-21,3.71-24.27-4.06-5.29-12.13-2.72c-3.25,1.49-6.5,2.99-9.74,4.5l-.2.36c7.59,13.17,15.46,26.18,23.59,39.02-10.02,4.89-19.99,9.94-29.9,15.12.33.14.66.28.99.43-3.6,2.13-7.19,4.27-10.77,6.45-.75,0-1.51.03-2.26.09,8.46,12.85,17.19,25.52,26.15,38.02-13.58,7.59-27.04,15.44-40.36,23.58,4.61,6.2,9.29,12.36,14.03,18.47,15.8-10.46,30.76-20.73,44.86-30.86,2.7.88,5.43,1.77,8.18,2.69h0Z"/>
        <path class="cls-1" d="m574.96,394.93c-2.69-1.08-5.36-2.15-8-3.19-14.7,9.23-30.27,18.56-46.68,28.03,4.56,6.7,9.18,13.36,13.87,19.97-13.42,7.39-26.7,15.04-39.84,22.97,9.55,12.99,19.35,25.79,29.38,38.38-9.2,5.78-18.32,11.7-27.37,17.75l30.08,8.72,18.63-29.1h-.05v-.03h0l29.98-103.49h0Z"/>
        <polygon class="cls-1" points="698.22 358.87 699.96 362.65 704.76 341.14 704.42 341.39 698.22 358.87"/>
        <path class="cls-6" d="m589.69,314.57h0l-.02-.02.17-.74,50.65,11.33,1-4.51-57.22-12.8-1.74,7.82,4.17.69,13.13,14.46,11.13,9.98,3.2,10.34-4.69,7.98.08,17.21-3.87-14.55,1.34-18.21-24.61-22.11-1.1-.35-13.65,61.03c10.75,3.56,21.88,7.39,33.4,11.52,10.22-7.52,19.93-14.97,29.11-22.38l10.15-45.38-50.63-11.33v.02h0Z"/>
        <polygon class="cls-5" points="640.49 325.17 589.86 313.84 589.7 314.56 640.33 325.88 640.49 325.17"/>
        <polygon class="cls-5" points="640.33 325.88 640.33 325.9 640.34 325.9 640.51 325.17 640.49 325.17 640.33 325.89 640.49 325.17 640.49 325.17 640.33 325.88"/>
        <polygon class="cls-5" points="589.7 314.56 589.69 314.57 640.33 325.9 640.33 325.88 589.7 314.56"/>
        <path class="cls-6" d="m719.09,368.33c-3.32,3.11-6.76,6.2-10.3,9.29l2.88,7.49-5.81,18.65-2.96,14.64-7.29,8.01h-1.97l-28.74,99.2.05.02,56.27,16.3,45.09-155.62c-2.06,2.27-4.19,4.53-6.37,6.78-14.11-8.79-27.73-17.02-40.83-24.74l-.02-.02h0Z"/>
        <path class="cls-6" d="m711.52,341.83v-.02h-.01l.16-.74,50.65,11.33,1.02-4.52-51.54-11.53-1.74.86-5.3,3.92-4.81,21.51.67,1.47c3.35-3.3,6.59-6.6,9.71-9.91,13.55,6.89,27.65,14.27,42.28,22.17,2.04-2.38,4.02-4.77,5.94-7.16l3.59-16.06-50.63-11.33h0Z"/>
        <polygon class="cls-6" points="706.06 333.06 706.63 332.81 708.3 325.35 717.86 327.49 725.16 324.04 731.09 306.33 705.18 300.54 706.06 333.06"/>
        <path class="cls-6" d="m763.33,347.89l16.98-30.54-41.93-9.38,41.93,9.38h0l-41.93-9.38c-2,1.61-4,3.23-5.99,4.84l-1.76,14.2h0l-4.63,2.3,39.53,8.84-2.18,9.74h-.02,0Z"/>
        <polygon class="cls-6" points="780.31 317.35 780.31 317.35 738.38 307.97 780.31 317.35"/>
        <polygon class="cls-6" points="706.63 332.81 717.86 327.49 708.3 325.35 706.63 332.81"/>
        <polygon class="cls-6" points="763.33 347.89 765.51 338.15 725.99 329.31 711.79 336.36 763.33 347.89"/>
        <polygon class="cls-5" points="711.52 341.81 762.16 353.13 762.15 353.16 762.15 353.16 762.16 353.14 762.31 352.42 711.68 341.1 711.52 341.81"/>
        <polygon class="cls-5" points="762.15 353.16 762.17 353.16 762.33 352.43 762.31 352.42 762.16 353.14 762.15 353.16"/>
        <polygon class="cls-5" points="711.52 341.81 711.52 341.83 762.15 353.16 762.16 353.13 711.52 341.81"/>
        <polygon class="cls-7" points="581.32 321.1 581.32 321.1 582.54 315.66 573.1 314.09 562.08 299.18 561.77 292.17 564.81 269.42 564.37 269.03 555.24 266.99 559.3 272.28 555.58 296.55 570.38 317.55 581.32 321.09 581.32 321.1"/>
        <polygon class="cls-7" points="581.32 321.09 570.38 317.55 581.32 321.1 581.32 321.09"/>
        <polygon class="cls-7" points="607.02 343.57 605.68 361.78 609.55 376.33 609.47 359.11 614.16 351.13 610.96 340.8 599.84 330.82 586.71 316.36 582.54 315.66 581.32 321.1 582.42 321.45 607.02 343.57"/>
        <path class="cls-7" d="m688.03,374.47l.9,2.59-.81,9.75,2.53-15.18c-.87.95-1.74,1.89-2.62,2.84h0Z"/>
        <path class="cls-7" d="m706.06,333.06l-3.09,1.47-9.13,24.02,2.73,9.51c.93-.9,1.85-1.79,2.77-2.69l.61-2.72-1.73-3.78,6.2-17.47.34-.25,1.36-6.05-.06-2.03h0Z"/>
        <polygon class="cls-7" points="670.86 419.97 661.6 431.83 675.27 421.38 682.51 420.53 684.03 411.44 670.86 419.97"/>
        <polygon class="cls-7" points="704.76 341.14 710.06 337.22 711.79 336.36 706.12 335.09 704.76 341.14"/>
        <path class="cls-7" d="m747.76,401.38l-1.94,23.23-2.15,1.4-1.52,9.09,1.96-.23,6.31-8.8,1.23-14.88,3.59-19.2-3.73-7.11c-.4.44-.8.88-1.21,1.33l-2.53,15.18h0Z"/>
        <path class="cls-7" d="m691.86,370.3l-.75-1.43-.46,2.75c.4-.44.81-.88,1.21-1.33h0Z"/>
        <polygon class="cls-7" points="706.63 332.81 706.06 333.06 706.12 335.09 706.63 332.81"/>
        <polygon class="cls-7" points="706.12 335.09 711.79 336.36 725.99 329.31 717.86 327.49 706.63 332.81 706.12 335.09"/>
      </g>
      <path class="cls-6" d="m724.71,548.04l-3.04,4.13,8.1,4.46c.44-.16.89-.26,1.34-.32,1.65-3.17,3.31-6.31,4.99-9.41-4.02-3.67-8.15-3.26-11.39,1.14h0Z"/>
      <path class="cls-6" d="m449.8,532.69c2.03-5.3,4.06-10.55,6.1-15.74-5.05-6.22-10.19-5.59-14.18,1.76l-3.74,6.9,10.14,7.6c.55-.26,1.1-.43,1.67-.52h0Z"/>
      <path class="cls-6" d="m459.96,344.23c-2.35,1.39-4.7,2.78-7.04,4.19l12.36,1.36-5.32-5.54h0Z"/>
      <path class="cls-6" d="m447.67,440.92c-2.35,1.39-4.7,2.78-7.04,4.19l12.36,1.36-5.32-5.54h0Z"/>
      <path class="cls-6" d="m496.62,469.52c-2.35,1.39-4.7,2.78-7.04,4.19l12.36,1.36-5.32-5.54h0Z"/>
      <rect class="cls-5" x="670.12" y="502.65" width=".75" height="51.91" transform="translate(38.98 1103.21) rotate(-80.55)"/>
      <polygon class="cls-1" points="170.8 558.22 170.8 558.22 170.8 558.22 176.19 585.17 176.19 585.17 170.8 558.22"/>
      <path class="cls-1" d="m249.01,508h.02s-10.89-54.44-10.89-54.44h-.02s10.89,54.45,10.89,54.45h0Z"/>
      <path class="cls-1" d="m205.78,320.17l-49.42,15.85.12.35.12.36,49.41-15.85,39.07,121.87h.02s-39.07-121.88-39.07-121.88l-.12-.35-.81-34.94h0l.81,34.94-.12-.36h0Z"/>
      <polygon class="cls-1" points="263.79 538.85 249.08 508 249.06 508 263.77 538.86 263.79 538.85"/>
      <path class="cls-1" d="m190.47,409.84c1.5.19,3.01.39,4.5.6l-1.03-5.19-14.95-1.8c.34,1.78.7,3.54,1.03,5.32,3.41.28,6.82.64,10.22,1.06l.2-.13v.15s.03,0,.03,0Z"/>
      <polygon class="cls-1" points="170.65 557.48 170.67 557.55 170.65 557.48 170.65 557.48"/>
      <path class="cls-1" d="m147.33,369.82l-9.42-11.66-13.03-9.99-15.76-2.81-7.35-19.21,3.63,23.72,8.84-.61,4.85,2.93,4.83-1.72,11.64,10.19,7.91,12.88,4.69,5.81c3.44-.59,6.89-1.13,10.35-1.6l-11.2-7.94h0Z"/>
      <path class="cls-1" d="m191.52,519.51l-25.25-126.16,5.39,6.57,5.05,11.68,10.9,4.53,5.92-3.77c-3.4-.38-6.81-.69-10.23-.93-.36-1.77-.73-3.54-1.1-5.3l-.42-.04-17.43-22.17h0l-.59-.75-4.37-3.91c-3.49.07-6.98.22-10.46.42l3.26,5.12,8.94,2.34,5.12,6.22,25.25,126.16h.05s-.05,0-.05,0h0Z"/>
      <path class="cls-1" d="m192.49,421.52l1.97,13.01,14.15,5.39-9.24-7.3-4.38-22.18c-1.5-.21-3-.41-4.5-.6l2.02,11.68h0Z"/>
      <path class="cls-1" d="m203.63,582.96h0s-8.69-26.07-8.69-26.07h0l-.12-.35h0l-.1-.29-.03-.07h0l17.24-5.75-1.19-34.53h-.05s-40.7-122.04-40.7-122.04l-5.85-5.54-9.16-1.21-3.87-4.68c-6.23,1.16-12.44,2.51-18.61,4.09-4.39-9.65-8.88-19.24-13.48-28.75,4.59,9.51,9.09,19.09,13.48,28.75,6.16-1.58,12.37-2.93,18.61-4.09l-4.76-5.76-8.06-12.79-11.76-10.06-4.81,1.77-4.89-2.87-8.83.71-3.91-23.67,7.57,19.12,15.79,2.63,13.15,9.84,9.55,11.56,11.3,7.82c1.33-.19,2.66-.37,3.99-.54l-12.91-38.69-18.62-29.12-18.47,6.16-8.93-26.78-9.81,3.28c-10.41,3.47-18.47-7.67-14.12-16.16.62-1.21,1.49-2.36,2.66-3.42l101.74-92.31c-9.63-3.56-19.21-7.18-28.71-10.89-.41-12.94-.61-25.87-.64-38.8L0,185.97l139.63,418.73,64.12-21.38-.12-.35h0Z"/>
      <path class="cls-1" d="m161.42,381.02l-.89-4.72c-1.34,0-2.68,0-4.02,0l4.32,3.96.58.76h0Z"/>
      <path class="cls-1" d="m206.95,287.99h0l1.21,34.92.12.35,40.49,121.41c11.22,1.96,22.35,4.65,33.31,8.1,1.62,11.11,3.11,22.21,4.49,33.32-1.38-11.11-2.87-22.21-4.49-33.32-10.95-3.44-22.08-6.14-33.31-8.1l17.56,52.66h.03s.02,0,.02,0l18.41,28.79,45.58-15.2h0s-1.19-34.53-1.19-34.53h-.05s-47.77-143.22-47.77-143.22l-7.57-6.03-3.23-24.34-3.42-2.5.92,8.36-1.92,29.09,10.33,11.53-13.99,24.14,2.13,11.59-7.08-13.4,7.1-11.07,6.27-10.23-7.15-1.2-5.09-10.66,4.05-12.06.73-16.54-5.08-7.71,1.23-7.36-9.11-6.67c0-1.26,0-2.53-.01-3.79-3.64-.97-7.28-1.92-10.91-2.92-.2-1.36-.39-2.73-.59-4.08l-32.47,10.82.45-.15h0v.02Z"/>
      <polygon class="cls-5" points="191.5 519.13 191.57 519.51 242.46 509.32 242.4 508.95 191.5 519.13"/>
      <polygon class="cls-5" points="191.65 519.87 242.55 509.68 242.46 509.32 191.57 519.51 191.65 519.87"/>
      <polygon class="cls-5" points="263.79 538.85 263.77 538.86 263.93 539.2 200.34 551.93 310.84 529.81 310.89 529.42 263.79 538.86 263.79 538.85"/>
      <polygon class="cls-5" points="170.65 557.48 170.67 557.55 170.73 557.86 188.44 554.31 188.48 553.92 170.65 557.48"/>
      <polygon class="cls-5" points="170.66 557.49 188.48 553.92 188.48 553.92 170.66 557.49"/>
      <polygon class="cls-5" points="170.73 557.86 170.73 557.86 170.67 557.55 170.73 557.86"/>
      <polygon class="cls-5" points="170.73 557.86 170.72 557.86 170.73 557.86 170.73 557.86"/>
      <polygon class="cls-5" points="170.8 558.22 170.8 558.22 170.72 557.86 170.8 558.22"/>
      <polygon class="cls-5" points="263.77 538.86 188.48 553.92 188.48 553.92 188.48 553.92 188.44 554.31 200.34 551.93 263.93 539.2 263.77 538.86"/>
      <polygon class="cls-5" points="188.44 554.31 200.34 551.93 188.44 554.31 188.44 554.31"/>
      <path class="cls-5" d="m176.19,585.17l.07.36h0l251.98-50.42c-.21-.09-.43-.17-.64-.25h0l-251.4,50.31h0Z"/>
      <path class="cls-6" d="m200.94,406.88c9.71.15,19.42.81,29.08,1.99,2.56,10.82,5.01,21.68,7.33,32.54,2.59.4,5.17.86,7.74,1.34l-39.07-121.87-49.41,15.85-.12-.36-6.4,2.05h0l12.45,38.84c4.33-.52,8.66-.94,13-1.25,2.99,8.6,5.86,17.24,8.69,25.9l15.07-.07,1.66,5.02h0Z"/>
      <path class="cls-6" d="m160.53,376.3l.89,4.72h0l17.16,22.38.42.05c-1.72-8.95-3.51-17.89-5.41-26.78-4.35-.23-8.7-.34-13.06-.37h0Z"/>
      <path class="cls-6" d="m230.58,451.36c-1.08-11.07-2.29-22.12-3.62-33.16-9.46-2.27-19.04-4.01-28.67-5.25l4.64,22.12,9.32,7.19-14.22-5.22-2.12-12.98-2.15-11.65c-.07-.01-.15-.02-.22-.02l-5.92,3.77-10.9-4.53-5.05-11.68-5.39-6.57,25.25,126.16h.05s-.07-.38-.07-.38l50.9-10.18.06.37,6.55-1.31-10.89-54.45c-2.51-.77-5.02-1.5-7.54-2.2h-.02Z"/>
      <path class="cls-6" d="m190.45,409.69l-.2.13c.07.01.15.02.22.03v-.15s-.02,0-.02,0Z"/>
      <polygon class="cls-6" points="161.42 381.02 160.53 376.3 160.53 376.3 161.42 381.02 161.42 381.02"/>
      <polygon class="cls-6" points="150.06 338.43 150.06 338.43 150.05 338.43 162.52 377.26 162.52 377.26 150.06 338.43"/>
      <polygon class="cls-6" points="131.78 309.09 131.78 309.09 204.64 285.73 131.78 309.09"/>
      <polygon class="cls-6" points="202.84 311.02 205.78 320.17 205.9 320.53 205.09 285.59 131.79 309.1 150.05 338.4 147.02 328.92 202.84 311.02"/>
      <polygon class="cls-6" points="150.05 338.4 131.79 309.1 205.09 285.59 205.09 285.59 204.64 285.73 131.78 309.09 150.05 338.43 150.05 338.4"/>
      <polygon class="cls-6" points="156.47 336.37 156.35 336.02 205.78 320.17 202.84 311.02 147.02 328.92 150.05 338.4 150.06 338.43 156.47 336.37"/>
      <polygon class="cls-6" points="150.05 338.4 150.05 338.43 150.06 338.43 150.05 338.4"/>
      <polygon class="cls-6" points="188.48 553.92 263.77 538.86 249.06 508 249.03 508 249.03 508 249.01 508 242.46 509.32 242.55 509.68 191.65 519.87 191.57 519.51 191.57 519.51 191.57 519.51 188.48 553.92"/>
      <polygon class="cls-6" points="249.07 507.98 249.1 507.98 249.1 507.98 249.07 507.98"/>
      <rect class="cls-6" x="190.02" y="519.44" height="34.55"/>
      <path class="cls-6" d="m104.62,288.15l8.61,26.88,124-39.76c-1.26-9.5-2.42-19.01-3.47-28.53l-129.14,41.41h0Z"/>
      <path class="cls-6" d="m176.19,585.17l251.4-50.31c-10.38-4.09-20.72-8.33-31-12.7,1.82-3.42,3.67-6.83,5.52-10.23l-231.31,46.29,5.4,26.94h0Z"/>
      <polygon class="cls-6" points="176.19 585.17 427.59 534.86 427.59 534.86 176.19 585.17 176.19 585.17"/>
      <path class="cls-4" d="m428.87,535.36l-252.54,50.53h0l-.07-.36-66.28,13.27,5.7,28.45,314.75-62.99c3.81-7.96,7.7-15.89,11.72-23.74-4.43-1.69-8.86-3.42-13.28-5.16h0Z"/>
      <path class="cls-4" d="m80.87,274.99c-4.47,8.44,3.48,19.67,13.93,16.32h0l9.84-3.16h0l129.15-41.42h0c-.33-2.98-.65-5.95-.96-8.93-7.97-2.52-15.89-5.13-23.76-7.76l-27.64,8.86c-.23.07-.47.14-.7.19-7.08,1.61-11.98-7.45-6.31-12.47h0l20.16-17.88c-.55-8.55-1.02-17.12-1.41-25.67-2.28-.86-4.54-1.75-6.8-2.61l-102.8,91.13c-1.17,1.04-2.06,2.18-2.7,3.4h0Z"/>
      <polygon class="cls-4" points="104.62 288.15 104.62 288.15 104.63 288.15 233.77 246.75 233.76 246.74 104.62 288.15"/>
      <path class="cls-6" d="m180.71,239.1c.23-.05.45-.11.69-.19l27.64-8.86c-4.44-1.48-8.87-2.96-13.29-4.47-.44-5.6-.82-11.21-1.19-16.81l-20.16,17.88h0c-5.65,5.02-.77,14.07,6.31,12.46Z"/>
      <path class="cls-6" d="m180.71,239.1c-7.07,1.6-11.96-7.44-6.31-12.46h0c-5.67,5.02-.78,14.08,6.31,12.46Z"/>
      <path class="cls-5" d="m170.8,558.22l231.31-46.29c.08-.15.16-.29.24-.42l-16.01,3.2h0l-75.5,15.11-140.13,28.04.07.36h0Z"/>
      <polygon class="cls-5" points="170.55 558.09 170.91 558.02 170.91 558.02 170.55 558.09"/>
      <polygon class="cls-5" points="170.72 557.86 170.8 558.22 170.73 557.86 170.72 557.86"/>
      <path class="cls-5" d="m176.33,585.91l252.54-50.53c-.21-.09-.43-.17-.64-.25l-251.97,50.43.07.36h0Z"/>
      <rect class="cls-5" x="155.28" y="328.26" width="51.9" height=".75" transform="translate(-90.94 70.24) rotate(-17.61)"/>
      <rect class="cls-5" x="191.11" y="513.81" width="51.9" height=".75" transform="translate(-95.43 51.74) rotate(-11.16)"/>
      <path class="cls-6" d="m160.28,448.37l-2.66,4.39,8.47,3.71c.42-.2.86-.34,1.31-.44,1.36-3.31,2.73-6.58,4.12-9.82-4.33-3.29-8.41-2.51-11.24,2.16h0Z"/>
      <path class="cls-6" d="m155.02,588.17c2.01-5.5,4.04-10.96,6.08-16.35-6.76-5.63-13.02-4.44-17.26,3.33l-3.97,7.29,13.14,6.44c.65-.32,1.32-.55,2-.7h0Z"/>
      <path class="cls-6" d="m187.24,540.63c-6.76-1.35-13.76.12-19.42,4.11l-5.6,3.94,14.38,1.24c.07-.02.15-.04.22-.06-.12-.13-.25-.26-.39-.38,3.59-2.97,7.19-5.92,10.8-8.86h0s0,0,0,0Z"/>
      <path class="cls-6" d="m273.57,528.29l-2.66,4.39,8.47,3.71c.42-.2.86-.34,1.31-.44,1.36-3.31,2.73-6.58,4.12-9.82-4.33-3.29-8.41-2.51-11.24,2.16h0Z"/>
      <path class="cls-6" d="m520.65,424.57c2.5-5.3,5.01-10.55,7.53-15.74-6.23-6.22-12.57-5.59-17.49,1.76l-4.61,6.9,12.51,7.6c.68-.26,1.36-.43,2.06-.52h0Z"/>
      <path class="cls-6" d="m296.22,417.19c-6.76-1.35-13.76.12-19.42,4.11l-5.6,3.94,14.38,1.24c.07-.02.15-.04.22-.06-.12-.13-.25-.26-.39-.38,3.59-2.97,7.19-5.92,10.8-8.86h0Z"/>
      <path class="cls-6" d="m739.55,583.93c-2.35,1.39-4.7,2.78-7.04,4.19l12.36,1.36-5.32-5.54h0Z"/>
      <rect class="cls-5" x="546.98" y="482.15" width=".75" height="51.91" transform="translate(-43.73 964.61) rotate(-80.55)"/>
      <path class="cls-6" d="m294.86,453.7c-2.35,1.39-4.7,2.78-7.04,4.19l12.36,1.36-5.32-5.54h0Z"/>
      <path class="cls-6" d="m364.51,406.85c-2.35,1.39-4.7,2.78-7.04,4.19l12.36,1.36-5.32-5.54h0Z"/>
    </g>
  </g>
</svg>