<?xml version="1.0" encoding="UTF-8"?>
<svg id="Layer_2" data-name="Layer 2" xmlns="http://www.w3.org/2000/svg" viewBox="0 0 809.63 474.12">
  <defs>
    <style>
      .cls-1 {
        fill: none;
      }

      .cls-1, .cls-2, .cls-3, .cls-4, .cls-5, .cls-6, .cls-7 {
        stroke-width: 0px;
      }

      .cls-3 {
        fill: #756746;
      }

      .cls-4 {
        fill: #5c5c5c;
      }

      .cls-5 {
        fill: #2c2c7c;
      }

      .cls-6 {
        fill: #d0d8d7;
      }

      .cls-7 {
        fill: #fff;
      }
    </style>
  </defs>
  <g id="Layer_2-2" data-name="Layer 2">
    <path class="cls-5" d="m393.76.08l1.1.29-.16-.37c-.31.02-.62.04-.94.07h0Z"/>
    <path class="cls-1" d="m200.7,207.27l56.05-23,.69,6.76c1.79-3.09,3.6-6.19,5.41-9.27l-62.15,25.5h0v.02h0,0Z"/>
    <path class="cls-1" d="m196.78,225.34c.2.67.4,1.33.62,1.99l.6-1.58c-.41-.14-.81-.27-1.22-.41h0,0Z"/>
    <path class="cls-1" d="m176.63,214.34c.1,1.37.2,2.74.29,4.11,3.55,1.26,7.11,2.47,10.67,3.7.24-3.6.5-7.2.74-10.81l-11.72,2.99h.02Z"/>
    <polygon class="cls-1" points="197.81 208.43 187.36 212.73 187.36 212.74 197.82 208.44 197.81 208.43"/>
    <path class="cls-1" d="m195.32,226.73l-3.9-5.28c.85,1.82,1.68,3.63,2.54,5.44.43.09.84.15,1.27.24l.09-.4h0Z"/>
    <path class="cls-6" d="m223.31,270.21l9.78,6.45,13.56-2.57,17.3,9.05,2.5,1c-.88-2.76-1.74-5.52-2.59-8.31-13.6-1.73-27.11-3.61-40.54-5.63h-.02.01Z"/>
    <path class="cls-6" d="m214.33,243.71l-.29-.69,1.67-.68c-.38-1.5-.77-3.02-1.14-4.52l-4.21,1.73,4.54,20.45,2.69,6.48,5.52,3.63c-2.51-8.98-4.91-18-7.24-27.02l-1.55.64h0v-.02Z"/>
    <path class="cls-6" d="m317.97,268.51l-6.34-3.64c1.45,8.45,2.98,16.9,4.61,25.32,2.29.57,4.6,1.1,6.91,1.66l-2.68-5.25-2.5-18.09h0Z"/>
    <path class="cls-6" d="m201.12,240.05l-.43-5.65-10.47,4.29,4.08,8.73,3.9,5.28,2.92-12.64h0Z"/>
    <path class="cls-6" d="m201.14,234.18l2.41.93-1.26-3.07,6.07-2.49c-2.7-.48-5.41-.99-8.1-1.49l-.08.79.96,5.33h0v.02h0v-.02h0Z"/>
    <path class="cls-6" d="m347.38,60.61l.08-.4c-.09.08-.17.16-.26.24.06.05.12.11.18.16h0Z"/>
    <path class="cls-6" d="m203.55,235.11l6.37,2.45.44,1.97,4.21-1.73c-.63-2.49-1.24-4.96-1.85-7.45-1.45-.25-2.9-.54-4.35-.8l-6.07,2.49,1.26,3.07h0Z"/>
    <path class="cls-5" d="m214.33,243.71l1.55-.64c-.06-.24-.13-.48-.19-.74l-1.67.68.29.69h.02Z"/>
    <path class="cls-5" d="m215.91,243.07l46.46-19.06-.29-.69-46.36,19.02c.06.24.13.48.19.74h0Z"/>
    <path class="cls-6" d="m185.26,264.53c1.49,3.18,2.96,6.35,4.46,9.53l10.47-4.29-.73-9.78-4.65-2.16-1.4-5.49-6.73-5.77,1.81-2.52-19.32,7.92c1.8,9.4,3.71,18.79,5.72,28.17l11.18-4.59c-.27-3.68-.51-7.36-.79-11.04h-.02v.02Z"/>
    <path class="cls-4" d="m202.94,36.29s.02,0,.03-.03c0,0-.02,0-.03.03l-88.63,92.04h0l88.63-92.04Z"/>
    <polygon class="cls-4" points="174.88 185.67 174.88 185.67 195.12 180.5 195.12 180.5 174.88 185.67"/>
    <polygon class="cls-4" points="192 180.31 274.73 146.38 274.73 146.38 192 180.31 192 180.31"/>
    <polygon class="cls-2" points="195.12 180.5 195.12 180.5 174.88 185.67 174.88 185.67 195.12 180.5"/>
    <polygon class="cls-2" points="192 180.31 274.73 146.38 274.73 146.37 192 180.31 192 180.31"/>
    <g>
      <path class="cls-6" d="m223.12,270.08l.18.13c13.43,2.02,26.96,3.89,40.54,5.63.87,2.77,1.72,5.54,2.59,8.31l11.38,4.55,6.57,8.61-1.65,9.11,3.3,8.89c4.77.46,9.53.91,14.31,1.33l-37.98-92.6-46.46,19.06c2.31,9.03,4.71,18.03,7.24,27.02h0v-.04h-.02,0Z"/>
      <path class="cls-6" d="m214.57,237.81c.38,1.5.76,3.02,1.14,4.52l46.36-19.02-1.75-4.29h0l-45.74,18.77h-.02v.02Z"/>
      <path class="cls-6" d="m200.7,207.27l.94,6.69-1.39,14.11c2.7.5,5.4,1,8.1,1.49l48.17-19.75,3.78,9.22-2.82-27.59c-.07-.03-.15-.07-.21-.1.06-.1.11-.2.18-.3l-.69-6.76-56.05,23h0v-.02h0v-.02h0v.03Z"/>
      <path class="cls-6" d="m214.57,237.81l45.74-18.76h0l-3.79-9.24-48.17,19.75c1.44.27,2.9.55,4.35.8.6,2.47,1.22,4.97,1.85,7.45h.02Z"/>
      <path class="cls-6" d="m190.11,184.63l9.26,13.07,1.34,9.56,62.15-25.5c6.28-10.66,12.71-21.23,19.26-31.69-2.48-1.22-4.94-2.45-7.42-3.67l-82.74,33.93-1.88,4.32h.02v-.02h0Z"/>
      <path class="cls-4" d="m165.14,181.82c.54,2.94,1.1,5.87,1.65,8.83l19.32-7.92,12.23-16.94-6.35,14.54,82.73-33.93c-9.15-4.58-18.25-9.3-27.25-14.16l-106.65,43.75c8.06,2.01,16.16,3.98,24.31,5.86h0v-.02h.01Z"/>
      <path class="cls-4" d="m202.94,36.29l-88.63,92.04c2.33.68,4.66,1.39,6.99,2.07,1.06,8.5,2.21,17,3.44,25.47l89.35-92.77-.14.03c-15.88-.41-.49-36.72-10.23-27.59-.24.22-.48.46-.75.74,0,0-.02,0-.03.03h0v-.03h0,0Z"/>
      <path class="cls-6" d="m218.98,76.55c-1.8,3.5-2.87,7.35-3.14,11.29-.55,7.93,2.63,15.66,8.59,20.93,2.96,2.62,6.42,4.59,10.16,5.83,3.94,1.3,8.11,1.89,12.27,1.72,1.45-.06,2.87-.21,4.28-.44,6.05-9.06,12.21-18.06,18.48-26.95-12.78-7.28-25.39-14.83-37.81-22.67,1.47-2,2.94-3.98,4.41-5.98h0c-3.55,1.64-6.81,3.8-9.69,6.42-3.08,2.8-5.64,6.14-7.53,9.85h-.02Z"/>
      <path class="cls-6" d="m127.23,172.54c4.52,1.17,9.06,2.3,13.6,3.41l106.65-43.75c-1.76-.95-3.51-1.88-5.26-2.83,2.77-4.24,5.55-8.44,8.35-12.64-1.21.18-2.44.28-3.67.32-4.25.18-8.5-.43-12.53-1.76-3.85-1.26-7.39-3.3-10.43-5.98-6.13-5.42-9.39-13.39-8.85-21.55.28-4.04,1.37-7.98,3.23-11.58,1.92-3.79,4.54-7.2,7.69-10.05,2.43-2.2,5.11-4.06,7.96-5.58l-19.9,2.52-89.35,92.77c.81,5.56,1.63,11.12,2.5,16.67v.02h0v.02h.02-.01Z"/>
    </g>
    <path class="cls-5" d="m217.83,77.64c-1.58,3.72-2.38,7.74-2.38,11.78.04,8.18,3.88,15.88,10.38,20.84,3.22,2.45,6.9,4.22,10.84,5.22,4.12,1.04,8.4,1.33,12.63.85,1.23-.14,2.44-.34,3.64-.59.17-.3.34-.61.51-.89-1.38.32-2.8.58-4.24.74-4.13.49-8.33.21-12.36-.82-3.82-.96-7.42-2.68-10.56-5.08-6.32-4.81-10.04-12.3-10.07-20.25,0-3.95.79-7.86,2.33-11.49,1.61-3.85,3.92-7.36,6.79-10.37,2.69-2.83,5.8-5.22,9.21-7.11l-2.2.45c-2.74,1.72-5.28,3.78-7.54,6.14-2.94,3.07-5.3,6.67-6.94,10.59h-.04Z"/>
    <g>
      <path class="cls-1" d="m300.67,181.59h0l.05.75h0l7.77,99.79c5.54,2.35,11.11,4.67,16.69,6.96.62,13.27,1.45,26.55,2.51,39.82-1.06-13.27-1.89-26.55-2.51-39.82-5.59-2.29-11.13-4.63-16.69-6.96l6.09,78.17h.05l10.91,32.38,16.69-1.3c6.34-8.85,12.79-17.61,19.37-26.25-13.82-8.25-27.49-16.77-41-25.58,9.5-12.05,19.25-23.9,29.2-35.53-13.12-8.85-26.07-17.97-38.85-27.36,10.35-11.68,20.91-23.14,31.67-34.38-12.38-9.42-24.58-19.08-36.57-29.02,11.15-11.26,22.5-22.29,34.05-33.08-11.54-9.88-22.88-20.02-34-30.37l-5.78,27.13.36,4.62h0v.03h0Z"/>
      <rect class="cls-5" x="256.47" y="367.42" width="51.9" height=".75" transform="translate(-27.69 23.02) rotate(-4.45)"/>
      <g>
        <path class="cls-6" d="m308.5,282.13c-4.43-1.87-8.81-3.76-13.21-5.65l.35,7.73-2.7-8.75c-2.17-.94-4.36-1.86-6.51-2.81-.17-8.59-.24-17.17-.24-25.75l-19.85-16.45-12.17-3.41-9.74-12.71,11.72,150.53h.05l58.4-4.56-6.09-78.17h-.01,0Z"/>
        <path class="cls-6" d="m314.63,360.3h-.05l-58.4,4.56-7.19,33.8,76.56-5.96-10.91-32.39h-.01Zm-58.04,9.9l-.05-.75,51.74-4.02.05.75-51.74,4.02h0Z"/>
      </g>
      <polygon class="cls-5" points="325.66 393.06 325.54 392.68 248.98 398.66 248.91 399.03 325.66 393.06"/>
    </g>
    <path class="cls-6" d="m509.41,258.31c4.63-3.45,9.28-6.88,13.95-10.27-9.6-3.14-20.08-2.11-28.89,2.82l-8.27,4.63,19.78,3.34c1.14-.22,2.28-.4,3.43-.52h0Z"/>
    <path class="cls-6" d="m391.46,213.39l-3.04,4.13,8.1,4.46c.44-.16.89-.26,1.34-.32,1.65-3.17,3.31-6.31,4.99-9.41-4.02-3.67-8.15-3.26-11.39,1.14h0Z"/>
    <path class="cls-6" d="m355.21,328.81c2.5-5.3,5.01-10.55,7.53-15.74-6.23-6.22-12.57-5.59-17.49,1.76l-4.61,6.9,12.51,7.6c.68-.26,1.36-.43,2.06-.52h0Z"/>
    <path class="cls-6" d="m440.59,270.2c-6.61-1.95-17.63,15.32-23.63,18.79l-2.01-13.02,14.21,2.53c.07-.01.15-.03.22-.04-.11-.14-.23-.28-.35-.41,3.84-2.64,7.69-5.25,11.55-7.85h.01Z"/>
    <path class="cls-6" d="m444.31,136.97l-3.04,4.13,8.1,4.46c.44-.16.89-.26,1.34-.32,1.65-3.17,3.31-6.31,4.99-9.41-4.02-3.67-8.15-3.26-11.39,1.14h0Z"/>
    <path class="cls-6" d="m378.68,263.33l-3.04,4.13,8.1,4.46c.44-.16.89-.26,1.34-.32,1.65-3.17,3.31-6.31,4.99-9.41-4.02-3.67-8.15-3.26-11.39,1.14h0Z"/>
    <path class="cls-6" d="m439.41,332.31l-3.04,4.13,8.1,4.46c.44-.16.89-.26,1.34-.32,1.65-3.17,3.31-6.31,4.99-9.41-4.02-3.67-8.15-3.26-11.39,1.14h0Z"/>
    <polygon class="cls-4" points="758.72 224.43 533.17 142.38 533.17 142.38 758.72 224.43 758.72 224.43"/>
    <polygon class="cls-2" points="758.72 224.43 533.17 142.38 533.17 142.38 758.72 224.43 758.72 224.43"/>
    <polygon class="cls-6" points="565.71 188.89 563.97 198.72 579.58 167.45 503.77 154.02 506.24 188.49 507.98 178.66 565.71 188.89"/>
    <rect class="cls-6" x="531.32" y="129.37" width="9.99" height="58.63" transform="translate(320 674.46) rotate(-83.73)"/>
    <path class="cls-6" d="m521.07,168.01l160.55,58.4,2.71-5.59c8.42-1.57,16.83-3.13,25.25-4.71-6.98,4.28-13.95,8.57-20.94,12.85l60.41,21.98,9.64-26.54-225.56-82.05c.99,2.57,1.99,5.15,2.99,7.71-8.08,2.24-16.13,4.58-24.16,7,0,.21-.03.43-.02.65l9.09,10.27h.02v.02h.02Z"/>
    <path class="cls-6" d="m488.24,187.6c-2.35,1.39-4.7,2.78-7.04,4.19l12.36,1.36-5.32-5.54h0Z"/>
    <path class="cls-6" d="m706.78,185.91l-37.77-45.88-44.79-40.06c.26.53.5,1.06.72,1.61,1.19,2.9,1.78,6.01,1.68,9.13-.18,6.31-3.38,12.18-8.68,15.89-2.62,1.84-5.61,3.14-8.76,3.83-3.32.74-6.74.88-10.11.43-3.61-.48-7.11-1.57-10.32-3.22-2.36-1.18-4.53-2.67-6.5-4.4-4.01.42-8.02.86-12.04,1.32.32,1.5.64,3.01.97,4.52l128.39,65.23c5.52,2.8,11.11-3.68,7.21-8.4h-.02Z"/>
    <polygon class="cls-7" points="193.52 242.29 199.12 249.65 199.49 266.19 196.28 278.53 202.05 288.81 209.27 289.53 203.71 300.16 197.37 311.68 205.33 324.55 202.43 313.15 214.76 288.13 203.67 277.3 203.64 248.14 202.15 239.88 194.25 234.86 193.52 242.29"/>
    <path class="cls-7" d="m195.68,227.21l-.35-.48-.09.4c.15.03.3.06.45.08h0Z"/>
    <path class="cls-7" d="m195.24,227.13l-.38,1.65,1.71,3.65,4.16,1.6-5.03-6.82c-.15-.03-.3-.06-.45-.08h-.01Z"/>
    <polygon class="cls-7" points="197.82 208.44 200.7 207.27 200.7 207.26 197.81 208.43 197.82 208.44"/>
    <path class="cls-7" d="m198.24,214.08l-2.92,12.64.35.48c1.53.29,3.06.57,4.59.85l1.39-14.11-.94-6.69-2.9,1.2.43,5.65h.02l-.02-.02h0Z"/>
    <path class="cls-7" d="m200.72,234.03l.42.17-.96-5.33.08-.79c-1.53-.28-3.07-.56-4.59-.85l5.03,6.82h0v-.02h.02Z"/>
    <polygon class="cls-7" points="184.31 185.24 191.03 191.02 192.44 196.51 197.09 198.66 197.81 208.43 200.7 207.26 199.37 197.69 190.11 184.63 192 180.31 186.12 182.73 184.31 185.24"/>
    <polygon class="cls-7" points="186.12 182.72 192.01 180.31 192.01 180.31 186.12 182.72"/>
    <polygon class="cls-7" points="198.35 165.78 186.12 182.73 192 180.31 198.35 165.78"/>
    <path class="cls-7" d="m466.84,61.19c-1.45,8.44-2.89,16.88-4.34,25.31l7.29,7.59c1.07-.63,2.15-1.26,3.22-1.89-2.06-10.34-4.12-20.67-6.17-31.01h0Z"/>
    <path class="cls-7" d="m488.03,127.4l-10.73-8.55c-.03-.21-.05-.43-.09-.65-1.11.56-2.23,1.12-3.34,1.67l4.94,5.88,9.21,1.63h0v.02h.01Z"/>
    <polygon class="cls-7" points="652.83 180.43 660.19 181.73 660.19 181.73 652.83 180.42 652.83 180.43"/>
    <path class="cls-7" d="m647.7,198.38l-7.14,3.78,8.2,1.45,4.53-2.51,1.12-14.27c1.93-1.7,3.85-3.4,5.77-5.1l-7.36-1.31-5.13,17.95h0Z"/>
    <path class="cls-7" d="m674.32,220.09l-2.5,5.68,7.11,2.3c6.81-4.55,13.62-9.08,20.44-13.62-8.35,1.88-16.7,3.76-25.06,5.64h.01Z"/>
    <rect class="cls-5" x="86.32" y="279.79" width="51.9" height=".37" transform="translate(-128.86 98.74) rotate(-31.22)"/>
    <rect class="cls-5" x="86.13" y="279.48" width="51.9" height=".38" transform="translate(-128.73 98.59) rotate(-31.22)"/>
    <polygon class="cls-4" points="147.24 217.24 26.1 278.25 26.1 278.25 147.24 217.24 147.24 217.24"/>
    <polygon class="cls-2" points="26.1 278.25 147.24 217.24 147.24 217.24 26.1 278.25 26.1 278.25"/>
    <polygon class="cls-7" points="113.91 314.88 96.37 306.17 85.26 296.11 70.84 288.26 54.82 287.92 44.59 270.07 51.86 292.94 60.5 290.98 65.75 293.12 70.25 290.68 83.34 298.93 93.15 310.43 103.19 319.53 112.41 319.41 119 324.05 114.69 315.45 113.91 314.88"/>
    <path class="cls-7" d="m195.01,219.6l-4.74-8.72,1.9-.49h0l-3.85.97c-.24,3.6-.5,7.2-.74,10.81,3.05,1.06,6.11,2.12,9.17,3.16-.59-1.92-1.16-3.82-1.76-5.74h.02Z"/>
    <path class="cls-7" d="m197.36,227.33c-.2-.67-.4-1.33-.62-1.99-3.06-1.04-6.11-2.11-9.17-3.16-.1,1.26-.18,2.53-.26,3.78l8.6,7.31,1.44-5.91.02-.03h-.02,0Z"/>
    <polygon class="cls-7" points="206.07 241.29 201.22 234.72 202.15 239.88 205.74 242.14 210.6 266.2 218.55 271.71 206.08 241.29 206.07 241.29"/>
    <path class="cls-7" d="m294.31,185.97l-5.29-9.45-10.63-6.09c.33,1.99.67,4,1.02,5.99l6.34,3.64,2.5,18.09,2.68,5.25c.83.21,1.66.41,2.5.59l-2.03-9.26,2.91-8.79v.02h0Z"/>
    <path class="cls-7" d="m244.35,280.35l23.93,9.57c-.61-1.93-1.23-3.86-1.84-5.79l-2.5-1-17.3-9.05-13.56,2.57-9.78-6.45s-.11,0-.17-.03l-.02-.1-5.53-3.63-2.69-6.48-4.54-20.45-4.29,1.75,12.48,30.43,13.17,9.11,12.63-.48h0v.03h.03-.02Z"/>
    <path class="cls-7" d="m223.14,270.19s.11,0,.17.03l-.18-.13.02.1h-.01Z"/>
    <path class="cls-7" d="m339.35,195.14l-.48-7.73c-.79-.32-1.59-.65-2.38-.97l2.86,8.7h0Z"/>
    <path class="cls-7" d="m190.27,210.88l4.74,8.72-2.83-9.21-1.9.49h-.01Z"/>
    <polygon class="cls-7" points="201.14 234.18 201.22 234.72 206.07 241.29 206.08 241.29 203.55 235.11 201.14 234.18"/>
    <polygon class="cls-7" points="203.55 235.11 206.08 241.29 210.37 239.53 209.93 237.56 203.55 235.11"/>
    <path class="cls-7" d="m188.34,211.37l3.85-.97c-1.02-3.35-2.05-6.7-3.09-10.05-.25,3.68-.52,7.36-.76,11.04h0v-.02h0Z"/>
    <path class="cls-7" d="m196.53,245.33l-4.16-1.6-1.71-3.65v.03l-.62,6.05,7.9,5-.91-5.14-.51-.7h.01Z"/>
    <polygon class="cls-7" points="200.72 234.03 201.22 234.72 201.14 234.18 200.72 234.03"/>
    <rect class="cls-5" x="212.22" y="233.08" width="51.9" height=".75" transform="translate(-70.42 106.97) rotate(-22.14)"/>
    <rect class="cls-5" x="86.18" y="279.28" width="51.9" height=".75" transform="translate(-128.24 97.99) rotate(-31.07)"/>
    <rect class="cls-5" x="252.69" y="339.04" width="51.9" height=".75" transform="translate(-25.66 22.8) rotate(-4.48)"/>
    <g>
      <g>
        <path class="cls-6" d="m616.32,291.5l-22.5-19.64.85-1.2c-2.43-2.06-4.84-4.1-7.23-6.1l-60.63,89.07.04.04,48.43,32.96,39.09-57.41-15.25-13.31,17.21-24.41Z"/>
        <path class="cls-6" d="m634.73,361.59h0c1.69,3.44,3.37,6.76,5.02,9.97l.5-.43-5.75-11.54,10.11-8.72-3.9-7.82-20.93,18.63c4.82-.16,9.79-.18,14.95-.09Z"/>
      </g>
      <polygon class="cls-1" points="629.29 189.72 629.3 189.73 629.68 189.11 674.29 215.59 674.3 215.58 629.68 189.08 629.29 189.72"/>
      <polygon class="cls-1" points="784.01 275.32 781.64 279.3 737.01 252.8 736.64 253.47 736.65 253.47 737.02 252.83 781.63 279.32 781.64 279.3 784.01 275.32 809.63 251.58 809.63 251.58 784.01 275.32"/>
      <polygon class="cls-1" points="702.29 187.83 636.08 148.53 626.24 181.67 676.66 211.61 702.29 187.83"/>
      <polygon class="cls-1" points="781.25 279.98 772.85 294.13 772.85 294.13 781.25 279.98 781.25 279.98"/>
      <polygon class="cls-1" points="619.31 193.36 587.38 247.12 587.39 247.12 619.31 193.36 619.31 193.36"/>
      <polygon class="cls-1" points="529.71 350.63 590.34 261.55 590.34 261.55 529.71 350.63"/>
      <path class="cls-1" d="m609.71,159.78l-1.88,6.76,5.85,17.6,8.47,4.42,4.08-6.9,9.84-33.14,66.2,39.3-25.63,23.76-2.35,3.97v.02h0l-.38.65h0l-23.74,39.98c3.57-1.36,7.1-2.73,10.57-4.11,11.03,9.51,22.48,19.65,34.3,30.42,6.64-2.85,13.06-5.77,19.25-8.75l.36-9.89,16.14-20,3.39-.44,9.26-31.2,22.83,13.56h0l-146.89-87.23.3.51-9.94,20.69h0v.02h-.03Z"/>
      <path class="cls-1" d="m691.03,335.51l-6.93-2.26-16.8,3.76,13.39-6.88,15.53-2.23,14.04-20.64,4.83-8.51.27-2.73c-6.36,2.6-12.95,5.11-19.75,7.55-11.14-11.49-21.93-22.3-32.35-32.49-3.54,1.17-7.15,2.31-10.8,3.44l-74.27,109.1.04.04-11.73,32.1,39.73,27.05,26.75-21.88-.04-.04,58.12-85.37h-.03Z"/>
      <path class="cls-1" d="m587.38,247.12l31.92-53.77-9.29-6.77-7.56-24.56,11.06-21.92-2.22-6.29-10.68-6.35c-3.56.4-7.11.82-10.66,1.26l-.3.28c3.12,14.88,6.57,29.68,10.31,44.42-11.04,1.54-22.09,3.25-33.12,5.09.27.24.54.47.81.71-4.09.9-8.16,1.83-12.24,2.79-.71-.23-1.45-.44-2.18-.62,4.05,14.84,8.42,29.6,13.05,44.26-15.27,3-30.5,6.28-45.69,9.88,2.46,7.33,4.99,14.63,7.61,21.92,18.27-5.04,35.67-10.16,52.22-15.41,2.29,1.67,4.61,3.37,6.94,5.09h0v-.02h.02Z"/>
      <path class="cls-1" d="m590.34,261.55c-2.22-1.86-4.43-3.71-6.62-5.52-16.84,4.21-34.54,8.25-53.08,12.15,2.26,7.78,4.58,15.55,6.99,23.29-15.05,2.86-30.05,6-45.01,9.47,5.05,15.31,10.39,30.52,16.01,45.6-10.54,2.64-21.04,5.43-31.53,8.38l25.88,17.62,26.75-21.88h-.05v-.05h0l60.63-89.07h.03Z"/>
      <polygon class="cls-1" points="718.7 265.55 719.18 269.69 730.43 250.72 730.03 250.86 718.7 265.55"/>
      <path class="cls-6" d="m629.29,189.75h0l-.02-.02.39-.65,44.63,26.5,2.35-3.97-50.42-29.93-4.08,6.9,3.75,1.95,7.99,17.82,7.48,12.94-.17,10.82-6.93,6.13-5.26,16.38.84-15.03,6.93-16.89-16.53-28.65-.94-.68-31.92,53.77c9.11,6.72,18.5,13.81,28.17,21.32,12.05-3.97,23.59-8.04,34.62-12.24l23.74-39.98-44.61-26.49v.02h0v-.03h0Z"/>
      <polygon class="cls-5" points="674.29 215.59 629.68 189.11 629.3 189.73 673.92 216.22 674.29 215.59"/>
      <polygon class="cls-5" points="673.92 216.22 673.91 216.23 673.92 216.25 674.31 215.59 674.29 215.59 673.91 216.22 674.29 215.59 674.29 215.59 673.92 216.22"/>
      <polygon class="cls-5" points="629.3 189.73 629.29 189.75 673.91 216.23 673.92 216.22 629.3 189.73"/>
      <path class="cls-6" d="m735.61,281.02c-4.12,1.92-8.35,3.8-12.67,5.63l.42,8.01-11.31,15.92-7.36,13-9.42,5.35-1.87-.61-58.12,85.37.04.04,48.43,32.96,91.18-133.93c-2.66,1.52-5.39,3.01-8.16,4.47-10.68-12.74-21.08-24.78-31.13-36.19l-.02-.02h-.01Z"/>
      <polygon class="cls-6" points="734.17 243.44 734.8 243.38 738.69 236.81 747.12 241.83 755.13 240.8 766.26 225.81 743.44 212.26 734.17 243.44"/>
      <path class="cls-6" d="m761.02,301.2l25.62-23.75-36.95-21.93,36.95,21.93h0l-36.95-21.93c-2.41.91-4.8,1.83-7.2,2.74l-6.09,12.95h0l-5.12.75,34.83,20.67-5.1,8.58h-.02.03Z"/>
      <polygon class="cls-6" points="734.8 243.38 747.12 241.83 738.69 236.81 734.8 243.38"/>
      <polygon class="cls-5" points="781.25 279.98 781.27 279.98 781.65 279.32 781.63 279.32 781.27 279.95 781.25 279.98"/>
      <polygon class="cls-7" points="622.29 333.48 622.29 333.48 625.13 328.69 616.65 324.26 610.8 306.66 612.67 299.91 622.63 279.23 622.34 278.72 614.29 273.94 616.51 280.23 605.44 302.14 612.98 326.7 622.29 333.47 622.29 333.48"/>
      <polygon class="cls-7" points="619.32 193.34 610.01 186.58 619.31 193.36 619.32 193.34"/>
      <polygon class="cls-7" points="636.76 222.69 629.84 239.58 628.99 254.61 634.27 238.22 641.2 232.09 641.37 221.28 633.9 208.34 625.91 190.51 622.16 188.55 619.31 193.36 620.25 194.02 636.76 222.69"/>
      <path class="cls-7" d="m704.18,277.22l.06,2.74-3.8,9.01,7.12-13.65c-1.12.63-2.24,1.26-3.37,1.89h-.01Z"/>
      <path class="cls-7" d="m734.17,243.44l-3.39.44-16.14,20-.36,9.89c1.16-.57,2.31-1.13,3.47-1.7l1.43-2.4-.47-4.13,11.32-14.68.4-.14,3.17-5.33.57-1.95h0Z"/>
      <polygon class="cls-7" points="673.73 315.13 661.25 323.54 677.49 317.85 684.63 319.29 688.89 311.11 673.73 315.13"/>
      <polygon class="cls-7" points="730.43 250.72 736.68 248.64 738.59 248.36 733.6 245.39 730.43 250.72"/>
      <path class="cls-7" d="m752.6,321.33l-9.05,21.48-2.48.67-4.27,8.17,1.93.39,8.74-6.41,5.79-13.76,9.38-17.14-1.33-7.91c-.52.3-1.03.59-1.56.89l-7.12,13.65h0l-.03-.02h0Z"/>
      <path class="cls-7" d="m709.11,274.44l-.27-1.6-1.29,2.47c.52-.3,1.04-.59,1.56-.89h0v.02h0Z"/>
      <polygon class="cls-7" points="734.8 243.38 734.17 243.44 733.6 245.39 734.8 243.38"/>
      <polygon class="cls-7" points="733.6 245.39 738.59 248.36 754.28 246.08 747.12 241.83 734.8 243.38 733.6 245.39"/>
    </g>
    <path class="cls-6" d="m416.72,372.99c2.03-5.3,4.06-10.55,6.1-15.74-5.05-6.22-10.19-5.59-14.18,1.76l-3.74,6.9,10.14,7.6c.55-.26,1.1-.43,1.67-.52h0Z"/>
    <path class="cls-6" d="m433.67,198.67c-2.35,1.39-4.7,2.78-7.04,4.19l12.36,1.36-5.32-5.54h0Z"/>
    <path class="cls-6" d="m414.96,246.99c-2.35,1.39-4.7,2.78-7.04,4.19l12.36,1.36-5.32-5.54h0Z"/>
    <path class="cls-6" d="m463.91,275.59c-2.35,1.39-4.7,2.78-7.04,4.19l12.36,1.36-5.32-5.54h0Z"/>
    <polygon class="cls-1" points="117.9 370.69 117.9 370.69 117.9 370.69 123.36 397.62 123.36 397.62 117.9 370.69"/>
    <path class="cls-1" d="m196.98,340.49h.02l-14.29-53.65h-.02l14.3,53.66h-.01Z"/>
    <path class="cls-1" d="m131.02,294.13l-46.35,23.36.17.33.17.34,46.34-23.35,57.57,114.29h.02l-57.57-114.31-.17-.33-6.24-34.38h0l6.24,34.38-.17-.34h-.01Z"/>
    <polygon class="cls-1" points="213.67 370.35 197.05 340.49 197.03 340.49 213.65 370.36 213.67 370.35"/>
    <path class="cls-1" d="m138.02,261.84c1.51.1,3.03.2,4.53.32l-1.35-5.11-15.03-.86c.45,1.76.92,3.49,1.36,5.24,3.42.06,6.85.21,10.27.41l.19-.14v.15h.04,0Z"/>
    <polygon class="cls-1" points="117.74 369.95 117.76 370.02 117.74 369.95 117.74 369.95"/>
    <path class="cls-1" d="m96.37,306.16l-11.11-10.06-14.42-7.85-16.01-.33-10.24-17.84,7.26,22.87,8.64-1.97,5.25,2.14,4.51-2.45,13.08,8.26,9.81,11.5,5.53,5.01c3.31-1.12,6.63-2.18,9.98-3.18l-12.3-6.11h.02Z"/>
    <path class="cls-1" d="m155.92,394.91l-44.49-120.72,6.34,5.66,6.8,10.76,11.47,2.79,5.26-4.64c-3.42.15-6.83.37-10.25.67-.63-1.69-1.27-3.38-1.91-5.07l-.42.03-20.65-19.2h0l-.7-.65-4.92-3.19c-3.44.61-6.86,1.3-10.27,2.04l4.01,4.55,9.19.93,6.02,5.35,44.49,120.72h.05-.05.02v-.03h0Z"/>
    <path class="cls-1" d="m140.77,273.37l2.78,12.86,14.46,4.49-9.68-6.7-5.77-21.86c-1.51-.12-3.02-.22-4.53-.32l2.75,11.53h-.02,0Z"/>
    <path class="cls-1" d="m108.14,286.68l-1.61-4.53-3.97.62,4.88,3.24.69.66h.01Z"/>
    <path class="cls-1" d="m121.21,256.62h0l8.24,33.95.19.32,64.18,110.73c11.38-.35,22.83.04,34.26,1.2,3.82,10.55,7.53,21.12,11.13,31.73-3.6-10.6-7.29-21.18-11.13-31.73-11.42-1.16-22.86-1.56-34.26-1.2l27.83,48.03h.05l23.85,24.47,41.58-24.1h0l-8.13-33.57h-.05l-75.7-130.61-8.63-4.37-8.08-23.18-3.85-1.76,2.59,8,3.99,28.88,12.45,9.21-8.83,26.47,4.43,10.92-9.64-11.69,4.72-12.28,4.07-11.29-7.25.26-7.13-9.42,1.53-12.63-2.63-16.35-6.54-6.52-.29-7.46-10.27-4.69c-.25-1.23-.51-2.48-.77-3.71-3.76-.22-7.52-.41-11.27-.67-.47-1.29-.93-2.6-1.4-3.88l-29.61,17.15.41-.24h0v.02-.02h0l-.04.03Z"/>
    <polygon class="cls-5" points="117.82 370.33 117.82 370.33 117.76 370.02 117.82 370.33"/>
    <polygon class="cls-5" points="117.9 370.69 117.9 370.69 117.81 370.33 117.9 370.69"/>
    <polygon class="cls-5" points="135.53 366.73 147.41 364.31 135.53 366.73 135.53 366.73"/>
    <path class="cls-6" d="m141.88,346.98c9.62-1.34,19.31-2.18,29.04-2.49,4.19,10.3,8.28,20.65,12.23,31.03,2.62,0,5.24.06,7.85.13l-57.3-114.43-46.4,23.24-.17-.34-6.01,3.01h0l18.26,36.47c4.2-1.17,8.41-2.26,12.66-3.23,4.28,8.04,8.43,16.13,12.56,24.26l14.88-2.38,2.41,4.7h0l-.02.02h0Z"/>
    <path class="cls-6" d="m104.87,245.5l1.61,4.53h0l20.42,19.45.42-.02c-3.09-8.58-6.24-17.13-9.49-25.62-4.33.45-8.65,1.01-12.96,1.66h0Z"/>
    <path class="cls-6" d="m165.08,322.62c-1.77-10.98-3.68-21.93-5.7-32.87-9.58-1.67-19.25-2.8-28.94-3.44l6.02,21.78,9.75,6.59-14.52-4.31-2.93-12.82-2.88-11.49c-.07,0-.15-.01-.22,0l-5.67,4.14-11.16-3.84-5.78-11.34-5.79-6.22,33.14,124.32h.05l-.09-.38,50.16-13.36.08.37,6.45-1.72-14.3-53.66c-2.55-.61-5.1-1.18-7.66-1.72h-.02v-.03h0Z"/>
    <path class="cls-6" d="m137.99,261.69l-.19.14c.07,0,.15,0,.22.02v-.15h-.03Z"/>
    <polygon class="cls-6" points="106.48 250.03 104.87 245.5 104.87 245.5 106.48 250.03 106.48 250.03"/>
    <polygon class="cls-6" points="94.2 274.72 94.2 274.72 94.19 274.73 112.53 311.15 112.53 311.15 94.2 274.72"/>
    <polygon class="cls-6" points="56.2 294.71 56.2 294.71 124.53 260.29 56.2 294.71"/>
    <polygon class="cls-6" points="126.69 285.56 131.02 294.13 131.2 294.48 124.95 260.08 56.22 294.72 78.81 320.82 74.33 311.93 126.69 285.56"/>
    <polygon class="cls-6" points="78.81 320.82 56.22 294.72 124.95 260.08 124.95 260.08 124.53 260.29 56.2 294.71 78.81 320.85 78.81 320.82"/>
    <polygon class="cls-6" points="90.02 293.23 89.82 292.92 134.21 266 129.22 257.79 79.09 288.18 84.25 296.7 84.26 296.72 90.02 293.23"/>
    <polygon class="cls-6" points="96.62 260.42 96.62 260.45 96.63 260.44 96.62 260.42"/>
    <polygon class="cls-6" points="131.37 393.35 206.62 378.08 191.82 347.27 191.79 347.27 191.79 347.27 191.77 347.27 185.23 348.6 185.32 348.96 134.45 359.3 134.37 358.93 134.37 358.93 134.37 358.93 131.37 393.35"/>
    <polygon class="cls-6" points="197.04 340.47 197.07 340.46 197.07 340.46 197.04 340.47"/>
    <path class="cls-6" d="m26.1,278.25l12.69,25.21,116.3-58.58c-2.73-9.19-5.35-18.41-7.87-27.64l-121.11,61.02h0s-.01-.01-.01-.01Z"/>
    <path class="cls-4" d="m.6,268.96c-3.11,9.03,6.5,18.89,16.3,13.95h0l9.22-4.66h0l121.12-61.03h0c-.8-2.89-1.56-5.78-2.34-8.67-8.26-1.24-16.49-2.6-24.69-3.96l-25.92,13.06c-.22.1-.44.21-.66.3-6.75,2.7-12.99-5.48-8.18-11.34h0l17.13-20.8c-1.88-8.36-3.67-16.76-5.39-25.14-2.39-.5-4.76-1.03-7.12-1.51L2.74,265.19c-.99,1.21-1.7,2.47-2.13,3.78h0v-.02h0Z"/>
    <polygon class="cls-4" points="26.1 278.25 26.1 278.25 26.11 278.25 147.23 217.25 147.22 217.24 26.1 278.25"/>
    <path class="cls-6" d="m93.63,217.95c.22-.09.43-.18.65-.29l25.92-13.06c-4.62-.76-9.22-1.55-13.82-2.35-1.31-5.46-2.56-10.94-3.8-16.42l-17.13,20.8h0c-4.79,5.83,1.44,14.02,8.17,11.32h.01Z"/>
    <polygon class="cls-5" points="117.64 370.56 118 370.49 118 370.49 117.64 370.56"/>
    <polygon class="cls-5" points="117.81 370.33 117.9 370.69 117.82 370.33 117.81 370.33"/>
    <rect class="cls-5" x="86.33" y="279.59" width="51.9" height=".75" transform="translate(-128.35 98.07) rotate(-31.06)"/>
    <rect class="cls-5" x="136.14" y="354.26" width="51.9" height=".75" transform="translate(-85.06 53.04) rotate(-14.77)"/>
    <path class="cls-6" d="m110.31,302.19l-2.38,4.55,8.69,3.17c.41-.23.84-.39,1.28-.52,1.15-3.39,2.31-6.74,3.49-10.06-4.53-3.01-8.55-1.98-11.08,2.86h0Z"/>
    <path class="cls-6" d="m224.52,332.6c-6.76-1.33-13.76.16-19.41,4.16l-5.59,3.95,14.38,1.2c.07-.02.15-.04.22-.06-.12-.13-.26-.26-.39-.37,3.59-2.98,7.17-5.94,10.77-8.89h.02,0Z"/>
    <path class="cls-6" d="m222.77,366.19l-2.38,4.55,8.69,3.17c.41-.23.84-.39,1.28-.52,1.15-3.39,2.31-6.74,3.49-10.06-4.53-3.01-8.55-1.98-11.08,2.86h0Z"/>
    <path class="cls-6" d="m492.51,295.83c2.5-5.3,5.01-10.55,7.53-15.74-6.23-6.22-12.57-5.59-17.49,1.76l-4.61,6.9,12.51,7.6c.68-.26,1.36-.43,2.06-.52h0Z"/>
    <path class="cls-6" d="m244.02,272.52c-6.83-.92-13.73.99-19.12,5.32l-5.34,4.28,14.43.33c.07-.02.15-.05.22-.07-.13-.12-.27-.24-.41-.35,3.4-3.19,6.8-6.36,10.22-9.52h0Z"/>
    <path class="cls-6" d="m241.08,280.68c-2.26,1.54-4.52,3.07-6.76,4.62l12.42.58-5.66-5.19h0Z"/>
    <path class="cls-6" d="m310.08,205.26c-2.26,1.54-4.52,3.07-6.76,4.62l12.42.58-5.66-5.19h0Z"/>
    <path class="cls-6" d="m404.11,403.73l-3.04,4.13,8.1,4.46c.44-.16.89-.26,1.34-.32,1.65-3.17,3.31-6.31,4.99-9.41-4.02-3.67-8.15-3.26-11.39,1.14h0Z"/>
    <path class="cls-6" d="m392.16,436.99c2.03-5.3,4.06-10.55,6.1-15.74-5.05-6.22-10.19-5.59-14.18,1.76l-3.74,6.9,10.14,7.6c.55-.26,1.1-.43,1.67-.52h0Z"/>
    <path class="cls-6" d="m395.69,320.02c-2.35,1.39-4.7,2.78-7.04,4.19l12.36,1.36-5.32-5.54h0Z"/>
    <path class="cls-6" d="m385.86,388.64c-2.35,1.39-4.7,2.78-7.04,4.19l12.36,1.36-5.32-5.54h0Z"/>
    <path class="cls-6" d="m454.27,213.1c-2.35,1.39-4.7,2.78-7.04,4.19l12.36,1.36-5.32-5.54h0Z"/>
    <path class="cls-6" d="m365.78,349.41l-3.04,4.13,8.1,4.46c.44-.16.89-.26,1.34-.32,1.65-3.17,3.31-6.31,4.99-9.41-4.02-3.67-8.15-3.26-11.39,1.14h0Z"/>
    <path class="cls-6" d="m615.39,322.94l-3.04,4.13,8.1,4.46c.44-.16.89-.26,1.34-.32,1.65-3.17,3.31-6.31,4.99-9.41-4.02-3.67-8.15-3.26-11.39,1.14h0Z"/>
    <path class="cls-6" d="m500.81,333.04c-2.35,1.39-4.7,2.78-7.04,4.19l12.36,1.36-5.32-5.54h0Z"/>
    <path class="cls-6" d="m641.78,344c-2.63-.73-5.26-1.45-7.9-2.16l7.6,9.84.29-7.68h.01Z"/>
    <polygon class="cls-1" points="667.92 370.76 667.93 370.79 683.58 373.41 683.67 372.85 683.58 373.38 667.92 370.76"/>
    <polygon class="cls-1" points="632.38 364.85 632.38 364.88 661.03 369.64 661.01 369.61 632.38 364.85"/>
    <path class="cls-1" d="m711.61,409.36h-.01l-.02.37-152.49-9.07h-.02l152.52,9.07.02-.38h0Z"/>
    <path class="cls-1" d="m711.61,409.35l-151.87-9.03h-.02l151.89,9.04h0Z"/>
    <polygon class="cls-1" points="535.95 367.04 576.46 373.79 576.58 373.05 576.56 373.04 576.43 373.79 535.95 367.04"/>
    <path class="cls-1" d="m625.55,375.14c-4.44-.89-8.87-1.77-13.28-2.6-1.92,1.01-3.86,2.03-5.8,3.04l18.34,1.09.74-1.53Z"/>
    <polygon class="cls-1" points="533.6 365.89 530.33 365.35 530.33 365.35 533.6 365.89"/>
    <polygon class="cls-6" points="534.84 365.89 577.8 373.04 577.8 373.04 577.82 373.05 577.7 373.79 537.19 367.04 531.82 366.16 532.01 366.76 527.32 374.75 527.4 391.54 587.33 395.1 585.98 378.76 543.86 371.75 585.98 378.76 585.23 369.6 585.21 369.6 585.21 369.6 585.16 369.6 530.04 360.41 531.57 365.35 534.84 365.89"/>
    <polygon class="cls-6" points="523.53 377.41 524.35 366.19 512.48 390.64 527.28 391.52 523.53 377.41"/>
    <path class="cls-6" d="m693.08,393.27l-1.98-24.06h-.05l-26.26-4.38,2.68,5.1,16.22,2.7-.04.21-.09.56-15.64-2.61.9,1.72,6.13,8.42-.5,8.81-1.34,1.46-3.18-5.67.93-2.19-9.55-13.15h.01l-.31-.55-28.65-4.77v-.02h0l.12-.74,28.05,4.67-2.88-5.13-24.39-4.06-13.49,27.76c3.59.72,7.19,1.46,10.79,2.22l62.5,3.72.02-.02h0Z"/>
    <path class="cls-6" d="m636.34,377.35c-3.61-.76-7.2-1.49-10.79-2.22l-.74,1.53,11.54.69h-.01Z"/>
    <polygon class="cls-6" points="713.25 381.57 713.23 381.94 713.23 381.94 713.25 381.57"/>
    <polygon class="cls-6" points="711.61 409.36 711.58 409.75 711.59 409.73 711.61 409.36 711.61 409.36 711.61 409.36"/>
    <path class="cls-6" d="m606.01,400.4l.63,7.69-70.92-11.81-46.16-2.7c.11-.11.22-.25.34-.36l19.33,1.13-19.02-1.11,42,2.46-1.33-.22.2-.41-42.19-2.51c-2.66,2.82-5.31,5.64-7.94,8.48,8.83,6.85,17.76,13.57,26.76,20.16l83.63,4.97c15.47-8.26,30.56-16.24,45.28-23.98l-30.63-1.79h.02,0Z"/>
    <path class="cls-6" d="m636.34,377.35l-11.54-.69-.21.44,14.57.85c-.94-.2-1.88-.41-2.82-.61h0Z"/>
    <path class="cls-4" d="m732.48,417.12h0v.38l-118.1.07c-8.21,6.55-16.57,13.24-25.05,20.1-11.76-.8-23.38-1.3-34.87-1.51-1.98,3.35-3.94,6.7-5.89,10.08l235.95-.13v-29.01l-52.04.02h0Z"/>
    <path class="cls-4" d="m565.46,426.57l-80.4-12.33c3.56,3.14,7.12,6.27,10.69,9.38-3.37,3.14-6.71,6.3-10.04,9.49,14.71,2.48,29.56,5.26,44.53,8.38,11.94-5.1,23.68-10.07,35.22-14.91h0Z"/>
    <path class="cls-6" d="m724.39,366.19c1.65-3.17,3.31-6.31,4.99-9.41-4.02-3.67-8.15-3.26-11.39,1.14l-3.04,4.13,8.1,4.46c.44-.16.89-.26,1.34-.32Z"/>
    <polygon class="cls-5" points="667.5 369.97 667.92 370.76 683.58 373.38 683.67 372.85 683.7 372.66 667.5 369.97"/>
    <polygon class="cls-5" points="660.56 368.8 632.5 364.13 632.38 364.85 661.01 369.61 660.56 368.8"/>
    <polygon class="cls-5" points="683.7 372.66 683.67 372.85 683.7 372.63 667.48 369.94 667.5 369.97 683.7 372.66"/>
    <polygon class="cls-5" points="660.56 368.8 660.54 368.77 632.5 364.11 632.37 364.85 632.38 364.85 632.5 364.13 660.56 368.8"/>
    <path class="cls-6" d="m732.2,407.85l9.91,7.51-1.73-7.48h0c-2.73-.02-5.46-.03-8.19-.02h.01Z"/>
    <polygon class="cls-5" points="530.58 366.14 535.95 367.04 576.43 373.79 576.56 373.04 533.6 365.89 530.33 365.35 530.58 366.14"/>
    <polygon class="cls-5" points="530.58 366.14 530.58 366.16 535.95 367.04 530.58 366.14"/>
    <polygon class="cls-5" points="576.56 373.04 533.6 365.89 576.56 373.04 576.56 373.04"/>
    <path class="cls-6" d="m712.44,387.26h0c-2.35,1.38-4.7,2.77-7.04,4.18l12.36,1.36-5.32-5.54h0Z"/>
    <path class="cls-7" d="m662.41,360.29l-6.12-1.06c-.09.5-.17,1-.26,1.51l1.64,2.91,7.14,1.19-2.39-4.55h-.01Z"/>
    <polygon class="cls-7" points="661.01 369.61 661.03 369.64 667.93 370.79 667.92 370.76 661.01 369.61"/>
    <polygon class="cls-7" points="667.48 369.94 664.8 364.83 657.66 363.64 660.54 368.77 667.48 369.94"/>
    <polygon class="cls-7" points="661.34 370.19 661.33 370.19 670.88 383.35 669.95 385.54 673.13 391.2 674.47 389.75 674.97 380.94 668.84 372.51 667.93 370.79 661.03 369.64 661.34 370.19"/>
    <polygon class="cls-7" points="667.92 370.76 667.5 369.97 660.56 368.8 661.01 369.61 667.92 370.76"/>
    <polygon class="cls-7" points="660.56 368.8 667.5 369.97 667.48 369.94 660.54 368.77 660.56 368.8"/>
    <path class="cls-6" d="m581.36,410.16l12.36,1.36-5.32-5.54h0c-2.35,1.38-4.7,2.77-7.04,4.18h0Z"/>
    <path class="cls-6" d="m600.77,407.3h.02c-1.71.17-3.42.35-5.14.54l2.55,4.86,2.57-5.4h0Z"/>
    <polygon class="cls-7" points="537.39 372.88 536.16 368.91 525.04 358.92 511.91 344.47 507.74 343.76 506.52 349.2 507.62 349.55 532.22 371.67 531.7 378.66 534.73 372.44 537.39 372.88"/>
    <polygon class="cls-7" points="527.28 391.52 527.4 391.54 527.32 374.75 532.01 366.76 531.82 366.16 526.47 365.26 526.59 364.51 526.62 364.52 526.62 364.52 531.57 365.35 530.04 360.41 527.38 359.98 524.35 366.19 523.53 377.41 527.28 391.52"/>
    <polygon class="cls-7" points="514.39 370.54 514.39 370.1 514.28 370.1 514.39 370.54"/>
    <polygon class="cls-7" points="530.58 366.14 530.33 365.35 525.38 364.52 525.26 365.26 530.58 366.14"/>
    <polygon class="cls-7" points="525.26 365.26 525.38 364.52 525.35 364.51 525.23 365.26 530.58 366.16 530.58 366.14 525.26 365.26"/>
    <path class="cls-6" d="m428.25,441.93c1.65-3.17,3.31-6.31,4.99-9.41-4.02-3.67-8.15-3.26-11.39,1.14h0l-3.04,4.13,8.1,4.46c.44-.16.89-.26,1.34-.32h0Z"/>
    <path class="cls-6" d="m444.79,352.11h0c-2.35,1.38-4.7,2.77-7.04,4.18l12.36,1.36-5.32-5.54h0Z"/>
    <path class="cls-6" d="m730.64,396.05c-1.6,1.05-3.19,2.1-4.8,3.16-7.54-.86-15.03-1.65-22.49-2.38l-62.46-.99h.02l.33-1.05-19.35,1.76c-13.41,9.84-27.15,19.97-41.22,30.44l151.53-13.62-1.56-17.31h0Z"/>
    <g>
      <path class="cls-6" d="m253.46,399.38c.16-1.02.31-2.04.47-3.06-9.4-4.55-18.9-8.31-28.4-11.29.63-3.4,1.26-6.83,1.88-10.26l-113.56,13.24,3.19,27.27h0l136.42-15.9h0Z"/>
      <path class="cls-6" d="m245.97,375.23c8.68,4.89,17.18,10.54,25.44,16.94-.36.97-.74,1.94-1.1,2.9l118.49,11.1c-8.76-6.89-17.44-13.91-26.03-21.03,2.72-2.76,5.47-5.49,8.23-8.22l-121.04-11.34c-1.33,3.23-2.65,6.45-3.98,9.65h0Z"/>
      <path class="cls-4" d="m406.03,421.93c-3.49-3.22-6.96-6.46-10.44-9.7l.02-.02h-.05s.03.02.04.03l-118.41-21.72c-2.81,5.82-5.61,11.62-8.39,17.37,3.41,3.86,6.73,7.87,9.96,12.03l107.61,19.73c6.49-5.99,13.03-11.92,19.66-17.72h0Z"/>
      <path class="cls-4" d="m259.04,401.68l-136.9,8.19h0l-.02-.34h0v-.04l-67.47,4.06,1.74,28.96,211.2-12.65c-4.14-3.27-8.32-6.37-12.55-9.31,1.33-6.24,2.66-12.54,4-18.87h0Z"/>
    </g>
    <path class="cls-4" d="m662.83,135.77l85.01,57.19-111.32-103.07c.64,2.73,1.3,5.45,1.98,8.17-4.57.79-9.14,1.63-13.69,2.5.02.01.04.03.06.05l37.97,35.15h0s0,.01,0,.01h0Z"/>
    <path class="cls-7" d="m145.22,331.69l24.61,7.67c-.76-1.88-1.53-3.75-2.29-5.63l-2.57-.8-17.96-7.67-13.32,3.62-10.26-5.66s-.11,0-.17-.02l-.03-.1-5.8-3.19-3.19-6.25-6.13-20.03-4.14,2.08,14.83,29.36,13.84,8.05,12.55-1.47h0v.03h.03Z"/>
    <path class="cls-6" d="m769.51,388.04l-3.04,4.13,8.1,4.46c.44-.16.89-.26,1.34-.32,1.65-3.17,3.31-6.31,4.99-9.41-4.02-3.67-8.15-3.26-11.39,1.14h0Z"/>
    <path class="cls-6" d="m755.03,402.88c2.03-5.3,4.06-10.55,6.1-15.74-5.05-6.22-10.19-5.59-14.18,1.76l-3.74,6.9,10.14,7.6c.55-.26,1.1-.43,1.67-.52h.01Z"/>
    <path class="cls-6" d="m730.85,349.94c-2.35,1.39-4.7,2.78-7.04,4.19l12.36,1.36-5.32-5.54h0Z"/>
    <path class="cls-6" d="m700.94,379.33l-3.04,4.13,8.1,4.46c.44-.16.89-.26,1.34-.32,1.65-3.17,3.31-6.31,4.99-9.41-4.02-3.67-8.15-3.26-11.39,1.14h0Z"/>
    <path class="cls-6" d="m772.31,409.55h0c-2.35,1.38-4.7,2.77-7.04,4.18l12.36,1.36-5.32-5.54h0Z"/>
    <path class="cls-6" d="m707.81,314.19l-3.04,4.13,8.1,4.46c.44-.16.89-.26,1.34-.32,1.65-3.17,3.31-6.31,4.99-9.41-4.02-3.67-8.15-3.26-11.39,1.14h0Z"/>
    <path class="cls-6" d="m714.26,358.63c2.03-5.3,4.06-10.55,6.1-15.74-5.05-6.22-10.19-5.59-14.18,1.76l-3.74,6.9,10.14,7.6c.55-.26,1.1-.43,1.67-.52h.01Z"/>
    <path class="cls-6" d="m664.09,301.9c-2.35,1.39-4.7,2.78-7.04,4.19l12.36,1.36-5.32-5.54h0Z"/>
    <path class="cls-6" d="m660.17,335.1l-3.04,4.13,8.1,4.46c.44-.16.89-.26,1.34-.32,1.65-3.17,3.31-6.31,4.99-9.41-4.02-3.67-8.15-3.26-11.39,1.14h0Z"/>
    <path class="cls-6" d="m747.77,350.26h0c-2.35,1.38-4.7,2.77-7.04,4.18l12.36,1.36-5.32-5.54h0Z"/>
    <path class="cls-4" d="m286.94,426.57l-80.4-12.33c3.56,3.14,7.12,6.27,10.69,9.38-3.37,3.14-6.71,6.3-10.04,9.49,14.71,2.48,29.56,5.26,44.53,8.38,11.94-5.1,23.68-10.07,35.22-14.91h0Z"/>
    <path class="cls-7" d="m112.1,387.26l-5.23-25.24c-1.28,1.58-2.54,3.16-3.81,4.73l.55,2.64,2.01,19.43,9.63,9.89.03,11.72s.05.1.06.16l-.07.07.02,6.62-3.92,5.82-14.54,15.08,3.83,2.61,18.48-27.21.33-16.01-7.37-10.26h.03v-.04h-.03Z"/>
    <path class="cls-6" d="m107.86,404.63l-2.38,4.55,8.69,3.17c.41-.23.84-.39,1.28-.52,1.15-3.39,2.31-6.74,3.49-10.06-4.53-3.01-8.55-1.98-11.08,2.86h0Z"/>
    <g>
      <path class="cls-4" d="m726.83,213.04l-13.15,24.42,38.39,28.98v-.02s.01,0,.01,0l16.03,12.09c5.94,4.49,13.01,2.24,16.49-2.58,2.38-3.31,3.09-7.87.6-12.31l-27.98-35.97-3.33,6.19-27.06-20.8Z"/>
      <path class="cls-4" d="m699.57,180.37c4.84,6.12-2.14,14.52-9.04,10.87l-160.41-84.83c2.06,10.03,4.25,20.03,6.58,30l169.65,89.72,9.09-26.2,30.03,16.22,2.3-6.64-95.33-88.71,47.13,59.57Z"/>
    </g>
    <g id="Group_133" data-name="Group 133">
      <path id="Path_1" data-name="Path 1" class="cls-3" d="m412.56,1.07c8.75-1.12,17.6,1.1,24.8,6.2l128.94,91.83c7.69,5.46,12.73,13.87,13.94,23.2l15.21,121.32c2.34,18.6-11.25,35.68-30.28,38.06l-231.21,28.99c-19.02,2.38-36.4-10.8-38.73-29.4l-15.21-121.32c-1.13-9.35,1.68-18.75,7.77-25.93L390.07,13.21c5.7-6.73,13.73-11.06,22.49-12.12h.01v-.02Z"/>
      <path id="Path_13" data-name="Path 13" class="cls-7" d="m536.98,204.76l4.44,35.33,17.37-2.17.64,5.12-62.33,7.83-.64-5.12,17.37-2.17-4.44-35.33-68.83,8.63-2.77-22.12,53.21-97.45,32-4.02,13.11,104.48,22.38-2.8.87,7.02-22.37,2.8h0v-.02Zm-35.99-73.94l-33.31,60.15,40.21-5.05-6.91-55.12h.01Z"/>
      <path id="Path_14" data-name="Path 14" class="cls-7" d="m437.29,229.75c-2.61,6.64-6.51,12.7-11.48,17.84-5.08,5.26-11.01,9.63-17.55,12.9-6.44,3.33-13.4,5.49-20.58,6.4-3.37.41-6.77.55-10.17.45-3.73-.08-7.42-.45-11.08-1.16-3.56-.68-7.05-1.71-10.38-3.12-3.09-1.25-5.92-3.07-8.36-5.35l1.35,10.76-6.39.8-6.1-48.54,10.06-1.25c.44,3.62,1.9,7.02,4.25,9.82,2.35,2.86,5.26,5.23,8.54,6.95,3.36,1.77,6.98,3.04,10.71,3.77,3.53.74,7.17.92,10.76.52,3.36-.47,6.65-1.39,9.77-2.75,3.41-1.41,6.61-3.26,9.52-5.5,2.84-2.15,5.19-4.85,6.9-7.96,1.7-3.09,2.36-6.63,1.87-10.11-.73-5.81-3.19-10.02-7.4-12.67-4.78-2.87-9.98-4.97-15.43-6.2-6.07-1.48-12.59-2.82-19.57-4.05-6.83-1.16-13.48-3.19-19.81-6.01-6.28-2.79-11.8-7-16.17-12.27-4.55-5.4-7.44-12.98-8.67-22.75-.89-6.68.11-13.5,2.87-19.67,2.77-6.22,6.67-11.88,11.5-16.67,4.92-4.91,10.62-8.96,16.86-11.99,6.02-3.03,12.46-5,19.14-5.89,3.11-.37,6.23-.53,9.36-.49,3.49.02,7,.33,10.46.89,3.37.55,6.68,1.46,9.87,2.71,2.91,1.11,5.57,2.8,7.84,4.94l-1.14-9.15,5.48-.69,5.52,43.95-9.61,1.21c-.37-3.14-1.77-6.08-3.95-8.35-2.3-2.39-4.98-4.38-7.95-5.87-3.05-1.54-6.32-2.63-9.69-3.2-3.05-.57-6.15-.68-9.22-.36-3.11.44-6.18,1.26-9.11,2.42-3.26,1.23-6.28,2.94-9,5.09-2.6,2.03-4.8,4.52-6.52,7.33-1.66,2.76-2.33,6.01-1.88,9.19.73,5.81,3.23,10.03,7.52,12.67,4.75,2.82,9.97,4.84,15.4,5.98,5.97,1.34,12.47,2.54,19.52,3.6,6.8.99,13.48,2.9,19.76,5.65,6.21,2.76,11.73,6.87,16.16,12.04,4.63,5.32,7.55,12.86,8.77,22.62,1,7.25.14,14.65-2.52,21.48l.02.03h0l-.03-.04h0l.02.02Z"/>
    </g>
  </g>
</svg>