<?xml version="1.0" encoding="UTF-8"?>
<svg id="Layer_2" data-name="Layer 2" xmlns="http://www.w3.org/2000/svg" viewBox="0 0 778.03 728.83">
  <defs>
    <style>
      .cls-1 {
        fill: rgba(92, 92, 92, 0);
      }

      .cls-1, .cls-2, .cls-3, .cls-4, .cls-5, .cls-6, .cls-7 {
        stroke-width: 0px;
      }

      .cls-2 {
        fill: none;
      }

      .cls-3 {
        fill: #756746;
      }

      .cls-4 {
        fill: #5c5c5c;
      }

      .cls-5 {
        fill: #2c2c7c;
      }

      .cls-6 {
        fill: #d0d8d7;
      }

      .cls-7 {
        fill: #fff;
      }
    </style>
  </defs>
  <g id="Layer_8" data-name="Layer 8">
    <g>
      <polygon class="cls-2" points="519.05 648.43 519.05 648.44 519.05 648.43 472.29 643.3 519.05 648.43"/>
      <path class="cls-5" d="m375.88,212.07l1.1.29-.16-.37c-.31.02-.62.04-.94.07Z"/>
      <path class="cls-2" d="m196.1,246.76l111.47-62.47s.02-.01.03-.02c.33-.19.64-.34.93-.49,6.84-3.67,14.27-5.9,21.85-6.63,7.93-.76,16.02.11,23.75,2.66l3.17,1.05c-1.57-1.94-3.15-3.89-4.7-5.84l-173.95,16.72c-2.87,12.61-5.57,25.27-8.07,37.96,8.41,5.76,16.94,11.43,25.53,17.05Z"/>
      <path class="cls-2" d="m255.99,347.32l60.31-5.8-1.29,6.67c2.61-2.45,5.23-4.88,7.86-7.31l-66.87,6.43h0Z"/>
      <path class="cls-2" d="m243.86,364.17c.1.69.2,1.37.3,2.06l.84-1.47c-.38-.2-.76-.39-1.14-.59Z"/>
      <path class="cls-2" d="m225.64,350.22c-.11,1.37-.23,2.74-.34,4.11,3.31,1.78,6.65,3.53,9.98,5.29.8-3.52,1.59-7.04,2.39-10.56l-12.03,1.16Z"/>
      <polygon class="cls-2" points="252.88 347.61 241.62 348.69 241.62 348.7 252.88 347.62 252.88 347.61"/>
      <path class="cls-2" d="m245.2,364.4l-2.2-6.17c.29,1.98.57,3.96.86,5.94.38.2.76.39,1.14.59l.2-.35Z"/>
      <rect class="cls-5" x="185.4" y="387.77" width="0" height=".37" transform="translate(-23.84 12.32) rotate(-3.58)"/>
      <rect class="cls-5" x="185.36" y="387.39" width="0" height=".38" transform="translate(-36.26 19.53) rotate(-5.49)"/>
      <path class="cls-6" d="m259.42,414.11l7.5,9,13.72,1.47,13.95,13.67,2.11,1.68c-.04-2.9-.07-5.8-.08-8.7-12.51-5.59-24.91-11.3-37.18-17.12Z"/>
      <path class="cls-6" d="m258.49,386.14l-.07-.75,1.79-.17c.07-1.55.14-3.11.21-4.66l-4.53.43-1.56,20.88.7,6.98,4.23,5.08c.19-9.33.5-18.65.9-27.96l-1.68.16Z"/>
      <path class="cls-6" d="m306.87,469.35l-5.71-4.56c.15,8.57.37,17.15.7,25.73,2.18.91,4.38,1.79,6.57,2.69l-1.84-5.6.28-18.26Z"/>
      <path class="cls-6" d="m251.65,353.14l1.23-5.53-11.26,1.08,1.38,9.53,2.2,6.17,6.45-11.26Z"/>
      <path class="cls-6" d="m248.61,373.22l2.04,1.58-.32-3.3,6.54-.63c-2.45-1.25-4.89-2.51-7.32-3.77l-.31.74-.63,5.38Z"/>
      <path class="cls-6" d="m314.93,348.59l.08-.4c-.09.08-.17.16-.26.24.06.05.12.11.18.16Z"/>
      <path class="cls-6" d="m250.65,374.8l5.4,4.18-.15,2.01,4.53-.43c.12-2.56.24-5.11.38-7.67-1.32-.67-2.62-1.35-3.93-2.03l-6.54.63.32,3.3Z"/>
      <rect class="cls-5" x="310.12" y="380.43" width="0" height=".75" transform="translate(-35.02 31.43) rotate(-5.49)"/>
      <path class="cls-5" d="m258.49,386.14l1.68-.16c.01-.25.02-.5.03-.76l-1.79.17.07.75Z"/>
      <path class="cls-5" d="m260.18,385.98l49.98-4.8-.07-.75-49.88,4.79c-.01.25-.02.5-.03.76Z"/>
      <path class="cls-6" d="m240.11,338.28c.5,3.47,1,6.94,1.51,10.41l11.26-1.08,2.13-9.58-3.83-3.41.24-5.66-4.77-7.47,2.46-1.88-20.79,2c-1,9.52-1.89,19.06-2.68,28.62l12.03-1.16c.81-3.6,1.63-7.19,2.44-10.79Z"/>
      <path class="cls-4" d="m307.57,184.3s.02-.01.03-.02c-.01,0-.02.01-.03.02l-111.47,62.47s0,0,0,0l111.47-62.47Z"/>
      <polygon class="cls-4" points="228.32 321.61 228.32 321.61 249.11 319.61 249.11 319.61 228.32 321.61"/>
      <polygon class="cls-4" points="255.44 319 344.45 310.45 344.45 310.45 255.44 319 255.44 319"/>
      <path class="cls-1" d="m76.25,313.92h0c-1.37.77-2.48,1.7-3.36,2.74.88-1.04,1.99-1.97,3.36-2.74Z"/>
      <polygon class="cls-1" points="249.11 319.61 249.11 319.61 228.32 321.61 228.32 321.61 249.11 319.61"/>
      <polygon class="cls-1" points="255.44 319 344.45 310.45 344.45 310.44 255.44 319 255.44 319"/>
      <g>
        <path class="cls-6" d="m259.27,413.93l.14.17c12.28,5.82,24.67,11.53,37.18,17.12.02,2.9.05,5.8.08,8.7l9.58,7.64,3.79,10.14-4.22,8.24.59,9.46c4.43,1.82,8.86,3.63,13.32,5.41l-9.58-99.63-49.98,4.8c-.4,9.31-.71,18.63-.9,27.96Z"/>
        <path class="cls-6" d="m260.42,380.56c-.07,1.55-.15,3.11-.21,4.66l49.88-4.79-.44-4.61h0s-49.22,4.74-49.22,4.74Z"/>
        <path class="cls-6" d="m255.99,347.32l-1.03,6.67-5.41,13.11c2.44,1.26,4.88,2.52,7.32,3.77l51.82-4.98.95,9.93,5.28-27.23c-.06-.05-.12-.11-.18-.16.09-.08.17-.16.26-.24l1.29-6.67-60.31,5.8Z"/>
        <path class="cls-6" d="m260.42,380.56l49.22-4.73h0s-.95-9.94-.95-9.94l-51.82,4.98c1.31.67,2.62,1.36,3.93,2.03-.14,2.55-.26,5.11-.38,7.67Z"/>
        <path class="cls-6" d="m252.39,322.58l5.08,15.18-1.48,9.55,66.87-6.43c9.1-8.4,18.31-16.65,27.61-24.76-2.02-1.88-4.02-3.78-6.03-5.67l-89.02,8.56-3.05,3.58Z"/>
        <path class="cls-4" d="m229.29,312.68c-.33,2.97-.65,5.95-.97,8.93l20.79-2,16.61-12.68-10.28,12.07,89.01-8.56c-7.44-7.04-14.77-14.18-21.99-21.44l-114.74,11.03c7.14,4.25,14.32,8.48,21.57,12.64Z"/>
        <path class="cls-4" d="m307.57,184.3l-111.47,62.47c2.03,1.33,4.05,2.68,6.09,4-1.45,8.44-2.8,16.91-4.08,25.38l112.37-62.97-.14-.02c-15.08-4.98,10.14-35.28-1.82-29.36-.29.14-.59.3-.93.49-.01,0-.02.01-.03.02Z"/>
        <path class="cls-6" d="m311.29,227.47c-2.74,2.84-4.88,6.21-6.28,9.9-2.82,7.44-2.02,15.76,2.16,22.52,2.08,3.36,4.82,6.25,8.05,8.52,3.4,2.4,7.21,4.16,11.25,5.19,1.4.36,2.8.63,4.22.82,8.42-6.93,16.92-13.75,25.48-20.45-10.12-10.66-20-21.54-29.63-32.64,1.98-1.49,3.96-2.97,5.95-4.45h-.01c-3.86.53-7.61,1.66-11.14,3.34-3.76,1.78-7.17,4.24-10.05,7.25Z"/>
        <path class="cls-6" d="m195.68,292.83c3.99,2.42,8.01,4.81,12.03,7.2l114.74-11.03c-1.41-1.41-2.82-2.82-4.22-4.24,3.87-3.26,7.75-6.48,11.65-9.69-1.21-.19-2.42-.44-3.61-.75-4.12-1.06-8.02-2.86-11.49-5.31-3.32-2.32-6.12-5.3-8.26-8.74-4.3-6.96-5.12-15.52-2.23-23.18,1.44-3.79,3.63-7.24,6.44-10.15,2.94-3.07,6.42-5.58,10.27-7.4,2.96-1.4,6.07-2.41,9.24-3.04l-19.78-3.34-112.37,62.97c-.84,5.56-1.65,11.12-2.42,16.68Z"/>
      </g>
      <path class="cls-5" d="m310.74,226.96c-2.81,2.91-5,6.37-6.44,10.15-2.9,7.65-2.07,16.22,2.23,23.18,2.13,3.44,4.94,6.41,8.26,8.74,3.48,2.45,7.37,4.25,11.49,5.31,1.19.31,2.4.56,3.61.75.27-.22.53-.44.8-.65-1.41-.2-2.82-.47-4.22-.82-4.03-1.03-7.85-2.79-11.25-5.19-3.23-2.27-5.97-5.16-8.05-8.52-4.18-6.76-4.98-15.08-2.16-22.52,1.4-3.69,3.54-7.06,6.28-9.9,2.88-3.01,6.29-5.46,10.05-7.25,3.52-1.68,7.28-2.81,11.14-3.34l-2.22-.37c-3.17.63-6.28,1.64-9.24,3.04-3.85,1.82-7.33,4.33-10.27,7.4Z"/>
      <g>
        <path class="cls-2" d="m322.52,405.27h0s-.06.75-.06.75h0s-7.54,99.81-7.54,99.81c5.12,3.16,10.26,6.31,15.43,9.43-1.41,13.21-2.61,26.46-3.59,39.74.98-13.28,2.18-26.53,3.59-39.74-5.17-3.12-10.3-6.27-15.43-9.43l-5.9,78.19h.05s5.84,33.68,5.84,33.68l16.69,1.26c7.61-7.78,15.32-15.45,23.14-22.99-12.4-10.26-24.61-20.77-36.62-31.53,11.23-10.46,22.67-20.68,34.28-30.66-11.62-10.75-23.03-21.74-34.22-32.96,12.01-9.97,24.19-19.68,36.54-29.15-10.8-11.2-21.38-22.61-31.72-34.25,12.74-9.43,25.64-18.6,38.69-27.5-9.9-11.53-19.56-23.27-28.97-35.2l-9.85,25.93-.35,4.62Z"/>
        <rect class="cls-5" x="275.73" y="560.59" width=".75" height="51.9" transform="translate(-329.57 817.67) rotate(-85.68)"/>
        <g>
          <path class="cls-6" d="m314.93,505.83c-4.09-2.52-8.14-5.06-12.2-7.6l-.84,7.7-1.33-9.06c-2-1.26-4.02-2.5-6.01-3.77,1.14-8.51,2.38-17,3.69-25.48l-17.11-19.29-11.51-5.23-7.69-14.05-11.37,150.56h.05s58.41,4.41,58.41,4.41l5.9-78.19Z"/>
          <path class="cls-6" d="m309.07,584.02h-.05s-58.41-4.41-58.41-4.41l-12.26,32.31,76.57,5.78-5.84-33.67Zm-58.87.94l.06-.75,51.76,3.91-.06.75-51.76-3.91Z"/>
          <path class="cls-5" d="m314.98,618.08l16.28,1.23c.11-.12.23-.23.34-.35l-16.69-1.26.07.38Z"/>
        </g>
        <polygon class="cls-5" points="314.98 618.08 314.91 617.7 238.34 611.92 238.21 612.28 314.98 618.08"/>
        <rect class="cls-5" x="276.59" y="576.69" width="0" height="76.99" transform="translate(-357.67 844.67) rotate(-85.68)"/>
      </g>
      <rect class="cls-5" x="122.71" y="640.17" width="0" height=".37" transform="translate(-59.24 14.25) rotate(-5.36)"/>
      <path class="cls-6" d="m409.03,363.08c4.63-3.45,9.28-6.88,13.95-10.27-9.6-3.14-20.08-2.11-28.89,2.82l-8.27,4.63,19.78,3.34c1.14-.22,2.28-.4,3.43-.52Z"/>
      <path class="cls-6" d="m391.15,474.92l-3.04,4.13,8.1,4.46c.44-.16.89-.26,1.34-.32,1.65-3.17,3.31-6.31,4.99-9.41-4.02-3.67-8.15-3.26-11.39,1.14Z"/>
      <path class="cls-6" d="m371.82,469.83c2.5-5.3,5.01-10.55,7.53-15.74-6.23-6.22-12.57-5.59-17.49,1.76l-4.61,6.9,12.51,7.6c.68-.26,1.36-.43,2.06-.52Z"/>
      <path class="cls-6" d="m420.96,512.01c-6.61-1.95-13.71-1.12-19.71,2.35l-5.93,3.42,14.21,2.53c.07-.01.15-.03.22-.04-.11-.14-.23-.28-.35-.41,3.84-2.64,7.69-5.25,11.55-7.85Z"/>
      <path class="cls-6" d="m391.15,407.86l-3.04,4.13,8.1,4.46c.44-.16.89-.26,1.34-.32,1.65-3.17,3.31-6.31,4.99-9.41-4.02-3.67-8.15-3.26-11.39,1.14Z"/>
      <path class="cls-6" d="m350.15,534.87l-3.04,4.13,8.1,4.46c.44-.16.89-.26,1.34-.32,1.65-3.17,3.31-6.31,4.99-9.41-4.02-3.67-8.15-3.26-11.39,1.14Z"/>
      <path class="cls-6" d="m391.15,569.97l-3.04,4.13,8.1,4.46c.44-.16.89-.26,1.34-.32,1.65-3.17,3.31-6.31,4.99-9.41-4.02-3.67-8.15-3.26-11.39,1.14Z"/>
      <path class="cls-4" d="m496.61,236.63l-2.89-1.67c-2.99-1.73-6.11-3.15-9.31-4.31l-43.5,18.97c-1,3.63-.51,6.93,3.16,9.05l.13.05,9.04-2.85c9.64-3.04,20.1-1.9,28.86,3.12,7.08-3.19,14.18-6.32,21.3-9.38-2.3-4.31-4.55-8.64-6.79-12.98Z"/>
      <path class="cls-4" d="m716.18,389.26l-19.96-2.19h0s19.96,2.19,19.96,2.19c7.4.81,12.33-4.73,12.85-10.67-.51,5.95-5.44,11.49-12.85,10.67Z"/>
      <polygon class="cls-4" points="696.22 387.07 457.64 360.87 457.64 360.87 696.22 387.07 696.22 387.07"/>
      <path class="cls-1" d="m729.03,378.59c.35-4.07-1.37-8.33-5.78-10.88h0s0,0,0,0c4.41,2.55,6.13,6.81,5.78,10.88Z"/>
      <polygon class="cls-1" points="696.22 387.07 457.64 360.87 457.64 360.87 696.22 387.07 696.22 387.07"/>
      <path class="cls-6" d="m479.46,270.69c-4.01-1.98-8.34-3.24-12.78-3.71-.56-.06-1.12-.11-1.68-.15,0,0,0,0,0,0l21.36,8.34c-2.1-1.76-4.41-3.27-6.89-4.48Z"/>
      <path class="cls-6" d="m473.61,324c4.05-.98,7.88-2.69,11.32-5.04,3.26-2.22,6.04-5.08,8.17-8.41,4.27-6.71,5.18-15.02,2.47-22.49-1.35-3.71-3.44-7.11-6.15-9.98-.96-1.03-1.99-1.99-3.07-2.9l-21.36-8.34c-2.24,1.05-4.49,2.09-6.73,3.15,7.17,12.83,14.62,25.5,22.36,37.99-9.75,4.81-19.46,9.76-29.11,14.83,7.07,2.53,14.75,2.97,22.1,1.2Z"/>
      <path class="cls-4" d="m696.22,387.07l19.96,2.19c7.4.81,12.33-4.73,12.85-10.67.35-4.07-1.37-8.33-5.78-10.88h0s-163.74-63.96-163.74-63.96l65.75,38.02c6.76,3.91,3.36,14.29-4.4,13.43l-180.37-19.81c5.6,8.57,11.32,17.06,17.16,25.47l238.58,26.2h0Z"/>
      <polygon class="cls-2" points="580.12 621.43 580.07 621.42 591.35 518.76 584.17 520.01 571.1 531.21 579.69 518.85 592.36 509.6 595.08 484.78 595.35 475 590.54 463.31 596.96 438.43 599.87 436.63 595.4 404.4 621.79 407.3 621.79 407.29 451.97 388.64 452.45 388.98 451.95 411.93 453.03 418.86 465.63 432.46 475.18 432.98 476.05 425.02 471.31 390.78 547.84 399.18 534.33 431.42 533.83 436.01 533.83 436.01 533.75 436.75 533.75 436.75 514.26 614.19 514.31 614.2 519 648.05 566.77 653.3 580.12 621.43"/>
      <path class="cls-2" d="m455.98,607.79l18.59-169.28-11.26-2.31-17.04-19.24,1.01-24.53-4.62-4.81-12.36-1.36c-3.07,1.84-6.13,3.69-9.18,5.55l-.16.38c9,12.25,18.26,24.31,27.76,36.17-9.42,5.97-18.77,12.09-28.05,18.33.34.1.69.2,1.03.32-3.34,2.51-6.67,5.04-9.99,7.6-.75.08-1.5.2-2.24.34,9.83,11.84,19.9,23.47,30.19,34.9-12.66,9.04-25.17,18.33-37.51,27.89,10.8,11.59,21.84,22.96,33.08,34.1-11.95,9.58-23.72,19.4-35.3,29.47,11.64,11.16,23.49,22.08,35.53,32.76-8.07,7.27-16.04,14.67-23.91,22.19l31.13,3.42,13.35-31.87h-.05Z"/>
      <polygon class="cls-2" points="594.93 463.14 597.07 466.71 599.47 444.8 599.16 445.09 594.93 463.14"/>
      <path class="cls-2" d="m493.2,229.95c1.12,2.23,2.27,4.46,3.41,6.68l226.63,131.08h0c4.41,2.55,6.13,6.82,5.78,10.89-.51,5.95-5.44,11.49-12.85,10.67l-19.96-2.19-3.08,28.06-63.91-7.02s0,0,0,0l42.71,4.69-13.5,32.23-.51,4.6-.08.75-19.49,177.44h.05s4.69,33.86,4.69,33.86l22.68,2.49-.04.37h0s-3.08,28.06-3.08,28.06l67.18,7.38,48.19-438.75-284.84-31.28Z"/>
      <polygon class="cls-6" points="482.15 431.09 482.24 430.34 533.83 436.01 534.33 431.42 476.05 425.02 475.18 432.98 479.4 433.21 494.05 446.13 506.21 454.82 510.53 464.74 506.75 473.19 508.73 490.29 503.28 476.26 502.6 458.01 475.7 438.75 474.57 438.52 455.98 607.79 456.03 607.8 514.26 614.19 533.75 436.75 482.15 431.09"/>
      <polygon class="cls-6" points="535.42 421.49 534.33 431.42 547.84 399.18 471.31 390.78 476.05 425.02 477.14 415.09 535.42 421.49"/>
      <rect class="cls-6" x="500.74" y="393.94" width="9.99" height="58.63" transform="translate(29.8 879.76) rotate(-83.73)"/>
      <rect class="cls-5" x="533.41" y="436.38" width=".75" height="0" transform="translate(41.72 919.32) rotate(-83.73)"/>
      <rect class="cls-5" x="507.62" y="407.59" width=".75" height="51.9" transform="translate(21.58 891.17) rotate(-83.73)"/>
      <path class="cls-6" d="m514.31,614.2h-.05s-58.23-6.4-58.23-6.4l-13.35,31.87,76.33,8.38-4.69-33.85Zm-7.27,4.6l-51.59-5.67.08-.75,51.59,5.67-.08.75Z"/>
      <rect class="cls-5" x="480.9" y="589.64" width=".75" height="51.91" transform="translate(-183.18 1026.79) rotate(-83.73)"/>
      <polygon class="cls-6" points="595.08 484.78 592.36 509.6 594.43 508.08 595.08 484.78"/>
      <polygon class="cls-6" points="605.93 439.27 604.3 440.32 599.47 444.8 597.07 466.71 602.02 474.98 599.5 494.35 599.1 509.28 593.29 518.42 591.35 518.76 580.07 621.42 580.12 621.43 638.35 627.82 657.84 450.38 606.25 444.72 606.33 443.97 657.92 449.64 658.43 445.04 658.43 445.04 605.93 439.27"/>
      <polygon class="cls-6" points="599.87 436.63 600.41 436.31 601.24 428.72 610.98 429.79 617.86 425.55 621.79 407.3 595.4 404.4 599.87 436.63"/>
      <path class="cls-6" d="m623.61,427.9l-4.35,2.8,40.26,4.42-1.09,9.92,13.5-32.23-42.71-4.69c-1.81,1.82-3.62,3.65-5.42,5.47l-.18,14.31Z"/>
      <polygon class="cls-6" points="600.41 436.31 610.98 429.79 601.24 428.72 600.41 436.31"/>
      <polygon class="cls-6" points="619.26 430.7 605.93 439.27 658.43 445.04 658.43 445.04 659.52 435.12 619.26 430.7"/>
      <rect class="cls-5" x="631.71" y="421.22" width=".75" height="51.9" transform="translate(118.57 1026.66) rotate(-83.73)"/>
      <path class="cls-6" d="m566.77,653.3l76.33,8.38-4.69-33.85h-.05s-58.23-6.4-58.23-6.4l-13.35,31.87Zm64.36-20.87l-51.59-5.67.08-.75,51.59,5.67-.08.75Z"/>
      <rect class="cls-5" x="605" y="603.27" width=".75" height="51.91" transform="translate(-86.18 1162.28) rotate(-83.73)"/>
      <path class="cls-6" d="m451.97,388.64l169.82,18.65,1.31-6.07c7.8-3.52,15.61-7.04,23.41-10.56-5.76,5.82-11.52,11.63-17.29,17.45l63.91,7.02,3.08-28.06-238.58-26.2c1.58,2.26,3.15,4.53,4.74,6.78-7.31,4.1-14.58,8.28-21.82,12.53.04.21.08.43.13.64l11.27,7.82Z"/>
      <path class="cls-6" d="m437.64,447.4c-2.35,1.39-4.7,2.78-7.04,4.19l12.36,1.36-5.32-5.54Z"/>
      <path class="cls-6" d="m662.66,692.61h0s3.08-28.06,3.08-28.06h0s-.04.37-.04.37l-254.87-27.99c-2.8,2.68-5.58,5.37-8.35,8.08,8.48,7.28,17.06,14.43,25.72,21.47l234.51,25.76-.04.37Z"/>
      <path class="cls-4" d="m662.66,692.61l-.04.37-233.36-25.63c3.69,2.99,7.39,5.97,11.1,8.93-6.19,6.28-12.3,12.65-18.34,19.09l304.66,33.46,3.17-28.84-67.18-7.38h0Z"/>
      <path class="cls-4" d="m559.5,303.75l163.74,63.95-226.63-131.08c2.23,4.34,4.49,8.67,6.79,12.98-7.12,3.06-14.22,6.19-21.3,9.38.04.02.07.04.11.06l77.29,44.7Z"/>
      <path class="cls-6" d="m488.35,275.96l71.15,27.79-77.29-44.7s-.07-.04-.11-.06c-5.26,2.37-10.51,4.78-15.75,7.21,4.64.46,9.2,1.74,13.45,3.82,3.14,1.54,6.02,3.55,8.55,5.94Z"/>
      <path class="cls-6" d="m625.25,341.77l-65.75-38.02-71.15-27.79c.55.52,1.09,1.05,1.61,1.61,2.77,2.95,4.92,6.44,6.3,10.24,2.79,7.69,1.85,16.24-2.54,23.14-2.18,3.41-5.03,6.35-8.37,8.63-3.51,2.41-7.43,4.15-11.56,5.15-4.43,1.08-9.01,1.38-13.54.86-3.31-.35-6.55-1.14-9.65-2.32-4.47,2.35-8.93,4.71-13.38,7.11,1.08,1.67,2.18,3.34,3.27,5.01l180.37,19.81c7.76.85,11.17-9.52,4.4-13.43Z"/>
      <path class="cls-5" d="m479.46,270.69c2.47,1.21,4.78,2.72,6.89,4.48l2,.78c-2.54-2.39-5.42-4.4-8.55-5.94-4.25-2.08-8.81-3.36-13.45-3.82-.45.21-.9.42-1.35.63.56.04,1.12.09,1.68.15,4.45.47,8.77,1.73,12.78,3.71Z"/>
      <path class="cls-5" d="m473.79,324.73c4.14-1,8.05-2.75,11.56-5.15,3.35-2.28,6.2-5.21,8.37-8.63,4.4-6.9,5.33-15.45,2.54-23.14-1.39-3.8-3.53-7.29-6.3-10.24-.52-.56-1.06-1.09-1.61-1.61l-2-.78c1.08.9,2.11,1.86,3.07,2.9,2.7,2.88,4.79,6.27,6.15,9.98,2.71,7.47,1.8,15.78-2.47,22.49-2.13,3.33-4.9,6.19-8.17,8.41-3.43,2.36-7.27,4.06-11.32,5.04-7.36,1.78-15.04,1.34-22.1-1.2-.3.16-.61.32-.91.48,3.1,1.18,6.34,1.96,9.65,2.32,4.53.51,9.12.22,13.54-.86Z"/>
      <polygon class="cls-5" points="519 648.05 519.05 648.43 566.62 653.66 566.77 653.3 519 648.05"/>
      <polygon class="cls-5" points="665.74 664.54 665.78 664.17 643.1 661.68 643.15 662.06 665.74 664.54"/>
      <polygon class="cls-5" points="519.05 648.43 519 648.05 442.67 639.67 442.52 640.03 472.29 643.3 519.05 648.43"/>
      <polygon class="cls-5" points="566.62 653.66 643.15 662.06 643.1 661.68 566.77 653.3 566.62 653.66"/>
      <path class="cls-5" d="m665.74,664.54l-22.59-2.48h0s-76.54-8.4-76.54-8.4h0s-47.56-5.23-47.56-5.23h0s-107.56-11.81-107.56-11.81h0s18.93,2.07,18.93,2.07l-19.25-2.11c-.12.11-.24.23-.36.34l254.87,27.99.04-.37Z"/>
      <polygon class="cls-5" points="442.52 640.03 430.43 638.7 442.52 640.03 442.52 640.03"/>
      <polygon class="cls-5" points="472.29 643.3 442.52 640.03 442.52 640.03 519.05 648.44 519.05 648.43 472.29 643.3"/>
      <polygon class="cls-5" points="472.29 643.3 442.52 640.03 442.52 640.03 472.29 643.3"/>
      <polygon class="cls-5" points="411.5 636.63 519.05 648.44 442.52 640.03 442.52 640.03 430.43 638.7 411.5 636.62 411.5 636.63"/>
      <rect class="cls-5" x="604.88" y="619.37" width="0" height="77" transform="translate(-115.09 1187.31) rotate(-83.73)"/>
      <path class="cls-5" d="m662.7,692.23l-234.51-25.76c.18.14.36.29.53.44l233.93,25.69.04-.37Z"/>
      <path class="cls-5" d="m662.66,692.61l-233.93-25.69c.18.14.35.29.53.44l233.36,25.63.04-.37Z"/>
      <polygon class="cls-7" points="238.97 378.77 242.2 387.43 237.78 403.39 231.12 414.25 233.69 425.77 240.39 428.54 231.99 437.1 222.59 446.3 226.49 460.94 227.01 449.17 246.05 428.78 238.56 415.23 246.96 387.3 247.94 378.95 241.82 371.87 238.97 378.77"/>
      <path class="cls-7" d="m245.4,364.96l-.2-.56-.2.35c.13.07.27.14.4.21Z"/>
      <path class="cls-7" d="m245,364.75l-.84,1.47.58,3.99,3.52,2.73-2.85-7.98c-.13-.07-.27-.14-.4-.21Z"/>
      <polygon class="cls-7" points="252.88 347.62 255.99 347.32 255.99 347.31 252.88 347.61 252.88 347.62"/>
      <path class="cls-7" d="m251.65,353.14l-6.45,11.26.2.56c1.38.72,2.76,1.42,4.14,2.14l5.41-13.11,1.03-6.67-3.12.3-1.23,5.53Z"/>
      <path class="cls-7" d="m248.25,372.94l.36.28.63-5.38.31-.74c-1.38-.71-2.77-1.42-4.14-2.14l2.85,7.98Z"/>
      <polygon class="cls-7" points="246.65 321.49 251.42 328.96 251.18 334.62 255.01 338.03 252.88 347.61 255.99 347.31 257.47 337.76 252.39 322.58 255.44 319 249.11 319.61 246.65 321.49"/>
      <rect class="cls-7" x="249.1" y="319.31" width="6.36" height="0" transform="translate(-29.39 25.6) rotate(-5.49)"/>
      <polygon class="cls-7" points="265.72 306.93 249.11 319.61 255.44 319 265.72 306.93"/>
      <rect class="cls-7" x="252.27" y="316.13" width="0" height="6.35" transform="translate(-154.06 297.21) rotate(-48.58)"/>
      <path class="cls-7" d="m434.39,349.17c-1.45,8.44-2.89,16.88-4.34,25.31l7.29,7.59c1.07-.63,2.15-1.26,3.22-1.89-2.06-10.34-4.12-20.67-6.17-31.01Z"/>
      <polygon class="cls-7" points="465.63 432.46 453.03 418.86 451.95 411.93 452.45 388.98 451.97 388.64 442.67 387.62 447.29 392.43 446.28 416.96 463.31 436.2 474.57 438.52 475.18 432.98 465.63 432.46"/>
      <polygon class="cls-7" points="502.6 458.01 503.28 476.26 508.73 490.29 506.75 473.19 510.53 464.74 506.21 454.82 494.05 446.13 479.4 433.21 475.18 432.98 474.57 438.52 475.7 438.75 502.6 458.01"/>
      <path class="cls-7" d="m451.97,388.64l-11.27-7.82c-.04-.21-.08-.43-.13-.64-1.07.63-2.15,1.26-3.22,1.89l5.32,5.54,9.3,1.02Z"/>
      <polygon class="cls-7" points="600.15 438.64 599.87 436.63 596.96 438.43 590.54 463.31 595.35 475 595.08 484.78 597.07 466.71 594.93 463.14 599.16 445.09 599.47 444.8 600.15 438.64 600.15 438.64"/>
      <polygon class="cls-7" points="579.69 518.85 571.1 531.21 584.17 520.01 591.35 518.76 592.36 509.6 579.69 518.85"/>
      <polygon class="cls-7" points="621.79 407.3 629.22 408.11 629.22 408.11 621.79 407.29 621.79 407.3"/>
      <polygon class="cls-7" points="599.47 444.8 604.3 440.32 605.93 439.27 600.15 438.64 599.47 444.8"/>
      <polygon class="cls-7" points="594.43 508.08 592.36 509.6 591.35 518.76 593.29 518.42 599.1 509.28 599.5 494.35 602.02 474.98 597.07 466.71 595.08 484.78 594.43 508.08"/>
      <polygon class="cls-7" points="600.15 438.64 600.41 436.31 599.87 436.63 600.15 438.64 600.15 438.64"/>
      <path class="cls-7" d="m617.86,425.55l-6.88,4.24,8.28.91,4.35-2.8.18-14.31c1.81-1.82,3.62-3.65,5.42-5.47l-7.43-.82-3.93,18.25Z"/>
      <polygon class="cls-7" points="600.15 438.64 605.93 439.27 619.26 430.7 610.98 429.79 600.41 436.31 600.15 438.64"/>
      <path class="cls-7" d="m623.1,401.22l-1.31,6.07,7.43.82c5.76-5.82,11.52-11.63,17.29-17.45-7.8,3.52-15.61,7.04-23.41,10.56Z"/>
      <g>
        <rect class="cls-5" x="120.4" y="400.4" width="51.9" height=".37" transform="translate(-37.64 15.83) rotate(-5.49)"/>
        <rect class="cls-5" x="120.36" y="400.03" width="51.9" height=".38" transform="translate(-37.62 15.84) rotate(-5.49)"/>
        <path class="cls-4" d="m69.82,345.72c-10.92,1.05-16.29-11.62-10.14-18.91-6.16,7.29-.78,19.96,10.14,18.91l10.29-.99h0s-10.29.99-10.29.99Z"/>
        <polygon class="cls-4" points="182.88 256.91 182.88 256.91 63.04 324.07 63.04 324.07 63.04 324.07 182.88 256.91"/>
        <polygon class="cls-4" points="215.11 331.76 80.1 344.73 80.1 344.73 215.11 331.76 215.11 331.76"/>
        <polygon class="cls-1" points="80.1 344.73 215.11 331.76 215.11 331.76 80.1 344.73 80.1 344.73"/>
        <g>
          <path class="cls-2" d="m109.48,650.32h0s-2.63-27.35-2.63-27.35h0s-.07-.75-.07-.75l18.09-1.74,6.58-33.92h0s-.05,0-.05,0l-12.31-128.07-4.46-6.71-8.65-3.23-6.07-12.1-4.99-14.27-9.21-12.44-5.09.65-4.12-3.89-8.77-1.29,1.5-23.95,3.09,20.33,14.8,6.1,10.61,12.53,6.72,13.4,13.21,14.48.51.81-4.36-45.38h0s-11.62-32.55-11.62-32.55l76.64-7.37-6.65,34.31.04.37h0s17.56,182.66,17.56,182.66h.05s11.49,32.19,11.49,32.19l47.83-4.6,6.58-33.92h-.05s-14.45-150.29-14.45-150.29l-6.03-7.58,2.3-24.44-2.77-3.21-.98,8.35-8.39,27.92,7.48,13.55-19.04,20.39-.52,11.77-3.9-14.64,9.4-9.2,8.4-8.56-6.7-2.77-2.57-11.52,6.65-10.85,4.42-15.96-3.23-8.66,2.85-6.9-7.38-8.54c.28-1.23.56-2.47.84-3.7-3.33-1.76-6.67-3.51-9.98-5.29.11-1.37.23-2.74.34-4.11l-129.62,12.46-2.7-28.1-10.29.99c-10.92,1.05-16.29-11.62-10.14-18.91.88-1.04,1.99-1.97,3.36-2.74h0s119.84-67.16,119.84-67.16c-8.59-5.63-17.12-11.3-25.53-17.05,2.5-12.7,5.2-25.35,8.07-37.96L0,217.8l42.23,439.37,67.28-6.47-.04-.37Z"/>
          <rect class="cls-6" x="183.1" y="581.27" width="6.68" height="0" transform="translate(-54.76 20.5) rotate(-5.49)"/>
          <polygon class="cls-5" points="131.45 586.56 131.45 586.56 131.45 586.56 131.45 586.56"/>
          <polygon class="cls-5" points="131.45 586.56 183.11 581.59 183.08 581.22 131.41 586.18 131.45 586.56 131.45 586.56 131.45 586.56"/>
          <polygon class="cls-5" points="183.15 581.96 183.11 581.59 131.45 586.56 131.45 586.56 131.48 586.93 183.15 581.96"/>
          <rect class="cls-5" x="157.28" y="558.12" width="0" height="51.9" transform="translate(-445.77 631.02) rotate(-79.38)"/>
          <polygon class="cls-5" points="249.06 608.92 249.14 608.54 201.3 613.14 201.43 613.5 124.8 620.87 124.87 620.48 106.78 622.22 106.85 622.97 106.85 622.97 106.81 622.6 249.06 608.92"/>
          <polygon class="cls-5" points="201.43 613.5 201.3 613.14 124.87 620.48 124.8 620.87 201.43 613.5"/>
          <path class="cls-5" d="m109.51,650.7l255.79-24.59c-.2-.11-.41-.21-.61-.32l-255.21,24.53.04.37Z"/>
          <g>
            <g>
              <polygon class="cls-6" points="183.08 581.22 183.11 581.59 189.76 580.95 172.2 398.29 120.54 403.26 120.5 402.88 113.8 403.53 118.17 448.91 133.25 472.74 148.39 475.97 151.32 503.71 159.87 511.81 146.26 505.17 145.47 492.04 144.5 480.08 138.02 483.33 127.63 477.72 123.79 465.58 119.09 458.49 131.4 586.56 131.45 586.56 131.41 586.18 183.08 581.22"/>
              <polygon class="cls-6" points="171.21 387.98 172.13 397.54 172.13 397.54 172.17 397.92 178.82 363.61 102.18 370.97 113.8 403.53 113.8 403.53 112.85 393.59 171.21 387.98"/>
              <polygon class="cls-6" points="120.46 402.51 172.13 397.54 171.21 387.98 112.85 393.59 113.8 403.53 120.5 402.88 120.46 402.51"/>
              <polygon class="cls-6" points="189.81 580.95 189.76 580.95 189.76 580.95 183.11 581.59 183.15 581.96 131.48 586.93 131.45 586.56 124.87 620.48 201.3 613.14 189.81 580.95"/>
              <path class="cls-6" d="m80.1,344.73l2.7,28.1,129.62-12.46c.79-9.55,1.68-19.09,2.68-28.62l-135,12.98Z"/>
              <path class="cls-6" d="m109.48,650.32l255.21-24.53c-9.91-5.13-19.77-10.39-29.55-15.78,2.16-3.22,4.34-6.42,6.53-9.61l-234.82,22.57,2.63,27.35Z"/>
              <path class="cls-4" d="m109.55,651.07l-.04-.37-67.28,6.47,2.78,28.88,319.52-30.71c4.6-7.54,9.28-15.02,14.07-22.43-4.24-2.13-8.47-4.3-12.69-6.48l-256.36,24.64Z"/>
              <path class="cls-4" d="m69.82,345.72l10.29-.99h0s135-12.98,135-12.98c.31-2.98.63-5.95.97-8.93-7.25-4.16-14.43-8.39-21.57-12.64l-28.9,2.78c-7.78.75-11.04-9.67-4.22-13.49h0s23.51-13.18,23.51-13.18c1.28-8.47,2.64-16.94,4.08-25.38-2.04-1.32-4.06-2.67-6.09-4l-119.84,67.16s0,0,0,0h0c-1.37.77-2.48,1.7-3.36,2.74-6.16,7.29-.78,19.96,10.14,18.91Z"/>
              <path class="cls-6" d="m161.38,299.47c-6.82,3.82-3.56,14.24,4.22,13.49l28.9-2.78c-4.02-2.39-8.04-4.78-12.03-7.2.77-5.57,1.58-11.13,2.42-16.68l-23.51,13.18h0Z"/>
            </g>
            <path class="cls-5" d="m325.7,601.56l-76.64,7.37h0s-142.25,13.67-142.25,13.67l.04.37,234.82-22.57c.09-.14.19-.27.28-.4l-16.25,1.56h0Z"/>
            <path class="cls-5" d="m109.51,650.7l.04.37,256.36-24.64c-.2-.11-.41-.21-.61-.32l-255.79,24.59h0Z"/>
          </g>
        </g>
        <polygon class="cls-7" points="117.66 448.1 104.45 433.63 97.73 420.23 87.12 407.7 72.32 401.59 69.23 381.26 67.74 405.21 76.51 406.5 80.62 410.39 85.71 409.74 94.92 422.17 99.91 436.44 105.98 448.55 114.63 451.78 119.09 458.49 118.17 448.91 117.66 448.1"/>
        <polygon class="cls-7" points="127.63 477.72 138.02 483.33 144.5 480.08 145.47 492.04 146.26 505.17 159.87 511.81 151.32 503.71 148.39 475.97 133.25 472.74 118.17 448.91 119.09 458.49 123.79 465.58 127.63 477.72"/>
      </g>
      <path class="cls-7" d="m243,358.23l-3.34-9.34,1.96-.19s0,0,0,0l-3.95.38c-.8,3.52-1.59,7.04-2.39,10.56,2.86,1.51,5.71,3.03,8.58,4.53-.29-1.98-.57-3.96-.86-5.94Z"/>
      <path class="cls-7" d="m244.15,366.23c-.1-.69-.2-1.37-.3-2.06-2.87-1.5-5.72-3.02-8.58-4.53-.28,1.23-.56,2.47-.84,3.7l7.38,8.54,2.32-5.61.02-.03Z"/>
      <polygon class="cls-7" points="251.28 381.44 248.54 373.76 247.94 378.95 250.71 382.16 248.4 406.6 254.43 414.18 251.29 381.44 251.28 381.44"/>
      <path class="cls-7" d="m310.05,457.7l-3.79-10.14-9.58-7.64c.02,2.02.06,4.05.09,6.07l5.71,4.56-.28,18.26,1.84,5.6c.79.33,1.58.65,2.38.97l-.59-9.46,4.22-8.24Z"/>
      <path class="cls-7" d="m276.63,429.91l20.14,16.09c-.03-2.02-.07-4.05-.09-6.07l-2.11-1.68-13.95-13.67-13.72-1.47-7.5-9s-.1-.05-.15-.07c0-.03,0-.07,0-.1l-4.23-5.08-.7-6.98,1.56-20.88-4.61.44,3.15,32.74,9.97,12.53,12.23,3.19Z"/>
      <path class="cls-7" d="m259.27,414.04s.1.05.15.07l-.14-.17s0,.07,0,.1Z"/>
      <path class="cls-7" d="m306.9,483.12l-.48-7.73c-.79-.32-1.59-.65-2.38-.97l2.86,8.7Z"/>
      <path class="cls-7" d="m239.66,348.89l3.34,9.34-1.38-9.53-1.96.19Z"/>
      <polygon class="cls-7" points="248.61 373.22 248.54 373.76 251.28 381.44 251.29 381.44 250.65 374.8 248.61 373.22"/>
      <polygon class="cls-7" points="250.65 374.8 251.29 381.44 255.9 381 256.05 378.98 250.65 374.8"/>
      <path class="cls-7" d="m237.67,349.07l3.95-.38c-.5-3.47-1-6.94-1.51-10.41-.81,3.6-1.63,7.19-2.44,10.79Z"/>
      <path class="cls-7" d="m248.25,372.94l-3.52-2.73-.58-3.99-.02.03-2.32,5.61,6.12,7.08.61-5.19-.29-.82Z"/>
      <polygon class="cls-7" points="248.25 372.94 248.54 373.76 248.61 373.22 248.25 372.94"/>
      <polygon class="cls-3" points="540.72 108.25 518.34 167.97 554.55 157.88 540.72 108.25"/>
      <path class="cls-3" d="m433.05,274.02c7.68-1.14,15.43-.73,22.8,1.14,4.45,1.13,8.75,2.8,12.83,4.97l151.42-42.18c17.13-4.77,27.27-22.28,22.61-39.03l-30.43-109.24c-2.38-8.41-8.15-15.44-15.94-19.4L465.58,3.54c-7.29-3.71-15.71-4.54-23.59-2.32-7.89,2.17-14.67,7.23-18.99,14.18l-77.42,124.74c-4.62,7.41-5.93,16.42-3.62,24.84l22.76,81.71c.84.05,1.68.13,2.52.23-.46.2-.91.39-1.37.59,0,0,0,0,0,0h-.01s-1.03-.44-1.03-.44l7.56,27.14c4.67,16.75,22.4,26.49,39.53,21.72l11.04-3.08c4.12-9.51,19.8-19.97,10.08-18.84Zm-7.32-24.73c-3-.73-5.85-2.01-8.38-3.78l2.7,9.69-5.77,1.61-12.18-43.71,9.07-2.53c.89,3.26,2.71,6.18,5.23,8.43,2.55,2.31,5.53,4.08,8.78,5.22,3.33,1.17,6.81,1.84,10.33,2.01,3.34.21,6.7-.13,9.94-.99,3.02-.89,5.91-2.18,8.59-3.84,2.93-1.76,5.62-3.89,8-6.34,2.31-2.35,4.1-5.16,5.25-8.24,1.15-3.06,1.27-6.41.34-9.54-1.45-5.22-4.29-8.76-8.51-10.63-4.77-1.99-9.84-3.21-14.99-3.6-5.78-.54-11.94-.89-18.5-1.07-6.42-.15-12.8-1.09-18.99-2.82-6.13-1.72-11.78-4.82-16.51-9.06-4.91-4.33-8.59-10.9-11.04-19.7-1.72-6.02-1.73-12.41-.03-18.43,1.7-6.09,4.51-11.8,8.29-16.86,3.85-5.16,8.53-9.66,13.84-13.3,5.1-3.58,10.76-6.29,16.76-8,2.8-.76,5.64-1.33,8.52-1.71,3.22-.45,6.47-.65,9.71-.59,3.17.04,6.33.43,9.42,1.15,2.82.63,5.49,1.81,7.85,3.48l-2.3-8.25,4.94-1.38,11.03,39.58-8.65,2.41c-.77-2.83-2.44-5.33-4.76-7.12-2.43-1.89-5.16-3.34-8.08-4.3-3.01-1.01-6.16-1.55-9.33-1.62-2.87-.11-5.74.2-8.51.93-2.8.83-5.5,1.99-8.03,3.46-2.81,1.56-5.36,3.55-7.58,5.89-2.11,2.21-3.8,4.79-4.99,7.61-1.15,2.75-1.32,5.82-.47,8.68,1.46,5.23,4.33,8.76,8.61,10.6,4.76,1.95,9.8,3.1,14.93,3.4,5.67.42,11.8.64,18.39.65,6.39-.01,12.74.83,18.91,2.51,6.08,1.69,11.7,4.72,16.46,8.86,3.72,3.18,6.73,7.64,9.03,13.38l-1.66-5.97,35.59-96.64,28.82-8.03,26.21,94.08,20.15-5.61,1.76,6.32-20.15,5.61,8.86,31.81,15.63-4.36,1.28,4.6-56.13,15.64-1.28-4.6,15.63-4.36-8.86-31.81-61.97,17.26-.63-2.26c.69,4.83.51,9.75-.59,14.53-1.5,6.45-4.25,12.54-8.11,17.92-3.95,5.51-8.8,10.32-14.36,14.22-5.45,3.92-11.55,6.85-18.01,8.68-3.04.82-6.14,1.43-9.27,1.8-3.42.44-6.87.58-10.32.43-3.36-.13-6.69-.62-9.95-1.45Z"/>
      <path class="cls-3" d="m378.07,212.65s0,0,0,0c0,0-.01,0-.02,0h.01Z"/>
      <path class="cls-3" d="m378.08,212.65c.42-.26.85-.52,1.27-.77-.84,0-1.69.05-2.53.12l.16.37,1.08.29s.01,0,.02,0Z"/>
      <path class="cls-3" d="m471.01,227.51c-7.57-.83-15.3-.16-22.74,2.04,9.47-2.47-4.61,10.07-7.36,20.06l43.5-18.97c-4.34-1.57-8.84-2.63-13.4-3.13Z"/>
      <path class="cls-7" d="m496.32,193.14l.63,2.26,61.97-17.26,8.86,31.81-15.63,4.36,1.28,4.6,56.13-15.64-1.28-4.6-15.63,4.36-8.86-31.81,20.15-5.61-1.76-6.32-20.15,5.61-26.21-94.08-28.82,8.03-35.59,96.64,1.66,5.97c.77,1.92,1.46,3.98,2.08,6.18.53,1.81.91,3.66,1.18,5.52Zm44.4-84.89l13.83,49.63-36.21,10.09,22.38-59.72Z"/>
      <path class="cls-7" d="m455.26,248.5c6.46-1.83,12.55-4.77,18.01-8.68,5.55-3.9,10.41-8.7,14.36-14.22,3.85-5.38,6.61-11.47,8.11-17.92,1.09-4.78,1.28-9.71.59-14.53l-3.26-11.7c-2.31-5.74-5.32-10.2-9.03-13.38-4.76-4.14-10.38-7.17-16.46-8.86-6.16-1.68-12.52-2.52-18.91-2.51-6.59-.02-12.72-.24-18.39-.65-5.13-.3-10.18-1.44-14.93-3.4-4.29-1.84-7.16-5.37-8.61-10.6-.85-2.86-.69-5.93.47-8.68,1.19-2.82,2.88-5.4,4.99-7.61,2.21-2.34,4.77-4.32,7.58-5.89,2.53-1.47,5.23-2.63,8.03-3.46,2.78-.72,5.65-1.04,8.51-.93,3.17.07,6.32.61,9.33,1.62,2.92.96,5.65,2.41,8.08,4.3,2.32,1.79,3.99,4.29,4.76,7.12l8.65-2.41-11.03-39.58-4.94,1.38,2.3,8.25c-2.36-1.66-5.03-2.84-7.85-3.48-3.09-.72-6.25-1.11-9.42-1.15-3.25-.05-6.5.15-9.71.59-2.87.38-5.72.95-8.52,1.71-5.99,1.71-11.66,4.42-16.76,8-5.31,3.64-9.99,8.13-13.84,13.3-3.78,5.06-6.6,10.78-8.29,16.86-1.71,6.03-1.7,12.41.03,18.43,2.45,8.8,6.13,15.36,11.04,19.7,4.74,4.25,10.39,7.35,16.51,9.06,6.19,1.72,12.57,2.67,18.99,2.82,6.56.17,12.73.53,18.5,1.07,5.16.39,10.22,1.61,14.99,3.6,4.22,1.86,7.06,5.4,8.51,10.63.93,3.13.81,6.48-.34,9.54-1.16,3.08-2.95,5.89-5.25,8.24-2.38,2.45-5.07,4.58-8,6.34-2.68,1.66-5.57,2.95-8.59,3.84-3.24.87-6.59,1.2-9.94.99-3.52-.17-7-.84-10.33-2.01-3.25-1.13-6.23-2.91-8.78-5.22-2.52-2.24-4.34-5.17-5.23-8.43l-9.07,2.53,12.18,43.71,5.77-1.61-2.7-9.69c2.54,1.77,5.38,3.05,8.38,3.78,3.26.83,6.59,1.31,9.95,1.45,3.45.15,6.9,0,10.32-.43,3.13-.38,6.23-.98,9.27-1.8Z"/>
      <path class="cls-7" d="m495.14,187.63c-.61-2.2-1.31-4.27-2.08-6.18l3.26,11.7c-.27-1.86-.65-3.7-1.18-5.52Z"/>
    </g>
  </g>
</svg>