<?xml version="1.0" encoding="UTF-8"?>
<svg id="Layer_2" data-name="Layer 2" xmlns="http://www.w3.org/2000/svg" viewBox="0 0 791.6 548.74">
  <defs>
    <style>
      .cls-1 {
        fill: none;
      }

      .cls-1, .cls-2, .cls-3, .cls-4, .cls-5, .cls-6, .cls-7 {
        stroke-width: 0px;
      }

      .cls-3 {
        fill: #756746;
      }

      .cls-4 {
        fill: #5c5c5c;
      }

      .cls-5 {
        fill: #2c2c7c;
      }

      .cls-6 {
        fill: #d0d8d7;
      }

      .cls-7 {
        fill: #fff;
      }
    </style>
  </defs>
  <g id="Layer_2-2" data-name="Layer 2">
    <path class="cls-5" d="m421.77,83.85l1.1.29-.16-.37c-.31.02-.62.04-.94.07h0Z"/>
    <path class="cls-1" d="m208.2,189.67l54.08-27.32,1.22,6.68c1.54-3.22,3.1-6.45,4.67-9.67l-59.96,30.29h0s0,.01,0,.01Z"/>
    <path class="cls-1" d="m205.7,208c.25.65.5,1.29.77,1.94l.47-1.62c-.42-.11-.83-.21-1.25-.31h0Z"/>
    <path class="cls-1" d="m184.75,198.61c.21,1.36.41,2.72.61,4.07,3.64.98,7.28,1.91,10.93,2.85-.04-3.61-.07-7.22-.11-10.83l-11.45,3.9h0Z"/>
    <polygon class="cls-1" points="205.41 191.06 195.33 196.16 195.33 196.17 205.42 191.07 205.41 191.06"/>
    <path class="cls-1" d="m204.36,209.5l-4.3-4.96c.99,1.75,1.96,3.49,2.96,5.22.44.06.85.08,1.28.14l.06-.41h0Z"/>
    <path class="cls-6" d="m235.67,250.65l10.26,5.66,13.32-3.62,17.96,7.67,2.57.8c-1.09-2.68-2.17-5.37-3.23-8.08-13.69-.66-27.31-1.47-40.86-2.44h-.02s0,.01,0,.01Z"/>
    <path class="cls-6" d="m224.64,224.93l-.34-.67,1.61-.81c-.5-1.47-1-2.95-1.49-4.42l-4.06,2.05,6.13,20.03,3.19,6.25,5.79,3.19c-3.21-8.76-6.31-17.56-9.33-26.37l-1.5.76h0Z"/>
    <path class="cls-6" d="m300.5,290.37l-6.34-3.64c1.45,8.45,2.98,16.9,4.61,25.32,2.29.57,4.6,1.1,6.91,1.66l-2.68-5.25-2.5-18.09h0Z"/>
    <path class="cls-6" d="m206.28,196.66l-.87-5.6-10.1,5.1,4.75,8.38,4.3,4.96,1.92-12.83h0Z"/>
    <path class="cls-6" d="m210.74,216.47l2.48.74-1.5-2.96,5.86-2.96c-2.73-.27-5.47-.56-8.19-.85l-.02.79,1.37,5.24h0v.02h0,0Z"/>
    <path class="cls-6" d="m352.5,167.29l.08-.4c-.09.08-.17.16-.26.24.06.05.12.11.18.16h0Z"/>
    <path class="cls-6" d="m213.22,217.21l6.54,1.94.59,1.93,4.06-2.05c-.82-2.43-1.63-4.85-2.43-7.28-1.47-.14-2.93-.31-4.4-.46l-5.86,2.96,1.5,2.96h0Z"/>
    <path class="cls-5" d="m224.64,224.93l1.5-.76c-.08-.23-.17-.47-.25-.72l-1.61.81.34.67h0s0,0,0,0Z"/>
    <path class="cls-5" d="m226.16,224.17l44.82-22.64-.34-.67-44.73,22.59c.08.23.17.47.25.72h0Z"/>
    <path class="cls-6" d="m190.13,187.02c1.73,3.05,3.45,6.1,5.19,9.15l10.1-5.1-1.49-9.69-4.81-1.79-1.83-5.36-7.16-5.23,1.61-2.65-18.64,9.41c2.53,9.23,5.17,18.44,7.91,27.64l10.79-5.45c-.56-3.65-1.09-7.3-1.65-10.94h-.02s0,0,0,0Z"/>
    <path class="cls-4" d="m197.03,19.05s.02,0,.03-.03c0,0-.02,0-.03.03l-81.15,98.7h0S197.03,19.05,197.03,19.05Z"/>
    <polygon class="cls-4" points="180.76 170.16 180.76 170.16 200.54 163.42 200.54 163.42 180.76 170.16"/>
    <polygon class="cls-4" points="197.41 163.48 277.23 123.17 277.23 123.17 197.41 163.48 197.41 163.48"/>
    <polygon class="cls-2" points="200.54 163.42 200.54 163.42 180.76 170.16 180.76 170.16 200.54 163.42"/>
    <polygon class="cls-2" points="197.41 163.48 277.23 123.17 277.23 123.16 197.41 163.48 197.41 163.48"/>
    <g>
      <path class="cls-6" d="m235.47,250.53l.19.12c13.55.96,27.18,1.77,40.86,2.44,1.08,2.69,2.15,5.39,3.23,8.08l11.7,3.64,7.22,8.07-.93,9.21,3.99,8.6c4.79.08,9.57.16,14.37.2l-45.12-89.34-44.82,22.64c3.01,8.82,6.11,17.61,9.33,26.37h0v-.04s-.02,0-.02,0h0Z"/>
      <path class="cls-6" d="m224.42,219.03c.5,1.47.99,2.95,1.49,4.42l44.73-22.59-2.08-4.14h0l-44.13,22.3h-.02s.01.01.01.01Z"/>
      <path class="cls-6" d="m208.2,189.67l1.46,6.6-.28,14.18c2.73.29,5.46.57,8.19.85l46.47-23.46,4.49,8.9-4.97-27.28c-.07-.02-.16-.06-.22-.08.05-.1.09-.21.16-.31l-1.22-6.68-54.08,27.32h0v-.02s0,0,0,0Z"/>
      <path class="cls-6" d="m224.42,219.03l44.13-22.29h0l-4.5-8.91-46.47,23.46c1.46.16,2.93.32,4.4.46.79,2.42,1.61,4.86,2.43,7.28h0Z"/>
      <path class="cls-6" d="m195.86,167.93l10.26,12.3,2.09,9.43,59.96-30.29c5.43-11.12,11.01-22.16,16.72-33.1-2.57-1.02-5.12-2.06-7.68-3.08l-79.83,40.31-1.54,4.45h.02s0-.02,0-.02h0Z"/>
      <path class="cls-4" d="m170.75,167.09c.77,2.89,1.56,5.77,2.34,8.67l18.64-9.41,10.86-17.85-5.19,14.99,79.82-40.31c-9.48-3.85-18.92-7.84-28.28-11.98l-102.89,51.97c8.19,1.37,16.42,2.7,24.69,3.94h0s0,0,0,0h0Z"/>
      <path class="cls-4" d="m197.03,19.05l-81.15,98.7c2.38.5,4.75,1.02,7.13,1.52,1.72,8.39,3.53,16.77,5.42,25.12l81.81-99.49-.14.04c-15.86.84-3.37-36.57-12.36-26.7-.22.24-.44.5-.69.8,0,0-.02,0-.03.03h0v-.03s0,0,0,0Z"/>
      <path class="cls-6" d="m216.18,57.92c-1.52,3.63-2.29,7.55-2.25,11.5.07,7.95,3.85,15.41,10.2,20.19,3.16,2.38,6.76,4.07,10.59,5.02,4.03.99,8.23,1.25,12.37.75,1.44-.17,2.85-.43,4.23-.77,5.32-9.51,10.76-18.96,16.31-28.31-13.31-6.26-26.47-12.8-39.47-19.64,1.31-2.11,2.62-4.2,3.93-6.31h0c-3.41,1.91-6.49,4.32-9.16,7.16-2.85,3.03-5.14,6.56-6.74,10.41,0,0-.02,0-.02,0Z"/>
      <path class="cls-6" d="m132.23,160.81c4.6.81,9.21,1.58,13.83,2.33l102.89-51.97c-1.83-.81-3.65-1.6-5.47-2.41,2.43-4.44,4.87-8.85,7.33-13.26-1.19.27-2.41.47-3.63.61-4.22.51-8.51.24-12.63-.77-3.94-.95-7.63-2.71-10.87-5.14-6.54-4.92-10.41-12.61-10.51-20.79-.04-4.05.74-8.06,2.31-11.8,1.62-3.93,3.96-7.53,6.88-10.62,2.25-2.38,4.78-4.45,7.5-6.19l-19.64,4.07-81.81,99.49c1.24,5.48,2.5,10.96,3.8,16.42v.02h0v.02s.01,0,.01,0Z"/>
    </g>
    <path class="cls-5" d="m215.12,59.1c-1.28,3.83-1.77,7.9-1.45,11.93.68,8.15,5.11,15.53,11.98,19.96,3.4,2.19,7.21,3.67,11.22,4.35,4.19.71,8.48.67,12.66-.14,1.21-.24,2.41-.53,3.58-.87.15-.31.29-.63.44-.93-1.35.43-2.75.8-4.17,1.07-4.08.81-8.29.86-12.39.15-3.88-.66-7.61-2.09-10.93-4.24-6.68-4.3-10.97-11.48-11.63-19.4-.32-3.94.17-7.9,1.42-11.64,1.3-3.96,3.33-7.64,5.96-10.87,2.46-3.03,5.37-5.66,8.62-7.81l-2.16.62c-2.6,1.93-4.97,4.18-7.04,6.71-2.69,3.29-4.76,7.06-6.09,11.1h-.02s0,0,0,0Z"/>
    <g>
      <path class="cls-1" d="m306.1,232.9h0l.05.75h0l7.77,99.79c5.54,2.35,11.11,4.67,16.69,6.96.62,13.27,1.45,26.55,2.51,39.82-1.06-13.27-1.89-26.55-2.51-39.82-5.59-2.29-11.13-4.63-16.69-6.96l6.09,78.17h.05l10.91,32.38,16.69-1.3c6.34-8.85,12.79-17.61,19.37-26.25-13.82-8.25-27.49-16.77-41-25.58,9.5-12.05,19.25-23.9,29.2-35.53-13.12-8.85-26.07-17.97-38.85-27.36,10.35-11.68,20.91-23.14,31.67-34.38-12.38-9.42-24.58-19.08-36.57-29.02,11.15-11.26,22.5-22.29,34.05-33.08-11.54-9.88-22.88-20.02-34-30.37l-5.78,27.13.36,4.62h0v.03h0Z"/>
      <rect class="cls-5" x="261.92" y="418.72" width="51.9" height=".75" transform="translate(-31.65 23.6) rotate(-4.45)"/>
      <g>
        <path class="cls-6" d="m313.93,333.44c-4.43-1.87-8.81-3.76-13.21-5.65l.35,7.73-2.7-8.75c-2.17-.94-4.36-1.86-6.51-2.81-.17-8.59-.24-17.17-.24-25.75l-19.85-16.45-12.17-3.41-9.74-12.71,11.72,150.53h.05l58.4-4.56-6.09-78.17h0Z"/>
        <path class="cls-6" d="m320.06,411.61h-.05l-58.4,4.56-7.19,33.8,76.56-5.96-10.91-32.39h-.01Zm-58.04,9.9l-.05-.75,51.74-4.02.05.75-51.74,4.02h0Z"/>
        <path class="cls-5" d="m331.09,444.37l16.27-1.27c.09-.14.19-.26.29-.4l-16.69,1.3.12.36h.01Z"/>
      </g>
      <polygon class="cls-5" points="331.09 444.37 330.97 443.99 254.41 449.97 254.34 450.34 331.09 444.37"/>
    </g>
    <path class="cls-6" d="m504.69,342.31c4.63-3.45,9.28-6.88,13.95-10.27-9.6-3.14-20.08-2.11-28.89,2.82l-8.27,4.63,19.78,3.34c1.14-.22,2.28-.4,3.43-.52h0Z"/>
    <path class="cls-6" d="m396.58,320.07l-3.04,4.13,8.1,4.46c.44-.16.89-.26,1.34-.32,1.65-3.17,3.31-6.31,4.99-9.41-4.02-3.67-8.15-3.26-11.39,1.14h0Z"/>
    <path class="cls-6" d="m347.34,369.59c2.5-5.3,5.01-10.55,7.53-15.74-6.23-6.22-12.57-5.59-17.49,1.76l-4.61,6.9,12.51,7.6c.68-.26,1.36-.43,2.06-.52h0Z"/>
    <path class="cls-6" d="m445.71,376.88c-6.61-1.95-17.63,15.32-23.63,18.79l-2.01-13.02,14.21,2.53c.07-.01.15-.03.22-.04-.11-.14-.23-.28-.35-.41,3.84-2.64,7.69-5.25,11.55-7.85h.01Z"/>
    <path class="cls-6" d="m449.43,243.65l-3.04,4.13,8.1,4.46c.44-.16.89-.26,1.34-.32,1.65-3.17,3.31-6.31,4.99-9.41-4.02-3.67-8.15-3.26-11.39,1.14h0Z"/>
    <path class="cls-6" d="m383.8,370.01l-3.04,4.13,8.1,4.46c.44-.16.89-.26,1.34-.32,1.65-3.17,3.31-6.31,4.99-9.41-4.02-3.67-8.15-3.26-11.39,1.14h0Z"/>
    <path class="cls-6" d="m435.94,426.52l-3.04,4.13,8.1,4.46c.44-.16.89-.26,1.34-.32,1.65-3.17,3.31-6.31,4.99-9.41-4.02-3.67-8.15-3.26-11.39,1.14h0Z"/>
    <path class="cls-4" d="m534.18,55.33l-2.89-1.67c-2.99-1.73-6.11-3.15-9.31-4.31l-43.5,18.97c-1,3.63-.51,6.93,3.16,9.05l.13.05,9.04-2.85c9.64-3.04,20.1-1.9,28.86,3.12,7.08-3.19,14.18-6.32,21.3-9.38-2.3-4.31-4.55-8.64-6.79-12.98h0Z"/>
    <polygon class="cls-4" points="761.31 243.31 523.88 208.23 523.88 208.23 761.31 243.31 761.31 243.31"/>
    <polygon class="cls-2" points="761.31 243.31 523.88 208.23 523.88 208.23 761.31 243.31 761.31 243.31"/>
    <path class="cls-6" d="m517.03,89.39c-4.01-1.98-8.34-3.24-12.78-3.71-.56-.06-1.12-.11-1.68-.15h0l21.36,8.34c-2.1-1.76-4.41-3.27-6.89-4.48h-.01,0Z"/>
    <path class="cls-6" d="m543.09,148.6c4.08-.83,7.97-2.39,11.5-4.61,3.34-2.1,6.23-4.85,8.48-8.1,4.52-6.55,5.74-14.82,3.31-22.38-1.21-3.76-3.17-7.23-5.77-10.2-.92-1.07-1.91-2.06-2.96-3.01l-21.03-9.13c-2.28.97-4.56,1.92-6.84,2.9,6.69,13.09,13.66,26.03,20.93,38.8-9.92,4.44-19.81,9.03-29.64,13.73,6.97,2.79,14.63,3.52,22.04,2.02h0l-.02-.02h0Z"/>
    <polygon class="cls-6" points="571.11 263.57 570.02 273.5 583.53 241.26 507 232.86 511.74 267.1 512.83 257.17 571.11 263.57"/>
    <rect class="cls-6" x="536.45" y="236.04" width="9.99" height="58.63" transform="translate(218.54 774.59) rotate(-83.73)"/>
    <path class="cls-6" d="m517.17,235.77l169.01,24.97,1.54-6.02c7.93-3.23,15.86-6.45,23.79-9.68-5.97,5.6-11.95,11.19-17.93,16.79l63.6,9.4,4.12-27.93-237.44-35.08c1.49,2.32,2.98,4.64,4.48,6.95-7.46,3.82-14.88,7.73-22.27,11.71.03.21.06.43.11.64l10.97,8.23h.02v.02h0Z"/>
    <path class="cls-6" d="m493.36,294.28c-2.35,1.39-4.7,2.78-7.04,4.19l12.36,1.36-5.32-5.54h0Z"/>
    <path class="cls-4" d="m611.13,143.22l125.71,58.18-172.76-115.87c1.61,3.67,3.24,7.34,4.91,10.99-5.64,2.32-11.26,4.7-16.87,7.13.03.02.05.03.09.05l58.92,39.51h0v.02h0Z"/>
    <path class="cls-6" d="m557.74,124.94l70.06,30.42-75.57-47.55s-.07-.04-.11-.06c-5.34,2.17-10.68,4.38-16.01,6.62,4.62.63,9.13,2.08,13.3,4.32,3.08,1.66,5.88,3.77,8.32,6.25,0,0,.01,0,.01,0Z"/>
    <path class="cls-6" d="m692.08,195.39l-64.29-40.45-70.06-30.42c.53.54,1.05,1.09,1.55,1.67,2.66,3.05,4.68,6.62,5.91,10.47,2.5,7.79,1.24,16.3-3.4,23.03-2.31,3.33-5.26,6.16-8.69,8.31-3.6,2.28-7.58,3.87-11.74,4.72-4.47.91-9.06,1.04-13.56.35-3.29-.47-6.5-1.38-9.56-2.68-4.55,2.18-9.1,4.37-13.64,6.61,1.02,1.71,2.05,3.42,3.08,5.13l179.51,26.52c7.72,1.14,11.52-9.1,4.9-13.26h-.01Z"/>
    <path class="cls-5" d="m517.03,89.39c2.47,1.21,4.78,2.72,6.89,4.48l2,.78c-2.54-2.39-5.42-4.4-8.55-5.94-4.25-2.08-8.81-3.36-13.45-3.82-.45.21-.9.42-1.35.63.56.04,1.12.09,1.68.15,4.45.47,8.77,1.73,12.78,3.71h0Z"/>
    <path class="cls-5" d="m543.24,149.34c4.17-.84,8.15-2.45,11.74-4.72,3.43-2.15,6.39-4.98,8.69-8.31,4.65-6.73,5.9-15.24,3.4-23.03-1.25-3.85-3.26-7.42-5.91-10.47-.5-.58-1.02-1.13-1.55-1.67l-1.97-.85c1.05.94,2.04,1.94,2.96,3.01,2.59,2.98,4.55,6.44,5.77,10.2,2.43,7.57,1.21,15.84-3.31,22.38-2.25,3.25-5.13,6-8.48,8.1-3.52,2.23-7.42,3.79-11.5,4.61-7.42,1.5-15.08.78-22.04-2.02-.31.15-.62.3-.93.45,3.05,1.29,6.26,2.2,9.56,2.68,4.51.68,9.11.56,13.56-.35h0Z"/>
    <polygon class="cls-7" points="203.78 225.15 209.94 232.05 211.61 248.51 209.37 261.06 215.93 270.86 223.19 271.01 218.48 282.04 213.06 294.02 222 306.23 218.22 295.09 228.55 269.18 216.64 259.26 214.33 230.19 212.2 222.07 203.93 217.69 203.78 225.15"/>
    <path class="cls-7" d="m204.75,209.95l-.39-.45-.06.41c.15.02.3.04.45.04h0Z"/>
    <path class="cls-7" d="m204.31,209.9l-.25,1.67,1.99,3.5,4.27,1.27-5.55-6.4c-.15-.02-.3-.04-.45-.04h0Z"/>
    <polygon class="cls-7" points="205.42 191.07 208.2 189.67 208.2 189.66 205.41 191.06 205.42 191.07"/>
    <path class="cls-7" d="m206.28,196.66l-1.92,12.83.39.45c1.55.17,3.1.33,4.64.49l.28-14.18-1.46-6.6-2.8,1.42.87,5.6h.02s-.02-.02-.02-.02h0Z"/>
    <path class="cls-7" d="m210.31,216.35l.43.14-1.37-5.24.02-.79c-1.55-.16-3.1-.32-4.64-.49l5.55,6.4h0s0-.01,0-.01Z"/>
    <polygon class="cls-7" points="190.13 169 197.28 174.23 199.12 179.59 203.92 181.37 205.41 191.06 208.2 189.66 206.12 180.23 195.86 167.93 197.41 163.48 191.74 166.35 190.13 169"/>
    <polygon class="cls-7" points="191.74 166.34 197.42 163.48 197.42 163.48 191.74 166.34"/>
    <polygon class="cls-7" points="202.6 148.5 191.74 166.35 197.41 163.48 202.6 148.5"/>
    <path class="cls-7" d="m471.96,167.87c-1.45,8.44-2.89,16.88-4.34,25.31l7.29,7.59c1.07-.63,2.15-1.26,3.22-1.89-2.06-10.34-4.12-20.67-6.17-31.01h0Z"/>
    <path class="cls-7" d="m489.54,207.34l-11.27-7.82c-.04-.21-.08-.43-.13-.64-1.07.63-2.15,1.26-3.22,1.89l5.32,5.54,9.3,1.02h0Z"/>
    <polygon class="cls-7" points="657.48 249.38 664.91 250.19 664.91 250.19 657.48 249.37 657.48 249.38"/>
    <path class="cls-7" d="m653.55,267.63l-6.88,4.24,8.28.91,4.35-2.8.18-14.31c1.81-1.82,3.62-3.65,5.42-5.47l-7.43-.82-3.93,18.25h.01Z"/>
    <path class="cls-7" d="m658.79,243.3l-1.31,6.07,7.43.82c5.76-5.82,11.52-11.63,17.29-17.45-7.8,3.52-15.61,7.04-23.41,10.56h0Z"/>
    <rect class="cls-5" x="84.46" y="278.82" width="51.9" height=".37" transform="translate(-128.62 97.63) rotate(-31.22)"/>
    <rect class="cls-5" x="84.27" y="278.51" width="51.9" height=".38" transform="translate(-128.49 97.48) rotate(-31.22)"/>
    <polygon class="cls-4" points="80.94 133.69 80.94 133.69 2.16 246.22 2.16 246.22 2.16 246.22 80.94 133.69"/>
    <polygon class="cls-4" points="142.48 187.1 26.5 257.42 26.5 257.42 142.48 187.1 142.48 187.1"/>
    <polygon class="cls-2" points="26.5 257.42 142.48 187.1 142.48 187.1 26.5 257.42 26.5 257.42"/>
    <polygon class="cls-7" points="112.04 313.91 94.5 305.2 83.39 295.14 68.97 287.29 52.95 286.95 42.72 269.1 49.99 291.97 58.63 290.01 63.88 292.15 68.38 289.71 81.47 297.96 91.28 309.46 101.32 318.56 110.54 318.44 117.13 323.08 112.82 314.48 112.04 313.91"/>
    <path class="cls-7" d="m203.49,202.41l-5.41-8.32,1.86-.64h0l-3.76,1.27c.04,3.61.07,7.22.11,10.83,3.12.82,6.26,1.63,9.39,2.43-.74-1.87-1.46-3.72-2.2-5.58h0s0,0,0,0Z"/>
    <path class="cls-7" d="m206.44,209.93c-.25-.65-.5-1.29-.77-1.94-3.13-.8-6.26-1.62-9.39-2.43.01,1.26.02,2.54.04,3.79l9.15,6.61.97-6,.02-.03h-.02Z"/>
    <polygon class="cls-7" points="216.22 223.17 210.87 217 212.2 222.07 215.95 224.04 222.68 247.65 231.04 252.52 216.23 223.17 216.22 223.17"/>
    <path class="cls-7" d="m301.86,278.37l-5.29-9.45-10.63-6.09c.33,1.99.67,4,1.02,5.99l6.34,3.64,2.5,18.09,2.68,5.25c.83.21,1.66.41,2.5.59l-2.03-9.26,2.91-8.79v.02h0Z"/>
    <path class="cls-7" d="m257.44,259.11l24.61,7.67c-.76-1.88-1.53-3.75-2.29-5.63l-2.57-.8-17.96-7.67-13.32,3.62-10.26-5.66s-.11-.01-.17-.02l-.03-.1-5.8-3.19-3.19-6.25-6.13-20.03-4.14,2.08,14.83,29.36,13.84,8.05,12.55-1.47h0v.03s.03,0,.03,0h0Z"/>
    <path class="cls-7" d="m235.5,250.64s.11.01.17.02l-.19-.12.03.1h0Z"/>
    <path class="cls-7" d="m344.47,301.82l-.48-7.73c-.79-.32-1.59-.65-2.38-.97l2.86,8.7h0Z"/>
    <path class="cls-7" d="m198.08,194.09l5.41,8.32-3.54-8.96-1.86.64h0Z"/>
    <polygon class="cls-7" points="210.74 216.47 210.87 217 216.22 223.17 216.23 223.17 213.22 217.21 210.74 216.47"/>
    <polygon class="cls-7" points="213.22 217.21 216.23 223.17 220.36 221.08 219.77 219.15 213.22 217.21"/>
    <path class="cls-7" d="m196.2,194.73l3.76-1.27c-1.28-3.26-2.57-6.52-3.87-9.78.04,3.69.06,7.38.11,11.07h0Z"/>
    <path class="cls-7" d="m210.31,216.35l-4.27-1.27-1.99-3.5v.03s-.14,6.08-.14,6.08l8.27,4.37-1.31-5.05-.56-.66h0Z"/>
    <polygon class="cls-7" points="210.31 216.35 210.87 217 210.74 216.47 210.31 216.35"/>
    <path class="cls-7" d="m541.03,59.41c-.61-2.2-1.31-4.27-2.08-6.18l3.26,11.7c-.27-1.86-.65-3.7-1.18-5.52h0Z"/>
    <rect class="cls-5" x="221.64" y="212.51" width="51.9" height=".75" transform="translate(-69.15 133.55) rotate(-26.63)"/>
    <rect class="cls-5" x="84.32" y="278.32" width="51.9" height=".75" transform="translate(-128.01 96.89) rotate(-31.07)"/>
    <rect class="cls-5" x="262.01" y="418.72" width="51.9" height=".75" transform="translate(-31.86 23.77) rotate(-4.48)"/>
    <g>
      <path class="cls-6" d="m576.28,348.4c-11.24-4.84-22.11-9.35-32.62-13.57l-29.98,103.49h0l.05.02,56.27,16.3,36.73-126.77c-9.63,6.83-19.77,13.66-30.44,20.53h-.01Z"/>
      <polygon class="cls-1" points="560.2 250.68 560.23 250.69 560.39 249.97 611.02 261.3 611.02 261.28 560.38 249.95 560.2 250.68"/>
      <polygon class="cls-1" points="733.86 284.02 732.85 288.54 682.2 277.2 682.04 277.94 682.05 277.94 682.21 277.23 732.84 288.55 732.85 288.54 733.86 284.02 750.84 253.48 750.84 253.48 733.86 284.02"/>
      <polygon class="cls-1" points="629.02 226.22 553.88 209.42 554.81 243.98 612.03 256.78 629.02 226.22"/>
      <polygon class="cls-1" points="732.68 289.29 729.09 305.35 729.09 305.35 732.68 289.29 732.68 289.29"/>
      <polygon class="cls-1" points="551.85 257.23 538.19 318.26 538.2 318.26 551.85 257.23 551.85 257.23"/>
      <polygon class="cls-1" points="515.51 434.55 545.49 331.06 545.49 331.06 515.51 434.55"/>
      <path class="cls-1" d="m532.3,228.3l.31,7.01,11.02,14.91,9.43,1.57,1.74-7.82-.93-34.55,75.13,16.8-16.99,30.55-1,4.51v.02h.01l-.16.73h-.01l-10.15,45.38c2.98-2.4,5.9-4.8,8.77-7.19,13.44,5.62,27.47,11.7,42.05,18.27,5.43-4.77,10.62-9.54,15.58-14.3l-2.73-9.51,9.13-24.02,3.09-1.47-.88-32.53,25.91,5.8h0l-166.72-37.31.44.39-3.03,22.75h-.01Z"/>
      <path class="cls-1" d="m664.16,370.09h-7.29l-14.8,8.79,10.59-10.7,14.07-6.94,6.94-23.98,1.95-9.59-.59-2.68c-5.24,4.45-10.72,8.88-16.43,13.31-14.15-7.46-27.77-14.39-40.84-20.84-3.01,2.21-6.08,4.42-9.2,6.63l-36.73,126.77.05.02-1.19,34.15,46.16,13.38,18.63-29.1-.05-.02,28.74-99.2h-.01Z"/>
      <path class="cls-1" d="m538.19,318.26l13.65-61.03-10.93-3.55-14.81-21,3.71-24.27-4.06-5.29-12.13-2.72c-3.25,1.49-6.5,2.99-9.74,4.5l-.2.36c7.59,13.17,15.46,26.18,23.59,39.02-10.02,4.89-19.99,9.94-29.9,15.12.33.14.66.28.99.43-3.6,2.13-7.19,4.27-10.77,6.45-.75,0-1.51.03-2.26.09,8.46,12.85,17.19,25.52,26.15,38.02-13.58,7.59-27.04,15.44-40.36,23.58,4.61,6.2,9.29,12.36,14.03,18.47,15.8-10.46,30.76-20.73,44.86-30.86,2.7.88,5.43,1.77,8.18,2.69h0Z"/>
      <path class="cls-1" d="m545.49,331.06c-2.69-1.08-5.36-2.15-8-3.19-14.7,9.23-30.27,18.56-46.68,28.03,4.56,6.7,9.18,13.36,13.87,19.97-13.42,7.39-26.7,15.04-39.84,22.97,9.55,12.99,19.35,25.79,29.38,38.38-9.2,5.78-18.32,11.7-27.37,17.75l30.08,8.72,18.63-29.1h-.05v-.03h0l29.98-103.49h0Z"/>
      <polygon class="cls-1" points="668.75 295 670.49 298.78 675.29 277.27 674.95 277.52 668.75 295"/>
      <path class="cls-6" d="m560.22,250.7h0l-.02-.02.17-.74,50.65,11.33,1-4.51-57.22-12.8-1.74,7.82,4.17.69,13.13,14.46,11.13,9.98,3.2,10.34-4.69,7.98.08,17.21-3.87-14.55,1.34-18.21-24.61-22.11-1.1-.35-13.65,61.03c10.75,3.56,21.88,7.39,33.4,11.52,10.22-7.52,19.93-14.97,29.11-22.38l10.15-45.38-50.63-11.33v.02h0Z"/>
      <polygon class="cls-5" points="611.02 261.3 560.39 249.97 560.23 250.69 610.86 262.01 611.02 261.3"/>
      <polygon class="cls-5" points="610.86 262.01 610.86 262.03 610.87 262.03 611.04 261.3 611.02 261.3 610.86 262.02 611.02 261.3 611.02 261.3 610.86 262.01"/>
      <polygon class="cls-5" points="560.23 250.69 560.22 250.7 610.86 262.03 610.86 262.01 560.23 250.69"/>
      <path class="cls-6" d="m689.62,304.46c-3.32,3.11-6.76,6.2-10.3,9.29l2.88,7.49-5.81,18.65-2.96,14.64-7.29,8.01h-1.97l-28.74,99.2.05.02,56.27,16.3,45.09-155.62c-2.06,2.27-4.19,4.53-6.37,6.78-14.11-8.79-27.73-17.02-40.83-24.74l-.02-.02h0Z"/>
      <path class="cls-6" d="m682.05,277.96v-.02h-.01l.16-.74,50.65,11.33,1.02-4.52-51.54-11.53-1.74.86-5.3,3.92-4.81,21.51.67,1.47c3.35-3.3,6.59-6.6,9.71-9.91,13.55,6.89,27.65,14.27,42.28,22.17,2.04-2.38,4.02-4.77,5.94-7.16l3.59-16.06-50.63-11.33h0Z"/>
      <polygon class="cls-6" points="676.59 269.19 677.16 268.94 678.83 261.48 688.39 263.62 695.69 260.17 701.62 242.46 675.71 236.67 676.59 269.19"/>
      <path class="cls-6" d="m733.86,284.02l16.98-30.54-41.93-9.38,41.93,9.38h0l-41.93-9.38c-2,1.61-4,3.23-5.99,4.84l-1.76,14.2h0l-4.63,2.3,39.53,8.84-2.18,9.74h-.02,0Z"/>
      <polygon class="cls-6" points="750.84 253.48 750.84 253.48 708.91 244.1 750.84 253.48"/>
      <polygon class="cls-6" points="677.16 268.94 688.39 263.62 678.83 261.48 677.16 268.94"/>
      <polygon class="cls-6" points="733.86 284.02 736.04 274.28 696.52 265.44 682.32 272.49 733.86 284.02"/>
      <polygon class="cls-5" points="682.05 277.94 732.69 289.26 732.68 289.29 732.68 289.29 732.69 289.27 732.84 288.55 682.21 277.23 682.05 277.94"/>
      <polygon class="cls-5" points="732.68 289.29 732.7 289.29 732.86 288.56 732.84 288.55 732.69 289.27 732.68 289.29"/>
      <polygon class="cls-5" points="682.05 277.94 682.05 277.96 732.68 289.29 732.69 289.26 682.05 277.94"/>
      <polygon class="cls-7" points="594.38 390.75 594.38 390.75 595.6 385.31 586.16 383.74 575.14 368.83 574.82 361.82 577.87 339.07 577.43 338.68 568.3 336.64 572.36 341.93 568.64 366.2 583.44 387.2 594.38 390.74 594.38 390.75"/>
      <polygon class="cls-7" points="551.85 257.22 540.91 253.68 551.85 257.23 551.85 257.22"/>
      <polygon class="cls-7" points="577.55 279.7 576.21 297.91 580.08 312.46 580 295.24 584.69 287.26 581.49 276.93 570.37 266.95 557.24 252.49 553.07 251.79 551.85 257.23 552.95 257.58 577.55 279.7"/>
      <path class="cls-7" d="m658.56,310.6l.9,2.59-.81,9.75,2.53-15.18c-.87.95-1.74,1.89-2.62,2.84h0Z"/>
      <path class="cls-7" d="m676.59,269.19l-3.09,1.47-9.13,24.02,2.73,9.51c.93-.9,1.85-1.79,2.77-2.69l.61-2.72-1.73-3.78,6.2-17.47.34-.25,1.36-6.05-.06-2.03h0Z"/>
      <polygon class="cls-7" points="641.39 356.1 632.13 367.96 645.8 357.51 653.04 356.66 654.56 347.57 641.39 356.1"/>
      <polygon class="cls-7" points="675.29 277.27 680.59 273.35 682.32 272.49 676.65 271.22 675.29 277.27"/>
      <path class="cls-7" d="m718.29,337.51l-1.94,23.23-2.15,1.4-1.52,9.09,1.96-.23,6.31-8.8,1.23-14.88,3.59-19.2-3.73-7.11c-.4.44-.8.88-1.21,1.33l-2.53,15.18h0Z"/>
      <path class="cls-7" d="m662.39,306.43l-.75-1.43-.46,2.75c.4-.44.81-.88,1.21-1.33h0Z"/>
      <polygon class="cls-7" points="677.16 268.94 676.59 269.19 676.65 271.22 677.16 268.94"/>
      <polygon class="cls-7" points="676.65 271.22 682.32 272.49 696.52 265.44 688.39 263.62 677.16 268.94 676.65 271.22"/>
    </g>
    <path class="cls-6" d="m416.4,467.16c2.03-5.3,4.06-10.55,6.1-15.74-5.05-6.22-10.19-5.59-14.18,1.76l-3.74,6.9,10.14,7.6c.55-.26,1.1-.43,1.67-.52h0Z"/>
    <path class="cls-6" d="m438.79,305.35c-2.35,1.39-4.7,2.78-7.04,4.19l12.36,1.36-5.32-5.54h0Z"/>
    <path class="cls-6" d="m420.08,353.67c-2.35,1.39-4.7,2.78-7.04,4.19l12.36,1.36-5.32-5.54h0Z"/>
    <path class="cls-6" d="m469.03,382.27c-2.35,1.39-4.7,2.78-7.04,4.19l12.36,1.36-5.32-5.54h0Z"/>
    <polygon class="cls-1" points="123.02 477.37 123.02 477.37 123.02 477.37 128.48 504.3 128.48 504.3 123.02 477.37"/>
    <path class="cls-1" d="m206.29,420.16h.02l-14.29-53.65h-.02l14.3,53.66h0Z"/>
    <path class="cls-1" d="m132.34,265.03l-44.38,26.92.2.32.2.33,44.37-26.91,66.35,109.43h.02s-66.35-109.45-66.35-109.45l-.2-.32-8.91-33.79h0l8.91,33.79-.2-.33h0Z"/>
    <polygon class="cls-1" points="222.98 450.02 206.36 420.16 206.34 420.16 222.96 450.03 222.98 450.02"/>
    <path class="cls-1" d="m141.69,325.88c1.51.1,3.03.2,4.53.32l-1.35-5.11-15.03-.86c.45,1.76.92,3.49,1.36,5.24,3.42.06,6.85.21,10.27.41l.19-.14v.15h.04,0Z"/>
    <polygon class="cls-1" points="122.86 476.63 122.88 476.7 122.86 476.63 122.86 476.63"/>
    <path class="cls-1" d="m94.5,305.19l-11.11-10.06-14.42-7.85-16.01-.33-10.24-17.84,7.26,22.87,8.64-1.97,5.25,2.14,4.51-2.45,13.08,8.26,9.81,11.5,5.53,5.01c3.31-1.12,6.63-2.18,9.98-3.18l-12.3-6.11h.02Z"/>
    <path class="cls-1" d="m161.35,446.22l-44.49-120.72,6.34,5.66,6.8,10.76,11.47,2.79,5.26-4.64c-3.42.15-6.83.37-10.25.67-.63-1.69-1.27-3.38-1.91-5.07l-.42.03-20.65-19.2h0l-.7-.65-4.92-3.19c-3.44.61-6.86,1.3-10.27,2.04l4.01,4.55,9.19.93,6.02,5.35,44.49,120.72h.05-.05.02v-.03h0Z"/>
    <path class="cls-1" d="m144.44,337.41l2.78,12.86,14.46,4.49-9.68-6.7-5.77-21.86c-1.51-.12-3.02-.22-4.53-.32l2.75,11.53h-.02,0Z"/>
    <path class="cls-1" d="m110.15,314.07l-1.61-4.53-3.97.62,4.88,3.24.69.66h0Z"/>
    <path class="cls-1" d="m134.58,232.37h0l10.87,33.2.21.3,72.66,105.36c11.32-1.24,22.76-1.75,34.25-1.49,4.64,10.22,9.16,20.47,13.58,30.76-4.42-10.29-8.93-20.54-13.58-30.76-11.48-.26-22.91.24-34.25,1.49l31.51,45.7h.05s25.69,22.52,25.69,22.52l39.56-27.28h0l-10.74-32.83h-.05s-85.7-124.27-85.7-124.27l-8.95-3.68-9.87-22.48-3.98-1.45,3.21,7.77,6.24,28.48,13.13,8.21-6.73,27.08,5.27,10.54-10.53-10.9,3.74-12.61,3.17-11.57-7.21.83-7.85-8.83.54-12.71-3.9-16.09-7.03-5.99-.87-7.41-10.61-3.87c-.35-1.21-.7-2.43-1.06-3.64-3.77.08-7.53.18-11.29.22-.57-1.25-1.13-2.52-1.7-3.76l-28.18,19.42.39-.27h0v.02s0-.02,0-.02h0Z"/>
    <polygon class="cls-5" points="215.95 457.75 215.93 457.75 216.09 458.09 152.53 470.99 262.97 448.58 263.03 448.18 215.95 457.76 215.95 457.75"/>
    <polygon class="cls-5" points="122.86 476.63 122.88 476.7 122.94 477.01 140.65 473.41 140.68 473.02 122.86 476.63"/>
    <polygon class="cls-5" points="122.87 476.64 140.68 473.02 140.68 473.02 122.87 476.64"/>
    <polygon class="cls-5" points="122.94 477.01 122.94 477.01 122.88 476.7 122.94 477.01"/>
    <polygon class="cls-5" points="123.02 477.37 123.02 477.37 122.93 477.01 123.02 477.37"/>
    <polygon class="cls-5" points="215.93 457.75 140.68 473.02 140.68 473.02 140.68 473.02 140.65 473.41 152.53 470.99 216.09 458.09 215.93 457.75"/>
    <polygon class="cls-5" points="140.65 473.41 152.53 470.99 140.65 473.41 140.65 473.41"/>
    <path class="cls-5" d="m128.48,504.3l.07.35h0l251.84-51.12c-.21-.09-.43-.17-.64-.25h0l-251.26,51h-.01Z"/>
    <path class="cls-6" d="m140.01,346.01c9.62-1.34,19.31-2.18,29.04-2.49,4.19,10.3,8.28,20.65,12.23,31.03,2.62,0,5.24.06,7.85.13l-57.3-114.43-46.4,23.24-.17-.34-6.01,3.01h0l18.26,36.47c4.2-1.17,8.41-2.26,12.66-3.23,4.28,8.04,8.43,16.13,12.56,24.26l14.88-2.38,2.41,4.7h0l-.02.02h0Z"/>
    <path class="cls-6" d="m108.54,309.54l1.61,4.53h0l20.42,19.45.42-.02c-3.09-8.58-6.24-17.13-9.49-25.62-4.33.45-8.65,1.01-12.96,1.66h0Z"/>
    <path class="cls-6" d="m170.51,373.93c-1.77-10.98-3.68-21.93-5.7-32.87-9.58-1.67-19.25-2.8-28.94-3.44l6.02,21.78,9.75,6.59-14.52-4.31-2.93-12.82-2.88-11.49c-.07,0-.15-.01-.22,0l-5.67,4.14-11.16-3.84-5.78-11.34-5.79-6.22,33.14,124.32h.05l-.09-.38,50.16-13.36.08.37,6.45-1.72-14.3-53.66c-2.55-.61-5.1-1.18-7.66-1.72h-.02v-.03h0Z"/>
    <path class="cls-6" d="m141.66,325.73l-.19.14c.07,0,.15.01.22.02v-.15h-.03Z"/>
    <polygon class="cls-6" points="110.15 314.07 108.54 309.54 108.54 309.54 110.15 314.07 110.15 314.07"/>
    <polygon class="cls-6" points="92.33 273.75 92.33 273.75 92.32 273.76 110.66 310.18 110.66 310.18 92.33 273.75"/>
    <polygon class="cls-6" points="57.79 271.47 57.79 271.47 123.22 231.8 57.79 271.47"/>
    <polygon class="cls-6" points="127.35 256.82 132.34 265.03 132.54 265.36 123.62 231.56 57.81 271.48 82.38 295.73 77.22 287.21 127.35 256.82"/>
    <polygon class="cls-6" points="82.38 295.73 57.81 271.48 123.62 231.56 123.62 231.56 123.22 231.8 57.79 271.47 82.38 295.76 82.38 295.73"/>
    <polygon class="cls-6" points="88.15 292.26 87.95 291.95 132.34 265.03 127.35 256.82 77.22 287.21 82.38 295.73 82.39 295.75 88.15 292.26"/>
    <polygon class="cls-6" points="92.32 273.73 92.32 273.76 92.33 273.75 92.32 273.73"/>
    <polygon class="cls-6" points="140.68 473.02 215.93 457.75 201.13 426.94 201.1 426.94 201.1 426.94 201.08 426.94 194.54 428.27 194.63 428.63 143.76 438.97 143.68 438.6 143.68 438.6 143.68 438.6 140.68 473.02"/>
    <polygon class="cls-6" points="206.35 420.14 206.38 420.13 206.38 420.13 206.35 420.14"/>
    <path class="cls-6" d="m26.5,257.42l14.63,24.14,111.35-67.51c-3.44-8.95-6.78-17.93-10.01-26.94l-115.96,70.32h0Z"/>
    <path class="cls-6" d="m128.48,504.3l251.26-51c-10.39-4.06-20.74-8.27-31.04-12.61,1.81-3.43,3.65-6.84,5.5-10.25l-231.18,46.93,5.47,26.93h0s0,0,0,0Z"/>
    <polygon class="cls-6" points="128.48 504.3 379.74 453.3 379.74 453.3 128.48 504.3 128.48 504.3"/>
    <path class="cls-4" d="m381.02,453.8l-252.4,51.22h0l-.07-.35-66.24,13.46,5.78,28.43,314.57-63.85c3.79-7.97,7.65-15.91,11.65-23.77-4.44-1.68-8.87-3.4-13.3-5.12h0Z"/>
    <path class="cls-4" d="m.35,250.15c-2.39,9.25,7.96,18.32,17.34,12.63h0l8.83-5.37h0l115.97-70.33h0c-1.02-2.82-2.01-5.64-3.01-8.46-8.33-.59-16.64-1.3-24.92-2.01l-24.82,15.05c-.21.12-.42.24-.63.35-6.52,3.22-13.38-4.45-9.04-10.66h0l15.45-22.08c-2.53-8.19-4.97-16.42-7.34-24.64-2.42-.31-4.83-.65-7.22-.95L2.18,246.23c-.89,1.28-1.5,2.6-1.83,3.94H.35v-.02s0,0,0,0Z"/>
    <polygon class="cls-4" points="26.5 257.42 26.5 257.42 26.51 257.42 142.47 187.11 142.46 187.1 26.5 257.42"/>
    <path class="cls-6" d="m89.09,192.01c.21-.11.41-.21.63-.34l24.82-15.05c-4.67-.4-9.31-.82-13.96-1.26-1.73-5.34-3.41-10.71-5.07-16.07l-15.45,22.08h0c-4.32,6.19,2.53,13.86,9.03,10.65h0Z"/>
    <path class="cls-6" d="m89.09,192.01c-6.51,3.21-13.36-4.46-9.03-10.65h0c-4.34,6.2,2.52,13.87,9.03,10.65Z"/>
    <path class="cls-5" d="m123.02,477.37l231.18-46.93c.08-.15.16-.29.24-.42l-16,3.24h0l-75.46,15.32-140.05,28.42.07.35h.03s0,.01,0,.01Z"/>
    <polygon class="cls-5" points="122.76 477.24 123.12 477.17 123.12 477.17 122.76 477.24"/>
    <polygon class="cls-5" points="122.93 477.01 123.02 477.37 122.94 477.01 122.93 477.01"/>
    <path class="cls-5" d="m128.62,505.05l252.4-51.22c-.21-.09-.43-.17-.64-.25l-251.83,51.13.07.35h0Z"/>
    <rect class="cls-5" x="84.46" y="278.63" width="51.9" height=".75" transform="translate(-128.11 96.96) rotate(-31.06)"/>
    <rect class="cls-5" x="145.46" y="433.93" width="51.9" height=".75" transform="translate(-105.06 58.05) rotate(-14.77)"/>
    <path class="cls-6" d="m113.98,366.23l-2.38,4.55,8.69,3.17c.41-.23.84-.39,1.28-.52,1.15-3.39,2.31-6.74,3.49-10.06-4.53-3.01-8.55-1.98-11.08,2.86h0Z"/>
    <path class="cls-6" d="m107.31,507.37c2-5.51,4.01-10.97,6.04-16.37-6.77-5.61-13.03-4.4-17.25,3.38l-3.95,7.31,13.16,6.4c.65-.32,1.32-.55,2-.7h0v-.02s.01,0,.01,0Z"/>
    <path class="cls-6" d="m139.41,459.73c-6.76-1.33-13.76.16-19.41,4.16l-5.59,3.95,14.38,1.2c.07-.02.15-.04.22-.06-.12-.13-.26-.26-.39-.37,3.59-2.98,7.17-5.94,10.77-8.89h0s0,0,0,0Z"/>
    <path class="cls-6" d="m232.08,438.86l-2.38,4.55,8.69,3.17c.41-.23.84-.39,1.28-.52,1.15-3.39,2.31-6.74,3.49-10.06-4.53-3.01-8.55-1.98-11.08,2.86h0Z"/>
    <path class="cls-6" d="m488.92,363.4c2.5-5.3,5.01-10.55,7.53-15.74-6.23-6.22-12.57-5.59-17.49,1.76l-4.61,6.9,12.51,7.6c.68-.26,1.36-.43,2.06-.52h0Z"/>
    <path class="cls-6" d="m247.69,326.56c-6.83-.92-13.73.99-19.12,5.32l-5.34,4.28,14.43.33c.07-.02.15-.05.22-.07-.13-.12-.27-.24-.41-.35,3.4-3.19,6.8-6.36,10.22-9.52h.01-.01Z"/>
    <path class="cls-6" d="m248.63,363.08c-2.26,1.54-4.52,3.07-6.76,4.62l12.42.58-5.66-5.19h0Z"/>
    <path class="cls-6" d="m315.2,311.94c-2.26,1.54-4.52,3.07-6.76,4.62l12.42.58-5.66-5.19h0Z"/>
    <path class="cls-6" d="m403.79,486.9l-3.04,4.13,8.1,4.46c.44-.16.89-.26,1.34-.32,1.65-3.17,3.31-6.31,4.99-9.41-4.02-3.67-8.15-3.26-11.39,1.14h0Z"/>
    <path class="cls-6" d="m397.28,543.67c2.03-5.3,4.06-10.55,6.1-15.74-5.05-6.22-10.19-5.59-14.18,1.76l-3.74,6.9,10.14,7.6c.55-.26,1.1-.43,1.67-.52h0Z"/>
    <path class="cls-6" d="m392.22,414.23c-2.35,1.39-4.7,2.78-7.04,4.19l12.36,1.36-5.32-5.54h0Z"/>
    <path class="cls-6" d="m385.54,482.81c-2.35,1.39-4.7,2.78-7.04,4.19l12.36,1.36-5.32-5.54h0Z"/>
    <path class="cls-6" d="m459.39,319.78c-2.35,1.39-4.7,2.78-7.04,4.19l12.36,1.36-5.32-5.54h0Z"/>
    <path class="cls-6" d="m362.31,401.77l-3.04,4.13,8.1,4.46c.44-.16.89-.26,1.34-.32,1.65-3.17,3.31-6.31,4.99-9.41-4.02-3.67-8.15-3.26-11.39,1.14h0Z"/>
    <path class="cls-6" d="m594.52,414.82l-3.04,4.13,8.1,4.46c.44-.16.89-.26,1.34-.32,1.65-3.17,3.31-6.31,4.99-9.41-4.02-3.67-8.15-3.26-11.39,1.14h0Z"/>
    <path class="cls-6" d="m471.35,423.45c-2.35,1.39-4.7,2.78-7.04,4.19l12.36,1.36-5.32-5.54h0Z"/>
    <path class="cls-6" d="m620.91,435.87c-2.63-.73-5.26-1.45-7.9-2.16l7.6,9.84.29-7.68h.01Z"/>
    <polygon class="cls-1" points="647.05 473.64 647.06 473.67 662.71 476.28 662.8 475.72 662.71 476.25 647.05 473.64"/>
    <polygon class="cls-1" points="611.51 467.73 611.51 467.75 640.16 472.52 640.14 472.49 611.51 467.73"/>
    <path class="cls-1" d="m690.74,512.24h-.01l-.02.37-152.49-9.07s-.01,0-.02,0l152.52,9.07.02-.38Z"/>
    <path class="cls-1" d="m690.74,512.23l-151.87-9.03s-.01,0-.02,0l151.89,9.04h0Z"/>
    <polygon class="cls-1" points="515.08 469.92 555.59 476.67 555.71 475.93 555.69 475.92 555.56 476.66 515.08 469.92"/>
    <path class="cls-1" d="m604.68,478.02c-4.44-.89-8.87-1.77-13.28-2.6-1.92,1.01-3.86,2.03-5.8,3.04l18.34,1.09.74-1.53Z"/>
    <polygon class="cls-1" points="512.73 468.77 509.46 468.22 509.46 468.22 512.73 468.77"/>
    <polygon class="cls-6" points="512.73 468.77 555.69 475.92 555.69 475.92 555.71 475.93 555.59 476.67 515.08 469.92 509.71 469.03 509.9 469.64 505.21 477.62 505.29 494.41 565.22 497.97 563.87 481.63 521.75 474.62 563.87 481.63 563.12 472.48 563.1 472.48 563.1 472.48 563.05 472.48 507.93 463.29 509.46 468.22 512.73 468.77"/>
    <polygon class="cls-6" points="501.42 480.29 502.24 469.07 490.37 493.52 505.17 494.4 501.42 480.29"/>
    <path class="cls-6" d="m672.21,496.15l-1.98-24.06h-.05l-26.26-4.38,2.68,5.1,16.22,2.7-.04.21-.09.56-15.64-2.61.9,1.72,6.13,8.42-.5,8.81-1.34,1.46-3.18-5.67.93-2.19-9.55-13.15h.01l-.31-.55-28.65-4.77v-.02s0,0,0,0l.12-.74,28.05,4.67-2.88-5.13-24.39-4.06-13.49,27.76c3.59.72,7.19,1.46,10.79,2.22l62.5,3.72Z"/>
    <path class="cls-6" d="m615.47,480.23c-3.61-.76-7.2-1.49-10.79-2.22l-.74,1.53,11.54.69Z"/>
    <polygon class="cls-6" points="692.38 484.44 692.36 484.81 692.36 484.81 692.38 484.44"/>
    <polygon class="cls-6" points="690.74 512.24 690.71 512.62 690.72 512.6 690.74 512.24 690.74 512.24 690.74 512.24"/>
    <polygon class="cls-6" points="690.74 512.24 690.74 512.24 690.74 512.23 690.74 512.23 690.74 512.24 690.74 512.24"/>
    <path class="cls-6" d="m563.84,488.71l.63,7.69-70.92-11.81-46.16-2.7c.11-.11.22-.25.34-.36l19.33,1.13-19.02-1.11,42,2.46-1.33-.22.2-.41-42.19-2.51c-2.66,2.82-5.31,5.64-7.94,8.48,8.83,6.85,17.76,13.57,26.76,20.16l83.63,4.97c15.47-8.26,30.56-16.24,45.28-23.98l-30.63-1.79Z"/>
    <path class="cls-6" d="m615.47,480.23l-11.54-.69-.21.44,14.57.85c-.94-.2-1.88-.41-2.82-.61Z"/>
    <path class="cls-4" d="m683.12,519.62h0s0,.38,0,.38l-153.41.07c-10.67,6.55-21.52,13.24-32.54,20.1-15.28-.8-30.37-1.3-45.29-1.51-2.57,3.35-5.12,6.7-7.65,10.08l306.49-.13v-29.01s-67.6.02-67.6.02h0Z"/>
    <path class="cls-4" d="m519.44,519.62l-80.4-12.33c3.56,3.14,7.12,6.27,10.69,9.38-3.37,3.14-6.71,6.3-10.04,9.49,14.71,2.48,29.56,5.26,44.53,8.38,11.94-5.1,23.68-10.07,35.22-14.91Z"/>
    <rect class="cls-5" x="690.74" y="512.24" width="0" height="0"/>
    <polygon class="cls-5" points="690.74 512.24 690.74 512.24 690.74 512.24 690.74 512.24"/>
    <path class="cls-6" d="m703.52,469.06c1.65-3.17,3.31-6.31,4.99-9.41-4.02-3.67-8.15-3.26-11.39,1.14l-3.04,4.13,8.1,4.46c.44-.16.89-.26,1.34-.32Z"/>
    <polygon class="cls-5" points="646.63 472.84 647.05 473.64 662.71 476.25 662.8 475.72 662.83 475.54 646.63 472.84"/>
    <polygon class="cls-5" points="639.69 471.68 611.63 467.01 611.51 467.73 640.14 472.49 639.69 471.68"/>
    <polygon class="cls-5" points="662.83 475.54 662.8 475.72 662.83 475.51 646.61 472.81 646.63 472.84 662.83 475.54"/>
    <polygon class="cls-5" points="639.69 471.68 639.67 471.65 611.63 466.99 611.5 467.73 611.51 467.73 611.63 467.01 639.69 471.68"/>
    <path class="cls-6" d="m711.33,510.73l9.91,7.51-1.73-7.48h0c-2.73-.02-5.46-.03-8.19-.02Z"/>
    <polygon class="cls-5" points="509.71 469.02 515.08 469.92 555.56 476.66 555.69 475.92 512.73 468.77 509.46 468.22 509.71 469.02"/>
    <polygon class="cls-5" points="509.71 469.02 509.71 469.03 515.08 469.92 509.71 469.02"/>
    <polygon class="cls-5" points="555.69 475.92 512.73 468.77 555.69 475.92 555.69 475.92"/>
    <path class="cls-6" d="m691.57,490.14h0c-2.35,1.38-4.7,2.77-7.04,4.18l12.36,1.36-5.32-5.54Z"/>
    <path class="cls-7" d="m641.54,463.16l-6.12-1.06c-.09.5-.17,1-.26,1.51l1.64,2.91,7.14,1.19-2.39-4.55Z"/>
    <polygon class="cls-7" points="640.14 472.49 640.16 472.52 647.06 473.67 647.05 473.64 640.14 472.49"/>
    <polygon class="cls-7" points="646.61 472.81 643.93 467.71 636.79 466.52 639.67 471.65 646.61 472.81"/>
    <polygon class="cls-7" points="640.47 473.07 640.46 473.07 650.01 486.22 649.08 488.41 652.26 494.08 653.6 492.62 654.1 483.81 647.97 475.39 647.06 473.67 640.16 472.52 640.47 473.07"/>
    <polygon class="cls-7" points="647.05 473.64 646.63 472.84 639.69 471.68 640.14 472.49 647.05 473.64"/>
    <polygon class="cls-7" points="639.69 471.68 646.63 472.84 646.61 472.81 639.67 471.65 639.69 471.68"/>
    <path class="cls-6" d="m560.49,513.04l12.36,1.36-5.32-5.54h0c-2.35,1.38-4.7,2.77-7.04,4.18Z"/>
    <path class="cls-6" d="m579.9,510.18h.02c-1.71.17-3.42.35-5.14.54l2.55,4.86,2.57-5.4Z"/>
    <polygon class="cls-7" points="507.93 463.29 506.7 459.31 495.58 449.33 482.45 434.87 478.28 434.17 477.06 439.61 478.16 439.96 502.76 462.08 502.24 469.07 505.27 462.85 507.93 463.29"/>
    <rect class="cls-7" x="506.98" y="465.3" width="0" height="5.02" transform="translate(-37.78 891.03) rotate(-80.54)"/>
    <polygon class="cls-7" points="505.17 494.4 505.29 494.41 505.21 477.62 509.9 469.64 509.71 469.03 504.36 468.13 504.48 467.39 504.51 467.4 504.51 467.4 509.46 468.22 507.93 463.29 505.27 462.85 502.24 469.07 501.42 480.29 505.17 494.4"/>
    <polygon class="cls-7" points="493.52 473.41 493.52 472.98 493.41 472.97 493.52 473.41"/>
    <polygon class="cls-7" points="509.71 469.02 509.46 468.22 504.51 467.4 504.39 468.14 509.71 469.02"/>
    <polygon class="cls-7" points="504.39 468.14 504.51 467.4 504.48 467.39 504.36 468.13 509.71 469.03 509.71 469.02 504.39 468.14"/>
    <path class="cls-6" d="m427.93,525.1c1.65-3.17,3.31-6.31,4.99-9.41-4.02-3.67-8.15-3.26-11.39,1.14h0s-3.04,4.13-3.04,4.13l8.1,4.46c.44-.16.89-.26,1.34-.32Z"/>
    <path class="cls-6" d="m449.91,458.79h0c-2.35,1.38-4.7,2.77-7.04,4.18l12.36,1.36-5.32-5.54Z"/>
    <path class="cls-6" d="m709.77,498.93c-1.6,1.05-3.19,2.1-4.8,3.16-7.54-.86-15.03-1.65-22.49-2.38l-62.46-.99h0s.02,0,.02,0l.33-1.05-19.35,1.76c-13.41,9.84-27.15,19.97-41.22,30.44l151.53-13.62-1.56-17.31Z"/>
    <path class="cls-4" d="m757.82,251.42l19.59,4.4c7.26,1.64,12.78-3.32,13.96-9.16.8-4-.43-8.44-4.53-11.46h0l-155.56-81.86,61.09,45.14c6.28,4.64,1.74,14.58-5.88,12.86l-177.03-39.85c4.61,9.14,9.35,18.22,14.21,27.23l234.16,52.71h0s0,0,0,0Z"/>
    <g id="Group_133" data-name="Group 133">
      <path id="Path_1" data-name="Path 1" class="cls-3" d="m409.47,1.2c7.88-2.2,16.3-1.35,23.58,2.37l130.62,67.02c7.78,3.98,13.54,11.02,15.9,19.43l30.2,109.31c4.63,16.75-5.55,34.24-22.69,38.98l-208.31,57.55c-17.14,4.74-34.85-5.04-39.48-21.8l-30.2-109.31c-2.29-8.43-.97-17.43,3.67-24.83L390.44,15.35c4.33-6.94,11.12-11.99,19.02-14.14h.01Z"/>
      <path id="Path_13" data-name="Path 13" class="cls-7" d="m550.91,171.49l8.8,31.83,15.65-4.32,1.27,4.61-56.16,15.52-1.27-4.61,15.65-4.32-8.8-31.83-62.01,17.13-5.51-19.94,35.8-96.56,28.83-7.97,26.01,94.13,20.17-5.57,1.74,6.33-20.16,5.57h-.01Zm-42.93-63.05l-22.51,59.67,36.23-10.01-13.72-49.66Z"/>
      <path id="Path_14" data-name="Path 14" class="cls-7" d="m462.77,207.77c-1.51,6.44-4.28,12.53-8.15,17.91-3.96,5.51-8.82,10.31-14.39,14.19-5.47,3.91-11.56,6.83-18.03,8.64-3.05.82-6.14,1.41-9.27,1.78-3.43.43-6.87.57-10.32.41-3.36-.15-6.7-.63-9.95-1.47-3.01-.73-5.84-2.02-8.38-3.79l2.68,9.7-5.77,1.59-12.09-43.73,9.07-2.5c.89,3.26,2.69,6.19,5.22,8.44,2.54,2.31,5.53,4.1,8.77,5.24,3.33,1.17,6.81,1.86,10.33,2.03,3.34.21,6.7-.12,9.94-.97,3.02-.88,5.92-2.17,8.6-3.83,2.94-1.75,5.63-3.87,8.01-6.32,2.31-2.35,4.11-5.15,5.27-8.23,1.15-3.06,1.28-6.4.36-9.53-1.45-5.23-4.27-8.77-8.48-10.64-4.77-2-9.83-3.23-14.99-3.63-5.77-.55-11.94-.91-18.5-1.1-6.42-.16-12.8-1.12-18.99-2.86-6.13-1.73-11.76-4.84-16.49-9.1-4.9-4.34-8.56-10.92-11-19.72-1.71-6.02-1.71-12.4.01-18.43,1.71-6.08,4.53-11.79,8.33-16.84,3.86-5.16,8.55-9.64,13.87-13.26,5.11-3.58,10.77-6.26,16.77-7.96,2.8-.75,5.65-1.32,8.52-1.69,3.21-.44,6.46-.63,9.72-.57,3.17.05,6.33.44,9.42,1.17,2.82.63,5.49,1.82,7.85,3.49l-2.28-8.25,4.94-1.37,10.94,39.6-8.65,2.39c-.76-2.83-2.43-5.34-4.74-7.13-2.43-1.89-5.16-3.35-8.07-4.32-3.01-1.01-6.15-1.56-9.33-1.64-2.87-.12-5.73.19-8.51.91-2.8.82-5.5,1.98-8.04,3.44-2.82,1.56-5.37,3.54-7.58,5.87-2.11,2.21-3.8,4.79-5,7.6-1.16,2.75-1.33,5.82-.49,8.68,1.45,5.23,4.31,8.77,8.59,10.62,4.75,1.96,9.8,3.11,14.93,3.43,5.67.43,11.79.66,18.39.69,6.38,0,12.75.86,18.9,2.54,6.07,1.7,11.69,4.74,16.44,8.89,4.95,4.26,8.64,10.79,11.07,19.59,1.89,6.52,2.09,13.43.56,20.05l.02.03h0l-.03-.04h0Z"/>
    </g>
  </g>
</svg>