<?xml version="1.0" encoding="UTF-8"?>
<svg id="Layer_2" data-name="Layer 2" xmlns="http://www.w3.org/2000/svg" viewBox="0 0 810.94 541.33">
  <defs>
    <style>
      .cls-1 {
        fill: none;
      }

      .cls-1, .cls-2, .cls-3, .cls-4, .cls-5, .cls-6, .cls-7 {
        stroke-width: 0px;
      }

      .cls-3 {
        fill: #756746;
      }

      .cls-4 {
        fill: #5c5c5c;
      }

      .cls-5 {
        fill: #2c2c7c;
      }

      .cls-6 {
        fill: #d0d8d7;
      }

      .cls-7 {
        fill: #fff;
      }
    </style>
  </defs>
  <g id="Layer_2-2" data-name="Layer 2">
    <path class="cls-5" d="m393.83,1.01l1.1.29-.16-.37c-.31.02-.62.04-.94.07h0Z"/>
    <path class="cls-1" d="m201.65,251.9l56.05-23,.69,6.76c1.79-3.09,3.6-6.19,5.41-9.27l-62.15,25.5h0v.02h0Z"/>
    <path class="cls-1" d="m197.73,269.97c.2.67.4,1.33.62,1.99l.6-1.58c-.41-.14-.81-.27-1.22-.41h0Z"/>
    <path class="cls-1" d="m177.58,258.97c.1,1.37.2,2.74.29,4.11,3.55,1.26,7.11,2.47,10.67,3.7.24-3.6.5-7.2.74-10.81l-11.72,2.99h.02Z"/>
    <polygon class="cls-1" points="198.76 253.06 188.31 257.36 188.31 257.37 198.77 253.07 198.76 253.06"/>
    <path class="cls-1" d="m196.27,271.36l-3.9-5.28c.85,1.82,1.68,3.63,2.54,5.44.43.09.84.15,1.27.24l.09-.4h0Z"/>
    <path class="cls-6" d="m224.26,314.84l9.78,6.45,13.56-2.57,17.3,9.05,2.5,1c-.88-2.76-1.74-5.52-2.59-8.31-13.6-1.73-27.11-3.61-40.54-5.63h-.02.01Z"/>
    <path class="cls-6" d="m215.28,288.34l-.29-.69,1.67-.68c-.38-1.5-.77-3.02-1.14-4.52l-4.21,1.73,4.54,20.45,2.69,6.48,5.52,3.63c-2.51-8.98-4.91-18-7.24-27.02l-1.55.64h0v-.02h.01Z"/>
    <path class="cls-6" d="m318.04,269.44l-6.34-3.64c1.45,8.45,2.98,16.9,4.61,25.32,2.29.57,4.6,1.1,6.91,1.66l-2.68-5.25-2.5-18.09h0Z"/>
    <path class="cls-6" d="m161.49,280.66l-.43-5.65-10.47,4.29,4.08,8.73,3.9,5.28,2.92-12.64h0Z"/>
    <path class="cls-6" d="m202.09,278.81l2.41.93-1.26-3.07,6.07-2.49c-2.7-.48-5.41-.99-8.1-1.49l-.08.79.96,5.33h0v.02h0v-.02h0Z"/>
    <path class="cls-6" d="m347.45,61.54l.08-.4c-.09.08-.17.16-.26.24.06.05.12.11.18.16h0Z"/>
    <path class="cls-6" d="m204.5,279.74l6.37,2.45.44,1.97,4.21-1.73c-.63-2.49-1.24-4.96-1.85-7.45-1.45-.25-2.9-.54-4.35-.8l-6.07,2.49,1.26,3.07h0Z"/>
    <path class="cls-5" d="m215.28,288.34l1.55-.64c-.06-.24-.13-.48-.19-.74l-1.67.68.29.69h.02Z"/>
    <path class="cls-6" d="m194.35,358.24c1.49,3.18,2.96,6.35,4.46,9.53l10.47-4.29-.73-9.78-4.65-2.16-1.4-5.49-6.73-5.77,1.81-2.52-19.32,7.92c1.8,9.4,3.71,18.79,5.72,28.17l11.18-4.59c-.27-3.68-.51-7.36-.79-11.04h-.02v.02h0Z"/>
    <path class="cls-4" d="m166.46,126.13s.02,0,.02-.04c0,0-.02,0-.02.04l-60.77,112.4h0l60.77-112.4Z"/>
    <polygon class="cls-4" points="175.83 230.3 175.83 230.3 196.07 225.13 196.07 225.13 175.83 230.3"/>
    <polygon class="cls-4" points="194.46 267.82 265.09 212.99 265.09 212.99 194.46 267.82 194.46 267.82"/>
    <polygon class="cls-2" points="196.07 225.13 196.07 225.13 175.83 230.3 175.83 230.3 196.07 225.13"/>
    <polygon class="cls-2" points="194.46 267.82 265.09 212.99 265.09 212.98 194.46 267.82 194.46 267.82"/>
    <g>
      <path class="cls-6" d="m199.66,293.03l2.7,6.19,2.44,13.97c2.74-.24,5.47-.48,8.2-.73l41.13-31.92,6.11,7.87-10.1-25.83c-.08-.01-.16-.03-.23-.04.03-.11.05-.22.09-.34l-2.47-6.33-47.85,37.16h0v-.02h0v-.02h0v.03s0,0,0,0Z"/>
      <path class="cls-6" d="m193.8,272.49l12.42,10.12,3.85,8.85,53.06-41.2c3.2-11.95,6.56-23.86,10.08-35.69-2.72-.51-5.42-1.04-8.13-1.55l-70.64,54.84-.66,4.67h.02s0-.02,0-.02h0Z"/>
      <path class="cls-4" d="m168.98,276.47c1.31,2.69,2.63,5.36,3.95,8.07l16.5-12.8,7.25-19.6-2.23,15.71,70.63-54.83c-10.04-1.96-20.07-4.08-30.05-6.35l-91.05,70.7c8.3-.22,16.64-.49,24.99-.86h0v-.02s0,0,0,0h0Z"/>
      <path class="cls-4" d="m166.46,126.13l-60.77,112.4c2.43.03,4.86.09,7.29.12,3.3,7.91,6.68,15.79,10.13,23.62l61.26-113.3-.13.07c-15.41,3.85-10.3-35.25-17.24-23.85-.17.28-.34.57-.52.91,0,0-.02,0-.02.04h0v-.03h0,0Z"/>
      <path class="cls-6" d="m192.69,160.63c-.8,3.85-.8,7.85,0,11.72,1.59,7.79,6.73,14.38,13.88,17.87,3.55,1.73,7.41,2.7,11.35,2.9,4.14.2,8.32-.35,12.28-1.63,1.38-.45,2.71-.97,4.01-1.57,3.4-10.35,6.93-20.67,10.59-30.91-14.26-3.59-28.43-7.49-42.5-11.72.88-2.32,1.77-4.62,2.65-6.94h0c-2.98,2.53-5.54,5.48-7.62,8.78-2.22,3.52-3.79,7.43-4.62,11.51,0,0-.02,0-.02,0Z"/>
      <path class="cls-6" d="m129.97,277.67c4.67-.08,9.35-.21,14.02-.35l91.05-70.7c-1.95-.44-3.89-.87-5.83-1.32,1.53-4.83,3.09-9.62,4.66-14.41-1.12.5-2.28.92-3.45,1.29-4.05,1.31-8.31,1.86-12.54,1.66-4.05-.18-8-1.2-11.65-2.97-7.36-3.58-12.63-10.39-14.29-18.4-.81-3.97-.82-8.06.01-12.02.84-4.17,2.45-8.15,4.72-11.74,1.75-2.77,3.84-5.28,6.18-7.51l-18.5,7.75-61.26,113.3c2.27,5.14,4.55,10.28,6.87,15.39v.02h0v.02s.02,0,.02,0h0s0,0,0,0Z"/>
    </g>
    <path class="cls-5" d="m191.87,161.98c-.53,4.01-.22,8.09.86,11.99,2.23,7.87,7.99,14.26,15.58,17.3,3.76,1.5,7.78,2.22,11.84,2.13,4.25-.1,8.45-.97,12.4-2.56,1.15-.46,2.26-.98,3.35-1.54.08-.33.16-.68.25-.99-1.24.68-2.54,1.31-3.89,1.85-3.85,1.58-7.97,2.43-12.13,2.52-3.94.1-7.87-.6-11.53-2.07-7.38-2.94-12.97-9.16-15.12-16.82-1.06-3.81-1.34-7.78-.83-11.69.52-4.14,1.81-8.14,3.77-11.81,1.83-3.45,4.19-6.58,6.97-9.32l-2,1.02c-2.18,2.39-4.08,5.06-5.62,7.93-2.01,3.74-3.32,7.85-3.85,12.06h-.04s0,0,0,0Z"/>
    <g>
      <path class="cls-1" d="m301.62,226.22h0l.05.75h0l7.77,99.79c5.54,2.35,11.11,4.67,16.69,6.96.62,13.27,1.45,26.55,2.51,39.82-1.06-13.27-1.89-26.55-2.51-39.82-5.59-2.29-11.13-4.63-16.69-6.96l6.09,78.17h.05l10.91,32.38,16.69-1.3c6.34-8.85,12.79-17.61,19.37-26.25-13.82-8.25-27.49-16.77-41-25.58,9.5-12.05,19.25-23.9,29.2-35.53-13.12-8.85-26.07-17.97-38.85-27.36,10.35-11.68,20.91-23.14,31.67-34.38-12.38-9.42-24.58-19.08-36.57-29.02,11.15-11.26,22.5-22.29,34.05-33.08-11.54-9.88-22.88-20.02-34-30.37l-5.78,27.13.36,4.62h0v.03h0Z"/>
      <rect class="cls-5" x="257.42" y="412.05" width="51.9" height=".75" transform="translate(-31.15 23.23) rotate(-4.45)"/>
      <g>
        <path class="cls-6" d="m309.45,326.76c-4.43-1.87-8.81-3.76-13.21-5.65l.35,7.73-2.7-8.75c-2.17-.94-4.36-1.86-6.51-2.81-.17-8.59-.24-17.17-.24-25.75l-19.85-16.45-12.17-3.41-9.74-12.71,11.72,150.53h.05l58.4-4.56-6.09-78.17h-.01,0Z"/>
        <path class="cls-6" d="m315.58,404.93h-.05l-58.4,4.56-7.19,33.8,76.56-5.96-10.91-32.39h-.01Zm-58.04,9.9l-.05-.75,51.74-4.02.05.75-51.74,4.02h0Z"/>
      </g>
      <polygon class="cls-5" points="326.61 437.69 326.49 437.31 249.93 443.29 249.86 443.66 326.61 437.69"/>
    </g>
    <path class="cls-6" d="m509.48,259.24c4.63-3.45,9.28-6.88,13.95-10.27-9.6-3.14-20.08-2.11-28.89,2.82l-8.27,4.63,19.78,3.34c1.14-.22,2.28-.4,3.43-.52h0Z"/>
    <path class="cls-6" d="m391.53,214.32l-3.04,4.13,8.1,4.46c.44-.16.89-.26,1.34-.32,1.65-3.17,3.31-6.31,4.99-9.41-4.02-3.67-8.15-3.26-11.39,1.14h0Z"/>
    <path class="cls-6" d="m355.28,329.74c2.5-5.3,5.01-10.55,7.53-15.74-6.23-6.22-12.57-5.59-17.49,1.76l-4.61,6.9,12.51,7.6c.68-.26,1.36-.43,2.06-.52h0Z"/>
    <path class="cls-6" d="m440.66,271.13c-6.61-1.95-17.63,15.32-23.63,18.79l-2.01-13.02,14.21,2.53c.07-.01.15-.03.22-.04-.11-.14-.23-.28-.35-.41,3.84-2.64,7.69-5.25,11.55-7.85h.01Z"/>
    <path class="cls-6" d="m444.38,137.9l-3.04,4.13,8.1,4.46c.44-.16.89-.26,1.34-.32,1.65-3.17,3.31-6.31,4.99-9.41-4.02-3.67-8.15-3.26-11.39,1.14h0Z"/>
    <path class="cls-6" d="m378.75,264.26l-3.04,4.13,8.1,4.46c.44-.16.89-.26,1.34-.32,1.65-3.17,3.31-6.31,4.99-9.41-4.02-3.67-8.15-3.26-11.39,1.14h0Z"/>
    <path class="cls-6" d="m439.48,333.24l-3.04,4.13,8.1,4.46c.44-.16.89-.26,1.34-.32,1.65-3.17,3.31-6.31,4.99-9.41-4.02-3.67-8.15-3.26-11.39,1.14h0Z"/>
    <polygon class="cls-4" points="758.79 225.36 533.24 143.31 533.24 143.31 758.79 225.36 758.79 225.36"/>
    <polygon class="cls-2" points="758.79 225.36 533.24 143.31 533.24 143.31 758.79 225.36 758.79 225.36"/>
    <polygon class="cls-6" points="565.78 189.82 564.04 199.65 579.65 168.38 503.84 154.95 506.31 189.42 508.05 179.59 565.78 189.82"/>
    <rect class="cls-6" x="531.38" y="130.3" width="9.99" height="58.63" transform="translate(319.14 675.35) rotate(-83.73)"/>
    <path class="cls-6" d="m521.14,168.94l160.55,58.4,2.71-5.59c8.42-1.57,16.83-3.13,25.25-4.71-6.98,4.28-13.95,8.57-20.94,12.85l60.41,21.98,9.64-26.54-225.56-82.05c.99,2.57,1.99,5.15,2.99,7.71-8.08,2.24-16.13,4.58-24.16,7,0,.21-.03.43-.02.65l9.09,10.27h.02v.02h.02,0Z"/>
    <path class="cls-6" d="m488.31,188.53c-2.35,1.39-4.7,2.78-7.04,4.19l12.36,1.36-5.32-5.54h0Z"/>
    <path class="cls-6" d="m706.85,186.84l-37.77-45.88-44.79-40.06c.26.53.5,1.06.72,1.61,1.19,2.9,1.78,6.01,1.68,9.13-.18,6.31-3.38,12.18-8.68,15.89-2.62,1.84-5.61,3.14-8.76,3.83-3.32.74-6.74.88-10.11.43-3.61-.48-7.11-1.57-10.32-3.22-2.36-1.18-4.53-2.67-6.5-4.4-4.01.42-8.02.86-12.04,1.32.32,1.5.64,3.01.97,4.52l128.39,65.23c5.52,2.8,11.11-3.68,7.21-8.4h-.02.02Z"/>
    <polygon class="cls-7" points="122.68 209.5 130.05 215.1 134.83 230.93 135.04 243.68 143.35 252.04 150.5 250.8 147.99 262.53 144.96 275.33 156.07 285.6 150.23 275.39 155.41 247.99 141.83 240.52 134 212.43 130.35 204.87 121.4 202.15 122.68 209.5"/>
    <path class="cls-7" d="m196.63,271.84l-.35-.48-.09.4c.15.03.3.06.45.08h0Z"/>
    <path class="cls-7" d="m196.19,271.76l-.38,1.65,1.71,3.65,4.16,1.6-5.03-6.82c-.15-.03-.3-.06-.45-.08h-.01Z"/>
    <polygon class="cls-7" points="198.77 253.07 201.65 251.9 201.65 251.89 198.76 253.06 198.77 253.07"/>
    <path class="cls-7" d="m199.19,258.71l-2.92,12.64.35.48c1.53.29,3.06.57,4.59.85l1.39-14.11-.94-6.69-2.9,1.2.43,5.65h.02l-.02-.02h0Z"/>
    <path class="cls-7" d="m201.67,278.66l.42.17-.96-5.33.08-.79c-1.53-.28-3.07-.56-4.59-.85l5.03,6.82h0v-.02h.02Z"/>
    <polygon class="cls-7" points="185.26 229.87 191.98 235.65 193.39 241.14 198.04 243.29 198.76 253.06 201.65 251.89 200.32 242.32 191.06 229.26 192.95 224.94 187.07 227.36 185.26 229.87"/>
    <polygon class="cls-7" points="187.07 227.35 192.96 224.94 192.96 224.94 187.07 227.35"/>
    <polygon class="cls-7" points="196.69 252.12 189.44 271.73 194.46 267.82 196.69 252.12"/>
    <path class="cls-7" d="m466.91,62.12c-1.45,8.44-2.89,16.88-4.34,25.31l7.29,7.59c1.07-.63,2.15-1.26,3.22-1.89-2.06-10.34-4.12-20.67-6.17-31.01h0Z"/>
    <path class="cls-7" d="m488.1,128.33l-10.73-8.55c-.03-.21-.05-.43-.09-.65-1.11.56-2.23,1.12-3.34,1.67l4.94,5.88,9.21,1.63h0v.02h.01Z"/>
    <polygon class="cls-7" points="652.9 181.36 660.26 182.66 660.26 182.66 652.9 181.35 652.9 181.36"/>
    <path class="cls-7" d="m647.77,199.31l-7.14,3.78,8.2,1.45,4.53-2.51,1.12-14.27c1.93-1.7,3.85-3.4,5.77-5.1l-7.36-1.31-5.13,17.95h0Z"/>
    <path class="cls-7" d="m674.39,221.02l-2.5,5.68,7.11,2.3c6.81-4.55,13.62-9.08,20.44-13.62-8.35,1.88-16.7,3.76-25.06,5.64h.01Z"/>
    <rect class="cls-5" x="87.27" y="324.42" width="51.9" height=".37" transform="translate(-151.85 105.69) rotate(-31.22)"/>
    <rect class="cls-5" x="87.08" y="324.1" width="51.9" height=".38" transform="translate(-151.72 105.55) rotate(-31.22)"/>
    <polygon class="cls-7" points="114.86 359.51 97.32 350.8 86.21 340.74 71.79 332.89 55.77 332.55 45.54 314.7 52.81 337.57 61.45 335.61 66.7 337.75 71.2 335.31 84.29 343.56 94.1 355.06 104.14 364.16 113.36 364.04 119.95 368.68 115.64 360.08 114.86 359.51"/>
    <path class="cls-7" d="m195.98,264.23l-4.74-8.72,1.9-.49h0l-3.85.97c-.24,3.6-.5,7.2-.74,10.81,3.05,1.06,6.11,2.12,9.17,3.16-.59-1.92-1.16-3.82-1.76-5.74h.02Z"/>
    <path class="cls-7" d="m198.31,271.96c-.2-.67-.4-1.33-.62-1.99-3.06-1.04-6.11-2.11-9.17-3.16-.1,1.26-.18,2.53-.26,3.78l8.6,7.31,1.44-5.91.02-.03h-.02,0Z"/>
    <polygon class="cls-7" points="207.02 285.92 202.17 279.35 203.1 284.51 206.69 286.77 211.55 310.83 219.5 316.34 207.03 285.92 207.02 285.92"/>
    <path class="cls-7" d="m294.38,186.9l-5.29-9.45-10.63-6.09c.33,1.99.67,4,1.02,5.99l6.34,3.64,2.5,18.09,2.68,5.25c.83.21,1.66.41,2.5.59l-2.03-9.26,2.91-8.79v.02h0Z"/>
    <path class="cls-7" d="m237.13,297.7l23.93,9.57c-.61-1.93-1.23-3.86-1.84-5.79l-2.5-1-17.3-9.05-13.56,2.57-9.78-6.45s-.11,0-.17-.03l-.02-.1-5.53-3.63-2.69-6.48-4.54-20.45-4.29,1.75,12.48,30.43,13.17,9.11,12.63-.48h0v.03h.03-.02Z"/>
    <path class="cls-7" d="m224.09,314.82s.11,0,.17.03l-.18-.13.02.1h-.01Z"/>
    <path class="cls-7" d="m339.42,196.07l-.48-7.73c-.79-.32-1.59-.65-2.38-.97l2.86,8.7h0Z"/>
    <path class="cls-7" d="m191.22,255.51l4.74,8.72-2.83-9.21-1.9.49h-.01Z"/>
    <polygon class="cls-7" points="202.09 278.81 202.17 279.35 207.02 285.92 207.03 285.92 204.5 279.74 202.09 278.81"/>
    <polygon class="cls-7" points="204.5 279.74 207.03 285.92 211.32 284.16 210.88 282.19 204.5 279.74"/>
    <path class="cls-7" d="m189.29,256l3.85-.97c-1.02-3.35-2.05-6.7-3.09-10.05-.25,3.68-.52,7.36-.76,11.04h0v-.02h0Z"/>
    <path class="cls-7" d="m197.48,289.96l-4.16-1.6-1.71-3.65v.03l-.62,6.05,7.9,5-.91-5.14-.51-.7h.01Z"/>
    <polygon class="cls-7" points="201.67 278.66 202.17 279.35 202.09 278.81 201.67 278.66"/>
    <rect class="cls-5" x="87.13" y="323.91" width="51.9" height=".75" transform="translate(-151.13 104.88) rotate(-31.07)"/>
    <rect class="cls-5" x="253.64" y="383.66" width="51.9" height=".75" transform="translate(-29.14 23.01) rotate(-4.48)"/>
    <g>
      <g>
        <path class="cls-6" d="m617.63,299l-22.5-19.64.85-1.2c-2.43-2.06-4.84-4.1-7.23-6.1l-60.63,89.07.04.04,48.43,32.96,39.09-57.41-15.25-13.31,17.21-24.41h-.01Z"/>
        <path class="cls-6" d="m636.04,369.09h0c1.69,3.44,3.37,6.76,5.02,9.97l.5-.43-5.75-11.54,10.11-8.72-3.9-7.82-20.93,18.63c4.82-.16,9.79-.18,14.95-.09Z"/>
      </g>
      <polygon class="cls-1" points="630.6 197.22 630.61 197.23 630.99 196.61 675.6 223.09 675.61 223.08 630.99 196.58 630.6 197.22"/>
      <polygon class="cls-1" points="785.32 282.82 782.95 286.8 738.32 260.3 737.95 260.97 737.96 260.97 738.33 260.33 782.94 286.82 782.95 286.8 785.32 282.82 810.94 259.08 810.94 259.08 785.32 282.82"/>
      <polygon class="cls-1" points="703.6 195.33 637.39 156.03 627.55 189.17 677.97 219.11 703.6 195.33"/>
      <polygon class="cls-1" points="782.56 287.48 774.16 301.63 774.16 301.63 782.56 287.48 782.56 287.48"/>
      <polygon class="cls-1" points="620.62 200.86 588.69 254.62 588.7 254.62 620.62 200.86 620.62 200.86"/>
      <polygon class="cls-1" points="531.02 358.13 591.65 269.05 591.65 269.05 531.02 358.13"/>
      <path class="cls-1" d="m611.02,167.28l-1.88,6.76,5.85,17.6,8.47,4.42,4.08-6.9,9.84-33.14,66.2,39.3-25.63,23.76-2.35,3.97v.02h0l-.38.65h0l-23.74,39.98c3.57-1.36,7.1-2.73,10.57-4.11,11.03,9.51,22.48,19.65,34.3,30.42,6.64-2.85,13.06-5.77,19.25-8.75l.36-9.89,16.14-20,3.39-.44,9.26-31.2,22.83,13.56h0l-146.89-87.23.3.51-9.94,20.69h0v.02h-.03Z"/>
      <path class="cls-1" d="m692.34,343.01l-6.93-2.26-16.8,3.76,13.39-6.88,15.53-2.23,14.04-20.64,4.83-8.51.27-2.73c-6.36,2.6-12.95,5.11-19.75,7.55-11.14-11.49-21.93-22.3-32.35-32.49-3.54,1.17-7.15,2.31-10.8,3.44l-74.27,109.1.04.04-11.73,32.1,39.73,27.05,26.75-21.88-.04-.04,58.12-85.37h-.03Z"/>
      <path class="cls-1" d="m588.69,254.62l31.92-53.77-9.29-6.77-7.56-24.56,11.06-21.92-2.22-6.29-10.68-6.35c-3.56.4-7.11.82-10.66,1.26l-.3.28c3.12,14.88,6.57,29.68,10.31,44.42-11.04,1.54-22.09,3.25-33.12,5.09.27.24.54.47.81.71-4.09.9-8.16,1.83-12.24,2.79-.71-.23-1.45-.44-2.18-.62,4.05,14.84,8.42,29.6,13.05,44.26-15.27,3-30.5,6.28-45.69,9.88,2.46,7.33,4.99,14.63,7.61,21.92,18.27-5.04,35.67-10.16,52.22-15.41,2.29,1.67,4.61,3.37,6.94,5.09h0v-.02h.02,0Z"/>
      <path class="cls-1" d="m591.65,269.05c-2.22-1.86-4.43-3.71-6.62-5.52-16.84,4.21-34.54,8.25-53.08,12.15,2.26,7.78,4.58,15.55,6.99,23.29-15.05,2.86-30.05,6-45.01,9.47,5.05,15.31,10.39,30.52,16.01,45.6-10.54,2.64-21.04,5.43-31.53,8.38l25.88,17.62,26.75-21.88h-.05v-.05h0l60.63-89.07h.03Z"/>
      <polygon class="cls-1" points="720.01 273.05 720.49 277.19 731.74 258.22 731.34 258.36 720.01 273.05"/>
      <path class="cls-6" d="m630.6,197.25h0l-.02-.02.39-.65,44.63,26.5,2.35-3.97-50.42-29.93-4.08,6.9,3.75,1.95,7.99,17.82,7.48,12.94-.17,10.82-6.93,6.13-5.26,16.38.84-15.03,6.93-16.89-16.53-28.65-.94-.68-31.92,53.77c9.11,6.72,18.5,13.81,28.17,21.32,12.05-3.97,23.59-8.04,34.62-12.24l23.74-39.98-44.61-26.49v.02h0v-.03h0Z"/>
      <polygon class="cls-5" points="675.23 223.72 675.22 223.73 675.23 223.75 675.62 223.09 675.6 223.09 675.22 223.72 675.6 223.09 675.6 223.09 675.23 223.72"/>
      <path class="cls-6" d="m736.92,288.52c-4.12,1.92-8.35,3.8-12.67,5.63l.42,8.01-11.31,15.92-7.36,13-9.42,5.35-1.87-.61-58.12,85.37.04.04,48.43,32.96,91.18-133.93c-2.66,1.52-5.39,3.01-8.16,4.47-10.68-12.74-21.08-24.78-31.13-36.19l-.02-.02h-.01Z"/>
      <polygon class="cls-6" points="735.48 250.94 736.11 250.88 740 244.31 748.43 249.33 756.44 248.3 767.57 233.31 744.75 219.76 735.48 250.94"/>
      <path class="cls-6" d="m762.33,308.7l25.62-23.75-36.95-21.93,36.95,21.93h0l-36.95-21.93c-2.41.91-4.8,1.83-7.2,2.74l-6.09,12.95h0l-5.12.75,34.83,20.67-5.1,8.58h-.02.03Z"/>
      <polygon class="cls-6" points="736.11 250.88 748.43 249.33 740 244.31 736.11 250.88"/>
      <polygon class="cls-5" points="782.56 287.48 782.58 287.48 782.96 286.82 782.94 286.82 782.58 287.45 782.56 287.48"/>
      <polygon class="cls-7" points="623.6 340.98 623.6 340.98 626.44 336.19 617.96 331.76 612.11 314.16 613.98 307.41 623.94 286.73 623.65 286.22 615.6 281.44 617.82 287.73 606.75 309.64 614.29 334.2 623.6 340.97 623.6 340.98"/>
      <polygon class="cls-7" points="620.63 200.84 611.32 194.08 620.62 200.86 620.63 200.84"/>
      <polygon class="cls-7" points="638.07 230.19 631.15 247.08 630.3 262.11 635.58 245.72 642.51 239.59 642.68 228.78 635.21 215.84 627.22 198.01 623.47 196.05 620.62 200.86 621.56 201.52 638.07 230.19"/>
      <path class="cls-7" d="m705.49,284.72l.06,2.74-3.8,9.01,7.12-13.65c-1.12.63-2.24,1.26-3.37,1.89h-.01Z"/>
      <path class="cls-7" d="m735.48,250.94l-3.39.44-16.14,20-.36,9.89c1.16-.57,2.31-1.13,3.47-1.7l1.43-2.4-.47-4.13,11.32-14.68.4-.14,3.17-5.33.57-1.95h0Z"/>
      <polygon class="cls-7" points="675.04 322.63 662.56 331.04 678.8 325.35 685.94 326.79 690.2 318.61 675.04 322.63"/>
      <polygon class="cls-7" points="731.74 258.22 737.99 256.14 739.9 255.86 734.91 252.89 731.74 258.22"/>
      <path class="cls-7" d="m753.91,328.83l-9.05,21.48-2.48.67-4.27,8.17,1.93.39,8.74-6.41,5.79-13.76,9.38-17.14-1.33-7.91c-.52.3-1.03.59-1.56.89l-7.12,13.65h0l-.03-.02h0Z"/>
      <path class="cls-7" d="m710.42,281.94l-.27-1.6-1.29,2.47c.52-.3,1.04-.59,1.56-.89h0v.02h0Z"/>
      <polygon class="cls-7" points="736.11 250.88 735.48 250.94 734.91 252.89 736.11 250.88"/>
      <polygon class="cls-7" points="734.91 252.89 739.9 255.86 755.59 253.58 748.43 249.33 736.11 250.88 734.91 252.89"/>
    </g>
    <path class="cls-6" d="m416.79,373.92c2.03-5.3,4.06-10.55,6.1-15.74-5.05-6.22-10.19-5.59-14.18,1.76l-3.74,6.9,10.14,7.6c.55-.26,1.1-.43,1.67-.52h0Z"/>
    <path class="cls-6" d="m433.74,199.6c-2.35,1.39-4.7,2.78-7.04,4.19l12.36,1.36-5.32-5.54h0Z"/>
    <path class="cls-6" d="m415.03,247.92c-2.35,1.39-4.7,2.78-7.04,4.19l12.36,1.36-5.32-5.54h0Z"/>
    <path class="cls-6" d="m463.98,276.52c-2.35,1.39-4.7,2.78-7.04,4.19l12.36,1.36-5.32-5.54h0Z"/>
    <polygon class="cls-1" points="118.85 415.32 118.85 415.32 118.85 415.32 124.31 442.25 124.31 442.25 118.85 415.32"/>
    <path class="cls-1" d="m197.93,385.12h.02l-14.29-53.65h-.02l14.3,53.66h-.01Z"/>
    <path class="cls-1" d="m131.97,338.76l-46.35,23.36.17.33.17.34,46.34-23.35,57.57,114.29h.02l-57.57-114.31-.17-.33-6.24-34.38h0l6.24,34.38-.17-.34h-.01Z"/>
    <polygon class="cls-1" points="214.62 414.98 198 385.12 197.98 385.12 214.6 414.99 214.62 414.98"/>
    <path class="cls-1" d="m138.97,306.47c1.51.1,3.03.2,4.53.32l-1.35-5.11-15.03-.86c.45,1.76.92,3.49,1.36,5.24,3.42.06,6.85.21,10.27.41l.19-.14v.15h.04,0Z"/>
    <polygon class="cls-1" points="118.69 414.58 118.71 414.65 118.69 414.58 118.69 414.58"/>
    <path class="cls-1" d="m97.32,350.79l-11.11-10.06-14.42-7.85-16.01-.33-10.24-17.84,7.26,22.87,8.64-1.97,5.25,2.14,4.51-2.45,13.08,8.26,9.81,11.5,5.53,5.01c3.31-1.12,6.63-2.18,9.98-3.18l-12.3-6.11h.02Z"/>
    <path class="cls-1" d="m156.87,439.54l-44.49-120.72,6.34,5.66,6.8,10.76,11.47,2.79,5.26-4.64c-3.42.15-6.83.37-10.25.67-.63-1.69-1.27-3.38-1.91-5.07l-.42.03-20.65-19.2h0l-.7-.65-4.92-3.19c-3.44.61-6.86,1.3-10.27,2.04l4.01,4.55,9.19.93,6.02,5.35,44.49,120.72h.05-.05.02v-.03h0Z"/>
    <path class="cls-1" d="m141.72,318l2.78,12.86,14.46,4.49-9.68-6.7-5.77-21.86c-1.51-.12-3.02-.22-4.53-.32l2.75,11.53h-.02,0Z"/>
    <path class="cls-1" d="m109.09,331.31l-1.61-4.53-3.97.62,4.88,3.24.69.66h.01Z"/>
    <path class="cls-1" d="m81.86,323.83h0l8.24,33.95.19.32,64.18,110.73c11.38-.35,22.83.04,34.26,1.2,3.82,10.55,7.53,21.12,11.13,31.73-3.6-10.6-7.29-21.18-11.13-31.73-11.42-1.16-22.86-1.56-34.26-1.2l27.83,48.03h.05l23.85,24.47,41.58-24.1h0l-8.13-33.57h-.05l-75.7-130.61-8.63-4.37-8.08-23.18-3.85-1.76,2.59,8,3.99,28.88,12.45,9.21-8.83,26.47,4.43,10.92-9.64-11.69,4.72-12.28,4.07-11.29-7.25.26-7.13-9.42,1.53-12.63-2.63-16.35-6.54-6.52-.29-7.46-10.27-4.69c-.25-1.23-.51-2.48-.77-3.71-3.76-.22-7.52-.41-11.27-.67-.47-1.29-.93-2.6-1.4-3.88l-29.61,17.15.41-.24h0v.02-.02h0l-.04.03h0Z"/>
    <polygon class="cls-5" points="118.77 414.96 118.77 414.96 118.71 414.65 118.77 414.96"/>
    <polygon class="cls-5" points="118.85 415.32 118.85 415.32 118.76 414.96 118.85 415.32"/>
    <polygon class="cls-5" points="136.48 411.36 148.36 408.94 136.48 411.36 136.48 411.36"/>
    <path class="cls-6" d="m142.83,391.61c9.62-1.34,19.31-2.18,29.04-2.49,4.19,10.3,8.28,20.65,12.23,31.03,2.62,0,5.24.06,7.85.13l-57.3-114.43-46.4,23.24-.17-.34-6.01,3.01h0l18.26,36.47c4.2-1.17,8.41-2.26,12.66-3.23,4.28,8.04,8.43,16.13,12.56,24.26l14.88-2.38,2.41,4.7h0l-.02.02h0Z"/>
    <path class="cls-6" d="m105.82,290.13l1.61,4.53h0l20.42,19.45.42-.02c-3.09-8.58-6.24-17.13-9.49-25.62-4.33.45-8.65,1.01-12.96,1.66h0Z"/>
    <path class="cls-6" d="m166.03,367.25c-1.77-10.98-3.68-21.93-5.7-32.87-9.58-1.67-19.25-2.8-28.94-3.44l6.02,21.78,9.75,6.59-14.52-4.31-2.93-12.82-2.88-11.49c-.07,0-.15-.01-.22,0l-5.67,4.14-11.16-3.84-5.78-11.34-5.79-6.22,33.14,124.32h.05l-.09-.38,50.16-13.36.08.37,6.45-1.72-14.3-53.66c-2.55-.61-5.1-1.18-7.66-1.72h-.02v-.03h0Z"/>
    <path class="cls-6" d="m138.94,306.32l-.19.14c.07,0,.15,0,.22.02v-.15h-.03Z"/>
    <polygon class="cls-6" points="107.43 294.66 105.82 290.13 105.82 290.13 107.43 294.66 107.43 294.66"/>
    <polygon class="cls-6" points="95.15 319.35 95.15 319.35 95.14 319.36 113.48 355.78 113.48 355.78 95.15 319.35"/>
    <polygon class="cls-6" points="57.15 339.34 57.15 339.34 125.48 304.92 57.15 339.34"/>
    <polygon class="cls-6" points="127.64 330.19 131.97 338.76 132.15 339.11 125.9 304.71 57.17 339.35 79.76 365.45 75.28 356.56 127.64 330.19"/>
    <polygon class="cls-6" points="79.76 365.45 57.17 339.35 125.9 304.71 125.9 304.71 125.48 304.92 57.15 339.34 79.76 365.48 79.76 365.45"/>
    <polygon class="cls-6" points="90.97 337.86 90.77 337.55 135.16 310.63 130.17 302.42 80.04 332.81 85.2 341.33 85.21 341.35 90.97 337.86"/>
    <polygon class="cls-6" points="97.57 305.05 97.57 305.08 97.58 305.07 97.57 305.05"/>
    <polygon class="cls-6" points="132.32 437.98 207.57 422.71 192.77 391.9 192.74 391.9 192.74 391.9 192.72 391.9 186.18 393.23 186.27 393.59 135.4 403.93 135.32 403.56 135.32 403.56 135.32 403.56 132.32 437.98"/>
    <polygon class="cls-6" points="197.99 385.1 198.02 385.09 198.02 385.09 197.99 385.1"/>
    <path class="cls-6" d="m17.27,340.13l12.69,25.21,116.3-58.58c-2.73-9.19-5.35-18.41-7.87-27.64l-121.11,61.02h-.01s0,0,0,0Z"/>
    <path class="cls-4" d="m.6,359.3c-3.11,9.03,6.5,18.89,16.3,13.95h0l9.22-4.66h0l121.12-61.03h0c-.8-2.89-1.56-5.78-2.34-8.67-8.26-1.24-16.49-2.6-24.69-3.96l-25.92,13.06c-.22.1-.44.21-.66.3-6.75,2.7-12.99-5.48-8.18-11.34h0l17.13-20.8c-1.88-8.36-3.67-16.76-5.39-25.14-2.39-.5-4.76-1.03-7.12-1.51L2.74,355.53c-.99,1.21-1.7,2.47-2.13,3.78h0v-.02h0Z"/>
    <polygon class="cls-5" points="118.59 415.19 118.95 415.12 118.95 415.12 118.59 415.19"/>
    <polygon class="cls-5" points="118.76 414.96 118.85 415.32 118.77 414.96 118.76 414.96"/>
    <rect class="cls-5" x="87.28" y="324.22" width="51.9" height=".75" transform="translate(-151.24 104.96) rotate(-31.06)"/>
    <rect class="cls-5" x="137.09" y="398.89" width="51.9" height=".75" transform="translate(-96.4 54.76) rotate(-14.77)"/>
    <path class="cls-6" d="m111.26,346.82l-2.38,4.55,8.69,3.17c.41-.23.84-.39,1.28-.52,1.15-3.39,2.31-6.74,3.49-10.06-4.53-3.01-8.55-1.98-11.08,2.86h0Z"/>
    <path class="cls-6" d="m225.47,377.23c-6.76-1.33-13.76.16-19.41,4.16l-5.59,3.95,14.38,1.2c.07-.02.15-.04.22-.06-.12-.13-.26-.26-.39-.37,3.59-2.98,7.17-5.94,10.77-8.89h.02,0Z"/>
    <path class="cls-6" d="m223.72,410.82l-2.38,4.55,8.69,3.17c.41-.23.84-.39,1.28-.52,1.15-3.39,2.31-6.74,3.49-10.06-4.53-3.01-8.55-1.98-11.08,2.86h0Z"/>
    <path class="cls-6" d="m492.58,296.76c2.5-5.3,5.01-10.55,7.53-15.74-6.23-6.22-12.57-5.59-17.49,1.76l-4.61,6.9,12.51,7.6c.68-.26,1.36-.43,2.06-.52h0Z"/>
    <path class="cls-6" d="m244.97,317.15c-6.83-.92-13.73.99-19.12,5.32l-5.34,4.28,14.43.33c.07-.02.15-.05.22-.07-.13-.12-.27-.24-.41-.35,3.4-3.19,6.8-6.36,10.22-9.52h0Z"/>
    <path class="cls-6" d="m242.03,325.31c-2.26,1.54-4.52,3.07-6.76,4.62l12.42.58-5.66-5.19h0Z"/>
    <path class="cls-6" d="m310.15,206.19c-2.26,1.54-4.52,3.07-6.76,4.62l12.42.58-5.66-5.19h0Z"/>
    <path class="cls-6" d="m404.18,404.66l-3.04,4.13,8.1,4.46c.44-.16.89-.26,1.34-.32,1.65-3.17,3.31-6.31,4.99-9.41-4.02-3.67-8.15-3.26-11.39,1.14h0Z"/>
    <path class="cls-6" d="m392.23,437.92c2.03-5.3,4.06-10.55,6.1-15.74-5.05-6.22-10.19-5.59-14.18,1.76l-3.74,6.9,10.14,7.6c.55-.26,1.1-.43,1.67-.52h0Z"/>
    <path class="cls-6" d="m395.76,320.95c-2.35,1.39-4.7,2.78-7.04,4.19l12.36,1.36-5.32-5.54h0Z"/>
    <path class="cls-6" d="m385.93,389.57c-2.35,1.39-4.7,2.78-7.04,4.19l12.36,1.36-5.32-5.54h0Z"/>
    <path class="cls-6" d="m454.34,214.03c-2.35,1.39-4.7,2.78-7.04,4.19l12.36,1.36-5.32-5.54h0Z"/>
    <path class="cls-6" d="m365.85,350.34l-3.04,4.13,8.1,4.46c.44-.16.89-.26,1.34-.32,1.65-3.17,3.31-6.31,4.99-9.41-4.02-3.67-8.15-3.26-11.39,1.14h0Z"/>
    <path class="cls-6" d="m615.46,323.87l-3.04,4.13,8.1,4.46c.44-.16.89-.26,1.34-.32,1.65-3.17,3.31-6.31,4.99-9.41-4.02-3.67-8.15-3.26-11.39,1.14h0Z"/>
    <path class="cls-6" d="m500.88,333.97c-2.35,1.39-4.7,2.78-7.04,4.19l12.36,1.36-5.32-5.54h0Z"/>
    <path class="cls-6" d="m641.85,344.93c-2.63-.73-5.26-1.45-7.9-2.16l7.6,9.84.29-7.68h.01Z"/>
    <polygon class="cls-1" points="667.99 371.69 668 371.72 683.65 374.34 683.74 373.78 683.65 374.31 667.99 371.69"/>
    <polygon class="cls-1" points="632.45 365.78 632.45 365.81 661.1 370.57 661.08 370.54 632.45 365.78"/>
    <path class="cls-1" d="m711.68,410.29h-.01l-.02.37-152.49-9.07h-.02l152.52,9.07.02-.38h0Z"/>
    <path class="cls-1" d="m711.68,410.28l-151.87-9.03h-.02l151.89,9.04h0Z"/>
    <polygon class="cls-1" points="536.02 367.97 576.53 374.72 576.65 373.98 576.63 373.97 576.5 374.72 536.02 367.97"/>
    <path class="cls-1" d="m625.62,376.07c-4.44-.89-8.87-1.77-13.28-2.6-1.92,1.01-3.86,2.03-5.8,3.04l18.34,1.09.74-1.53Z"/>
    <polygon class="cls-1" points="533.67 366.82 530.4 366.28 530.4 366.28 533.67 366.82"/>
    <polygon class="cls-6" points="534.91 366.82 577.87 373.97 577.87 373.97 577.89 373.98 577.77 374.72 537.26 367.97 531.89 367.09 532.08 367.69 527.39 375.68 527.47 392.47 587.4 396.03 586.05 379.69 543.93 372.68 586.05 379.69 585.3 370.53 585.28 370.53 585.28 370.53 585.23 370.53 530.11 361.34 531.64 366.28 534.91 366.82"/>
    <polygon class="cls-6" points="523.6 378.34 524.42 367.12 512.55 391.57 527.35 392.45 523.6 378.34"/>
    <path class="cls-6" d="m693.15,394.2l-1.98-24.06h-.05l-26.26-4.38,2.68,5.1,16.22,2.7-.04.21-.09.56-15.64-2.61.9,1.72,6.13,8.42-.5,8.81-1.34,1.46-3.18-5.67.93-2.19-9.55-13.15h.01l-.31-.55-28.65-4.77v-.02h0l.12-.74,28.05,4.67-2.88-5.13-24.39-4.06-13.49,27.76c3.59.72,7.19,1.46,10.79,2.22l62.5,3.72.02-.02h0Z"/>
    <path class="cls-6" d="m636.41,378.28c-3.61-.76-7.2-1.49-10.79-2.22l-.74,1.53,11.54.69h-.01Z"/>
    <polygon class="cls-6" points="713.32 382.5 713.3 382.87 713.3 382.87 713.32 382.5"/>
    <polygon class="cls-6" points="711.68 410.29 711.65 410.68 711.66 410.66 711.68 410.29 711.68 410.29 711.68 410.29"/>
    <path class="cls-6" d="m606.08,401.33l.63,7.69-70.92-11.81-46.16-2.7c.11-.11.22-.25.34-.36l19.33,1.13-19.02-1.11,42,2.46-1.33-.22.2-.41-42.19-2.51c-2.66,2.82-5.31,5.64-7.94,8.48,8.83,6.85,17.76,13.57,26.76,20.16l83.63,4.97c15.47-8.26,30.56-16.24,45.28-23.98l-30.63-1.79h.02Z"/>
    <path class="cls-6" d="m636.41,378.28l-11.54-.69-.21.44,14.57.85c-.94-.2-1.88-.41-2.82-.61h0Z"/>
    <path class="cls-4" d="m680.09,423.35h0v.38l-73.58.07c-5.12,6.55-10.32,13.24-15.61,20.1-7.33-.8-14.57-1.3-21.72-1.51-1.23,3.35-2.45,6.7-3.67,10.08l147-.13v-29.01l-32.42.02h0Z"/>
    <path class="cls-4" d="m565.53,427.5l-80.4-12.33c3.56,3.14,7.12,6.27,10.69,9.38-3.37,3.14-6.71,6.3-10.04,9.49,14.71,2.48,29.56,5.26,44.53,8.38,11.94-5.1,23.68-10.07,35.22-14.91h0Z"/>
    <path class="cls-6" d="m724.46,367.12c1.65-3.17,3.31-6.31,4.99-9.41-4.02-3.67-8.15-3.26-11.39,1.14l-3.04,4.13,8.1,4.46c.44-.16.89-.26,1.34-.32Z"/>
    <polygon class="cls-5" points="667.57 370.9 667.99 371.69 683.65 374.31 683.74 373.78 683.77 373.59 667.57 370.9"/>
    <polygon class="cls-5" points="660.63 369.73 632.57 365.06 632.45 365.78 661.08 370.54 660.63 369.73"/>
    <polygon class="cls-5" points="683.77 373.59 683.74 373.78 683.77 373.56 667.55 370.87 667.57 370.9 683.77 373.59"/>
    <polygon class="cls-5" points="660.63 369.73 660.61 369.7 632.57 365.04 632.44 365.78 632.45 365.78 632.57 365.06 660.63 369.73"/>
    <path class="cls-6" d="m732.27,408.78l9.91,7.51-1.73-7.48h0c-2.73-.02-5.46-.03-8.19-.02h.01Z"/>
    <polygon class="cls-5" points="530.65 367.07 536.02 367.97 576.5 374.72 576.63 373.97 533.67 366.82 530.4 366.28 530.65 367.07"/>
    <polygon class="cls-5" points="530.65 367.07 530.65 367.09 536.02 367.97 530.65 367.07"/>
    <polygon class="cls-5" points="576.63 373.97 533.67 366.82 576.63 373.97 576.63 373.97"/>
    <path class="cls-6" d="m712.51,388.19h0c-2.35,1.38-4.7,2.77-7.04,4.18l12.36,1.36-5.32-5.54h0Z"/>
    <path class="cls-7" d="m662.48,361.22l-6.12-1.06c-.09.5-.17,1-.26,1.51l1.64,2.91,7.14,1.19-2.39-4.55h-.01Z"/>
    <polygon class="cls-7" points="661.08 370.54 661.1 370.57 668 371.72 667.99 371.69 661.08 370.54"/>
    <polygon class="cls-7" points="667.55 370.87 664.87 365.76 657.73 364.57 660.61 369.7 667.55 370.87"/>
    <polygon class="cls-7" points="661.41 371.12 661.4 371.12 670.95 384.28 670.02 386.47 673.2 392.13 674.54 390.68 675.04 381.87 668.91 373.44 668 371.72 661.1 370.57 661.41 371.12"/>
    <polygon class="cls-7" points="667.99 371.69 667.57 370.9 660.63 369.73 661.08 370.54 667.99 371.69"/>
    <polygon class="cls-7" points="660.63 369.73 667.57 370.9 667.55 370.87 660.61 369.7 660.63 369.73"/>
    <path class="cls-6" d="m581.43,411.09l12.36,1.36-5.32-5.54h0c-2.35,1.38-4.7,2.77-7.04,4.18h0Z"/>
    <path class="cls-6" d="m600.84,408.23h.02c-1.71.17-3.42.35-5.14.54l2.55,4.86,2.57-5.4h0Z"/>
    <polygon class="cls-7" points="537.46 373.81 536.23 369.84 525.11 359.85 511.98 345.4 507.81 344.69 506.59 350.13 507.69 350.48 532.29 372.6 531.77 379.59 534.8 373.37 537.46 373.81"/>
    <polygon class="cls-7" points="527.35 392.45 527.47 392.47 527.39 375.68 532.08 367.69 531.89 367.09 526.54 366.19 526.66 365.44 526.69 365.45 526.69 365.45 531.64 366.28 530.11 361.34 527.45 360.91 524.42 367.12 523.6 378.34 527.35 392.45"/>
    <polygon class="cls-7" points="514.46 371.47 514.46 371.03 514.35 371.03 514.46 371.47"/>
    <polygon class="cls-7" points="530.65 367.07 530.4 366.28 525.45 365.45 525.33 366.19 530.65 367.07"/>
    <polygon class="cls-7" points="525.33 366.19 525.45 365.45 525.42 365.44 525.3 366.19 530.65 367.09 530.65 367.07 525.33 366.19"/>
    <path class="cls-6" d="m428.32,442.86c1.65-3.17,3.31-6.31,4.99-9.41-4.02-3.67-8.15-3.26-11.39,1.14h0l-3.04,4.13,8.1,4.46c.44-.16.89-.26,1.34-.32h0Z"/>
    <path class="cls-6" d="m444.86,353.04h0c-2.35,1.38-4.7,2.77-7.04,4.18l12.36,1.36-5.32-5.54h0Z"/>
    <path class="cls-6" d="m730.71,396.98c-1.6,1.05-3.19,2.1-4.8,3.16-7.54-.86-15.03-1.65-22.49-2.38l-62.46-.99h.02l.33-1.05-19.35,1.76c-13.41,9.84-27.15,19.97-41.22,30.44l151.53-13.62-1.56-17.31h0Z"/>
    <g>
      <path class="cls-6" d="m213.23,422.89c.16-1.02.31-2.04.47-3.06-9.4-4.55-18.9-8.31-28.4-11.29.63-3.4,1.26-6.83,1.88-10.26l-113.56,13.24,3.19,27.27h0l136.42-15.9h0Z"/>
      <path class="cls-6" d="m205.74,398.74c8.68,4.89,17.18,10.54,25.44,16.94-.36.97-.74,1.94-1.1,2.9l118.49,11.1c-8.76-6.89-17.44-13.91-26.03-21.03,2.72-2.76,5.47-5.49,8.23-8.22l-121.04-11.34c-1.33,3.23-2.65,6.45-3.98,9.65h0Z"/>
      <path class="cls-4" d="m365.8,445.44c-3.49-3.22-6.96-6.46-10.44-9.7l.02-.02h-.05s.03.02.04.03l-118.41-21.72c-2.81,5.82-5.61,11.62-8.39,17.37,3.41,3.86,6.73,7.87,9.96,12.03l107.61,19.73c6.49-5.99,13.03-11.92,19.66-17.72h0Z"/>
      <path class="cls-4" d="m218.81,425.19l-136.9,8.19h0l-.02-.34h0v-.04l-67.47,4.06,1.74,28.96,211.2-12.65c-4.14-3.27-8.32-6.37-12.55-9.31,1.33-6.24,2.66-12.54,4-18.87h0Z"/>
    </g>
    <path class="cls-4" d="m662.9,136.7l85.01,57.19-111.32-103.07c.64,2.73,1.3,5.45,1.98,8.17-4.57.79-9.14,1.63-13.69,2.5.02.01.04.03.06.05l37.97,35.15h0s0,0,0,0Z"/>
    <path class="cls-7" d="m146.17,376.32l24.61,7.67c-.76-1.88-1.53-3.75-2.29-5.63l-2.57-.8-17.96-7.67-13.32,3.62-10.26-5.66s-.11,0-.17-.02l-.03-.1-5.8-3.19-3.19-6.25-6.13-20.03-4.14,2.08,14.83,29.36,13.84,8.05,12.55-1.47h0v.03h.03Z"/>
    <path class="cls-6" d="m769.58,388.97l-3.04,4.13,8.1,4.46c.44-.16.89-.26,1.34-.32,1.65-3.17,3.31-6.31,4.99-9.41-4.02-3.67-8.15-3.26-11.39,1.14h0Z"/>
    <path class="cls-6" d="m755.1,403.81c2.03-5.3,4.06-10.55,6.1-15.74-5.05-6.22-10.19-5.59-14.18,1.76l-3.74,6.9,10.14,7.6c.55-.26,1.1-.43,1.67-.52h.01Z"/>
    <path class="cls-6" d="m730.92,350.87c-2.35,1.39-4.7,2.78-7.04,4.19l12.36,1.36-5.32-5.54h0Z"/>
    <path class="cls-6" d="m701.01,380.26l-3.04,4.13,8.1,4.46c.44-.16.89-.26,1.34-.32,1.65-3.17,3.31-6.31,4.99-9.41-4.02-3.67-8.15-3.26-11.39,1.14h0Z"/>
    <path class="cls-6" d="m772.38,410.48h0c-2.35,1.38-4.7,2.77-7.04,4.18l12.36,1.36-5.32-5.54h0Z"/>
    <path class="cls-6" d="m707.88,315.12l-3.04,4.13,8.1,4.46c.44-.16.89-.26,1.34-.32,1.65-3.17,3.31-6.31,4.99-9.41-4.02-3.67-8.15-3.26-11.39,1.14h0Z"/>
    <path class="cls-6" d="m714.33,359.56c2.03-5.3,4.06-10.55,6.1-15.74-5.05-6.22-10.19-5.59-14.18,1.76l-3.74,6.9,10.14,7.6c.55-.26,1.1-.43,1.67-.52h.01Z"/>
    <path class="cls-6" d="m664.16,302.83c-2.35,1.39-4.7,2.78-7.04,4.19l12.36,1.36-5.32-5.54h0Z"/>
    <path class="cls-6" d="m660.24,336.03l-3.04,4.13,8.1,4.46c.44-.16.89-.26,1.34-.32,1.65-3.17,3.31-6.31,4.99-9.41-4.02-3.67-8.15-3.26-11.39,1.14h0Z"/>
    <path class="cls-6" d="m747.84,351.19h0c-2.35,1.38-4.7,2.77-7.04,4.18l12.36,1.36-5.32-5.54h0Z"/>
    <path class="cls-4" d="m246.71,450.08l-80.4-12.33c3.56,3.14,7.12,6.27,10.69,9.38-3.37,3.14-6.71,6.3-10.04,9.49,14.71,2.48,29.56,5.26,44.53,8.38,11.94-5.1,23.68-10.07,35.22-14.91h0Z"/>
    <path class="cls-7" d="m71.87,410.77l-5.23-25.24c-1.28,1.58-2.54,3.16-3.81,4.73l.55,2.64,2.01,19.43,9.63,9.89.03,11.72s.05.1.06.16l-.07.07.02,6.62-3.92,5.82-14.54,15.08,3.83,2.61,18.48-27.21.33-16.01-7.37-10.26h.03v-.04h-.03Z"/>
    <path class="cls-6" d="m107.93,405.56l-2.38,4.55,8.69,3.17c.41-.23.84-.39,1.28-.52,1.15-3.39,2.31-6.74,3.49-10.06-4.53-3.01-8.55-1.98-11.08,2.86h0Z"/>
    <g>
      <path class="cls-4" d="m728.14,220.54l-13.15,24.42,38.39,28.98v-.02h.01l16.03,12.09c5.94,4.49,13.01,2.24,16.49-2.58,2.38-3.31,3.09-7.87.6-12.31l-27.98-35.97-3.33,6.19-27.06-20.8h0Z"/>
      <path class="cls-4" d="m699.77,193.68c4.84,6.12-2.14,14.52-9.04,10.87l-160.41-84.83c2.06,10.03,4.25,20.03,6.58,30l169.65,89.72,9.09-26.2,30.03,16.22,2.3-6.64-95.33-88.71,47.13,59.57Z"/>
    </g>
    <g id="Group_133" data-name="Group 133">
      <path id="Path_1" data-name="Path 1" class="cls-3" d="m457.32.1c9.6.7,18.59,5,25.18,12.02l117.97,126.22c7.04,7.51,10.6,17.6,9.87,27.84l-10.07,133.06c-1.54,20.4-19.78,35.72-40.65,34.13l-253.59-19.19c-20.86-1.58-36.59-19.45-35.04-39.86l10.07-133.06c.82-10.25,5.87-19.69,13.94-26.05L430.63,8.2c7.56-5.96,17.09-8.85,26.69-8.08h.01s0-.02,0-.02h-.01Z"/>
      <path id="Path_13" data-name="Path 13" class="cls-7" d="m546.17,244.98l-2.92,38.75,19.05,1.45-.43,5.62-68.37-5.16.43-5.62,19.05,1.45,2.92-38.75-75.49-5.71,1.84-24.26,78.07-92.68,35.1,2.65-8.66,114.6,24.55,1.86-.59,7.7-24.53-1.86h0v-.02s0-.01,0-.01Zm-22.44-86.9l-48.69,57.1,44.1,3.33,4.58-60.46h.01s0,.02,0,.02Z"/>
      <path id="Path_14" data-name="Path 14" class="cls-7" d="m434.12,250.06c-4.23,6.54-9.72,12.17-16.15,16.59-6.58,4.52-13.87,7.91-21.57,9.99-7.61,2.16-15.52,2.96-23.4,2.38-3.69-.29-7.36-.88-10.98-1.73-3.97-.9-7.84-2.09-11.6-3.65-3.66-1.5-7.17-3.36-10.42-5.59-3.03-2.01-5.67-4.57-7.78-7.54l-.89,11.8-7.01-.53,4.01-53.24,11.03.85c-.32,3.97.51,7.92,2.41,11.43,1.89,3.57,4.49,6.74,7.63,9.29,3.21,2.62,6.81,4.77,10.64,6.36,3.61,1.56,7.47,2.54,11.4,2.89,3.7.23,7.41-.04,11.05-.82,3.95-.77,7.78-2.05,11.38-3.82,3.5-1.68,6.6-4.06,9.11-7.02,2.49-2.94,3.96-6.58,4.2-10.41.48-6.37-1.24-11.41-5.16-15.16-4.49-4.11-9.6-7.48-15.16-9.98-6.17-2.9-12.85-5.75-20.05-8.58-7.05-2.72-13.73-6.34-19.88-10.73-6.11-4.35-11.1-10.05-14.63-16.63-3.69-6.76-5.14-15.5-4.33-26.22.5-7.34,3.05-14.42,7.34-20.42,4.31-6.05,9.71-11.26,15.92-15.33,6.33-4.18,13.3-7.28,20.64-9.16,7.1-1.93,14.41-2.64,21.75-2.14,3.41.28,6.78.79,10.12,1.51,3.73.78,7.42,1.87,10.99,3.22,3.49,1.32,6.83,3.01,9.97,5.04,2.87,1.82,5.35,4.2,7.31,6.99l.77-10.03,6.01.45-3.64,48.21-10.54-.79c.29-3.44-.57-6.89-2.41-9.79-1.94-3.06-4.38-5.77-7.23-8-2.93-2.31-6.19-4.19-9.67-5.53-3.14-1.27-6.43-2.06-9.78-2.39-3.42-.2-6.88,0-10.27.61-3.75.61-7.36,1.78-10.73,3.49-3.22,1.61-6.12,3.79-8.57,6.42-2.37,2.59-3.8,5.92-4.01,9.42-.48,6.37,1.28,11.43,5.29,15.18,4.47,4.05,9.61,7.34,15.17,9.74,6.09,2.73,12.79,5.42,20.1,8.09,7.06,2.54,13.79,6.03,19.91,10.33,6.04,4.3,11.05,9.89,14.67,16.39,3.8,6.7,5.28,15.39,4.47,26.1-.5,7.97-3.03,15.7-7.36,22.43v.04h.01l-.02-.05h0l.02.03-.05.02Z"/>
    </g>
    <path class="cls-4" d="m520.96,463.78l80.46-11.92c-4.33-1.95-8.65-3.89-12.98-5.81,2.29-3.99,4.55-8,6.8-12.03-14.79,1.97-29.8,3.69-45.02,5.12-9.91,8.39-19.66,16.6-29.26,24.63h0Z"/>
    <polygon class="cls-7" points="112.24 329.09 85.14 327.3 66.91 320.49 44.47 318.17 21.55 326.06 2.74 309.06 18.5 333.9 30.37 326.94 38.36 326.89 44.22 321.49 64.84 325.02 81.56 334.31 98.02 340.47 111.18 335.53 121.67 337.92 113.47 329.4 112.24 329.09"/>
    <path class="cls-7" d="m188.31,347.05c-.2-.67-.4-1.33-.62-1.99-3.06-1.04-6.11-2.11-9.17-3.16-.1,1.26-.18,2.53-.26,3.78l8.6,7.31,1.44-5.91.02-.03h-.02,0Z"/>
  </g>
</svg>