<?xml version="1.0" encoding="UTF-8"?>
<svg id="Layer_2" data-name="Layer 2" xmlns="http://www.w3.org/2000/svg" viewBox="0 0 793.74 627.4">
  <defs>
    <style>
      .cls-1 {
        fill: rgba(92, 92, 92, 0);
      }

      .cls-1, .cls-2, .cls-3, .cls-4, .cls-5, .cls-6, .cls-7 {
        stroke-width: 0px;
      }

      .cls-2 {
        fill: none;
      }

      .cls-3 {
        fill: #756746;
      }

      .cls-4 {
        fill: #5c5c5c;
      }

      .cls-5 {
        fill: #2c2c7c;
      }

      .cls-6 {
        fill: #d0d8d7;
      }

      .cls-7 {
        fill: #fff;
      }
    </style>
  </defs>
  <g id="Layer_8" data-name="Layer 8">
    <g>
      <path class="cls-6" d="m385.48,443.99l-3.04,4.13,8.1,4.46c.44-.16.89-.26,1.34-.32,1.65-3.17,3.31-6.31,4.99-9.41-4.02-3.67-8.15-3.26-11.39,1.14Z"/>
      <polygon class="cls-2" points="489.73 522.43 489.73 522.44 489.73 522.43 443.94 511.67 489.73 522.43"/>
      <path class="cls-5" d="m375.88,37.04l1.1.29-.16-.37c-.31.02-.62.04-.94.07Z"/>
      <path class="cls-2" d="m196.1,71.74l111.47-62.47s.02-.01.03-.02c.33-.19.64-.34.93-.49,6.84-3.67,14.27-5.9,21.85-6.63,7.93-.76,16.02.11,23.75,2.66l3.17,1.05c-1.57-1.94-3.15-3.89-4.7-5.84l-173.95,16.72c-2.87,12.61-5.57,25.27-8.07,37.96,8.41,5.76,16.94,11.43,25.53,17.05Z"/>
      <path class="cls-2" d="m255.99,172.29l60.31-5.8-1.29,6.67c2.61-2.45,5.23-4.88,7.86-7.31l-66.87,6.43h0Z"/>
      <path class="cls-2" d="m243.86,189.14c.1.69.2,1.37.3,2.06l.84-1.47c-.38-.2-.76-.39-1.14-.59Z"/>
      <path class="cls-2" d="m225.64,175.2c-.11,1.37-.23,2.74-.34,4.11,3.31,1.78,6.65,3.53,9.98,5.29.8-3.52,1.59-7.04,2.39-10.56l-12.03,1.16Z"/>
      <polygon class="cls-2" points="252.88 172.58 241.62 173.66 241.62 173.67 252.88 172.59 252.88 172.58"/>
      <path class="cls-2" d="m245.2,189.37l-2.2-6.17c.29,1.98.57,3.96.86,5.94.38.2.76.39,1.14.59l.2-.35Z"/>
      <rect class="cls-5" x="185.4" y="212.74" width="0" height=".37" transform="translate(-12.92 11.98) rotate(-3.58)"/>
      <rect class="cls-5" x="185.36" y="212.37" width="0" height=".38" transform="translate(-19.5 18.73) rotate(-5.49)"/>
      <path class="cls-6" d="m258.49,211.11l-.07-.75,1.79-.17c.07-1.55.14-3.11.21-4.66l-4.53.43-1.56,20.88.7,6.98,4.23,5.08c.19-9.33.5-18.65.9-27.96l-1.68.16Z"/>
      <path class="cls-6" d="m306.87,294.32l-5.71-4.56c.15,8.57.37,17.15.7,25.73,2.18.91,4.38,1.79,6.57,2.69l-1.84-5.6.28-18.26Z"/>
      <path class="cls-6" d="m314.93,173.56l.08-.4c-.09.08-.17.16-.26.24.06.05.12.11.18.16Z"/>
      <rect class="cls-5" x="310.12" y="205.4" width="0" height=".75" transform="translate(-18.27 30.63) rotate(-5.49)"/>
      <path class="cls-5" d="m258.49,211.11l1.68-.16c.01-.25.02-.5.03-.76l-1.79.17.07.75Z"/>
      <path class="cls-5" d="m260.18,210.95l49.98-4.8-.07-.75-49.88,4.79c-.01.25-.02.5-.03.76Z"/>
      <polygon class="cls-4" points="228.32 146.58 228.32 146.58 249.11 144.58 249.11 144.58 228.32 146.58"/>
      <polygon class="cls-4" points="255.44 143.98 344.45 135.42 344.45 135.42 255.44 143.98 255.44 143.98"/>
      <path class="cls-1" d="m76.25,138.9h0c-1.37.77-2.48,1.7-3.36,2.74.88-1.04,1.99-1.97,3.36-2.74Z"/>
      <polygon class="cls-1" points="249.11 144.58 249.11 144.58 228.32 146.58 228.32 146.58 249.11 144.58"/>
      <polygon class="cls-1" points="255.44 143.98 344.45 135.42 344.45 135.42 255.44 143.97 255.44 143.98"/>
      <path class="cls-5" d="m318.07,64.54c-2.81,2.91-5,6.37-6.44,10.15-2.9,7.65-2.07,16.22,2.23,23.18,2.13,3.44,4.94,6.41,8.26,8.74,3.48,2.45,7.37,4.25,11.49,5.31,1.19.31,2.4.56,3.61.75.27-.22.53-.44.8-.65-1.41-.2-2.82-.47-4.22-.82-4.03-1.03-7.85-2.79-11.25-5.19-3.23-2.27-5.97-5.16-8.05-8.52-4.18-6.76-4.98-15.08-2.16-22.52,1.4-3.69,3.54-7.06,6.28-9.9,2.88-3.01,6.29-5.46,10.05-7.25,3.52-1.68,7.28-2.81,11.14-3.34l-2.22-.37c-3.17.63-6.28,1.64-9.24,3.04-3.85,1.82-7.33,4.33-10.27,7.4Z"/>
      <g>
        <path class="cls-2" d="m322.52,230.24h0s-.06.75-.06.75h0s-7.54,99.81-7.54,99.81c5.12,3.16,10.26,6.31,15.43,9.43-1.41,13.21-2.61,26.46-3.59,39.74.98-13.28,2.18-26.53,3.59-39.74-5.17-3.12-10.3-6.27-15.43-9.43l-5.9,78.19h.05s5.84,33.68,5.84,33.68l16.69,1.26c7.61-7.78,15.32-15.45,23.14-22.99-12.4-10.26-24.61-20.77-36.62-31.53,11.23-10.46,22.67-20.68,34.28-30.66-11.62-10.75-23.03-21.74-34.22-32.96,12.01-9.97,24.19-19.68,36.54-29.15-10.8-11.2-21.38-22.61-31.72-34.25,12.74-9.43,25.64-18.6,38.69-27.5-9.9-11.53-19.56-23.27-28.97-35.2l-9.85,25.93-.35,4.62Z"/>
        <rect class="cls-5" x="275.73" y="385.56" width=".75" height="51.9" transform="translate(-155.04 655.83) rotate(-85.68)"/>
        <g>
          <path class="cls-6" d="m314.93,330.8c-4.09-2.52-8.14-5.06-12.2-7.6l-.84,7.7-1.33-9.06c-2-1.26-4.02-2.5-6.01-3.77,1.14-8.51,2.38-17,3.69-25.48l-17.11-19.29-11.51-5.23-7.69-14.05-11.37,150.56h.05s58.41,4.41,58.41,4.41l5.9-78.19Z"/>
          <path class="cls-6" d="m309.07,409h-.05s-58.41-4.41-58.41-4.41l-12.26,32.31,76.57,5.78-5.84-33.67Zm-58.87.94l.06-.75,51.76,3.91-.06.75-51.76-3.91Z"/>
          <path class="cls-5" d="m314.98,443.05l16.28,1.23c.11-.12.23-.23.34-.35l-16.69-1.26.07.38Z"/>
        </g>
        <polygon class="cls-5" points="314.98 443.05 314.91 442.67 238.34 436.89 238.21 437.25 314.98 443.05"/>
        <rect class="cls-5" x="276.59" y="401.66" width="0" height="76.99" transform="translate(-183.14 682.82) rotate(-85.68)"/>
      </g>
      <rect class="cls-5" x="122.71" y="465.15" width="0" height=".37" transform="translate(-42.9 13.49) rotate(-5.36)"/>
      <path class="cls-6" d="m386.66,392.79c2.63-5.15,5.28-10.28,7.96-15.39-10,1.44-18.94,6.99-24.66,15.32l-5.36,7.81,19.21-5.76c.92-.7,1.87-1.37,2.85-1.99Z"/>
      <path class="cls-6" d="m408.51,423.21l-3.04,4.13,8.1,4.46c.44-.16.89-.26,1.34-.32,1.65-3.17,3.31-6.31,4.99-9.41-4.02-3.67-8.15-3.26-11.39,1.14Z"/>
      <path class="cls-6" d="m424.59,305.31l-3.04,4.13,8.1,4.46c.44-.16.89-.26,1.34-.32,1.65-3.17,3.31-6.31,4.99-9.41-4.02-3.67-8.15-3.26-11.39,1.14Z"/>
      <path class="cls-6" d="m387.22,433.36c2.5-5.3,5.01-10.55,7.53-15.74-6.23-6.22-12.57-5.59-17.49,1.76l-4.61,6.9,12.51,7.6c.68-.26,1.36-.43,2.06-.52Z"/>
      <path class="cls-6" d="m430.78,448.94c-6.61-1.95-13.71-1.12-19.71,2.35l-5.93,3.42,14.21,2.53c.07-.01.15-.03.22-.04-.11-.14-.23-.28-.35-.41,3.84-2.64,7.69-5.25,11.55-7.85Z"/>
      <path class="cls-6" d="m415.73,380.38l-3.04,4.13,8.1,4.46c.44-.16.89-.26,1.34-.32,1.65-3.17,3.31-6.31,4.99-9.41-4.02-3.67-8.15-3.26-11.39,1.14Z"/>
      <path class="cls-6" d="m357.95,437.88l-3.04,4.13,8.1,4.46c.44-.16.89-.26,1.34-.32,1.65-3.17,3.31-6.31,4.99-9.41-4.02-3.67-8.15-3.26-11.39,1.14Z"/>
      <path class="cls-6" d="m398.96,472.97l-3.04,4.13,8.1,4.46c.44-.16.89-.26,1.34-.32,1.65-3.17,3.31-6.31,4.99-9.41-4.02-3.67-8.15-3.26-11.39,1.14Z"/>
      <path class="cls-4" d="m491.5,135.08l-2.65-2.04c-2.74-2.1-5.64-3.93-8.66-5.5l-45.62,13.1c-1.47,3.47-1.41,6.81,1.94,9.39l.12.07,9.33-1.64c9.95-1.75,20.18.75,28.2,6.88,7.44-2.23,14.89-4.4,22.34-6.5-1.72-4.57-3.38-9.16-5.02-13.76Z"/>
      <path class="cls-4" d="m716.82,289.07l-19.55-4.6h0s19.55,4.6,19.55,4.6c7.25,1.7,12.82-3.2,14.05-9.04-1.23,5.84-6.8,10.74-14.05,9.04Z"/>
      <polygon class="cls-4" points="697.28 284.48 463.63 229.54 463.63 229.54 697.28 284.48 697.28 284.48"/>
      <path class="cls-1" d="m730.87,280.04c.84-4-.35-8.44-4.42-11.5h0s0,0,0,0c4.07,3.07,5.26,7.51,4.42,11.5Z"/>
      <polygon class="cls-1" points="697.28 284.48 463.63 229.54 463.63 229.54 697.28 284.48 697.28 284.48"/>
      <path class="cls-6" d="m479.46,95.67c-4.01-1.98-8.34-3.24-12.78-3.71-.56-.06-1.12-.11-1.68-.15,0,0,0,0,0,0l21.36,8.34c-2.1-1.76-4.41-3.27-6.89-4.48Z"/>
      <path class="cls-6" d="m483.95,194.88c4.14-.48,8.15-1.71,11.85-3.63,3.51-1.81,6.61-4.31,9.13-7.36,5.05-6.14,6.97-14.28,5.18-22.02-.89-3.85-2.56-7.47-4.89-10.66-.83-1.14-1.73-2.22-2.69-3.25l-20.19-10.87c-2.35.77-4.71,1.53-7.06,2.31,5.56,13.6,11.42,27.08,17.59,40.42-10.26,3.6-20.5,7.33-30.7,11.19,6.71,3.37,14.28,4.74,21.8,3.87Z"/>
      <path class="cls-4" d="m697.28,284.48l19.55,4.6c7.25,1.7,12.82-3.2,14.05-9.04.84-4-.35-8.44-4.42-11.5h0s-154.78-83.34-154.78-83.34l60.65,45.72c6.24,4.7,1.6,14.59-6,12.8l-176.64-41.53c4.51,9.19,9.16,18.31,13.95,27.36l233.64,54.93h0Z"/>
      <polygon class="cls-2" points="553.62 503.03 553.58 503.02 577.22 402.48 569.94 402.85 555.6 412.39 565.63 401.16 579.32 393.51 585.04 369.2 586.5 359.53 583.13 347.35 592.52 323.42 595.63 321.99 595.1 289.46 620.94 295.53 620.94 295.53 454.63 256.43 455.08 256.82 451.8 279.54 452.02 286.55 462.89 301.58 472.3 303.25 474.13 295.45 473.57 260.89 548.52 278.51 531.21 308.87 530.15 313.37 530.15 313.37 529.98 314.1 529.98 314.1 489.12 487.87 489.17 487.88 489.72 522.05 536.5 533.05 553.62 503.03"/>
      <path class="cls-2" d="m432.05,474.45l38.98-165.78-10.89-3.66-14.58-21.17,3.98-24.22-4-5.34-12.11-2.85c-3.27,1.45-6.53,2.92-9.79,4.4l-.2.35c7.45,13.25,15.17,26.34,23.17,39.27-10.08,4.79-20.1,9.72-30.07,14.79.33.14.66.29.98.44-3.62,2.08-7.24,4.2-10.84,6.33-.75-.01-1.51.01-2.26.07,8.32,12.94,16.9,25.71,25.74,38.3-13.67,7.44-27.21,15.15-40.62,23.13,9.32,12.82,18.89,25.44,28.7,37.86-13.02,8.06-25.9,16.38-38.62,24.98,10.2,12.48,20.64,24.76,31.3,36.82-8.9,6.24-17.7,12.62-26.42,19.13l30.49,7.17,17.12-30.02h-.05Z"/>
      <polygon class="cls-2" points="587.52 347.71 589.2 351.51 594.25 330.05 593.9 330.3 587.52 347.71"/>
      <path class="cls-2" d="m514.8,103.9c.85,2.35,1.71,4.7,2.58,7.04l209.07,157.59h0c4.07,3.07,5.26,7.51,4.42,11.51-1.23,5.84-6.8,10.74-14.05,9.04l-19.55-4.6-6.46,27.48-62.59-14.72s0,0,0,0l41.83,9.84-17.31,30.36-1.06,4.5-.17.73-40.86,173.77h.05s.55,34.18.55,34.18l22.22,5.22-.09.36h0s-6.46,27.48-6.46,27.48l65.79,15.47,101.03-429.68-278.94-65.59Z"/>
      <polygon class="cls-6" points="479.45 302.22 479.63 301.49 530.15 313.37 531.21 308.87 474.13 295.45 472.3 303.25 476.47 303.99 489.44 318.59 500.46 328.69 503.54 339.06 498.77 346.99 498.66 364.21 494.95 349.62 496.49 331.42 472.12 309.04 471.03 308.67 432.05 474.45 432.1 474.46 489.12 487.87 529.98 314.1 479.45 302.22"/>
      <polygon class="cls-6" points="533.49 299.15 531.21 308.87 548.52 278.51 473.57 260.89 474.13 295.45 476.42 285.73 533.49 299.15"/>
      <rect class="cls-6" x="498.82" y="267.98" width="9.99" height="58.63" transform="translate(99.09 719.69) rotate(-76.77)"/>
      <rect class="cls-5" x="529.69" y="313.73" width=".75" height="0" transform="translate(103.32 757.9) rotate(-76.77)"/>
      <rect class="cls-5" x="504.43" y="281.84" width=".75" height="51.9" transform="translate(89.64 728.75) rotate(-76.77)"/>
      <path class="cls-6" d="m489.17,487.88h-.05s-57.03-13.42-57.03-13.42l-17.12,30.02,74.75,17.57-.55-34.17Zm-7.78,3.69l-50.53-11.88.17-.73,50.53,11.88-.17.73Z"/>
      <rect class="cls-5" x="455.84" y="459.31" width=".75" height="51.91" transform="translate(-120.58 818.3) rotate(-76.77)"/>
      <polygon class="cls-6" points="585.04 369.2 579.32 393.51 581.57 392.25 585.04 369.2"/>
      <polygon class="cls-6" points="601.33 325.35 599.58 326.19 594.25 330.05 589.2 351.51 593.11 360.32 588.26 379.24 586.06 394.01 579.18 402.38 577.22 402.48 553.58 503.02 553.62 503.03 610.65 516.44 651.51 342.67 600.98 330.79 601.15 330.06 651.68 341.94 652.74 337.43 652.74 337.44 601.33 325.35"/>
      <polygon class="cls-6" points="595.63 321.99 596.2 321.73 597.95 314.3 607.49 316.55 614.83 313.17 620.94 295.53 595.1 289.46 595.63 321.99"/>
      <path class="cls-6" d="m620.25,316.2l-4.65,2.25,39.42,9.27-2.28,9.71,17.31-30.36-41.83-9.84c-2.02,1.59-4.03,3.18-6.05,4.78l-1.92,14.18Z"/>
      <polygon class="cls-6" points="596.2 321.73 607.49 316.55 597.95 314.3 596.2 321.73"/>
      <polygon class="cls-6" points="615.6 318.45 601.33 325.35 652.74 337.44 652.74 337.43 655.02 327.72 615.6 318.45"/>
      <rect class="cls-5" x="625.95" y="310.41" width=".75" height="51.9" transform="translate(155.54 869.08) rotate(-76.77)"/>
      <path class="cls-6" d="m536.5,533.05l74.75,17.58-.55-34.17h-.05s-57.03-13.42-57.03-13.42l-17.12,30.02Zm66.42-12.91l-50.53-11.88.17-.73,50.53,11.88-.17.73Z"/>
      <rect class="cls-5" x="577.37" y="487.88" width=".75" height="51.91" transform="translate(-54.68 958.63) rotate(-76.77)"/>
      <path class="cls-6" d="m454.63,256.43l166.31,39.1,2.03-5.87c8.17-2.55,16.35-5.1,24.52-7.64-6.42,5.07-12.85,10.15-19.27,15.22l62.59,14.72,6.46-27.48-233.64-54.93c1.29,2.44,2.58,4.88,3.89,7.31-7.75,3.18-15.48,6.46-23.18,9.8.02.22.03.43.05.65l10.24,9.13Z"/>
      <path class="cls-6" d="m432.91,404.58c-2.35,1.39-4.7,2.78-7.04,4.19l12.36,1.36-5.32-5.54Z"/>
      <path class="cls-6" d="m326.7,425.69c-2.35,1.39-4.7,2.78-7.04,4.19l12.36,1.36-5.32-5.54Z"/>
      <path class="cls-6" d="m404.62,304.32c.15,1.31.3,2.61.45,3.92l3.66-3.79-4.11-.13Z"/>
      <path class="cls-6" d="m401.03,396.9c.15,1.31.3,2.61.45,3.92l3.66-3.79-4.11-.13Z"/>
      <path class="cls-6" d="m438.86,313.9c.15,1.31.3,2.61.45,3.92l3.66-3.79-4.11-.13Z"/>
      <path class="cls-6" d="m626.92,583.69h0s6.46-27.48,6.46-27.48h0s-.09.37-.09.37l-249.6-58.69c-3.1,2.32-6.19,4.65-9.27,7.01,7.54,8.25,15.18,16.39,22.92,24.43l229.66,54-.09.37Z"/>
      <path class="cls-4" d="m626.92,583.69l-.09.37-228.53-53.73c3.3,3.42,6.61,6.83,9.94,10.21-6.91,5.48-13.75,11.07-20.52,16.73l298.35,70.15,6.64-28.24-65.79-15.47h0Z"/>
      <path class="cls-4" d="m571.67,185.2l154.78,83.33-209.07-157.59c1.69,4.58,3.4,9.15,5.16,13.71-7.44,2.18-14.86,4.42-22.28,6.73.03.02.07.05.1.07l71.3,53.74Z"/>
      <path class="cls-6" d="m504.41,148.98l67.26,36.21-71.3-53.74s-.07-.05-.1-.07c-5.51,1.71-11.01,3.47-16.51,5.25,4.55,1.02,8.92,2.84,12.88,5.42,2.93,1.91,5.54,4.25,7.77,6.93Z"/>
      <path class="cls-6" d="m632.32,230.91l-60.65-45.72-67.26-36.21c.49.58.96,1.18,1.41,1.79,2.39,3.27,4.1,6.98,5.01,10.93,1.84,7.97-.13,16.35-5.33,22.66-2.58,3.12-5.76,5.69-9.36,7.55-3.77,1.96-7.87,3.22-12.1,3.72-4.53.54-9.11.27-13.55-.78-3.24-.75-6.37-1.92-9.3-3.47-4.72,1.79-9.44,3.59-14.14,5.44.87,1.79,1.76,3.58,2.63,5.37l176.64,41.53c7.6,1.79,12.24-8.1,6-12.8Z"/>
      <path class="cls-5" d="m479.46,95.67c2.47,1.21,4.78,2.72,6.89,4.48l2,.78c-2.54-2.39-5.42-4.4-8.55-5.94-4.25-2.08-8.81-3.36-13.45-3.82-.45.21-.9.42-1.35.63.56.04,1.12.09,1.68.15,4.45.47,8.77,1.73,12.78,3.71Z"/>
      <path class="cls-5" d="m484.04,195.63c4.23-.49,8.33-1.75,12.1-3.72,3.6-1.86,6.78-4.42,9.36-7.55,5.2-6.32,7.17-14.69,5.33-22.66-.91-3.94-2.62-7.66-5.01-10.93-.45-.61-.92-1.21-1.41-1.79l-1.89-1.02c.96,1.03,1.86,2.11,2.69,3.25,2.33,3.18,4,6.81,4.89,10.66,1.79,7.75-.12,15.89-5.18,22.02-2.51,3.04-5.62,5.55-9.13,7.36-3.69,1.92-7.71,3.15-11.85,3.63-7.52.87-15.09-.5-21.8-3.87-.32.12-.64.24-.97.36,2.94,1.55,6.06,2.72,9.3,3.47,4.43,1.06,9.02,1.32,13.55.78Z"/>
      <polygon class="cls-5" points="489.72 522.05 489.73 522.43 536.31 533.39 536.5 533.05 489.72 522.05"/>
      <polygon class="cls-5" points="633.38 556.21 633.47 555.85 611.25 550.62 611.26 551.01 633.38 556.21"/>
      <polygon class="cls-5" points="489.73 522.43 489.72 522.05 414.98 504.47 414.78 504.81 443.94 511.67 489.73 522.43"/>
      <polygon class="cls-5" points="536.31 533.39 611.26 551.01 611.25 550.62 536.5 533.05 536.31 533.39"/>
      <path class="cls-5" d="m633.38,556.21l-22.12-5.2h0s-74.95-17.62-74.95-17.62h0s-46.58-10.96-46.58-10.96h0s-105.33-24.76-105.33-24.76h0s18.54,4.35,18.54,4.35l-18.85-4.43c-.13.1-.26.19-.4.29l249.6,58.69.09-.37Z"/>
      <polygon class="cls-5" points="442.52 465 430.43 463.68 442.52 465 442.52 465"/>
      <polygon class="cls-5" points="443.94 511.67 414.78 504.81 414.78 504.82 489.73 522.44 489.73 522.43 443.94 511.67"/>
      <polygon class="cls-5" points="443.94 511.67 414.78 504.81 414.78 504.81 443.94 511.67"/>
      <polygon class="cls-5" points="384.4 497.67 489.73 522.44 414.78 504.82 414.78 504.81 402.95 502.03 384.4 497.67 384.4 497.67"/>
      <rect class="cls-5" x="573.78" y="503.7" width="0" height="77" transform="translate(-85.35 976.66) rotate(-76.77)"/>
      <path class="cls-5" d="m627.01,583.32l-229.66-54c.16.17.32.33.48.5l229.09,53.86.09-.37Z"/>
      <path class="cls-5" d="m626.92,583.69l-229.09-53.86c.16.17.32.33.48.5l228.53,53.73.09-.37Z"/>
      <polygon class="cls-7" points="238.97 203.75 242.2 212.4 237.78 228.37 231.12 239.22 233.69 250.74 240.39 253.51 231.99 262.08 222.59 271.27 226.49 285.91 227.01 274.14 246.05 253.75 238.56 240.2 246.96 212.28 247.94 203.93 241.82 196.84 238.97 203.75"/>
      <path class="cls-7" d="m245.4,189.94l-.2-.56-.2.35c.13.07.27.14.4.21Z"/>
      <path class="cls-7" d="m245,189.73l-.84,1.47.58,3.99,3.52,2.73-2.85-7.98c-.13-.07-.27-.14-.4-.21Z"/>
      <polygon class="cls-7" points="252.88 172.59 255.99 172.29 255.99 172.28 252.88 172.58 252.88 172.59"/>
      <polygon class="cls-7" points="246.65 146.46 251.42 153.93 251.18 159.59 255.01 163.01 252.88 172.58 255.99 172.28 257.47 162.73 252.39 147.55 255.44 143.98 249.11 144.58 246.65 146.46"/>
      <rect class="cls-7" x="249.1" y="144.28" width="6.36" height="0" transform="translate(-12.65 24.8) rotate(-5.49)"/>
      <polygon class="cls-7" points="265.72 131.9 249.11 144.58 255.44 143.97 265.72 131.9"/>
      <rect class="cls-7" x="252.27" y="141.1" width="0" height="6.35" transform="translate(-22.82 237.99) rotate(-48.58)"/>
      <path class="cls-7" d="m434.39,174.15c-1.45,8.44-2.89,16.88-4.34,25.31l7.29,7.59c1.07-.63,2.15-1.26,3.22-1.89-2.06-10.34-4.12-20.67-6.17-31.01Z"/>
      <polygon class="cls-7" points="462.89 301.58 452.02 286.55 451.8 279.54 455.08 256.82 454.63 256.43 445.53 254.28 449.53 259.62 445.55 283.85 460.13 305.01 471.03 308.67 472.3 303.25 462.89 301.58"/>
      <polygon class="cls-7" points="496.49 331.42 494.95 349.62 498.66 364.21 498.77 346.99 503.54 339.06 500.46 328.69 489.44 318.59 476.47 303.99 472.3 303.25 471.03 308.67 472.12 309.04 496.49 331.42"/>
      <path class="cls-7" d="m454.63,256.43l-10.24-9.13c-.02-.22-.03-.43-.05-.65-1.14.5-2.29.99-3.43,1.49l4.61,6.15,9.11,2.14Z"/>
      <polygon class="cls-7" points="595.66 324.02 595.63 321.99 592.52 323.42 583.13 347.35 586.5 359.53 585.04 369.2 589.2 351.51 587.52 347.71 593.9 330.3 594.25 330.05 595.66 324.02 595.66 324.02"/>
      <polygon class="cls-7" points="565.63 401.16 555.6 412.39 569.94 402.85 577.22 402.48 579.32 393.51 565.63 401.16"/>
      <polygon class="cls-7" points="620.94 295.53 628.22 297.24 628.22 297.24 620.94 295.53 620.94 295.53"/>
      <polygon class="cls-7" points="594.25 330.05 599.58 326.19 601.33 325.35 595.66 324.02 594.25 330.05"/>
      <polygon class="cls-7" points="581.57 392.25 579.32 393.51 577.22 402.48 579.18 402.38 586.06 394.01 588.26 379.24 593.11 360.32 589.2 351.51 585.04 369.2 581.57 392.25"/>
      <polygon class="cls-7" points="595.66 324.02 596.2 321.73 595.63 321.99 595.66 324.02 595.66 324.02"/>
      <path class="cls-7" d="m614.83,313.17l-7.34,3.37,8.11,1.91,4.65-2.25,1.92-14.18c2.02-1.59,4.03-3.18,6.05-4.78l-7.28-1.71-6.11,17.64Z"/>
      <polygon class="cls-7" points="595.66 324.02 601.33 325.35 615.6 318.45 607.49 316.55 596.2 321.73 595.66 324.02"/>
      <path class="cls-7" d="m622.98,289.66l-2.03,5.87,7.28,1.71c6.42-5.07,12.85-10.15,19.27-15.22-8.17,2.55-16.35,5.1-24.52,7.64Z"/>
      <g>
        <rect class="cls-5" x="120.4" y="225.37" width="51.9" height=".37" transform="translate(-20.9 15.03) rotate(-5.49)"/>
        <rect class="cls-5" x="120.36" y="225" width="51.9" height=".38" transform="translate(-20.87 15.03) rotate(-5.49)"/>
        <path class="cls-4" d="m69.82,170.7c-10.92,1.05-16.29-11.62-10.14-18.91-6.16,7.29-.78,19.96,10.14,18.91l10.29-.99h0s-10.29.99-10.29.99Z"/>
        <polygon class="cls-4" points="182.88 81.89 182.88 81.89 63.04 149.05 63.04 149.05 63.04 149.05 182.88 81.89"/>
        <polygon class="cls-4" points="215.11 156.73 80.1 169.71 80.1 169.71 215.11 156.73 215.11 156.73"/>
        <polygon class="cls-1" points="80.1 169.71 215.11 156.73 215.11 156.73 80.1 169.71 80.1 169.71"/>
        <g>
          <path class="cls-2" d="m109.48,475.3h0s-2.63-27.35-2.63-27.35h0s-.07-.75-.07-.75l18.09-1.74,6.58-33.92h0s-.05,0-.05,0l-12.31-128.07-4.46-6.71-8.65-3.23-6.07-12.1-4.99-14.27-9.21-12.44-5.09.65-4.12-3.89-8.77-1.29,1.5-23.95,3.09,20.33,14.8,6.1,10.61,12.53,6.72,13.4,13.21,14.48.51.81-4.36-45.38h0s-11.62-32.55-11.62-32.55l76.64-7.37-6.65,34.31.04.37h0s17.56,182.66,17.56,182.66h.05s11.49,32.19,11.49,32.19l47.83-4.6,6.58-33.92h-.05s-14.45-150.29-14.45-150.29l-6.03-7.58,2.3-24.44-2.77-3.21-.98,8.35-8.39,27.92,7.48,13.55-19.04,20.39-.52,11.77-3.9-14.64,9.4-9.2,8.4-8.56-6.7-2.77-2.57-11.52,6.65-10.85,4.42-15.96-3.23-8.66,2.85-6.9-7.38-8.54c.28-1.23.56-2.47.84-3.7-3.33-1.76-6.67-3.51-9.98-5.29.11-1.37.23-2.74.34-4.11l-129.62,12.46-2.7-28.1-10.29.99c-10.92,1.05-16.29-11.62-10.14-18.91.88-1.04,1.99-1.97,3.36-2.74h0s119.84-67.16,119.84-67.16c-8.59-5.63-17.12-11.3-25.53-17.05,2.5-12.7,5.2-25.35,8.07-37.96L0,42.77l42.23,439.37,67.28-6.47-.04-.37Z"/>
          <rect class="cls-6" x="183.1" y="406.24" width="6.68" height="0" transform="translate(-38.01 19.7) rotate(-5.49)"/>
          <polygon class="cls-5" points="131.45 411.53 131.45 411.54 131.45 411.53 131.45 411.53"/>
          <polygon class="cls-5" points="131.45 411.53 183.11 406.56 183.08 406.19 131.41 411.16 131.45 411.53 131.45 411.53 131.45 411.53"/>
          <polygon class="cls-5" points="183.15 406.94 183.11 406.56 131.45 411.53 131.45 411.54 131.48 411.9 183.15 406.94"/>
          <rect class="cls-5" x="157.28" y="383.1" width="0" height="51.9" transform="translate(-273.75 488.25) rotate(-79.38)"/>
          <polygon class="cls-5" points="249.06 433.9 249.14 433.51 201.3 438.11 201.43 438.47 124.8 445.84 124.87 445.46 106.78 447.2 106.85 447.94 106.85 447.94 106.81 447.57 249.06 433.9"/>
          <polygon class="cls-5" points="201.43 438.47 201.3 438.11 124.87 445.46 124.8 445.84 201.43 438.47"/>
          <path class="cls-5" d="m109.51,475.67l255.79-24.59c-.2-.11-.41-.21-.61-.32l-255.21,24.53.04.37Z"/>
          <g>
            <g>
              <polygon class="cls-6" points="183.08 406.19 183.11 406.56 189.76 405.92 172.2 223.26 120.54 228.23 120.5 227.86 113.8 228.5 118.17 273.89 133.25 297.71 148.39 300.94 151.32 328.69 159.87 336.79 146.26 330.14 145.47 317.01 144.5 305.06 138.02 308.31 127.63 302.69 123.79 290.56 119.09 283.47 131.4 411.54 131.45 411.53 131.41 411.16 183.08 406.19"/>
              <polygon class="cls-6" points="171.21 212.95 172.13 222.52 172.13 222.52 172.17 222.89 178.82 188.58 102.18 195.95 113.8 228.5 113.8 228.5 112.85 218.56 171.21 212.95"/>
              <polygon class="cls-6" points="120.46 227.48 172.13 222.52 171.21 212.95 112.85 218.56 113.8 228.5 120.5 227.86 120.46 227.48"/>
              <polygon class="cls-6" points="189.81 405.92 189.76 405.92 189.76 405.93 183.11 406.56 183.15 406.94 131.48 411.9 131.45 411.54 124.87 445.46 201.3 438.11 189.81 405.92"/>
              <path class="cls-6" d="m80.1,169.71l2.7,28.1,129.62-12.46c.79-9.55,1.68-19.09,2.68-28.62l-135,12.98Z"/>
              <path class="cls-6" d="m109.48,475.3l255.21-24.53c-9.91-5.13-19.77-10.39-29.55-15.78,2.16-3.22,4.34-6.42,6.53-9.61l-234.82,22.57,2.63,27.35Z"/>
              <path class="cls-4" d="m109.55,476.04l-.04-.37-67.28,6.47,2.78,28.88,319.52-30.71c4.6-7.54,9.28-15.02,14.07-22.43-4.24-2.13-8.47-4.3-12.69-6.48l-256.36,24.64Z"/>
              <path class="cls-4" d="m69.82,170.7l10.29-.99h0s135-12.98,135-12.98c.31-2.98.63-5.95.97-8.93-7.25-4.16-14.43-8.39-21.57-12.64l-28.9,2.78c-7.78.75-11.04-9.67-4.22-13.49h0s23.51-13.18,23.51-13.18c1.28-8.47,2.64-16.94,4.08-25.38-2.04-1.32-4.06-2.67-6.09-4l-119.84,67.16s0,0,0,0h0c-1.37.77-2.48,1.7-3.36,2.74-6.16,7.29-.78,19.96,10.14,18.91Z"/>
              <path class="cls-6" d="m161.38,124.45c-6.82,3.82-3.56,14.24,4.22,13.49l28.9-2.78c-4.02-2.39-8.04-4.78-12.03-7.2.77-5.57,1.58-11.13,2.42-16.68l-23.51,13.18h0Z"/>
            </g>
            <path class="cls-5" d="m325.7,426.54l-76.64,7.37h0s-142.25,13.67-142.25,13.67l.04.37,234.82-22.57c.09-.14.19-.27.28-.4l-16.25,1.56h0Z"/>
            <path class="cls-5" d="m109.51,475.67l.04.37,256.36-24.64c-.2-.11-.41-.21-.61-.32l-255.79,24.59h0Z"/>
          </g>
        </g>
        <polygon class="cls-7" points="117.66 273.08 104.45 258.6 97.73 245.2 87.12 232.67 72.32 226.57 69.23 206.24 67.74 230.18 76.51 231.47 80.62 235.37 85.71 234.71 94.92 247.15 99.91 261.42 105.98 273.52 114.63 276.76 119.09 283.47 118.17 273.89 117.66 273.08"/>
        <polygon class="cls-7" points="127.63 302.69 138.02 308.31 144.5 305.06 145.47 317.01 146.26 330.14 159.87 336.79 151.32 328.69 148.39 300.94 133.25 297.71 118.17 273.89 119.09 283.47 123.79 290.56 127.63 302.69"/>
      </g>
      <path class="cls-7" d="m310.05,282.68l-3.79-10.14-9.58-7.64c.02,2.02.06,4.05.09,6.07l5.71,4.56-.28,18.26,1.84,5.6c.79.33,1.58.65,2.38.97l-.59-9.46,4.22-8.24Z"/>
      <path class="cls-7" d="m259.27,239.01s.1.05.15.07l-.14-.17s0,.07,0,.1Z"/>
      <path class="cls-7" d="m306.9,308.1l-.48-7.73c-.79-.32-1.59-.65-2.38-.97l2.86,8.7Z"/>
      <path class="cls-7" d="m237.67,174.04l3.95-.38c-.5-3.47-1-6.94-1.51-10.41-.81,3.6-1.63,7.19-2.44,10.79Z"/>
      <g>
        <path class="cls-4" d="m316.4,21.54s.02-.01.03-.02c-.01,0-.02.01-.03.02l-111.47,62.47s0,0,0,0l111.47-62.47Z"/>
        <g>
          <path class="cls-6" d="m266.75,251.69l7.5,9,13.72,1.47,13.95,13.67,2.11,1.68c-.04-2.9-.07-5.8-.08-8.7-12.51-5.59-24.91-11.3-37.18-17.12Z"/>
          <g>
            <path class="cls-7" d="m255.58,210.53l.36.28.63-5.38.31-.74c-1.38-.71-2.77-1.42-4.14-2.14l2.85,7.98Z"/>
            <path class="cls-7" d="m250.33,195.82l-3.34-9.34,1.96-.19s0,0,0,0l-3.95.38c-.8,3.52-1.59,7.04-2.39,10.56,2.86,1.51,5.71,3.03,8.58,4.53-.29-1.98-.57-3.96-.86-5.94Z"/>
            <path class="cls-7" d="m251.48,203.81c-.1-.69-.2-1.37-.3-2.06-2.87-1.5-5.72-3.02-8.58-4.53-.28,1.23-.56,2.47-.84,3.7l7.38,8.54,2.32-5.61.02-.03Z"/>
            <polygon class="cls-7" points="258.61 219.03 255.87 211.35 255.26 216.54 258.04 219.75 255.73 244.19 261.76 251.77 258.61 219.03 258.61 219.03"/>
            <g>
              <path class="cls-6" d="m258.98,190.73l1.23-5.53-11.26,1.08,1.38,9.53,2.2,6.17,6.45-11.26Z"/>
              <path class="cls-6" d="m255.94,210.81l2.04,1.58-.32-3.3,6.54-.63c-2.45-1.25-4.89-2.51-7.32-3.77l-.31.74-.63,5.38Z"/>
              <path class="cls-6" d="m257.98,212.39l5.4,4.18-.15,2.01,4.53-.43c.12-2.56.24-5.11.38-7.67-1.32-.67-2.62-1.35-3.93-2.03l-6.54.63.32,3.3Z"/>
              <path class="cls-7" d="m258.98,190.73l-6.45,11.26.2.56c1.38.72,2.76,1.42,4.14,2.14l5.41-13.11,1.03-6.67-3.12.3-1.23,5.53Z"/>
              <g>
                <path class="cls-6" d="m247.44,175.87c.5,3.47,1,6.94,1.51,10.41l11.26-1.08,2.13-9.58-3.83-3.41.24-5.66-4.77-7.47,2.46-1.88-20.79,2c-1,9.52-1.89,19.06-2.68,28.62l12.03-1.16c.81-3.6,1.63-7.19,2.44-10.79Z"/>
                <g>
                  <path class="cls-6" d="m266.6,251.52l.14.17c12.28,5.82,24.67,11.53,37.18,17.12.02,2.9.05,5.8.08,8.7l9.58,7.64,3.79,10.14-4.22,8.24.59,9.46c4.43,1.82,8.86,3.63,13.32,5.41l-9.58-99.63-49.98,4.8c-.4,9.31-.71,18.63-.9,27.96Z"/>
                  <path class="cls-6" d="m267.75,218.15c-.07,1.55-.15,3.11-.21,4.66l49.88-4.79-.44-4.61h0s-49.22,4.74-49.22,4.74Z"/>
                  <path class="cls-6" d="m263.32,184.9l-1.03,6.67-5.41,13.11c2.44,1.26,4.88,2.52,7.32,3.77l51.82-4.98.95,9.93,5.28-27.23c-.06-.05-.12-.11-.18-.16.09-.08.17-.16.26-.24l1.29-6.67-60.31,5.8Z"/>
                  <path class="cls-6" d="m267.75,218.15l49.22-4.73h0s-.95-9.94-.95-9.94l-51.82,4.98c1.31.67,2.62,1.36,3.93,2.03-.14,2.55-.26,5.11-.38,7.67Z"/>
                  <path class="cls-6" d="m259.72,160.17l5.08,15.18-1.48,9.55,66.87-6.43c9.1-8.4,18.31-16.65,27.61-24.76-2.02-1.88-4.02-3.78-6.03-5.67l-89.02,8.56-3.05,3.58Z"/>
                  <path class="cls-4" d="m236.62,150.27c-.33,2.97-.65,5.95-.97,8.93l20.79-2,16.61-12.68-10.28,12.07,89.01-8.56c-7.44-7.04-14.77-14.18-21.99-21.44l-114.74,11.03c7.14,4.25,14.32,8.48,21.57,12.64Z"/>
                  <path class="cls-4" d="m314.9,21.88l-111.47,62.47c2.03,1.33,4.05,2.68,6.09,4-1.45,8.44-2.8,16.91-4.08,25.38l112.37-62.97-.14-.02c-15.08-4.98,10.14-35.28-1.82-29.36-.29.14-.59.3-.93.49-.01,0-.02.01-.03.02Z"/>
                  <path class="cls-6" d="m318.62,65.06c-2.74,2.84-4.88,6.21-6.28,9.9-2.82,7.44-2.02,15.76,2.16,22.52,2.08,3.36,4.82,6.25,8.05,8.52,3.4,2.4,7.21,4.16,11.25,5.19,1.4.36,2.8.63,4.22.82,8.42-6.93,16.92-13.75,25.48-20.45-10.12-10.66-20-21.54-29.63-32.64,1.98-1.49,3.96-2.97,5.95-4.45h-.01c-3.86.53-7.61,1.66-11.14,3.34-3.76,1.78-7.17,4.24-10.05,7.25Z"/>
                  <path class="cls-6" d="m203.01,130.42c3.99,2.42,8.01,4.81,12.03,7.2l114.74-11.03c-1.41-1.41-2.82-2.82-4.22-4.24,3.87-3.26,7.75-6.48,11.65-9.69-1.21-.19-2.42-.44-3.61-.75-4.12-1.06-8.02-2.86-11.49-5.31-3.32-2.32-6.12-5.3-8.26-8.74-4.3-6.96-5.12-15.52-2.23-23.18,1.44-3.79,3.63-7.24,6.44-10.15,2.94-3.07,6.42-5.58,10.27-7.4,2.96-1.4,6.07-2.41,9.24-3.04l-19.78-3.34-112.37,62.97c-.84,5.56-1.65,11.12-2.42,16.68Z"/>
                </g>
                <path class="cls-7" d="m283.96,267.49l20.14,16.09c-.03-2.02-.07-4.05-.09-6.07l-2.11-1.68-13.95-13.67-13.72-1.47-7.5-9s-.1-.05-.15-.07c0-.03,0-.07,0-.1l-4.23-5.08-.7-6.98,1.56-20.88-4.61.44,3.15,32.74,9.97,12.53,12.23,3.19Z"/>
                <path class="cls-7" d="m246.99,186.47l3.34,9.34-1.38-9.53-1.96.19Z"/>
              </g>
            </g>
            <polygon class="cls-7" points="255.94 210.81 255.87 211.35 258.61 219.03 258.61 219.03 257.98 212.39 255.94 210.81"/>
            <polygon class="cls-7" points="257.98 212.39 258.61 219.03 263.23 218.58 263.38 216.57 257.98 212.39"/>
            <path class="cls-7" d="m255.58,210.53l-3.52-2.73-.58-3.99-.02.03-2.32,5.61,6.12,7.08.61-5.19-.29-.82Z"/>
          </g>
        </g>
      </g>
      <polygon class="cls-7" points="248.25 197.92 248.54 198.74 248.61 198.19 248.25 197.92"/>
      <path class="cls-3" d="m378.07,37.63s0,0,0,0c0,0-.01,0-.02,0h.01Z"/>
      <path class="cls-3" d="m378.08,37.62c.42-.26.85-.52,1.27-.77-.84,0-1.69.05-2.53.12l.16.37,1.08.29s.01,0,.02,0Z"/>
      <path class="cls-3" d="m467.33,122.69c-7.39-1.82-15.14-2.16-22.81-.96,9.71-1.2-5.89,9.38-9.93,18.92l45.62-13.1c-4.1-2.13-8.42-3.77-12.87-4.86Z"/>
      <g>
        <polygon class="cls-3" points="579.75 167.13 543.43 219.56 581.01 218.64 579.75 167.13"/>
        <path class="cls-3" d="m467.84,316.16l157.14-3.85c17.78-.44,31.89-14.93,31.47-32.31l-2.78-113.37c-.25-8.73-4.13-16.96-10.71-22.71l-110.46-96.71c-6.16-5.38-14.12-8.25-22.3-8.02-8.18.18-15.99,3.43-21.88,9.1l-105.59,102c-6.29,6.06-9.77,14.47-9.58,23.2l2.08,84.8c.8.26,1.6.53,2.39.84-.49.08-.98.16-1.47.24,0,0,0,0,0,0h-.01s-.89-.68-.89-.68l.69,28.17c.43,17.38,15.24,31.16,33.01,30.73l11.46-.28c8.53-.14,17.11-.32,25.75-.54,7.27-.18,14.5-.39,21.69-.62Zm-34.11-40.42c-2.73-1.44-5.18-3.38-7.2-5.71l.25,10.06-5.99.15-1.11-45.36,9.41-.23c.07,3.38,1.12,6.66,3.01,9.45,1.91,2.86,4.37,5.31,7.24,7.21,2.94,1.95,6.15,3.45,9.52,4.48,3.19,1.02,6.53,1.52,9.88,1.47,3.15-.12,6.27-.66,9.27-1.62,3.27-.98,6.4-2.39,9.31-4.19,2.81-1.72,5.23-4,7.11-6.7,1.86-2.68,2.8-5.9,2.66-9.16-.13-5.42-2.02-9.55-5.65-12.38-4.14-3.1-8.75-5.52-13.66-7.16-5.47-1.93-11.36-3.79-17.68-5.56-6.19-1.72-12.15-4.19-17.73-7.38-5.52-3.16-10.24-7.55-13.8-12.83-3.7-5.4-5.66-12.67-5.88-21.8-.2-6.26,1.35-12.45,4.48-17.88,3.13-5.49,7.26-10.34,12.16-14.32,5-4.06,10.63-7.28,16.67-9.51,5.82-2.23,11.97-3.46,18.2-3.66,2.9-.05,5.8.1,8.68.43,3.23.35,6.43.95,9.56,1.8,3.07.82,6.04,1.96,8.86,3.42,2.58,1.3,4.88,3.1,6.76,5.29l-.21-8.56,5.13-.13,1.01,41.08-8.98.22c-.05-2.93-1.06-5.76-2.87-8.07-1.89-2.42-4.19-4.5-6.78-6.15-2.67-1.71-5.59-3.01-8.65-3.86-2.75-.81-5.61-1.21-8.48-1.18-2.92.12-5.82.59-8.63,1.39-3.11.83-6.07,2.13-8.79,3.85-2.59,1.63-4.85,3.72-6.7,6.16-1.79,2.39-2.7,5.32-2.58,8.3.13,5.42,2.05,9.55,5.76,12.38,4.13,3.05,8.75,5.4,13.65,6.95,5.39,1.79,11.28,3.5,17.67,5.13,6.19,1.55,12.15,3.92,17.72,7.06,5.48,3.13,10.19,7.44,13.79,12.61,2.82,4,4.65,9.06,5.48,15.18l-.15-6.19,58.16-84.99,29.91-.73,2.39,97.64,20.91-.51.16,6.56-20.91.51.81,33.01,16.22-.4.12,4.77-58.25,1.43-.12-4.77,16.23-.4-.81-33.01-64.31,1.58-.06-2.34c-.51,4.85-1.89,9.58-4.12,13.95-3.03,5.89-7.19,11.12-12.25,15.39-5.18,4.38-11.06,7.85-17.4,10.27-6.25,2.46-12.87,3.82-19.59,4.01-3.15.05-6.3-.12-9.43-.52-3.42-.41-6.81-1.12-10.11-2.11-3.22-.95-6.34-2.24-9.3-3.84Z"/>
        <path class="cls-7" d="m515.92,238.58l.06,2.34,64.31-1.58.81,33.01-16.23.4.12,4.77,58.25-1.43-.12-4.77-16.22.4-.81-33.01,20.91-.51-.16-6.56-20.91.51-2.39-97.64-29.91.73-58.16,84.99.15,6.19c.28,2.05.45,4.22.5,6.51.07,1.89,0,3.77-.2,5.64Zm63.83-71.44l1.26,51.5-37.58.92,36.32-52.43Z"/>
        <path class="cls-7" d="m462.56,282.21c6.71-.19,13.34-1.55,19.59-4.01,6.34-2.42,12.22-5.89,17.4-10.27,5.05-4.28,9.22-9.51,12.25-15.39,2.23-4.37,3.61-9.1,4.12-13.95l-.3-12.14c-.83-6.13-2.66-11.19-5.48-15.18-3.6-5.18-8.31-9.49-13.79-12.61-5.56-3.13-11.52-5.51-17.72-7.06-6.39-1.63-12.28-3.34-17.67-5.13-4.9-1.54-9.51-3.89-13.65-6.95-3.71-2.83-5.63-6.96-5.76-12.38-.13-2.98.79-5.92,2.58-8.3,1.84-2.44,4.11-4.53,6.7-6.16,2.72-1.72,5.68-3.02,8.79-3.85,2.81-.8,5.71-1.27,8.63-1.39,2.87-.02,5.73.38,8.48,1.18,3.06.84,5.98,2.14,8.65,3.86,2.6,1.65,4.89,3.72,6.78,6.15,1.81,2.3,2.82,5.14,2.87,8.07l8.98-.22-1.01-41.08-5.13.13.21,8.56c-1.89-2.19-4.18-3.99-6.76-5.29-2.82-1.46-5.79-2.61-8.86-3.42-3.14-.85-6.33-1.45-9.56-1.8-2.88-.33-5.78-.48-8.68-.43-6.23.19-12.38,1.43-18.2,3.66-6.04,2.23-11.68,5.44-16.67,9.51-4.91,3.98-9.03,8.83-12.16,14.32-3.13,5.43-4.68,11.62-4.48,17.88.22,9.13,2.18,16.4,5.88,21.8,3.56,5.28,8.28,9.66,13.8,12.83,5.58,3.19,11.53,5.66,17.73,7.38,6.32,1.77,12.21,3.63,17.68,5.56,4.91,1.64,9.52,4.06,13.66,7.16,3.63,2.84,5.52,6.97,5.65,12.38.13,3.26-.8,6.48-2.66,9.16-1.88,2.71-4.3,4.99-7.11,6.7-2.91,1.8-6.04,3.2-9.31,4.19-3,.95-6.12,1.5-9.27,1.62-3.35.05-6.69-.45-9.88-1.47-3.37-1.02-6.58-2.53-9.52-4.48-2.87-1.89-5.33-4.35-7.24-7.21-1.9-2.79-2.95-6.08-3.01-9.45l-9.41.23,1.11,45.36,5.99-.15-.25-10.06c2.03,2.33,4.47,4.27,7.2,5.71,2.96,1.6,6.07,2.89,9.3,3.84,3.3.99,6.69,1.69,10.11,2.11,3.13.4,6.28.57,9.43.52Z"/>
      </g>
      <path class="cls-6" d="m359.63,411.89c.15,1.31.3,2.61.45,3.92l3.66-3.79-4.11-.13Z"/>
      <path class="cls-6" d="m396.92,362.38c.15,1.31.3,2.61.45,3.92l3.66-3.79-4.11-.13Z"/>
      <path class="cls-6" d="m422.42,354.49c-2.67-.58-5.34-1.15-8.01-1.72l8.14,9.4-.13-7.68Z"/>
    </g>
  </g>
</svg>