<?xml version="1.0" encoding="UTF-8"?>
<svg id="Layer_2" data-name="Layer 2" xmlns="http://www.w3.org/2000/svg" viewBox="0 0 875.92 623.97">
  <defs>
    <style>
      .cls-1 {
        fill: none;
      }

      .cls-1, .cls-2, .cls-3, .cls-4, .cls-5, .cls-6, .cls-7 {
        stroke-width: 0px;
      }

      .cls-3 {
        fill: #756746;
      }

      .cls-4 {
        fill: #5c5c5c;
      }

      .cls-5 {
        fill: #2c2c7c;
      }

      .cls-6 {
        fill: #d0d8d7;
      }

      .cls-7 {
        fill: #fff;
      }
    </style>
  </defs>
  <g id="Layer_2-2" data-name="Layer 2">
    <g id="Layer_2-2" data-name="Layer 2-2">
      <g id="Layer_2-2-2" data-name="Layer 2-2">
        <polygon class="cls-1" points="635.2 532.15 635.2 532.16 635.2 532.15 588.8 524.43 635.2 532.15"/>
        <path class="cls-5" d="m492.99,107.17l1.1.29-.16-.37c-.31.02-.62.04-.94.07h0Z"/>
        <path class="cls-1" d="m305.68,254.36l56.07-22.95.69,6.76c1.79-3.09,3.6-6.18,5.42-9.27l-62.17,25.45h0Z"/>
        <path class="cls-1" d="m301.73,272.43c.2.67.4,1.33.61,1.99l.6-1.58c-.41-.14-.81-.27-1.22-.41h.01Z"/>
        <path class="cls-1" d="m281.59,261.42c.1,1.37.19,2.74.29,4.11,3.55,1.26,7.11,2.48,10.67,3.71.25-3.6.5-7.2.75-10.8l-11.72,2.98h0Z"/>
        <polygon class="cls-1" points="302.79 255.53 292.33 259.81 292.33 259.82 302.79 255.54 302.79 255.53"/>
        <path class="cls-1" d="m300.28,273.82l-3.89-5.28c.85,1.82,1.68,3.63,2.54,5.44.43.09.84.15,1.26.24l.09-.4h0Z"/>
        <path class="cls-6" d="m328.24,317.32l9.78,6.45,13.56-2.55,17.3,9.07,2.5,1c-.87-2.76-1.74-5.53-2.58-8.31-13.59-1.74-27.11-3.63-40.54-5.67h-.02s0,.01,0,.01Z"/>
        <path class="cls-6" d="m319.28,290.81l-.29-.7,1.67-.68c-.38-1.5-.76-3.02-1.14-4.52l-4.21,1.72,4.53,20.45,2.69,6.48,5.52,3.64c-2.51-8.99-4.9-18-7.21-27.03l-1.56.64h0Z"/>
        <path class="cls-6" d="m380.04,366.77l-6.34-3.64c1.45,8.45,2.98,16.9,4.61,25.32,2.29.57,4.6,1.1,6.91,1.66l-2.68-5.25-2.5-18.09h0Z"/>
        <path class="cls-6" d="m303.21,261.18l-.42-5.65-10.47,4.28,4.07,8.73,3.89,5.28,2.93-12.64h0Z"/>
        <path class="cls-6" d="m306.09,281.28l2.41.93-1.26-3.07,6.08-2.49c-2.7-.49-5.41-.99-8.1-1.5l-.08.79.95,5.33h0v.02Z"/>
        <path class="cls-6" d="m432.04,243.69l.08-.4c-.09.08-.17.16-.26.24.06.05.12.11.18.16h0Z"/>
        <path class="cls-6" d="m308.5,282.21l6.37,2.45.44,1.97,4.21-1.72c-.62-2.49-1.24-4.96-1.85-7.45-1.45-.26-2.9-.54-4.35-.81l-6.08,2.49,1.26,3.07h0s0,0,0,0Z"/>
        <path class="cls-5" d="m319.28,290.81l1.56-.64c-.06-.24-.13-.48-.19-.74l-1.67.68.29.7h0Z"/>
        <path class="cls-5" d="m320.85,290.17l46.47-19.02-.29-.7-46.38,18.98c.06.24.13.48.19.74h0Z"/>
        <path class="cls-6" d="m287.87,250.29c1.48,3.18,2.96,6.35,4.45,9.53l10.47-4.28-.72-9.78-4.65-2.16-1.4-5.49-6.72-5.78,1.81-2.51-19.33,7.91c1.79,9.4,3.69,18.79,5.7,28.18l11.19-4.58c-.27-3.68-.51-7.36-.78-11.04h0Z"/>
        <path class="cls-4" d="m308.05,83.39s.02,0,.03-.03c0,0-.02,0-.03.03l-88.71,91.97h0s88.71-91.97,88.71-91.97Z"/>
        <polygon class="cls-4" points="279.87 232.74 279.87 232.74 300.12 227.59 300.12 227.59 279.87 232.74"/>
        <polygon class="cls-4" points="296.99 227.4 379.75 193.53 379.75 193.53 296.99 227.4 296.99 227.4"/>
        <path class="cls-2" d="m115.75,257.65h0c-1.1,1.11-1.92,2.31-2.48,3.56.55-1.24,1.38-2.44,2.48-3.56Z"/>
        <polygon class="cls-2" points="300.12 227.59 300.12 227.59 279.87 232.74 279.87 232.74 300.12 227.59"/>
        <polygon class="cls-2" points="296.99 227.4 379.75 193.53 379.75 193.52 296.99 227.4 296.99 227.4"/>
        <g>
          <path class="cls-6" d="m328.04,317.19l.18.13c13.43,2.03,26.95,3.92,40.54,5.67.86,2.77,1.72,5.54,2.58,8.31l11.38,4.55,6.56,8.62-1.66,9.11,3.3,8.89c4.77.46,9.53.92,14.31,1.34l-37.91-92.63-46.47,19.02c2.3,9.03,4.7,18.04,7.21,27.03h0v-.04Z"/>
          <path class="cls-6" d="m319.52,284.91c.38,1.5.75,3.02,1.14,4.52l46.38-18.98-1.75-4.29h0l-45.76,18.74h-.02Z"/>
          <path class="cls-6" d="m305.68,254.36l.93,6.69-1.4,14.11c2.7.51,5.4,1,8.1,1.5l48.18-19.71,3.77,9.23-2.8-27.59c-.07-.03-.15-.07-.21-.1.06-.1.11-.2.18-.3l-.69-6.76-56.07,22.95h0Z"/>
          <path class="cls-6" d="m319.52,284.91l45.76-18.73h0l-3.78-9.24-48.18,19.71c1.44.27,2.9.55,4.35.81.6,2.48,1.22,4.97,1.85,7.45h0Z"/>
          <path class="cls-6" d="m295.1,231.71l9.25,13.07,1.34,9.57,62.17-25.45c6.29-10.66,12.73-21.22,19.29-31.67-2.48-1.22-4.94-2.46-7.41-3.68l-82.77,33.87-1.89,4.31h.02s0-.01,0-.01h0Z"/>
          <path class="cls-4" d="m270.13,228.89c.54,2.94,1.1,5.88,1.65,8.83l19.33-7.91,12.24-16.93-6.36,14.53,82.76-33.87c-9.15-4.59-18.24-9.31-27.24-14.18l-106.68,43.66c8.06,2.01,16.15,3.99,24.3,5.88h-.01Z"/>
          <path class="cls-4" d="m308.05,83.39l-88.71,91.97c2.33.69,4.65,1.39,6.99,2.08,1.05,8.5,2.19,17,3.41,25.47l89.43-92.7-.14.03c-15.88-.42-.47-36.72-10.21-27.59-.24.22-.48.46-.75.74,0,0-.02,0-.03.03h0s0,0,0,0Z"/>
          <path class="cls-6" d="m324.06,123.65c-1.8,3.5-2.88,7.35-3.15,11.29-.56,7.93,2.62,15.67,8.57,20.93,2.96,2.62,6.42,4.59,10.16,5.84,3.94,1.31,8.11,1.9,12.27,1.73,1.45-.06,2.87-.2,4.28-.43,6.06-9.06,12.23-18.05,18.5-26.93-12.77-7.29-25.37-14.85-37.79-22.7,1.47-2,2.94-3.98,4.42-5.98h0c-3.55,1.63-6.81,3.79-9.7,6.41-3.08,2.79-5.64,6.13-7.54,9.84h-.02Z"/>
          <path class="cls-6" d="m232.23,219.58c4.52,1.17,9.06,2.3,13.6,3.42l106.68-43.66c-1.76-.95-3.51-1.88-5.26-2.84,2.77-4.23,5.56-8.44,8.36-12.64-1.21.17-2.44.28-3.67.32-4.25.17-8.5-.43-12.53-1.77-3.85-1.26-7.39-3.31-10.43-5.98-6.13-5.42-9.38-13.39-8.83-21.56.28-4.04,1.38-7.98,3.24-11.58,1.93-3.79,4.54-7.19,7.7-10.04,2.43-2.19,5.12-4.06,7.97-5.58l-19.9,2.5-89.43,92.7c.8,5.56,1.63,11.12,2.49,16.67v.02s.01,0,.01,0h0Z"/>
        </g>
        <path class="cls-5" d="m322.91,124.75c-1.58,3.72-2.39,7.74-2.39,11.78.03,8.18,3.86,15.89,10.36,20.85,3.22,2.45,6.9,4.23,10.84,5.22,4.12,1.04,8.4,1.34,12.63.86,1.22-.14,2.44-.34,3.64-.58.17-.3.34-.6.51-.89-1.38.32-2.8.58-4.24.74-4.13.48-8.33.2-12.36-.83-3.82-.97-7.42-2.69-10.56-5.09-6.32-4.82-10.03-12.31-10.06-20.26-.01-3.95.79-7.86,2.34-11.49,1.61-3.84,3.92-7.35,6.8-10.36,2.69-2.83,5.8-5.22,9.21-7.1l-2.2.45c-2.74,1.72-5.28,3.77-7.55,6.13-2.94,3.07-5.3,6.66-6.95,10.58h0Z"/>
        <g>
          <path class="cls-1" d="m385.73,301.06h0l.05.75h0l7.77,99.79c5.54,2.35,11.11,4.67,16.69,6.96.62,13.27,1.45,26.55,2.51,39.82-1.06-13.27-1.89-26.55-2.51-39.82-5.59-2.29-11.13-4.63-16.69-6.96l6.09,78.17h.05s10.91,32.38,10.91,32.38l16.69-1.3c6.34-8.85,12.79-17.61,19.37-26.25-13.82-8.25-27.49-16.77-41-25.58,9.5-12.05,19.25-23.9,29.2-35.53-13.12-8.85-26.07-17.97-38.85-27.36,10.35-11.68,20.91-23.14,31.67-34.38-12.38-9.42-24.58-19.08-36.57-29.02,11.15-11.26,22.5-22.29,34.05-33.08-11.54-9.88-22.88-20.02-34-30.37l-5.78,27.13.36,4.62h0v.03Z"/>
          <rect class="cls-5" x="341.54" y="486.9" width="51.9" height=".75" transform="translate(-36.69 29.97) rotate(-4.45)"/>
          <g>
            <path class="cls-6" d="m393.56,401.6c-4.43-1.87-8.81-3.76-13.21-5.65l.35,7.73-2.7-8.75c-2.17-.94-4.36-1.86-6.51-2.81-.17-8.59-.24-17.17-.24-25.75l-19.85-16.45-12.17-3.41-9.74-12.71,11.72,150.53h.05s58.4-4.56,58.4-4.56l-6.09-78.17h0Z"/>
            <path class="cls-6" d="m399.69,479.77h-.05s-58.4,4.56-58.4,4.56l-7.19,33.8,76.56-5.96-10.91-32.39h-.01Zm-58.04,9.9l-.05-.75,51.74-4.02.05.75-51.74,4.02h0Z"/>
            <path class="cls-5" d="m410.72,512.53l16.27-1.27c.09-.14.19-.26.29-.4l-16.69,1.3.12.36h0Z"/>
          </g>
          <polygon class="cls-5" points="410.72 512.53 410.6 512.16 334.04 518.13 333.97 518.5 410.72 512.53"/>
        </g>
        <path class="cls-6" d="m559.09,368.31c4.63-3.45,9.28-6.88,13.95-10.27-9.6-3.14-20.08-2.11-28.89,2.82l-8.27,4.63,19.78,3.34c1.14-.22,2.28-.4,3.43-.52h0Z"/>
        <path class="cls-6" d="m508.26,370.02l-3.04,4.13,8.1,4.46c.44-.16.89-.26,1.34-.32,1.65-3.17,3.31-6.31,4.99-9.41-4.02-3.67-8.15-3.26-11.39,1.14h0Z"/>
        <path class="cls-6" d="m488.93,364.93c2.5-5.3,5.01-10.55,7.53-15.74-6.23-6.22-12.57-5.59-17.49,1.76l-4.61,6.9,12.51,7.6c.68-.26,1.36-.43,2.06-.52h0Z"/>
        <path class="cls-6" d="m538.07,407.11c-6.61-1.95-13.71-1.12-19.71,2.35l-5.93,3.42,14.21,2.53c.07-.01.15-.03.22-.04-.11-.14-.23-.28-.35-.41,3.84-2.64,7.69-5.25,11.55-7.85h.01Z"/>
        <path class="cls-6" d="m528.97,320.05l-3.04,4.13,8.1,4.46c.44-.16.89-.26,1.34-.32,1.65-3.17,3.31-6.31,4.99-9.41-4.02-3.67-8.15-3.26-11.39,1.14h0Z"/>
        <path class="cls-6" d="m467.26,429.97l-3.04,4.13,8.1,4.46c.44-.16.89-.26,1.34-.32,1.65-3.17,3.31-6.31,4.99-9.41-4.02-3.67-8.15-3.26-11.39,1.14h0Z"/>
        <path class="cls-6" d="m508.26,465.07l-3.04,4.13,8.1,4.46c.44-.16.89-.26,1.34-.32,1.65-3.17,3.31-6.31,4.99-9.41-4.02-3.67-8.15-3.26-11.39,1.14h0Z"/>
        <path class="cls-4" d="m613.72,131.73l-2.89-1.67c-2.99-1.73-6.11-3.15-9.31-4.31l-43.5,18.97c-1,3.63-.51,6.93,3.16,9.05l.13.05,9.04-2.85c9.64-3.04,20.1-1.9,28.86,3.12,7.08-3.19,14.18-6.32,21.3-9.38-2.3-4.31-4.55-8.64-6.79-12.98h0Z"/>
        <path class="cls-4" d="m833.29,284.36l-19.96-2.19h0l19.96,2.19c7.4.81,12.33-4.73,12.85-10.67-.51,5.95-5.44,11.49-12.85,10.67Z"/>
        <polygon class="cls-4" points="842.73 296.33 605.3 261.25 605.3 261.25 842.73 296.33 842.73 296.33"/>
        <path class="cls-2" d="m846.14,273.69c.35-4.07-1.37-8.33-5.78-10.88h0c4.41,2.55,6.13,6.81,5.78,10.88Z"/>
        <polygon class="cls-2" points="842.73 296.33 605.3 261.25 605.3 261.25 842.73 296.33 842.73 296.33"/>
        <path class="cls-6" d="m596.57,165.79c-4.01-1.98-8.34-3.24-12.78-3.71-.56-.06-1.12-.11-1.68-.15h0l21.36,8.34c-2.1-1.76-4.41-3.27-6.89-4.48h-.01,0Z"/>
        <path class="cls-6" d="m622.63,225c4.08-.83,7.97-2.39,11.5-4.61,3.34-2.1,6.23-4.85,8.48-8.1,4.52-6.55,5.74-14.82,3.31-22.38-1.21-3.76-3.17-7.23-5.77-10.2-.92-1.07-1.91-2.06-2.96-3.01l-21.03-9.13c-2.28.97-4.56,1.92-6.84,2.9,6.69,13.09,13.66,26.03,20.93,38.8-9.92,4.44-19.81,9.03-29.64,13.73,6.97,2.79,14.63,3.52,22.04,2.02h0l-.02-.02h0Z"/>
        <path class="cls-4" d="m842.73,296.33l19.86,2.93c7.36,1.09,12.5-4.27,13.24-10.18.5-4.05-1.06-8.38-5.37-11.09h0l-161.24-70.02,64.29,40.45c6.61,4.16,2.82,14.41-4.9,13.26l-179.51-26.52c5.28,8.77,10.68,17.47,16.2,26.09l237.44,35.08h-.01,0Z"/>
        <polygon class="cls-6" points="652.53 316.59 651.44 326.52 664.95 294.28 588.42 285.88 593.16 320.12 594.25 310.19 652.53 316.59"/>
        <rect class="cls-6" x="617.88" y="289.06" width="9.99" height="58.63" transform="translate(238.37 902.75) rotate(-83.73)"/>
        <path class="cls-6" d="m632.37,497.71h-.05l-57.78-9.63-15.1,31.08,75.75,12.61-2.8-34.06h-.02Zm-7.51,4.19l-51.2-8.53.12-.74,51.2,8.53-.12.74Z"/>
        <path class="cls-6" d="m682.58,539.67l75.75,12.61-2.8-34.06h-.05l-57.78-9.63-15.1,31.08h-.02Zm65.42-17.26l-51.2-8.53.12-.74,51.2,8.53-.12.74Z"/>
        <path class="cls-6" d="m598.59,288.79l169.01,24.97,1.54-6.02c7.93-3.23,15.86-6.45,23.79-9.68-5.97,5.6-11.95,11.19-17.93,16.79l63.6,9.4,4.12-27.93-237.44-35.08c1.49,2.32,2.98,4.64,4.48,6.95-7.46,3.82-14.88,7.73-22.27,11.71.03.21.06.43.11.64l10.97,8.23h.02v.02h0Z"/>
        <path class="cls-6" d="m554.75,342.5c-2.35,1.39-4.7,2.78-7.04,4.19l12.36,1.36-5.32-5.54h0Z"/>
        <path class="cls-6" d="m776.13,584.24h0l4.63-27.85h0l-.06.37-252.92-42.1c-2.94,2.52-5.87,5.05-8.79,7.6,8.06,7.74,16.23,15.36,24.49,22.87l232.72,38.74-.06.37h-.01Z"/>
        <path class="cls-4" d="m776.13,584.24l-.06.37-231.58-38.55c3.52,3.19,7.05,6.37,10.59,9.53-6.53,5.93-12.98,11.95-19.37,18.04l302.33,50.33,4.77-28.62-66.67-11.1h-.01Z"/>
        <path class="cls-4" d="m709.22,207.97l161.24,70.01-221.58-139.44c2.07,4.42,4.16,8.83,6.3,13.22-7.23,2.79-14.44,5.66-21.64,8.58.04.02.07.04.11.06l75.57,47.55h0v.02h0Z"/>
        <path class="cls-6" d="m639.15,177.54l70.06,30.42-75.57-47.55s-.07-.04-.11-.06c-5.34,2.17-10.68,4.38-16.01,6.62,4.62.63,9.13,2.08,13.3,4.32,3.08,1.66,5.88,3.77,8.32,6.25h.01Z"/>
        <path class="cls-6" d="m773.5,248.41l-64.29-40.45-70.06-30.42c.53.54,1.05,1.09,1.55,1.67,2.66,3.05,4.68,6.62,5.91,10.47,2.5,7.79,1.24,16.3-3.4,23.03-2.31,3.33-5.26,6.16-8.69,8.31-3.6,2.28-7.58,3.87-11.74,4.72-4.47.91-9.06,1.04-13.56.35-3.29-.47-6.5-1.38-9.56-2.68-4.55,2.18-9.1,4.37-13.64,6.61,1.02,1.71,2.05,3.42,3.08,5.13l179.51,26.52c7.72,1.14,11.52-9.1,4.9-13.26h-.01Z"/>
        <path class="cls-5" d="m596.57,165.79c2.47,1.21,4.78,2.72,6.89,4.48l2,.78c-2.54-2.39-5.42-4.4-8.55-5.94-4.25-2.08-8.81-3.36-13.45-3.82-.45.21-.9.42-1.35.63.56.04,1.12.09,1.68.15,4.45.47,8.77,1.73,12.78,3.71h0Z"/>
        <path class="cls-5" d="m622.78,225.74c4.17-.84,8.15-2.45,11.74-4.72,3.43-2.15,6.39-4.98,8.69-8.31,4.65-6.73,5.9-15.24,3.4-23.03-1.25-3.85-3.26-7.42-5.91-10.47-.5-.58-1.02-1.13-1.55-1.67l-1.97-.85c1.05.94,2.04,1.94,2.96,3.01,2.59,2.98,4.55,6.44,5.77,10.2,2.43,7.57,1.21,15.84-3.31,22.38-2.25,3.25-5.13,6-8.48,8.1-3.52,2.23-7.42,3.79-11.5,4.61-7.42,1.5-15.08.78-22.04-2.02-.31.15-.62.3-.93.45,3.05,1.29,6.26,2.2,9.56,2.68,4.51.68,9.11.56,13.56-.35h0Z"/>
        <polygon class="cls-5" points="635.17 531.77 635.2 532.15 682.41 540.02 682.58 539.67 635.17 531.77"/>
        <polygon class="cls-5" points="780.77 556.38 780.83 556.02 758.32 552.27 758.35 552.65 780.77 556.38"/>
        <polygon class="cls-5" points="635.2 532.15 635.17 531.77 559.42 519.17 559.25 519.52 588.8 524.43 635.2 532.15"/>
        <polygon class="cls-5" points="682.41 540.02 758.35 552.65 758.32 552.27 682.58 539.67 682.41 540.02"/>
        <path class="cls-5" d="m780.77,556.38l-22.42-3.73h0l-75.96-12.64h0l-47.2-7.86h0l-106.74-17.77h0l18.79,3.12-19.1-3.18c-.13.1-.25.22-.38.32l252.92,42.1.06-.37h.03Z"/>
        <polygon class="cls-5" points="588.8 524.43 559.25 519.52 559.25 519.52 635.2 532.16 635.2 532.15 588.8 524.43"/>
        <polygon class="cls-5" points="588.8 524.43 559.25 519.52 559.25 519.52 588.8 524.43"/>
        <polygon class="cls-5" points="528.47 514.4 635.2 532.16 559.25 519.52 559.25 519.52 547.26 517.52 528.47 514.39 528.47 514.4"/>
        <path class="cls-5" d="m776.2,583.86l-232.72-38.74c.17.15.34.31.5.47l232.14,38.64.06-.37h.02Z"/>
        <path class="cls-5" d="m776.13,584.24l-232.14-38.64c.17.15.33.31.5.47l231.58,38.55.06-.37h0Z"/>
        <polygon class="cls-7" points="298.46 289.38 304.06 296.74 304.42 313.29 301.19 325.62 306.96 335.91 314.18 336.63 308.61 347.25 302.26 358.77 310.21 371.65 307.32 360.24 319.67 335.23 308.58 324.4 308.58 295.24 307.1 286.97 299.2 281.95 298.46 289.38"/>
        <path class="cls-7" d="m300.63,274.3l-.35-.48-.09.4c.15.03.3.06.45.08h0Z"/>
        <path class="cls-7" d="m300.2,274.22l-.38,1.65,1.71,3.65,4.16,1.6-5.03-6.82c-.15-.03-.3-.06-.45-.08h0Z"/>
        <polygon class="cls-7" points="302.79 255.54 305.68 254.36 305.68 254.35 302.79 255.53 302.79 255.54"/>
        <path class="cls-7" d="m303.21,261.18l-2.93,12.64.35.48c1.53.29,3.06.57,4.59.86l1.4-14.11-.93-6.69-2.9,1.19.42,5.65h.02s0-.01,0-.01h0Z"/>
        <path class="cls-7" d="m305.67,281.12l.42.17-.95-5.33.08-.79c-1.53-.28-3.07-.56-4.59-.86l5.03,6.82h0Z"/>
        <polygon class="cls-7" points="289.3 232.32 296.01 238.1 297.42 243.59 302.07 245.75 302.79 255.53 305.68 254.35 304.35 244.78 295.1 231.71 296.99 227.4 291.11 229.81 289.3 232.32"/>
        <polygon class="cls-7" points="291.12 229.8 297 227.4 297 227.4 291.12 229.8"/>
        <polygon class="cls-7" points="303.35 212.88 291.11 229.81 296.99 227.4 303.35 212.88"/>
        <path class="cls-7" d="m551.5,244.27c-1.45,8.44-2.89,16.88-4.34,25.31l7.29,7.59c1.07-.63,2.15-1.26,3.22-1.89-2.06-10.34-4.12-20.67-6.17-31.01h0Z"/>
        <path class="cls-7" d="m569.08,283.74l-11.27-7.82c-.04-.21-.08-.43-.13-.64-1.07.63-2.15,1.26-3.22,1.89l5.32,5.54,9.3,1.02h0Z"/>
        <polygon class="cls-7" points="738.9 302.4 746.33 303.21 746.33 303.21 738.9 302.39 738.9 302.4"/>
        <path class="cls-7" d="m734.97,320.65l-6.88,4.24,8.28.91,4.35-2.8.18-14.31c1.81-1.82,3.62-3.65,5.42-5.47l-7.43-.82-3.93,18.25h.01Z"/>
        <path class="cls-7" d="m740.21,296.32l-1.31,6.07,7.43.82c5.76-5.82,11.52-11.63,17.29-17.45-7.8,3.52-15.61,7.04-23.41,10.56Z"/>
        <rect class="cls-5" x="175.18" y="335.47" width="51.9" height=".37" transform="translate(-129.31 126.07) rotate(-26.68)"/>
        <rect class="cls-5" x="175.02" y="335.15" width="51.9" height=".38" transform="translate(-129.18 125.96) rotate(-26.68)"/>
        <path class="cls-4" d="m118.27,290.01c-10.22,4-18.85-6.72-14.93-15.41-3.93,8.7,4.71,19.41,14.93,15.41l9.63-3.77h0l-9.63,3.77Z"/>
        <polygon class="cls-4" points="183.25 188.48 183.25 188.48 95.81 294.43 95.81 294.43 95.81 294.43 183.25 188.48"/>
        <polygon class="cls-4" points="240.37 246.6 119.19 307.52 119.19 307.52 240.37 246.6 240.37 246.6"/>
        <polygon class="cls-2" points="119.19 307.52 240.37 246.6 240.37 246.6 119.19 307.52 119.19 307.52"/>
        <polygon class="cls-7" points="191.58 390.31 174.04 381.6 162.93 371.54 148.51 363.69 132.49 363.35 122.26 345.5 129.53 368.37 138.17 366.41 143.42 368.55 147.92 366.11 161.01 374.36 170.82 385.86 180.86 394.96 190.08 394.84 196.67 399.48 192.36 390.88 191.58 390.31"/>
        <path class="cls-7" d="m299.97,266.69l-4.73-8.72,1.9-.49h0l-3.85.97c-.25,3.6-.5,7.2-.75,10.8,3.05,1.06,6.11,2.12,9.17,3.17-.59-1.92-1.16-3.82-1.75-5.74h.01Z"/>
        <path class="cls-7" d="m302.32,274.42c-.2-.67-.4-1.33-.61-1.99-3.06-1.05-6.11-2.11-9.17-3.17-.09,1.26-.18,2.53-.26,3.78l8.6,7.31,1.44-5.9.02-.03h-.02Z"/>
        <polygon class="cls-7" points="311.02 288.39 306.18 281.82 307.1 286.97 310.68 289.24 315.52 313.3 323.47 318.82 311.03 288.39 311.02 288.39"/>
        <path class="cls-7" d="m381.4,354.77l-5.29-9.45-10.63-6.09c.33,1.99.67,4,1.02,5.99l6.34,3.64,2.5,18.09,2.68,5.25c.83.21,1.66.41,2.5.59l-2.03-9.26,2.91-8.79v.02s0,0,0,0Z"/>
        <path class="cls-7" d="m349.27,327.48l23.93,9.59c-.61-1.93-1.23-3.86-1.84-5.79l-2.5-1-17.3-9.07-13.56,2.55-9.78-6.45s-.11-.02-.17-.03l-.02-.1-5.53-3.64-2.69-6.48-4.53-20.45-4.29,1.75,12.46,30.44,13.16,9.12,12.63-.47h0s0,.03,0,.03Z"/>
        <path class="cls-7" d="m328.07,317.3s.11.02.17.03l-.18-.13.02.1h0Z"/>
        <path class="cls-7" d="m424.01,378.22l-.48-7.73c-.79-.32-1.59-.65-2.38-.97l2.86,8.7h0Z"/>
        <path class="cls-7" d="m295.24,257.97l4.73,8.72-2.82-9.21-1.9.49h0Z"/>
        <polygon class="cls-7" points="306.09 281.28 306.18 281.82 311.02 288.39 311.03 288.39 308.5 282.21 306.09 281.28"/>
        <polygon class="cls-7" points="308.5 282.21 311.03 288.39 315.31 286.63 314.88 284.66 308.5 282.21"/>
        <path class="cls-7" d="m293.31,258.45l3.85-.97c-1.02-3.35-2.05-6.7-3.08-10.06-.25,3.68-.52,7.36-.77,11.04h0Z"/>
        <path class="cls-7" d="m305.67,281.12l-4.16-1.6-1.71-3.65v.03s-.62,6.05-.62,6.05l7.9,5.01-.91-5.14-.51-.7h0Z"/>
        <polygon class="cls-7" points="305.67 281.12 306.18 281.82 306.09 281.28 305.67 281.12"/>
        <path class="cls-7" d="m612.25,82.73c-.61-2.2-1.31-4.27-2.08-6.18l3.26,11.7c-.27-1.86-.65-3.7-1.18-5.52h0Z"/>
        <g id="Group_133" data-name="Group 133">
          <path id="Path_1" data-name="Path 1" class="cls-3" d="m477.59,1.2c7.88-2.2,16.3-1.35,23.58,2.37l130.62,67.02c7.78,3.98,13.54,11.02,15.9,19.43l30.2,109.31c4.63,16.75-5.55,34.24-22.69,38.98l-208.31,57.55c-17.14,4.74-34.85-5.04-39.48-21.8l-30.2-109.31c-2.29-8.43-.97-17.43,3.67-24.83L458.56,15.35c4.33-6.94,11.12-11.99,19.02-14.14h0s0,0,0,0Z"/>
          <path id="Path_13" data-name="Path 13" class="cls-7" d="m619.03,171.49l8.8,31.83,15.65-4.32,1.27,4.61-56.16,15.52-1.27-4.61,15.65-4.32-8.8-31.83-62.01,17.13-5.51-19.94,35.8-96.56,28.83-7.97,26.01,94.13,20.17-5.57,1.74,6.33-20.16,5.57h0s0,0,0,0Zm-42.93-63.05l-22.51,59.67,36.23-10.01-13.72-49.66Z"/>
          <path id="Path_14" data-name="Path 14" class="cls-7" d="m530.89,207.77c-1.51,6.44-4.28,12.53-8.15,17.91-3.96,5.51-8.82,10.31-14.39,14.19-5.47,3.91-11.56,6.83-18.03,8.64-3.05.82-6.14,1.41-9.27,1.78-3.43.43-6.87.57-10.32.41-3.36-.15-6.7-.63-9.95-1.47-3.01-.73-5.84-2.02-8.38-3.79l2.68,9.7-5.77,1.59-12.09-43.73,9.07-2.5c.89,3.26,2.69,6.19,5.22,8.44,2.54,2.31,5.53,4.1,8.77,5.24,3.33,1.17,6.81,1.86,10.33,2.03,3.34.21,6.7-.12,9.94-.97,3.02-.88,5.92-2.17,8.6-3.83,2.94-1.75,5.63-3.87,8.01-6.32,2.31-2.35,4.11-5.15,5.27-8.23,1.15-3.06,1.28-6.4.36-9.53-1.45-5.23-4.27-8.77-8.48-10.64-4.77-2-9.83-3.23-14.99-3.63-5.77-.55-11.94-.91-18.5-1.1-6.42-.16-12.8-1.12-18.99-2.86-6.13-1.73-11.76-4.84-16.49-9.1-4.9-4.34-8.56-10.92-11-19.72-1.71-6.02-1.71-12.4.01-18.43,1.71-6.08,4.53-11.79,8.33-16.84,3.86-5.16,8.55-9.64,13.87-13.26,5.11-3.58,10.77-6.26,16.77-7.96,2.8-.75,5.65-1.32,8.52-1.69,3.21-.44,6.46-.63,9.72-.57,3.17.05,6.33.44,9.42,1.17,2.82.63,5.49,1.82,7.85,3.49l-2.28-8.25,4.94-1.37,10.94,39.6-8.65,2.39c-.76-2.83-2.43-5.34-4.74-7.13-2.43-1.89-5.16-3.35-8.07-4.32-3.01-1.01-6.15-1.56-9.33-1.64-2.87-.12-5.73.19-8.51.91-2.8.82-5.5,1.98-8.04,3.44-2.82,1.56-5.37,3.54-7.58,5.87-2.11,2.21-3.8,4.79-5,7.6-1.16,2.75-1.33,5.82-.49,8.68,1.45,5.23,4.31,8.77,8.59,10.62,4.75,1.96,9.8,3.11,14.93,3.43,5.67.43,11.79.66,18.39.69,6.38,0,12.75.86,18.9,2.54,6.07,1.7,11.69,4.74,16.44,8.89,4.95,4.26,8.64,10.79,11.07,19.59,1.89,6.52,2.09,13.43.56,20.05l.02.03h0Z"/>
        </g>
        <rect class="cls-5" x="317.16" y="280.21" width="51.9" height=".75" transform="translate(-80.34 149.66) rotate(-22.09)"/>
        <rect class="cls-5" x="175.07" y="334.96" width="51.9" height=".75" transform="translate(-128.63 125.12) rotate(-26.53)"/>
        <rect class="cls-5" x="228.35" y="504.39" width="51.9" height=".75" transform="translate(-121.3 82.42) rotate(-14.91)"/>
        <rect class="cls-5" x="341.54" y="486.96" width="51.9" height=".75" transform="translate(-36.93 30.18) rotate(-4.48)"/>
        <g>
          <path class="cls-6" d="m657.7,401.42c-11.24-4.84-22.11-9.35-32.62-13.57l-29.98,103.49h0l.05.02,56.27,16.3,36.73-126.77c-9.63,6.83-19.77,13.66-30.44,20.53h-.01Z"/>
          <polygon class="cls-1" points="641.62 303.7 641.65 303.71 641.81 302.99 692.44 314.32 692.44 314.3 641.8 302.97 641.62 303.7"/>
          <polygon class="cls-1" points="815.28 337.04 814.27 341.56 763.62 330.22 763.46 330.96 763.47 330.96 763.63 330.25 814.26 341.57 814.27 341.56 815.28 337.04 832.26 306.5 832.26 306.5 815.28 337.04"/>
          <polygon class="cls-1" points="710.44 279.24 635.3 262.44 636.23 297 693.45 309.8 710.44 279.24"/>
          <polygon class="cls-1" points="814.1 342.31 810.51 358.37 810.51 358.37 814.1 342.31 814.1 342.31"/>
          <polygon class="cls-1" points="633.27 310.25 619.61 371.28 619.62 371.28 633.27 310.25 633.27 310.25"/>
          <polygon class="cls-1" points="596.93 487.57 626.91 384.08 626.91 384.08 596.93 487.57"/>
          <path class="cls-1" d="m613.72,281.32l.31,7.01,11.02,14.91,9.43,1.57,1.74-7.82-.93-34.55,75.13,16.8-16.99,30.55-1,4.51v.02h.01l-.16.73h-.01l-10.15,45.38c2.98-2.4,5.9-4.8,8.77-7.19,13.44,5.62,27.47,11.7,42.05,18.27,5.43-4.77,10.62-9.54,15.58-14.3l-2.73-9.51,9.13-24.02,3.09-1.47-.88-32.53,25.91,5.8h0l-166.72-37.31.44.39-3.03,22.75h-.01Z"/>
          <path class="cls-1" d="m745.58,423.11h-7.29l-14.8,8.79,10.59-10.7,14.07-6.94,6.94-23.98,1.95-9.59-.59-2.68c-5.24,4.45-10.72,8.88-16.43,13.31-14.15-7.46-27.77-14.39-40.84-20.84-3.01,2.21-6.08,4.42-9.2,6.63l-36.73,126.77.05.02-1.19,34.15,46.16,13.38,18.63-29.1-.05-.02,28.74-99.2h-.01Z"/>
          <path class="cls-1" d="m619.61,371.28l13.65-61.03-10.93-3.55-14.81-21,3.71-24.27-4.06-5.29-12.13-2.72c-3.25,1.49-6.5,2.99-9.74,4.5l-.2.36c7.59,13.17,15.46,26.18,23.59,39.02-10.02,4.89-19.99,9.94-29.9,15.12.33.14.66.28.99.43-3.6,2.13-7.19,4.27-10.77,6.45-.75,0-1.51.03-2.26.09,8.46,12.85,17.19,25.52,26.15,38.02-13.58,7.59-27.04,15.44-40.36,23.58,4.61,6.2,9.29,12.36,14.03,18.47,15.8-10.46,30.76-20.73,44.86-30.86,2.7.88,5.43,1.77,8.18,2.69h0Z"/>
          <path class="cls-1" d="m626.91,384.08c-2.69-1.08-5.36-2.15-8-3.19-14.7,9.23-30.27,18.56-46.68,28.03,4.56,6.7,9.18,13.36,13.87,19.97-13.42,7.39-26.7,15.04-39.84,22.97,9.55,12.99,19.35,25.79,29.38,38.38-9.2,5.78-18.32,11.7-27.37,17.75l30.08,8.72,18.63-29.1h-.05v-.03h0l29.98-103.49h0Z"/>
          <polygon class="cls-1" points="750.17 348.02 751.91 351.8 756.71 330.29 756.37 330.54 750.17 348.02"/>
          <path class="cls-6" d="m641.64,303.72h0l-.02-.02.17-.74,50.65,11.33,1-4.51-57.22-12.8-1.74,7.82,4.17.69,13.13,14.46,11.13,9.98,3.2,10.34-4.69,7.98.08,17.21-3.87-14.55,1.34-18.21-24.61-22.11-1.1-.35-13.65,61.03c10.75,3.56,21.88,7.39,33.4,11.52,10.22-7.52,19.93-14.97,29.11-22.38l10.15-45.38-50.63-11.33v.02h0Z"/>
          <polygon class="cls-5" points="692.44 314.32 641.81 302.99 641.65 303.71 692.28 315.03 692.44 314.32"/>
          <polygon class="cls-5" points="692.28 315.03 692.28 315.05 692.29 315.05 692.46 314.32 692.44 314.32 692.28 315.04 692.44 314.32 692.44 314.32 692.28 315.03"/>
          <polygon class="cls-5" points="641.65 303.71 641.64 303.72 692.28 315.05 692.28 315.03 641.65 303.71"/>
          <path class="cls-6" d="m771.04,357.48c-3.32,3.11-6.76,6.2-10.3,9.29l2.88,7.49-5.81,18.65-2.96,14.64-7.29,8.01h-1.97l-28.74,99.2.05.02,56.27,16.3,45.09-155.62c-2.06,2.27-4.19,4.53-6.37,6.78-14.11-8.79-27.73-17.02-40.83-24.74l-.02-.02h0Z"/>
          <path class="cls-6" d="m763.47,330.98v-.02h-.01l.16-.74,50.65,11.33,1.02-4.52-51.54-11.53-1.74.86-5.3,3.92-4.81,21.51.67,1.47c3.35-3.3,6.59-6.6,9.71-9.91,13.55,6.89,27.65,14.27,42.28,22.17,2.04-2.38,4.02-4.77,5.94-7.16l3.59-16.06-50.63-11.33h0Z"/>
          <polygon class="cls-6" points="758.01 322.21 758.58 321.96 760.25 314.5 769.81 316.64 777.11 313.19 783.04 295.48 757.13 289.69 758.01 322.21"/>
          <path class="cls-6" d="m815.28,337.04l16.98-30.54-41.93-9.38,41.93,9.38h0l-41.93-9.38c-2,1.61-4,3.23-5.99,4.84l-1.76,14.2h0l-4.63,2.3,39.53,8.84-2.18,9.74h-.02Z"/>
          <polygon class="cls-6" points="832.26 306.5 832.26 306.5 790.33 297.12 832.26 306.5"/>
          <polygon class="cls-6" points="758.58 321.96 769.81 316.64 760.25 314.5 758.58 321.96"/>
          <polygon class="cls-6" points="815.28 337.04 817.46 327.3 777.94 318.46 763.74 325.51 815.28 337.04"/>
          <polygon class="cls-5" points="763.47 330.96 814.11 342.28 814.1 342.31 814.1 342.31 814.11 342.29 814.26 341.57 763.63 330.25 763.47 330.96"/>
          <polygon class="cls-5" points="814.1 342.31 814.12 342.31 814.28 341.58 814.26 341.57 814.11 342.29 814.1 342.31"/>
          <polygon class="cls-5" points="763.47 330.96 763.47 330.98 814.1 342.31 814.11 342.28 763.47 330.96"/>
          <polygon class="cls-7" points="633.27 310.25 633.27 310.25 634.49 304.81 625.05 303.24 614.03 288.33 613.72 281.32 616.76 258.57 616.32 258.18 607.19 256.14 611.25 261.43 607.53 285.7 622.33 306.7 633.27 310.24 633.27 310.25"/>
          <polygon class="cls-7" points="633.27 310.24 622.33 306.7 633.27 310.25 633.27 310.24"/>
          <polygon class="cls-7" points="658.97 332.72 657.63 350.93 661.5 365.48 661.42 348.26 666.11 340.28 662.91 329.95 651.79 319.97 638.66 305.51 634.49 304.81 633.27 310.25 634.37 310.6 658.97 332.72"/>
          <path class="cls-7" d="m739.98,363.62l.9,2.59-.81,9.75,2.53-15.18c-.87.95-1.74,1.89-2.62,2.84h0Z"/>
          <path class="cls-7" d="m758.01,322.21l-3.09,1.47-9.13,24.02,2.73,9.51c.93-.9,1.85-1.79,2.77-2.69l.61-2.72-1.73-3.78,6.2-17.47.34-.25,1.36-6.05-.06-2.03h0Z"/>
          <polygon class="cls-7" points="722.81 409.12 713.55 420.98 727.22 410.53 734.46 409.68 735.98 400.59 722.81 409.12"/>
          <polygon class="cls-7" points="756.71 330.29 762.01 326.37 763.74 325.51 758.07 324.24 756.71 330.29"/>
          <path class="cls-7" d="m799.71,390.53l-1.94,23.23-2.15,1.4-1.52,9.09,1.96-.23,6.31-8.8,1.23-14.88,3.59-19.2-3.73-7.11c-.4.44-.8.88-1.21,1.33l-2.53,15.18h0Z"/>
          <path class="cls-7" d="m743.81,359.45l-.75-1.43-.46,2.75c.4-.44.81-.88,1.21-1.33h0Z"/>
          <polygon class="cls-7" points="758.58 321.96 758.01 322.21 758.07 324.24 758.58 321.96"/>
          <polygon class="cls-7" points="758.07 324.24 763.74 325.51 777.94 318.46 769.81 316.64 758.58 321.96 758.07 324.24"/>
        </g>
        <path class="cls-6" d="m776.66,537.19l-3.04,4.13,8.1,4.46c.44-.16.89-.26,1.34-.32,1.65-3.17,3.31-6.31,4.99-9.41-4.02-3.67-8.15-3.26-11.39,1.14h0Z"/>
        <path class="cls-6" d="m501.75,521.84c2.03-5.3,4.06-10.55,6.1-15.74-5.05-6.22-10.19-5.59-14.18,1.76l-3.74,6.9,10.14,7.6c.55-.26,1.1-.43,1.67-.52h0Z"/>
        <path class="cls-6" d="m511.91,333.38c-2.35,1.39-4.7,2.78-7.04,4.19l12.36,1.36-5.32-5.54h0Z"/>
        <path class="cls-6" d="m499.62,430.07c-2.35,1.39-4.7,2.78-7.04,4.19l12.36,1.36-5.32-5.54h0Z"/>
        <path class="cls-6" d="m548.57,458.67c-2.35,1.39-4.7,2.78-7.04,4.19l12.36,1.36-5.32-5.54h0Z"/>
        <rect class="cls-5" x="722.08" y="491.8" width=".75" height="51.91" transform="translate(93.11 1145.39) rotate(-80.55)"/>
        <polygon class="cls-1" points="210.94 551.6 210.94 551.6 210.94 551.6 218.01 578.16 218.01 578.16 210.94 551.6"/>
        <path class="cls-1" d="m285.83,496.56h.02s-14.29-53.65-14.29-53.65h-.02s14.3,53.66,14.3,53.66h0Z"/>
        <path class="cls-1" d="m224.09,323.48l-46.37,23.32.17.33.17.34,46.36-23.31,57.48,114.34h.02s-57.48-114.36-57.48-114.36l-.17-.33-6.21-34.39h0l6.21,34.39-.17-.34h0Z"/>
        <polygon class="cls-1" points="302.52 526.42 285.9 496.56 285.88 496.56 302.5 526.43 302.52 526.42"/>
        <path class="cls-1" d="m221.23,402.28c1.51.1,3.03.2,4.53.32l-1.35-5.11-15.03-.86c.45,1.76.92,3.49,1.36,5.24,3.42.06,6.85.21,10.27.41l.19-.14v.15s.04,0,.04,0h0Z"/>
        <polygon class="cls-1" points="210.74 550.87 210.76 550.94 210.74 550.87 210.74 550.87"/>
        <path class="cls-1" d="m174.04,381.59l-11.11-10.06-14.42-7.85-16.01-.33-10.24-17.84,7.26,22.87,8.64-1.97,5.25,2.14,4.51-2.45,13.08,8.26,9.81,11.5,5.53,5.01c3.31-1.12,6.63-2.18,9.98-3.18l-12.3-6.11h.02Z"/>
        <path class="cls-1" d="m240.89,522.62l-44.49-120.72,6.34,5.66,6.8,10.76,11.47,2.79,5.26-4.64c-3.42.15-6.83.37-10.25.67-.63-1.69-1.27-3.38-1.91-5.07l-.42.03-20.65-19.2h0l-.7-.65-4.92-3.19c-3.44.61-6.86,1.3-10.27,2.04l4.01,4.55,9.19.93,6.02,5.35,44.49,120.72h.05s-.05,0-.05,0h.02Z"/>
        <path class="cls-1" d="m223.98,413.81l2.78,12.86,14.46,4.49-9.68-6.7-5.77-21.86c-1.51-.12-3.02-.22-4.53-.32l2.75,11.53h-.02Z"/>
        <path class="cls-1" d="m262.68,583.43h0l-12.62-24.41h0l-.17-.33h0l-.14-.27-.04-.06h0l16.14-8.35-6.53-33.93h-.05s-59.12-114.25-59.12-114.25l-6.64-4.57-9.24.22-4.55-4.02c-5.98,2.11-11.9,4.41-17.75,6.92-5.83-8.85-11.75-17.63-17.77-26.31,6.01,8.68,11.94,17.45,17.77,26.31,5.84-2.52,11.77-4.81,17.75-6.92l-5.59-4.95-9.94-11.39-13.18-8.12-4.48,2.49-5.28-2.08-8.61,2.07-7.53-22.78,10.44,17.72,16.01.15,14.52,7.68,11.23,9.94,12.38,5.97c1.28-.39,2.57-.78,3.86-1.15l-18.75-36.22-22.91-25.88-17.29,8.95-12.97-25.07-9.18,4.76c-9.75,5.04-19.44-4.72-16.45-13.78.43-1.29,1.11-2.56,2.1-3.79l86.21-106.96c-10.07-2.02-20.09-4.12-30.05-6.31-2.41-12.72-4.61-25.46-6.64-38.23L0,222.79l202.82,392.04,60.03-31.06-.17-.33h0Z"/>
        <path class="cls-1" d="m189.69,390.47l-1.61-4.53-3.97.62,4.88,3.24.69.66h0Z"/>
        <path class="cls-1" d="m228.91,291.1h0l8.21,33.96.19.32,64.09,110.78c11.38-.34,22.83.06,34.26,1.23,3.82,10.56,7.51,21.13,11.1,31.74-3.59-10.61-7.28-21.18-11.1-31.74-11.42-1.17-22.86-1.57-34.26-1.23l27.79,48.05h.03s.02-.01.02-.01l23.83,24.5,41.59-24.06h0l-8.11-33.58h-.05s-75.6-130.67-75.6-130.67l-8.63-4.38-8.06-23.19-3.85-1.76,2.58,8,3.97,28.88,12.44,9.22-8.85,26.46,4.42,10.92-9.63-11.7,4.73-12.27,4.08-11.28-7.25.26-7.13-9.42,1.54-12.63-2.61-16.35-6.53-6.53-.28-7.46-10.27-4.7c-.25-1.23-.51-2.48-.77-3.71-3.76-.22-7.52-.42-11.27-.67-.47-1.29-.93-2.6-1.4-3.88l-29.63,17.13.41-.24h0v.02s0-.02,0-.02Z"/>
        <polygon class="cls-5" points="229.13 511.29 229.23 511.66 279.38 498.29 279.29 497.92 229.13 511.29"/>
        <polygon class="cls-5" points="229.33 512.02 279.49 498.64 279.38 498.29 229.23 511.66 229.33 512.02"/>
        <polygon class="cls-5" points="302.52 526.42 302.5 526.43 302.68 526.76 240.02 543.47 348.91 514.44 348.94 514.04 302.52 526.43 302.52 526.42"/>
        <polygon class="cls-5" points="210.74 550.87 210.76 550.94 210.84 551.25 228.3 546.59 228.31 546.2 210.74 550.87"/>
        <polygon class="cls-5" points="210.75 550.88 228.31 546.2 228.31 546.2 210.75 550.88"/>
        <polygon class="cls-5" points="210.84 551.25 210.84 551.25 210.76 550.94 210.84 551.25"/>
        <polygon class="cls-5" points="210.84 551.25 210.83 551.25 210.84 551.25 210.84 551.25"/>
        <polygon class="cls-5" points="210.94 551.6 210.94 551.6 210.83 551.25 210.94 551.6"/>
        <polygon class="cls-5" points="302.5 526.43 228.31 546.2 228.31 546.2 228.31 546.2 228.3 546.59 240.02 543.47 302.68 526.76 302.5 526.43"/>
        <polygon class="cls-5" points="228.3 546.59 240.02 543.47 228.3 546.59 228.3 546.59"/>
        <path class="cls-5" d="m218.01,578.16l.09.35h0l248.31-66.18c-.22-.08-.44-.14-.65-.21h0l-247.74,66.03h0Z"/>
        <path class="cls-6" d="m232.74,409.89c9.62-1.36,19.31-2.21,29.04-2.54,4.21,10.29,8.31,20.64,12.28,31.01,2.62,0,5.24.05,7.85.12l-57.48-114.34-46.36,23.31-.17-.34-6.01,3.02h0l18.32,36.44c4.2-1.18,8.41-2.27,12.65-3.25,4.29,8.03,8.46,16.12,12.6,24.24l14.88-2.4,2.42,4.7h0l-.02.02Z"/>
        <path class="cls-6" d="m188.08,385.94l1.61,4.53h0l20.42,19.45.42-.02c-3.09-8.58-6.24-17.13-9.49-25.62-4.33.45-8.65,1.01-12.96,1.66h0Z"/>
        <path class="cls-6" d="m250.05,450.33c-1.77-10.98-3.68-21.93-5.7-32.87-9.58-1.67-19.25-2.8-28.94-3.44l6.02,21.78,9.75,6.59-14.52-4.31-2.93-12.82-2.88-11.49c-.07,0-.15-.01-.22,0l-5.67,4.14-11.16-3.84-5.78-11.34-5.79-6.22,33.14,124.32h.05s-.09-.38-.09-.38l50.16-13.36.08.37,6.45-1.72-14.3-53.66c-2.55-.61-5.1-1.18-7.66-1.72h-.02s0-.03,0-.03Z"/>
        <path class="cls-6" d="m221.2,402.13l-.19.14c.07,0,.15.01.22.02v-.15s-.03,0-.03,0h0Z"/>
        <polygon class="cls-6" points="189.69 390.47 188.08 385.94 188.08 385.94 189.69 390.47 189.69 390.47"/>
        <polygon class="cls-6" points="171.87 350.15 171.87 350.15 171.86 350.16 190.2 386.58 190.2 386.58 171.87 350.15"/>
        <polygon class="cls-6" points="149.27 324 149.27 324 217.63 289.63 149.27 324"/>
        <polygon class="cls-6" points="219.77 314.9 224.09 323.48 224.26 323.82 218.05 289.43 149.28 324.01 171.86 350.13 167.39 341.23 219.77 314.9"/>
        <polygon class="cls-6" points="171.86 350.13 149.28 324.01 218.05 289.43 218.05 289.43 217.63 289.63 149.27 324 171.86 350.16 171.86 350.13"/>
        <polygon class="cls-6" points="177.88 347.13 177.71 346.8 224.09 323.48 219.77 314.9 167.39 341.23 171.86 350.13 171.87 350.15 177.88 347.13"/>
        <polygon class="cls-6" points="171.86 350.13 171.86 350.16 171.87 350.15 171.86 350.13"/>
        <polygon class="cls-6" points="228.31 546.2 302.5 526.43 285.88 496.56 285.85 496.56 285.85 496.56 285.83 496.56 279.38 498.29 279.49 498.64 229.33 512.02 229.23 511.66 229.23 511.66 229.23 511.66 228.31 546.2"/>
        <polygon class="cls-6" points="285.89 496.54 285.92 496.53 285.92 496.53 285.89 496.54"/>
        <rect class="cls-6" x="228.76" y="511.66" height="34.55"/>
        <path class="cls-6" d="m119.19,307.52l12.67,25.22,116.34-58.49c-2.72-9.19-5.34-18.41-7.85-27.65l-121.16,60.92h0Z"/>
        <path class="cls-6" d="m218.01,578.16l247.74-66.03c-10.62-3.43-21.2-7.01-31.74-10.72,1.6-3.53,3.23-7.05,4.87-10.56l-227.94,60.76,7.08,26.55h0Z"/>
        <polygon class="cls-6" points="218.01 578.16 465.75 512.13 465.75 512.13 218.01 578.16 218.01 578.16"/>
        <path class="cls-4" d="m467.06,512.55l-248.86,66.32h0l-.09-.35-65.31,17.42,7.48,28.03,310.16-82.67c3.3-8.18,6.68-16.34,10.2-24.43-4.53-1.41-9.06-2.86-13.58-4.31h0Z"/>
        <path class="cls-4" d="m93.69,298.2c-3.11,9.03,6.49,18.89,16.29,13.96h0l9.23-4.65h0l121.17-60.93h0c-.79-2.89-1.56-5.78-2.33-8.67-8.26-1.25-16.49-2.61-24.68-3.98l-25.93,13.04c-.22.1-.44.21-.66.3-6.75,2.69-12.99-5.5-8.17-11.34h0l17.15-20.79c-1.87-8.36-3.66-16.76-5.37-25.14-2.39-.5-4.76-1.03-7.12-1.52l-87.44,105.96c-.99,1.21-1.7,2.47-2.14,3.78h0Z"/>
        <polygon class="cls-4" points="119.19 307.52 119.19 307.52 119.2 307.52 240.36 246.61 240.35 246.6 119.19 307.52"/>
        <path class="cls-6" d="m186.76,247.27c.22-.09.43-.18.65-.29l25.93-13.04c-4.62-.77-9.22-1.55-13.82-2.36-1.3-5.46-2.55-10.95-3.78-16.42l-17.15,20.79h0c-4.8,5.83,1.42,14.02,8.16,11.33h0Z"/>
        <path class="cls-6" d="m186.76,247.27c-6.74,2.68-12.97-5.5-8.16-11.33h0c-4.82,5.84,1.41,14.03,8.16,11.33Z"/>
        <path class="cls-5" d="m210.94,551.6l227.94-60.76c.07-.15.14-.3.21-.43l-15.78,4.2h0l-74.4,19.83-138.09,36.8.09.35h.02Z"/>
        <polygon class="cls-5" points="210.68 551.49 211.03 551.4 211.03 551.4 210.68 551.49"/>
        <polygon class="cls-5" points="210.83 551.25 210.94 551.6 210.84 551.25 210.83 551.25"/>
        <path class="cls-5" d="m218.2,578.89l248.86-66.32c-.22-.08-.44-.14-.65-.21l-248.3,66.19.09.35h0Z"/>
        <rect class="cls-5" x="175.19" y="335.28" width="51.9" height=".75" transform="translate(-128.72 125.15) rotate(-26.52)"/>
        <rect class="cls-5" x="228.37" y="504.38" width="51.9" height=".75" transform="translate(-120.27 81.5) rotate(-14.77)"/>
        <path class="cls-6" d="m193.52,442.63l-2.38,4.55,8.69,3.17c.41-.23.84-.39,1.28-.52,1.15-3.39,2.31-6.74,3.49-10.06-4.53-3.01-8.55-1.98-11.08,2.86h0Z"/>
        <path class="cls-6" d="m197.07,582.49c1.66-5.62,3.34-11.19,5.04-16.7-7.1-5.19-13.27-3.61-17.02,4.41l-3.5,7.53,13.52,5.6c.63-.36,1.28-.63,1.95-.82h0Z"/>
        <path class="cls-6" d="m226.24,533.01c-6.83-.92-13.73.99-19.12,5.32l-5.34,4.28,14.43.33c.07-.02.15-.05.22-.07-.13-.12-.27-.24-.41-.35,3.4-3.19,6.8-6.36,10.22-9.52h.01Z"/>
        <path class="cls-6" d="m311.62,515.26l-2.38,4.55,8.69,3.17c.41-.23.84-.39,1.28-.52,1.15-3.39,2.31-6.74,3.49-10.06-4.53-3.01-8.55-1.98-11.08,2.86h0Z"/>
        <path class="cls-6" d="m572.6,413.72c2.5-5.3,5.01-10.55,7.53-15.74-6.23-6.22-12.57-5.59-17.49,1.76l-4.61,6.9,12.51,7.6c.68-.26,1.36-.43,2.06-.52h0Z"/>
        <path class="cls-6" d="m327.23,402.96c-6.83-.92-13.73.99-19.12,5.32l-5.34,4.28,14.43.33c.07-.02.15-.05.22-.07-.13-.12-.27-.24-.41-.35,3.4-3.19,6.8-6.36,10.22-9.52h.01Z"/>
        <path class="cls-6" d="m791.5,573.08c-2.35,1.39-4.7,2.78-7.04,4.19l12.36,1.36-5.32-5.54h0Z"/>
        <rect class="cls-5" x="598.93" y="471.3" width=".75" height="51.91" transform="translate(10.39 1006.78) rotate(-80.55)"/>
        <path class="cls-6" d="m328.17,439.48c-2.26,1.54-4.52,3.07-6.76,4.62l12.42.58-5.66-5.19h0Z"/>
        <path class="cls-6" d="m394.74,388.34c-2.26,1.54-4.52,3.07-6.76,4.62l12.42.58-5.66-5.19h0Z"/>
      </g>
    </g>
  </g>
</svg>