<?xml version="1.0" encoding="UTF-8"?>
<svg id="Layer_2" data-name="Layer 2" xmlns="http://www.w3.org/2000/svg" viewBox="0 0 783.86 665.13">
  <defs>
    <style>
      .cls-1 {
        fill: none;
      }

      .cls-1, .cls-2, .cls-3, .cls-4, .cls-5, .cls-6, .cls-7 {
        stroke-width: 0px;
      }

      .cls-3 {
        fill: #756746;
      }

      .cls-4 {
        fill: #5c5c5c;
      }

      .cls-5 {
        fill: #2c2c7c;
      }

      .cls-6 {
        fill: #d0d8d7;
      }

      .cls-7 {
        fill: #fff;
      }
    </style>
  </defs>
  <g id="Layer_2-2" data-name="Layer 2">
    <polygon class="cls-1" points="543.14 573.32 543.14 573.33 543.14 573.32 496.74 565.6 543.14 573.32"/>
    <path class="cls-5" d="m400.93,148.34l1.1.29-.16-.37c-.31.02-.62.04-.94.07h0Z"/>
    <path class="cls-1" d="m221.15,183.03l111.47-62.47s.02,0,.03-.02c.33-.19.64-.34.93-.49,6.84-3.67,14.27-5.9,21.85-6.63,7.93-.76,16.02.11,23.75,2.66l3.17,1.05c-1.57-1.94-3.15-3.89-4.7-5.84l-173.95,16.72c-2.87,12.61-5.57,25.27-8.07,37.96,8.41,5.76,16.94,11.43,25.53,17.05h-.01Z"/>
    <path class="cls-1" d="m281.04,283.59l60.31-5.8-1.29,6.67c2.61-2.45,5.23-4.88,7.86-7.31l-66.87,6.43h0Z"/>
    <path class="cls-1" d="m268.91,300.44c.1.69.2,1.37.3,2.06l.84-1.47c-.38-.2-.76-.39-1.14-.59Z"/>
    <path class="cls-1" d="m250.69,286.49c-.11,1.37-.23,2.74-.34,4.11,3.31,1.78,6.65,3.53,9.98,5.29.8-3.52,1.59-7.04,2.39-10.56l-12.03,1.16Z"/>
    <polygon class="cls-1" points="277.93 283.88 266.67 284.96 266.67 284.97 277.93 283.89 277.93 283.88"/>
    <path class="cls-1" d="m270.25,300.67l-2.2-6.17c.29,1.98.57,3.96.86,5.94.38.2.76.39,1.14.59l.2-.35h0Z"/>
    <path class="cls-6" d="m284.47,350.38l7.5,9,13.72,1.47,13.95,13.67,2.11,1.68c-.04-2.9-.07-5.8-.08-8.7-12.51-5.59-24.91-11.3-37.18-17.12h-.02Z"/>
    <path class="cls-6" d="m283.54,322.41l-.07-.75,1.79-.17c.07-1.55.14-3.11.21-4.66l-4.53.43-1.56,20.88.7,6.98,4.23,5.08c.19-9.33.5-18.65.9-27.96l-1.68.16h.01Z"/>
    <path class="cls-6" d="m331.92,405.62l-5.71-4.56c.15,8.57.37,17.15.7,25.73,2.18.91,4.38,1.79,6.57,2.69l-1.84-5.6.28-18.26h0Z"/>
    <path class="cls-6" d="m276.7,289.41l1.23-5.53-11.26,1.08,1.38,9.53,2.2,6.17,6.45-11.26h0Z"/>
    <path class="cls-6" d="m273.66,309.49l2.04,1.58-.32-3.3,6.54-.63c-2.45-1.25-4.89-2.51-7.32-3.77l-.31.74-.63,5.38h0Z"/>
    <path class="cls-6" d="m339.98,284.86l.08-.4c-.09.08-.17.16-.26.24.06.05.12.11.18.16h0Z"/>
    <path class="cls-6" d="m275.7,311.07l5.4,4.18-.15,2.01,4.53-.43c.12-2.56.24-5.11.38-7.67-1.32-.67-2.62-1.35-3.93-2.03l-6.54.63.32,3.3h-.01Z"/>
    <path class="cls-5" d="m283.54,322.41l1.68-.16c.01-.25.02-.5.03-.76l-1.79.17.07.75h.01Z"/>
    <path class="cls-5" d="m285.23,322.25l49.98-4.8-.07-.75-49.88,4.79c-.01.25-.02.5-.03.76h0Z"/>
    <path class="cls-6" d="m265.16,274.55c.5,3.47,1,6.94,1.51,10.41l11.26-1.08,2.13-9.58-3.83-3.41.24-5.66-4.77-7.47,2.46-1.88-20.79,2c-1,9.52-1.89,19.06-2.68,28.62l12.03-1.16c.81-3.6,1.63-7.19,2.44-10.79h0Z"/>
    <path class="cls-4" d="m332.62,120.57s.02,0,.03-.02c-.01,0-.02,0-.03.02l-111.47,62.47h0l111.47-62.47Z"/>
    <polygon class="cls-4" points="253.37 257.88 253.37 257.88 274.16 255.88 274.16 255.88 253.37 257.88"/>
    <polygon class="cls-4" points="280.49 255.27 369.5 246.72 369.5 246.72 280.49 255.27 280.49 255.27"/>
    <path class="cls-2" d="m87.36,257.48h0c-1.26.93-2.25,1.99-2.99,3.14.74-1.14,1.73-2.2,2.99-3.14Z"/>
    <polygon class="cls-2" points="274.16 255.88 274.16 255.88 253.37 257.88 253.37 257.88 274.16 255.88"/>
    <polygon class="cls-2" points="280.49 255.27 369.5 246.72 369.5 246.71 280.49 255.27 280.49 255.27"/>
    <g>
      <path class="cls-6" d="m284.32,350.2l.14.17c12.28,5.82,24.67,11.53,37.18,17.12.02,2.9.05,5.8.08,8.7l9.58,7.64,3.79,10.14-4.22,8.24.59,9.46c4.43,1.82,8.86,3.63,13.32,5.41l-9.58-99.63-49.98,4.8c-.4,9.31-.71,18.63-.9,27.96h0Z"/>
      <path class="cls-6" d="m285.47,316.83c-.07,1.55-.15,3.11-.21,4.66l49.88-4.79-.44-4.61h0l-49.22,4.74h-.01Z"/>
      <path class="cls-6" d="m281.04,283.59l-1.03,6.67-5.41,13.11c2.44,1.26,4.88,2.52,7.32,3.77l51.82-4.98.95,9.93,5.28-27.23c-.06-.05-.12-.11-.18-.16.09-.08.17-.16.26-.24l1.29-6.67-60.31,5.8h0Z"/>
      <path class="cls-6" d="m285.47,316.83l49.22-4.73h0l-.95-9.94-51.82,4.98c1.31.67,2.62,1.36,3.93,2.03-.14,2.55-.26,5.11-.38,7.67h0Z"/>
      <path class="cls-6" d="m277.44,258.85l5.08,15.18-1.48,9.55,66.87-6.43c9.1-8.4,18.31-16.65,27.61-24.76-2.02-1.88-4.02-3.78-6.03-5.67l-89.02,8.56-3.05,3.58h.02,0Z"/>
      <path class="cls-4" d="m254.34,248.95c-.33,2.97-.65,5.95-.97,8.93l20.79-2,16.61-12.68-10.28,12.07,89.01-8.56c-7.44-7.04-14.77-14.18-21.99-21.44l-114.74,11.03c7.14,4.25,14.32,8.48,21.57,12.64h0Z"/>
      <path class="cls-4" d="m332.62,120.57l-111.47,62.47c2.03,1.33,4.05,2.68,6.09,4-1.45,8.44-2.8,16.91-4.08,25.38l112.37-62.97-.14-.02c-15.08-4.98,10.14-35.28-1.82-29.36-.29.14-.59.3-.93.49-.01,0-.02,0-.03.02h.01Z"/>
      <path class="cls-6" d="m336.34,163.74c-2.74,2.84-4.88,6.21-6.28,9.9-2.82,7.44-2.02,15.76,2.16,22.52,2.08,3.36,4.82,6.25,8.05,8.52,3.4,2.4,7.21,4.16,11.25,5.19,1.4.36,2.8.63,4.22.82,8.42-6.93,16.92-13.75,25.48-20.45-10.12-10.66-20-21.54-29.63-32.64,1.98-1.49,3.96-2.97,5.95-4.45h-.01c-3.86.53-7.61,1.66-11.14,3.34-3.76,1.78-7.17,4.24-10.05,7.25h0Z"/>
      <path class="cls-6" d="m220.73,229.1c3.99,2.42,8.01,4.81,12.03,7.2l114.74-11.03c-1.41-1.41-2.82-2.82-4.22-4.24,3.87-3.26,7.75-6.48,11.65-9.69-1.21-.19-2.42-.44-3.61-.75-4.12-1.06-8.02-2.86-11.49-5.31-3.32-2.32-6.12-5.3-8.26-8.74-4.3-6.96-5.12-15.52-2.23-23.18,1.44-3.79,3.63-7.24,6.44-10.15,2.94-3.07,6.42-5.58,10.27-7.4,2.96-1.4,6.07-2.41,9.24-3.04l-19.78-3.34-112.37,62.97c-.84,5.56-1.65,11.12-2.42,16.68v.02h.01Z"/>
    </g>
    <path class="cls-5" d="m335.79,163.23c-2.81,2.91-5,6.37-6.44,10.15-2.9,7.65-2.07,16.22,2.23,23.18,2.13,3.44,4.94,6.41,8.26,8.74,3.48,2.45,7.37,4.25,11.49,5.31,1.19.31,2.4.56,3.61.75.27-.22.53-.44.8-.65-1.41-.2-2.82-.47-4.22-.82-4.03-1.03-7.85-2.79-11.25-5.19-3.23-2.27-5.97-5.16-8.05-8.52-4.18-6.76-4.98-15.08-2.16-22.52,1.4-3.69,3.54-7.06,6.28-9.9,2.88-3.01,6.29-5.46,10.05-7.25,3.52-1.68,7.28-2.81,11.14-3.34l-2.22-.37c-3.17.63-6.28,1.64-9.24,3.04-3.85,1.82-7.33,4.33-10.27,7.4h-.01Z"/>
    <g>
      <path class="cls-1" d="m347.57,341.54h0l-.06.75h0l-7.54,99.81c5.12,3.16,10.26,6.31,15.43,9.43-1.41,13.21-2.61,26.46-3.59,39.74.98-13.28,2.18-26.53,3.59-39.74-5.17-3.12-10.3-6.27-15.43-9.43l-5.9,78.19h.05l5.84,33.68,16.69,1.26c7.61-7.78,15.32-15.45,23.14-22.99-12.4-10.26-24.61-20.77-36.62-31.53,11.23-10.46,22.67-20.68,34.28-30.66-11.62-10.75-23.03-21.74-34.22-32.96,12.01-9.97,24.19-19.68,36.54-29.15-10.8-11.2-21.38-22.61-31.72-34.25,12.74-9.43,25.64-18.6,38.69-27.5-9.9-11.53-19.56-23.27-28.97-35.2l-9.85,25.93-.35,4.62h0Z"/>
      <rect class="cls-5" x="300.78" y="496.84" width=".75" height="51.9" transform="translate(-242.83 783.71) rotate(-85.68)"/>
      <g>
        <path class="cls-6" d="m339.98,442.1c-4.09-2.52-8.14-5.06-12.2-7.6l-.84,7.7-1.33-9.06c-2-1.26-4.02-2.5-6.01-3.77,1.14-8.51,2.38-17,3.69-25.48l-17.11-19.29-11.51-5.23-7.69-14.05-11.37,150.56h.05l58.41,4.41,5.9-78.19h.01Z"/>
        <path class="cls-6" d="m334.12,520.29h-.05l-58.41-4.41-12.26,32.31,76.57,5.78-5.84-33.67h-.01Zm-58.87.94l.06-.75,51.76,3.91-.06.75-51.76-3.91h0Z"/>
        <path class="cls-5" d="m340.03,554.35l16.28,1.23c.11-.12.23-.23.34-.35l-16.69-1.26.07.38Z"/>
      </g>
      <polygon class="cls-5" points="340.03 554.35 339.96 553.97 263.39 548.19 263.26 548.55 340.03 554.35"/>
    </g>
    <path class="cls-6" d="m467.03,409.48c4.63-3.45,9.28-6.88,13.95-10.27-9.6-3.14-20.08-2.11-28.89,2.82l-8.27,4.63,19.78,3.34c1.14-.22,2.28-.4,3.43-.52h0Z"/>
    <path class="cls-6" d="m416.2,411.19l-3.04,4.13,8.1,4.46c.44-.16.89-.26,1.34-.32,1.65-3.17,3.31-6.31,4.99-9.41-4.02-3.67-8.15-3.26-11.39,1.14h0Z"/>
    <path class="cls-6" d="m396.87,406.1c2.5-5.3,5.01-10.55,7.53-15.74-6.23-6.22-12.57-5.59-17.49,1.76l-4.61,6.9,12.51,7.6c.68-.26,1.36-.43,2.06-.52h0Z"/>
    <path class="cls-6" d="m446.01,448.28c-6.61-1.95-13.71-1.12-19.71,2.35l-5.93,3.42,14.21,2.53c.07-.01.15-.03.22-.04-.11-.14-.23-.28-.35-.41,3.84-2.64,7.69-5.25,11.55-7.85h.01Z"/>
    <path class="cls-6" d="m436.91,361.22l-3.04,4.13,8.1,4.46c.44-.16.89-.26,1.34-.32,1.65-3.17,3.31-6.31,4.99-9.41-4.02-3.67-8.15-3.26-11.39,1.14h0Z"/>
    <path class="cls-6" d="m375.2,471.14l-3.04,4.13,8.1,4.46c.44-.16.89-.26,1.34-.32,1.65-3.17,3.31-6.31,4.99-9.41-4.02-3.67-8.15-3.26-11.39,1.14h0Z"/>
    <path class="cls-6" d="m416.2,506.24l-3.04,4.13,8.1,4.46c.44-.16.89-.26,1.34-.32,1.65-3.17,3.31-6.31,4.99-9.41-4.02-3.67-8.15-3.26-11.39,1.14h0Z"/>
    <path class="cls-4" d="m521.66,172.9l-2.89-1.67c-2.99-1.73-6.11-3.15-9.31-4.31l-43.5,18.97c-1,3.63-.51,6.93,3.16,9.05l.13.05,9.04-2.85c9.64-3.04,20.1-1.9,28.86,3.12,7.08-3.19,14.18-6.32,21.3-9.38-2.3-4.31-4.55-8.64-6.79-12.98h0Z"/>
    <path class="cls-4" d="m741.23,325.53l-19.96-2.19h0l19.96,2.19c7.4.81,12.33-4.73,12.85-10.67-.51,5.95-5.44,11.49-12.85,10.67Z"/>
    <polygon class="cls-4" points="750.67 337.5 513.24 302.42 513.24 302.42 750.67 337.5 750.67 337.5"/>
    <path class="cls-2" d="m754.08,314.86c.35-4.07-1.37-8.33-5.78-10.88h0c4.41,2.55,6.13,6.81,5.78,10.88Z"/>
    <polygon class="cls-2" points="750.67 337.5 513.24 302.42 513.24 302.42 750.67 337.5 750.67 337.5"/>
    <path class="cls-6" d="m504.51,206.96c-4.01-1.98-8.34-3.24-12.78-3.71-.56-.06-1.12-.11-1.68-.15h0l21.36,8.34c-2.1-1.76-4.41-3.27-6.89-4.48h0Z"/>
    <path class="cls-6" d="m530.57,266.17c4.08-.83,7.97-2.39,11.5-4.61,3.34-2.1,6.23-4.85,8.48-8.1,4.52-6.55,5.74-14.82,3.31-22.38-1.21-3.76-3.17-7.23-5.77-10.2-.92-1.07-1.91-2.06-2.96-3.01l-21.03-9.13c-2.28.97-4.56,1.92-6.84,2.9,6.69,13.09,13.66,26.03,20.93,38.8-9.92,4.44-19.81,9.03-29.64,13.73,6.97,2.79,14.63,3.52,22.04,2.02h0l-.02-.02Z"/>
    <path class="cls-4" d="m750.67,337.5l19.86,2.93c7.36,1.09,12.5-4.27,13.24-10.18.5-4.05-1.06-8.38-5.37-11.09h0l-161.24-70.02,64.29,40.45c6.61,4.16,2.82,14.41-4.9,13.26l-179.51-26.52c5.28,8.77,10.68,17.47,16.2,26.09l237.44,35.08h-.01,0Z"/>
    <polygon class="cls-6" points="560.47 357.76 559.38 367.69 572.89 335.45 496.36 327.05 501.1 361.29 502.19 351.36 560.47 357.76"/>
    <rect class="cls-6" x="525.82" y="330.24" width="9.99" height="58.63" transform="translate(115.43 847.93) rotate(-83.73)"/>
    <path class="cls-6" d="m540.31,538.88h-.05l-57.78-9.63-15.1,31.08,75.75,12.61-2.8-34.06h-.02Zm-7.51,4.19l-51.2-8.53.12-.74,51.2,8.53-.12.74Z"/>
    <path class="cls-6" d="m590.52,580.84l75.75,12.61-2.8-34.06h-.05l-57.78-9.63-15.1,31.08h-.02Zm65.42-17.26l-51.2-8.53.12-.74,51.2,8.53-.12.74Z"/>
    <path class="cls-6" d="m506.53,329.96l169.01,24.97,1.54-6.02c7.93-3.23,15.86-6.45,23.79-9.68-5.97,5.6-11.95,11.19-17.93,16.79l63.6,9.4,4.12-27.93-237.44-35.08c1.49,2.32,2.98,4.64,4.48,6.95-7.46,3.82-14.88,7.73-22.27,11.71.03.21.06.43.11.64l10.97,8.23h.02v.02Z"/>
    <path class="cls-6" d="m462.69,383.67c-2.35,1.39-4.7,2.78-7.04,4.19l12.36,1.36-5.32-5.54h0Z"/>
    <path class="cls-6" d="m684.07,625.41h0l4.63-27.85h0l-.06.37-252.92-42.1c-2.94,2.52-5.87,5.05-8.79,7.6,8.06,7.74,16.23,15.36,24.49,22.87l232.72,38.74-.06.37h-.01Z"/>
    <path class="cls-4" d="m684.07,625.41l-.06.37-231.58-38.55c3.52,3.19,7.05,6.37,10.59,9.53-6.53,5.93-12.98,11.95-19.37,18.04l302.33,50.33,4.77-28.62-66.67-11.1h-.01Z"/>
    <path class="cls-4" d="m617.16,249.14l161.24,70.01-221.58-139.44c2.07,4.42,4.16,8.83,6.3,13.22-7.23,2.79-14.44,5.66-21.64,8.58.04.02.07.04.11.06l75.57,47.55h0v.02Z"/>
    <path class="cls-6" d="m547.09,218.71l70.06,30.42-75.57-47.55s-.07-.04-.11-.06c-5.34,2.17-10.68,4.38-16.01,6.62,4.62.63,9.13,2.08,13.3,4.32,3.08,1.66,5.88,3.77,8.32,6.25h.01Z"/>
    <path class="cls-6" d="m681.44,289.58l-64.29-40.45-70.06-30.42c.53.54,1.05,1.09,1.55,1.67,2.66,3.05,4.68,6.62,5.91,10.47,2.5,7.79,1.24,16.3-3.4,23.03-2.31,3.33-5.26,6.16-8.69,8.31-3.6,2.28-7.58,3.87-11.74,4.72-4.47.91-9.06,1.04-13.56.35-3.29-.47-6.5-1.38-9.56-2.68-4.55,2.18-9.1,4.37-13.64,6.61,1.02,1.71,2.05,3.42,3.08,5.13l179.51,26.52c7.72,1.14,11.52-9.1,4.9-13.26h-.01,0Z"/>
    <path class="cls-5" d="m504.51,206.96c2.47,1.21,4.78,2.72,6.89,4.48l2,.78c-2.54-2.39-5.42-4.4-8.55-5.94-4.25-2.08-8.81-3.36-13.45-3.82-.45.21-.9.42-1.35.63.56.04,1.12.09,1.68.15,4.45.47,8.77,1.73,12.78,3.71h0Z"/>
    <path class="cls-5" d="m530.72,266.91c4.17-.84,8.15-2.45,11.74-4.72,3.43-2.15,6.39-4.98,8.69-8.31,4.65-6.73,5.9-15.24,3.4-23.03-1.25-3.85-3.26-7.42-5.91-10.47-.5-.58-1.02-1.13-1.55-1.67l-1.97-.85c1.05.94,2.04,1.94,2.96,3.01,2.59,2.98,4.55,6.44,5.77,10.2,2.43,7.57,1.21,15.84-3.31,22.38-2.25,3.25-5.13,6-8.48,8.1-3.52,2.23-7.42,3.79-11.5,4.61-7.42,1.5-15.08.78-22.04-2.02-.31.15-.62.3-.93.45,3.05,1.29,6.26,2.2,9.56,2.68,4.51.68,9.11.56,13.56-.35h0Z"/>
    <polygon class="cls-5" points="543.11 572.94 543.14 573.32 590.35 581.19 590.52 580.84 543.11 572.94"/>
    <polygon class="cls-5" points="688.71 597.55 688.77 597.19 666.26 593.44 666.29 593.82 688.71 597.55"/>
    <polygon class="cls-5" points="543.14 573.32 543.11 572.94 467.36 560.34 467.19 560.69 496.74 565.6 543.14 573.32"/>
    <polygon class="cls-5" points="590.35 581.19 666.29 593.82 666.26 593.44 590.52 580.84 590.35 581.19"/>
    <path class="cls-5" d="m688.71,597.55l-22.42-3.73h0l-75.96-12.64h0l-47.2-7.86h0l-106.74-17.77h0l18.79,3.12-19.1-3.18c-.13.1-.25.22-.38.32l252.92,42.1.06-.37h.03Z"/>
    <polygon class="cls-5" points="496.74 565.6 467.19 560.69 467.19 560.69 543.14 573.33 543.14 573.32 496.74 565.6"/>
    <polygon class="cls-5" points="496.74 565.6 467.19 560.69 467.19 560.69 496.74 565.6"/>
    <polygon class="cls-5" points="436.41 555.57 543.14 573.33 467.19 560.69 467.19 560.69 455.2 558.69 436.41 555.56 436.41 555.57"/>
    <path class="cls-5" d="m684.14,625.03l-232.72-38.74c.17.15.34.31.5.47l232.14,38.64.06-.37h.02Z"/>
    <path class="cls-5" d="m684.07,625.41l-232.14-38.64c.17.15.33.31.5.47l231.58,38.55.06-.37h0Z"/>
    <polygon class="cls-7" points="264.02 315.04 267.25 323.7 262.83 339.66 256.17 350.52 258.74 362.04 265.44 364.81 257.04 373.37 247.64 382.57 251.54 397.21 252.06 385.44 271.1 365.05 263.61 351.5 272.01 323.57 272.99 315.22 266.87 308.14 264.02 315.04"/>
    <path class="cls-7" d="m270.45,301.23l-.2-.56-.2.35c.13.07.27.14.4.21Z"/>
    <path class="cls-7" d="m270.05,301.02l-.84,1.47.58,3.99,3.52,2.73-2.85-7.98c-.13-.07-.27-.14-.4-.21h-.01Z"/>
    <polygon class="cls-7" points="277.93 283.89 281.04 283.59 281.04 283.58 277.93 283.88 277.93 283.89"/>
    <path class="cls-7" d="m276.7,289.41l-6.45,11.26.2.56c1.38.72,2.76,1.42,4.14,2.14l5.41-13.11,1.03-6.67-3.12.3-1.23,5.53h.02,0Z"/>
    <path class="cls-7" d="m273.3,309.21l.36.28.63-5.38.31-.74c-1.38-.71-2.77-1.42-4.14-2.14l2.85,7.98h-.01Z"/>
    <polygon class="cls-7" points="271.7 257.76 276.47 265.23 276.23 270.89 280.06 274.3 277.93 283.88 281.04 283.58 282.52 274.03 277.44 258.85 280.49 255.27 274.16 255.88 271.7 257.76"/>
    <polygon class="cls-7" points="274.17 255.88 280.5 255.27 280.5 255.27 274.17 255.88"/>
    <polygon class="cls-7" points="290.77 243.2 274.16 255.88 280.49 255.27 290.77 243.2"/>
    <path class="cls-7" d="m459.44,285.44c-1.45,8.44-2.89,16.88-4.34,25.31l7.29,7.59c1.07-.63,2.15-1.26,3.22-1.89-2.06-10.34-4.12-20.67-6.17-31.01h0Z"/>
    <path class="cls-7" d="m477.02,324.91l-11.27-7.82c-.04-.21-.08-.43-.13-.64-1.07.63-2.15,1.26-3.22,1.89l5.32,5.54,9.3,1.02h0Z"/>
    <polygon class="cls-7" points="646.84 343.57 654.27 344.38 654.27 344.38 646.84 343.56 646.84 343.57"/>
    <path class="cls-7" d="m642.91,361.82l-6.88,4.24,8.28.91,4.35-2.8.18-14.31c1.81-1.82,3.62-3.65,5.42-5.47l-7.43-.82-3.93,18.25h.01Z"/>
    <path class="cls-7" d="m648.15,337.49l-1.31,6.07,7.43.82c5.76-5.82,11.52-11.63,17.29-17.45-7.8,3.52-15.61,7.04-23.41,10.56Z"/>
    <rect class="cls-5" x="141.73" y="334.59" width="51.9" height=".37" transform="translate(-69.07 44.7) rotate(-12.61)"/>
    <rect class="cls-5" x="141.64" y="334.24" width="51.9" height=".38" transform="translate(-68.99 44.67) rotate(-12.61)"/>
    <path class="cls-4" d="m84.92,289.84c-10.71,2.4-17.61-9.51-12.41-17.51-5.21,8,1.7,19.9,12.41,17.51l10.09-2.26h0l-10.09,2.26Z"/>
    <polygon class="cls-4" points="186.09 187.69 186.09 187.69 75.51 269.19 75.51 269.19 75.51 269.19 186.09 187.69"/>
    <polygon class="cls-4" points="227.36 257.96 95 287.58 95 287.58 227.36 257.96 227.36 257.96"/>
    <polygon class="cls-2" points="95 287.58 227.36 257.96 227.36 257.96 95 287.58 95 287.58"/>
    <polygon class="cls-7" points="145.09 385.49 130.19 372.77 121.86 360.31 109.78 349.19 94.33 344.96 88.75 325.17 90.24 349.12 99.1 349.32 103.66 352.67 108.63 351.39 119.31 362.58 126.03 376.12 133.56 387.39 142.54 389.52 147.8 395.62 145.7 386.23 145.09 385.49"/>
    <path class="cls-7" d="m268.05,294.5l-3.34-9.34,1.96-.19h0l-3.95.38c-.8,3.52-1.59,7.04-2.39,10.56,2.86,1.51,5.71,3.03,8.58,4.53-.29-1.98-.57-3.96-.86-5.94h0Z"/>
    <path class="cls-7" d="m269.2,302.5c-.1-.69-.2-1.37-.3-2.06-2.87-1.5-5.72-3.02-8.58-4.53-.28,1.23-.56,2.47-.84,3.7l7.38,8.54,2.32-5.61.02-.03h0Z"/>
    <polygon class="cls-7" points="276.33 317.71 273.59 310.03 272.99 315.22 275.76 318.43 273.45 342.87 279.48 350.45 276.34 317.71 276.33 317.71"/>
    <path class="cls-7" d="m335.1,393.97l-3.79-10.14-9.58-7.64c.02,2.02.06,4.05.09,6.07l5.71,4.56-.28,18.26,1.84,5.6c.79.33,1.58.65,2.38.97l-.59-9.46,4.22-8.24v.02Z"/>
    <path class="cls-7" d="m301.68,366.18l20.14,16.09c-.03-2.02-.07-4.05-.09-6.07l-2.11-1.68-13.95-13.67-13.72-1.47-7.5-9s-.1-.05-.15-.07v-.1l-4.23-5.08-.7-6.98,1.56-20.88-4.61.44,3.15,32.74,9.97,12.53,12.23,3.19h0Z"/>
    <path class="cls-7" d="m284.32,350.31s.1.05.15.07l-.14-.17v.1h0Z"/>
    <path class="cls-7" d="m331.95,419.39l-.48-7.73c-.79-.32-1.59-.65-2.38-.97l2.86,8.7h0Z"/>
    <path class="cls-7" d="m264.71,285.16l3.34,9.34-1.38-9.53-1.96.19h0Z"/>
    <polygon class="cls-7" points="273.66 309.49 273.59 310.03 276.33 317.71 276.34 317.71 275.7 311.07 273.66 309.49"/>
    <polygon class="cls-7" points="275.7 311.07 276.34 317.71 280.95 317.27 281.1 315.25 275.7 311.07"/>
    <path class="cls-7" d="m262.72,285.34l3.95-.38c-.5-3.47-1-6.94-1.51-10.41-.81,3.6-1.63,7.19-2.44,10.79Z"/>
    <path class="cls-7" d="m273.3,309.21l-3.52-2.73-.58-3.99-.02.03-2.32,5.61,6.12,7.08.61-5.19-.29-.82h0Z"/>
    <polygon class="cls-7" points="273.3 309.21 273.59 310.03 273.66 309.49 273.3 309.21"/>
    <path class="cls-7" d="m520.19,123.9c-.61-2.2-1.31-4.27-2.08-6.18l3.26,11.7c-.27-1.86-.65-3.7-1.18-5.52h0Z"/>
    <g id="Group_133" data-name="Group 133">
      <path id="Path_1" data-name="Path 1" class="cls-3" d="m418.51,2.75c7.49-3.29,15.95-3.64,23.68-.98l138.77,47.91c8.26,2.84,14.96,9,18.48,16.99l45.33,103.95c6.95,15.93-.66,34.68-16.96,41.79l-198.1,86.38c-16.3,7.11-35.21-.07-42.16-16.01l-45.33-103.95c-3.46-8.02-3.42-17.12.13-25.1l59.32-134.29c3.31-7.48,9.32-13.44,16.83-16.68h.01Z"/>
      <path id="Path_13" data-name="Path 13" class="cls-7" d="m582.57,151.37l13.2,30.27,14.88-6.49,1.91,4.38-53.41,23.29-1.91-4.38,14.88-6.49-13.2-30.27-58.97,25.71-8.27-18.96,21.81-100.65,27.42-11.96,39.04,89.52,19.18-8.36,2.62,6.02-19.17,8.36h-.01Zm-51.4-56.36l-13.86,62.25,34.45-15.02-20.59-47.23Z"/>
      <path id="Path_14" data-name="Path 14" class="cls-7" d="m500.44,199.73c-.59,6.59-2.47,13.01-5.54,18.88-3.14,6.01-7.28,11.45-12.24,16.08-4.86,4.64-10.48,8.39-16.63,11.1-2.9,1.24-5.88,2.26-8.93,3.07-3.33.91-6.72,1.53-10.16,1.86-3.35.33-6.72.32-10.06-.05-3.08-.3-6.07-1.18-8.83-2.57l4.02,9.22-5.49,2.39-18.14-41.59,8.63-3.76c1.34,3.1,3.54,5.75,6.36,7.62,2.84,1.93,6.05,3.28,9.42,3.95,3.46.69,7,.88,10.51.55,3.34-.26,6.62-1.06,9.7-2.36,2.87-1.3,5.55-2.98,7.97-5,2.66-2.15,5.03-4.63,7.04-7.39,1.96-2.65,3.34-5.68,4.06-8.89.71-3.19.36-6.52-.99-9.49-2.17-4.97-5.47-8.08-9.9-9.34-5-1.31-10.19-1.81-15.35-1.48-5.79.27-11.95.78-18.47,1.52-6.38.75-12.83.7-19.2-.15-6.31-.85-12.33-3.13-17.61-6.68-5.46-3.61-10.02-9.6-13.67-17.97-2.54-5.72-3.44-12.04-2.59-18.25.83-6.26,2.82-12.31,5.87-17.85,3.09-5.65,7.1-10.75,11.86-15.09,4.55-4.26,9.78-7.72,15.48-10.25,2.67-1.14,5.41-2.1,8.2-2.88,3.12-.89,6.31-1.54,9.54-1.94,3.15-.4,6.33-.46,9.49-.17,2.88.23,5.69,1.03,8.26,2.35l-3.42-7.85,4.7-2.05,16.42,37.66-8.23,3.59c-1.15-2.69-3.16-4.94-5.7-6.39-2.67-1.53-5.58-2.59-8.6-3.14-3.12-.58-6.31-.68-9.47-.31-2.86.29-5.65,1-8.3,2.1-2.66,1.21-5.17,2.74-7.47,4.54-2.57,1.94-4.82,4.26-6.68,6.88-1.78,2.49-3.09,5.28-3.88,8.23-.76,2.89-.5,5.95.74,8.66,2.17,4.97,5.5,8.07,10,9.3,4.98,1.27,10.14,1.7,15.26,1.29,5.67-.37,11.77-1.01,18.3-1.91,6.32-.9,12.74-.95,19.07-.15,6.25.83,12.24,3.04,17.53,6.48,5.5,3.52,10.08,9.46,13.72,17.83,2.79,6.19,3.96,13,3.38,19.77l.02.03h0Z"/>
    </g>
    <rect class="cls-5" x="283.36" y="319.12" width="51.9" height=".75" transform="translate(-28.34 30.11) rotate(-5.33)"/>
    <rect class="cls-5" x="141.69" y="334.05" width="51.9" height=".75" transform="translate(-68.23 44.07) rotate(-12.46)"/>
    <rect class="cls-5" x="160.64" y="522.46" width="51.9" height=".75" transform="translate(-54.81 22.94) rotate(-6.14)"/>
    <rect class="cls-5" x="300.79" y="496.9" width=".75" height="51.9" transform="translate(-242.75 784.06) rotate(-85.71)"/>
    <g>
      <path class="cls-6" d="m545.77,439.61c-11.24-4.84-22.11-9.35-32.62-13.57l-29.98,103.49h0l.05.02,56.27,16.3,36.73-126.77c-9.63,6.83-19.77,13.66-30.44,20.53h0Z"/>
      <polygon class="cls-1" points="529.69 341.89 529.72 341.9 529.88 341.18 580.51 352.51 580.51 352.49 529.87 341.16 529.69 341.89"/>
      <polygon class="cls-1" points="703.35 375.23 702.34 379.75 651.69 368.41 651.53 369.15 651.54 369.15 651.7 368.44 702.33 379.76 702.34 379.75 703.35 375.23 720.33 344.69 720.33 344.69 703.35 375.23"/>
      <polygon class="cls-1" points="598.51 317.43 523.37 300.63 524.3 335.19 581.52 347.99 598.51 317.43"/>
      <polygon class="cls-1" points="702.17 380.5 698.58 396.56 698.58 396.56 702.17 380.5 702.17 380.5"/>
      <polygon class="cls-1" points="521.34 348.44 507.68 409.47 507.69 409.47 521.34 348.44 521.34 348.44"/>
      <polygon class="cls-1" points="485 525.76 514.98 422.27 514.98 422.27 485 525.76"/>
      <path class="cls-1" d="m501.79,319.51l.31,7.01,11.02,14.91,9.43,1.57,1.74-7.82-.93-34.55,75.13,16.8-16.99,30.55-1,4.51v.02h.01l-.16.73h-.01l-10.15,45.38c2.98-2.4,5.9-4.8,8.77-7.19,13.44,5.62,27.47,11.7,42.05,18.27,5.43-4.77,10.62-9.54,15.58-14.3l-2.73-9.51,9.13-24.02,3.09-1.47-.88-32.53,25.91,5.8h0l-166.72-37.31.44.39-3.03,22.75h-.01Z"/>
      <path class="cls-1" d="m633.65,461.3h-7.29l-14.8,8.79,10.59-10.7,14.07-6.94,6.94-23.98,1.95-9.59-.59-2.68c-5.24,4.45-10.72,8.88-16.43,13.31-14.15-7.46-27.77-14.39-40.84-20.84-3.01,2.21-6.08,4.42-9.2,6.63l-36.73,126.77.05.02-1.19,34.15,46.16,13.38,18.63-29.1-.05-.02,28.74-99.2h-.01Z"/>
      <path class="cls-1" d="m507.68,409.47l13.65-61.03-10.93-3.55-14.81-21,3.71-24.27-4.06-5.29-12.13-2.72c-3.25,1.49-6.5,2.99-9.74,4.5l-.2.36c7.59,13.17,15.46,26.18,23.59,39.02-10.02,4.89-19.99,9.94-29.9,15.12.33.14.66.28.99.43-3.6,2.13-7.19,4.27-10.77,6.45-.75,0-1.51.03-2.26.09,8.46,12.85,17.19,25.52,26.15,38.02-13.58,7.59-27.04,15.44-40.36,23.58,4.61,6.2,9.29,12.36,14.03,18.47,15.8-10.46,30.76-20.73,44.86-30.86,2.7.88,5.43,1.77,8.18,2.69h0Z"/>
      <path class="cls-1" d="m514.98,422.27c-2.69-1.08-5.36-2.15-8-3.19-14.7,9.23-30.27,18.56-46.68,28.03,4.56,6.7,9.18,13.36,13.87,19.97-13.42,7.39-26.7,15.04-39.84,22.97,9.55,12.99,19.35,25.79,29.38,38.38-9.2,5.78-18.32,11.7-27.37,17.75l30.08,8.72,18.63-29.1h-.05v-.03h0l29.98-103.49h0Z"/>
      <polygon class="cls-1" points="638.24 386.21 639.98 389.99 644.78 368.48 644.44 368.73 638.24 386.21"/>
      <path class="cls-1" d="m540.57,154.06h-.02.03s-.01,0-.01,0Z"/>
      <path class="cls-6" d="m529.71,341.91h0l-.02-.02.17-.74,50.65,11.33,1-4.51-57.22-12.8-1.74,7.82,4.17.69,13.13,14.46,11.13,9.98,3.2,10.34-4.69,7.98.08,17.21-3.87-14.55,1.34-18.21-24.61-22.11-1.1-.35-13.65,61.03c10.75,3.56,21.88,7.39,33.4,11.52,10.22-7.52,19.93-14.97,29.11-22.38l10.15-45.38-50.63-11.33v.02Z"/>
      <polygon class="cls-5" points="580.51 352.51 529.88 341.18 529.72 341.9 580.35 353.22 580.51 352.51"/>
      <polygon class="cls-5" points="580.35 353.22 580.35 353.24 580.36 353.24 580.53 352.51 580.51 352.51 580.35 353.23 580.51 352.51 580.51 352.51 580.35 353.22"/>
      <polygon class="cls-5" points="529.72 341.9 529.71 341.91 580.35 353.24 580.35 353.22 529.72 341.9"/>
      <path class="cls-6" d="m659.11,403.22c-3.32,3.11-6.76,6.2-10.3,9.29l2.88,7.49-5.81,18.65-2.96,14.64-7.29,8.01h-1.97l-28.74,99.2.05.02,56.27,16.3,45.09-155.62c-2.06,2.27-4.19,4.53-6.37,6.78-14.11-8.79-27.73-17.02-40.83-24.74l-.02-.02Z"/>
      <path class="cls-6" d="m651.54,369.17v-.02h-.01l.16-.74,50.65,11.33,1.02-4.52-51.54-11.53-1.74.86-5.3,3.92-4.81,21.51.67,1.47c3.35-3.3,6.59-6.6,9.71-9.91,13.55,6.89,27.65,14.27,42.28,22.17,2.04-2.38,4.02-4.77,5.94-7.16l3.59-16.06-50.63-11.33h0Z"/>
      <polygon class="cls-6" points="646.08 360.4 646.65 360.15 648.32 352.69 657.88 354.83 665.18 351.38 671.11 333.67 645.2 327.88 646.08 360.4"/>
      <path class="cls-6" d="m703.35,375.23l16.98-30.54-41.93-9.38,41.93,9.38h0l-41.93-9.38c-2,1.61-4,3.23-5.99,4.84l-1.76,14.2h0l-4.63,2.3,39.53,8.84-2.18,9.74h-.02Z"/>
      <polygon class="cls-6" points="720.33 344.69 720.33 344.69 678.4 335.31 720.33 344.69"/>
      <polygon class="cls-6" points="646.65 360.15 657.88 354.83 648.32 352.69 646.65 360.15"/>
      <polygon class="cls-6" points="703.35 375.23 705.53 365.49 666.01 356.65 651.81 363.7 703.35 375.23"/>
      <polygon class="cls-5" points="651.54 369.15 702.18 380.47 702.17 380.5 702.17 380.5 702.18 380.48 702.33 379.76 651.7 368.44 651.54 369.15"/>
      <polygon class="cls-5" points="702.17 380.5 702.19 380.5 702.35 379.77 702.33 379.76 702.18 380.48 702.17 380.5"/>
      <polygon class="cls-5" points="651.54 369.15 651.54 369.17 702.17 380.5 702.18 380.47 651.54 369.15"/>
      <polygon class="cls-7" points="521.34 348.44 521.34 348.44 522.56 343 513.12 341.43 502.1 326.52 501.79 319.51 504.83 296.76 504.39 296.37 495.26 294.33 499.32 299.62 495.6 323.89 510.4 344.89 521.34 348.43 521.34 348.44"/>
      <polygon class="cls-7" points="521.34 348.43 510.4 344.89 521.34 348.44 521.34 348.43"/>
      <polygon class="cls-7" points="547.04 370.91 545.7 389.12 549.57 403.67 549.49 386.45 554.18 378.47 550.98 368.14 539.86 358.16 526.73 343.7 522.56 343 521.34 348.44 522.44 348.79 547.04 370.91"/>
      <path class="cls-7" d="m628.05,401.81l.9,2.59-.81,9.75,2.53-15.18c-.87.95-1.74,1.89-2.62,2.84h0Z"/>
      <path class="cls-7" d="m646.08,360.4l-3.09,1.47-9.13,24.02,2.73,9.51c.93-.9,1.85-1.79,2.77-2.69l.61-2.72-1.73-3.78,6.2-17.47.34-.25,1.36-6.05-.06-2.03h0Z"/>
      <polygon class="cls-7" points="610.88 447.31 601.62 459.17 615.29 448.72 622.53 447.87 624.05 438.78 610.88 447.31"/>
      <polygon class="cls-7" points="644.78 368.48 650.08 364.56 651.81 363.7 646.14 362.43 644.78 368.48"/>
      <path class="cls-7" d="m687.78,428.72l-1.94,23.23-2.15,1.4-1.52,9.09,1.96-.23,6.31-8.8,1.23-14.88,3.59-19.2-3.73-7.11c-.4.44-.8.88-1.21,1.33l-2.53,15.18h0Z"/>
      <path class="cls-7" d="m631.88,397.64l-.75-1.43-.46,2.75c.4-.44.81-.88,1.21-1.33h0Z"/>
      <polygon class="cls-7" points="646.65 360.15 646.08 360.4 646.14 362.43 646.65 360.15"/>
      <polygon class="cls-7" points="646.14 362.43 651.81 363.7 666.01 356.65 657.88 354.83 646.65 360.15 646.14 362.43"/>
    </g>
    <path class="cls-6" d="m684.6,578.36l-3.04,4.13,8.1,4.46c.44-.16.89-.26,1.34-.32,1.65-3.17,3.31-6.31,4.99-9.41-4.02-3.67-8.15-3.26-11.39,1.14h0Z"/>
    <path class="cls-6" d="m409.69,563.01c2.03-5.3,4.06-10.55,6.1-15.74-5.05-6.22-10.19-5.59-14.18,1.76l-3.74,6.9,10.14,7.6c.55-.26,1.1-.43,1.67-.52h0Z"/>
    <path class="cls-6" d="m419.85,374.55c-2.35,1.39-4.7,2.78-7.04,4.19l12.36,1.36-5.32-5.54h0Z"/>
    <path class="cls-6" d="m407.56,471.24c-2.35,1.39-4.7,2.78-7.04,4.19l12.36,1.36-5.32-5.54h0Z"/>
    <path class="cls-6" d="m456.51,499.84c-2.35,1.39-4.7,2.78-7.04,4.19l12.36,1.36-5.32-5.54h0Z"/>
    <rect class="cls-5" x="630.01" y="532.96" width=".75" height="51.91" transform="translate(-24.45 1088.99) rotate(-80.55)"/>
    <polygon class="cls-1" points="136.62 562.51 136.62 562.51 136.62 562.51 139.56 589.83 139.56 589.83 136.62 562.51"/>
    <path class="cls-1" d="m219.03,519.53h.02s-5.95-55.2-5.95-55.2c0,0-.01,0-.02,0l5.95,55.21Z"/>
    <path class="cls-1" d="m192.87,328.57l-50.65,11.34.09.36.09.37,50.64-11.34,27.95,124.89s.01,0,.02,0l-27.95-124.9-.09-.36,2.34-34.87h0s-2.34,34.87-2.34,34.87l-.09-.37Z"/>
    <polygon class="cls-1" points="230.97 551.58 219.1 519.53 219.08 519.53 230.95 551.59 230.97 551.58"/>
    <path class="cls-1" d="m169.56,416.5c1.48.32,2.96.66,4.43,1l-.56-5.26-14.73-3.14c.18,1.8.38,3.59.55,5.39,3.37.59,6.73,1.25,10.08,1.97l.21-.11v.15Z"/>
    <polygon class="cls-1" points="136.54 561.76 136.55 561.83 136.54 561.76 136.54 561.76"/>
    <path class="cls-1" d="m130.19,372.76l-8.33-12.46-12.08-11.12-15.44-4.22-5.59-19.79,1.48,23.95,8.86.19,4.57,3.35,4.97-1.28,10.68,11.2,6.72,13.54,4.15,6.21c3.48-.28,6.96-.51,10.45-.66l-10.44-8.92Z"/>
    <path class="cls-1" d="m160.74,525.82l-13.8-127.92,4.78,7.03,3.98,12.09,10.45,5.49,6.23-3.22c-3.35-.68-6.72-1.3-10.1-1.85-.2-1.8-.41-3.59-.62-5.38l-.41-.08-15.36-23.65h0s-.52-.8-.52-.8l-4-4.29c-3.48-.24-6.97-.41-10.46-.52l2.79,5.39,8.69,3.13,4.54,6.66,13.8,127.92h.05s0,0,0,0h-.05Z"/>
    <path class="cls-1" d="m170.52,428.31l.79,13.13,13.61,6.64-8.55-8.1-2.37-22.48c-1.48-.34-2.95-.68-4.43-1l.96,11.81Z"/>
    <path class="cls-1" d="m167.09,590.1h0s0-.01,0-.01l-6.31-26.74h0s0,0,0,0h0s-.09-.36-.09-.36h0s-.07-.3-.07-.3l-.02-.07h0s17.69-4.18,17.69-4.18l1.92-34.5h-.05s-29.56-125.21-29.56-125.21l-5.33-6.04-9.01-2.03-3.43-5.01c-6.31.59-12.62,1.38-18.9,2.4-3.5-10.01-7.11-19.96-10.84-29.85,3.72,9.88,7.34,19.83,10.84,29.85,6.28-1.02,12.58-1.81,18.9-2.4l-4.22-6.16-6.88-13.46-10.81-11.08-4.95,1.33-4.61-3.3-8.86-.09-1.76-23.93,5.82,19.72,15.49,4.04,12.21,10.98,8.47,12.37,10.55,8.8c1.34-.07,2.68-.13,4.02-.18l-9.38-39.69-15.92-30.68-18.95,4.47-6.48-27.47-10.06,2.38c-10.68,2.52-17.71-9.3-12.61-17.36.73-1.15,1.7-2.22,2.96-3.17l109.63-82.78c-9.27-4.41-18.49-8.88-27.61-13.43.76-12.92,1.72-25.82,2.85-38.7L0,176.4l101.39,429.59,65.78-15.53-.09-.36Z"/>
    <path class="cls-1" d="m143.22,385.18l-.46-4.78c-1.33-.13-2.67-.25-4-.36l3.95,4.33.51.81Z"/>
    <path class="cls-1" d="m196.93,296.62h0s-1.94,34.89-1.94,34.89l.09.36,29.4,124.56c11,2.96,21.84,6.64,32.45,11.06.61,11.21,1.1,22.4,1.47,33.59-.37-11.19-.86-22.38-1.47-33.59-10.6-4.41-21.44-8.1-32.45-11.06l12.75,54.03h.03s0,0,0,0h.02s15.75,30.33,15.75,30.33l46.76-11.04h0s.01,0,.01,0l1.92-34.5h-.05s-34.69-146.94-34.69-146.94l-7-6.69-1.03-24.53-3.18-2.8.16,8.41-4.53,28.8,9.25,12.41-16.1,22.78,1.08,11.73-5.85-13.98,8.07-10.39,7.16-9.62-7.01-1.84-4.11-11.07,5.12-11.65,2.22-16.41-4.37-8.14,1.89-7.22-8.47-7.46c.11-1.26.22-2.52.33-3.78-3.54-1.29-7.08-2.57-10.6-3.89-.08-1.37-.14-2.75-.22-4.12l-33.31,7.86.46-.11h0Z"/>
    <polygon class="cls-5" points="160.75 525.44 160.79 525.82 212.39 520.25 212.36 519.88 160.75 525.44"/>
    <polygon class="cls-5" points="160.83 526.19 212.44 520.62 212.39 520.25 160.79 525.82 160.83 526.19"/>
    <polygon class="cls-5" points="230.97 551.58 230.95 551.59 231.08 551.94 166.6 558.9 278.65 546.81 278.73 546.43 230.97 551.59 230.97 551.58"/>
    <polygon class="cls-5" points="136.54 561.76 136.55 561.83 136.58 562.14 154.54 560.2 154.61 559.81 136.54 561.76"/>
    <rect class="cls-5" x="136.49" y="560.79" width="18.17" height="0" transform="translate(-59.33 18.86) rotate(-6.16)"/>
    <polygon class="cls-5" points="136.58 562.14 136.58 562.14 136.55 561.83 136.58 562.14"/>
    <polygon class="cls-5" points="136.58 562.14 136.57 562.14 136.58 562.14 136.58 562.14"/>
    <rect class="cls-5" x="230.83" y="549.01" width="48.04" height="0" transform="translate(-173.91 121.78) rotate(-20.2)"/>
    <polygon class="cls-5" points="136.62 562.51 136.62 562.51 136.57 562.14 136.62 562.51"/>
    <polygon class="cls-5" points="230.95 551.59 154.61 559.81 154.61 559.81 154.61 559.81 154.54 560.2 166.6 558.9 231.08 551.94 230.95 551.59"/>
    <rect class="cls-5" x="154.61" y="559.81" height="0" transform="translate(-6.49 1.83) rotate(-.67)"/>
    <polygon class="cls-5" points="154.54 560.2 166.6 558.9 154.54 560.2 154.54 560.2"/>
    <path class="cls-5" d="m139.56,589.83l.04.37h0s255.49-27.55,255.49-27.55c-.2-.11-.41-.21-.61-.31h0s0,0,0,0l-254.91,27.49Z"/>
    <path class="cls-6" d="m180.25,414.49c9.66,1.02,19.27,2.55,28.78,4.6,1.58,11.01,3.04,22.04,4.37,33.07,2.54.63,5.07,1.32,7.59,2.03l-27.95-124.89-50.64,11.34-.09-.37-6.56,1.47h0s8.91,39.8,8.91,39.8c4.36-.13,8.71-.16,13.06-.08,2.2,8.83,4.29,17.7,6.32,26.58l15.01,1.29,1.2,5.15Z"/>
    <path class="cls-6" d="m142.76,380.4l.46,4.78h0s0,0,0,0l15.08,23.83.41.09c-.91-9.07-1.89-18.13-2.98-27.16-4.31-.62-8.63-1.12-12.97-1.54Z"/>
    <path class="cls-6" d="m205.77,461.46c-.08-11.12-.29-22.24-.62-33.35-9.22-3.11-18.6-5.71-28.08-7.81l2.63,22.45,8.64,8-13.69-6.48-.94-13.12-1.09-11.8c-.07-.02-.15-.03-.22-.04l-6.23,3.22-10.45-5.49-3.98-12.09-4.78-7.03,13.8,127.92h.05s-.04-.38-.04-.38l51.61-5.56.03.37,6.64-.72-5.95-55.21c-2.43-.99-4.86-1.95-7.31-2.87Z"/>
    <path class="cls-6" d="m169.55,416.35l-.21.11c.07.02.15.03.22.05v-.15Z"/>
    <polygon class="cls-6" points="143.22 385.18 142.76 380.4 142.76 380.4 143.22 385.18 143.22 385.18"/>
    <polygon class="cls-6" points="135.74 341.74 135.74 341.74 135.73 341.74 144.65 381.54 144.65 381.54 135.74 341.74"/>
    <polygon class="cls-6" points="120.17 310.88 120.17 310.88 194.84 294.17 120.17 310.88"/>
    <polygon class="cls-6" points="190.77 319.19 192.87 328.57 192.96 328.94 195.3 294.07 120.18 310.89 135.73 341.71 133.56 332 190.77 319.19"/>
    <polygon class="cls-6" points="135.73 341.71 120.18 310.89 195.3 294.07 195.3 294.07 194.84 294.17 120.17 310.88 135.73 341.74 135.73 341.71"/>
    <polygon class="cls-6" points="142.3 340.27 142.22 339.91 192.87 328.57 190.77 319.19 133.56 332 135.73 341.71 135.74 341.74 142.3 340.27"/>
    <polygon class="cls-6" points="135.73 341.71 135.73 341.74 135.74 341.74 135.73 341.71"/>
    <polygon class="cls-6" points="154.61 559.81 230.95 551.59 219.08 519.53 219.05 519.53 219.05 519.53 219.03 519.53 212.39 520.25 212.44 520.62 160.83 526.19 160.79 525.82 160.79 525.82 160.79 525.82 154.61 559.81"/>
    <rect class="cls-6" x="219.05" y="519.53" width=".03" height="0" transform="translate(-6.02 2.58) rotate(-.67)"/>
    <rect class="cls-6" x="157.7" y="525.54" height="34.55"/>
    <path class="cls-6" d="m95,287.58l6.16,27.55,127.07-28.44c-.4-9.57-.7-19.15-.89-28.73l-132.34,29.62h0Z"/>
    <polygon class="cls-6" points="139.56 589.83 139.56 589.83 139.56 589.83 139.56 589.83"/>
    <path class="cls-6" d="m139.56,589.83l254.91-27.49c-9.97-5.01-19.89-10.16-29.73-15.44,2.12-3.24,4.27-6.47,6.42-9.69l-234.54,25.29,2.95,27.32Z"/>
    <polygon class="cls-6" points="139.56 589.83 394.47 562.34 394.47 562.34 139.56 589.83 139.56 589.83"/>
    <path class="cls-4" d="m395.7,562.96l-256.06,27.61h0s-.04-.37-.04-.37l-67.2,7.25,3.12,28.85,319.14-34.42c4.51-7.59,9.1-15.13,13.81-22.59-4.26-2.08-8.52-4.2-12.76-6.33Z"/>
    <path class="cls-4" d="m72.53,272.33c-5.21,8,1.7,19.9,12.41,17.51h0s0,0,0,0h0s0,0,0,0l10.08-2.26h0s132.35-29.63,132.35-29.63c0,0,0,0,0,0h0c-.06-3-.11-5.98-.15-8.98-7.71-3.23-15.36-6.54-22.97-9.87l-28.33,6.34c-.24.05-.48.1-.71.13-7.2.97-11.26-8.5-5.16-12.99h0s0,0,0,0l21.69-15.99c.22-8.56.52-17.14.9-25.69-2.19-1.06-4.36-2.15-6.54-3.21l-110.58,81.51c-1.26.93-2.25,1.99-2.99,3.14Z"/>
    <polygon class="cls-4" points="84.92 289.84 84.92 289.84 84.92 289.84 84.92 289.84"/>
    <polygon class="cls-4" points="95 287.58 95 287.58 95.01 287.58 227.35 257.96 227.35 257.95 95 287.58"/>
    <path class="cls-6" d="m175.2,245.57c.23-.03.46-.07.7-.13l28.33-6.34c-4.29-1.87-8.57-3.75-12.83-5.65.07-5.62.19-11.24.33-16.85l-21.69,15.99h0c-6.08,4.49-2.03,13.94,5.16,12.98Z"/>
    <path class="cls-6" d="m175.2,245.57c-7.19.96-11.24-8.49-5.16-12.98h0c-6.1,4.49-2.04,13.95,5.16,12.98Z"/>
    <path class="cls-5" d="m136.62,562.51l234.54-25.29c.09-.14.19-.27.28-.4l-16.23,1.75h0s-76.55,8.26-76.55,8.26l-142.08,15.32.04.37h0Z"/>
    <rect class="cls-5" x="136.41" y="562.32" width=".37" height="0" transform="translate(-60.72 18.33) rotate(-6.28)"/>
    <polygon class="cls-5" points="136.57 562.14 136.62 562.51 136.58 562.14 136.57 562.14"/>
    <path class="cls-5" d="m139.64,590.58l256.06-27.61c-.2-.11-.41-.21-.61-.31l-255.49,27.56.04.37Z"/>
    <rect class="cls-5" x="141.74" y="334.4" width="51.9" height=".75" transform="translate(-68.26 44.04) rotate(-12.45)"/>
    <rect class="cls-5" x="160.66" y="522.46" width="51.9" height=".75" transform="translate(-53.59 22.35) rotate(-6)"/>
    <path class="cls-6" d="m136.02,452.16l-3.04,4.13,8.1,4.46c.44-.16.89-.26,1.34-.32,1.65-3.17,3.31-6.31,4.99-9.41-4.02-3.67-8.15-3.26-11.39,1.14h0Z"/>
    <path class="cls-6" d="m118.21,590.92c2.5-5.3,5.01-10.55,7.53-15.74-6.23-6.22-12.57-5.59-17.49,1.76l-4.61,6.9,12.51,7.6c.68-.26,1.36-.43,2.06-.52h0Z"/>
    <path class="cls-6" d="m154.57,546.47c-6.61-1.95-13.71-1.12-19.71,2.35l-5.93,3.42,14.21,2.53c.07-.01.15-.03.22-.04-.11-.14-.23-.28-.35-.41,3.84-2.64,7.69-5.25,11.55-7.85h.01Z"/>
    <path class="cls-6" d="m241.66,541.94l-3.04,4.13,8.1,4.46c.44-.16.89-.26,1.34-.32,1.65-3.17,3.31-6.31,4.99-9.41-4.02-3.67-8.15-3.26-11.39,1.14h0Z"/>
    <path class="cls-6" d="m480.54,454.89c2.5-5.3,5.01-10.55,7.53-15.74-6.23-6.22-12.57-5.59-17.49,1.76l-4.61,6.9,12.51,7.6c.68-.26,1.36-.43,2.06-.52h0Z"/>
    <path class="cls-6" d="m280.47,400.08c-6.61-1.95-13.71-1.12-19.71,2.35l-5.93,3.42,14.21,2.53c.07-.01.15-.03.22-.04-.11-.14-.23-.28-.35-.41,3.84-2.64,7.69-5.25,11.55-7.85h.01Z"/>
    <path class="cls-6" d="m699.44,614.25c-2.35,1.39-4.7,2.78-7.04,4.19l12.36,1.36-5.32-5.54h0Z"/>
    <rect class="cls-5" x="506.86" y="512.48" width=".75" height="51.91" transform="translate(-107.17 950.38) rotate(-80.55)"/>
  </g>
</svg>