<?xml version="1.0" encoding="UTF-8"?>
<svg id="Layer_2" data-name="Layer 2" xmlns="http://www.w3.org/2000/svg" viewBox="0 0 875.92 570.89">
  <defs>
    <style>
      .cls-1 {
        fill: none;
      }

      .cls-1, .cls-2, .cls-3, .cls-4, .cls-5, .cls-6, .cls-7 {
        stroke-width: 0px;
      }

      .cls-3 {
        fill: #756746;
      }

      .cls-4 {
        fill: #5c5c5c;
      }

      .cls-5 {
        fill: #2c2c7c;
      }

      .cls-6 {
        fill: #d0d8d7;
      }

      .cls-7 {
        fill: #fff;
      }
    </style>
  </defs>
  <g id="Layer_2-2" data-name="Layer 2">
    <polygon class="cls-1" points="635.92 484.23 635.92 484.24 635.92 484.23 589.52 476.51 635.92 484.23"/>
    <path class="cls-5" d="m501.31,107.17l1.1.29-.16-.37c-.31.02-.62.04-.94.07h0Z"/>
    <path class="cls-1" d="m305.68,201.28l56.07-22.95.69,6.76c1.79-3.09,3.6-6.18,5.42-9.27l-62.17,25.45h-.01Z"/>
    <path class="cls-1" d="m301.73,219.35c.2.67.4,1.33.61,1.99l.6-1.58c-.41-.14-.81-.27-1.22-.41h.01Z"/>
    <path class="cls-1" d="m281.59,208.34c.1,1.37.19,2.74.29,4.11,3.55,1.26,7.11,2.48,10.67,3.71.25-3.6.5-7.2.75-10.8l-11.72,2.98h0Z"/>
    <polygon class="cls-1" points="302.79 202.45 292.33 206.73 292.33 206.74 302.79 202.46 302.79 202.45"/>
    <path class="cls-1" d="m300.28,220.74l-3.89-5.28c.85,1.82,1.68,3.63,2.54,5.44.43.09.84.15,1.26.24l.09-.4h0Z"/>
    <path class="cls-6" d="m328.24,264.24l9.78,6.45,13.56-2.55,17.3,9.07,2.5,1c-.87-2.76-1.74-5.53-2.58-8.31-13.59-1.74-27.11-3.63-40.54-5.67h-.02s0,0,0,0Z"/>
    <path class="cls-6" d="m319.28,237.73l-.29-.7,1.67-.68c-.38-1.5-.76-3.02-1.14-4.52l-4.21,1.72,4.53,20.45,2.69,6.48,5.52,3.64c-2.51-8.99-4.9-18-7.21-27.03l-1.56.64h0Z"/>
    <path class="cls-6" d="m380.04,313.69l-6.34-3.64c1.45,8.45,2.98,16.9,4.61,25.32,2.29.57,4.6,1.1,6.91,1.66l-2.68-5.25-2.5-18.09h0Z"/>
    <path class="cls-6" d="m303.21,208.1l-.42-5.65-10.47,4.28,4.07,8.73,3.89,5.28,2.93-12.64h0Z"/>
    <path class="cls-6" d="m306.09,228.2l2.41.93-1.26-3.07,6.08-2.49c-2.7-.49-5.41-.99-8.1-1.5l-.08.79.95,5.33h0v.02h0Z"/>
    <path class="cls-6" d="m432.04,190.61l.08-.4c-.09.08-.17.16-.26.24.06.05.12.11.18.16h0Z"/>
    <path class="cls-6" d="m308.5,229.13l6.37,2.45.44,1.97,4.21-1.72c-.62-2.49-1.24-4.96-1.85-7.45-1.45-.26-2.9-.54-4.35-.81l-6.08,2.49,1.26,3.07h0Z"/>
    <path class="cls-5" d="m319.28,237.73l1.56-.64c-.06-.24-.13-.48-.19-.74l-1.67.68.29.7h.01Z"/>
    <path class="cls-5" d="m320.85,237.09l46.47-19.02-.29-.7-46.38,18.98c.06.24.13.48.19.74h.01Z"/>
    <path class="cls-6" d="m287.87,197.21c1.48,3.18,2.96,6.35,4.45,9.53l10.47-4.28-.72-9.78-4.65-2.16-1.4-5.49-6.72-5.78,1.81-2.51-19.33,7.91c1.79,9.4,3.69,18.79,5.7,28.18l11.19-4.58c-.27-3.68-.51-7.36-.78-11.04h-.02Z"/>
    <path class="cls-4" d="m308.05,30.31s.02,0,.03-.03c0,0-.02,0-.03.03l-88.71,91.97h0l88.71-91.97Z"/>
    <polygon class="cls-4" points="279.87 179.66 279.87 179.66 300.12 174.51 300.12 174.51 279.87 179.66"/>
    <polygon class="cls-4" points="296.99 174.32 379.75 140.45 379.75 140.45 296.99 174.32 296.99 174.32"/>
    <path class="cls-2" d="m115.75,204.57h0c-1.1,1.11-1.92,2.31-2.48,3.56.55-1.24,1.38-2.44,2.48-3.56Z"/>
    <polygon class="cls-2" points="300.12 174.51 300.12 174.51 279.87 179.66 279.87 179.66 300.12 174.51"/>
    <polygon class="cls-2" points="296.99 174.32 379.75 140.45 379.75 140.44 296.99 174.32 296.99 174.32"/>
    <g>
      <path class="cls-6" d="m328.04,264.11l.18.13c13.43,2.03,26.95,3.92,40.54,5.67.86,2.77,1.72,5.54,2.58,8.31l11.38,4.55,6.56,8.62-1.66,9.11,3.3,8.89c4.77.46,9.53.92,14.31,1.34l-37.91-92.63-46.47,19.02c2.3,9.03,4.7,18.04,7.21,27.03h0v-.04h-.02Z"/>
      <path class="cls-6" d="m319.52,231.83c.38,1.5.75,3.02,1.14,4.52l46.38-18.98-1.75-4.29h0l-45.76,18.74h-.02,0Z"/>
      <path class="cls-6" d="m305.68,201.28l.93,6.69-1.4,14.11c2.7.51,5.4,1,8.1,1.5l48.18-19.71,3.77,9.23-2.8-27.59c-.07-.03-.15-.07-.21-.1.06-.1.11-.2.18-.3l-.69-6.76-56.07,22.95h0v-.02Z"/>
      <path class="cls-6" d="m319.52,231.83l45.76-18.73h0l-3.78-9.24-48.18,19.71c1.44.27,2.9.55,4.35.81.6,2.48,1.22,4.97,1.85,7.45h0Z"/>
      <path class="cls-6" d="m295.1,178.63l9.25,13.07,1.34,9.57,62.17-25.45c6.29-10.66,12.73-21.22,19.29-31.67-2.48-1.22-4.94-2.46-7.41-3.68l-82.77,33.87-1.89,4.31h.02s0-.02,0-.02Z"/>
      <path class="cls-4" d="m270.13,175.81c.54,2.94,1.1,5.88,1.65,8.83l19.33-7.91,12.24-16.93-6.36,14.53,82.76-33.87c-9.15-4.59-18.24-9.31-27.24-14.18l-106.68,43.66c8.06,2.01,16.15,3.99,24.3,5.88h-.01.01Z"/>
      <path class="cls-4" d="m308.05,30.31l-88.71,91.97c2.33.69,4.65,1.39,6.99,2.08,1.05,8.5,2.19,17,3.41,25.47l89.43-92.7-.14.03c-15.88-.42-.47-36.72-10.21-27.59-.24.22-.48.46-.75.74,0,0-.02,0-.03.03h0v-.03Z"/>
      <path class="cls-6" d="m324.06,70.57c-1.8,3.5-2.88,7.35-3.15,11.29-.56,7.93,2.62,15.67,8.57,20.93,2.96,2.62,6.42,4.59,10.16,5.84,3.94,1.31,8.11,1.9,12.27,1.73,1.45-.06,2.87-.2,4.28-.43,6.06-9.06,12.23-18.05,18.5-26.93-12.77-7.29-25.37-14.85-37.79-22.7,1.47-2,2.94-3.98,4.42-5.98h0c-3.55,1.63-6.81,3.79-9.7,6.41-3.08,2.79-5.64,6.13-7.54,9.84h-.02Z"/>
      <path class="cls-6" d="m232.23,166.5c4.52,1.17,9.06,2.3,13.6,3.42l106.68-43.66c-1.76-.95-3.51-1.88-5.26-2.84,2.77-4.23,5.56-8.44,8.36-12.64-1.21.17-2.44.28-3.67.32-4.25.17-8.5-.43-12.53-1.77-3.85-1.26-7.39-3.31-10.43-5.98-6.13-5.42-9.38-13.39-8.83-21.56.28-4.04,1.38-7.98,3.24-11.58,1.93-3.79,4.54-7.19,7.7-10.04,2.43-2.19,5.12-4.06,7.97-5.58l-19.9,2.5-89.43,92.7c.8,5.56,1.63,11.12,2.49,16.67v.02h0v.02Z"/>
    </g>
    <path class="cls-5" d="m322.91,71.67c-1.58,3.72-2.39,7.74-2.39,11.78.03,8.18,3.86,15.89,10.36,20.85,3.22,2.45,6.9,4.23,10.84,5.22,4.12,1.04,8.4,1.34,12.63.86,1.22-.14,2.44-.34,3.64-.58.17-.3.34-.6.51-.89-1.38.32-2.8.58-4.24.74-4.13.48-8.33.2-12.36-.83-3.82-.97-7.42-2.69-10.56-5.09-6.32-4.82-10.03-12.31-10.06-20.26-.01-3.95.79-7.86,2.34-11.49,1.61-3.84,3.92-7.35,6.8-10.36,2.69-2.83,5.8-5.22,9.21-7.1l-2.2.45c-2.74,1.72-5.28,3.77-7.55,6.13-2.94,3.07-5.3,6.66-6.95,10.58h-.02Z"/>
    <g>
      <path class="cls-1" d="m385.73,247.98h0l.05.75h0l7.77,99.79c5.54,2.35,11.11,4.67,16.69,6.96.62,13.27,1.45,26.55,2.51,39.82-1.06-13.27-1.89-26.55-2.51-39.82-5.59-2.29-11.13-4.63-16.69-6.96l6.09,78.17h.05l10.91,32.38,16.69-1.3c6.34-8.85,12.79-17.61,19.37-26.25-13.82-8.25-27.49-16.77-41-25.58,9.5-12.05,19.25-23.9,29.2-35.53-13.12-8.85-26.07-17.97-38.85-27.36,10.35-11.68,20.91-23.14,31.67-34.38-12.38-9.42-24.58-19.08-36.57-29.02,11.15-11.26,22.5-22.29,34.05-33.08-11.54-9.88-22.88-20.02-34-30.37l-5.78,27.13.36,4.62h0v.03h0Z"/>
      <rect class="cls-5" x="341.55" y="433.8" width="51.9" height=".75" transform="translate(-32.58 29.82) rotate(-4.45)"/>
      <g>
        <path class="cls-6" d="m393.56,348.52c-4.43-1.87-8.81-3.76-13.21-5.65l.35,7.73-2.7-8.75c-2.17-.94-4.36-1.86-6.51-2.81-.17-8.59-.24-17.17-.24-25.75l-19.85-16.45-12.17-3.41-9.74-12.71,11.72,150.53h.05l58.4-4.56-6.09-78.17h0Z"/>
        <path class="cls-6" d="m399.69,426.69h-.05l-58.4,4.56-7.19,33.8,76.56-5.96-10.91-32.39h-.01Zm-58.04,9.9l-.05-.75,51.74-4.02.05.75-51.74,4.02h0Z"/>
        <path class="cls-5" d="m410.72,459.45l16.27-1.27c.09-.14.19-.26.29-.4l-16.69,1.3.12.36h.01Z"/>
      </g>
      <polygon class="cls-5" points="410.72 459.45 410.6 459.07 334.04 465.05 333.97 465.42 410.72 459.45"/>
    </g>
    <path class="cls-6" d="m588.15,349.19c4.63-3.45,9.28-6.88,13.95-10.27-9.6-3.14-20.08-2.11-28.89,2.82l-8.27,4.63,19.78,3.34c1.14-.22,2.28-.4,3.43-.52h0Z"/>
    <path class="cls-6" d="m508.26,316.94l-3.04,4.13,8.1,4.46c.44-.16.89-.26,1.34-.32,1.65-3.17,3.31-6.31,4.99-9.41-4.02-3.67-8.15-3.26-11.39,1.14h0Z"/>
    <path class="cls-6" d="m430.8,376.47c2.5-5.3,5.01-10.55,7.53-15.74-6.23-6.22-12.57-5.59-17.49,1.76l-4.61,6.9,12.51,7.6c.68-.26,1.36-.43,2.06-.52h0Z"/>
    <path class="cls-6" d="m538.07,354.03c-6.61-1.95-13.71-1.12-19.71,2.35l-5.93,3.42,14.21,2.53c.07-.01.15-.03.22-.04-.11-.14-.23-.28-.35-.41,3.84-2.64,7.69-5.25,11.55-7.85h.01Z"/>
    <path class="cls-6" d="m528.97,266.97l-3.04,4.13,8.1,4.46c.44-.16.89-.26,1.34-.32,1.65-3.17,3.31-6.31,4.99-9.41-4.02-3.67-8.15-3.26-11.39,1.14h0Z"/>
    <path class="cls-6" d="m467.26,376.89l-3.04,4.13,8.1,4.46c.44-.16.89-.26,1.34-.32,1.65-3.17,3.31-6.31,4.99-9.41-4.02-3.67-8.15-3.26-11.39,1.14h0Z"/>
    <path class="cls-6" d="m508.26,411.99l-3.04,4.13,8.1,4.46c.44-.16.89-.26,1.34-.32,1.65-3.17,3.31-6.31,4.99-9.41-4.02-3.67-8.15-3.26-11.39,1.14h0Z"/>
    <path class="cls-4" d="m613.72,78.65l-2.89-1.67c-2.99-1.73-6.11-3.15-9.31-4.31l-43.5,18.97c-1,3.63-.51,6.93,3.16,9.05l.13.05,9.04-2.85c9.64-3.04,20.1-1.9,28.86,3.12,7.08-3.19,14.18-6.32,21.3-9.38-2.3-4.31-4.55-8.64-6.79-12.98h0Z"/>
    <path class="cls-4" d="m833.29,231.28l-19.96-2.19h0l19.96,2.19c7.4.81,12.33-4.73,12.85-10.67-.51,5.95-5.44,11.49-12.85,10.67Z"/>
    <polygon class="cls-4" points="842.73 243.25 605.3 208.17 605.3 208.17 842.73 243.25 842.73 243.25"/>
    <path class="cls-2" d="m846.14,220.61c.35-4.07-1.37-8.33-5.78-10.88h0c4.41,2.55,6.13,6.81,5.78,10.88Z"/>
    <polygon class="cls-2" points="842.73 243.25 605.3 208.17 605.3 208.17 842.73 243.25 842.73 243.25"/>
    <path class="cls-6" d="m596.57,112.71c-4.01-1.98-8.34-3.24-12.78-3.71-.56-.06-1.12-.11-1.68-.15h0l21.36,8.34c-2.1-1.76-4.41-3.27-6.89-4.48h-.01,0Z"/>
    <path class="cls-6" d="m622.63,171.92c4.08-.83,7.97-2.39,11.5-4.61,3.34-2.1,6.23-4.85,8.48-8.1,4.52-6.55,5.74-14.82,3.31-22.38-1.21-3.76-3.17-7.23-5.77-10.2-.92-1.07-1.91-2.06-2.96-3.01l-21.03-9.13c-2.28.97-4.56,1.92-6.84,2.9,6.69,13.09,13.66,26.03,20.93,38.8-9.92,4.44-19.81,9.03-29.64,13.73,6.97,2.79,14.63,3.52,22.04,2.02h0l-.02-.02h0Z"/>
    <path class="cls-4" d="m842.73,243.25l19.86,2.93c7.36,1.09,12.5-4.27,13.24-10.18.5-4.05-1.06-8.38-5.37-11.09h0l-161.24-70.02,64.29,40.45c6.61,4.16,2.82,14.41-4.9,13.26l-179.51-26.52c5.28,8.77,10.68,17.47,16.2,26.09l237.44,35.08h-.01,0Z"/>
    <polygon class="cls-6" points="652.53 263.51 651.44 273.44 664.95 241.2 588.42 232.8 593.16 267.04 594.25 257.11 652.53 263.51"/>
    <rect class="cls-6" x="617.87" y="235.97" width="9.99" height="58.63" transform="translate(291.14 855.46) rotate(-83.73)"/>
    <path class="cls-6" d="m630.87,474.37h-.05l-57.78-9.63-15.1,31.08,75.75,12.61-2.8-34.06h-.02Zm-7.51,4.19l-51.2-8.53.12-.74,51.2,8.53-.12.74Z"/>
    <path class="cls-6" d="m682.58,504.66l75.75,12.61-2.8-34.06h-.05l-57.78-9.63-15.1,31.08h-.02Zm65.42-17.26l-51.2-8.53.12-.74,51.2,8.53-.12.74Z"/>
    <path class="cls-6" d="m598.59,235.71l169.01,24.97,1.54-6.02c7.93-3.23,15.86-6.45,23.79-9.68-5.97,5.6-11.95,11.19-17.93,16.79l63.6,9.4,4.12-27.93-237.44-35.08c1.49,2.32,2.98,4.64,4.48,6.95-7.46,3.82-14.88,7.73-22.27,11.71.03.21.06.43.11.64l10.97,8.23h.02v.02h0Z"/>
    <path class="cls-6" d="m554.75,289.42c-2.35,1.39-4.7,2.78-7.04,4.19l12.36,1.36-5.32-5.54h0Z"/>
    <path class="cls-6" d="m770.25,535.94h0l1.67-28.18h0l-.02.37-255.95-15.23c-2.66,2.82-5.31,5.64-7.94,8.48,8.83,6.85,17.76,13.57,26.76,20.16l235.51,14.01-.02.37h0s0,0,0,0Z"/>
    <path class="cls-4" d="m770.25,535.94l-.02.37-234.35-13.94c3.84,2.8,7.68,5.59,11.53,8.36-5.87,6.58-11.65,13.25-17.36,19.98l305.95,18.21,1.73-28.96-67.47-4.02h0s0,0,0,0Z"/>
    <path class="cls-4" d="m709.22,154.89l161.24,70.01-221.58-139.44c2.07,4.42,4.16,8.83,6.3,13.22-7.23,2.79-14.44,5.66-21.64,8.58.04.02.07.04.11.06l75.57,47.55h0v.02h0Z"/>
    <path class="cls-6" d="m639.15,124.46l70.06,30.42-75.57-47.55s-.07-.04-.11-.06c-5.34,2.17-10.68,4.38-16.01,6.62,4.62.63,9.13,2.08,13.3,4.32,3.08,1.66,5.88,3.77,8.32,6.25h.01Z"/>
    <path class="cls-6" d="m773.5,195.33l-64.29-40.45-70.06-30.42c.53.54,1.05,1.09,1.55,1.67,2.66,3.05,4.68,6.62,5.91,10.47,2.5,7.79,1.24,16.3-3.4,23.03-2.31,3.33-5.26,6.16-8.69,8.31-3.6,2.28-7.58,3.87-11.74,4.72-4.47.91-9.06,1.04-13.56.35-3.29-.47-6.5-1.38-9.56-2.68-4.55,2.18-9.1,4.37-13.64,6.61,1.02,1.71,2.05,3.42,3.08,5.13l179.51,26.52c7.72,1.14,11.52-9.1,4.9-13.26h-.01Z"/>
    <path class="cls-5" d="m596.57,112.71c2.47,1.21,4.78,2.72,6.89,4.48l2,.78c-2.54-2.39-5.42-4.4-8.55-5.94-4.25-2.08-8.81-3.36-13.45-3.82-.45.21-.9.42-1.35.63.56.04,1.12.09,1.68.15,4.45.47,8.77,1.73,12.78,3.71h0Z"/>
    <path class="cls-5" d="m622.78,172.66c4.17-.84,8.15-2.45,11.74-4.72,3.43-2.15,6.39-4.98,8.69-8.31,4.65-6.73,5.9-15.24,3.4-23.03-1.25-3.85-3.26-7.42-5.91-10.47-.5-.58-1.02-1.13-1.55-1.67l-1.97-.85c1.05.94,2.04,1.94,2.96,3.01,2.59,2.98,4.55,6.44,5.77,10.2,2.43,7.57,1.21,15.84-3.31,22.38-2.25,3.25-5.13,6-8.48,8.1-3.52,2.23-7.42,3.79-11.5,4.61-7.42,1.5-15.08.78-22.04-2.02-.31.15-.62.3-.93.45,3.05,1.29,6.26,2.2,9.56,2.68,4.51.68,9.11.56,13.56-.35h0Z"/>
    <path class="cls-5" d="m772.62,508.54l-22.69-1.33h0l-76.87-4.5h0l-47.77-2.8h0l-108.02-6.33h0l19.02,1.11-19.33-1.13c-.12.11-.23.25-.34.36l255.96,15,.02-.37h.03s0,0,0,0Z"/>
    <path class="cls-5" d="m770.28,535.56l-235.51-14.01c.18.13.37.27.55.41l234.92,13.97.02-.37h.02Z"/>
    <path class="cls-5" d="m770.25,535.94l-234.92-13.97c.18.13.36.27.55.41l234.35,13.94.02-.37h0Z"/>
    <polygon class="cls-7" points="298.46 236.3 304.06 243.66 304.42 260.21 301.19 272.54 306.96 282.83 314.18 283.55 308.61 294.17 302.26 305.69 310.21 318.57 307.32 307.16 319.67 282.15 308.58 271.32 308.58 242.16 307.1 233.89 299.2 228.87 298.46 236.3"/>
    <path class="cls-7" d="m300.63,221.22l-.35-.48-.09.4c.15.03.3.06.45.08h-.01Z"/>
    <path class="cls-7" d="m300.2,221.14l-.38,1.65,1.71,3.65,4.16,1.6-5.03-6.82c-.15-.03-.3-.06-.45-.08h0Z"/>
    <polygon class="cls-7" points="302.79 202.46 305.68 201.28 305.68 201.27 302.79 202.45 302.79 202.46"/>
    <path class="cls-7" d="m303.21,208.1l-2.93,12.64.35.48c1.53.29,3.06.57,4.59.86l1.4-14.11-.93-6.69-2.9,1.19.42,5.65h.02s-.02-.02-.02-.02Z"/>
    <path class="cls-7" d="m305.67,228.04l.42.17-.95-5.33.08-.79c-1.53-.28-3.07-.56-4.59-.86l5.03,6.82h.01Z"/>
    <polygon class="cls-7" points="289.3 179.24 296.01 185.02 297.42 190.51 302.07 192.67 302.79 202.45 305.68 201.27 304.35 191.7 295.1 178.63 296.99 174.32 291.11 176.73 289.3 179.24"/>
    <polygon class="cls-7" points="291.12 176.72 297 174.32 297 174.32 291.12 176.72"/>
    <polygon class="cls-7" points="303.35 159.8 291.11 176.73 296.99 174.32 303.35 159.8"/>
    <path class="cls-7" d="m551.5,191.19c-1.45,8.44-2.89,16.88-4.34,25.31l7.29,7.59c1.07-.63,2.15-1.26,3.22-1.89-2.06-10.34-4.12-20.67-6.17-31.01h0Z"/>
    <path class="cls-7" d="m569.08,230.66l-11.27-7.82c-.04-.21-.08-.43-.13-.64-1.07.63-2.15,1.26-3.22,1.89l5.32,5.54,9.3,1.02h0Z"/>
    <polygon class="cls-7" points="738.9 249.32 746.33 250.13 746.33 250.13 738.9 249.31 738.9 249.32"/>
    <path class="cls-7" d="m734.97,267.57l-6.88,4.24,8.28.91,4.35-2.8.18-14.31c1.81-1.82,3.62-3.65,5.42-5.47l-7.43-.82-3.93,18.25h.01Z"/>
    <path class="cls-7" d="m740.21,243.24l-1.31,6.07,7.43.82c5.76-5.82,11.52-11.63,17.29-17.45-7.8,3.52-15.61,7.04-23.41,10.56Z"/>
    <rect class="cls-5" x="175.17" y="282.41" width="51.9" height=".37" transform="translate(-105.47 120.39) rotate(-26.68)"/>
    <rect class="cls-5" x="175.01" y="282.08" width="51.9" height=".38" transform="translate(-105.35 120.29) rotate(-26.68)"/>
    <path class="cls-4" d="m118.27,236.93c-10.22,4-18.85-6.72-14.93-15.41-3.93,8.7,4.71,19.41,14.93,15.41l9.63-3.77h0l-9.63,3.77Z"/>
    <polygon class="cls-4" points="183.25 135.4 183.25 135.4 95.81 241.35 95.81 241.35 95.81 241.35 183.25 135.4"/>
    <polygon class="cls-4" points="240.37 193.52 119.19 254.44 119.19 254.44 240.37 193.52 240.37 193.52"/>
    <polygon class="cls-2" points="119.19 254.44 240.37 193.52 240.37 193.52 119.19 254.44 119.19 254.44"/>
    <polygon class="cls-7" points="191.58 337.23 174.04 328.52 162.93 318.46 148.51 310.61 132.49 310.27 122.26 292.42 129.53 315.29 138.17 313.33 143.42 315.47 147.92 313.03 161.01 321.28 170.82 332.78 180.86 341.88 190.08 341.76 196.67 346.4 192.36 337.8 191.58 337.23"/>
    <path class="cls-7" d="m299.97,213.61l-4.73-8.72,1.9-.49h0l-3.85.97c-.25,3.6-.5,7.2-.75,10.8,3.05,1.06,6.11,2.12,9.17,3.17-.59-1.92-1.16-3.82-1.75-5.74h.01Z"/>
    <path class="cls-7" d="m302.32,221.34c-.2-.67-.4-1.33-.61-1.99-3.06-1.05-6.11-2.11-9.17-3.17-.09,1.26-.18,2.53-.26,3.78l8.6,7.31,1.44-5.9.02-.03h-.02Z"/>
    <polygon class="cls-7" points="311.02 235.31 306.18 228.74 307.1 233.89 310.68 236.16 315.52 260.22 323.47 265.74 311.03 235.31 311.02 235.31"/>
    <path class="cls-7" d="m381.4,301.69l-5.29-9.45-10.63-6.09c.33,1.99.67,4,1.02,5.99l6.34,3.64,2.5,18.09,2.68,5.25c.83.21,1.66.41,2.5.59l-2.03-9.26,2.91-8.79v.02h0Z"/>
    <path class="cls-7" d="m349.27,274.4l23.93,9.59c-.61-1.93-1.23-3.86-1.84-5.79l-2.5-1-17.3-9.07-13.56,2.55-9.78-6.45s-.11-.02-.17-.03l-.02-.1-5.53-3.64-2.69-6.48-4.53-20.45-4.29,1.75,12.46,30.44,13.16,9.12,12.63-.47h0v.03h.03Z"/>
    <path class="cls-7" d="m328.07,264.22s.11.02.17.03l-.18-.13.02.1h-.01Z"/>
    <path class="cls-7" d="m424.01,325.14l-.48-7.73c-.79-.32-1.59-.65-2.38-.97l2.86,8.7h0Z"/>
    <path class="cls-7" d="m295.24,204.89l4.73,8.72-2.82-9.21-1.9.49h-.01Z"/>
    <polygon class="cls-7" points="306.09 228.2 306.18 228.74 311.02 235.31 311.03 235.31 308.5 229.13 306.09 228.2"/>
    <polygon class="cls-7" points="308.5 229.13 311.03 235.31 315.31 233.55 314.88 231.58 308.5 229.13"/>
    <path class="cls-7" d="m293.31,205.37l3.85-.97c-1.02-3.35-2.05-6.7-3.08-10.06-.25,3.68-.52,7.36-.77,11.04h0Z"/>
    <path class="cls-7" d="m305.67,228.04l-4.16-1.6-1.71-3.65v.03l-.62,6.05,7.9,5.01-.91-5.14-.51-.7h.01Z"/>
    <polygon class="cls-7" points="305.67 228.04 306.18 228.74 306.09 228.2 305.67 228.04"/>
    <path class="cls-7" d="m620.57,82.73c-.61-2.2-1.31-4.27-2.08-6.18l3.26,11.7c-.27-1.86-.65-3.7-1.18-5.52h0Z"/>
    <g id="Group_133" data-name="Group 133">
      <path id="Path_1" data-name="Path 1" class="cls-3" d="m485.91,1.2c7.88-2.2,16.3-1.35,23.58,2.37l130.62,67.02c7.78,3.98,13.54,11.02,15.9,19.43l30.2,109.31c4.63,16.75-5.55,34.24-22.69,38.98l-208.31,57.55c-17.14,4.74-34.85-5.04-39.48-21.8l-30.2-109.31c-2.29-8.43-.97-17.43,3.67-24.83L466.88,15.35c4.33-6.94,11.12-11.99,19.02-14.14h.01Z"/>
      <path id="Path_13" data-name="Path 13" class="cls-7" d="m627.35,171.49l8.8,31.83,15.65-4.32,1.27,4.61-56.16,15.52-1.27-4.61,15.65-4.32-8.8-31.83-62.01,17.13-5.51-19.94,35.8-96.56,28.83-7.97,26.01,94.13,20.17-5.57,1.74,6.33-20.16,5.57h-.01Zm-42.93-63.05l-22.51,59.67,36.23-10.01-13.72-49.66Z"/>
      <path id="Path_14" data-name="Path 14" class="cls-7" d="m539.21,207.77c-1.51,6.44-4.28,12.53-8.15,17.91-3.96,5.51-8.82,10.31-14.39,14.19-5.47,3.91-11.56,6.83-18.03,8.64-3.05.82-6.14,1.41-9.27,1.78-3.43.43-6.87.57-10.32.41-3.36-.15-6.7-.63-9.95-1.47-3.01-.73-5.84-2.02-8.38-3.79l2.68,9.7-5.77,1.59-12.09-43.73,9.07-2.5c.89,3.26,2.69,6.19,5.22,8.44,2.54,2.31,5.53,4.1,8.77,5.24,3.33,1.17,6.81,1.86,10.33,2.03,3.34.21,6.7-.12,9.94-.97,3.02-.88,5.92-2.17,8.6-3.83,2.94-1.75,5.63-3.87,8.01-6.32,2.31-2.35,4.11-5.15,5.27-8.23,1.15-3.06,1.28-6.4.36-9.53-1.45-5.23-4.27-8.77-8.48-10.64-4.77-2-9.83-3.23-14.99-3.63-5.77-.55-11.94-.91-18.5-1.1-6.42-.16-12.8-1.12-18.99-2.86-6.13-1.73-11.76-4.84-16.49-9.1-4.9-4.34-8.56-10.92-11-19.72-1.71-6.02-1.71-12.4.01-18.43,1.71-6.08,4.53-11.79,8.33-16.84,3.86-5.16,8.55-9.64,13.87-13.26,5.11-3.58,10.77-6.26,16.77-7.96,2.8-.75,5.65-1.32,8.52-1.69,3.21-.44,6.46-.63,9.72-.57,3.17.05,6.33.44,9.42,1.17,2.82.63,5.49,1.82,7.85,3.49l-2.28-8.25,4.94-1.37,10.94,39.6-8.65,2.39c-.76-2.83-2.43-5.34-4.74-7.13-2.43-1.89-5.16-3.35-8.07-4.32-3.01-1.01-6.15-1.56-9.33-1.64-2.87-.12-5.73.19-8.51.91-2.8.82-5.5,1.98-8.04,3.44-2.82,1.56-5.37,3.54-7.58,5.87-2.11,2.21-3.8,4.79-5,7.6-1.16,2.75-1.33,5.82-.49,8.68,1.45,5.23,4.31,8.77,8.59,10.62,4.75,1.96,9.8,3.11,14.93,3.43,5.67.43,11.79.66,18.39.69,6.38,0,12.75.86,18.9,2.54,6.07,1.7,11.69,4.74,16.44,8.89,4.95,4.26,8.64,10.79,11.07,19.59,1.89,6.52,2.09,13.43.56,20.05l.02.03h0l-.03-.04Z"/>
    </g>
    <rect class="cls-5" x="317.15" y="227.16" width="51.9" height=".75" transform="translate(-60.38 145.73) rotate(-22.09)"/>
    <rect class="cls-5" x="175.06" y="281.9" width="51.9" height=".75" transform="translate(-104.92 119.51) rotate(-26.53)"/>
    <rect class="cls-5" x="228.36" y="451.3" width="51.9" height=".75" transform="translate(-107.65 80.64) rotate(-14.91)"/>
    <rect class="cls-5" x="341.55" y="433.86" width="51.9" height=".75" transform="translate(-32.8 30.03) rotate(-4.48)"/>
    <g>
      <path class="cls-6" d="m657.7,348.34c-11.24-4.84-22.11-9.35-32.62-13.57l-29.98,103.49h0l.05.02,56.27,16.3,36.73-126.77c-9.63,6.83-19.77,13.66-30.44,20.53h-.01Z"/>
      <polygon class="cls-1" points="641.62 250.62 641.65 250.63 641.81 249.91 692.44 261.24 692.44 261.22 641.8 249.89 641.62 250.62"/>
      <polygon class="cls-1" points="815.28 283.96 814.27 288.48 763.62 277.14 763.46 277.88 763.47 277.88 763.63 277.17 814.26 288.49 814.27 288.48 815.28 283.96 832.26 253.42 832.26 253.42 815.28 283.96"/>
      <polygon class="cls-1" points="710.44 226.16 635.3 209.36 636.23 243.92 693.45 256.72 710.44 226.16"/>
      <polygon class="cls-1" points="814.1 289.23 810.51 305.29 810.51 305.29 814.1 289.23 814.1 289.23"/>
      <polygon class="cls-1" points="633.27 257.17 619.61 318.2 619.62 318.2 633.27 257.17 633.27 257.17"/>
      <polygon class="cls-1" points="596.93 434.49 626.91 331 626.91 331 596.93 434.49"/>
      <path class="cls-1" d="m613.72,228.24l.31,7.01,11.02,14.91,9.43,1.57,1.74-7.82-.93-34.55,75.13,16.8-16.99,30.55-1,4.51v.02h.01l-.16.73h-.01l-10.15,45.38c2.98-2.4,5.9-4.8,8.77-7.19,13.44,5.62,27.47,11.7,42.05,18.27,5.43-4.77,10.62-9.54,15.58-14.3l-2.73-9.51,9.13-24.02,3.09-1.47-.88-32.53,25.91,5.8h0l-166.72-37.31.44.39-3.03,22.75h-.01Z"/>
      <path class="cls-1" d="m745.58,370.03h-7.29l-14.8,8.79,10.59-10.7,14.07-6.94,6.94-23.98,1.95-9.59-.59-2.68c-5.24,4.45-10.72,8.88-16.43,13.31-14.15-7.46-27.77-14.39-40.84-20.84-3.01,2.21-6.08,4.42-9.2,6.63l-36.73,126.77.05.02-1.19,34.15,46.16,13.38,18.63-29.1-.05-.02,28.74-99.2h-.01Z"/>
      <path class="cls-1" d="m619.61,318.2l13.65-61.03-10.93-3.55-14.81-21,3.71-24.27-4.06-5.29-12.13-2.72c-3.25,1.49-6.5,2.99-9.74,4.5l-.2.36c7.59,13.17,15.46,26.18,23.59,39.02-10.02,4.89-19.99,9.94-29.9,15.12.33.14.66.28.99.43-3.6,2.13-7.19,4.27-10.77,6.45-.75,0-1.51.03-2.26.09,8.46,12.85,17.19,25.52,26.15,38.02-13.58,7.59-27.04,15.44-40.36,23.58,4.61,6.2,9.29,12.36,14.03,18.47,15.8-10.46,30.76-20.73,44.86-30.86,2.7.88,5.43,1.77,8.18,2.69h0Z"/>
      <path class="cls-1" d="m626.91,331c-2.69-1.08-5.36-2.15-8-3.19-14.7,9.23-30.27,18.56-46.68,28.03,4.56,6.7,9.18,13.36,13.87,19.97-13.42,7.39-26.7,15.04-39.84,22.97,9.55,12.99,19.35,25.79,29.38,38.38-9.2,5.78-18.32,11.7-27.37,17.75l30.08,8.72,18.63-29.1h-.05v-.03h0l29.98-103.49h0Z"/>
      <polygon class="cls-1" points="750.17 294.94 751.91 298.72 756.71 277.21 756.37 277.46 750.17 294.94"/>
      <path class="cls-6" d="m641.64,250.64h0l-.02-.02.17-.74,50.65,11.33,1-4.51-57.22-12.8-1.74,7.82,4.17.69,13.13,14.46,11.13,9.98,3.2,10.34-4.69,7.98.08,17.21-3.87-14.55,1.34-18.21-24.61-22.11-1.1-.35-13.65,61.03c10.75,3.56,21.88,7.39,33.4,11.52,10.22-7.52,19.93-14.97,29.11-22.38l10.15-45.38-50.63-11.33v.02h0Z"/>
      <polygon class="cls-5" points="692.44 261.24 641.81 249.91 641.65 250.63 692.28 261.95 692.44 261.24"/>
      <polygon class="cls-5" points="692.28 261.95 692.28 261.97 692.29 261.97 692.46 261.24 692.44 261.24 692.28 261.96 692.44 261.24 692.44 261.24 692.28 261.95"/>
      <polygon class="cls-5" points="641.65 250.63 641.64 250.64 692.28 261.97 692.28 261.95 641.65 250.63"/>
      <path class="cls-6" d="m771.04,304.4c-3.32,3.11-6.76,6.2-10.3,9.29l2.88,7.49-5.81,18.65-2.96,14.64-7.29,8.01h-1.97l-28.74,99.2.05.02,56.27,16.3,45.09-155.62c-2.06,2.27-4.19,4.53-6.37,6.78-14.11-8.79-27.73-17.02-40.83-24.74l-.02-.02h0Z"/>
      <path class="cls-6" d="m763.47,277.9v-.02h-.01l.16-.74,50.65,11.33,1.02-4.52-51.54-11.53-1.74.86-5.3,3.92-4.81,21.51.67,1.47c3.35-3.3,6.59-6.6,9.71-9.91,13.55,6.89,27.65,14.27,42.28,22.17,2.04-2.38,4.02-4.77,5.94-7.16l3.59-16.06-50.63-11.33h0Z"/>
      <polygon class="cls-6" points="758.01 269.13 758.58 268.88 760.25 261.42 769.81 263.56 777.11 260.11 783.04 242.4 757.13 236.61 758.01 269.13"/>
      <path class="cls-6" d="m815.28,283.96l16.98-30.54-41.93-9.38,41.93,9.38h0l-41.93-9.38c-2,1.61-4,3.23-5.99,4.84l-1.76,14.2h0l-4.63,2.3,39.53,8.84-2.18,9.74h-.02,0Z"/>
      <polygon class="cls-6" points="832.26 253.42 832.26 253.42 790.33 244.04 832.26 253.42"/>
      <polygon class="cls-6" points="758.58 268.88 769.81 263.56 760.25 261.42 758.58 268.88"/>
      <polygon class="cls-6" points="815.28 283.96 817.46 274.22 777.94 265.38 763.74 272.43 815.28 283.96"/>
      <polygon class="cls-5" points="763.47 277.88 814.11 289.2 814.1 289.23 814.1 289.23 814.11 289.21 814.26 288.49 763.63 277.17 763.47 277.88"/>
      <polygon class="cls-5" points="814.1 289.23 814.12 289.23 814.28 288.5 814.26 288.49 814.11 289.21 814.1 289.23"/>
      <polygon class="cls-5" points="763.47 277.88 763.47 277.9 814.1 289.23 814.11 289.2 763.47 277.88"/>
      <polygon class="cls-7" points="675.8 390.69 675.8 390.69 677.02 385.25 667.58 383.68 656.56 368.77 656.24 361.76 659.29 339.01 658.85 338.62 649.72 336.58 653.78 341.87 650.06 366.14 664.86 387.14 675.8 390.68 675.8 390.69"/>
      <polygon class="cls-7" points="633.27 257.16 622.33 253.62 633.27 257.17 633.27 257.16"/>
      <polygon class="cls-7" points="658.97 279.64 657.63 297.85 661.5 312.4 661.42 295.18 666.11 287.2 662.91 276.87 651.79 266.89 638.66 252.43 634.49 251.73 633.27 257.17 634.37 257.52 658.97 279.64"/>
      <path class="cls-7" d="m739.98,310.54l.9,2.59-.81,9.75,2.53-15.18c-.87.95-1.74,1.89-2.62,2.84h0Z"/>
      <path class="cls-7" d="m758.01,269.13l-3.09,1.47-9.13,24.02,2.73,9.51c.93-.9,1.85-1.79,2.77-2.69l.61-2.72-1.73-3.78,6.2-17.47.34-.25,1.36-6.05-.06-2.03h0Z"/>
      <polygon class="cls-7" points="722.81 356.04 713.55 367.9 727.22 357.45 734.46 356.6 735.98 347.51 722.81 356.04"/>
      <polygon class="cls-7" points="756.71 277.21 762.01 273.29 763.74 272.43 758.07 271.16 756.71 277.21"/>
      <path class="cls-7" d="m799.71,337.45l-1.94,23.23-2.15,1.4-1.52,9.09,1.96-.23,6.31-8.8,1.23-14.88,3.59-19.2-3.73-7.11c-.4.44-.8.88-1.21,1.33l-2.53,15.18h0Z"/>
      <path class="cls-7" d="m743.81,306.37l-.75-1.43-.46,2.75c.4-.44.81-.88,1.21-1.33h0Z"/>
      <polygon class="cls-7" points="758.58 268.88 758.01 269.13 758.07 271.16 758.58 268.88"/>
      <polygon class="cls-7" points="758.07 271.16 763.74 272.43 777.94 265.38 769.81 263.56 758.58 268.88 758.07 271.16"/>
    </g>
    <path class="cls-6" d="m776.66,484.11l-3.04,4.13,8.1,4.46c.44-.16.89-.26,1.34-.32,1.65-3.17,3.31-6.31,4.99-9.41-4.02-3.67-8.15-3.26-11.39,1.14h0Z"/>
    <path class="cls-6" d="m501.75,468.76c2.03-5.3,4.06-10.55,6.1-15.74-5.05-6.22-10.19-5.59-14.18,1.76l-3.74,6.9,10.14,7.6c.55-.26,1.1-.43,1.67-.52h0Z"/>
    <path class="cls-6" d="m529.45,299.34c-2.35,1.39-4.7,2.78-7.04,4.19l12.36,1.36-5.32-5.54h0Z"/>
    <path class="cls-6" d="m499.62,376.99c-2.35,1.39-4.7,2.78-7.04,4.19l12.36,1.36-5.32-5.54h0Z"/>
    <path class="cls-6" d="m548.57,405.59c-2.35,1.39-4.7,2.78-7.04,4.19l12.36,1.36-5.32-5.54h0Z"/>
    <rect class="cls-5" x="722.08" y="456.78" width=".75" height="51.91" transform="translate(127.66 1116.13) rotate(-80.55)"/>
    <polygon class="cls-1" points="210.94 498.52 210.94 498.52 210.94 498.52 218.01 525.07 218.01 525.07 210.94 498.52"/>
    <path class="cls-1" d="m285.83,443.48h.02l-14.29-53.65h-.02l14.3,53.66h0Z"/>
    <path class="cls-1" d="m224.09,270.4l-46.37,23.32.17.33.17.34,46.36-23.31,57.48,114.34h.02l-57.48-114.36-.17-.33-6.21-34.39h0l6.21,34.39-.17-.34h0Z"/>
    <polygon class="cls-1" points="302.52 473.34 285.9 443.48 285.88 443.48 302.5 473.35 302.52 473.34"/>
    <path class="cls-1" d="m221.23,349.2c1.51.1,3.03.2,4.53.32l-1.35-5.11-15.03-.86c.45,1.76.92,3.49,1.36,5.24,3.42.06,6.85.21,10.27.41l.19-.14v.15h.04,0Z"/>
    <polygon class="cls-1" points="210.74 497.79 210.76 497.86 210.74 497.79 210.74 497.79"/>
    <path class="cls-1" d="m174.04,328.51l-11.11-10.06-14.42-7.85-16.01-.33-10.24-17.84,7.26,22.87,8.64-1.97,5.25,2.14,4.51-2.45,13.08,8.26,9.81,11.5,5.53,5.01c3.31-1.12,6.63-2.18,9.98-3.18l-12.3-6.11h.02Z"/>
    <path class="cls-1" d="m240.89,469.54l-44.49-120.72,6.34,5.66,6.8,10.76,11.47,2.79,5.26-4.64c-3.42.15-6.83.37-10.25.67-.63-1.69-1.27-3.38-1.91-5.07l-.42.03-20.65-19.2h0l-.7-.65-4.92-3.19c-3.44.61-6.86,1.3-10.27,2.04l4.01,4.55,9.19.93,6.02,5.35,44.49,120.72h.05-.05.02v-.03Z"/>
    <path class="cls-1" d="m223.98,360.73l2.78,12.86,14.46,4.49-9.68-6.7-5.77-21.86c-1.51-.12-3.02-.22-4.53-.32l2.75,11.53h-.02,0Z"/>
    <path class="cls-1" d="m262.68,530.35h0l-12.62-24.41h0l-.17-.33h0l-.14-.27-.04-.06h0l16.14-8.35-6.53-33.93h-.05l-59.12-114.25-6.64-4.57-9.24.22-4.55-4.02c-5.98,2.11-11.9,4.41-17.75,6.92-5.83-8.85-11.75-17.63-17.77-26.31,6.01,8.68,11.94,17.45,17.77,26.31,5.84-2.52,11.77-4.81,17.75-6.92l-5.59-4.95-9.94-11.39-13.18-8.12-4.48,2.49-5.28-2.08-8.61,2.07-7.53-22.78,10.44,17.72,16.01.15,14.52,7.68,11.23,9.94,12.38,5.97c1.28-.39,2.57-.78,3.86-1.15l-18.75-36.22-22.91-25.88-17.29,8.95-12.97-25.07-9.18,4.76c-9.75,5.04-19.44-4.72-16.45-13.78.43-1.29,1.11-2.56,2.1-3.79l86.21-106.96c-10.07-2.02-20.09-4.12-30.05-6.31-2.41-12.72-4.61-25.46-6.64-38.23L0,169.71l202.82,392.04,60.03-31.06-.17-.33h0Z"/>
    <path class="cls-1" d="m189.69,337.39l-1.61-4.53-3.97.62,4.88,3.24.69.66h0Z"/>
    <path class="cls-1" d="m228.91,238.02h0l8.21,33.96.19.32,64.09,110.78c11.38-.34,22.83.06,34.26,1.23,3.82,10.56,7.51,21.13,11.1,31.74-3.59-10.61-7.28-21.18-11.1-31.74-11.42-1.17-22.86-1.57-34.26-1.23l27.79,48.05h.05s23.83,24.49,23.83,24.49l41.59-24.06h0l-8.11-33.58h-.05l-75.6-130.67-8.63-4.38-8.06-23.19-3.85-1.76,2.58,8,3.97,28.88,12.44,9.22-8.85,26.46,4.42,10.92-9.63-11.7,4.73-12.27,4.08-11.28-7.25.26-7.13-9.42,1.54-12.63-2.61-16.35-6.53-6.53-.28-7.46-10.27-4.7c-.25-1.23-.51-2.48-.77-3.71-3.76-.22-7.52-.42-11.27-.67-.47-1.29-.93-2.6-1.4-3.88l-29.63,17.13.41-.24h0v.02-.02h0Z"/>
    <polygon class="cls-5" points="229.13 458.21 229.23 458.58 279.38 445.21 279.29 444.84 229.13 458.21"/>
    <polygon class="cls-5" points="229.33 458.94 279.49 445.56 279.38 445.21 229.23 458.58 229.33 458.94"/>
    <polygon class="cls-5" points="302.52 473.34 302.5 473.35 302.68 473.68 240.02 490.38 348.91 461.36 348.94 460.96 302.52 473.35 302.52 473.34"/>
    <polygon class="cls-5" points="210.74 497.79 210.76 497.86 210.84 498.17 228.3 493.51 228.31 493.12 210.74 497.79"/>
    <polygon class="cls-5" points="210.75 497.8 228.31 493.12 228.31 493.12 210.75 497.8"/>
    <polygon class="cls-5" points="210.84 498.17 210.84 498.17 210.76 497.86 210.84 498.17"/>
    <polygon class="cls-5" points="210.94 498.52 210.94 498.52 210.83 498.17 210.94 498.52"/>
    <polygon class="cls-5" points="302.5 473.35 228.31 493.12 228.31 493.12 228.31 493.12 228.3 493.51 240.02 490.38 302.68 473.68 302.5 473.35"/>
    <polygon class="cls-5" points="228.3 493.51 240.02 490.38 228.3 493.51 228.3 493.51"/>
    <path class="cls-5" d="m218.01,525.07l.09.35h0l248.31-66.18c-.22-.08-.44-.14-.65-.21h0l-247.74,66.03h0Z"/>
    <path class="cls-6" d="m232.74,356.81c9.62-1.36,19.31-2.21,29.04-2.54,4.21,10.29,8.31,20.64,12.28,31.01,2.62,0,5.24.05,7.85.12l-57.48-114.34-46.36,23.31-.17-.34-6.01,3.02h0l18.32,36.44c4.2-1.18,8.41-2.27,12.65-3.25,4.29,8.03,8.46,16.12,12.6,24.24l14.88-2.4,2.42,4.7h0l-.02.02h0Z"/>
    <path class="cls-6" d="m188.08,332.86l1.61,4.53h0l20.42,19.45.42-.02c-3.09-8.58-6.24-17.13-9.49-25.62-4.33.45-8.65,1.01-12.96,1.66h0Z"/>
    <path class="cls-6" d="m250.05,397.25c-1.77-10.98-3.68-21.93-5.7-32.87-9.58-1.67-19.25-2.8-28.94-3.44l6.02,21.78,9.75,6.59-14.52-4.31-2.93-12.82-2.88-11.49c-.07,0-.15-.01-.22,0l-5.67,4.14-11.16-3.84-5.78-11.34-5.79-6.22,33.14,124.32h.05l-.09-.38,50.16-13.36.08.37,6.45-1.72-14.3-53.66c-2.55-.61-5.1-1.18-7.66-1.72h-.02v-.03h0Z"/>
    <path class="cls-6" d="m221.2,349.05l-.19.14c.07,0,.15.01.22.02v-.15h-.03Z"/>
    <polygon class="cls-6" points="189.69 337.39 188.08 332.86 188.08 332.86 189.69 337.39 189.69 337.39"/>
    <polygon class="cls-6" points="171.87 297.07 171.87 297.07 171.86 297.08 190.2 333.5 190.2 333.5 171.87 297.07"/>
    <polygon class="cls-6" points="149.27 270.92 149.27 270.92 217.63 236.55 149.27 270.92"/>
    <polygon class="cls-6" points="219.77 261.82 224.09 270.4 224.26 270.74 218.05 236.35 149.28 270.93 171.86 297.05 167.39 288.15 219.77 261.82"/>
    <polygon class="cls-6" points="171.86 297.05 149.28 270.93 218.05 236.35 218.05 236.35 217.63 236.55 149.27 270.92 171.86 297.08 171.86 297.05"/>
    <polygon class="cls-6" points="177.88 294.05 177.71 293.72 224.09 270.4 219.77 261.82 167.39 288.15 171.86 297.05 171.87 297.07 177.88 294.05"/>
    <polygon class="cls-6" points="171.86 297.05 171.86 297.08 171.87 297.07 171.86 297.05"/>
    <polygon class="cls-6" points="228.31 493.12 302.5 473.35 285.88 443.48 285.85 443.48 285.85 443.48 285.83 443.48 279.38 445.21 279.49 445.56 229.33 458.94 229.23 458.58 229.23 458.58 229.23 458.58 228.31 493.12"/>
    <polygon class="cls-6" points="285.89 443.46 285.92 443.45 285.92 443.45 285.89 443.46"/>
    <path class="cls-6" d="m119.19,254.44l12.67,25.22,116.34-58.49c-2.72-9.19-5.34-18.41-7.85-27.65l-121.16,60.92h0Z"/>
    <path class="cls-6" d="m218.01,525.07l247.74-66.03c-10.62-3.43-21.2-7.01-31.74-10.72,1.6-3.53,3.23-7.05,4.87-10.56l-227.94,60.76,7.08,26.55h-.01Z"/>
    <polygon class="cls-6" points="218.01 525.07 465.75 459.05 465.75 459.05 218.01 525.07 218.01 525.07"/>
    <path class="cls-4" d="m467.06,459.47l-248.86,66.32h0l-.09-.35-65.31,17.42,7.48,28.03,310.16-82.67c3.3-8.18,6.68-16.34,10.2-24.43-4.53-1.41-9.06-2.86-13.58-4.31h0Z"/>
    <path class="cls-4" d="m93.69,245.12c-3.11,9.03,6.49,18.89,16.29,13.96h0l9.23-4.65h0l121.17-60.93h0c-.79-2.89-1.56-5.78-2.33-8.67-8.26-1.25-16.49-2.61-24.68-3.98l-25.93,13.04c-.22.1-.44.21-.66.3-6.75,2.69-12.99-5.5-8.17-11.34h0l17.15-20.79c-1.87-8.36-3.66-16.76-5.37-25.14-2.39-.5-4.76-1.03-7.12-1.52l-87.44,105.96c-.99,1.21-1.7,2.47-2.14,3.78h0v-.02Z"/>
    <polygon class="cls-4" points="119.19 254.44 119.19 254.44 119.2 254.44 240.36 193.53 240.35 193.52 119.19 254.44"/>
    <path class="cls-6" d="m186.76,194.19c.22-.09.43-.18.65-.29l25.93-13.04c-4.62-.77-9.22-1.55-13.82-2.36-1.3-5.46-2.55-10.95-3.78-16.42l-17.15,20.79h0c-4.8,5.83,1.42,14.02,8.16,11.33h0Z"/>
    <path class="cls-6" d="m186.76,194.19c-6.74,2.68-12.97-5.5-8.16-11.33h0c-4.82,5.84,1.41,14.03,8.16,11.33Z"/>
    <path class="cls-5" d="m210.94,498.52l227.94-60.76c.07-.15.14-.3.21-.43l-15.78,4.2h0l-74.4,19.83-138.09,36.8.09.35h.03Z"/>
    <polygon class="cls-5" points="210.68 498.41 211.03 498.32 211.03 498.32 210.68 498.41"/>
    <polygon class="cls-5" points="210.83 498.17 210.94 498.52 210.84 498.17 210.83 498.17"/>
    <path class="cls-5" d="m218.2,525.81l248.86-66.32c-.22-.08-.44-.14-.65-.21l-248.3,66.19.09.35h0Z"/>
    <rect class="cls-5" x="175.18" y="282.22" width="51.9" height=".75" transform="translate(-105.02 119.54) rotate(-26.52)"/>
    <rect class="cls-5" x="228.38" y="451.28" width="51.9" height=".75" transform="translate(-106.74 79.76) rotate(-14.77)"/>
    <path class="cls-6" d="m193.52,389.55l-2.38,4.55,8.69,3.17c.41-.23.84-.39,1.28-.52,1.15-3.39,2.31-6.74,3.49-10.06-4.53-3.01-8.55-1.98-11.08,2.86h0Z"/>
    <path class="cls-6" d="m197.07,529.41c1.66-5.62,3.34-11.19,5.04-16.7-7.1-5.19-13.27-3.61-17.02,4.41l-3.5,7.53,13.52,5.6c.63-.36,1.28-.63,1.95-.82h0v-.02Z"/>
    <path class="cls-6" d="m226.24,479.93c-6.83-.92-13.73.99-19.12,5.32l-5.34,4.28,14.43.33c.07-.02.15-.05.22-.07-.13-.12-.27-.24-.41-.35,3.4-3.19,6.8-6.36,10.22-9.52h0-.01Z"/>
    <path class="cls-6" d="m311.62,462.18l-2.38,4.55,8.69,3.17c.41-.23.84-.39,1.28-.52,1.15-3.39,2.31-6.74,3.49-10.06-4.53-3.01-8.55-1.98-11.08,2.86h0Z"/>
    <path class="cls-6" d="m568.46,386.72c2.5-5.3,5.01-10.55,7.53-15.74-6.23-6.22-12.57-5.59-17.49,1.76l-4.61,6.9,12.51,7.6c.68-.26,1.36-.43,2.06-.52h0Z"/>
    <path class="cls-6" d="m327.23,349.88c-6.83-.92-13.73.99-19.12,5.32l-5.34,4.28,14.43.33c.07-.02.15-.05.22-.07-.13-.12-.27-.24-.41-.35,3.4-3.19,6.8-6.36,10.22-9.52h.01-.01Z"/>
    <path class="cls-6" d="m788.91,526.37c-2.35,1.39-4.7,2.78-7.04,4.19l12.36,1.36-5.32-5.54h0Z"/>
    <rect class="cls-5" x="597.42" y="447.96" width=".75" height="51.91" transform="translate(32.16 985.79) rotate(-80.55)"/>
    <path class="cls-6" d="m328.17,386.4c-2.26,1.54-4.52,3.07-6.76,4.62l12.42.58-5.66-5.19h0Z"/>
    <path class="cls-6" d="m394.74,335.26c-2.26,1.54-4.52,3.07-6.76,4.62l12.42.58-5.66-5.19h0Z"/>
    <path class="cls-6" d="m765.37,501.23c-2.35,1.39-4.7,2.78-7.04,4.19l12.36,1.36-5.32-5.54h0Z"/>
    <path class="cls-7" d="m725.75,484.19l9.55,13.15-.93,2.19,3.18,5.67,1.34-1.46.5-8.81-6.13-8.42-6.43-12.23-6.12-1.06c-.09.5-.17,1-.26,1.51l5.31,9.46h-.01Z"/>
    <path class="cls-6" d="m642.49,492.65c-2.35,1.39-4.7,2.78-7.04,4.19l12.36,1.36-5.32-5.54h0Z"/>
    <path class="cls-6" d="m654.88,493.97c-1.71.18-3.42.36-5.14.55l2.55,4.86,2.57-5.4h0Z"/>
    <polygon class="cls-7" points="570.53 463.97 569.19 482.18 573.06 496.73 572.98 479.51 577.67 471.53 574.47 461.2 563.35 451.22 550.22 436.76 546.05 436.06 544.83 441.5 545.93 441.85 570.53 463.97"/>
    <path class="cls-6" d="m506.88,518.43l-3.04,4.13,8.1,4.46c.44-.16.89-.26,1.34-.32,1.65-3.17,3.31-6.31,4.99-9.41-4.02-3.67-8.15-3.26-11.39,1.14h0Z"/>
    <path class="cls-6" d="m489.14,488.5l-3.04,4.13,8.1,4.46c.44-.16.89-.26,1.34-.32,1.65-3.17,3.31-6.31,4.99-9.41-4.02-3.67-8.15-3.26-11.39,1.14h0Z"/>
    <path class="cls-6" d="m482.63,545.27c2.03-5.3,4.06-10.55,6.1-15.74-5.05-6.22-10.19-5.59-14.18,1.76l-3.74,6.9,10.14,7.6c.55-.26,1.1-.43,1.67-.52h0Z"/>
    <path class="cls-6" d="m529.45,482.1c-2.35,1.39-4.7,2.78-7.04,4.19l12.36,1.36-5.32-5.54h0Z"/>
    <path class="cls-6" d="m471.76,437.55c-2.35,1.39-4.7,2.78-7.04,4.19l12.36,1.36-5.32-5.54h0Z"/>
    <path class="cls-6" d="m465.08,506.13c-2.35,1.39-4.7,2.78-7.04,4.19l12.36,1.36-5.32-5.54h0Z"/>
    <path class="cls-6" d="m551.87,324.8c-2.35,1.39-4.7,2.78-7.04,4.19l12.36,1.36-5.32-5.54h0Z"/>
    <path class="cls-6" d="m445.77,408.65l-3.04,4.13,8.1,4.46c.44-.16.89-.26,1.34-.32,1.65-3.17,3.31-6.31,4.99-9.41-4.02-3.67-8.15-3.26-11.39,1.14h0Z"/>
    <path class="cls-6" d="m675.94,414.76l-3.04,4.13,8.1,4.46c.44-.16.89-.26,1.34-.32,1.65-3.17,3.31-6.31,4.99-9.41-4.02-3.67-8.15-3.26-11.39,1.14h0Z"/>
    <path class="cls-6" d="m550.89,446.77c-2.35,1.39-4.7,2.78-7.04,4.19l12.36,1.36-5.32-5.54h0Z"/>
    <path class="cls-6" d="m702.33,435.81c-2.63-.73-5.26-1.45-7.9-2.16l7.6,9.84.29-7.68h0Z"/>
  </g>
</svg>