<?xml version="1.0" encoding="UTF-8"?>
<svg id="Layer_2" data-name="Layer 2" xmlns="http://www.w3.org/2000/svg" viewBox="0 0 789.98 532.16">
  <defs>
    <style>
      .cls-1 {
        fill: none;
      }

      .cls-1, .cls-2, .cls-3, .cls-4, .cls-5, .cls-6, .cls-7 {
        stroke-width: 0px;
      }

      .cls-3 {
        fill: #756746;
      }

      .cls-4 {
        fill: #5c5c5c;
      }

      .cls-5 {
        fill: #2c2c7c;
      }

      .cls-6 {
        fill: #d0d8d7;
      }

      .cls-7 {
        fill: #fff;
      }
    </style>
  </defs>
  <g id="Layer_2-2" data-name="Layer 2">
    <g id="Layer_2-2" data-name="Layer 2-2">
      <path class="cls-5" d="m398.88,90.18l1.1.29-.16-.37c-.31.02-.62.04-.94.07h0Z"/>
      <path class="cls-1" d="m208.2,173.09l54.08-27.32,1.22,6.68c1.54-3.22,3.1-6.45,4.67-9.67l-59.96,30.29h0s-.01.02-.01.02Z"/>
      <path class="cls-1" d="m205.7,191.42c.25.65.5,1.29.77,1.94l.47-1.62c-.42-.11-.83-.21-1.25-.31h0Z"/>
      <path class="cls-1" d="m184.75,182.03c.21,1.36.41,2.72.61,4.07,3.64.98,7.28,1.91,10.93,2.85-.04-3.61-.07-7.22-.11-10.83l-11.45,3.9h.02Z"/>
      <polygon class="cls-1" points="205.41 174.48 195.33 179.58 195.33 179.59 205.42 174.49 205.41 174.48"/>
      <path class="cls-1" d="m204.36,192.92l-4.3-4.96c.99,1.75,1.96,3.49,2.96,5.22.44.06.85.08,1.28.14l.06-.41h0Z"/>
      <path class="cls-6" d="m235.67,234.07l10.26,5.66,13.32-3.62,17.96,7.67,2.57.8c-1.09-2.68-2.17-5.37-3.23-8.08-13.69-.66-27.31-1.47-40.86-2.44h-.02s0,0,0,0Z"/>
      <path class="cls-6" d="m224.64,208.35l-.34-.67,1.61-.81c-.5-1.47-1-2.95-1.49-4.42l-4.06,2.05,6.13,20.03,3.19,6.25,5.79,3.19c-3.21-8.76-6.31-17.56-9.33-26.37l-1.5.76h0Z"/>
      <path class="cls-6" d="m300.5,273.79l-6.34-3.64c1.45,8.45,2.98,16.9,4.61,25.32,2.29.57,4.6,1.1,6.91,1.66l-2.68-5.25-2.5-18.09h0Z"/>
      <path class="cls-6" d="m206.28,180.08l-.87-5.6-10.1,5.1,4.75,8.38,4.3,4.96,1.92-12.83h0Z"/>
      <path class="cls-6" d="m210.74,199.89l2.48.74-1.5-2.96,5.86-2.96c-2.73-.27-5.47-.56-8.19-.85l-.02.79,1.37,5.24h0v.02h0v-.02Z"/>
      <path class="cls-6" d="m352.5,150.71l.08-.4c-.09.08-.17.16-.26.24.06.05.12.11.18.16h0Z"/>
      <path class="cls-6" d="m213.22,200.63l6.54,1.94.59,1.93,4.06-2.05c-.82-2.43-1.63-4.85-2.43-7.28-1.47-.14-2.93-.31-4.4-.46l-5.86,2.96,1.5,2.96h0Z"/>
      <path class="cls-5" d="m224.64,208.35l1.5-.76c-.08-.23-.17-.47-.25-.72l-1.61.81.34.67h.02Z"/>
      <path class="cls-5" d="m226.16,207.59l44.82-22.64-.34-.67-44.73,22.59c.08.23.17.47.25.72h0Z"/>
      <path class="cls-6" d="m190.13,170.44c1.73,3.05,3.45,6.1,5.19,9.15l10.1-5.1-1.49-9.69-4.81-1.79-1.83-5.36-7.16-5.23,1.61-2.65-18.64,9.41c2.53,9.23,5.17,18.44,7.91,27.64l10.79-5.45c-.56-3.65-1.09-7.3-1.65-10.94h-.02Z"/>
      <path class="cls-4" d="m197.03,2.47s.02,0,.03-.03c0,0-.02,0-.03.03l-81.15,98.7h0L197.03,2.47Z"/>
      <polygon class="cls-4" points="180.76 153.58 180.76 153.58 200.54 146.84 200.54 146.84 180.76 153.58"/>
      <polygon class="cls-4" points="197.41 146.9 277.23 106.59 277.23 106.59 197.41 146.9 197.41 146.9"/>
      <polygon class="cls-2" points="200.54 146.84 200.54 146.84 180.76 153.58 180.76 153.58 200.54 146.84"/>
      <polygon class="cls-2" points="197.41 146.9 277.23 106.59 277.23 106.58 197.41 146.9 197.41 146.9"/>
      <g>
        <path class="cls-6" d="m235.47,233.95l.19.12c13.55.96,27.18,1.77,40.86,2.44,1.08,2.69,2.15,5.39,3.23,8.08l11.7,3.64,7.22,8.07-.93,9.21,3.99,8.6c4.79.08,9.57.16,14.37.2l-45.12-89.34-44.82,22.64c3.01,8.82,6.11,17.61,9.33,26.37h0v-.04h-.02Z"/>
        <path class="cls-6" d="m224.42,202.45c.5,1.47.99,2.95,1.49,4.42l44.73-22.59-2.08-4.14h0l-44.13,22.3h-.02,0s0,0,0,0Z"/>
        <path class="cls-6" d="m208.2,173.09l1.46,6.6-.28,14.18c2.73.29,5.46.57,8.19.85l46.47-23.46,4.49,8.9-4.97-27.28c-.07-.02-.16-.06-.22-.08.05-.1.09-.21.16-.31l-1.22-6.68-54.08,27.32h0v-.02h0v-.02Z"/>
        <path class="cls-6" d="m224.42,202.45l44.13-22.29h0l-4.5-8.91-46.47,23.46c1.46.16,2.93.32,4.4.46.79,2.42,1.61,4.86,2.43,7.28h.01Z"/>
        <path class="cls-6" d="m195.86,151.35l10.26,12.3,2.09,9.43,59.96-30.29c5.43-11.12,11.01-22.16,16.72-33.1-2.57-1.02-5.12-2.06-7.68-3.08l-79.83,40.31-1.54,4.45h.02v-.02h0Z"/>
        <path class="cls-4" d="m170.75,150.51c.77,2.89,1.56,5.77,2.34,8.67l18.64-9.41,10.86-17.85-5.19,14.99,79.82-40.31c-9.48-3.85-18.92-7.84-28.28-11.98l-102.89,51.97c8.19,1.37,16.42,2.7,24.69,3.94h0v-.02Z"/>
        <path class="cls-4" d="m197.03,2.47l-81.15,98.7c2.38.5,4.75,1.02,7.13,1.52,1.72,8.39,3.53,16.77,5.42,25.12L210.24,28.32l-.14.04c-15.86.84-3.37-36.57-12.36-26.7-.22.24-.44.5-.69.8,0,0-.02,0-.03.03h0v-.03h.01Z"/>
        <path class="cls-6" d="m216.18,41.34c-1.52,3.63-2.29,7.55-2.25,11.5.07,7.95,3.85,15.41,10.2,20.19,3.16,2.38,6.76,4.07,10.59,5.02,4.03.99,8.23,1.25,12.37.75,1.44-.17,2.85-.43,4.23-.77,5.32-9.51,10.76-18.96,16.31-28.31-13.31-6.26-26.47-12.8-39.47-19.64,1.31-2.11,2.62-4.2,3.93-6.31h0c-3.41,1.91-6.49,4.32-9.16,7.16-2.85,3.03-5.14,6.56-6.74,10.41h-.02.01Z"/>
        <path class="cls-6" d="m132.23,144.23c4.6.81,9.21,1.58,13.83,2.33l102.89-51.97c-1.83-.81-3.65-1.6-5.47-2.41,2.43-4.44,4.87-8.85,7.33-13.26-1.19.27-2.41.47-3.63.61-4.22.51-8.51.24-12.63-.77-3.94-.95-7.63-2.71-10.87-5.14-6.54-4.92-10.41-12.61-10.51-20.79-.04-4.05.74-8.06,2.31-11.8,1.62-3.93,3.96-7.53,6.88-10.62,2.25-2.38,4.78-4.45,7.5-6.19l-19.64,4.07-81.81,99.49c1.24,5.48,2.5,10.96,3.8,16.42v.02h0v.02h.02Z"/>
      </g>
      <path class="cls-5" d="m215.12,42.52c-1.28,3.83-1.77,7.9-1.45,11.93.68,8.15,5.11,15.53,11.98,19.96,3.4,2.19,7.21,3.67,11.22,4.35,4.19.71,8.48.67,12.66-.14,1.21-.24,2.41-.53,3.58-.87.15-.31.29-.63.44-.93-1.35.43-2.75.8-4.17,1.07-4.08.81-8.29.86-12.39.15-3.88-.66-7.61-2.09-10.93-4.24-6.68-4.3-10.97-11.48-11.63-19.4-.32-3.94.17-7.9,1.42-11.64,1.3-3.96,3.33-7.64,5.96-10.87,2.46-3.03,5.37-5.66,8.62-7.81l-2.16.62c-2.6,1.93-4.97,4.18-7.04,6.71-2.69,3.29-4.76,7.06-6.09,11.1h-.02Z"/>
      <g>
        <path class="cls-1" d="m304.34,229.05h0l.05.75h0l7.77,99.79c5.54,2.35,11.11,4.67,16.69,6.96.62,13.27,1.45,26.55,2.51,39.82-1.06-13.27-1.89-26.55-2.51-39.82-5.59-2.29-11.13-4.63-16.69-6.96l6.09,78.17h.05l10.91,32.38,16.69-1.3c6.34-8.85,12.79-17.61,19.37-26.25-13.82-8.25-27.49-16.77-41-25.58,9.5-12.05,19.25-23.9,29.2-35.53-13.12-8.85-26.07-17.97-38.85-27.36,10.35-11.68,20.91-23.14,31.67-34.38-12.38-9.42-24.58-19.08-36.57-29.02,11.15-11.26,22.5-22.29,34.05-33.08-11.54-9.88-22.88-20.02-34-30.37l-5.78,27.13.36,4.62h0v.03h0Z"/>
        <rect class="cls-5" x="260.16" y="414.88" width="51.9" height=".75" transform="translate(-31.36 23.45) rotate(-4.45)"/>
        <g>
          <path class="cls-6" d="m312.17,329.59c-4.43-1.87-8.81-3.76-13.21-5.65l.35,7.73-2.7-8.75c-2.17-.94-4.36-1.86-6.51-2.81-.17-8.59-.24-17.17-.24-25.75l-19.85-16.45-12.17-3.41-9.74-12.71,11.72,150.53h.05l58.4-4.56-6.09-78.17h0Z"/>
          <path class="cls-6" d="m318.3,407.76h-.05l-58.4,4.56-7.19,33.8,76.56-5.96-10.91-32.39h-.01Zm-58.04,9.9l-.05-.75,51.74-4.02.05.75-51.74,4.02h0Z"/>
        </g>
        <polygon class="cls-5" points="329.33 440.52 329.21 440.14 252.65 446.12 252.58 446.49 329.33 440.52"/>
      </g>
      <path class="cls-6" d="m504.69,325.73c4.63-3.45,9.28-6.88,13.95-10.27-9.6-3.14-20.08-2.11-28.89,2.82l-8.27,4.63,19.78,3.34c1.14-.22,2.28-.4,3.43-.52h0Z"/>
      <path class="cls-6" d="m396.58,303.49l-3.04,4.13,8.1,4.46c.44-.16.89-.26,1.34-.32,1.65-3.17,3.31-6.31,4.99-9.41-4.02-3.67-8.15-3.26-11.39,1.14h0Z"/>
      <path class="cls-6" d="m347.34,353.01c2.5-5.3,5.01-10.55,7.53-15.74-6.23-6.22-12.57-5.59-17.49,1.76l-4.61,6.9,12.51,7.6c.68-.26,1.36-.43,2.06-.52h0Z"/>
      <path class="cls-6" d="m445.71,360.3c-6.61-1.95-17.63,15.32-23.63,18.79l-2.01-13.02,14.21,2.53c.07-.01.15-.03.22-.04-.11-.14-.23-.28-.35-.41,3.84-2.64,7.69-5.25,11.55-7.85h.01Z"/>
      <path class="cls-6" d="m449.43,227.07l-3.04,4.13,8.1,4.46c.44-.16.89-.26,1.34-.32,1.65-3.17,3.31-6.31,4.99-9.41-4.02-3.67-8.15-3.26-11.39,1.14h0Z"/>
      <path class="cls-6" d="m383.8,353.43l-3.04,4.13,8.1,4.46c.44-.16.89-.26,1.34-.32,1.65-3.17,3.31-6.31,4.99-9.41-4.02-3.67-8.15-3.26-11.39,1.14h0Z"/>
      <path class="cls-6" d="m435.94,409.94l-3.04,4.13,8.1,4.46c.44-.16.89-.26,1.34-.32,1.65-3.17,3.31-6.31,4.99-9.41-4.02-3.67-8.15-3.26-11.39,1.14h0Z"/>
      <polygon class="cls-4" points="761.95 271.32 527.35 220.65 527.35 220.65 761.95 271.32 761.95 271.32"/>
      <polygon class="cls-2" points="761.95 271.32 527.35 220.65 527.35 220.65 761.95 271.32 761.95 271.32"/>
      <polygon class="cls-6" points="570.83 278.99 569.09 288.82 584.7 257.55 508.89 244.12 511.36 278.59 513.1 268.76 570.83 278.99"/>
      <rect class="cls-6" x="536.44" y="219.47" width="9.99" height="58.63" transform="translate(235.01 759.81) rotate(-83.73)"/>
      <path class="cls-6" d="m518.84,247.69l166.99,36.07,1.93-5.91c8.13-2.7,16.25-5.39,24.38-8.09-6.33,5.19-12.66,10.38-19,15.57l62.84,13.58,5.95-27.6-234.61-50.67c1.33,2.41,2.67,4.83,4.01,7.23-7.7,3.32-15.36,6.73-22.99,10.22.02.21.03.43.07.65l10.4,8.94h.02s0,.02,0,.02h0Z"/>
      <path class="cls-6" d="m493.36,277.7c-2.35,1.39-4.7,2.78-7.04,4.19l12.36,1.36-5.32-5.54h0Z"/>
      <path class="cls-6" d="m699.85,238.24l-54.87-52.52-62.54-43.85c.41.64.81,1.28,1.18,1.95,1.99,3.52,3.26,7.42,3.69,11.44.89,8.13-2.05,16.22-7.95,21.88-2.93,2.8-6.39,4.98-10.18,6.4-3.98,1.51-8.2,2.27-12.45,2.27-4.56,0-9.08-.8-13.35-2.38-3.13-1.12-6.09-2.66-8.83-4.54-4.89,1.22-9.79,2.46-14.69,3.74.66,1.88,1.32,3.76,1.99,5.64l170.55,61.98c7.33,2.66,13.11-6.61,7.46-12.01h0s0,0,0,0Z"/>
      <polygon class="cls-7" points="203.78 208.57 209.94 215.47 211.61 231.93 209.37 244.48 215.93 254.28 223.19 254.43 218.48 265.46 213.06 277.44 222 289.65 218.22 278.51 228.55 252.6 216.64 242.68 214.33 213.61 212.2 205.49 203.93 201.11 203.78 208.57"/>
      <path class="cls-7" d="m204.75,193.37l-.39-.45-.06.41c.15.02.3.04.45.04h0Z"/>
      <path class="cls-7" d="m204.31,193.32l-.25,1.67,1.99,3.5,4.27,1.27-5.55-6.4c-.15-.02-.3-.04-.45-.04h-.01Z"/>
      <polygon class="cls-7" points="205.42 174.49 208.2 173.09 208.2 173.08 205.41 174.48 205.42 174.49"/>
      <path class="cls-7" d="m206.28,180.08l-1.92,12.83.39.45c1.55.17,3.1.33,4.64.49l.28-14.18-1.46-6.6-2.8,1.42.87,5.6h.02l-.02-.02h0Z"/>
      <path class="cls-7" d="m210.31,199.77l.43.14-1.37-5.24.02-.79c-1.55-.16-3.1-.32-4.64-.49l5.55,6.4h0s0-.02,0-.02Z"/>
      <polygon class="cls-7" points="190.13 152.42 197.28 157.65 199.12 163.01 203.92 164.79 205.41 174.48 208.2 173.08 206.12 163.65 195.86 151.35 197.41 146.9 191.74 149.77 190.13 152.42"/>
      <polygon class="cls-7" points="191.74 149.76 197.42 146.9 197.42 146.9 191.74 149.76"/>
      <polygon class="cls-7" points="202.6 131.92 191.74 149.77 197.41 146.9 202.6 131.92"/>
      <path class="cls-7" d="m471.96,151.29c-1.45,8.44-2.89,16.88-4.34,25.31l7.29,7.59c1.07-.63,2.15-1.26,3.22-1.89-2.06-10.34-4.12-20.67-6.17-31.01h0Z"/>
      <path class="cls-7" d="m493.15,217.5l-10.73-8.55c-.03-.21-.05-.43-.09-.65-1.11.56-2.23,1.12-3.34,1.67l4.94,5.88,9.21,1.63h0Z"/>
      <polygon class="cls-7" points="657.95 270.53 665.31 271.83 665.31 271.83 657.95 270.52 657.95 270.53"/>
      <path class="cls-7" d="m652.82,288.48l-7.14,3.78,8.2,1.45,4.53-2.51,1.12-14.27c1.93-1.7,3.85-3.4,5.77-5.1l-7.36-1.31-5.13,17.95h0Z"/>
      <path class="cls-7" d="m659.66,264.55l-1.71,5.97,7.36,1.31c6.13-5.43,12.26-10.84,18.4-16.27-8.02,3-16.04,5.99-24.06,8.99h0Z"/>
      <rect class="cls-5" x="84.46" y="262.24" width="51.9" height=".37" transform="translate(-120.03 95.23) rotate(-31.22)"/>
      <rect class="cls-5" x="84.27" y="261.92" width="51.9" height=".38" transform="translate(-119.9 95.09) rotate(-31.22)"/>
      <polygon class="cls-4" points="80.94 117.11 80.94 117.11 2.16 229.64 2.16 229.64 2.16 229.64 80.94 117.11"/>
      <polygon class="cls-4" points="142.48 170.52 26.5 240.84 26.5 240.84 142.48 170.52 142.48 170.52"/>
      <polygon class="cls-2" points="26.5 240.84 142.48 170.52 142.48 170.52 26.5 240.84 26.5 240.84"/>
      <polygon class="cls-7" points="112.04 297.33 94.5 288.62 83.39 278.56 68.97 270.71 52.95 270.37 42.72 252.52 49.99 275.39 58.63 273.43 63.88 275.57 68.38 273.13 81.47 281.38 91.28 292.88 101.32 301.98 110.54 301.86 117.13 306.5 112.82 297.9 112.04 297.33"/>
      <path class="cls-7" d="m203.49,185.83l-5.41-8.32,1.86-.64h0l-3.76,1.27c.04,3.61.07,7.22.11,10.83,3.12.82,6.26,1.63,9.39,2.43-.74-1.87-1.46-3.72-2.2-5.58h0Z"/>
      <path class="cls-7" d="m206.44,193.35c-.25-.65-.5-1.29-.77-1.94-3.13-.8-6.26-1.62-9.39-2.43,0,1.26.02,2.54.04,3.79l9.15,6.61.97-6,.02-.03h-.02,0Z"/>
      <polygon class="cls-7" points="216.22 206.59 210.87 200.42 212.2 205.49 215.95 207.46 222.68 231.07 231.04 235.94 216.23 206.59 216.22 206.59"/>
      <path class="cls-7" d="m301.86,261.79l-5.29-9.45-10.63-6.09c.33,1.99.67,4,1.02,5.99l6.34,3.64,2.5,18.09,2.68,5.25c.83.21,1.66.41,2.5.59l-2.03-9.26,2.91-8.79v.02h0Z"/>
      <path class="cls-7" d="m257.44,242.53l24.61,7.67c-.76-1.88-1.53-3.75-2.29-5.63l-2.57-.8-17.96-7.67-13.32,3.62-10.26-5.66s-.11,0-.17-.02l-.03-.1-5.8-3.19-3.19-6.25-6.13-20.03-4.14,2.08,14.83,29.36,13.84,8.05,12.55-1.47h0v.03h.03Z"/>
      <path class="cls-7" d="m235.5,234.06s.11,0,.17.02l-.19-.12.03.1h0Z"/>
      <path class="cls-7" d="m344.47,285.24l-.48-7.73c-.79-.32-1.59-.65-2.38-.97l2.86,8.7h0Z"/>
      <path class="cls-7" d="m198.08,177.51l5.41,8.32-3.54-8.96-1.86.64h-.01Z"/>
      <polygon class="cls-7" points="210.74 199.89 210.87 200.42 216.22 206.59 216.23 206.59 213.22 200.63 210.74 199.89"/>
      <polygon class="cls-7" points="213.22 200.63 216.23 206.59 220.36 204.5 219.77 202.57 213.22 200.63"/>
      <path class="cls-7" d="m196.2,178.15l3.76-1.27c-1.28-3.26-2.57-6.52-3.87-9.78.04,3.69.06,7.38.11,11.07h0v-.02Z"/>
      <path class="cls-7" d="m210.31,199.77l-4.27-1.27-1.99-3.5v.03l-.14,6.08,8.27,4.37-1.31-5.05-.56-.66h0Z"/>
      <polygon class="cls-7" points="210.31 199.77 210.87 200.42 210.74 199.89 210.31 199.77"/>
      <rect class="cls-5" x="221.64" y="195.92" width="51.9" height=".75" transform="translate(-61.72 131.8) rotate(-26.63)"/>
      <rect class="cls-5" x="84.32" y="261.74" width="51.9" height=".75" transform="translate(-119.45 94.51) rotate(-31.07)"/>
      <rect class="cls-5" x="260.25" y="414.87" width="51.9" height=".75" transform="translate(-31.56 23.62) rotate(-4.48)"/>
      <g>
        <path class="cls-6" d="m585.62,352.34c-10.4-6.45-20.48-12.53-30.25-18.26l-45,97.9h0l.05.03,53.23,24.46,55.12-119.92c-10.54,5.33-21.58,10.58-33.15,15.79h0s0,0,0,0Z"/>
        <polygon class="cls-1" points="584.21 253.32 584.23 253.33 584.5 252.65 632.89 271.36 632.89 271.34 584.49 252.62 584.21 253.32"/>
        <polygon class="cls-1" points="751 312.04 749.33 316.36 700.92 297.64 700.66 298.35 700.67 298.35 700.93 297.67 749.32 316.37 749.33 316.36 751 312.04 772.32 284.36 772.32 284.36 751 312.04"/>
        <polygon class="cls-1" points="655.89 239.34 584.07 211.58 579.87 245.89 634.56 267.04 655.89 239.34"/>
        <polygon class="cls-1" points="749.05 317.08 743.12 332.43 743.12 332.43 749.05 317.08 749.05 317.08"/>
        <polygon class="cls-1" points="574.98 258.56 552.42 316.89 552.43 316.89 574.98 258.56 574.98 258.56"/>
        <polygon class="cls-1" points="512.74 428.53 557.74 330.63 557.74 330.63 512.74 428.53"/>
        <path class="cls-1" d="m559.93,227.05l-.73,6.98,8.69,16.38,9.09,2.95,2.88-7.48,4.2-34.31,71.81,27.76-21.33,27.69-1.66,4.31v.02s0,0,0,0l-.27.7h0s-16.77,43.37-16.77,43.37c3.3-1.93,6.55-3.87,9.74-5.81,12.46,7.55,25.43,15.64,38.88,24.3,6.08-3.91,11.92-7.86,17.53-11.83l-1.29-9.81,12.59-22.4,3.27-1,3.95-32.3,24.76,9.58h0l-159.34-61.62.38.45-6.37,22.05h0s0,0,0,0Z"/>
        <path class="cls-1" d="m669.31,386.83l-7.21-1.08-15.94,6.5,12.06-9.01,14.94-4.78,10.42-22.69,3.35-9.19-.19-2.74c-5.84,3.62-11.92,7.19-18.22,10.73-12.89-9.48-25.33-18.35-37.3-26.67-3.3,1.74-6.67,3.47-10.08,5.19l-55.12,119.92.05.03-6.24,33.6,43.67,20.08,22.74-26.02-.05-.03,43.13-93.84h0s0,0,0,0Z"/>
        <path class="cls-1" d="m552.42,316.89l22.55-58.33-10.28-5.13-11.53-22.96,7.27-23.45-3.23-5.83-11.59-4.49c-3.44.99-6.87,1.99-10.3,3.01l-.25.33c5.55,14.15,11.41,28.18,17.54,42.09-10.63,3.35-21.24,6.87-31.81,10.52.31.19.61.37.92.57-3.88,1.57-7.74,3.16-11.61,4.78-.74-.11-1.5-.19-2.25-.25,6.46,13.96,13.22,27.79,20.22,41.48-14.56,5.49-29.03,11.26-43.41,17.33,3.64,6.82,7.35,13.6,11.14,20.35,17.18-8,33.49-15.94,48.94-23.87,2.54,1.27,5.11,2.56,7.69,3.87h0Z"/>
        <path class="cls-1" d="m557.74,330.63c-2.5-1.47-4.98-2.92-7.44-4.34-15.91,6.95-32.69,13.87-50.32,20.8,3.52,7.3,7.1,14.57,10.76,21.81-14.37,5.32-28.64,10.91-42.81,16.81,7.52,14.26,15.31,28.37,23.36,42.31-9.96,4.35-19.85,8.85-29.7,13.5l28.45,13.08,22.74-26.02h-.05s0-.04,0-.04h0l45-97.9h0Z"/>
        <polygon class="cls-1" points="684.98 313.25 686.14 317.24 694.08 296.68 693.71 296.88 684.98 313.25"/>
        <path class="cls-6" d="m584.22,253.34h0l-.02-.02.28-.71,48.41,18.72,1.66-4.31-54.69-21.14-2.88,7.48,4.02,1.3,10.84,16.25,9.53,11.52,1.63,10.7-5.82,7.2-2.47,17.03-1.67-14.96,4.03-17.81-21.06-25.51-1.04-.51-22.55,58.33c10.1,5.11,20.54,10.55,31.32,16.35,11.22-5.92,21.93-11.85,32.11-17.82l16.77-43.37-48.39-18.71v.02h0Z"/>
        <polygon class="cls-5" points="632.89 271.36 584.5 252.65 584.23 253.33 632.63 272.04 632.89 271.36"/>
        <polygon class="cls-5" points="632.63 272.04 632.62 272.06 632.63 272.06 632.91 271.36 632.89 271.36 632.62 272.05 632.89 271.36 632.89 271.36 632.63 272.04"/>
        <polygon class="cls-5" points="584.23 253.33 584.22 253.34 632.62 272.06 632.63 272.04 584.23 253.33"/>
        <path class="cls-6" d="m704.22,325.7c-3.74,2.58-7.6,5.13-11.56,7.66l1.74,7.83-8.51,17.58-5.1,14.04-8.4,6.84-1.95-.29-43.13,93.84.05.03,53.23,24.46,67.67-147.21c-2.37,1.94-4.82,3.86-7.3,5.76-12.65-10.79-24.9-20.94-36.71-30.52l-.02-.02h0Z"/>
        <path class="cls-6" d="m700.66,298.37v-.02s0,0,0,0l.27-.71,48.41,18.72,1.68-4.32-49.26-19.05-1.85.59-5.82,3.09-7.95,20.56.44,1.55c3.8-2.77,7.5-5.55,11.07-8.36,12.38,8.82,25.23,18.21,38.52,28.19,2.37-2.05,4.68-4.12,6.94-6.2l5.93-15.35-48.39-18.71h0Z"/>
        <polygon class="cls-6" points="696.56 288.88 697.17 288.72 699.92 281.59 709.06 285.13 716.79 282.8 725.28 266.16 700.52 256.59 696.56 288.88"/>
        <path class="cls-6" d="m751,312.04l21.32-27.68-40.08-15.49,40.08,15.49h0l-40.08-15.49c-2.22,1.3-4.43,2.6-6.64,3.9l-3.85,13.78h0l-4.92,1.59,37.78,14.6-3.6,9.31h-.02s0,0,0,0Z"/>
        <polygon class="cls-6" points="772.32 284.36 772.32 284.36 732.25 268.86 772.32 284.36"/>
        <polygon class="cls-6" points="697.17 288.72 709.06 285.13 699.92 281.59 697.17 288.72"/>
        <polygon class="cls-6" points="751 312.04 754.6 302.73 716.83 288.13 701.74 293 751 312.04"/>
        <polygon class="cls-5" points="700.67 298.35 749.07 317.05 749.05 317.08 749.05 317.08 749.07 317.06 749.32 316.37 700.93 297.67 700.67 298.35"/>
        <polygon class="cls-5" points="749.05 317.08 749.07 317.08 749.34 316.38 749.32 316.37 749.07 317.06 749.05 317.08"/>
        <polygon class="cls-5" points="700.67 298.35 700.66 298.37 749.05 317.08 749.07 317.05 700.67 298.35"/>
        <polygon class="cls-7" points="597.24 396.91 597.24 396.91 599.25 391.71 590.15 388.76 581.46 372.38 582.18 365.4 588.57 343.35 588.2 342.9 579.47 339.53 582.7 345.36 575.42 368.81 586.94 391.78 597.24 396.9 597.24 396.91"/>
        <polygon class="cls-7" points="574.98 258.55 564.68 253.43 574.98 258.56 574.98 258.55"/>
        <polygon class="cls-7" points="597.06 284.59 593.04 302.4 594.7 317.36 597.18 300.32 603 293.13 601.37 282.44 591.85 270.92 581.01 254.67 576.99 253.36 574.98 258.56 576.01 259.07 597.06 284.59"/>
        <path class="cls-7" d="m672.59,327.16l.51,2.69-2.25,9.52,4.75-14.64c-1,.81-2,1.61-3.01,2.42h0Z"/>
        <path class="cls-7" d="m696.56,288.88l-3.27,1-12.59,22.4,1.29,9.81c1.05-.75,2.09-1.5,3.14-2.25l1.01-2.6-1.15-3.99,8.72-16.36.37-.2,2.24-5.78.24-2.02h0Z"/>
        <polygon class="cls-7" points="648.87 369.61 637.95 379.97 653.02 371.66 660.3 371.9 663.15 363.13 648.87 369.61"/>
        <polygon class="cls-7" points="694.08 296.68 699.9 293.59 701.74 293 696.32 290.9 694.08 296.68"/>
        <path class="cls-7" d="m727.67,362.63l-5.36,22.69-2.33,1.07-2.85,8.76,1.97.06,7.55-7.77,3.42-14.53,6.4-18.46-2.63-7.58c-.46.38-.92.75-1.39,1.14l-4.75,14.64h0Z"/>
        <path class="cls-7" d="m677,323.61l-.53-1.53-.86,2.65c.46-.38.93-.75,1.39-1.14h0Z"/>
        <polygon class="cls-7" points="697.17 288.72 696.56 288.88 696.32 290.9 697.17 288.72"/>
        <polygon class="cls-7" points="696.32 290.9 701.74 293 716.83 288.13 709.06 285.13 697.17 288.72 696.32 290.9"/>
      </g>
      <path class="cls-6" d="m416.4,450.58c2.03-5.3,4.06-10.55,6.1-15.74-5.05-6.22-10.19-5.59-14.18,1.76l-3.74,6.9,10.14,7.6c.55-.26,1.1-.43,1.67-.52h0Z"/>
      <path class="cls-6" d="m438.79,288.77c-2.35,1.39-4.7,2.78-7.04,4.19l12.36,1.36-5.32-5.54h0Z"/>
      <path class="cls-6" d="m420.08,337.09c-2.35,1.39-4.7,2.78-7.04,4.19l12.36,1.36-5.32-5.54h0Z"/>
      <path class="cls-6" d="m469.03,365.69c-2.35,1.39-4.7,2.78-7.04,4.19l12.36,1.36-5.32-5.54h0Z"/>
      <polygon class="cls-1" points="123.02 460.79 123.02 460.79 123.02 460.79 128.48 487.72 128.48 487.72 123.02 460.79"/>
      <path class="cls-1" d="m204.53,416.31h.02l-14.29-53.65h-.02l14.3,53.66h-.01Z"/>
      <path class="cls-1" d="m132.34,248.45l-44.38,26.92.2.32.2.33,44.37-26.91,66.35,109.43h.02l-66.35-109.45-.2-.32-8.91-33.79h0l8.91,33.79-.2-.33h-.01Z"/>
      <polygon class="cls-1" points="221.22 446.17 204.6 416.31 204.58 416.31 221.2 446.18 221.22 446.17"/>
      <path class="cls-1" d="m141.69,309.3c1.51.1,3.03.2,4.53.32l-1.35-5.11-15.03-.86c.45,1.76.92,3.49,1.36,5.24,3.42.06,6.85.21,10.27.41l.19-.14v.15h.04,0Z"/>
      <polygon class="cls-1" points="122.86 460.05 122.88 460.12 122.86 460.05 122.86 460.05"/>
      <path class="cls-1" d="m94.5,288.61l-11.11-10.06-14.42-7.85-16.01-.33-10.24-17.84,7.26,22.87,8.64-1.97,5.25,2.14,4.51-2.45,13.08,8.26,9.81,11.5,5.53,5.01c3.31-1.12,6.63-2.18,9.98-3.18l-12.3-6.11h.02Z"/>
      <path class="cls-1" d="m159.59,442.37l-44.49-120.72,6.34,5.66,6.8,10.76,11.47,2.79,5.26-4.64c-3.42.15-6.83.37-10.25.67-.63-1.69-1.27-3.38-1.91-5.07l-.42.03-20.65-19.2h0l-.7-.65-4.92-3.19c-3.44.61-6.86,1.3-10.27,2.04l4.01,4.55,9.19.93,6.02,5.35,44.49,120.72h.05-.05.02v-.03h0Z"/>
      <path class="cls-1" d="m144.44,320.83l2.78,12.86,14.46,4.49-9.68-6.7-5.77-21.86c-1.51-.12-3.02-.22-4.53-.32l2.75,11.53h-.02.01Z"/>
      <path class="cls-1" d="m110.15,297.49l-1.61-4.53-3.97.62,4.88,3.24.69.66h.01Z"/>
      <path class="cls-1" d="m132.82,228.52h0l10.87,33.2.21.3,72.66,105.36c11.32-1.24,22.76-1.75,34.25-1.49,4.64,10.22,9.16,20.47,13.58,30.76-4.42-10.29-8.93-20.54-13.58-30.76-11.48-.26-22.91.24-34.25,1.49l31.51,45.7h.05l25.69,22.52,39.56-27.28h0l-10.74-32.83h-.05l-85.7-124.27-8.95-3.68-9.87-22.48-3.98-1.45,3.21,7.77,6.24,28.48,13.13,8.21-6.73,27.08,5.27,10.54-10.53-10.9,3.74-12.61,3.17-11.57-7.21.83-7.85-8.83.54-12.71-3.9-16.09-7.03-5.99-.87-7.41-10.61-3.87c-.35-1.21-.7-2.43-1.06-3.64-3.77.08-7.53.18-11.29.22-.57-1.25-1.13-2.52-1.7-3.76l-28.18,19.42.39-.27h0v.02-.02h0Z"/>
      <polygon class="cls-5" points="122.94 460.43 122.94 460.43 122.88 460.12 122.94 460.43"/>
      <polygon class="cls-5" points="123.02 460.79 123.02 460.79 122.93 460.43 123.02 460.79"/>
      <polygon class="cls-5" points="140.65 456.83 152.53 454.41 140.65 456.83 140.65 456.83"/>
      <path class="cls-6" d="m140.01,329.43c9.62-1.34,19.31-2.18,29.04-2.49,4.19,10.3,8.28,20.65,12.23,31.03,2.62,0,5.24.06,7.85.13l-57.3-114.43-46.4,23.24-.17-.34-6.01,3.01h0l18.26,36.47c4.2-1.17,8.41-2.26,12.66-3.23,4.28,8.04,8.43,16.13,12.56,24.26l14.88-2.38,2.41,4.7h0l-.02.02h.01Z"/>
      <path class="cls-6" d="m108.54,292.96l1.61,4.53h0l20.42,19.45.42-.02c-3.09-8.58-6.24-17.13-9.49-25.62-4.33.45-8.65,1.01-12.96,1.66h0Z"/>
      <path class="cls-6" d="m168.75,370.08c-1.77-10.98-3.68-21.93-5.7-32.87-9.58-1.67-19.25-2.8-28.94-3.44l6.02,21.78,9.75,6.59-14.52-4.31-2.93-12.82-2.88-11.49c-.07,0-.15-.01-.22,0l-5.67,4.14-11.16-3.84-5.78-11.34-5.79-6.22,33.14,124.32h.05l-.09-.38,50.16-13.36.08.37,6.45-1.72-14.3-53.66c-2.55-.61-5.1-1.18-7.66-1.72h-.02v-.03h.01Z"/>
      <path class="cls-6" d="m141.66,309.15l-.19.14c.07,0,.15.01.22.02v-.15h-.03Z"/>
      <polygon class="cls-6" points="110.15 297.49 108.54 292.96 108.54 292.96 110.15 297.49 110.15 297.49"/>
      <polygon class="cls-6" points="92.33 257.17 92.33 257.17 92.32 257.18 110.66 293.6 110.66 293.6 92.33 257.17"/>
      <polygon class="cls-6" points="57.79 254.89 57.79 254.89 123.22 215.22 57.79 254.89"/>
      <polygon class="cls-6" points="127.35 240.24 132.34 248.45 132.54 248.78 123.62 214.98 57.81 254.9 82.38 279.15 77.22 270.63 127.35 240.24"/>
      <polygon class="cls-6" points="82.38 279.15 57.81 254.9 123.62 214.98 123.62 214.98 123.22 215.22 57.79 254.89 82.38 279.18 82.38 279.15"/>
      <polygon class="cls-6" points="88.15 275.68 87.95 275.37 132.34 248.45 127.35 240.24 77.22 270.63 82.38 279.15 82.39 279.17 88.15 275.68"/>
      <polygon class="cls-6" points="92.32 257.15 92.32 257.18 92.33 257.17 92.32 257.15"/>
      <polygon class="cls-6" points="138.92 469.17 214.17 453.9 199.37 423.09 199.34 423.09 199.34 423.09 199.32 423.09 192.78 424.42 192.87 424.78 142 435.12 141.92 434.75 141.92 434.75 141.92 434.75 138.92 469.17"/>
      <polygon class="cls-6" points="204.59 416.29 204.62 416.28 204.62 416.28 204.59 416.29"/>
      <path class="cls-6" d="m26.5,240.84l14.63,24.14,111.35-67.51c-3.44-8.95-6.78-17.93-10.01-26.94L26.51,240.85h-.01Z"/>
      <path class="cls-4" d="m.35,233.57c-2.39,9.25,7.96,18.32,17.34,12.63h0l8.83-5.37h0l115.97-70.33h0c-1.02-2.82-2.01-5.64-3.01-8.46-8.33-.59-16.64-1.3-24.92-2.01l-24.82,15.05c-.21.12-.42.24-.63.35-6.52,3.22-13.38-4.45-9.04-10.66h0l15.45-22.08c-2.53-8.19-4.97-16.42-7.34-24.64-2.42-.31-4.83-.65-7.22-.95L2.18,229.65c-.89,1.28-1.5,2.6-1.83,3.94h0v-.02H.35Z"/>
      <polygon class="cls-4" points="26.5 240.84 26.5 240.84 26.51 240.84 142.47 170.53 142.46 170.52 26.5 240.84"/>
      <path class="cls-6" d="m89.09,175.43c.21-.11.41-.21.63-.34l24.82-15.05c-4.67-.4-9.31-.82-13.96-1.26-1.73-5.34-3.41-10.71-5.07-16.07l-15.45,22.08h0c-4.32,6.19,2.53,13.86,9.03,10.65h0Z"/>
      <path class="cls-6" d="m89.09,175.43c-6.51,3.21-13.36-4.46-9.03-10.65h0c-4.34,6.2,2.52,13.87,9.03,10.65Z"/>
      <polygon class="cls-5" points="122.76 460.66 123.12 460.59 123.12 460.59 122.76 460.66"/>
      <polygon class="cls-5" points="122.93 460.43 123.02 460.79 122.94 460.43 122.93 460.43"/>
      <rect class="cls-5" x="84.47" y="262.04" width="51.9" height=".75" transform="translate(-119.56 94.59) rotate(-31.06)"/>
      <rect class="cls-5" x="143.7" y="430.08" width="51.9" height=".75" transform="translate(-104.14 57.47) rotate(-14.77)"/>
      <path class="cls-6" d="m113.98,349.65l-2.38,4.55,8.69,3.17c.41-.23.84-.39,1.28-.52,1.15-3.39,2.31-6.74,3.49-10.06-4.53-3.01-8.55-1.98-11.08,2.86h0Z"/>
      <path class="cls-6" d="m107.31,490.79c2-5.51,4.01-10.97,6.04-16.37-6.77-5.61-13.03-4.4-17.25,3.38l-3.95,7.31,13.16,6.4c.65-.32,1.32-.55,2-.7h0v-.02h.01-.01Z"/>
      <path class="cls-6" d="m228.81,387.9c-6.76-1.33-13.76.16-19.41,4.16l-5.59,3.95,14.38,1.2c.07-.02.15-.04.22-.06-.12-.13-.26-.26-.39-.37,3.59-2.98,7.17-5.94,10.77-8.89h.02Z"/>
      <path class="cls-6" d="m230.32,435.01l-2.38,4.55,8.69,3.17c.41-.23.84-.39,1.28-.52,1.15-3.39,2.31-6.74,3.49-10.06-4.53-3.01-8.55-1.98-11.08,2.86h0Z"/>
      <path class="cls-6" d="m488.92,346.82c2.5-5.3,5.01-10.55,7.53-15.74-6.23-6.22-12.57-5.59-17.49,1.76l-4.61,6.9,12.51,7.6c.68-.26,1.36-.43,2.06-.52h0Z"/>
      <path class="cls-6" d="m247.69,309.98c-6.83-.92-13.73.99-19.12,5.32l-5.34,4.28,14.43.33c.07-.02.15-.05.22-.07-.13-.12-.27-.24-.41-.35,3.4-3.19,6.8-6.36,10.22-9.52h0,0Z"/>
      <path class="cls-6" d="m248.63,346.5c-2.26,1.54-4.52,3.07-6.76,4.62l12.42.58-5.66-5.19h0Z"/>
      <path class="cls-6" d="m315.2,295.36c-2.26,1.54-4.52,3.07-6.76,4.62l12.42.58-5.66-5.19h0Z"/>
      <path class="cls-6" d="m403.79,470.32l-3.04,4.13,8.1,4.46c.44-.16.89-.26,1.34-.32,1.65-3.17,3.31-6.31,4.99-9.41-4.02-3.67-8.15-3.26-11.39,1.14h0Z"/>
      <path class="cls-6" d="m397.28,527.09c2.03-5.3,4.06-10.55,6.1-15.74-5.05-6.22-10.19-5.59-14.18,1.76l-3.74,6.9,10.14,7.6c.55-.26,1.1-.43,1.67-.52h0Z"/>
      <path class="cls-6" d="m392.22,397.65c-2.35,1.39-4.7,2.78-7.04,4.19l12.36,1.36-5.32-5.54h0Z"/>
      <path class="cls-6" d="m385.54,466.23c-2.35,1.39-4.7,2.78-7.04,4.19l12.36,1.36-5.32-5.54h0Z"/>
      <path class="cls-6" d="m459.39,303.2c-2.35,1.39-4.7,2.78-7.04,4.19l12.36,1.36-5.32-5.54h0Z"/>
      <path class="cls-6" d="m362.31,385.19l-3.04,4.13,8.1,4.46c.44-.16.89-.26,1.34-.32,1.65-3.17,3.31-6.31,4.99-9.41-4.02-3.67-8.15-3.26-11.39,1.14h0Z"/>
      <path class="cls-6" d="m594.52,398.24l-3.04,4.13,8.1,4.46c.44-.16.89-.26,1.34-.32,1.65-3.17,3.31-6.31,4.99-9.41-4.02-3.67-8.15-3.26-11.39,1.14h0Z"/>
      <path class="cls-6" d="m471.35,406.87c-2.35,1.39-4.7,2.78-7.04,4.19l12.36,1.36-5.32-5.54h0Z"/>
      <path class="cls-6" d="m620.91,419.29c-2.63-.73-5.26-1.45-7.9-2.16l7.6,9.84.29-7.68h.01Z"/>
      <polygon class="cls-1" points="647.05 457.06 647.06 457.09 662.71 459.7 662.8 459.14 662.71 459.67 647.05 457.06"/>
      <polygon class="cls-1" points="611.51 451.15 611.51 451.17 640.16 455.94 640.14 455.91 611.51 451.15"/>
      <path class="cls-1" d="m690.74,495.66h-.01l-.02.37-152.49-9.07h-.02l152.52,9.07.02-.38h0Z"/>
      <path class="cls-1" d="m690.74,495.65l-151.87-9.03h-.02l151.89,9.04h0Z"/>
      <polygon class="cls-1" points="515.08 453.34 555.59 460.09 555.71 459.35 555.69 459.34 555.56 460.08 515.08 453.34"/>
      <path class="cls-1" d="m604.68,461.44c-4.44-.89-8.87-1.77-13.28-2.6-1.92,1.01-3.86,2.03-5.8,3.04l18.34,1.09.74-1.53Z"/>
      <polygon class="cls-1" points="512.73 452.19 509.46 451.64 509.46 451.64 512.73 452.19"/>
      <polygon class="cls-6" points="512.73 452.19 555.69 459.34 555.69 459.34 555.71 459.35 555.59 460.09 515.08 453.34 509.71 452.45 509.9 453.06 505.21 461.04 505.29 477.83 565.22 481.39 563.87 465.05 521.75 458.04 563.87 465.05 563.12 455.9 563.1 455.9 563.1 455.9 563.05 455.9 507.93 446.71 509.46 451.64 512.73 452.19"/>
      <polygon class="cls-6" points="501.42 463.71 502.24 452.49 490.37 476.94 505.17 477.82 501.42 463.71"/>
      <path class="cls-6" d="m672.21,479.57l-1.98-24.06h-.05l-26.26-4.38,2.68,5.1,16.22,2.7-.04.21-.09.56-15.64-2.61.9,1.72,6.13,8.42-.5,8.81-1.34,1.46-3.18-5.67.93-2.19-9.55-13.15h.01l-.31-.55-28.65-4.77v-.02h0l.12-.74,28.05,4.67-2.88-5.13-24.39-4.06-13.49,27.76c3.59.72,7.19,1.46,10.79,2.22l62.5,3.72.02-.02Z"/>
      <path class="cls-6" d="m615.47,463.65c-3.61-.76-7.2-1.49-10.79-2.22l-.74,1.53,11.54.69h-.01Z"/>
      <polygon class="cls-6" points="692.38 467.86 692.36 468.23 692.36 468.23 692.38 467.86"/>
      <polygon class="cls-6" points="690.74 495.66 690.71 496.04 690.72 496.02 690.74 495.66 690.74 495.66 690.74 495.66"/>
      <path class="cls-6" d="m563.84,472.13l.63,7.69-70.92-11.81-46.16-2.7c.11-.11.22-.25.34-.36l19.33,1.13-19.02-1.11,42,2.46-1.33-.22.2-.41-42.19-2.51c-2.66,2.82-5.31,5.64-7.94,8.48,8.83,6.85,17.76,13.57,26.76,20.16l83.63,4.97c15.47-8.26,30.56-16.24,45.28-23.98l-30.63-1.79h.02Z"/>
      <path class="cls-6" d="m615.47,463.65l-11.54-.69-.21.44,14.57.85c-.94-.2-1.88-.41-2.82-.61h0Z"/>
      <path class="cls-4" d="m683.12,503.04h0v.38l-153.41.07c-10.67,6.55-21.52,13.24-32.54,20.1-15.28-.8-30.37-1.3-45.29-1.51-2.57,3.35-5.12,6.7-7.65,10.08l306.49-.13v-29.01l-67.6.02h0Z"/>
      <path class="cls-4" d="m519.44,503.04l-80.4-12.33c3.56,3.14,7.12,6.27,10.69,9.38-3.37,3.14-6.71,6.3-10.04,9.49,14.71,2.48,29.56,5.26,44.53,8.38,11.94-5.1,23.68-10.07,35.22-14.91h0Z"/>
      <path class="cls-6" d="m703.52,452.48c1.65-3.17,3.31-6.31,4.99-9.41-4.02-3.67-8.15-3.26-11.39,1.14l-3.04,4.13,8.1,4.46c.44-.16.89-.26,1.34-.32Z"/>
      <polygon class="cls-5" points="646.63 456.26 647.05 457.06 662.71 459.67 662.8 459.14 662.83 458.96 646.63 456.26"/>
      <polygon class="cls-5" points="639.69 455.1 611.63 450.43 611.51 451.15 640.14 455.91 639.69 455.1"/>
      <polygon class="cls-5" points="662.83 458.96 662.8 459.14 662.83 458.93 646.61 456.23 646.63 456.26 662.83 458.96"/>
      <polygon class="cls-5" points="639.69 455.1 639.67 455.07 611.63 450.41 611.5 451.15 611.51 451.15 611.63 450.43 639.69 455.1"/>
      <path class="cls-6" d="m711.33,494.15l9.91,7.51-1.73-7.48h0c-2.73-.02-5.46-.03-8.19-.02h.01Z"/>
      <polygon class="cls-5" points="509.71 452.44 515.08 453.34 555.56 460.08 555.69 459.34 512.73 452.19 509.46 451.64 509.71 452.44"/>
      <polygon class="cls-5" points="509.71 452.44 509.71 452.45 515.08 453.34 509.71 452.44"/>
      <polygon class="cls-5" points="555.69 459.34 512.73 452.19 555.69 459.34 555.69 459.34"/>
      <path class="cls-6" d="m691.57,473.56h0c-2.35,1.38-4.7,2.77-7.04,4.18l12.36,1.36-5.32-5.54h0Z"/>
      <path class="cls-7" d="m641.54,446.58l-6.12-1.06c-.09.5-.17,1-.26,1.51l1.64,2.91,7.14,1.19-2.39-4.55h-.01Z"/>
      <polygon class="cls-7" points="640.14 455.91 640.16 455.94 647.06 457.09 647.05 457.06 640.14 455.91"/>
      <polygon class="cls-7" points="646.61 456.23 643.93 451.13 636.79 449.94 639.67 455.07 646.61 456.23"/>
      <polygon class="cls-7" points="640.47 456.49 640.46 456.49 650.01 469.64 649.08 471.83 652.26 477.5 653.6 476.04 654.1 467.23 647.97 458.81 647.06 457.09 640.16 455.94 640.47 456.49"/>
      <polygon class="cls-7" points="647.05 457.06 646.63 456.26 639.69 455.1 640.14 455.91 647.05 457.06"/>
      <polygon class="cls-7" points="639.69 455.1 646.63 456.26 646.61 456.23 639.67 455.07 639.69 455.1"/>
      <path class="cls-6" d="m560.49,496.46l12.36,1.36-5.32-5.54h0c-2.35,1.38-4.7,2.77-7.04,4.18Z"/>
      <path class="cls-6" d="m579.9,493.6h.02c-1.71.17-3.42.35-5.14.54l2.55,4.86,2.57-5.4h0Z"/>
      <polygon class="cls-7" points="507.93 446.71 506.7 442.73 495.58 432.75 482.45 418.29 478.28 417.59 477.06 423.03 478.16 423.38 502.76 445.5 502.24 452.49 505.27 446.27 507.93 446.71"/>
      <rect class="cls-7" x="506.99" y="448.74" height="5.02"/>
      <polygon class="cls-7" points="505.17 477.82 505.29 477.83 505.21 461.04 509.9 453.06 509.71 452.45 504.36 451.55 504.48 450.81 504.51 450.82 504.51 450.82 509.46 451.64 507.93 446.71 505.27 446.27 502.24 452.49 501.42 463.71 505.17 477.82"/>
      <polygon class="cls-7" points="493.52 456.83 493.52 456.4 493.41 456.39 493.52 456.83"/>
      <polygon class="cls-7" points="509.71 452.44 509.46 451.64 504.51 450.82 504.39 451.56 509.71 452.44"/>
      <polygon class="cls-7" points="504.39 451.56 504.51 450.82 504.48 450.81 504.36 451.55 509.71 452.45 509.71 452.44 504.39 451.56"/>
      <path class="cls-6" d="m427.93,508.52c1.65-3.17,3.31-6.31,4.99-9.41-4.02-3.67-8.15-3.26-11.39,1.14h0l-3.04,4.13,8.1,4.46c.44-.16.89-.26,1.34-.32h0Z"/>
      <path class="cls-6" d="m449.91,442.21h0c-2.35,1.38-4.7,2.77-7.04,4.18l12.36,1.36-5.32-5.54h0Z"/>
      <path class="cls-6" d="m709.77,482.35c-1.6,1.05-3.19,2.1-4.8,3.16-7.54-.86-15.03-1.65-22.49-2.38l-62.46-.99h.02l.33-1.05-19.35,1.76c-13.41,9.84-27.15,19.97-41.22,30.44l151.53-13.62-1.56-17.31h0Z"/>
      <path class="cls-4" d="m755.48,296.61l18.86,6.88c6.99,2.56,13.1-1.65,15.02-7.29,1.31-3.86.66-8.43-3.02-11.95h0l-143.75-101.17,54.78,52.62c5.63,5.41-.15,14.68-7.48,12l-170.44-62.27c3.4,9.66,6.93,19.27,10.59,28.83l225.44,82.37h0Z"/>
      <g id="Group_133" data-name="Group 133">
        <path id="Path_1" data-name="Path 1" class="cls-3" d="m398.89,39.55c8-1.72,16.35-.37,23.4,3.78l126.37,74.73c7.53,4.44,12.86,11.81,14.71,20.35l23.59,110.92c3.62,17-7.59,33.85-24.99,37.55l-211.39,44.96c-17.39,3.7-34.49-7.12-38.1-24.13l-23.59-110.92c-1.78-8.55.08-17.46,5.15-24.57l85.01-119.69c4.74-6.67,11.82-11.3,19.83-12.97h0s0,0,0,0Z"/>
        <path id="Path_13" data-name="Path 13" class="cls-7" d="m529.87,218.01l6.88,32.3,15.88-3.37.99,4.68-56.99,12.13-.99-4.68,15.88-3.37-6.88-32.3-62.93,13.38-4.3-20.23,41.52-94.24,29.26-6.23,20.32,95.52,20.47-4.35,1.36,6.42-20.46,4.35h0s0,0,0,0Zm-39.07-65.51l-26.05,58.21,36.76-7.82-10.72-50.39h0Z"/>
        <path id="Path_14" data-name="Path 14" class="cls-7" d="m439.71,248.94c-1.89,6.34-5.02,12.25-9.21,17.39-4.28,5.26-9.42,9.76-15.21,13.3-5.69,3.58-11.95,6.12-18.52,7.54-3.09.64-6.21,1.04-9.36,1.22-3.45.22-6.89.16-10.33-.21-3.34-.35-6.65-1.03-9.84-2.06-2.96-.91-5.71-2.37-8.14-4.29l2.09,9.84-5.85,1.24-9.45-44.38,9.2-1.95c.69,3.31,2.31,6.34,4.7,8.74,2.4,2.46,5.27,4.42,8.44,5.76,3.25,1.37,6.69,2.26,10.19,2.65,3.32.41,6.7.28,9.98-.37,3.07-.7,6.04-1.81,8.81-3.31,3.04-1.57,5.85-3.53,8.37-5.83,2.45-2.21,4.41-4.89,5.75-7.9,1.33-2.99,1.66-6.31.93-9.49-1.13-5.31-3.74-9.01-7.83-11.13-4.64-2.28-9.62-3.81-14.75-4.52-5.73-.89-11.86-1.62-18.4-2.21-6.4-.54-12.71-1.89-18.78-3.99-6.02-2.09-11.45-5.54-15.91-10.07-4.63-4.63-7.89-11.41-9.8-20.34-1.35-6.11-.96-12.48,1.11-18.4,2.07-5.97,5.23-11.5,9.32-16.31,4.16-4.92,9.11-9.11,14.64-12.4,5.32-3.27,11.13-5.6,17.22-6.94,2.84-.58,5.72-.98,8.61-1.18,3.23-.25,6.49-.24,9.74.01,3.16.24,6.29.82,9.33,1.73,2.78.8,5.37,2.15,7.63,3.95l-1.78-8.37,5.01-1.07,8.55,40.18-8.78,1.87c-.59-2.87-2.11-5.48-4.3-7.4-2.31-2.03-4.95-3.65-7.8-4.8-2.94-1.19-6.05-1.93-9.21-2.2-2.86-.29-5.73-.15-8.55.4-2.84.65-5.61,1.65-8.23,2.95-2.91,1.39-5.57,3.21-7.92,5.41-2.24,2.08-4.08,4.55-5.45,7.29-1.32,2.68-1.68,5.73-1.01,8.64,1.13,5.31,3.78,9.01,7.94,11.12,4.62,2.24,9.6,3.69,14.7,4.32,5.63.77,11.73,1.37,18.32,1.79,6.37.38,12.68,1.62,18.71,3.67,5.96,2.06,11.38,5.43,15.88,9.86,4.69,4.55,7.98,11.29,9.88,20.22,1.5,6.62,1.28,13.53-.64,20.05l.02.03h0l-.03-.04h0Z"/>
      </g>
      <g>
        <polygon class="cls-5" points="128.49 487.72 128.48 487.72 128.49 487.72 128.49 487.72"/>
        <rect class="cls-5" x="128.48" y="487.7" width="0" height=".02"/>
        <path class="cls-6" d="m259.06,472.33c.07-1.03.14-2.06.21-3.09-9.75-3.74-19.53-6.69-29.25-8.86.34-3.44.68-6.91,1.01-10.38l-112.04,22.74,5.47,26.91h0l134.6-27.32Z"/>
        <path class="cls-6" d="m249.57,448.9c9.06,4.14,18.01,9.06,26.77,14.74-.28,1-.57,1.99-.85,2.98l119,1.1c-9.31-6.13-18.55-12.39-27.71-18.77,2.48-2.98,4.99-5.93,7.51-8.88l-121.56-1.12c-1.05,3.33-2.1,6.65-3.15,9.95Z"/>
        <polygon class="cls-6" points="128.49 487.72 128.48 487.72 128.49 487.72 128.49 487.72"/>
        <path class="cls-4" d="m412.99,481.97c-3.75-2.91-7.48-5.85-11.22-8.79l.02-.02h-.05s.03.02.04.03l-119.82-11.68c-2.31,6.04-4.61,12.05-6.9,18.01,3.72,3.56,7.37,7.28,10.94,11.15l108.89,10.61c5.96-6.51,11.98-12.97,18.1-19.31Z"/>
        <path class="cls-4" d="m264.81,474.16l-135.73,19.68h0s-.05-.34-.05-.34h0s0-.04,0-.04l-66.89,9.72,4.17,28.71,209.39-30.37c-4.4-2.91-8.83-5.65-13.29-8.22.8-6.33,1.6-12.72,2.4-19.14Z"/>
      </g>
      <path class="cls-4" d="m625.29,175.28l121.6,66.35-164.74-127.02c1.36,3.77,2.75,7.54,4.17,11.29-5.78,1.94-11.55,3.95-17.3,6,.03.02.05.03.09.06l56.19,43.31h0v.02h0,0Z"/>
    </g>
  </g>
</svg>