<?xml version="1.0" encoding="UTF-8"?>
<svg id="Layer_2" data-name="Layer 2" xmlns="http://www.w3.org/2000/svg" viewBox="0 0 855.01 580.96">
  <defs>
    <style>
      .cls-1 {
        fill: none;
      }

      .cls-1, .cls-2, .cls-3, .cls-4, .cls-5, .cls-6, .cls-7 {
        stroke-width: 0px;
      }

      .cls-3 {
        fill: #756746;
      }

      .cls-4 {
        fill: #5c5c5c;
      }

      .cls-5 {
        fill: #2c2c7c;
      }

      .cls-6 {
        fill: #d0d8d7;
      }

      .cls-7 {
        fill: #fff;
      }
    </style>
  </defs>
  <g id="Layer_2-2" data-name="Layer 2">
    <path class="cls-5" d="m400.95.08l1.1.29-.16-.37c-.31.02-.62.04-.94.07h0Z"/>
    <path class="cls-1" d="m170.65,330.56l56.05-23,.69,6.76c1.79-3.09,3.6-6.19,5.41-9.27l-62.15,25.5h0v.02h0Z"/>
    <path class="cls-1" d="m166.73,348.63c.2.67.4,1.33.62,1.99l.6-1.58c-.41-.14-.81-.27-1.22-.41h0Z"/>
    <path class="cls-1" d="m146.58,337.63c.1,1.37.2,2.74.29,4.11,3.55,1.26,7.11,2.47,10.67,3.7.24-3.6.5-7.2.74-10.81l-11.72,2.99h.02Z"/>
    <polygon class="cls-1" points="167.76 331.72 157.31 336.02 157.31 336.03 167.77 331.73 167.76 331.72"/>
    <path class="cls-1" d="m165.27,350.02l-3.9-5.28c.85,1.82,1.68,3.63,2.54,5.44.43.09.84.15,1.27.24l.09-.4h0Z"/>
    <path class="cls-6" d="m225.74,354.47l9.78,6.45,13.56-2.57,17.3,9.05,2.5,1c-.88-2.76-1.74-5.52-2.59-8.31-13.6-1.73-27.11-3.61-40.54-5.63h-.02.01Z"/>
    <path class="cls-6" d="m216.76,327.97l-.29-.69,1.67-.68c-.38-1.5-.77-3.02-1.14-4.52l-4.21,1.73,4.54,20.45,2.69,6.48,5.52,3.63c-2.51-8.98-4.91-18-7.24-27.02l-1.55.64h0v-.02h.01Z"/>
    <path class="cls-6" d="m325.16,268.51l-6.34-3.64c1.45,8.45,2.98,16.9,4.61,25.32,2.29.57,4.6,1.1,6.91,1.66l-2.68-5.25-2.5-18.09h0Z"/>
    <path class="cls-6" d="m162.97,320.29l-.43-5.65-10.47,4.29,4.08,8.73,3.9,5.28,2.92-12.64h0Z"/>
    <path class="cls-6" d="m171.09,357.47l2.41.93-1.26-3.07,6.07-2.49c-2.7-.48-5.41-.99-8.1-1.49l-.08.79.96,5.33h0v.02h0v-.02h0Z"/>
    <path class="cls-6" d="m354.57,60.61l.08-.4c-.09.08-.17.16-.26.24.06.05.12.11.18.16h0Z"/>
    <path class="cls-6" d="m205.98,319.37l6.37,2.45.44,1.97,4.21-1.73c-.63-2.49-1.24-4.96-1.85-7.45-1.45-.25-2.9-.54-4.35-.8l-6.07,2.49,1.26,3.07h0Z"/>
    <path class="cls-5" d="m216.76,327.97l1.55-.64c-.06-.24-.13-.48-.19-.74l-1.67.68.29.69h.02Z"/>
    <path class="cls-6" d="m195.83,397.87c1.49,3.18,2.96,6.35,4.46,9.53l10.47-4.29-.73-9.78-4.65-2.16-1.4-5.49-6.73-5.77,1.81-2.52-19.32,7.92c1.8,9.4,3.71,18.79,5.72,28.17l11.18-4.59c-.27-3.68-.51-7.36-.79-11.04h-.02v.02h0Z"/>
    <path class="cls-4" d="m135.46,204.79s.02,0,.02-.04c0,0-.02,0-.02.04l-60.77,112.4h0l60.77-112.4h0Z"/>
    <polygon class="cls-4" points="144.83 308.96 144.83 308.96 165.07 303.79 165.07 303.79 144.83 308.96"/>
    <polygon class="cls-4" points="163.46 346.48 234.09 291.65 234.09 291.65 163.46 346.48 163.46 346.48"/>
    <polygon class="cls-2" points="165.07 303.79 165.07 303.79 144.83 308.96 144.83 308.96 165.07 303.79"/>
    <polygon class="cls-2" points="163.46 346.48 234.09 291.65 234.09 291.64 163.46 346.48 163.46 346.48"/>
    <g>
      <path class="cls-6" d="m168.66,371.69l2.7,6.19,2.44,13.97c2.74-.24,5.47-.48,8.2-.73l41.13-31.92,6.11,7.87-10.1-25.83c-.08-.01-.16-.03-.23-.04.03-.11.05-.22.09-.34l-2.47-6.33-47.85,37.16h0v-.02h0v-.02h0v.03h-.02,0Z"/>
      <path class="cls-6" d="m162.8,351.15l12.42,10.12,3.85,8.85,53.06-41.2c3.2-11.95,6.56-23.86,10.08-35.69-2.72-.51-5.42-1.04-8.13-1.55l-70.64,54.84-.66,4.67h.02v-.02h0v-.02h0Z"/>
      <path class="cls-4" d="m137.98,355.13c1.31,2.69,2.63,5.36,3.95,8.07l16.5-12.8,7.25-19.6-2.23,15.71,70.63-54.83c-10.04-1.96-20.07-4.08-30.05-6.35l-91.05,70.7c8.3-.22,16.64-.49,24.99-.86h0v-.02h0v-.02h.01Z"/>
      <path class="cls-4" d="m135.46,204.79l-60.77,112.4c2.43.03,4.86.09,7.29.12,3.3,7.91,6.68,15.79,10.13,23.62l61.26-113.3-.13.07c-15.41,3.85-10.3-35.25-17.24-23.85-.17.28-.34.57-.52.91,0,0-.02,0-.02.04h0v-.03h0v.02h0Z"/>
      <path class="cls-6" d="m161.69,239.29c-.8,3.85-.8,7.85,0,11.72,1.59,7.79,6.73,14.38,13.88,17.87,3.55,1.73,7.41,2.7,11.35,2.9,4.14.2,8.32-.35,12.28-1.63,1.38-.45,2.71-.97,4.01-1.57,3.4-10.35,6.93-20.67,10.59-30.91-14.26-3.59-28.43-7.49-42.5-11.72.88-2.32,1.77-4.62,2.65-6.94h0c-2.98,2.53-5.54,5.48-7.62,8.78-2.22,3.52-3.79,7.43-4.62,11.51h-.02Z"/>
      <path class="cls-6" d="m98.97,356.33c4.67-.08,9.35-.21,14.02-.35l91.05-70.7c-1.95-.44-3.89-.87-5.83-1.32,1.53-4.83,3.09-9.62,4.66-14.41-1.12.5-2.28.92-3.45,1.29-4.05,1.31-8.31,1.86-12.54,1.66-4.05-.18-8-1.2-11.65-2.97-7.36-3.58-12.63-10.39-14.29-18.4-.81-3.97-.82-8.06,0-12.02.84-4.17,2.45-8.15,4.72-11.74,1.75-2.77,3.84-5.28,6.18-7.51l-18.5,7.75-61.26,113.3c2.27,5.14,4.55,10.28,6.87,15.39v.02h0v.02h.02-.01,0Z"/>
    </g>
    <path class="cls-5" d="m160.87,240.64c-.53,4.01-.22,8.09.86,11.99,2.23,7.87,7.99,14.26,15.58,17.3,3.76,1.5,7.78,2.22,11.84,2.13,4.25-.1,8.45-.97,12.4-2.56,1.15-.46,2.26-.98,3.35-1.54.08-.33.16-.68.25-.99-1.24.68-2.54,1.31-3.89,1.85-3.85,1.58-7.97,2.43-12.13,2.52-3.94.1-7.87-.6-11.53-2.07-7.38-2.94-12.97-9.16-15.12-16.82-1.06-3.81-1.34-7.78-.83-11.69.52-4.14,1.81-8.14,3.77-11.81,1.83-3.45,4.19-6.58,6.97-9.32l-2,1.02c-2.18,2.39-4.08,5.06-5.62,7.93-2.01,3.74-3.32,7.85-3.85,12.06h-.05Z"/>
    <g>
      <path class="cls-1" d="m267.1,274.71h0l.05.75h0l7.77,99.79c5.54,2.35,11.11,4.67,16.69,6.96.62,13.27,1.45,26.55,2.51,39.82-1.06-13.27-1.89-26.55-2.51-39.82-5.59-2.29-11.13-4.63-16.69-6.96l6.09,78.17h.05l10.91,32.38,16.69-1.3c6.34-8.85,12.79-17.61,19.37-26.25-13.82-8.25-27.49-16.77-41-25.58,9.5-12.05,19.25-23.9,29.2-35.53-13.12-8.85-26.07-17.97-38.85-27.36,10.35-11.68,20.91-23.14,31.67-34.38-12.38-9.42-24.58-19.08-36.57-29.02,11.15-11.26,22.5-22.29,34.05-33.08-11.54-9.88-22.88-20.02-34-30.37l-5.78,27.13.36,4.62h0v.03h0Z"/>
      <rect class="cls-5" x="222.88" y="460.54" width="51.9" height=".75" transform="translate(-35.01 20.7) rotate(-4.45)"/>
      <g>
        <path class="cls-6" d="m274.93,375.25c-4.43-1.87-8.81-3.76-13.21-5.65l.35,7.73-2.7-8.75c-2.17-.94-4.36-1.86-6.51-2.81-.17-8.59-.24-17.17-.24-25.75l-19.85-16.45-12.17-3.41-9.74-12.71,11.72,150.53h.05l58.4-4.56-6.09-78.17h-.01Z"/>
        <path class="cls-6" d="m281.06,453.42h-.05l-58.4,4.56-7.19,33.8,76.56-5.96-10.91-32.39h-.01Zm-58.04,9.9l-.05-.75,51.74-4.02.05.75-51.74,4.02h0Z"/>
      </g>
      <polygon class="cls-5" points="292.09 486.18 291.97 485.8 215.41 491.78 215.34 492.15 292.09 486.18"/>
    </g>
    <path class="cls-6" d="m540.06,303.02c4.81-3.19,9.64-6.37,14.49-9.5-9.42-3.66-19.94-3.2-29,1.25l-8.51,4.17,19.57,4.41c1.15-.16,2.3-.28,3.45-.33h0Z"/>
    <path class="cls-6" d="m375.34,262.88l-3.04,4.13,8.1,4.46c.44-.16.89-.26,1.34-.32,1.65-3.17,3.31-6.31,4.99-9.41-4.02-3.67-8.15-3.26-11.39,1.14h0Z"/>
    <path class="cls-6" d="m362.4,328.81c2.5-5.3,5.01-10.55,7.53-15.74-6.23-6.22-12.57-5.59-17.49,1.76l-4.61,6.9,12.51,7.6c.68-.26,1.36-.43,2.06-.52h0Z"/>
    <path class="cls-6" d="m424.47,319.69c-6.61-1.95-17.63,15.32-23.63,18.79l-2.01-13.02,14.21,2.53c.07-.01.15-.03.22-.04-.11-.14-.23-.28-.35-.41,3.84-2.64,7.69-5.25,11.55-7.85h.01Z"/>
    <path class="cls-6" d="m428.19,186.46l-3.04,4.13,8.1,4.46c.44-.16.89-.26,1.34-.32,1.65-3.17,3.31-6.31,4.99-9.41-4.02-3.67-8.15-3.26-11.39,1.14h0Z"/>
    <path class="cls-6" d="m362.56,312.82l-3.04,4.13,8.1,4.46c.44-.16.89-.26,1.34-.32,1.65-3.17,3.31-6.31,4.99-9.41-4.02-3.67-8.15-3.26-11.39,1.14h0Z"/>
    <path class="cls-6" d="m333.75,444.3l-3.04,4.13,8.1,4.46c.44-.16.89-.26,1.34-.32,1.65-3.17,3.31-6.31,4.99-9.41-4.02-3.67-8.15-3.26-11.39,1.14h0Z"/>
    <polygon class="cls-6" points="600.04 236.75 597.77 246.47 615.06 216.1 540.08 198.58 540.68 233.13 542.95 223.41 600.04 236.75"/>
    <rect class="cls-6" x="567.33" y="175.69" width="9.99" height="58.63" transform="translate(276.8 736.28) rotate(-80.62)"/>
    <path class="cls-6" d="m495.43,187.6c-2.35,1.39-4.7,2.78-7.04,4.19l12.36,1.36-5.32-5.54h0Z"/>
    <path class="cls-6" d="m759.43,312.53l-35.23-47.86-42.55-42.43c.23.54.44,1.09.63,1.65,1.03,2.96,1.45,6.1,1.18,9.21-.52,6.29-4.04,11.98-9.53,15.4-2.72,1.7-5.77,2.83-8.95,3.35-3.36.56-6.78.51-10.12-.12-3.58-.68-7.01-1.95-10.13-3.77-2.29-1.31-4.38-2.91-6.25-4.75-4.03.2-8.05.42-12.09.67.24,1.52.48,3.04.72,4.57l124.66,72.1c5.36,3.1,11.29-3.07,7.65-8h-.02s.02,0,.02,0h0Z"/>
    <polygon class="cls-7" points="91.68 288.16 99.05 293.76 103.83 309.59 104.04 322.34 112.35 330.7 119.5 329.46 116.99 341.19 113.96 353.99 125.07 364.26 119.23 354.05 124.41 326.65 110.83 319.18 103 291.09 99.35 283.53 90.4 280.81 91.68 288.16"/>
    <path class="cls-7" d="m165.63,350.5l-.35-.48-.09.4c.15.03.3.06.45.08h0Z"/>
    <path class="cls-7" d="m165.19,350.42l-.38,1.65,1.71,3.65,4.16,1.6-5.03-6.82c-.15-.03-.3-.06-.45-.08h-.01Z"/>
    <polygon class="cls-7" points="167.77 331.73 170.65 330.56 170.65 330.55 167.76 331.72 167.77 331.73"/>
    <path class="cls-7" d="m168.19,337.37l-2.92,12.64.35.48c1.53.29,3.06.57,4.59.85l1.39-14.11-.94-6.69-2.9,1.2.43,5.65h.02l-.02-.02h0Z"/>
    <path class="cls-7" d="m170.67,357.32l.42.17-.96-5.33.08-.79c-1.53-.28-3.07-.56-4.59-.85l5.03,6.82h0v-.02h.02Z"/>
    <polygon class="cls-7" points="154.26 308.53 160.98 314.31 162.39 319.8 167.04 321.95 167.76 331.72 170.65 330.55 169.32 320.98 160.06 307.92 161.95 303.6 156.07 306.02 154.26 308.53"/>
    <polygon class="cls-7" points="156.07 306.01 161.96 303.6 161.96 303.6 156.07 306.01"/>
    <polygon class="cls-7" points="165.69 330.78 158.44 350.39 163.46 346.48 165.69 330.78"/>
    <path class="cls-7" d="m474.03,61.19c-1.45,8.44-2.89,16.88-4.34,25.31l7.29,7.59c1.07-.63,2.15-1.26,3.22-1.89-2.06-10.34-4.12-20.67-6.17-31.01h0Z"/>
    <path class="cls-7" d="m495.22,127.4l-10.73-8.55c-.03-.21-.05-.43-.09-.65-1.11.56-2.23,1.12-3.34,1.67l4.94,5.88,9.21,1.63h0v.02h.01Z"/>
    <polygon class="cls-7" points="705.86 304.13 713.14 305.83 713.14 305.83 705.86 304.12 705.86 304.13"/>
    <path class="cls-7" d="m699.76,321.78l-7.33,3.39,8.11,1.89,4.66-2.26,1.89-14.19c2.02-1.59,4.03-3.19,6.04-4.78l-7.28-1.71-6.1,17.65h0Z"/>
    <path class="cls-7" d="m725.17,344.9l-2.8,5.54,6.97,2.68c7.05-4.17,14.09-8.33,21.15-12.49-8.44,1.42-16.88,2.85-25.33,4.27h0Z"/>
    <rect class="cls-5" x="88.75" y="364.06" width="51.9" height=".37" transform="translate(-172.19 112.2) rotate(-31.22)"/>
    <rect class="cls-5" x="88.56" y="363.74" width="51.9" height=".38" transform="translate(-172.05 112.06) rotate(-31.22)"/>
    <polygon class="cls-7" points="111.81 437.2 92.83 432.38 79.85 424.9 64.09 420.26 48.36 423.31 34.6 408.02 46.53 428.84 54.56 425.1 60.14 426.09 64.03 422.75 78.56 428.06 90.58 437.23 102.31 444.01 111.3 441.94 118.72 445.09 112.69 437.59 111.81 437.2"/>
    <path class="cls-7" d="m164.98,342.89l-4.74-8.72,1.9-.49h0l-3.85.97c-.24,3.6-.5,7.2-.74,10.81,3.05,1.06,6.11,2.12,9.17,3.16-.59-1.92-1.16-3.82-1.76-5.74h.02Z"/>
    <path class="cls-7" d="m167.31,350.62c-.2-.67-.4-1.33-.62-1.99-3.06-1.04-6.11-2.11-9.17-3.16-.1,1.26-.18,2.53-.26,3.78l8.6,7.31,1.44-5.91.02-.03h-.02,0Z"/>
    <polygon class="cls-7" points="208.5 325.55 203.65 318.98 204.58 324.14 208.17 326.4 213.03 350.46 220.98 355.97 208.51 325.55 208.5 325.55"/>
    <path class="cls-7" d="m301.5,185.97l-5.29-9.45-10.63-6.09c.33,1.99.67,4,1.02,5.99l6.34,3.64,2.5,18.09,2.68,5.25c.83.21,1.66.41,2.5.59l-2.03-9.26,2.91-8.79v.02h0Z"/>
    <path class="cls-7" d="m206.13,376.36l23.93,9.57c-.61-1.93-1.23-3.86-1.84-5.79l-2.5-1-17.3-9.05-13.56,2.57-9.78-6.45s-.11,0-.17-.03l-.02-.1-5.53-3.63-2.69-6.48-4.54-20.45-4.29,1.75,12.48,30.43,13.17,9.11,12.63-.48h0v.03h.03-.02Z"/>
    <path class="cls-7" d="m225.57,354.45s.11,0,.17.03l-.18-.13.02.1h-.01Z"/>
    <path class="cls-7" d="m346.54,195.14l-.48-7.73c-.79-.32-1.59-.65-2.38-.97l2.86,8.7h0Z"/>
    <path class="cls-7" d="m160.22,334.17l4.74,8.72-2.83-9.21-1.9.49h-.01Z"/>
    <polygon class="cls-7" points="203.57 318.44 203.65 318.98 208.5 325.55 208.51 325.55 205.98 319.37 203.57 318.44"/>
    <polygon class="cls-7" points="205.98 319.37 208.51 325.55 212.8 323.79 212.36 321.82 205.98 319.37"/>
    <path class="cls-7" d="m158.29,334.66l3.85-.97c-1.02-3.35-2.05-6.7-3.09-10.05-.25,3.68-.52,7.36-.76,11.04h0v-.02h0Z"/>
    <path class="cls-7" d="m198.96,329.59l-4.16-1.6-1.71-3.65v.03l-.62,6.05,7.9,5-.91-5.14-.51-.7h.01Z"/>
    <polygon class="cls-7" points="203.15 318.29 203.65 318.98 203.57 318.44 203.15 318.29"/>
    <rect class="cls-5" x="88.61" y="363.54" width="51.9" height=".75" transform="translate(-171.38 111.33) rotate(-31.07)"/>
    <rect class="cls-5" x="229.22" y="451.62" width="51.9" height=".75" transform="translate(-34.53 21.31) rotate(-4.48)"/>
    <g>
      <path class="cls-6" d="m664.55,395.71l-21.4-20.83.91-1.15c-2.31-2.19-4.61-4.36-6.89-6.48l-65.37,85.65.04.04,46.57,35.54,42.15-55.21-14.51-14.12,18.51-23.44h0Z"/>
      <path class="cls-6" d="m679.13,466.69h0c1.5,3.53,3,6.93,4.47,10.23l.52-.4-5.12-11.83,10.57-8.16-3.47-8.02-21.91,17.47c4.82.1,9.79.35,14.93.72Z"/>
    </g>
    <polygon class="cls-1" points="678.29 278.04 678.3 278.05 678.71 277.45 721.82 306.31 721.83 306.3 678.71 277.42 678.29 278.04"/>
    <polygon class="cls-1" points="828.14 371.9 825.56 375.75 782.43 346.86 782.03 347.51 782.04 347.51 782.44 346.9 825.55 375.76 825.56 375.75 828.14 371.9 855.01 349.58 855.01 349.58 828.14 371.9"/>
    <polygon class="cls-1" points="751.29 280.11 687.3 237.28 675.68 269.83 724.4 302.46 751.29 280.11"/>
    <polygon class="cls-1" points="825.13 376.4 815.98 390.08 815.98 390.08 825.13 376.4 825.13 376.4"/>
    <polygon class="cls-1" points="668.13 281.13 633.33 333.08 633.34 333.08 668.13 281.13 668.13 281.13"/>
    <polygon class="cls-1" points="570.13 433.31 635.5 347.65 635.5 347.65 570.13 433.31"/>
    <path class="cls-1" d="m660.36,247.08l-2.24,6.65,4.89,17.89,8.22,4.87,4.45-6.67,11.62-32.56,63.97,42.83-26.88,22.34-2.56,3.84v.02h0l-.41.63h0l-25.87,38.63c3.64-1.16,7.24-2.34,10.78-3.53,10.5,10.09,21.38,20.84,32.6,32.23,6.78-2.49,13.35-5.05,19.7-7.69l.9-9.86,17.2-19.1,3.41-.26,10.94-30.65,22.06,14.78h0l-141.94-95.07.27.53-11.05,20.12h0v.02s-.03,0-.03,0h0Z"/>
    <path class="cls-1" d="m732.03,426.96l-6.8-2.63-16.98,2.84,13.74-6.14,15.63-1.38,15.14-19.85,5.28-8.24.42-2.71c-6.49,2.25-13.21,4.4-20.13,6.47-10.5-12.08-20.69-23.46-30.54-34.2-3.6.98-7.26,1.92-10.97,2.85l-80.08,104.91.04.04-13.45,31.42,38.2,29.16,27.9-20.4-.04-.04,62.66-82.09h-.03s0-.01,0-.01Z"/>
    <path class="cls-1" d="m633.33,333.08l34.79-51.96-8.91-7.26-6.22-24.93,12.23-21.29-1.88-6.4-10.32-6.92c-3.58.21-7.14.43-10.71.68l-.31.26c2.31,15.03,4.95,29.99,7.89,44.91-11.11.94-22.23,2.05-33.35,3.29.26.25.51.5.77.75-4.13.68-8.25,1.38-12.37,2.12-.7-.27-1.42-.52-2.14-.74,3.24,15.04,6.8,30.01,10.63,44.9-15.41,2.17-30.8,4.62-46.16,7.39,2.06,7.45,4.19,14.88,6.41,22.3,18.52-4.04,36.17-8.21,52.98-12.56,2.2,1.79,4.42,3.61,6.65,5.46h0v-.02s.02,0,.02,0h0Z"/>
    <polygon class="cls-1" points="763.46 358.6 763.71 362.76 775.97 344.43 775.57 344.55 763.46 358.6"/>
    <path class="cls-6" d="m678.29,278.07h0l-.02-.02.42-.63,43.13,28.88,2.56-3.84-48.72-32.62-4.45,6.67,3.64,2.15,7.01,18.23,6.77,13.33-.76,10.79-7.25,5.75-6.14,16.07,1.65-14.96,7.84-16.49-14.95-29.5-.9-.73-34.79,51.96c8.73,7.2,17.72,14.79,26.97,22.82,12.25-3.31,23.99-6.75,35.23-10.34l25.87-38.63-43.11-28.87v.02h0v-.03h0-.01Z"/>
    <polygon class="cls-5" points="721.42 306.92 721.41 306.93 721.42 306.95 721.84 306.31 721.82 306.31 721.41 306.92 721.82 306.31 721.82 306.31 721.42 306.92"/>
    <path class="cls-6" d="m779.5,374.97c-4.2,1.39-8.51,2.75-12.91,4.05l.05,6.76-12.02,12.79-7.94,10.54-9.65,3.99-1.84-.61-61.94,68.71.04.04,46.85,30.37,97.17-107.79c-2.73,1.14-5.52,2.24-8.35,3.32-10.08-11.3-19.92-22-29.43-32.15l-.02-.02h0s0,0,0,0Z"/>
    <polygon class="cls-6" points="780.74 337.34 793.12 336.46 784.98 330.99 780.74 337.34"/>
    <polygon class="cls-5" points="825.13 376.4 825.15 376.4 825.57 375.77 825.55 375.76 825.15 376.37 825.13 376.4"/>
    <polygon class="cls-7" points="663.51 421.21 663.51 421.21 666.6 416.58 658.37 411.69 653.49 393.8 655.72 387.16 666.79 367.05 666.52 366.53 658.75 361.32 660.62 367.72 648.38 389 654.58 413.93 663.51 421.2 663.51 421.21"/>
    <polygon class="cls-7" points="668.14 281.11 659.21 273.86 668.13 281.13 668.14 281.11"/>
    <polygon class="cls-7" points="683.96 311.36 676.14 327.85 674.47 342.82 680.63 326.74 687.89 320.99 688.64 310.21 681.88 296.88 674.87 278.64 671.23 276.48 668.13 281.13 669.03 281.84 683.96 311.36"/>
    <path class="cls-7" d="m748.33,369.47l-.09,2.74-4.28,8.79,7.85-13.24c-1.15.57-2.31,1.14-3.47,1.7h0s0,0,0,0Z"/>
    <path class="cls-7" d="m780.1,337.36l-3.41.26-17.2,19.1-.9,9.86c1.19-.51,2.37-1,3.56-1.51l1.56-2.32-.25-4.15,12.1-14.04.41-.12,3.45-5.15.67-1.92h0Z"/>
    <polygon class="cls-7" points="715.86 405.67 702.95 413.39 719.47 408.59 726.52 410.42 731.22 402.48 715.86 405.67"/>
    <polygon class="cls-7" points="775.97 344.43 782.33 342.69 784.25 342.52 779.43 339.28 775.97 344.43"/>
    <path class="cls-7" d="m794.28,416.14l-10.2,20.96-2.51.53-4.71,7.93,1.91.49,9.07-5.93,6.53-13.43,10.3-16.61-.9-7.97c-.54.27-1.06.53-1.61.8l-7.85,13.24h0l-.03-.02h0Z"/>
    <path class="cls-7" d="m753.4,366.96l-.18-1.61-1.42,2.4c.54-.27,1.07-.53,1.61-.8h0v.02h0Z"/>
    <polygon class="cls-7" points="780.74 337.34 780.1 337.36 779.43 339.28 780.74 337.34"/>
    <polygon class="cls-7" points="779.43 339.28 784.25 342.52 800.04 341.09 793.12 336.46 780.74 337.34 779.43 339.28"/>
    <path class="cls-6" d="m311.06,484.98c2.03-5.3,4.06-10.55,6.1-15.74-5.05-6.22-10.19-5.59-14.18,1.76l-3.74,6.9,10.14,7.6c.55-.26,1.1-.43,1.67-.52h0Z"/>
    <path class="cls-6" d="m417.55,248.16c-2.35,1.39-4.7,2.78-7.04,4.19l12.36,1.36-5.32-5.54h0Z"/>
    <path class="cls-6" d="m398.84,296.48c-2.35,1.39-4.7,2.78-7.04,4.19l12.36,1.36-5.32-5.54h0Z"/>
    <path class="cls-6" d="m471.1,275.59c-2.35,1.39-4.7,2.78-7.04,4.19l12.36,1.36-5.32-5.54h0Z"/>
    <polygon class="cls-1" points="120.33 454.95 120.33 454.95 120.33 454.95 125.79 481.88 125.79 481.88 120.33 454.95"/>
    <path class="cls-1" d="m199.41,424.75h.02l-14.29-53.65h-.02l14.3,53.66h-.01Z"/>
    <path class="cls-1" d="m133.45,378.39l-46.35,23.36.17.33.17.34,46.34-23.35,57.57,114.29h.02l-57.57-114.31-.17-.33-6.24-34.38h0l6.24,34.38-.17-.34h-.01Z"/>
    <polygon class="cls-1" points="216.1 454.61 199.48 424.75 199.46 424.75 216.08 454.62 216.1 454.61"/>
    <path class="cls-1" d="m140.45,346.1c1.51.1,3.03.2,4.53.32l-1.35-5.11-15.03-.86c.45,1.76.92,3.49,1.36,5.24,3.42.06,6.85.21,10.27.41l.19-.14v.15h.04,0Z"/>
    <polygon class="cls-1" points="120.17 454.21 120.19 454.28 120.17 454.21 120.17 454.21"/>
    <path class="cls-1" d="m92.83,432.38l-12.98-7.49-15.75-4.63-15.72,3.06-13.77-15.28,11.92,20.82,8.03-3.75,5.58.98,3.89-3.35,14.53,5.31,12.02,9.17,6.46,3.73c3-1.79,6.02-3.53,9.08-5.21l-13.31-3.38h.02v.02Z"/>
    <path class="cls-1" d="m158.35,479.17l-44.49-120.72,6.34,5.66,6.8,10.76,11.47,2.79,5.26-4.64c-3.42.15-6.83.37-10.25.67-.63-1.69-1.27-3.38-1.91-5.07l-.42.03-20.65-19.2h0l-.7-.65-4.92-3.19c-3.44.61-6.86,1.3-10.27,2.04l4.01,4.55,9.19.93,6.02,5.35,44.49,120.72h.05-.05.02v-.03h0Z"/>
    <path class="cls-1" d="m143.2,357.63l2.78,12.86,14.46,4.49-9.68-6.7-5.77-21.86c-1.51-.12-3.02-.22-4.53-.32l2.75,11.53h-.02,0Z"/>
    <path class="cls-1" d="m110.57,370.94l-1.61-4.53-3.97.62,4.88,3.24.69.66h.01Z"/>
    <path class="cls-1" d="m83.34,363.46h0l8.24,33.95.19.32,64.18,110.73c11.38-.35,22.83.04,34.26,1.2,3.82,10.55,7.53,21.12,11.13,31.73-3.6-10.6-7.29-21.18-11.13-31.73-11.42-1.16-22.86-1.56-34.26-1.2l27.83,48.03h.05l23.85,24.47,41.58-24.1h0l-8.13-33.57h-.05l-75.7-130.61-8.63-4.37-8.08-23.18-3.85-1.76,2.59,8,3.99,28.88,12.45,9.21-8.83,26.47,4.43,10.92-9.64-11.69,4.72-12.28,4.07-11.29-7.25.26-7.13-9.42,1.53-12.63-2.63-16.35-6.54-6.52-.29-7.46-10.27-4.69c-.25-1.23-.51-2.48-.77-3.71-3.76-.22-7.52-.41-11.27-.67-.47-1.29-.93-2.6-1.4-3.88l-29.61,17.15.41-.24h0v.02-.02h0l-.04.03h0Z"/>
    <polygon class="cls-5" points="120.25 454.59 120.25 454.59 120.19 454.28 120.25 454.59"/>
    <polygon class="cls-5" points="120.33 454.95 120.33 454.95 120.24 454.59 120.33 454.95"/>
    <polygon class="cls-5" points="137.96 450.99 149.84 448.57 137.96 450.99 137.96 450.99"/>
    <path class="cls-6" d="m144.31,431.24c9.62-1.34,19.31-2.18,29.04-2.49,4.19,10.3,8.28,20.65,12.23,31.03,2.62,0,5.24.06,7.85.13l-57.3-114.43-46.4,23.24-.17-.34-6.01,3.01h0l18.26,36.47c4.2-1.17,8.41-2.26,12.66-3.23,4.28,8.04,8.43,16.13,12.56,24.26l14.88-2.38,2.41,4.7h0l-.02.02h0Z"/>
    <path class="cls-6" d="m107.3,329.76l1.61,4.53h0l20.42,19.45.42-.02c-3.09-8.58-6.24-17.13-9.49-25.62-4.33.45-8.65,1.01-12.96,1.66h0Z"/>
    <path class="cls-6" d="m167.51,406.88c-1.77-10.98-3.68-21.93-5.7-32.87-9.58-1.67-19.25-2.8-28.94-3.44l6.02,21.78,9.75,6.59-14.52-4.31-2.93-12.82-2.88-11.49c-.07,0-.15-.01-.22,0l-5.67,4.14-11.16-3.84-5.78-11.34-5.79-6.22,33.14,124.32h.05l-.09-.38,50.16-13.36.08.37,6.45-1.72-14.3-53.66c-2.55-.61-5.1-1.18-7.66-1.72h-.02v-.03h.01Z"/>
    <path class="cls-6" d="m140.42,345.95l-.19.14c.07,0,.15,0,.22.02v-.15h-.03Z"/>
    <polygon class="cls-6" points="108.91 334.29 107.3 329.76 107.3 329.76 108.91 334.29 108.91 334.29"/>
    <polygon class="cls-6" points="96.63 358.98 96.63 358.98 96.62 358.99 114.96 395.41 114.96 395.41 96.63 358.98"/>
    <polygon class="cls-6" points="51.14 429.66 51.14 429.66 110.67 381.6 51.14 429.66"/>
    <polygon class="cls-6" points="118.12 405.84 124.16 413.31 124.41 413.61 111.04 381.3 51.17 429.66 78.75 450.41 72.5 442.67 118.12 405.84"/>
    <polygon class="cls-6" points="78.75 450.41 51.17 429.66 111.04 381.3 111.04 381.3 110.67 381.6 51.14 429.66 78.76 450.44 78.75 450.41"/>
    <polygon class="cls-6" points="92.45 377.49 92.25 377.18 136.64 350.26 131.65 342.05 81.52 372.44 86.68 380.96 86.69 380.98 92.45 377.49"/>
    <polygon class="cls-6" points="99.05 344.68 99.05 344.71 99.06 344.7 99.05 344.68"/>
    <polygon class="cls-6" points="112.82 518.62 188.07 503.35 173.27 472.54 173.24 472.54 173.24 472.54 173.22 472.54 166.68 473.87 166.77 474.23 115.9 484.57 115.82 484.2 115.82 484.2 115.82 484.2 112.82 518.62"/>
    <polygon class="cls-6" points="199.47 424.73 199.5 424.72 199.5 424.72 199.47 424.73"/>
    <path class="cls-6" d="m12.33,438.84l17.72,21.97,101.32-81.8c-4.61-8.41-9.11-16.87-13.52-25.36L12.34,438.85h-.01Z"/>
    <path class="cls-4" d="m.08,461.1c-1.13,9.48,10.34,17.09,18.88,10.2h0l8.03-6.5h0l105.52-85.21h0c-1.39-2.66-2.74-5.32-4.12-7.98-8.34.53-16.67.94-24.97,1.34l-22.58,18.23c-.19.14-.39.3-.58.43-6.03,4.06-13.85-2.62-10.39-9.36h0l12.36-23.95c-3.6-7.78-7.12-15.61-10.57-23.44-2.44.02-4.87,0-7.28.03L1.37,456.96c-.71,1.39-1.14,2.77-1.28,4.14h0v-.02h0v.02Z"/>
    <polygon class="cls-5" points="120.07 454.82 120.43 454.75 120.43 454.75 120.07 454.82"/>
    <polygon class="cls-5" points="120.24 454.59 120.33 454.95 120.25 454.59 120.24 454.59"/>
    <rect class="cls-5" x="88.75" y="363.86" width="51.9" height=".75" transform="translate(-171.48 111.4) rotate(-31.06)"/>
    <rect class="cls-5" x="131.31" y="469.61" width="51.9" height=".75" transform="translate(-114.62 55.62) rotate(-14.77)"/>
    <path class="cls-6" d="m112.74,386.45l-2.38,4.55,8.69,3.17c.41-.23.84-.39,1.28-.52,1.15-3.39,2.31-6.74,3.49-10.06-4.53-3.01-8.55-1.98-11.08,2.86h0Z"/>
    <path class="cls-6" d="m226.95,416.86c-6.76-1.33-13.76.16-19.41,4.16l-5.59,3.95,14.38,1.2c.07-.02.15-.04.22-.06-.12-.13-.26-.26-.39-.37,3.59-2.98,7.17-5.94,10.77-8.89h.02,0Z"/>
    <path class="cls-6" d="m225.2,450.45l-2.38,4.55,8.69,3.17c.41-.23.84-.39,1.28-.52,1.15-3.39,2.31-6.74,3.49-10.06-4.53-3.01-8.55-1.98-11.08,2.86h0Z"/>
    <path class="cls-6" d="m521.15,339.57c2.78-5.16,5.57-10.26,8.37-15.31-5.88-6.55-12.25-6.26-17.56.81l-4.98,6.64,12.08,8.27c.69-.22,1.38-.36,2.09-.41h0Z"/>
    <path class="cls-6" d="m246.45,356.78c-6.83-.92-13.73.99-19.12,5.32l-5.34,4.28,14.43.33c.07-.02.15-.05.22-.07-.13-.12-.27-.24-.41-.35,3.4-3.19,6.8-6.36,10.22-9.52h0Z"/>
    <path class="cls-6" d="m249.15,324.38c-2.26,1.54-4.52,3.07-6.76,4.62l12.42.58-5.66-5.19h0Z"/>
    <path class="cls-6" d="m317.27,205.26c-2.26,1.54-4.52,3.07-6.76,4.62l12.42.58-5.66-5.19h0Z"/>
    <path class="cls-6" d="m298.45,515.72l-3.04,4.13,8.1,4.46c.44-.16.89-.26,1.34-.32,1.65-3.17,3.31-6.31,4.99-9.41-4.02-3.67-8.15-3.26-11.39,1.14h0Z"/>
    <path class="cls-6" d="m290.03,432.01c-2.35,1.39-4.7,2.78-7.04,4.19l12.36,1.36-5.32-5.54h0Z"/>
    <path class="cls-6" d="m280.2,500.63c-2.35,1.39-4.7,2.78-7.04,4.19l12.36,1.36-5.32-5.54h0Z"/>
    <path class="cls-6" d="m438.15,262.59c-2.35,1.39-4.7,2.78-7.04,4.19l12.36,1.36-5.32-5.54h0Z"/>
    <path class="cls-6" d="m260.12,461.4l-3.04,4.13,8.1,4.46c.44-.16.89-.26,1.34-.32,1.65-3.17,3.31-6.31,4.99-9.41-4.02-3.67-8.15-3.26-11.39,1.14h0Z"/>
    <path class="cls-6" d="m656.31,403.68l-3.26,3.96,7.85,4.89c.45-.14.9-.21,1.36-.25,1.82-3.08,3.65-6.12,5.49-9.13-3.82-3.88-7.96-3.7-11.44.52h0Z"/>
    <path class="cls-6" d="m589.99,462.93c-2.42,1.26-4.84,2.52-7.26,3.8l12.27,2.03-5.01-5.82h0Z"/>
    <path class="cls-6" d="m681.51,426.14c-2.59-.87-5.17-1.73-7.77-2.59l7.06,10.24.71-7.65h0s0,0,0,0Z"/>
    <polygon class="cls-1" points="706.17 454.28 706.17 454.31 721.66 457.77 721.78 457.22 721.66 457.74 706.17 454.28"/>
    <polygon class="cls-1" points="671 446.45 671 446.48 699.35 452.79 699.33 452.75 671 446.45"/>
    <path class="cls-1" d="m747.7,495.19h0s-.04.37-.04.37l-151.77-17.32h-.02s151.8,17.33,151.8,17.33l.04-.38h0Z"/>
    <path class="cls-1" d="m747.7,495.18l-151.16-17.25h-.02s151.18,17.26,151.18,17.26h0Z"/>
    <polygon class="cls-1" points="565.42 475.97 605.5 484.91 605.66 484.18 605.64 484.17 605.47 484.91 565.42 475.97"/>
    <path class="cls-1" d="m663.62,456.35c-4.39-1.13-8.76-2.25-13.12-3.32-1.97.9-3.96,1.82-5.96,2.72l18.25,2.08.82-1.49Z"/>
    <polygon class="cls-1" points="563.14 474.7 559.9 473.98 559.9 473.98 563.14 474.7"/>
    <polygon class="cls-6" points="564.37 474.76 606.88 484.23 606.88 484.23 606.9 484.24 606.74 484.98 566.66 476.04 561.34 474.87 561.5 475.48 556.38 483.2 555.55 499.97 615.2 506.78 614.74 490.39 573.06 481.1 614.74 490.39 614.49 481.2 614.47 481.2 614.47 481.2 614.42 481.2 559.88 469.03 561.14 474.05 564.37 474.76"/>
    <polygon class="cls-6" points="552.46 485.65 553.88 474.5 540.7 498.27 555.44 499.95 552.46 485.65"/>
    <path class="cls-6" d="m730.07,478.12l-.67-24.13h-.05s-25.98-5.8-25.98-5.8l2.4,5.24,16.05,3.58-.05.21-.12.55-15.48-3.45.81,1.77,5.66,8.74-.98,8.77-1.42,1.39-2.87-5.83,1.05-2.14-8.82-13.65h0s-.28-.57-.28-.57l-28.35-6.32v-.02h0l.16-.73,27.76,6.18-2.6-5.28-24.13-5.38-14.98,26.99c3.55.91,7.1,1.85,10.65,2.8l62.21,7.1.02-.02h0Z"/>
    <path class="cls-6" d="m674.27,459.15c-3.56-.95-7.11-1.88-10.65-2.8l-.82,1.49,11.49,1.31h0Z"/>
    <polygon class="cls-6" points="750.84 467.53 750.8 467.9 750.8 467.9 750.84 467.53"/>
    <polygon class="cls-6" points="747.7 495.19 747.65 495.58 747.66 495.56 747.7 495.19 747.7 495.19 747.7 495.19"/>
    <path class="cls-6" d="m674.27,459.15l-11.49-1.31-.23.43,14.5,1.64c-.93-.25-1.86-.51-2.78-.76h0Z"/>
    <path class="cls-4" d="m612.9,502.68l-79.61-16.67c3.38,3.33,6.77,6.65,10.17,9.95-3.54,2.95-7.04,5.93-10.54,8.93,14.55,3.27,29.23,6.85,44.01,10.78,12.2-4.45,24.19-8.77,35.98-12.98h0Z"/>
    <path class="cls-6" d="m762.8,452.78c1.82-3.08,3.65-6.12,5.49-9.13-3.82-3.88-7.96-3.7-11.44.52l-3.26,3.96,7.85,4.89c.45-.14.9-.21,1.36-.25Z"/>
    <polygon class="cls-5" points="705.79 453.47 706.17 454.28 721.66 457.74 721.78 457.22 721.82 457.03 705.79 453.47"/>
    <polygon class="cls-5" points="698.92 451.92 671.16 445.74 671 446.45 699.33 452.75 698.92 451.92"/>
    <polygon class="cls-5" points="721.82 457.03 721.78 457.22 721.82 457 705.77 453.43 705.79 453.47 721.82 457.03"/>
    <polygon class="cls-5" points="698.92 451.92 698.9 451.89 671.16 445.72 670.99 446.45 671 446.45 671.16 445.74 698.92 451.92"/>
    <path class="cls-6" d="m719.08,531.33l9.49,8.04-1.32-7.56h0c-2.72-.17-5.45-.33-8.18-.46h0s0,0,0,0Z"/>
    <polygon class="cls-5" points="560.11 474.78 565.42 475.97 605.47 484.91 605.64 484.17 563.14 474.7 559.9 473.98 560.11 474.78"/>
    <polygon class="cls-5" points="560.11 474.78 560.11 474.8 565.42 475.97 560.11 474.78"/>
    <polygon class="cls-5" points="605.64 484.17 563.14 474.7 605.64 484.17 605.64 484.17"/>
    <path class="cls-6" d="m749.73,473.17h0c-2.42,1.25-4.84,2.51-7.26,3.79l12.27,2.03-5.01-5.82h0Z"/>
    <path class="cls-7" d="m701.23,443.52l-6.05-1.39c-.12.49-.22.99-.34,1.49l1.48,2.99,7.06,1.58-2.14-4.67h0s0,0,0,0Z"/>
    <polygon class="cls-7" points="699.33 452.75 699.35 452.79 706.17 454.31 706.17 454.28 699.33 452.75"/>
    <polygon class="cls-7" points="705.77 453.43 703.37 448.19 696.31 446.61 698.9 451.89 705.77 453.43"/>
    <polygon class="cls-7" points="699.63 453.35 699.62 453.35 708.44 467.01 707.39 469.15 710.26 474.97 711.68 473.59 712.65 464.82 706.99 456.07 706.17 454.31 699.35 452.79 699.63 453.35"/>
    <polygon class="cls-7" points="706.17 454.28 705.79 453.47 698.92 451.92 699.33 452.75 706.17 454.28"/>
    <polygon class="cls-7" points="698.92 451.92 705.79 453.47 705.77 453.43 698.9 451.89 698.92 451.92"/>
    <path class="cls-6" d="m603.67,458.55l12.27,2.03-5.01-5.82h0c-2.42,1.25-4.84,2.51-7.26,3.79h0Z"/>
    <path class="cls-6" d="m623.21,456.74h.02c-1.72.08-3.43.17-5.16.26l2.28,4.99,2.86-5.25h0Z"/>
    <polygon class="cls-7" points="555.44 499.95 555.55 499.97 556.38 483.2 561.5 475.48 561.34 474.87 556.05 473.68 556.21 472.94 556.24 472.95 556.24 472.95 561.14 474.05 559.88 469.03 557.25 468.46 553.88 474.5 552.46 485.65 555.44 499.95"/>
    <polygon class="cls-7" points="521.62 496.58 521.64 496.14 521.54 496.14 521.62 496.58"/>
    <polygon class="cls-7" points="560.11 474.78 559.9 473.98 555 472.88 554.84 473.62 560.11 474.78"/>
    <polygon class="cls-7" points="554.84 473.62 555 472.88 554.97 472.87 554.81 473.61 560.11 474.8 560.11 474.78 554.84 473.62"/>
    <path class="cls-6" d="m339.92,472.69c1.65-3.17,3.31-6.31,4.99-9.41-4.02-3.67-8.15-3.26-11.39,1.14h0l-3.04,4.13,8.1,4.46c.44-.16.89-.26,1.34-.32h0Z"/>
    <path class="cls-6" d="m339.13,464.1h0c-2.35,1.38-4.7,2.77-7.04,4.18l12.36,1.36-5.32-5.54h0Z"/>
    <path class="cls-6" d="m767.42,482.93c-1.65.96-3.3,1.92-4.96,2.9-7.48-1.27-14.92-2.46-22.33-3.6l-62.31-4.38h.02s.39-1.03.39-1.03l-19.42.71c-13.92,9.1-28.19,18.47-42.81,28.16l152.05-5.38-.62-17.37h0Z"/>
    <g>
      <path class="cls-6" d="m163.34,461.64c8.68,4.89,17.18,10.54,25.44,16.94-.36.97-.74,1.94-1.1,2.9l118.49,11.1c-8.76-6.89-17.44-13.91-26.03-21.03,2.72-2.76,5.47-5.49,8.23-8.22l-121.04-11.34c-1.33,3.23-2.65,6.45-3.98,9.65h0Z"/>
      <path class="cls-4" d="m323.4,508.34c-3.49-3.22-6.96-6.46-10.44-9.7l.02-.02h-.05s.03.02.04.03l-118.41-21.72c-2.81,5.82-5.61,11.62-8.39,17.37,3.41,3.86,6.73,7.87,9.96,12.03l107.61,19.73c6.49-5.99,13.03-11.92,19.66-17.72h0Z"/>
    </g>
    <path class="cls-4" d="m718.27,260.08l81.78,61.72-105.57-108.95c.49,2.76,1,5.51,1.53,8.27-4.61.54-9.21,1.13-13.81,1.75.02.01.04.03.06.05l36.01,37.16h0s0,0,0,0Z"/>
    <path class="cls-7" d="m147.65,415.95l24.61,7.67c-.76-1.88-1.53-3.75-2.29-5.63l-2.57-.8-17.96-7.67-13.32,3.62-10.26-5.66s-.11,0-.17-.02l-.03-.1-5.8-3.19-3.19-6.25-6.13-20.03-4.14,2.08,14.83,29.36,13.84,8.05,12.55-1.47h0v.03h.03Z"/>
    <path class="cls-6" d="m757.41,513.57l-3.26,3.96,7.85,4.89c.45-.14.9-.21,1.36-.25,1.82-3.08,3.65-6.12,5.49-9.13-3.82-3.88-7.96-3.7-11.44.52h0Z"/>
    <path class="cls-6" d="m742.14,527.6c2.31-5.18,4.63-10.31,6.94-15.39-4.71-6.48-9.87-6.13-14.25.99l-4.11,6.69,9.71,8.14c.56-.23,1.12-.37,1.7-.43h0s0,0,0,0Z"/>
    <path class="cls-6" d="m770.13,436.9c-2.42,1.26-4.84,2.52-7.26,3.8l12.27,2.03-5.01-5.82h0Z"/>
    <path class="cls-6" d="m738.67,464.63l-3.26,3.96,7.85,4.89c.45-.14.9-.21,1.36-.25,1.82-3.08,3.65-6.12,5.49-9.13-3.82-3.88-7.96-3.7-11.44.52h0Z"/>
    <path class="cls-6" d="m759.04,535.2h0c-2.42,1.25-4.84,2.51-7.26,3.79l12.27,2.03-5.01-5.82h0Z"/>
    <path class="cls-6" d="m749.06,399.95l-3.26,3.96,7.85,4.89c.45-.14.9-.21,1.36-.25,1.82-3.08,3.65-6.12,5.49-9.13-3.82-3.88-7.96-3.7-11.44.52h0Z"/>
    <path class="cls-6" d="m753.09,444.68c2.31-5.18,4.63-10.31,6.94-15.39-4.71-6.48-9.87-6.13-14.25.99l-4.11,6.69,9.71,8.14c.56-.23,1.12-.37,1.7-.43h0s0,0,0,0Z"/>
    <path class="cls-6" d="m706.07,385.31c-2.42,1.26-4.84,2.52-7.26,3.8l12.27,2.03-5.01-5.82h0Z"/>
    <path class="cls-6" d="m700.36,418.25l-3.26,3.96,7.85,4.89c.45-.14.9-.21,1.36-.25,1.82-3.08,3.65-6.12,5.49-9.13-3.82-3.88-7.96-3.7-11.44.52h0Z"/>
    <path class="cls-6" d="m787.01,438.14h0c-2.42,1.25-4.84,2.51-7.26,3.79l12.27,2.03-5.01-5.82h0Z"/>
    <path class="cls-4" d="m204.31,512.98l-80.4-12.33c3.56,3.14,7.12,6.27,10.69,9.38-3.37,3.14-6.71,6.3-10.04,9.49,14.71,2.48,29.56,5.26,44.53,8.38,11.94-5.1,23.68-10.07,35.22-14.91h0Z"/>
    <path class="cls-7" d="m73.35,450.4l-5.23-25.24c-1.28,1.58-2.54,3.16-3.81,4.73l.55,2.64,2.01,19.43,9.63,9.89.03,11.72s.05.1.06.16l-.07.07.02,6.62-3.92,5.82-14.54,15.08,3.83,2.61,18.48-27.21.33-16.01-7.37-10.26h.03v-.04h-.03Z"/>
    <path class="cls-6" d="m109.41,445.19l-2.38,4.55,8.69,3.17c.41-.23.84-.39,1.28-.52,1.15-3.39,2.31-6.74,3.49-10.06-4.53-3.01-8.55-1.98-11.08,2.86h0Z"/>
    <path class="cls-4" d="m566.43,536.49l80.99-7.54c-4.22-2.18-8.43-4.35-12.65-6.51,2.5-3.86,4.98-7.74,7.44-11.64-14.88,1.17-29.96,2.07-45.23,2.67-10.35,7.84-20.53,15.51-30.55,23.01h0Z"/>
    <polygon class="cls-7" points="111.64 407.02 84.77 410.98 65.51 408.17 43.09 410.64 22.35 423.19 .38 410.54 21.02 431.49 31.16 422.19 38.96 420.45 43.55 413.94 64.45 413.04 82.75 418.59 100.14 421.14 111.96 413.53 122.72 413.66 112.91 407.06 111.64 407.02"/>
    <path class="cls-7" d="m189.79,386.68c-.2-.67-.4-1.33-.62-1.99-3.06-1.04-6.11-2.11-9.17-3.16-.1,1.26-.18,2.53-.26,3.78l8.6,7.31,1.44-5.91.02-.03h-.02,0Z"/>
    <path class="cls-6" d="m451.2,219.57l-3.04,4.13,8.1,4.46c.44-.16.89-.26,1.34-.32,1.65-3.17,3.31-6.31,4.99-9.41-4.02-3.67-8.15-3.26-11.39,1.14h0Z"/>
    <path class="cls-6" d="m500.33,276.38c-6.61-1.95-17.63,15.32-23.63,18.79l-2.01-13.02,14.21,2.53c.07-.01.15-.03.22-.04-.11-.14-.23-.28-.35-.41,3.84-2.64,7.69-5.25,11.55-7.85h.01Z"/>
    <path class="cls-6" d="m533.77,187.35l-3.26,3.96,7.85,4.89c.45-.14.9-.21,1.36-.25,1.82-3.08,3.65-6.12,5.49-9.13-3.82-3.88-7.96-3.7-11.44.52h0Z"/>
    <path class="cls-6" d="m438.42,269.51l-3.04,4.13,8.1,4.46c.44-.16.89-.26,1.34-.32,1.65-3.17,3.31-6.31,4.99-9.41-4.02-3.67-8.15-3.26-11.39,1.14h0Z"/>
    <path class="cls-6" d="m580.86,467.9l-3.26,3.96,7.85,4.89c.45-.14.9-.21,1.36-.25,1.82-3.08,3.65-6.12,5.49-9.13-3.82-3.88-7.96-3.7-11.44.52h0Z"/>
    <path class="cls-6" d="m539.03,464.93c2.03-5.3,4.06-10.55,6.1-15.74-5.05-6.22-10.19-5.59-14.18,1.76l-3.74,6.9,10.14,7.6c.55-.26,1.1-.43,1.67-.52h0Z"/>
    <path class="cls-6" d="m493.41,204.85c-2.35,1.39-4.7,2.78-7.04,4.19l12.36,1.36-5.32-5.54h0Z"/>
    <path class="cls-6" d="m474.7,253.17c-2.35,1.39-4.7,2.78-7.04,4.19l12.36,1.36-5.32-5.54h0Z"/>
    <path class="cls-6" d="m526.42,495.67l-3.04,4.13,8.1,4.46c.44-.16.89-.26,1.34-.32,1.65-3.17,3.31-6.31,4.99-9.41-4.02-3.67-8.15-3.26-11.39,1.14h0Z"/>
    <path class="cls-6" d="m514.47,528.93c2.03-5.3,4.06-10.55,6.1-15.74-5.05-6.22-10.19-5.59-14.18,1.76l-3.74,6.9,10.14,7.6c.55-.26,1.1-.43,1.67-.52h0Z"/>
    <path class="cls-6" d="m455.43,326.2c-2.35,1.39-4.7,2.78-7.04,4.19l12.36,1.36-5.32-5.54h0Z"/>
    <path class="cls-6" d="m508.17,480.58c-2.35,1.39-4.7,2.78-7.04,4.19l12.36,1.36-5.32-5.54h0Z"/>
    <path class="cls-6" d="m539.59,263.91c-2.42,1.26-4.84,2.52-7.26,3.8l12.27,2.03-5.01-5.82h0Z"/>
    <path class="cls-6" d="m425.52,355.59l-3.04,4.13,8.1,4.46c.44-.16.89-.26,1.34-.32,1.65-3.17,3.31-6.31,4.99-9.41-4.02-3.67-8.15-3.26-11.39,1.14h0Z"/>
    <path class="cls-6" d="m550.56,533.87c1.65-3.17,3.31-6.31,4.99-9.41-4.02-3.67-8.15-3.26-11.39,1.14h0l-3.04,4.13,8.1,4.46c.44-.16.89-.26,1.34-.32h0Z"/>
    <path class="cls-6" d="m585.16,487.96h0c-2.42,1.25-4.84,2.51-7.26,3.79l12.27,2.03-5.01-5.82h0Z"/>
    <path class="cls-6" d="m303.7,156.38l-3.04,4.13,8.1,4.46c.44-.16.89-.26,1.34-.32,1.65-3.17,3.31-6.31,4.99-9.41-4.02-3.67-8.15-3.26-11.39,1.14h0Z"/>
    <path class="cls-6" d="m352.83,213.19c-6.61-1.95-17.63,15.32-23.63,18.79l-2.01-13.02,14.21,2.53c.07,0,.15-.03.22-.04-.11-.14-.23-.28-.35-.41,3.84-2.64,7.69-5.25,11.55-7.85h.01Z"/>
    <path class="cls-6" d="m290.92,206.32l-3.04,4.13,8.1,4.46c.44-.16.89-.26,1.34-.32,1.65-3.17,3.31-6.31,4.99-9.41-4.02-3.67-8.15-3.26-11.39,1.14h0Z"/>
    <path class="cls-6" d="m351.65,275.3l-3.04,4.13,8.1,4.46c.44-.16.89-.26,1.34-.32,1.65-3.17,3.31-6.31,4.99-9.41-4.02-3.67-8.15-3.26-11.39,1.14h0Z"/>
    <path class="cls-6" d="m328.96,315.98c2.03-5.3,4.06-10.55,6.1-15.74-5.05-6.22-10.19-5.59-14.18,1.76l-3.74,6.9,10.14,7.6c.55-.26,1.1-.43,1.67-.52h0Z"/>
    <path class="cls-6" d="m345.91,141.66c-2.35,1.39-4.7,2.78-7.04,4.19l12.36,1.36-5.32-5.54h0Z"/>
    <path class="cls-6" d="m327.2,189.98c-2.35,1.39-4.7,2.78-7.04,4.19l12.36,1.36-5.32-5.54h0Z"/>
    <path class="cls-6" d="m316.35,346.72l-3.04,4.13,8.1,4.46c.44-.16.89-.26,1.34-.32,1.65-3.17,3.31-6.31,4.99-9.41-4.02-3.67-8.15-3.26-11.39,1.14h0Z"/>
    <path class="cls-6" d="m304.4,379.98c2.03-5.3,4.06-10.55,6.1-15.74-5.05-6.22-10.19-5.59-14.18,1.76l-3.74,6.9,10.14,7.6c.55-.26,1.1-.43,1.67-.52h0Z"/>
    <path class="cls-6" d="m307.93,263.01c-2.35,1.39-4.7,2.78-7.04,4.19l12.36,1.36-5.32-5.54h0Z"/>
    <path class="cls-6" d="m298.1,331.63c-2.35,1.39-4.7,2.78-7.04,4.19l12.36,1.36-5.32-5.54h0Z"/>
    <path class="cls-6" d="m366.51,156.09c-2.35,1.39-4.7,2.78-7.04,4.19l12.36,1.36-5.32-5.54h0Z"/>
    <path class="cls-6" d="m278.02,292.4l-3.04,4.13,8.1,4.46c.44-.16.89-.26,1.34-.32,1.65-3.17,3.31-6.31,4.99-9.41-4.02-3.67-8.15-3.26-11.39,1.14h0Z"/>
    <path class="cls-6" d="m340.49,384.92c1.65-3.17,3.31-6.31,4.99-9.41-4.02-3.67-8.15-3.26-11.39,1.14h0l-3.04,4.13,8.1,4.46c.44-.16.89-.26,1.34-.32h0Z"/>
    <path class="cls-6" d="m357.03,295.1h0c-2.35,1.38-4.7,2.77-7.04,4.18l12.36,1.36-5.32-5.54h0Z"/>
    <path class="cls-6" d="m577.32,499.3c2.03-5.3,4.06-10.55,6.1-15.74-5.05-6.22-10.19-5.59-14.18,1.76l-3.74,6.9,10.14,7.6c.55-.26,1.1-.43,1.67-.52h0Z"/>
    <path class="cls-6" d="m564.71,530.04l-3.04,4.13,8.1,4.46c.44-.16.89-.26,1.34-.32,1.65-3.17,3.31-6.31,4.99-9.41-4.02-3.67-8.15-3.26-11.39,1.14h0Z"/>
    <path class="cls-6" d="m546.46,514.95c-2.35,1.39-4.7,2.78-7.04,4.19l12.36,1.36-5.32-5.54h0Z"/>
    <path class="cls-6" d="m526.38,475.72l-3.04,4.13,8.1,4.46c.44-.16.89-.26,1.34-.32,1.65-3.17,3.31-6.31,4.99-9.41-4.02-3.67-8.15-3.26-11.39,1.14h0Z"/>
    <path class="cls-6" d="m605.39,478.42h0c-2.35,1.38-4.7,2.77-7.04,4.18l12.36,1.36-5.32-5.54h0Z"/>
    <path class="cls-6" d="m640.57,486.73l-3.04,4.13,8.1,4.46c.44-.16.89-.26,1.34-.32,1.65-3.17,3.31-6.31,4.99-9.41-4.02-3.67-8.15-3.26-11.39,1.14h0Z"/>
    <path class="cls-6" d="m628.62,519.99c2.03-5.3,4.06-10.55,6.1-15.74-5.05-6.22-10.19-5.59-14.18,1.76l-3.74,6.9,10.14,7.6c.55-.26,1.1-.43,1.67-.52h0Z"/>
    <path class="cls-6" d="m622.32,471.64c-2.35,1.39-4.7,2.78-7.04,4.19l12.36,1.36-5.32-5.54h0Z"/>
    <path class="cls-6" d="m664.71,524.93c1.65-3.17,3.31-6.31,4.99-9.41-4.02-3.67-8.15-3.26-11.39,1.14h0l-3.04,4.13,8.1,4.46c.44-.16.89-.26,1.34-.32h0Z"/>
    <path class="cls-6" d="m764.36,349l-3.26,3.96,7.85,4.89c.45-.14.9-.21,1.36-.25,1.82-3.08,3.65-6.12,5.49-9.13-3.82-3.88-7.96-3.7-11.44.52h0Z"/>
    <path class="cls-6" d="m789.57,371.46c-2.59-.87-5.17-1.73-7.77-2.59l7.06,10.24.71-7.65h0s0,0,0,0Z"/>
    <path class="cls-6" d="m814.13,330.63c-2.42,1.26-4.84,2.52-7.26,3.8l12.27,2.03-5.01-5.82h0Z"/>
    <path class="cls-6" d="m808.42,363.57l-3.26,3.96,7.85,4.89c.45-.14.9-.21,1.36-.25,1.82-3.08,3.65-6.12,5.49-9.13-3.82-3.88-7.96-3.7-11.44.52h0Z"/>
    <g>
      <path class="cls-4" d="m778.86,347.33l-14.45,23.67,36.76,31.02v-.02s.01,0,.01,0l15.35,12.94c5.69,4.81,12.87,2.94,16.61-1.68,2.56-3.18,3.51-7.69,1.27-12.26l-25.99-37.43-3.66,6-25.89-22.24h0Z"/>
      <path class="cls-4" d="m751.99,318.98c4.5,6.37-2.92,14.38-9.62,10.36l-155.57-93.4c1.51,10.13,3.16,20.23,4.94,30.31l164.54,98.79,10.5-25.67,29.11,17.82,2.66-6.51-90.38-93.75,43.83,62.04h0Z"/>
    </g>
    <path class="cls-7" d="m815.89,379.52l-10.2,20.96-2.51.53-4.71,7.93,1.91.49,9.07-5.93,6.53-13.43,10.3-16.61-.9-7.97c-.54.27-1.06.53-1.61.8l-7.85,13.24h0l-.03-.02h0Z"/>
    <g id="Group_133" data-name="Group 133">
      <path id="Path_1" data-name="Path 1" class="cls-3" d="m466.05,26.76c11.77.97,22.76,6.37,30.77,15.07l143.31,156.4c8.55,9.31,12.8,21.73,11.78,34.3l-13.98,163.25c-2.14,25.03-24.72,43.62-50.33,41.41l-311.12-26.65c-25.59-2.2-44.68-24.32-42.54-49.36l13.98-163.25c1.13-12.58,7.44-24.1,17.43-31.81L433.18,36.38c9.36-7.23,21.09-10.65,32.87-9.6h.01s0-.02,0-.02h-.01s0,0,0,0Z"/>
      <path id="Path_13" data-name="Path 13" class="cls-7" d="m572.16,328.51l-4.06,47.55,23.38,2.01-.6,6.89-83.88-7.17.6-6.89,23.38,2.01,4.06-47.55-92.62-7.92,2.55-29.76,96.98-112.84,43.06,3.68-12.02,140.59,30.12,2.58-.82,9.45-30.1-2.59h0v-.02s0-.01,0-.01h-.02s0,0,0,0Zm-26.5-106.96l-60.47,69.51,54.11,4.63,6.36-74.17h.01s0,.02,0,.02h0Z"/>
      <path id="Path_14" data-name="Path 14" class="cls-7" d="m434.53,333.38c-5.27,7.98-12.08,14.83-20.03,20.17-8.13,5.47-17.12,9.54-26.6,12.01-9.37,2.56-19.09,3.44-28.76,2.63-4.52-.4-9.03-1.17-13.45-2.26-4.86-1.15-9.6-2.66-14.2-4.62-4.48-1.88-8.76-4.21-12.73-6.99-3.69-2.51-6.9-5.67-9.46-9.35l-1.24,14.48-8.6-.74,5.57-65.32,13.53,1.17c-.44,4.87.53,9.73,2.82,14.06,2.28,4.41,5.43,8.33,9.25,11.5,3.91,3.26,8.31,5.94,12.98,7.93,4.42,1.96,9.13,3.21,13.97,3.68,4.54.33,9.09.04,13.58-.88,4.86-.9,9.58-2.42,14.01-4.55,4.32-2.02,8.15-4.91,11.27-8.51,3.09-3.58,4.94-8.03,5.28-12.73.67-7.81-1.38-14.02-6.16-18.68-5.46-5.1-11.7-9.31-18.49-12.44-7.54-3.64-15.7-7.22-24.52-10.77-8.63-3.42-16.79-7.95-24.27-13.42-7.45-5.42-13.5-12.47-17.76-20.59-4.45-8.35-6.13-19.1-5-32.25.7-9.01,3.92-17.66,9.26-24.98,5.37-7.38,12.06-13.71,19.73-18.62,7.83-5.06,16.42-8.77,25.45-11,8.74-2.29,17.73-3.07,26.73-2.37,4.18.39,8.32,1.06,12.41,1.98,4.57,1.01,9.09,2.38,13.45,4.08,4.27,1.66,8.35,3.78,12.19,6.31,3.51,2.27,6.51,5.22,8.9,8.67l1.07-12.31,7.38.63-5.06,59.14-12.93-1.1c.4-4.22-.62-8.47-2.84-12.05-2.35-3.78-5.3-7.14-8.78-9.91-3.57-2.88-7.55-5.22-11.81-6.9-3.84-1.6-7.87-2.61-11.97-3.06-4.2-.29-8.44-.08-12.62.63-4.61.7-9.06,2.09-13.21,4.15-3.97,1.94-7.56,4.58-10.6,7.78-2.94,3.15-4.74,7.22-5.03,11.52-.67,7.81,1.43,14.05,6.31,18.71,5.44,5.03,11.71,9.12,18.51,12.14,7.44,3.43,15.64,6.81,24.58,10.18,8.63,3.2,16.85,7.57,24.32,12.92,7.36,5.36,13.44,12.28,17.81,20.31,4.59,8.27,6.3,18.96,5.17,32.1-.71,9.77-3.91,19.24-9.31,27.45v.04s.01,0,.01,0l-.02-.06h0l.03.04-.06.02h-.03s0,0,0,0Z"/>
    </g>
  </g>
</svg>