<?xml version="1.0" encoding="UTF-8"?>
<svg id="Layer_2" data-name="Layer 2" xmlns="http://www.w3.org/2000/svg" viewBox="0 0 786.87 479.51">
  <defs>
    <style>
      .cls-1 {
        fill: none;
      }

      .cls-1, .cls-2, .cls-3, .cls-4, .cls-5, .cls-6, .cls-7 {
        stroke-width: 0px;
      }

      .cls-3 {
        fill: #756746;
      }

      .cls-4 {
        fill: #5c5c5c;
      }

      .cls-5 {
        fill: #2c2c7c;
      }

      .cls-6 {
        fill: #d0d8d7;
      }

      .cls-7 {
        fill: #fff;
      }
    </style>
  </defs>
  <g id="Layer_2-2" data-name="Layer 2">
    <g id="Layer_2-2" data-name="Layer 2-2">
      <g id="Layer_2-2-2" data-name="Layer 2-2">
        <path class="cls-5" d="m395.77,37.08l1.1.29-.16-.37c-.31.02-.62.04-.94.07h0Z"/>
        <path class="cls-1" d="m195,182.58l54.08-27.32,1.22,6.68c1.54-3.22,3.1-6.45,4.67-9.67l-59.96,30.29h0v.02s-.01,0-.01,0Z"/>
        <path class="cls-1" d="m192.5,200.91c.25.65.5,1.29.77,1.94l.47-1.62c-.42-.11-.83-.21-1.25-.31h0Z"/>
        <path class="cls-1" d="m171.55,191.52c.21,1.36.41,2.72.61,4.07,3.64.98,7.28,1.91,10.93,2.85-.04-3.61-.07-7.22-.11-10.83l-11.45,3.9h.02,0Z"/>
        <polygon class="cls-1" points="192.21 183.97 182.13 189.07 182.13 189.08 192.22 183.98 192.21 183.97"/>
        <path class="cls-1" d="m191.16,202.41l-4.3-4.96c.99,1.75,1.96,3.49,2.96,5.22.44.06.85.08,1.28.14l.06-.41h0Z"/>
        <path class="cls-6" d="m222.47,243.56l10.26,5.66,13.32-3.62,17.96,7.67,2.57.8c-1.09-2.68-2.17-5.37-3.23-8.08-13.69-.66-27.31-1.47-40.86-2.44h-.02,0Z"/>
        <path class="cls-6" d="m211.44,217.84l-.34-.67,1.61-.81c-.5-1.47-1-2.95-1.49-4.42l-4.06,2.05,6.13,20.03,3.19,6.25,5.79,3.19c-3.21-8.76-6.31-17.56-9.33-26.37l-1.5.76h0Z"/>
        <path class="cls-6" d="m319.98,305.51l-6.34-3.64c1.45,8.45,2.98,16.9,4.61,25.32,2.29.57,4.6,1.1,6.91,1.66l-2.68-5.25-2.5-18.09h0Z"/>
        <path class="cls-6" d="m197.98,215.23l-.87-5.6-10.1,5.1,4.75,8.38,4.3,4.96,1.92-12.83h0Z"/>
        <path class="cls-6" d="m197.54,209.38l2.48.74-1.5-2.96,5.86-2.96c-2.73-.27-5.47-.56-8.19-.85l-.02.79,1.37,5.24h0v.02h0v-.02h0Z"/>
        <path class="cls-6" d="m349.39,97.61l.08-.4c-.09.08-.17.16-.26.24.06.05.12.11.18.16h0Z"/>
        <path class="cls-6" d="m200.02,210.12l6.54,1.94.59,1.93,4.06-2.05c-.82-2.43-1.63-4.85-2.43-7.28-1.47-.14-2.93-.31-4.4-.46l-5.86,2.96,1.5,2.96h0Z"/>
        <path class="cls-5" d="m211.44,217.84l1.5-.76c-.08-.23-.17-.47-.25-.72l-1.61.81.34.67h.02Z"/>
        <path class="cls-5" d="m212.96,217.08l44.82-22.64-.34-.67-44.73,22.59c.08.23.17.47.25.72h0Z"/>
        <path class="cls-6" d="m172.71,201.66c1.73,3.05,3.45,6.1,5.19,9.15l10.1-5.1-1.49-9.69-4.81-1.79-1.83-5.36-7.16-5.23,1.61-2.65-18.64,9.41c2.53,9.23,5.17,18.44,7.91,27.64l10.79-5.45c-.56-3.65-1.09-7.3-1.65-10.94h-.02Z"/>
        <path class="cls-4" d="m183.83,11.96s.02,0,.03-.03c0,0-.02,0-.03.03l-81.15,98.7h0L183.83,11.96Z"/>
        <polygon class="cls-4" points="167.56 163.07 167.56 163.07 187.34 156.33 187.34 156.33 167.56 163.07"/>
        <polygon class="cls-4" points="184.21 156.39 264.03 116.08 264.03 116.08 184.21 156.39 184.21 156.39"/>
        <polygon class="cls-2" points="187.34 156.33 187.34 156.33 167.56 163.07 167.56 163.07 187.34 156.33"/>
        <polygon class="cls-2" points="184.21 156.39 264.03 116.08 264.03 116.07 184.21 156.39 184.21 156.39"/>
        <g>
          <path class="cls-6" d="m222.27,243.44l.19.12c13.55.96,27.18,1.77,40.86,2.44,1.08,2.69,2.15,5.39,3.23,8.08l11.7,3.64,7.22,8.07-.93,9.21,3.99,8.6c4.79.08,9.57.16,14.37.2l-45.12-89.34-44.82,22.64c3.01,8.82,6.11,17.61,9.33,26.37h0v-.04h-.02Z"/>
          <path class="cls-6" d="m211.22,211.94c.5,1.47.99,2.95,1.49,4.42l44.73-22.59-2.08-4.14h0l-44.13,22.3h-.02,0Z"/>
          <path class="cls-6" d="m195,182.58l1.46,6.6-.28,14.18c2.73.29,5.46.57,8.19.85l46.47-23.46,4.49,8.9-4.97-27.28c-.07-.02-.16-.06-.22-.08.05-.1.09-.21.16-.31l-1.22-6.68-54.08,27.32h0v-.02h0v-.02Z"/>
          <path class="cls-6" d="m211.22,211.94l44.13-22.29h0l-4.5-8.91-46.47,23.46c1.46.16,2.93.32,4.4.46.79,2.42,1.61,4.86,2.43,7.28h.01Z"/>
          <path class="cls-6" d="m182.66,160.84l10.26,12.3,2.09,9.43,59.96-30.29c5.43-11.12,11.01-22.16,16.72-33.1-2.57-1.02-5.12-2.06-7.68-3.08l-79.83,40.31-1.54,4.45h.02v-.02h0Z"/>
          <path class="cls-4" d="m157.55,160c.77,2.89,1.56,5.77,2.34,8.67l18.64-9.41,10.86-17.85-5.19,14.99,79.82-40.31c-9.48-3.85-18.92-7.84-28.28-11.98l-102.89,51.97c8.19,1.37,16.42,2.7,24.69,3.94h0v-.02h0Z"/>
          <path class="cls-4" d="m183.83,11.96l-81.15,98.7c2.38.5,4.75,1.02,7.13,1.52,1.72,8.39,3.53,16.77,5.42,25.12l81.81-99.49-.14.04c-15.86.84-3.37-36.57-12.36-26.7-.22.24-.44.5-.69.8,0,0-.02,0-.03.03h0v-.03h0Z"/>
          <path class="cls-6" d="m202.98,50.83c-1.52,3.63-2.29,7.55-2.25,11.5.07,7.95,3.85,15.41,10.2,20.19,3.16,2.38,6.76,4.07,10.59,5.02,4.03.99,8.23,1.25,12.37.75,1.44-.17,2.85-.43,4.23-.77,5.32-9.51,10.76-18.96,16.31-28.31-13.31-6.26-26.47-12.8-39.47-19.64,1.31-2.11,2.62-4.2,3.93-6.31h0c-3.41,1.91-6.49,4.32-9.16,7.16-2.85,3.03-5.14,6.56-6.74,10.41h-.02.01Z"/>
          <path class="cls-6" d="m119.03,153.72c4.6.81,9.21,1.58,13.83,2.33l102.89-51.97c-1.83-.81-3.65-1.6-5.47-2.41,2.43-4.44,4.87-8.85,7.33-13.26-1.19.27-2.41.47-3.63.61-4.22.51-8.51.24-12.63-.77-3.94-.95-7.63-2.71-10.87-5.14-6.54-4.92-10.41-12.61-10.51-20.79-.04-4.05.74-8.06,2.31-11.8,1.62-3.93,3.96-7.53,6.88-10.62,2.25-2.38,4.78-4.45,7.5-6.19l-19.64,4.07-81.81,99.49c1.24,5.48,2.5,10.96,3.8,16.42v.02h0v.02h.02,0Z"/>
        </g>
        <path class="cls-5" d="m201.92,52.01c-1.28,3.83-1.77,7.9-1.45,11.93.68,8.15,5.11,15.53,11.98,19.96,3.4,2.19,7.21,3.67,11.22,4.35,4.19.71,8.48.67,12.66-.14,1.21-.24,2.41-.53,3.58-.87.15-.31.29-.63.44-.93-1.35.43-2.75.8-4.17,1.07-4.08.81-8.29.86-12.39.15-3.88-.66-7.61-2.09-10.93-4.24-6.68-4.3-10.97-11.48-11.63-19.4-.32-3.94.17-7.9,1.42-11.64,1.3-3.96,3.33-7.64,5.96-10.87,2.46-3.03,5.37-5.66,8.62-7.81l-2.16.62c-2.6,1.93-4.97,4.18-7.04,6.71-2.69,3.29-4.76,7.06-6.09,11.1h-.02Z"/>
        <g>
          <path class="cls-1" d="m298.8,190.23h0l.05.75h0l7.77,99.79c5.54,2.35,11.11,4.67,16.69,6.96.62,13.27,1.45,26.55,2.51,39.82-1.06-13.27-1.89-26.55-2.51-39.82-5.59-2.29-11.13-4.63-16.69-6.96l6.09,78.17h.05l10.91,32.38,16.69-1.3c6.34-8.85,12.79-17.61,19.37-26.25-13.82-8.25-27.49-16.77-41-25.58,9.5-12.05,19.25-23.9,29.2-35.53-13.12-8.85-26.07-17.97-38.85-27.36,10.35-11.68,20.91-23.14,31.67-34.38-12.38-9.42-24.58-19.08-36.57-29.02,11.15-11.26,22.5-22.29,34.05-33.08-11.54-9.88-22.88-20.02-34-30.37l-5.78,27.13.36,4.62h0v.03h0Z"/>
          <rect class="cls-5" x="254.61" y="376.06" width="51.9" height=".75" transform="translate(-28.36 22.9) rotate(-4.45)"/>
          <g>
            <path class="cls-6" d="m306.63,290.77c-4.43-1.87-8.81-3.76-13.21-5.65l.35,7.73-2.7-8.75c-2.17-.94-4.36-1.86-6.51-2.81-.17-8.59-.24-17.17-.24-25.75l-19.85-16.45-12.17-3.41-9.74-12.71,11.72,150.53h.05l58.4-4.56-6.09-78.17h0Z"/>
            <path class="cls-6" d="m312.76,368.94h-.05l-58.4,4.56-7.19,33.8,76.56-5.96-10.91-32.39h-.01Zm-58.04,9.9l-.05-.75,51.74-4.02.05.75-51.74,4.02h0Z"/>
          </g>
          <polygon class="cls-5" points="323.79 401.7 323.67 401.32 247.11 407.3 247.04 407.67 323.79 401.7"/>
        </g>
        <path class="cls-6" d="m511.42,295.31c4.63-3.45,9.28-6.88,13.95-10.27-9.6-3.14-20.08-2.11-28.89,2.82l-8.27,4.63,19.78,3.34c1.14-.22,2.28-.4,3.43-.52h0Z"/>
        <path class="cls-6" d="m393.47,250.39l-3.04,4.13,8.1,4.46c.44-.16.89-.26,1.34-.32,1.65-3.17,3.31-6.31,4.99-9.41-4.02-3.67-8.15-3.26-11.39,1.14h0Z"/>
        <path class="cls-6" d="m348.63,353.34c2.5-5.3,5.01-10.55,7.53-15.74-6.23-6.22-12.57-5.59-17.49,1.76l-4.61,6.9,12.51,7.6c.68-.26,1.36-.43,2.06-.52h0Z"/>
        <path class="cls-6" d="m442.6,307.2c-6.61-1.95-17.63,15.32-23.63,18.79l-2.01-13.02,14.21,2.53c.07-.01.15-.03.22-.04-.11-.14-.23-.28-.35-.41,3.84-2.64,7.69-5.25,11.55-7.85h.01Z"/>
        <path class="cls-6" d="m446.32,173.97l-3.04,4.13,8.1,4.46c.44-.16.89-.26,1.34-.32,1.65-3.17,3.31-6.31,4.99-9.41-4.02-3.67-8.15-3.26-11.39,1.14h0Z"/>
        <path class="cls-6" d="m380.69,300.33l-3.04,4.13,8.1,4.46c.44-.16.89-.26,1.34-.32,1.65-3.17,3.31-6.31,4.99-9.41-4.02-3.67-8.15-3.26-11.39,1.14h0Z"/>
        <path class="cls-6" d="m432.83,356.84l-3.04,4.13,8.1,4.46c.44-.16.89-.26,1.34-.32,1.65-3.17,3.31-6.31,4.99-9.41-4.02-3.67-8.15-3.26-11.39,1.14h0Z"/>
        <polygon class="cls-4" points="758.84 218.22 524.24 167.55 524.24 167.55 758.84 218.22 758.84 218.22"/>
        <polygon class="cls-2" points="758.84 218.22 524.24 167.55 524.24 167.55 758.84 218.22 758.84 218.22"/>
        <polygon class="cls-6" points="567.72 225.89 565.98 235.72 581.59 204.45 505.78 191.02 508.25 225.49 509.99 215.66 567.72 225.89"/>
        <rect class="cls-6" x="533.33" y="166.37" width="9.99" height="58.63" transform="translate(285.02 709.42) rotate(-83.73)"/>
        <path class="cls-6" d="m515.73,194.59l166.99,36.07,1.93-5.91c8.13-2.7,16.25-5.39,24.38-8.09-6.33,5.19-12.66,10.38-19,15.57l62.84,13.58,5.95-27.6-234.61-50.67c1.33,2.41,2.67,4.83,4.01,7.23-7.7,3.32-15.36,6.73-22.99,10.22.02.21.03.43.07.65l10.4,8.94h.02v.02h0Z"/>
        <path class="cls-6" d="m490.25,224.6c-2.35,1.39-4.7,2.78-7.04,4.19l12.36,1.36-5.32-5.54h0Z"/>
        <path class="cls-6" d="m696.74,185.14l-54.87-52.52-62.54-43.85c.41.64.81,1.28,1.18,1.95,1.99,3.52,3.26,7.42,3.69,11.44.89,8.13-2.05,16.22-7.95,21.88-2.93,2.8-6.39,4.98-10.18,6.4-3.98,1.51-8.2,2.27-12.45,2.27-4.56,0-9.08-.8-13.35-2.38-3.13-1.12-6.09-2.66-8.83-4.54-4.89,1.22-9.79,2.46-14.69,3.74.66,1.88,1.32,3.76,1.99,5.64l170.55,61.98c7.33,2.66,13.11-6.61,7.46-12.01h-.01Z"/>
        <polygon class="cls-7" points="190.58 218.06 196.74 224.96 198.41 241.42 196.17 253.97 202.73 263.77 209.99 263.92 205.28 274.95 199.86 286.93 208.8 299.14 205.02 288 215.35 262.09 203.44 252.17 201.13 223.1 199 214.98 190.73 210.6 190.58 218.06"/>
        <path class="cls-7" d="m191.55,202.86l-.39-.45-.06.41c.15.02.3.04.45.04h0Z"/>
        <path class="cls-7" d="m191.11,202.81l-.25,1.67,1.99,3.5,4.27,1.27-5.55-6.4c-.15-.02-.3-.04-.45-.04h-.01Z"/>
        <polygon class="cls-7" points="192.22 183.98 195 182.58 195 182.57 192.21 183.97 192.22 183.98"/>
        <path class="cls-7" d="m193.08,189.57l-1.92,12.83.39.45c1.55.17,3.1.33,4.64.49l.28-14.18-1.46-6.6-2.8,1.42.87,5.6h.02l-.02-.02h0Z"/>
        <path class="cls-7" d="m197.11,209.26l.43.14-1.37-5.24.02-.79c-1.55-.16-3.1-.32-4.64-.49l5.55,6.4h0v-.02h0Z"/>
        <polygon class="cls-7" points="176.93 161.91 184.08 167.14 185.92 172.5 190.72 174.28 192.21 183.97 195 182.57 192.92 173.14 182.66 160.84 184.21 156.39 178.54 159.26 176.93 161.91"/>
        <polygon class="cls-7" points="178.54 159.25 184.22 156.39 184.22 156.39 178.54 159.25"/>
        <polygon class="cls-7" points="189.4 141.41 178.54 159.26 184.21 156.39 189.4 141.41"/>
        <path class="cls-7" d="m468.85,98.19c-1.45,8.44-2.89,16.88-4.34,25.31l7.29,7.59c1.07-.63,2.15-1.26,3.22-1.89-2.06-10.34-4.12-20.67-6.17-31.01h0Z"/>
        <path class="cls-7" d="m490.04,164.4l-10.73-8.55c-.03-.21-.05-.43-.09-.65-1.11.56-2.23,1.12-3.34,1.67l4.94,5.88,9.21,1.63h0v.02Z"/>
        <polygon class="cls-7" points="654.84 217.43 662.2 218.73 662.2 218.73 654.84 217.42 654.84 217.43"/>
        <path class="cls-7" d="m649.71,235.38l-7.14,3.78,8.2,1.45,4.53-2.51,1.12-14.27c1.93-1.7,3.85-3.4,5.77-5.1l-7.36-1.31-5.13,17.95h0Z"/>
        <path class="cls-7" d="m656.55,211.45l-1.71,5.97,7.36,1.31c6.13-5.43,12.26-10.84,18.4-16.27-8.02,3-16.04,5.99-24.06,8.99h.01Z"/>
        <rect class="cls-5" x="84.46" y="288.43" width="51.9" height=".37" transform="translate(-133.61 99.03) rotate(-31.22)"/>
        <rect class="cls-5" x="84.27" y="288.12" width="51.9" height=".38" transform="translate(-133.48 98.88) rotate(-31.22)"/>
        <polygon class="cls-4" points="142.48 196.71 26.5 267.03 26.5 267.03 142.48 196.71 142.48 196.71"/>
        <polygon class="cls-2" points="26.5 267.03 142.48 196.71 142.48 196.71 26.5 267.03 26.5 267.03"/>
        <polygon class="cls-7" points="112.04 323.52 94.5 314.81 83.39 304.75 68.97 296.9 52.95 296.56 42.72 278.71 49.99 301.58 58.63 299.62 63.88 301.76 68.38 299.32 81.47 307.57 91.28 319.07 101.32 328.17 110.54 328.05 117.13 332.69 112.82 324.09 112.04 323.52"/>
        <path class="cls-7" d="m190.29,195.32l-5.41-8.32,1.86-.64h0l-3.76,1.27c.04,3.61.07,7.22.11,10.83,3.12.82,6.26,1.63,9.39,2.43-.74-1.87-1.46-3.72-2.2-5.58h0Z"/>
        <path class="cls-7" d="m193.24,202.84c-.25-.65-.5-1.29-.77-1.94-3.13-.8-6.26-1.62-9.39-2.43,0,1.26.02,2.54.04,3.79l9.15,6.61.97-6,.02-.03h-.02,0Z"/>
        <polygon class="cls-7" points="203.02 216.08 197.67 209.91 199 214.98 202.75 216.95 209.48 240.56 217.84 245.43 203.03 216.08 203.02 216.08"/>
        <path class="cls-7" d="m296.32,222.97l-5.29-9.45-10.63-6.09c.33,1.99.67,4,1.02,5.99l6.34,3.64,2.5,18.09,2.68,5.25c.83.21,1.66.41,2.5.59l-2.03-9.26,2.91-8.79v.02h0Z"/>
        <path class="cls-7" d="m244.24,252.02l24.61,7.67c-.76-1.88-1.53-3.75-2.29-5.63l-2.57-.8-17.96-7.67-13.32,3.62-10.26-5.66s-.11,0-.17-.02l-.03-.1-5.8-3.19-3.19-6.25-6.13-20.03-4.14,2.08,14.83,29.36,13.84,8.05,12.55-1.47h0v.03h.03Z"/>
        <path class="cls-7" d="m222.3,243.55s.11,0,.17.02l-.19-.12.03.1h0Z"/>
        <path class="cls-7" d="m341.36,232.14l-.48-7.73c-.79-.32-1.59-.65-2.38-.97l2.86,8.7h0Z"/>
        <path class="cls-7" d="m184.88,187l5.41,8.32-3.54-8.96-1.86.64h-.01Z"/>
        <polygon class="cls-7" points="197.54 209.38 197.67 209.91 203.02 216.08 203.03 216.08 200.02 210.12 197.54 209.38"/>
        <polygon class="cls-7" points="200.02 210.12 203.03 216.08 207.16 213.99 206.57 212.06 200.02 210.12"/>
        <path class="cls-7" d="m183,187.64l3.76-1.27c-1.28-3.26-2.57-6.52-3.87-9.78.04,3.69.06,7.38.11,11.07h0v-.02h0Z"/>
        <path class="cls-7" d="m193.82,220.85l-4.27-1.27-1.99-3.5v.03l-.14,6.08,8.27,4.37-1.31-5.05-.56-.66h0Z"/>
        <polygon class="cls-7" points="197.11 209.26 197.67 209.91 197.54 209.38 197.11 209.26"/>
        <rect class="cls-5" x="208.44" y="205.41" width="51.9" height=".75" transform="translate(-67.37 126.89) rotate(-26.63)"/>
        <rect class="cls-5" x="84.32" y="287.93" width="51.9" height=".75" transform="translate(-132.97 98.27) rotate(-31.07)"/>
        <rect class="cls-5" x="254.71" y="376.04" width="51.9" height=".75" transform="translate(-28.55 23.07) rotate(-4.48)"/>
        <g>
          <path class="cls-6" d="m582.51,299.24c-10.4-6.45-20.48-12.53-30.25-18.26l-45,97.9h0l.05.03,53.23,24.46,55.12-119.92c-10.54,5.33-21.58,10.58-33.15,15.79h0Z"/>
          <polygon class="cls-1" points="581.1 200.22 581.12 200.23 581.39 199.55 629.78 218.26 629.78 218.24 581.38 199.52 581.1 200.22"/>
          <polygon class="cls-1" points="747.89 258.94 746.22 263.26 697.81 244.54 697.55 245.25 697.56 245.25 697.82 244.57 746.21 263.27 746.22 263.26 747.89 258.94 769.21 231.26 769.21 231.26 747.89 258.94"/>
          <polygon class="cls-1" points="652.78 186.24 580.96 158.48 576.76 192.79 631.45 213.94 652.78 186.24"/>
          <polygon class="cls-1" points="745.94 263.98 740.01 279.33 740.01 279.33 745.94 263.98 745.94 263.98"/>
          <polygon class="cls-1" points="571.87 205.46 549.31 263.79 549.32 263.79 571.87 205.46 571.87 205.46"/>
          <polygon class="cls-1" points="509.63 375.43 554.63 277.53 554.63 277.53 509.63 375.43"/>
          <path class="cls-1" d="m556.82,173.95l-.73,6.98,8.69,16.38,9.09,2.95,2.88-7.48,4.2-34.31,71.81,27.76-21.33,27.69-1.66,4.31v.02h0l-.27.7h0l-16.77,43.37c3.3-1.93,6.55-3.87,9.74-5.81,12.46,7.55,25.43,15.64,38.88,24.3,6.08-3.91,11.92-7.86,17.53-11.83l-1.29-9.81,12.59-22.4,3.27-1,3.95-32.3,24.76,9.58h0l-159.34-61.62.38.45-6.37,22.05h0v.02Z"/>
          <path class="cls-1" d="m666.2,333.73l-7.21-1.08-15.94,6.5,12.06-9.01,14.94-4.78,10.42-22.69,3.35-9.19-.19-2.74c-5.84,3.62-11.92,7.19-18.22,10.73-12.89-9.48-25.33-18.35-37.3-26.67-3.3,1.74-6.67,3.47-10.08,5.19l-55.12,119.92.05.03-6.24,33.6,43.67,20.08,22.74-26.02-.05-.03,43.13-93.84h0Z"/>
          <path class="cls-1" d="m549.31,263.79l22.55-58.33-10.28-5.13-11.53-22.96,7.27-23.45-3.23-5.83-11.59-4.49c-3.44.99-6.87,1.99-10.3,3.01l-.25.33c5.55,14.15,11.41,28.18,17.54,42.09-10.63,3.35-21.24,6.87-31.81,10.52.31.19.61.37.92.57-3.88,1.57-7.74,3.16-11.61,4.78-.74-.11-1.5-.19-2.25-.25,6.46,13.96,13.22,27.79,20.22,41.48-14.56,5.49-29.03,11.26-43.41,17.33,3.64,6.82,7.35,13.6,11.14,20.35,17.18-8,33.49-15.94,48.94-23.87,2.54,1.27,5.11,2.56,7.69,3.87h0v-.02Z"/>
          <path class="cls-1" d="m554.63,277.53c-2.5-1.47-4.98-2.92-7.44-4.34-15.91,6.95-32.69,13.87-50.32,20.8,3.52,7.3,7.1,14.57,10.76,21.81-14.37,5.32-28.64,10.91-42.81,16.81,7.52,14.26,15.31,28.37,23.36,42.31-9.96,4.35-19.85,8.85-29.7,13.5l28.45,13.08,22.74-26.02h-.05v-.04h0l45-97.9h.01Z"/>
          <polygon class="cls-1" points="681.87 260.15 683.03 264.14 690.97 243.58 690.6 243.78 681.87 260.15"/>
          <path class="cls-6" d="m581.11,200.24h0l-.02-.02.28-.71,48.41,18.72,1.66-4.31-54.69-21.14-2.88,7.48,4.02,1.3,10.84,16.25,9.53,11.52,1.63,10.7-5.82,7.2-2.47,17.03-1.67-14.96,4.03-17.81-21.06-25.51-1.04-.51-22.55,58.33c10.1,5.11,20.54,10.55,31.32,16.35,11.22-5.92,21.93-11.85,32.11-17.82l16.77-43.37-48.39-18.71v.02h0v-.03Z"/>
          <polygon class="cls-5" points="629.78 218.26 581.39 199.55 581.12 200.23 629.52 218.94 629.78 218.26"/>
          <polygon class="cls-5" points="629.52 218.94 629.51 218.96 629.52 218.96 629.8 218.26 629.78 218.26 629.51 218.95 629.78 218.26 629.78 218.26 629.52 218.94"/>
          <polygon class="cls-5" points="581.12 200.23 581.11 200.24 629.51 218.96 629.52 218.94 581.12 200.23"/>
          <path class="cls-6" d="m701.11,272.6c-3.74,2.58-7.6,5.13-11.56,7.66l1.74,7.83-8.51,17.58-5.1,14.04-8.4,6.84-1.95-.29-43.13,93.84.05.03,53.23,24.46,67.67-147.21c-2.37,1.94-4.82,3.86-7.3,5.76-12.65-10.79-24.9-20.94-36.71-30.52l-.02-.02h0Z"/>
          <path class="cls-6" d="m697.55,245.27v-.02h0l.27-.71,48.41,18.72,1.68-4.32-49.26-19.05-1.85.59-5.82,3.09-7.95,20.56.44,1.55c3.8-2.77,7.5-5.55,11.07-8.36,12.38,8.82,25.23,18.21,38.52,28.19,2.37-2.05,4.68-4.12,6.94-6.2l5.93-15.35-48.39-18.71h0v.02Z"/>
          <polygon class="cls-6" points="693.45 235.78 694.06 235.62 696.81 228.49 705.95 232.03 713.68 229.7 722.17 213.06 697.41 203.49 693.45 235.78"/>
          <path class="cls-6" d="m747.89,258.94l21.32-27.68-40.08-15.49,40.08,15.49h0l-40.08-15.49c-2.22,1.3-4.43,2.6-6.64,3.9l-3.85,13.78h0l-4.92,1.59,37.78,14.6-3.6,9.31h-.02.01Z"/>
          <polygon class="cls-6" points="769.21 231.26 769.21 231.26 729.14 215.76 769.21 231.26"/>
          <polygon class="cls-6" points="694.06 235.62 705.95 232.03 696.81 228.49 694.06 235.62"/>
          <polygon class="cls-6" points="747.89 258.94 751.49 249.63 713.72 235.03 698.63 239.9 747.89 258.94"/>
          <polygon class="cls-5" points="697.56 245.25 745.96 263.95 745.94 263.98 745.94 263.98 745.96 263.96 746.21 263.27 697.82 244.57 697.56 245.25"/>
          <polygon class="cls-5" points="745.94 263.98 745.96 263.98 746.23 263.28 746.21 263.27 745.96 263.96 745.94 263.98"/>
          <polygon class="cls-5" points="697.56 245.25 697.55 245.27 745.94 263.98 745.96 263.95 697.56 245.25"/>
          <polygon class="cls-7" points="594.13 343.81 594.13 343.81 596.14 338.61 587.04 335.66 578.35 319.28 579.07 312.3 585.46 290.25 585.09 289.8 576.36 286.43 579.59 292.26 572.31 315.71 583.83 338.68 594.13 343.8 594.13 343.81"/>
          <polygon class="cls-7" points="571.87 205.45 561.57 200.33 571.87 205.46 571.87 205.45"/>
          <polygon class="cls-7" points="593.95 231.49 589.93 249.3 591.59 264.26 594.07 247.22 599.89 240.03 598.26 229.34 588.74 217.82 577.9 201.57 573.88 200.26 571.87 205.46 572.9 205.97 593.95 231.49"/>
          <path class="cls-7" d="m669.48,274.06l.51,2.69-2.25,9.52,4.75-14.64c-1,.81-2,1.61-3.01,2.42h0Z"/>
          <path class="cls-7" d="m693.45,235.78l-3.27,1-12.59,22.4,1.29,9.81c1.05-.75,2.09-1.5,3.14-2.25l1.01-2.6-1.15-3.99,8.72-16.36.37-.2,2.24-5.78.24-2.02h0Z"/>
          <polygon class="cls-7" points="645.76 316.51 634.84 326.87 649.91 318.56 657.19 318.8 660.04 310.03 645.76 316.51"/>
          <polygon class="cls-7" points="690.97 243.58 696.79 240.49 698.63 239.9 693.21 237.8 690.97 243.58"/>
          <path class="cls-7" d="m724.56,309.53l-5.36,22.69-2.33,1.07-2.85,8.76,1.97.06,7.55-7.77,3.42-14.53,6.4-18.46-2.63-7.58c-.46.38-.92.75-1.39,1.14l-4.75,14.64h0l-.03-.02Z"/>
          <path class="cls-7" d="m673.89,270.51l-.53-1.53-.86,2.65c.46-.38.93-.75,1.39-1.14h0v.02Z"/>
          <polygon class="cls-7" points="694.06 235.62 693.45 235.78 693.21 237.8 694.06 235.62"/>
          <polygon class="cls-7" points="693.21 237.8 698.63 239.9 713.72 235.03 705.95 232.03 694.06 235.62 693.21 237.8"/>
        </g>
        <path class="cls-6" d="m413.29,397.48c2.03-5.3,4.06-10.55,6.1-15.74-5.05-6.22-10.19-5.59-14.18,1.76l-3.74,6.9,10.14,7.6c.55-.26,1.1-.43,1.67-.52h0Z"/>
        <path class="cls-6" d="m435.68,235.67c-2.35,1.39-4.7,2.78-7.04,4.19l12.36,1.36-5.32-5.54h0Z"/>
        <path class="cls-6" d="m416.97,283.99c-2.35,1.39-4.7,2.78-7.04,4.19l12.36,1.36-5.32-5.54h0Z"/>
        <path class="cls-6" d="m465.92,312.59c-2.35,1.39-4.7,2.78-7.04,4.19l12.36,1.36-5.32-5.54h0Z"/>
        <polygon class="cls-1" points="119.91 407.69 119.91 407.69 119.91 407.69 125.37 434.62 125.37 434.62 119.91 407.69"/>
        <path class="cls-1" d="m198.99,377.49h.02l-14.29-53.65h-.02l14.3,53.66h-.01Z"/>
        <path class="cls-1" d="m132.34,274.64l-44.38,26.92.2.32.2.33,44.37-26.91,66.35,109.43h.02l-66.35-109.45-.2-.32-8.91-33.79h0l8.91,33.79-.2-.33h-.01Z"/>
        <polygon class="cls-1" points="215.68 407.35 199.06 377.49 199.04 377.49 215.66 407.36 215.68 407.35"/>
        <path class="cls-1" d="m136.15,270.48c1.51.1,3.03.2,4.53.32l-1.35-5.11-15.03-.86c.45,1.76.92,3.49,1.36,5.24,3.42.06,6.85.21,10.27.41l.19-.14v.15h.04,0Z"/>
        <polygon class="cls-1" points="119.75 406.95 119.77 407.02 119.75 406.95 119.75 406.95"/>
        <path class="cls-1" d="m94.5,314.8l-11.11-10.06-14.42-7.85-16.01-.33-10.24-17.84,7.26,22.87,8.64-1.97,5.25,2.14,4.51-2.45,13.08,8.26,9.81,11.5,5.53,5.01c3.31-1.12,6.63-2.18,9.98-3.18l-12.3-6.11h.02Z"/>
        <path class="cls-1" d="m154.05,403.55l-44.49-120.72,6.34,5.66,6.8,10.76,11.47,2.79,5.26-4.64c-3.42.15-6.83.37-10.25.67-.63-1.69-1.27-3.38-1.91-5.07l-.42.03-20.65-19.2h0l-.7-.65-4.92-3.19c-3.44.61-6.86,1.3-10.27,2.04l4.01,4.55,9.19.93,6.02,5.35,44.49,120.72h.05-.05.02v-.03h0Z"/>
        <path class="cls-1" d="m138.9,282.01l2.78,12.86,14.46,4.49-9.68-6.7-5.77-21.86c-1.51-.12-3.02-.22-4.53-.32l2.75,11.53h-.02.01Z"/>
        <path class="cls-1" d="m110.15,323.68l-1.61-4.53-3.97.62,4.88,3.24.69.66h.01Z"/>
        <path class="cls-1" d="m119.62,238.01h0l10.87,33.2.21.3,72.66,105.36c11.32-1.24,22.76-1.75,34.25-1.49,4.64,10.22,9.16,20.47,13.58,30.76-4.42-10.29-8.93-20.54-13.58-30.76-11.48-.26-22.91.24-34.25,1.49l31.51,45.7h.05l25.69,22.52,39.56-27.28h0l-10.74-32.83h-.05l-85.7-124.27-8.95-3.68-9.87-22.48-3.98-1.45,3.21,7.77,6.24,28.48,13.13,8.21-6.73,27.08,5.27,10.54-10.53-10.9,3.74-12.61,3.17-11.57-7.21.83-7.85-8.83.54-12.71-3.9-16.09-7.03-5.99-.87-7.41-10.61-3.87c-.35-1.21-.7-2.43-1.06-3.64-3.77.08-7.53.18-11.29.22-.57-1.25-1.13-2.52-1.7-3.76l-28.18,19.42.39-.27h0v.02-.02h0Z"/>
        <polygon class="cls-5" points="119.83 407.33 119.83 407.33 119.77 407.02 119.83 407.33"/>
        <polygon class="cls-5" points="119.91 407.69 119.91 407.69 119.82 407.33 119.91 407.69"/>
        <polygon class="cls-5" points="137.54 403.73 149.42 401.31 137.54 403.73 137.54 403.73"/>
        <path class="cls-6" d="m140.01,355.62c9.62-1.34,19.31-2.18,29.04-2.49,4.19,10.3,8.28,20.65,12.23,31.03,2.62,0,5.24.06,7.85.13l-57.3-114.43-46.4,23.24-.17-.34-6.01,3.01h0l18.26,36.47c4.2-1.17,8.41-2.26,12.66-3.23,4.28,8.04,8.43,16.13,12.56,24.26l14.88-2.38,2.41,4.7h0l-.02.02h.01Z"/>
        <path class="cls-6" d="m103,254.14l1.61,4.53h0l20.42,19.45.42-.02c-3.09-8.58-6.24-17.13-9.49-25.62-4.33.45-8.65,1.01-12.96,1.66h0Z"/>
        <path class="cls-6" d="m163.21,331.26c-1.77-10.98-3.68-21.93-5.7-32.87-9.58-1.67-19.25-2.8-28.94-3.44l6.02,21.78,9.75,6.59-14.52-4.31-2.93-12.82-2.88-11.49c-.07,0-.15-.01-.22,0l-5.67,4.14-11.16-3.84-5.78-11.34-5.79-6.22,33.14,124.32h.05l-.09-.38,50.16-13.36.08.37,6.45-1.72-14.3-53.66c-2.55-.61-5.1-1.18-7.66-1.72h-.02v-.03h0Z"/>
        <path class="cls-6" d="m136.12,270.33l-.19.14c.07,0,.15.01.22.02v-.15h-.03Z"/>
        <polygon class="cls-6" points="104.61 258.67 103 254.14 103 254.14 104.61 258.67 104.61 258.67"/>
        <polygon class="cls-6" points="92.33 283.36 92.33 283.36 92.32 283.37 110.66 319.79 110.66 319.79 92.33 283.36"/>
        <polygon class="cls-6" points="57.79 281.08 57.79 281.08 123.22 241.41 57.79 281.08"/>
        <polygon class="cls-6" points="127.35 266.43 132.34 274.64 132.54 274.97 123.62 241.17 57.81 281.09 82.38 305.34 77.22 296.82 127.35 266.43"/>
        <polygon class="cls-6" points="82.38 305.34 57.81 281.09 123.62 241.17 123.62 241.17 123.22 241.41 57.79 281.08 82.38 305.37 82.38 305.34"/>
        <polygon class="cls-6" points="88.15 301.87 87.95 301.56 132.34 274.64 127.35 266.43 77.22 296.82 82.38 305.34 82.39 305.36 88.15 301.87"/>
        <polygon class="cls-6" points="94.75 269.06 94.75 269.09 94.76 269.08 94.75 269.06"/>
        <polygon class="cls-6" points="133.38 430.35 208.63 415.08 193.83 384.27 193.8 384.27 193.8 384.27 193.78 384.27 187.24 385.6 187.33 385.96 136.46 396.3 136.38 395.93 136.38 395.93 136.38 395.93 133.38 430.35"/>
        <polygon class="cls-6" points="199.05 377.47 199.08 377.46 199.08 377.46 199.05 377.47"/>
        <path class="cls-6" d="m26.5,267.03l14.63,24.14,111.35-67.51c-3.44-8.95-6.78-17.93-10.01-26.94l-115.96,70.32h-.01Z"/>
        <path class="cls-4" d="m.35,259.76c-2.39,9.25,7.96,18.32,17.34,12.63h0l8.83-5.37h0l115.97-70.33h0c-1.02-2.82-2.01-5.64-3.01-8.46-8.33-.59-16.64-1.3-24.92-2.01l-24.82,15.05c-.21.12-.42.24-.63.35-6.52,3.22-13.38-4.45-9.04-10.66h0l15.45-22.08c-2.53-8.19-4.97-16.42-7.34-24.64-2.42-.31-4.83-.65-7.22-.95L2.18,255.84c-.89,1.28-1.5,2.6-1.83,3.94H.35v-.02h0Z"/>
        <polygon class="cls-4" points="26.5 267.03 26.5 267.03 26.51 267.03 142.47 196.72 142.46 196.71 26.5 267.03"/>
        <path class="cls-6" d="m89.09,201.62c.21-.11.41-.21.63-.34l24.82-15.05c-4.67-.4-9.31-.82-13.96-1.26-1.73-5.34-3.41-10.71-5.07-16.07l-15.45,22.08h0c-4.32,6.19,2.53,13.86,9.03,10.65h0Z"/>
        <polygon class="cls-5" points="119.65 407.56 120.01 407.49 120.01 407.49 119.65 407.56"/>
        <polygon class="cls-5" points="119.82 407.33 119.91 407.69 119.83 407.33 119.82 407.33"/>
        <rect class="cls-5" x="84.47" y="288.23" width="51.9" height=".75" transform="translate(-133.07 98.35) rotate(-31.06)"/>
        <rect class="cls-5" x="138.15" y="391.25" width="51.9" height=".75" transform="translate(-94.42 54.78) rotate(-14.77)"/>
        <path class="cls-6" d="m108.44,310.83l-2.38,4.55,8.69,3.17c.41-.23.84-.39,1.28-.52,1.15-3.39,2.31-6.74,3.49-10.06-4.53-3.01-8.55-1.98-11.08,2.86h0Z"/>
        <path class="cls-6" d="m223.27,356.08c-6.76-1.33-13.76.16-19.41,4.16l-5.59,3.95,14.38,1.2c.07-.02.15-.04.22-.06-.12-.13-.26-.26-.39-.37,3.59-2.98,7.17-5.94,10.77-8.89h.02,0Z"/>
        <path class="cls-6" d="m224.78,403.19l-2.38,4.55,8.69,3.17c.41-.23.84-.39,1.28-.52,1.15-3.39,2.31-6.74,3.49-10.06-4.53-3.01-8.55-1.98-11.08,2.86h0Z"/>
        <path class="cls-6" d="m494.52,332.83c2.5-5.3,5.01-10.55,7.53-15.74-6.23-6.22-12.57-5.59-17.49,1.76l-4.61,6.9,12.51,7.6c.68-.26,1.36-.43,2.06-.52h0Z"/>
        <path class="cls-6" d="m242.15,281.16c-6.83-.92-13.73.99-19.12,5.32l-5.34,4.28,14.43.33c.07-.02.15-.05.22-.07-.13-.12-.27-.24-.41-.35,3.4-3.19,6.8-6.36,10.22-9.52h0Z"/>
        <path class="cls-6" d="m243.09,317.68c-2.26,1.54-4.52,3.07-6.76,4.62l12.42.58-5.66-5.19h0Z"/>
        <path class="cls-6" d="m312.09,242.26c-2.26,1.54-4.52,3.07-6.76,4.62l12.42.58-5.66-5.19h0Z"/>
        <path class="cls-6" d="m400.68,428.22l-3.04,4.13,8.1,4.46c.44-.16.89-.26,1.34-.32,1.65-3.17,3.31-6.31,4.99-9.41-4.02-3.67-8.15-3.26-11.39,1.14h0Z"/>
        <path class="cls-6" d="m394.17,473.99c2.03-5.3,4.06-10.55,6.1-15.74-5.05-6.22-10.19-5.59-14.18,1.76l-3.74,6.9,10.14,7.6c.55-.26,1.1-.43,1.67-.52h0Z"/>
        <path class="cls-6" d="m389.11,344.55c-2.35,1.39-4.7,2.78-7.04,4.19l12.36,1.36-5.32-5.54h0Z"/>
        <path class="cls-6" d="m382.43,413.13c-2.35,1.39-4.7,2.78-7.04,4.19l12.36,1.36-5.32-5.54h0Z"/>
        <path class="cls-6" d="m456.28,250.1c-2.35,1.39-4.7,2.78-7.04,4.19l12.36,1.36-5.32-5.54h0Z"/>
        <path class="cls-6" d="m359.2,373.94l-3.04,4.13,8.1,4.46c.44-.16.89-.26,1.34-.32,1.65-3.17,3.31-6.31,4.99-9.41-4.02-3.67-8.15-3.26-11.39,1.14h0Z"/>
        <path class="cls-6" d="m591.41,356.14l-3.04,4.13,8.1,4.46c.44-.16.89-.26,1.34-.32,1.65-3.17,3.31-6.31,4.99-9.41-4.02-3.67-8.15-3.26-11.39,1.14h0Z"/>
        <path class="cls-6" d="m468.24,353.77c-2.35,1.39-4.7,2.78-7.04,4.19l12.36,1.36-5.32-5.54h0Z"/>
        <path class="cls-6" d="m617.8,377.19c-2.63-.73-5.26-1.45-7.9-2.16l7.6,9.84.29-7.68h.01Z"/>
        <polygon class="cls-1" points="643.94 403.96 643.95 403.99 659.6 406.6 659.69 406.04 659.6 406.57 643.94 403.96"/>
        <polygon class="cls-1" points="608.4 398.05 608.4 398.07 637.05 402.84 637.03 402.81 608.4 398.05"/>
        <path class="cls-1" d="m687.63,442.56h-.01l-.02.37-152.49-9.07h-.02l152.52,9.07.02-.38h0Z"/>
        <path class="cls-1" d="m687.63,442.55l-151.87-9.03h-.02l151.89,9.04h0Z"/>
        <polygon class="cls-1" points="511.97 400.24 552.48 406.99 552.6 406.25 552.58 406.24 552.45 406.98 511.97 400.24"/>
        <path class="cls-1" d="m601.57,408.34c-4.44-.89-8.87-1.77-13.28-2.6-1.92,1.01-3.86,2.03-5.8,3.04l18.34,1.09.74-1.53Z"/>
        <polygon class="cls-1" points="509.62 399.09 506.35 398.54 506.35 398.54 509.62 399.09"/>
        <polygon class="cls-6" points="509.62 399.09 552.58 406.24 552.58 406.24 552.6 406.25 552.48 406.99 511.97 400.24 506.6 399.35 506.79 399.96 502.1 407.94 502.18 424.73 562.11 428.29 560.76 411.95 518.64 404.94 560.76 411.95 560.01 402.8 559.99 402.8 559.99 402.8 559.94 402.8 504.82 393.61 506.35 398.54 509.62 399.09"/>
        <polygon class="cls-6" points="498.31 410.61 499.13 399.39 487.26 423.84 502.06 424.72 498.31 410.61"/>
        <path class="cls-6" d="m669.1,426.47l-1.98-24.06h-.05l-26.26-4.38,2.68,5.1,16.22,2.7-.04.21-.09.56-15.64-2.61.9,1.72,6.13,8.42-.5,8.81-1.34,1.46-3.18-5.67.93-2.19-9.55-13.15h.01l-.31-.55-28.65-4.77v-.02h0l.12-.74,28.05,4.67-2.88-5.13-24.39-4.06-13.49,27.76c3.59.72,7.19,1.46,10.79,2.22l62.5,3.72.02-.02h0Z"/>
        <path class="cls-6" d="m612.36,410.55c-3.61-.76-7.2-1.49-10.79-2.22l-.74,1.53,11.54.69h-.01Z"/>
        <polygon class="cls-6" points="689.27 414.76 689.25 415.13 689.25 415.13 689.27 414.76"/>
        <polygon class="cls-6" points="687.63 442.56 687.6 442.94 687.61 442.92 687.63 442.56 687.63 442.56 687.63 442.56"/>
        <path class="cls-6" d="m560.73,419.03l.63,7.69-70.92-11.81-46.16-2.7c.11-.11.22-.25.34-.36l19.33,1.13-19.02-1.11,42,2.46-1.33-.22.2-.41-42.19-2.51c-2.66,2.82-5.31,5.64-7.94,8.48,8.83,6.85,17.76,13.57,26.76,20.16l83.63,4.97c15.47-8.26,30.56-16.24,45.28-23.98l-30.63-1.79h.02,0Z"/>
        <path class="cls-6" d="m612.36,410.55l-11.54-.69-.21.44,14.57.85c-.94-.2-1.88-.41-2.82-.61h0Z"/>
        <path class="cls-4" d="m680.01,449.94h0v.38l-153.41.07c-10.67,6.55-21.52,13.24-32.54,20.1-15.28-.8-30.37-1.3-45.29-1.51-2.57,3.35-5.12,6.7-7.65,10.08l306.49-.13v-29.01l-67.6.02h0Z"/>
        <path class="cls-4" d="m516.33,449.94l-80.4-12.33c3.56,3.14,7.12,6.27,10.69,9.38-3.37,3.14-6.71,6.3-10.04,9.49,14.71,2.48,29.56,5.26,44.53,8.38,11.94-5.1,23.68-10.07,35.22-14.91h0Z"/>
        <path class="cls-6" d="m700.41,399.38c1.65-3.17,3.31-6.31,4.99-9.41-4.02-3.67-8.15-3.26-11.39,1.14l-3.04,4.13,8.1,4.46c.44-.16.89-.26,1.34-.32Z"/>
        <polygon class="cls-5" points="643.52 403.16 643.94 403.96 659.6 406.57 659.69 406.04 659.72 405.86 643.52 403.16"/>
        <polygon class="cls-5" points="636.58 402 608.52 397.33 608.4 398.05 637.03 402.81 636.58 402"/>
        <polygon class="cls-5" points="659.72 405.86 659.69 406.04 659.72 405.83 643.5 403.13 643.52 403.16 659.72 405.86"/>
        <polygon class="cls-5" points="636.58 402 636.56 401.97 608.52 397.31 608.39 398.05 608.4 398.05 608.52 397.33 636.58 402"/>
        <path class="cls-6" d="m708.22,441.05l9.91,7.51-1.73-7.48h0c-2.73-.02-5.46-.03-8.19-.02h.01Z"/>
        <polygon class="cls-5" points="506.6 399.34 511.97 400.24 552.45 406.98 552.58 406.24 509.62 399.09 506.35 398.54 506.6 399.34"/>
        <polygon class="cls-5" points="506.6 399.34 506.6 399.35 511.97 400.24 506.6 399.34"/>
        <polygon class="cls-5" points="552.58 406.24 509.62 399.09 552.58 406.24 552.58 406.24"/>
        <path class="cls-6" d="m688.46,420.46h0c-2.35,1.38-4.7,2.77-7.04,4.18l12.36,1.36-5.32-5.54h0Z"/>
        <path class="cls-7" d="m638.43,393.48l-6.12-1.06c-.09.5-.17,1-.26,1.51l1.64,2.91,7.14,1.19-2.39-4.55h-.01Z"/>
        <polygon class="cls-7" points="637.03 402.81 637.05 402.84 643.95 403.99 643.94 403.96 637.03 402.81"/>
        <polygon class="cls-7" points="643.5 403.13 640.82 398.03 633.68 396.84 636.56 401.97 643.5 403.13"/>
        <polygon class="cls-7" points="637.36 403.39 637.35 403.39 646.9 416.54 645.97 418.73 649.15 424.4 650.49 422.94 650.99 414.13 644.86 405.71 643.95 403.99 637.05 402.84 637.36 403.39"/>
        <polygon class="cls-7" points="643.94 403.96 643.52 403.16 636.58 402 637.03 402.81 643.94 403.96"/>
        <polygon class="cls-7" points="636.58 402 643.52 403.16 643.5 403.13 636.56 401.97 636.58 402"/>
        <path class="cls-6" d="m557.38,443.36l12.36,1.36-5.32-5.54h0c-2.35,1.38-4.7,2.77-7.04,4.18h0Z"/>
        <path class="cls-6" d="m576.79,440.5h.02c-1.71.17-3.42.35-5.14.54l2.55,4.86,2.57-5.4h0Z"/>
        <polygon class="cls-7" points="504.82 393.61 503.59 389.63 492.47 379.65 479.34 365.19 475.17 364.49 473.95 369.93 475.05 370.28 499.65 392.4 499.13 399.39 502.16 393.17 504.82 393.61"/>
        <polygon class="cls-7" points="502.06 424.72 502.18 424.73 502.1 407.94 506.79 399.96 506.6 399.35 501.25 398.45 501.37 397.71 501.4 397.72 501.4 397.72 506.35 398.54 504.82 393.61 502.16 393.17 499.13 399.39 498.31 410.61 502.06 424.72"/>
        <polygon class="cls-7" points="490.41 403.73 490.41 403.3 490.3 403.29 490.41 403.73"/>
        <polygon class="cls-7" points="506.6 399.34 506.35 398.54 501.4 397.72 501.28 398.46 506.6 399.34"/>
        <polygon class="cls-7" points="501.28 398.46 501.4 397.72 501.37 397.71 501.25 398.45 506.6 399.35 506.6 399.34 501.28 398.46"/>
        <path class="cls-6" d="m424.82,466.42c1.65-3.17,3.31-6.31,4.99-9.41-4.02-3.67-8.15-3.26-11.39,1.14h0l-3.04,4.13,8.1,4.46c.44-.16.89-.26,1.34-.32h0Z"/>
        <path class="cls-6" d="m446.8,389.11h0c-2.35,1.38-4.7,2.77-7.04,4.18l12.36,1.36-5.32-5.54h0Z"/>
        <path class="cls-6" d="m706.66,429.25c-1.6,1.05-3.19,2.1-4.8,3.16-7.54-.86-15.03-1.65-22.49-2.38l-62.46-.99h.02l.33-1.05-19.35,1.76c-13.41,9.84-27.15,19.97-41.22,30.44l151.53-13.62-1.56-17.31h0Z"/>
        <path class="cls-4" d="m752.37,243.51l18.86,6.88c6.99,2.56,13.1-1.65,15.02-7.29,1.31-3.86.66-8.43-3.02-11.95h0l-143.75-101.17,54.78,52.62c5.63,5.41-.15,14.68-7.48,12l-170.44-62.27c3.4,9.66,6.93,19.27,10.59,28.83l225.44,82.37h0v-.02Z"/>
        <g id="Group_133" data-name="Group 133">
          <path id="Path_1" data-name="Path 1" class="cls-3" d="m393.35.73c8-1.72,16.35-.37,23.4,3.78l126.37,74.73c7.53,4.44,12.86,11.81,14.71,20.35l23.59,110.92c3.62,17-7.59,33.85-24.99,37.55l-211.39,44.96c-17.39,3.7-34.49-7.12-38.1-24.13l-23.59-110.92c-1.78-8.55.08-17.46,5.15-24.57L373.51,13.71c4.74-6.67,11.82-11.3,19.83-12.97h0Z"/>
          <path id="Path_13" data-name="Path 13" class="cls-7" d="m524.33,179.19l6.88,32.3,15.88-3.37.99,4.68-56.99,12.13-.99-4.68,15.88-3.37-6.88-32.3-62.93,13.38-4.3-20.23,41.52-94.24,29.26-6.23,20.32,95.52,20.47-4.35,1.36,6.42-20.46,4.35h0Zm-39.07-65.51l-26.05,58.21,36.76-7.82-10.72-50.39h0Z"/>
          <path id="Path_14" data-name="Path 14" class="cls-7" d="m434.17,210.12c-1.89,6.34-5.02,12.25-9.21,17.39-4.28,5.26-9.42,9.76-15.21,13.3-5.69,3.58-11.95,6.12-18.52,7.54-3.09.64-6.21,1.04-9.36,1.22-3.45.22-6.89.16-10.33-.21-3.34-.35-6.65-1.03-9.84-2.06-2.96-.91-5.71-2.37-8.14-4.29l2.09,9.84-5.85,1.24-9.45-44.38,9.2-1.95c.69,3.31,2.31,6.34,4.7,8.74,2.4,2.46,5.27,4.42,8.44,5.76,3.25,1.37,6.69,2.26,10.19,2.65,3.32.41,6.7.28,9.98-.37,3.07-.7,6.04-1.81,8.81-3.31,3.04-1.57,5.85-3.53,8.37-5.83,2.45-2.21,4.41-4.89,5.75-7.9,1.33-2.99,1.66-6.31.93-9.49-1.13-5.31-3.74-9.01-7.83-11.13-4.64-2.28-9.62-3.81-14.75-4.52-5.73-.89-11.86-1.62-18.4-2.21-6.4-.54-12.71-1.89-18.78-3.99-6.02-2.09-11.45-5.54-15.91-10.07-4.63-4.63-7.89-11.41-9.8-20.34-1.35-6.11-.96-12.48,1.11-18.4,2.07-5.97,5.23-11.5,9.32-16.31,4.16-4.92,9.11-9.11,14.64-12.4,5.32-3.27,11.13-5.6,17.22-6.94,2.84-.58,5.72-.98,8.61-1.18,3.23-.25,6.49-.24,9.74,0,3.16.24,6.29.82,9.33,1.73,2.78.8,5.37,2.15,7.63,3.95l-1.78-8.37,5.01-1.07,8.55,40.18-8.78,1.87c-.59-2.87-2.11-5.48-4.3-7.4-2.31-2.03-4.95-3.65-7.8-4.8-2.94-1.19-6.05-1.93-9.21-2.2-2.86-.29-5.73-.15-8.55.4-2.84.65-5.61,1.65-8.23,2.95-2.91,1.39-5.57,3.21-7.92,5.41-2.24,2.08-4.08,4.55-5.45,7.29-1.32,2.68-1.68,5.73-1.01,8.64,1.13,5.31,3.78,9.01,7.94,11.12,4.62,2.24,9.6,3.69,14.7,4.32,5.63.77,11.73,1.37,18.32,1.79,6.37.38,12.68,1.62,18.71,3.67,5.96,2.06,11.38,5.43,15.88,9.86,4.69,4.55,7.98,11.29,9.88,20.22,1.5,6.62,1.28,13.53-.64,20.05l.02.03h0l-.03-.04h0Z"/>
        </g>
        <g>
          <polygon class="cls-5" points="124.07 440.73 124.06 440.73 124.07 440.73 124.07 440.73"/>
          <rect class="cls-5" x="124.06" y="440.71" height=".02"/>
          <path class="cls-6" d="m255.47,436.38c.16-1.02.31-2.04.47-3.06-9.4-4.55-18.9-8.31-28.4-11.29.63-3.4,1.26-6.83,1.88-10.26l-113.56,13.24,3.19,27.27h0l136.42-15.9Z"/>
          <path class="cls-6" d="m247.98,412.23c8.68,4.89,17.18,10.54,25.44,16.94-.36.97-.74,1.94-1.1,2.9l118.49,11.1c-8.76-6.89-17.44-13.91-26.03-21.03,2.72-2.76,5.47-5.49,8.23-8.22l-121.04-11.34c-1.33,3.23-2.65,6.45-3.98,9.65h0Z"/>
          <polygon class="cls-6" points="124.07 440.73 124.06 440.73 124.07 440.73 124.07 440.73"/>
          <path class="cls-4" d="m408.04,458.93c-3.49-3.22-6.96-6.46-10.44-9.7l.02-.02h-.05s.03.02.04.03l-118.41-21.72c-2.81,5.82-5.61,11.62-8.39,17.37,3.41,3.86,6.73,7.87,9.96,12.03l107.61,19.73c6.49-5.99,13.03-11.92,19.66-17.72h0Z"/>
          <path class="cls-4" d="m261.05,438.68l-136.9,8.19h0l-.02-.34h0v-.04s-67.47,4.06-67.47,4.06l1.74,28.96,211.2-12.65c-4.14-3.27-8.32-6.37-12.55-9.31,1.33-6.24,2.66-12.54,4-18.87h0Z"/>
        </g>
        <path class="cls-4" d="m622.18,122.18l121.6,66.35-164.74-127.02c1.36,3.77,2.75,7.54,4.17,11.29-5.78,1.94-11.55,3.95-17.3,6,.03.02.05.03.09.06l56.19,43.31h0v.02h-.01Z"/>
        <path class="cls-7" d="m147.23,368.69l24.61,7.67c-.76-1.88-1.53-3.75-2.29-5.63l-2.57-.8-17.96-7.67-13.32,3.62-10.26-5.66s-.11,0-.17-.02l-.03-.1-5.8-3.19-3.19-6.25-6.13-20.03-4.14,2.08,14.83,29.36,13.84,8.05,12.55-1.47h0v.03h.03Z"/>
        <path class="cls-6" d="m104.2,454.66c2-5.51,4.01-10.97,6.04-16.37-6.77-5.61-13.03-4.4-17.25,3.38l-3.95,7.31,13.16,6.4c.65-.32,1.32-.55,2-.7h0v-.02h.01-.01Z"/>
      </g>
    </g>
  </g>
</svg>