<?xml version="1.0" encoding="utf-8"?>
<!-- Generator: Adobe Illustrator 27.8.1, SVG Export Plug-In . SVG Version: 6.00 Build 0)  -->
<svg version="1.1" id="Layer_2_00000104669723182657113310000013369114366094881212_"
	 xmlns="http://www.w3.org/2000/svg" xmlns:xlink="http://www.w3.org/1999/xlink" x="0px" y="0px" viewBox="0 0 778 728.8"
	 style="enable-background:new 0 0 778 728.8;" xml:space="preserve">
<style type="text/css">
	.st0{fill:none;}
	.st1{fill:#2C2C7C;}
	.st2{fill:#D0D8D7;}
	.st3{fill:#5C5C5C;}
	.st4{fill:#FFFFFF;}
	.st5{fill:#756746;}
</style>
<g id="Layer_8">
	<g>
		<polygon class="st0" points="519,648.4 519,648.4 519,648.4 472.3,643.3 		"/>
		<path class="st1" d="M375.9,212.1l1.1,0.3l-0.2-0.4C376.5,212,376.2,212,375.9,212.1L375.9,212.1z"/>
		<path class="st0" d="M196.1,246.8l111.5-62.5c0,0,0,0,0,0c0.3-0.2,0.6-0.3,0.9-0.5c6.8-3.7,14.3-5.9,21.9-6.6
			c7.9-0.8,16,0.1,23.8,2.7l3.2,1.1c-1.6-1.9-3.1-3.9-4.7-5.8l-173.9,16.7c-2.9,12.6-5.6,25.3-8.1,38
			C179,235.5,187.5,241.1,196.1,246.8L196.1,246.8z"/>
		<path class="st0" d="M256,347.3l60.3-5.8l-1.3,6.7c2.6-2.5,5.2-4.9,7.9-7.3L256,347.3L256,347.3L256,347.3z"/>
		<path class="st0" d="M243.9,364.2c0.1,0.7,0.2,1.4,0.3,2.1l0.8-1.5C244.6,364.6,244.2,364.4,243.9,364.2z"/>
		<path class="st0" d="M225.6,350.2c-0.1,1.4-0.2,2.7-0.3,4.1c3.3,1.8,6.6,3.5,10,5.3c0.8-3.5,1.6-7,2.4-10.6L225.6,350.2z"/>
		<polygon class="st0" points="252.9,347.6 241.6,348.7 241.6,348.7 252.9,347.6 		"/>
		<path class="st0" d="M245.2,364.4l-2.2-6.2c0.3,2,0.6,4,0.9,5.9c0.4,0.2,0.8,0.4,1.1,0.6L245.2,364.4L245.2,364.4z"/>
		<rect x="185.4" y="387.8" class="st1" width="0" height="0.4"/>
		<rect x="185.3" y="387.4" class="st1" width="0" height="0.4"/>
		<path class="st2" d="M259.4,414.1l7.5,9l13.7,1.5l14,13.7l2.1,1.7c0-2.9-0.1-5.8-0.1-8.7C284.1,425.6,271.7,419.9,259.4,414.1
			L259.4,414.1z"/>
		<path class="st2" d="M258.5,386.1l-0.1-0.8l1.8-0.2c0.1-1.5,0.1-3.1,0.2-4.7l-4.5,0.4l-1.6,20.9l0.7,7l4.2,5.1
			c0.2-9.3,0.5-18.6,0.9-28L258.5,386.1L258.5,386.1z"/>
		<path class="st2" d="M306.9,469.4l-5.7-4.6c0.1,8.6,0.4,17.1,0.7,25.7c2.2,0.9,4.4,1.8,6.6,2.7l-1.8-5.6L306.9,469.4L306.9,469.4z
			"/>
		<path class="st2" d="M251.6,353.1l1.2-5.5l-11.3,1.1l1.4,9.5l2.2,6.2L251.6,353.1L251.6,353.1z"/>
		<path class="st2" d="M248.6,373.2l2,1.6l-0.3-3.3l6.5-0.6c-2.4-1.2-4.9-2.5-7.3-3.8l-0.3,0.7L248.6,373.2L248.6,373.2z"/>
		<path class="st2" d="M314.9,348.6l0.1-0.4c-0.1,0.1-0.2,0.2-0.3,0.2C314.8,348.5,314.9,348.5,314.9,348.6L314.9,348.6z"/>
		<path class="st2" d="M250.6,374.8l5.4,4.2l-0.1,2l4.5-0.4c0.1-2.6,0.2-5.1,0.4-7.7c-1.3-0.7-2.6-1.4-3.9-2l-6.5,0.6L250.6,374.8
			L250.6,374.8z"/>
		<rect x="310.1" y="380.4" class="st1" width="0" height="0.8"/>
		<path class="st1" d="M258.5,386.1l1.7-0.2c0-0.2,0-0.5,0-0.8l-1.8,0.2L258.5,386.1L258.5,386.1z"/>
		<path class="st1" d="M260.2,386l50-4.8l-0.1-0.8l-49.9,4.8C260.2,385.5,260.2,385.7,260.2,386L260.2,386z"/>
		<path class="st2" d="M240.1,338.3c0.5,3.5,1,6.9,1.5,10.4l11.3-1.1l2.1-9.6l-3.8-3.4l0.2-5.7l-4.8-7.5l2.5-1.9l-20.8,2
			c-1,9.5-1.9,19.1-2.7,28.6l12-1.2C238.5,345.5,239.3,341.9,240.1,338.3L240.1,338.3z"/>
		<path class="st3" d="M307.6,184.3C307.6,184.3,307.6,184.3,307.6,184.3C307.6,184.3,307.6,184.3,307.6,184.3l-111.5,62.5l0,0
			L307.6,184.3z"/>
		<polygon class="st3" points="228.3,321.6 228.3,321.6 249.1,319.6 249.1,319.6 		"/>
		<polygon class="st3" points="255.4,319 344.5,310.5 344.5,310.5 255.4,319 		"/>
		<path d="M76.2,313.9L76.2,313.9c-1.4,0.8-2.5,1.7-3.4,2.7C73.8,315.6,74.9,314.7,76.2,313.9z"/>
		<polygon points="249.1,319.6 249.1,319.6 228.3,321.6 228.3,321.6 		"/>
		<polygon points="255.4,319 344.5,310.5 344.5,310.4 255.4,319 		"/>
		<g>
			<path class="st2" d="M259.3,413.9l0.1,0.2c12.3,5.8,24.7,11.5,37.2,17.1c0,2.9,0,5.8,0.1,8.7l9.6,7.6l3.8,10.1l-4.2,8.2l0.6,9.5
				c4.4,1.8,8.9,3.6,13.3,5.4l-9.6-99.6l-50,4.8C259.8,395.3,259.5,404.6,259.3,413.9L259.3,413.9z"/>
			<path class="st2" d="M260.4,380.6c-0.1,1.5-0.1,3.1-0.2,4.7l49.9-4.8l-0.4-4.6l0,0L260.4,380.6L260.4,380.6z"/>
			<path class="st2" d="M256,347.3l-1,6.7l-5.4,13.1c2.4,1.3,4.9,2.5,7.3,3.8l51.8-5l1,9.9l5.3-27.2c-0.1,0-0.1-0.1-0.2-0.2
				c0.1-0.1,0.2-0.2,0.3-0.2l1.3-6.7L256,347.3L256,347.3z"/>
			<path class="st2" d="M260.4,380.6l49.2-4.7l0,0l-1-9.9l-51.8,5c1.3,0.7,2.6,1.4,3.9,2C260.7,375.4,260.5,378,260.4,380.6
				L260.4,380.6z"/>
			<path class="st2" d="M252.4,322.6l5.1,15.2l-1.5,9.5l66.9-6.4c9.1-8.4,18.3-16.6,27.6-24.8c-2-1.9-4-3.8-6-5.7l-89,8.6
				L252.4,322.6L252.4,322.6z"/>
			<path class="st3" d="M229.3,312.7c-0.3,3-0.6,6-1,8.9l20.8-2l16.6-12.7L255.4,319l89-8.6c-7.4-7-14.8-14.2-22-21.4l-114.7,11
				C214.9,304.3,222,308.5,229.3,312.7L229.3,312.7z"/>
			<path class="st3" d="M307.6,184.3l-111.5,62.5c2,1.3,4.1,2.7,6.1,4c-1.4,8.4-2.8,16.9-4.1,25.4l112.4-63l-0.1,0
				c-15.1-5,10.1-35.3-1.8-29.4C308.2,183.9,307.9,184.1,307.6,184.3C307.6,184.3,307.6,184.3,307.6,184.3L307.6,184.3z"/>
			<path class="st2" d="M311.3,227.5c-2.7,2.8-4.9,6.2-6.3,9.9c-2.8,7.4-2,15.8,2.2,22.5c2.1,3.4,4.8,6.2,8,8.5
				c3.4,2.4,7.2,4.2,11.2,5.2c1.4,0.4,2.8,0.6,4.2,0.8c8.4-6.9,16.9-13.8,25.5-20.4c-10.1-10.7-20-21.5-29.6-32.6c2-1.5,4-3,6-4.4h0
				c-3.9,0.5-7.6,1.7-11.1,3.3C317.6,222,314.2,224.5,311.3,227.5L311.3,227.5z"/>
			<path class="st2" d="M195.7,292.8c4,2.4,8,4.8,12,7.2l114.7-11c-1.4-1.4-2.8-2.8-4.2-4.2c3.9-3.3,7.8-6.5,11.6-9.7
				c-1.2-0.2-2.4-0.4-3.6-0.8c-4.1-1.1-8-2.9-11.5-5.3c-3.3-2.3-6.1-5.3-8.3-8.7c-4.3-7-5.1-15.5-2.2-23.2c1.4-3.8,3.6-7.2,6.4-10.1
				c2.9-3.1,6.4-5.6,10.3-7.4c3-1.4,6.1-2.4,9.2-3l-19.8-3.3l-112.4,63C197.2,281.7,196.4,287.3,195.7,292.8L195.7,292.8z"/>
		</g>
		<path class="st1" d="M310.7,227c-2.8,2.9-5,6.4-6.4,10.1c-2.9,7.6-2.1,16.2,2.2,23.2c2.1,3.4,4.9,6.4,8.3,8.7
			c3.5,2.5,7.4,4.2,11.5,5.3c1.2,0.3,2.4,0.6,3.6,0.8c0.3-0.2,0.5-0.4,0.8-0.6c-1.4-0.2-2.8-0.5-4.2-0.8c-4-1-7.9-2.8-11.2-5.2
			c-3.2-2.3-6-5.2-8-8.5c-4.2-6.8-5-15.1-2.2-22.5c1.4-3.7,3.5-7.1,6.3-9.9c2.9-3,6.3-5.5,10-7.2c3.5-1.7,7.3-2.8,11.1-3.3l-2.2-0.4
			c-3.2,0.6-6.3,1.6-9.2,3C317.2,221.4,313.7,223.9,310.7,227L310.7,227z"/>
		<g>
			<path class="st0" d="M322.5,405.3L322.5,405.3l-0.1,0.8l0,0l-7.5,99.8c5.1,3.2,10.3,6.3,15.4,9.4c-1.4,13.2-2.6,26.5-3.6,39.7
				c1-13.3,2.2-26.5,3.6-39.7c-5.2-3.1-10.3-6.3-15.4-9.4L309,584h0l5.8,33.7l16.7,1.3c7.6-7.8,15.3-15.5,23.1-23
				c-12.4-10.3-24.6-20.8-36.6-31.5c11.2-10.5,22.7-20.7,34.3-30.7c-11.6-10.8-23-21.7-34.2-33c12-10,24.2-19.7,36.5-29.1
				c-10.8-11.2-21.4-22.6-31.7-34.2c12.7-9.4,25.6-18.6,38.7-27.5c-9.9-11.5-19.6-23.3-29-35.2l-9.9,25.9L322.5,405.3L322.5,405.3z"
				/>
			
				<rect x="275.7" y="560.6" transform="matrix(7.532680e-02 -0.9972 0.9972 7.532680e-02 -329.5613 817.6674)" class="st1" width="0.8" height="51.9"/>
			<g>
				<path class="st2" d="M314.9,505.8c-4.1-2.5-8.1-5.1-12.2-7.6l-0.8,7.7l-1.3-9.1c-2-1.3-4-2.5-6-3.8c1.1-8.5,2.4-17,3.7-25.5
					l-17.1-19.3l-11.5-5.2l-7.7-14l-11.4,150.6h0.1L309,584L314.9,505.8L314.9,505.8z"/>
				<path class="st2" d="M309.1,584L309.1,584l-58.5-4.4l-12.3,32.3l76.6,5.8L309.1,584L309.1,584z M250.2,585l0.1-0.8l51.8,3.9
					l-0.1,0.8L250.2,585L250.2,585z"/>
				<path class="st1" d="M315,618.1l16.3,1.2c0.1-0.1,0.2-0.2,0.3-0.3l-16.7-1.3L315,618.1z"/>
			</g>
			<polygon class="st1" points="315,618.1 314.9,617.7 238.3,611.9 238.2,612.3 			"/>
			<rect x="276.6" y="576.7" class="st1" width="0" height="77"/>
		</g>
		<rect x="122.8" y="640.2" class="st1" width="0" height="0.4"/>
		<path class="st2" d="M409,363.1c4.6-3.5,9.3-6.9,14-10.3c-9.6-3.1-20.1-2.1-28.9,2.8l-8.3,4.6l19.8,3.3
			C406.7,363.4,407.9,363.2,409,363.1L409,363.1z"/>
		<path class="st2" d="M391.1,474.9l-3,4.1l8.1,4.5c0.4-0.2,0.9-0.3,1.3-0.3c1.6-3.2,3.3-6.3,5-9.4
			C398.5,470.1,394.4,470.5,391.1,474.9L391.1,474.9z"/>
		<path class="st2" d="M371.8,469.8c2.5-5.3,5-10.5,7.5-15.7c-6.2-6.2-12.6-5.6-17.5,1.8l-4.6,6.9l12.5,7.6
			C370.4,470.1,371.1,469.9,371.8,469.8L371.8,469.8z"/>
		<path class="st2" d="M421,512c-6.6-2-13.7-1.1-19.7,2.3l-5.9,3.4l14.2,2.5c0.1,0,0.1,0,0.2,0c-0.1-0.1-0.2-0.3-0.4-0.4
			C413.2,517.2,417.1,514.6,421,512L421,512z"/>
		<path class="st2" d="M391.1,407.9l-3,4.1l8.1,4.5c0.4-0.2,0.9-0.3,1.3-0.3c1.6-3.2,3.3-6.3,5-9.4
			C398.5,403,394.4,403.5,391.1,407.9L391.1,407.9z"/>
		<path class="st2" d="M350.1,534.9l-3,4.1l8.1,4.5c0.4-0.2,0.9-0.3,1.3-0.3c1.6-3.2,3.3-6.3,5-9.4
			C357.5,530.1,353.4,530.5,350.1,534.9L350.1,534.9z"/>
		<path class="st2" d="M391.1,570l-3,4.1l8.1,4.5c0.4-0.2,0.9-0.3,1.3-0.3c1.6-3.2,3.3-6.3,5-9.4C398.5,565.2,394.4,565.6,391.1,570
			L391.1,570z"/>
		<path class="st3" d="M496.6,236.6l-2.9-1.7c-3-1.7-6.1-3.1-9.3-4.3l-43.5,19c-1,3.6-0.5,6.9,3.2,9.1l0.1,0l9-2.9
			c9.6-3,20.1-1.9,28.9,3.1c7.1-3.2,14.2-6.3,21.3-9.4C501.1,245.3,498.8,241,496.6,236.6L496.6,236.6z"/>
		<path class="st3" d="M716.2,389.3l-20-2.2l0,0L716.2,389.3c7.4,0.8,12.3-4.7,12.8-10.7C728.5,384.5,723.6,390.1,716.2,389.3z"/>
		<polygon class="st3" points="696.2,387.1 457.6,360.9 457.6,360.9 696.2,387.1 		"/>
		<path d="M729,378.6c0.3-4.1-1.4-8.3-5.8-10.9l0,0l0,0C727.7,370.3,729.4,374.5,729,378.6z"/>
		<polygon points="696.2,387.1 457.6,360.9 457.6,360.9 696.2,387.1 		"/>
		<path class="st2" d="M479.5,270.7c-4-2-8.3-3.2-12.8-3.7c-0.6-0.1-1.1-0.1-1.7-0.1l0,0l21.4,8.3
			C484.3,273.4,481.9,271.9,479.5,270.7L479.5,270.7z"/>
		<path class="st2" d="M473.6,324c4-1,7.9-2.7,11.3-5c3.3-2.2,6-5.1,8.2-8.4c4.3-6.7,5.2-15,2.5-22.5c-1.4-3.7-3.4-7.1-6.1-10
			c-1-1-2-2-3.1-2.9l-21.4-8.3c-2.2,1-4.5,2.1-6.7,3.1c7.2,12.8,14.6,25.5,22.4,38c-9.8,4.8-19.5,9.8-29.1,14.8
			C458.6,325.3,466.3,325.8,473.6,324L473.6,324z"/>
		<path class="st3" d="M696.2,387.1l20,2.2c7.4,0.8,12.3-4.7,12.8-10.7c0.3-4.1-1.4-8.3-5.8-10.9l0,0l-163.7-64l65.8,38
			c6.8,3.9,3.4,14.3-4.4,13.4l-180.4-19.8c5.6,8.6,11.3,17.1,17.2,25.5L696.2,387.1L696.2,387.1L696.2,387.1z"/>
		<polygon class="st0" points="580.1,621.4 580.1,621.4 591.3,518.8 584.2,520 571.1,531.2 579.7,518.8 592.4,509.6 595.1,484.8 
			595.3,475 590.5,463.3 597,438.4 599.9,436.6 595.4,404.4 621.8,407.3 621.8,407.3 452,388.6 452.5,389 452,411.9 453,418.9 
			465.6,432.5 475.2,433 476,425 471.3,390.8 547.8,399.2 534.3,431.4 533.8,436 533.8,436 533.8,436.8 533.8,436.8 514.3,614.2 
			514.3,614.2 519,648 566.8,653.3 		"/>
		<path class="st0" d="M456,607.8l18.6-169.3l-11.3-2.3l-17-19.2l1-24.5l-4.6-4.8l-12.4-1.4c-3.1,1.8-6.1,3.7-9.2,5.5l-0.2,0.4
			c9,12.2,18.3,24.3,27.8,36.2c-9.4,6-18.8,12.1-28,18.3c0.3,0.1,0.7,0.2,1,0.3c-3.3,2.5-6.7,5-10,7.6c-0.8,0.1-1.5,0.2-2.2,0.3
			c9.8,11.8,19.9,23.5,30.2,34.9c-12.7,9-25.2,18.3-37.5,27.9c10.8,11.6,21.8,23,33.1,34.1c-12,9.6-23.7,19.4-35.3,29.5
			c11.6,11.2,23.5,22.1,35.5,32.8c-8.1,7.3-16,14.7-23.9,22.2l31.1,3.4L456,607.8L456,607.8L456,607.8z"/>
		<polygon class="st0" points="594.9,463.1 597.1,466.7 599.5,444.8 599.2,445.1 		"/>
		<path class="st0" d="M493.2,229.9c1.1,2.2,2.3,4.5,3.4,6.7l226.6,131.1l0,0c4.4,2.5,6.1,6.8,5.8,10.9c-0.5,6-5.4,11.5-12.8,10.7
			l-20-2.2l-3.1,28.1l-63.9-7l0,0l42.7,4.7L658.4,445l-0.5,4.6l-0.1,0.8l-19.5,177.4h0l4.7,33.9l22.7,2.5l0,0.4l0,0l-3.1,28.1
			l67.2,7.4L778,261.2L493.2,229.9L493.2,229.9z"/>
		<polygon class="st2" points="482.1,431.1 482.2,430.3 533.8,436 534.3,431.4 476,425 475.2,433 479.4,433.2 494,446.1 
			506.2,454.8 510.5,464.7 506.8,473.2 508.7,490.3 503.3,476.3 502.6,458 475.7,438.8 474.6,438.5 456,607.8 456,607.8 
			514.3,614.2 533.8,436.8 		"/>
		<polygon class="st2" points="535.4,421.5 534.3,431.4 547.8,399.2 471.3,390.8 476,425 477.1,415.1 		"/>
		<rect x="500.8" y="394" transform="matrix(0.1092 -0.994 0.994 0.1092 29.7773 879.7791)" class="st2" width="10" height="58.6"/>
		<polygon class="st1" points="533.7,436.8 533.8,436 533.8,436 		"/>
		
			<rect x="507.6" y="407.6" transform="matrix(0.1092 -0.994 0.994 0.1092 21.5566 891.1793)" class="st1" width="0.8" height="51.9"/>
		<path class="st2" d="M514.3,614.2L514.3,614.2l-58.3-6.4l-13.4,31.9L519,648L514.3,614.2L514.3,614.2z M507,618.8l-51.6-5.7
			l0.1-0.8l51.6,5.7L507,618.8z"/>
		
			<rect x="480.9" y="589.7" transform="matrix(0.1092 -0.994 0.994 0.1092 -183.2123 1026.8062)" class="st1" width="0.8" height="51.9"/>
		<polygon class="st2" points="595.1,484.8 592.4,509.6 594.4,508.1 		"/>
		<polygon class="st2" points="605.9,439.3 604.3,440.3 599.5,444.8 597.1,466.7 602,475 599.5,494.4 599.1,509.3 593.3,518.4 
			591.3,518.8 580.1,621.4 580.1,621.4 638.3,627.8 657.8,450.4 606.2,444.7 606.3,444 657.9,449.6 658.4,445 658.4,445 		"/>
		<polygon class="st2" points="599.9,436.6 600.4,436.3 601.2,428.7 611,429.8 617.9,425.5 621.8,407.3 595.4,404.4 		"/>
		<path class="st2" d="M623.6,427.9l-4.3,2.8l40.3,4.4l-1.1,9.9l13.5-32.2l-42.7-4.7c-1.8,1.8-3.6,3.6-5.4,5.5L623.6,427.9
			L623.6,427.9z"/>
		<polygon class="st2" points="600.4,436.3 611,429.8 601.2,428.7 		"/>
		<polygon class="st2" points="619.3,430.7 605.9,439.3 658.4,445 658.4,445 659.5,435.1 		"/>
		
			<rect x="631.7" y="421.2" transform="matrix(0.1092 -0.994 0.994 0.1092 118.5456 1026.6699)" class="st1" width="0.8" height="51.9"/>
		<path class="st2" d="M566.8,653.3l76.3,8.4l-4.7-33.8h0l-58.2-6.4L566.8,653.3L566.8,653.3z M631.1,632.4l-51.6-5.7l0.1-0.8
			l51.6,5.7L631.1,632.4z"/>
		
			<rect x="605" y="603.3" transform="matrix(0.1092 -0.994 0.994 0.1092 -86.2035 1162.2991)" class="st1" width="0.8" height="51.9"/>
		<path class="st2" d="M452,388.6l169.8,18.6l1.3-6.1c7.8-3.5,15.6-7,23.4-10.6c-5.8,5.8-11.5,11.6-17.3,17.5l63.9,7l3.1-28.1
			l-238.6-26.2c1.6,2.3,3.1,4.5,4.7,6.8c-7.3,4.1-14.6,8.3-21.8,12.5c0,0.2,0.1,0.4,0.1,0.6L452,388.6L452,388.6z"/>
		<path class="st2" d="M437.6,447.4c-2.4,1.4-4.7,2.8-7,4.2l12.4,1.4L437.6,447.4L437.6,447.4z"/>
		<path class="st2" d="M662.7,692.6L662.7,692.6l3.1-28.1l0,0l0,0.4l-254.9-28c-2.8,2.7-5.6,5.4-8.4,8.1
			c8.5,7.3,17.1,14.4,25.7,21.5l234.5,25.8L662.7,692.6L662.7,692.6z"/>
		<path class="st3" d="M662.7,692.6l0,0.4l-233.4-25.6c3.7,3,7.4,6,11.1,8.9c-6.2,6.3-12.3,12.7-18.3,19.1l304.7,33.5l3.2-28.8
			L662.7,692.6L662.7,692.6L662.7,692.6z"/>
		<path class="st3" d="M559.5,303.8l163.7,64L496.6,236.6c2.2,4.3,4.5,8.7,6.8,13c-7.1,3.1-14.2,6.2-21.3,9.4c0,0,0.1,0,0.1,0.1
			L559.5,303.8L559.5,303.8z"/>
		<path class="st2" d="M488.4,276l71.1,27.8L482.2,259c0,0-0.1,0-0.1-0.1c-5.3,2.4-10.5,4.8-15.8,7.2c4.6,0.5,9.2,1.7,13.5,3.8
			C482.9,271.6,485.8,273.6,488.4,276z"/>
		<path class="st2" d="M625.2,341.8l-65.8-38L488.4,276c0.5,0.5,1.1,1,1.6,1.6c2.8,3,4.9,6.4,6.3,10.2c2.8,7.7,1.9,16.2-2.5,23.1
			c-2.2,3.4-5,6.4-8.4,8.6c-3.5,2.4-7.4,4.1-11.6,5.1c-4.4,1.1-9,1.4-13.5,0.9c-3.3-0.4-6.5-1.1-9.6-2.3c-4.5,2.4-8.9,4.7-13.4,7.1
			c1.1,1.7,2.2,3.3,3.3,5l180.4,19.8C628.6,356,632,345.7,625.2,341.8L625.2,341.8z"/>
		<path class="st1" d="M479.5,270.7c2.5,1.2,4.8,2.7,6.9,4.5l2,0.8c-2.5-2.4-5.4-4.4-8.5-5.9c-4.2-2.1-8.8-3.4-13.5-3.8
			c-0.5,0.2-0.9,0.4-1.4,0.6c0.6,0,1.1,0.1,1.7,0.1C471.1,267.4,475.4,268.7,479.5,270.7L479.5,270.7z"/>
		<path class="st1" d="M473.8,324.7c4.1-1,8-2.8,11.6-5.1c3.4-2.3,6.2-5.2,8.4-8.6c4.4-6.9,5.3-15.5,2.5-23.1
			c-1.4-3.8-3.5-7.3-6.3-10.2c-0.5-0.6-1.1-1.1-1.6-1.6l-2-0.8c1.1,0.9,2.1,1.9,3.1,2.9c2.7,2.9,4.8,6.3,6.1,10
			c2.7,7.5,1.8,15.8-2.5,22.5c-2.1,3.3-4.9,6.2-8.2,8.4c-3.4,2.4-7.3,4.1-11.3,5c-7.4,1.8-15,1.3-22.1-1.2c-0.3,0.2-0.6,0.3-0.9,0.5
			c3.1,1.2,6.3,2,9.6,2.3C464.8,326.1,469.4,325.8,473.8,324.7L473.8,324.7z"/>
		<polygon class="st1" points="519,648 519,648.4 566.6,653.7 566.8,653.3 		"/>
		<polygon class="st1" points="665.7,664.5 665.8,664.2 643.1,661.7 643.2,662.1 		"/>
		<polygon class="st1" points="519,648.4 519,648 442.7,639.7 442.5,640 472.3,643.3 		"/>
		<polygon class="st1" points="566.6,653.7 643.2,662.1 643.1,661.7 566.8,653.3 		"/>
		<path class="st1" d="M665.7,664.5l-22.6-2.5l0,0l-76.5-8.4l0,0l-47.6-5.2l0,0l-107.6-11.8l0,0l18.9,2.1l-19.2-2.1
			c-0.1,0.1-0.2,0.2-0.4,0.3l254.9,28L665.7,664.5L665.7,664.5z"/>
		<polygon class="st1" points="442.5,640 430.4,638.7 442.5,640 		"/>
		<polygon class="st1" points="472.3,643.3 442.5,640 442.5,640 519,648.4 519,648.4 		"/>
		<polygon class="st1" points="472.3,643.3 442.5,640 442.5,640 		"/>
		<polygon class="st1" points="411.5,636.6 519,648.4 442.5,640 442.5,640 430.4,638.7 411.5,636.6 		"/>
		<rect x="604.9" y="619.4" class="st1" width="0" height="77"/>
		<path class="st1" d="M662.7,692.2l-234.5-25.8c0.2,0.1,0.4,0.3,0.5,0.4l233.9,25.7L662.7,692.2L662.7,692.2z"/>
		<path class="st1" d="M662.7,692.6l-233.9-25.7c0.2,0.1,0.4,0.3,0.5,0.4L662.6,693L662.7,692.6L662.7,692.6z"/>
		<polygon class="st4" points="239,378.8 242.2,387.4 237.8,403.4 231.1,414.2 233.7,425.8 240.4,428.5 232,437.1 222.6,446.3 
			226.5,460.9 227,449.2 246.1,428.8 238.6,415.2 247,387.3 247.9,379 241.8,371.9 		"/>
		<path class="st4" d="M245.4,365l-0.2-0.6l-0.2,0.4C245.1,364.8,245.3,364.9,245.4,365z"/>
		<path class="st4" d="M245,364.8l-0.8,1.5l0.6,4l3.5,2.7l-2.9-8C245.3,364.9,245.1,364.8,245,364.8L245,364.8z"/>
		<polygon class="st4" points="252.9,347.6 256,347.3 256,347.3 252.9,347.6 		"/>
		<path class="st4" d="M251.6,353.1l-6.4,11.3l0.2,0.6c1.4,0.7,2.8,1.4,4.1,2.1l5.4-13.1l1-6.7l-3.1,0.3L251.6,353.1L251.6,353.1z"
			/>
		<path class="st4" d="M248.2,372.9l0.4,0.3l0.6-5.4l0.3-0.7c-1.4-0.7-2.8-1.4-4.1-2.1L248.2,372.9L248.2,372.9z"/>
		<polygon class="st4" points="246.6,321.5 251.4,329 251.2,334.6 255,338 252.9,347.6 256,347.3 257.5,337.8 252.4,322.6 
			255.4,319 249.1,319.6 		"/>
		<polygon class="st4" points="249.1,319.6 255.4,319 255.4,319 		"/>
		<polygon class="st4" points="265.7,306.9 249.1,319.6 255.4,319 		"/>
		<rect x="252.3" y="316.1" class="st4" width="0" height="6.4"/>
		<path class="st4" d="M434.4,349.2c-1.5,8.4-2.9,16.9-4.3,25.3l7.3,7.6c1.1-0.6,2.1-1.3,3.2-1.9
			C438.5,369.8,436.4,359.5,434.4,349.2L434.4,349.2z"/>
		<polygon class="st4" points="465.6,432.5 453,418.9 452,411.9 452.5,389 452,388.6 442.7,387.6 447.3,392.4 446.3,417 
			463.3,436.2 474.6,438.5 475.2,433 		"/>
		<polygon class="st4" points="502.6,458 503.3,476.3 508.7,490.3 506.8,473.2 510.5,464.7 506.2,454.8 494,446.1 479.4,433.2 
			475.2,433 474.6,438.5 475.7,438.8 		"/>
		<path class="st4" d="M452,388.6l-11.3-7.8c0-0.2-0.1-0.4-0.1-0.6c-1.1,0.6-2.1,1.3-3.2,1.9l5.3,5.5L452,388.6L452,388.6z"/>
		<polygon class="st4" points="600.2,438.6 599.9,436.6 597,438.4 590.5,463.3 595.3,475 595.1,484.8 597.1,466.7 594.9,463.1 
			599.2,445.1 599.5,444.8 600.2,438.6 		"/>
		<polygon class="st4" points="579.7,518.8 571.1,531.2 584.2,520 591.3,518.8 592.4,509.6 		"/>
		<polygon class="st4" points="621.8,407.3 629.2,408.1 629.2,408.1 621.8,407.3 		"/>
		<polygon class="st4" points="599.5,444.8 604.3,440.3 605.9,439.3 600.2,438.6 		"/>
		<polygon class="st4" points="594.4,508.1 592.4,509.6 591.3,518.8 593.3,518.4 599.1,509.3 599.5,494.4 602,475 597.1,466.7 
			595.1,484.8 		"/>
		<polygon class="st4" points="600.2,438.6 600.4,436.3 599.9,436.6 600.2,438.6 		"/>
		<path class="st4" d="M617.9,425.5l-6.9,4.2l8.3,0.9l4.3-2.8l0.2-14.3c1.8-1.8,3.6-3.6,5.4-5.5l-7.4-0.8L617.9,425.5L617.9,425.5z"
			/>
		<polygon class="st4" points="600.2,438.6 605.9,439.3 619.3,430.7 611,429.8 600.4,436.3 		"/>
		<path class="st4" d="M623.1,401.2l-1.3,6.1l7.4,0.8c5.8-5.8,11.5-11.6,17.3-17.5C638.7,394.2,630.9,397.7,623.1,401.2z"/>
		<g>
			
				<rect x="120.4" y="400.4" transform="matrix(0.9954 -9.567202e-02 9.567202e-02 0.9954 -37.6525 15.8404)" class="st1" width="51.9" height="0.4"/>
			
				<rect x="120.4" y="400" transform="matrix(0.9954 -9.567202e-02 9.567202e-02 0.9954 -37.6193 15.8335)" class="st1" width="51.9" height="0.4"/>
			<path class="st3" d="M69.8,345.7c-10.9,1-16.3-11.6-10.1-18.9C53.5,334.1,58.9,346.8,69.8,345.7l10.3-1l0,0L69.8,345.7z"/>
			<polygon class="st3" points="182.9,256.9 182.9,256.9 63,324.1 63,324.1 63,324.1 			"/>
			<polygon class="st3" points="215.1,331.8 80.1,344.7 80.1,344.7 215.1,331.8 			"/>
			<polygon points="80.1,344.7 215.1,331.8 215.1,331.8 80.1,344.7 			"/>
			<g>
				<path class="st0" d="M109.5,650.3L109.5,650.3l-2.6-27.3l0,0l-0.1-0.8l18.1-1.7l6.6-33.9l0,0h-0.1l-12.3-128.1l-4.5-6.7
					l-8.7-3.2l-6.1-12.1l-5-14.3l-9.2-12.4l-5.1,0.6l-4.1-3.9l-8.8-1.3l1.5-24l3.1,20.3l14.8,6.1l10.6,12.5l6.7,13.4l13.2,14.5
					l0.5,0.8l-4.4-45.4l0,0L102.2,371l76.6-7.4l-6.6,34.3l0,0.4l0,0L189.8,581h0.1l11.5,32.2l47.8-4.6l6.6-33.9h-0.1l-14.4-150.3
					l-6-7.6l2.3-24.4l-2.8-3.2l-1,8.4l-8.4,27.9l7.5,13.5l-19,20.4l-0.5,11.8l-3.9-14.6l9.4-9.2l8.4-8.6l-6.7-2.8l-2.6-11.5
					l6.6-10.9l4.4-16l-3.2-8.7l2.9-6.9l-7.4-8.5c0.3-1.2,0.6-2.5,0.8-3.7c-3.3-1.8-6.7-3.5-10-5.3c0.1-1.4,0.2-2.7,0.3-4.1
					L82.8,372.8l-2.7-28.1l-10.3,1c-10.9,1-16.3-11.6-10.1-18.9c0.9-1,2-2,3.4-2.7l0,0l119.8-67.2c-8.6-5.6-17.1-11.3-25.5-17.1
					c2.5-12.7,5.2-25.4,8.1-38L0,217.8l42.2,439.4l67.3-6.5L109.5,650.3L109.5,650.3z"/>
				<polygon class="st2" points="183.1,581.6 189.8,580.9 189.8,580.9 				"/>
				<polygon class="st1" points="131.4,586.6 131.4,586.6 131.4,586.6 				"/>
				<polygon class="st1" points="131.4,586.6 183.1,581.6 183.1,581.2 131.4,586.2 131.4,586.6 131.4,586.6 				"/>
				<polygon class="st1" points="183.1,582 183.1,581.6 131.4,586.6 131.4,586.6 131.5,586.9 				"/>
				<rect x="157.3" y="558.1" class="st1" width="0" height="51.9"/>
				<polygon class="st1" points="249.1,608.9 249.1,608.5 201.3,613.1 201.4,613.5 124.8,620.9 124.9,620.5 106.8,622.2 106.8,623 
					106.8,623 106.8,622.6 				"/>
				<polygon class="st1" points="201.4,613.5 201.3,613.1 124.9,620.5 124.8,620.9 				"/>
				<path class="st1" d="M109.5,650.7l255.8-24.6c-0.2-0.1-0.4-0.2-0.6-0.3l-255.2,24.5L109.5,650.7L109.5,650.7z"/>
				<g>
					<g>
						<polygon class="st2" points="183.1,581.2 183.1,581.6 189.8,581 172.2,398.3 120.5,403.3 120.5,402.9 113.8,403.5 
							118.2,448.9 133.2,472.7 148.4,476 151.3,503.7 159.9,511.8 146.3,505.2 145.5,492 144.5,480.1 138,483.3 127.6,477.7 
							123.8,465.6 119.1,458.5 131.4,586.6 131.4,586.6 131.4,586.2 						"/>
						<polygon class="st2" points="171.2,388 172.1,397.5 172.1,397.5 172.2,397.9 178.8,363.6 102.2,371 113.8,403.5 113.8,403.5 
							112.8,393.6 						"/>
						<polygon class="st2" points="120.5,402.5 172.1,397.5 171.2,388 112.8,393.6 113.8,403.5 120.5,402.9 						"/>
						<polygon class="st2" points="189.8,581 189.8,581 189.8,581 183.1,581.6 183.1,582 131.5,586.9 131.4,586.6 124.9,620.5 
							201.3,613.1 						"/>
						<path class="st2" d="M80.1,344.7l2.7,28.1l129.6-12.5c0.8-9.5,1.7-19.1,2.7-28.6L80.1,344.7L80.1,344.7z"/>
						<path class="st2" d="M109.5,650.3l255.2-24.5c-9.9-5.1-19.8-10.4-29.5-15.8c2.2-3.2,4.3-6.4,6.5-9.6L106.9,623L109.5,650.3
							L109.5,650.3z"/>
						<path class="st3" d="M109.6,651.1l0-0.4l-67.3,6.5L45,686l319.5-30.7c4.6-7.5,9.3-15,14.1-22.4c-4.2-2.1-8.5-4.3-12.7-6.5
							L109.6,651.1L109.6,651.1z"/>
						<path class="st3" d="M69.8,345.7l10.3-1l0,0l135-13c0.3-3,0.6-6,1-8.9c-7.2-4.2-14.4-8.4-21.6-12.6l-28.9,2.8
							c-7.8,0.8-11-9.7-4.2-13.5l0,0l23.5-13.2c1.3-8.5,2.6-16.9,4.1-25.4c-2-1.3-4.1-2.7-6.1-4L63.1,324.1l0,0l0,0
							c-1.4,0.8-2.5,1.7-3.4,2.7C53.5,334.1,58.9,346.8,69.8,345.7L69.8,345.7z"/>
						<path class="st2" d="M161.4,299.5c-6.8,3.8-3.6,14.2,4.2,13.5l28.9-2.8c-4-2.4-8-4.8-12-7.2c0.8-5.6,1.6-11.1,2.4-16.7
							L161.4,299.5L161.4,299.5L161.4,299.5z"/>
					</g>
					<path class="st1" d="M325.7,601.6l-76.6,7.4l0,0l-142.2,13.7l0,0.4l234.8-22.6c0.1-0.1,0.2-0.3,0.3-0.4L325.7,601.6
						L325.7,601.6L325.7,601.6z"/>
					<path class="st1" d="M109.5,650.7l0,0.4l256.4-24.6c-0.2-0.1-0.4-0.2-0.6-0.3L109.5,650.7C109.5,650.7,109.5,650.7,109.5,650.7
						z"/>
				</g>
			</g>
			<polygon class="st4" points="117.7,448.1 104.4,433.6 97.7,420.2 87.1,407.7 72.3,401.6 69.2,381.3 67.7,405.2 76.5,406.5 
				80.6,410.4 85.7,409.7 94.9,422.2 99.9,436.4 106,448.5 114.6,451.8 119.1,458.5 118.2,448.9 			"/>
			<polygon class="st4" points="127.6,477.7 138,483.3 144.5,480.1 145.5,492 146.3,505.2 159.9,511.8 151.3,503.7 148.4,476 
				133.2,472.7 118.2,448.9 119.1,458.5 123.8,465.6 			"/>
		</g>
		<path class="st4" d="M243,358.2l-3.3-9.3l2-0.2l0,0l-3.9,0.4c-0.8,3.5-1.6,7-2.4,10.6c2.9,1.5,5.7,3,8.6,4.5
			C243.6,362.2,243.3,360.2,243,358.2L243,358.2z"/>
		<path class="st4" d="M244.1,366.2c-0.1-0.7-0.2-1.4-0.3-2.1c-2.9-1.5-5.7-3-8.6-4.5c-0.3,1.2-0.6,2.5-0.8,3.7l7.4,8.5L244.1,366.2
			L244.1,366.2L244.1,366.2z"/>
		<polygon class="st4" points="251.3,381.4 248.5,373.8 247.9,379 250.7,382.2 248.4,406.6 254.4,414.2 251.3,381.4 		"/>
		<path class="st4" d="M310,457.7l-3.8-10.1l-9.6-7.6c0,2,0.1,4,0.1,6.1l5.7,4.6l-0.3,18.3l1.8,5.6c0.8,0.3,1.6,0.6,2.4,1l-0.6-9.5
			L310,457.7L310,457.7z"/>
		<path class="st4" d="M276.6,429.9l20.1,16.1c0-2-0.1-4-0.1-6.1l-2.1-1.7l-14-13.7l-13.7-1.5l-7.5-9c0,0-0.1,0-0.1-0.1
			c0,0,0-0.1,0-0.1l-4.2-5.1l-0.7-7l1.6-20.9l-4.6,0.4l3.1,32.7l10,12.5L276.6,429.9L276.6,429.9z"/>
		<path class="st4" d="M259.3,414c0,0,0.1,0,0.1,0.1l-0.1-0.2C259.3,413.9,259.3,414,259.3,414L259.3,414z"/>
		<path class="st4" d="M306.9,483.1l-0.5-7.7c-0.8-0.3-1.6-0.6-2.4-1L306.9,483.1L306.9,483.1z"/>
		<path class="st4" d="M239.7,348.9l3.3,9.3l-1.4-9.5L239.7,348.9L239.7,348.9z"/>
		<polygon class="st4" points="248.6,373.2 248.5,373.8 251.3,381.4 251.3,381.4 250.6,374.8 		"/>
		<polygon class="st4" points="250.6,374.8 251.3,381.4 255.9,381 256,379 		"/>
		<path class="st4" d="M237.7,349.1l3.9-0.4c-0.5-3.5-1-6.9-1.5-10.4C239.3,341.9,238.5,345.5,237.7,349.1z"/>
		<path class="st4" d="M248.2,372.9l-3.5-2.7l-0.6-4l0,0l-2.3,5.6l6.1,7.1l0.6-5.2L248.2,372.9L248.2,372.9z"/>
		<polygon class="st4" points="248.2,372.9 248.5,373.8 248.6,373.2 		"/>
		<polygon class="st5" points="540.7,108.2 518.3,168 554.5,157.9 		"/>
		<path class="st5" d="M378.1,212.6L378.1,212.6C378.1,212.6,378.1,212.6,378.1,212.6L378.1,212.6L378.1,212.6z"/>
		<path class="st5" d="M378.1,212.6c0.4-0.3,0.9-0.5,1.3-0.8c-0.8,0-1.7,0.1-2.5,0.1l0.2,0.4L378.1,212.6
			C378.1,212.7,378.1,212.7,378.1,212.6L378.1,212.6z"/>
		<path class="st5" d="M471,227.5c-7.6-0.8-15.3-0.2-22.7,2c9.5-2.5-4.6,10.1-7.4,20.1l43.5-19C480.1,229.1,475.6,228,471,227.5
			L471,227.5z"/>
		<path class="st4" d="M496.3,193.1l0.6,2.3l62-17.3l8.9,31.8l-15.6,4.4l1.3,4.6l56.1-15.6l-1.3-4.6l-15.6,4.4l-8.9-31.8l20.2-5.6
			l-1.8-6.3l-20.2,5.6l-26.2-94.1l-28.8,8l-35.6,96.6l1.7,6c0.8,1.9,1.5,4,2.1,6.2C495.7,189.4,496.1,191.3,496.3,193.1L496.3,193.1
			z M540.7,108.2l13.8,49.6L518.3,168L540.7,108.2z"/>
		<path class="st4" d="M455.3,248.5c6.5-1.8,12.5-4.8,18-8.7c5.5-3.9,10.4-8.7,14.4-14.2c3.9-5.4,6.6-11.5,8.1-17.9
			c1.1-4.8,1.3-9.7,0.6-14.5l-3.3-11.7c-2.3-5.7-5.3-10.2-9-13.4c-4.8-4.1-10.4-7.2-16.5-8.9c-6.2-1.7-12.5-2.5-18.9-2.5
			c-6.6,0-12.7-0.2-18.4-0.6c-5.1-0.3-10.2-1.4-14.9-3.4c-4.3-1.8-7.2-5.4-8.6-10.6c-0.9-2.9-0.7-5.9,0.5-8.7c1.2-2.8,2.9-5.4,5-7.6
			c2.2-2.3,4.8-4.3,7.6-5.9c2.5-1.5,5.2-2.6,8-3.5c2.8-0.7,5.6-1,8.5-0.9c3.2,0.1,6.3,0.6,9.3,1.6c2.9,1,5.6,2.4,8.1,4.3
			c2.3,1.8,4,4.3,4.8,7.1l8.6-2.4l-11-39.6l-4.9,1.4l2.3,8.2c-2.4-1.7-5-2.8-7.9-3.5c-3.1-0.7-6.2-1.1-9.4-1.2
			c-3.2-0.1-6.5,0.2-9.7,0.6c-2.9,0.4-5.7,0.9-8.5,1.7c-6,1.7-11.7,4.4-16.8,8c-5.3,3.6-10,8.1-13.8,13.3
			c-3.8,5.1-6.6,10.8-8.3,16.9c-1.7,6-1.7,12.4,0,18.4c2.5,8.8,6.1,15.4,11,19.7c4.7,4.2,10.4,7.4,16.5,9.1c6.2,1.7,12.6,2.7,19,2.8
			c6.6,0.2,12.7,0.5,18.5,1.1c5.2,0.4,10.2,1.6,15,3.6c4.2,1.9,7.1,5.4,8.5,10.6c0.9,3.1,0.8,6.5-0.3,9.5c-1.2,3.1-3,5.9-5.2,8.2
			c-2.4,2.4-5.1,4.6-8,6.3c-2.7,1.7-5.6,2.9-8.6,3.8c-3.2,0.9-6.6,1.2-9.9,1c-3.5-0.2-7-0.8-10.3-2c-3.2-1.1-6.2-2.9-8.8-5.2
			c-2.5-2.2-4.3-5.2-5.2-8.4l-9.1,2.5l12.2,43.7l5.8-1.6l-2.7-9.7c2.5,1.8,5.4,3.1,8.4,3.8c3.3,0.8,6.6,1.3,10,1.4
			c3.5,0.1,6.9,0,10.3-0.4C449.1,250,452.2,249.4,455.3,248.5L455.3,248.5z"/>
		<path class="st4" d="M495.1,187.6c-0.6-2.2-1.3-4.3-2.1-6.2l3.3,11.7C496.1,191.3,495.7,189.5,495.1,187.6L495.1,187.6z"/>
		<g id="Group_133">
			<path id="Path_1" class="st5" d="M417.4,9.6c7.5-3.3,16-3.6,23.7-1l138.8,47.9c8.3,2.8,15,9,18.5,17l45.3,103.9
				c7,15.9-0.7,34.7-17,41.8l-198.1,86.4c-16.3,7.1-35.2-0.1-42.2-16l-45.3-104c-3.5-8-3.4-17.1,0.1-25.1l59.3-134.3
				C403.9,18.8,409.9,12.8,417.4,9.6L417.4,9.6z"/>
			<path id="Path_13" class="st4" d="M581.5,158.2l13.2,30.3l14.9-6.5l1.9,4.4L558,209.7l-1.9-4.4l14.9-6.5l-13.2-30.3l-59,25.7
				l-8.3-19l21.8-100.7l27.4-12l39,89.5l19.2-8.4l2.6,6L581.5,158.2L581.5,158.2z M530.1,101.8l-13.9,62.2l34.5-15L530.1,101.8z"/>
			<path id="Path_14" class="st4" d="M499.3,206.6c-0.6,6.6-2.5,13-5.5,18.9c-3.1,6-7.3,11.4-12.2,16.1c-4.9,4.6-10.5,8.4-16.6,11.1
				c-2.9,1.2-5.9,2.3-8.9,3.1c-3.3,0.9-6.7,1.5-10.2,1.9c-3.4,0.3-6.7,0.3-10.1,0c-3.1-0.3-6.1-1.2-8.8-2.6l4,9.2l-5.5,2.4
				L407.3,225l8.6-3.8c1.3,3.1,3.5,5.8,6.4,7.6c2.8,1.9,6,3.3,9.4,3.9c3.5,0.7,7,0.9,10.5,0.6c3.3-0.3,6.6-1.1,9.7-2.4
				c2.9-1.3,5.5-3,8-5c2.7-2.1,5-4.6,7-7.4c2-2.6,3.3-5.7,4.1-8.9c0.7-3.2,0.4-6.5-1-9.5c-2.2-5-5.5-8.1-9.9-9.3
				c-5-1.3-10.2-1.8-15.4-1.5c-5.8,0.3-12,0.8-18.5,1.5c-6.4,0.8-12.8,0.7-19.2-0.1c-6.3-0.9-12.3-3.1-17.6-6.7
				c-5.5-3.6-10-9.6-13.7-18c-2.5-5.7-3.4-12-2.6-18.2c0.8-6.3,2.8-12.3,5.9-17.9c3.1-5.6,7.1-10.7,11.9-15.1
				c4.5-4.3,9.8-7.7,15.5-10.2c2.7-1.1,5.4-2.1,8.2-2.9c3.1-0.9,6.3-1.5,9.5-1.9c3.1-0.4,6.3-0.5,9.5-0.2c2.9,0.2,5.7,1,8.3,2.3
				l-3.4-7.8l4.7-2.1l16.4,37.7l-8.2,3.6c-1.1-2.7-3.2-4.9-5.7-6.4c-2.7-1.5-5.6-2.6-8.6-3.1c-3.1-0.6-6.3-0.7-9.5-0.3
				c-2.9,0.3-5.6,1-8.3,2.1c-2.7,1.2-5.2,2.7-7.5,4.5c-2.6,1.9-4.8,4.3-6.7,6.9c-1.8,2.5-3.1,5.3-3.9,8.2c-0.8,2.9-0.5,5.9,0.7,8.7
				c2.2,5,5.5,8.1,10,9.3c5,1.3,10.1,1.7,15.3,1.3c5.7-0.4,11.8-1,18.3-1.9c6.3-0.9,12.7-0.9,19.1-0.1c6.2,0.8,12.2,3,17.5,6.5
				c5.5,3.5,10.1,9.5,13.7,17.8C498.7,193,499.9,199.8,499.3,206.6L499.3,206.6z"/>
		</g>
		
			<rect x="258.3" y="382.8" transform="matrix(0.9957 -9.293586e-02 9.293586e-02 0.9957 -34.3831 28.0785)" class="st1" width="51.9" height="0.8"/>
		
			<rect x="120.4" y="399.9" transform="matrix(0.9957 -9.304783e-02 9.304783e-02 0.9957 -36.6052 15.3551)" class="st1" width="51.9" height="0.8"/>
		
			<rect x="131.3" y="583.5" transform="matrix(0.9954 -9.528601e-02 9.528601e-02 0.9954 -54.921 17.6414)" class="st1" width="51.9" height="0.8"/>
		
			<rect x="275.7" y="560.6" transform="matrix(7.472409e-02 -0.9972 0.9972 7.472409e-02 -329.4215 818.0334)" class="st1" width="0.8" height="51.9"/>
	</g>
</g>
</svg>
