<?xml version="1.0" encoding="UTF-8"?>
<svg id="Layer_2" data-name="Layer 2" xmlns="http://www.w3.org/2000/svg" viewBox="0 0 793.74 604.43">
  <defs>
    <style>
      .cls-1 {
        fill: rgba(92, 92, 92, 0);
      }

      .cls-1, .cls-2, .cls-3, .cls-4, .cls-5, .cls-6, .cls-7 {
        stroke-width: 0px;
      }

      .cls-2 {
        fill: none;
      }

      .cls-3 {
        fill: #756746;
      }

      .cls-4 {
        fill: #5c5c5c;
      }

      .cls-5 {
        fill: #2c2c7c;
      }

      .cls-6 {
        fill: #d0d8d7;
      }

      .cls-7 {
        fill: #fff;
      }
    </style>
  </defs>
  <g id="Layer_8" data-name="Layer 8">
    <g>
      <rect class="cls-2" x="109.49" y="475.3" width="0" height=".37" transform="translate(-43.9 12.3) rotate(-5.36)"/>
      <path class="cls-2" d="m269.62,268.07l11.51,5.23,17.11,19.29c-1.32,8.47-2.55,16.97-3.69,25.48,1.99,1.26,4.01,2.51,6.01,3.77l1.33,9.06.84-7.7c4.06,2.54,8.11,5.08,12.2,7.6l1.27-16.83c-.81-.33-1.63-.66-2.45-.99l-.59-9.46,4.22-8.24-3.79-10.14-3.72-2.97.18.49-4.22,8.24.17,2.72.86.69-.16,10.58.2,3.19-.24-.72-.08,5.21,1.84,5.6c-2.19-.9-4.39-1.78-6.57-2.69-.33-8.58-.55-17.16-.7-25.73l1.1.88.13-8.42-18.42-14.72-12.23-3.19-9.97-12.53-6.03-7.58.81-8.56-1.5-1.8-.7-6.98.78-10.48-5.97-6.92-1.64-1.9-.55,4.72-8.39,27.92,7.48,13.55-3.99,4.27,10.96,114,8.91-118,7.69,14.05Z"/>
      <path class="cls-2" d="m63.04,149.05h0c-1.37.77-2.48,1.7-3.36,2.74.88-1.04,1.99-1.97,3.36-2.74Z"/>
      <path class="cls-2" d="m244.7,187.97c.1-.44.2-.88.3-1.31l-.74.07.44,1.24Z"/>
      <path class="cls-2" d="m245,186.66l3.95-.38c-.5-3.47-1-6.94-1.51-10.41-.81,3.6-1.63,7.19-2.44,10.79Z"/>
      <path class="cls-2" d="m255.56,210.51v-.04s-2.83-7.93-2.83-7.93l-.2-.56-2.2-6.17c.29,1.98.57,3.96.86,5.94.1.69.2,1.37.3,2.06l.58,3.99,3.5,2.71Z"/>
      <path class="cls-2" d="m266.75,251.69l-.14-.17s0,.07,0,.1c.05.02.1.05.15.07Z"/>
      <polygon class="cls-2" points="172.13 222.52 172.17 222.89 172.2 223.26 172.2 223.26 172.17 222.89 172.13 222.52 172.13 222.52"/>
      <path class="cls-6" d="m382.44,448.12l5.05,2.78c-1.26-1.51-2.5-3.03-3.75-4.54l-1.3,1.76Z"/>
      <path class="cls-5" d="m376.82,36.97c-.31.02-.62.04-.94.07l1.1.29-.16-.37Z"/>
      <path class="cls-2" d="m307.57,9.27s.02-.01.03-.02c.33-.19.64-.34.93-.49,6.84-3.67,14.27-5.9,21.85-6.63,7.93-.76,16.02.11,23.75,2.66l3.17,1.05c-1.57-1.94-3.15-3.89-4.7-5.84l-173.95,16.72c-2.87,12.61-5.57,25.27-8.07,37.96,8.41,5.76,16.94,11.43,25.53,17.05l111.47-62.47Z"/>
      <polygon class="cls-2" points="263.54 171.57 263.53 171.56 258.52 172.04 258.52 172.05 263.54 171.57"/>
      <path class="cls-2" d="m243.86,189.14c.08.52.15,1.04.23,1.56.1-.43.19-.86.29-1.29-.17-.09-.35-.18-.52-.27Z"/>
      <path class="cls-2" d="m225.64,175.2c-.11,1.37-.23,2.74-.34,4.11,2.67,1.43,5.36,2.85,8.05,4.27.26-3.07.53-6.13.81-9.2l-8.51.82Z"/>
      <path class="cls-2" d="m244.7,187.97l-.44-1.24-.74.07c.11.78.23,1.56.34,2.34.17.09.34.18.52.27.11-.48.22-.96.32-1.44Z"/>
      <polygon class="cls-6" points="255.56 210.48 255.56 210.51 255.58 210.53 255.56 210.48"/>
      <polygon class="cls-6" points="255.26 216.54 255.12 216.37 254.34 226.85 255.04 233.83 256.54 235.63 258.04 219.75 255.26 216.54"/>
      <polygon class="cls-6" points="255.87 211.35 255.94 210.81 255.58 210.53 255.87 211.35"/>
      <path class="cls-6" d="m302.21,293.8l.05-3.16-1.1-.88c.15,8.57.37,17.15.7,25.73,2.18.91,4.38,1.79,6.57,2.69l-1.84-5.6.08-5.21-2.62-7.98-1.84-5.6Z"/>
      <polygon class="cls-6" points="306.7 304.9 306.87 294.32 306 293.63 306.42 300.37 306.7 304.9"/>
      <polygon class="cls-4" points="228.32 146.58 228.32 146.58 230 146.42 230 146.42 228.32 146.58"/>
      <polygon class="cls-4" points="339.22 135.92 344.45 135.42 344.45 135.42 339.22 135.92 339.22 135.92"/>
      <polygon class="cls-1" points="229.99 146.42 228.32 146.58 228.32 146.58 230 146.42 229.99 146.42"/>
      <polygon class="cls-1" points="344.45 135.42 344.45 135.42 339.21 135.92 339.22 135.92 344.45 135.42"/>
      <path class="cls-5" d="m318.07,64.54c-2.81,2.91-5,6.37-6.44,10.15-2.9,7.65-2.07,16.22,2.23,23.18,2.13,3.44,4.94,6.41,8.26,8.74,3.48,2.45,7.37,4.25,11.49,5.31,1.19.31,2.4.56,3.61.75.27-.22.53-.44.8-.65-1.41-.2-2.82-.47-4.22-.82-4.03-1.03-7.85-2.79-11.25-5.19-3.23-2.27-5.97-5.16-8.05-8.52-4.18-6.76-4.98-15.08-2.16-22.52,1.4-3.69,3.54-7.06,6.28-9.9,2.88-3.01,6.29-5.46,10.05-7.25,3.52-1.68,7.28-2.81,11.14-3.34l-2.22-.37c-3.17.63-6.28,1.64-9.24,3.04-3.85,1.82-7.33,4.33-10.27,7.4Z"/>
      <path class="cls-2" d="m316.2,313.98l-1.27,16.83c5.12,3.16,10.26,6.31,15.43,9.43-1.41,13.21-2.61,26.46-3.59,39.74.98-13.28,2.18-26.53,3.59-39.74-5.17-3.12-10.3-6.27-15.43-9.43l-5.9,78.19h.05s3.27,18.83,3.27,18.83l12.86-1.24c.5-.3,1-.6,1.51-.9l.65.68,14.59-1.4c-.09.14-.19.27-.28.4-2.19,3.19-4.37,6.39-6.53,9.61,1.15.64,2.31,1.25,3.47,1.88,5.33-5.36,10.7-10.68,16.13-15.92-12.4-10.26-24.61-20.77-36.62-31.53,11.23-10.46,22.67-20.68,34.28-30.66-11.62-10.75-23.03-21.74-34.22-32.96,12.01-9.97,24.19-19.68,36.54-29.15-10.8-11.2-21.38-22.61-31.72-34.25,12.74-9.43,25.64-18.6,38.69-27.5-9.9-11.53-19.56-23.27-28.97-35.2l-9.85,25.93-.35,4.62h0s-.06.75-.06.75h0s-1.67,22.13-1.67,22.13l6.27,65.27c-3.64-1.46-7.25-2.94-10.87-4.42Z"/>
      <polygon class="cls-5" points="302.02 413.1 253.8 409.46 253.66 410.2 301.96 413.84 302.02 413.1"/>
      <path class="cls-6" d="m255.72,399.59l-1.03,5.3,54.33,4.1,5.9-78.19c-4.09-2.52-8.14-5.06-12.2-7.6l-.84,7.7-1.33-9.06c-2-1.26-4.02-2.5-6.01-3.77,1.14-8.51,2.38-17,3.69-25.48l-17.11-19.29-11.51-5.23-7.69-14.05-8.91,118,2.65,27.57h.05Z"/>
      <polygon class="cls-6" points="253.8 409.46 302.02 413.1 301.96 413.84 253.66 410.2 249.14 433.51 249.06 433.9 249.06 433.9 312.34 427.82 309.07 409 309.02 408.99 254.69 404.89 253.8 409.46"/>
      <path class="cls-6" d="m369.97,392.73l-5.36,7.81,19.21-5.76c.92-.7,1.87-1.37,2.85-1.99,1.82-3.57,3.67-7.12,5.52-10.67-.88-1.2-1.77-2.4-2.65-3.6-7.91,2.33-14.84,7.31-19.57,14.2Z"/>
      <path class="cls-6" d="m410.01,421.52c.86-.54,1.72-1.07,2.58-1.61-.89.31-1.75.85-2.58,1.61Z"/>
      <path class="cls-6" d="m387.22,433.36c2.5-5.3,5.01-10.55,7.53-15.74-6.23-6.22-12.57-5.59-17.49,1.76l-4.61,6.9,12.51,7.6c.68-.26,1.36-.43,2.06-.52Z"/>
      <path class="cls-6" d="m357.95,437.88l-3.04,4.13,8.1,4.46c.44-.16.89-.26,1.34-.32,1.65-3.17,3.31-6.31,4.99-9.41-4.02-3.67-8.15-3.26-11.39,1.14Z"/>
      <path class="cls-6" d="m398.96,472.97l-3.04,4.13,8.1,4.46c.44-.16.89-.26,1.34-.32,1.03-1.97,2.07-3.91,3.1-5.86-1.7-1.93-3.4-3.87-5.09-5.81-1.58.45-3.08,1.57-4.42,3.4Z"/>
      <path class="cls-4" d="m716.82,289.07l-19.55-4.6h0s19.55,4.6,19.55,4.6c7.25,1.7,12.82-3.2,14.05-9.04-1.23,5.84-6.8,10.74-14.05,9.04Z"/>
      <rect class="cls-4" x="655.77" y="279.66" width="42.07" height="0" transform="translate(-15.25 40.23) rotate(-3.37)"/>
      <path class="cls-1" d="m730.87,280.04c.84-4-.35-8.44-4.42-11.5h0s0,0,0,0c4.07,3.07,5.26,7.51,4.42,11.5Z"/>
      <rect class="cls-1" x="676.8" y="258.63" width="0" height="42.07" transform="translate(269.84 888.47) rotate(-78.69)"/>
      <path class="cls-4" d="m515.63,226.44l.3,12.14c.2-1.87.27-3.75.2-5.64-.06-2.29-.22-4.46-.5-6.51Z"/>
      <path class="cls-4" d="m656.32,274.85l40.95,9.63h0s19.55,4.6,19.55,4.6c7.25,1.7,12.82-3.2,14.05-9.04.84-4-.35-8.44-4.42-11.5h0s-71.22-38.35-71.22-38.35l1.09,44.66Z"/>
      <path class="cls-6" d="m391.88,452.25c1.65-3.17,3.31-6.31,4.99-9.41-4.02-3.67-8.15-3.26-11.39,1.14l-1.74,2.37c1.25,1.51,2.5,3.04,3.75,4.54l3.05,1.68c.44-.16.89-.26,1.34-.32Z"/>
      <path class="cls-6" d="m389.54,378.53c.88,1.2,1.77,2.4,2.65,3.6.82-1.57,1.62-3.15,2.44-4.72-1.73.25-3.43.63-5.09,1.12Z"/>
      <path class="cls-6" d="m408.51,423.21l-3.04,4.13,8.1,4.46c.44-.16.89-.26,1.34-.32,1.65-3.17,3.31-6.31,4.99-9.41-2.47-2.26-4.99-2.97-7.31-2.15-.86.54-1.72,1.07-2.58,1.61-.52.48-1.02,1.03-1.5,1.68Z"/>
      <path class="cls-6" d="m430.78,448.94c-6.61-1.95-13.71-1.12-19.71,2.35l-5.93,3.42,14.21,2.53c.07-.01.15-.03.22-.04-.11-.14-.23-.28-.35-.41,3.84-2.64,7.69-5.25,11.55-7.85Z"/>
      <path class="cls-6" d="m422.13,388.65c1.65-3.17,3.31-6.31,4.99-9.41-4.02-3.67-8.15-3.26-11.39,1.14l-3.04,4.13,8.1,4.46c.44-.16.89-.26,1.34-.32Z"/>
      <path class="cls-6" d="m403.38,469.57c1.69,1.94,3.39,3.88,5.09,5.81.63-1.18,1.25-2.38,1.88-3.55-2.35-2.15-4.74-2.89-6.97-2.26Z"/>
      <polygon class="cls-2" points="587.52 347.71 589.2 351.51 594.25 330.05 593.9 330.3 587.52 347.71"/>
      <polygon class="cls-6" points="486.86 315.69 489.44 318.59 500.46 328.69 503.54 339.06 498.77 346.99 498.66 364.21 494.95 349.62 496.49 331.42 479.55 315.87 469.27 316.12 434.48 464.12 442.52 465 434.48 464.12 432.05 474.45 432.1 474.46 489.12 487.87 529.85 314.64 486.86 315.69"/>
      <rect class="cls-5" x="455.84" y="455.26" width=".75" height="51.91" transform="translate(-116.63 815.2) rotate(-76.77)"/>
      <polygon class="cls-6" points="585.04 369.2 579.32 393.51 581.57 392.25 585.04 369.2"/>
      <polygon class="cls-6" points="597.95 314.3 607.49 316.55 614.83 313.17 615.04 312.55 595.48 313.03 595.63 321.99 596.2 321.73 597.95 314.3"/>
      <path class="cls-6" d="m624.98,312.31l-4.22.1-.51,3.79-4.65,2.25,39.42,9.27-2.28,9.71,17.31-30.36-21.96-5.16c-5.73,6.19-13.93,10.17-23.11,10.39Z"/>
      <polygon class="cls-6" points="596.2 321.73 607.49 316.55 597.95 314.3 596.2 321.73"/>
      <polygon class="cls-6" points="615.6 318.45 601.33 325.35 652.74 337.44 652.74 337.43 655.02 327.72 615.6 318.45"/>
      <rect class="cls-5" x="625.95" y="310.41" width=".75" height="51.91" transform="translate(155.54 869.08) rotate(-76.77)"/>
      <path class="cls-6" d="m656.45,280c.21,8.4-2.99,16.12-8.36,21.91l42.72,10.04,6.46-27.48-40.95-9.63.13,5.15Z"/>
      <path class="cls-6" d="m438.23,410.13l-5.32-5.54c-2.35,1.39-4.7,2.78-7.04,4.19l12.36,1.36Z"/>
      <path class="cls-6" d="m325.7,426.53l1.65-.16-.65-.68c-.5.3-1,.6-1.51.9l.51-.05h0Z"/>
      <path class="cls-6" d="m401.03,396.9c.15,1.31.3,2.61.45,3.92l2.61-2.71c-.29-.38-.58-.76-.87-1.14l-2.2-.07Z"/>
      <path class="cls-6" d="m403.23,396.97c.29.38.58.76.87,1.14l1.05-1.08-1.91-.06Z"/>
      <path class="cls-6" d="m439.31,317.82l.87-.9c-.32,0-.65.02-.97.02.03.29.07.59.1.88Z"/>
      <polygon class="cls-4" points="726.45 268.53 654.85 214.56 655.23 230.18 726.45 268.53"/>
      <path class="cls-7" d="m241.22,249.3l.84,8.72,3.99-4.27-7.48-13.55,8.39-27.92.55-4.72-5.74-6.64c.25-1.09.49-2.18.74-3.27l-.69-.8-2.85,6.9,3.23,8.66-4.42,15.96-1.57,2.56-1.02,10.8,6.03,7.58Z"/>
      <polygon class="cls-7" points="231.88 262.18 222.59 271.27 223.34 274.07 232.83 263.9 231.88 262.18"/>
      <rect class="cls-7" x="251.25" y="157.48" width="4.4" height="0" transform="translate(-13.91 24.97) rotate(-5.49)"/>
      <polygon class="cls-7" points="257.25 164.19 257.47 162.73 255.79 157.7 253.98 159.08 257.25 164.19"/>
      <polygon class="cls-7" points="496.49 331.42 494.95 349.62 498.66 364.21 498.77 346.99 503.54 339.06 500.46 328.69 489.44 318.59 486.86 315.69 479.55 315.87 496.49 331.42"/>
      <polygon class="cls-7" points="595.66 324.02 595.63 321.99 592.52 323.42 583.13 347.35 586.5 359.53 585.04 369.2 589.2 351.51 587.52 347.71 593.9 330.3 594.25 330.05 595.66 324.02 595.66 324.02"/>
      <polygon class="cls-7" points="565.63 401.16 555.6 412.39 569.94 402.85 577.22 402.48 579.32 393.51 565.63 401.16"/>
      <polygon class="cls-7" points="594.25 330.05 599.58 326.19 601.33 325.35 595.66 324.02 594.25 330.05"/>
      <polygon class="cls-7" points="581.57 392.25 579.32 393.51 577.22 402.48 579.18 402.38 586.06 394.01 588.26 379.24 593.11 360.32 589.2 351.51 585.04 369.2 581.57 392.25"/>
      <polygon class="cls-7" points="595.66 324.02 596.2 321.73 595.63 321.99 595.66 324.02 595.66 324.02"/>
      <polygon class="cls-7" points="614.83 313.17 607.49 316.55 615.6 318.45 620.25 316.2 620.77 312.41 615.04 312.55 614.83 313.17"/>
      <polygon class="cls-7" points="596.2 321.73 595.66 324.02 601.33 325.35 615.6 318.45 607.49 316.55 596.2 321.73"/>
      <rect class="cls-5" x="120.4" y="225.37" width="51.9" height=".37" transform="translate(-20.9 15.03) rotate(-5.49)"/>
      <rect class="cls-5" x="120.36" y="225" width="51.9" height=".38" transform="translate(-20.87 15.03) rotate(-5.49)"/>
      <path class="cls-4" d="m69.82,170.7c-10.92,1.05-16.29-11.62-10.14-18.91-6.16,7.29-.78,19.96,10.14,18.91l10.29-.99h0s-10.29.99-10.29.99Z"/>
      <polygon class="cls-4" points="63.04 149.05 63.04 149.05 182.88 81.89 182.88 81.89 63.04 149.05 63.04 149.05"/>
      <polygon class="cls-4" points="80.1 169.71 215.11 156.73 215.11 156.73 80.1 169.71 80.1 169.71"/>
      <polygon class="cls-1" points="80.1 169.71 215.11 156.73 215.11 156.73 80.1 169.71 80.1 169.71"/>
      <polygon class="cls-2" points="240.39 253.51 233.69 250.74 231.12 239.22 236.21 230.92 237.49 217.28 234.72 214.08 233.74 222.43 225.35 250.35 231.88 262.18 231.99 262.08 240.39 253.51"/>
      <path class="cls-2" d="m109.48,475.3h0s-2.63-27.35-2.63-27.35h0s-.07-.75-.07-.75l18.09-1.74,6.58-33.92h0s-.05,0-.05,0l-12.31-128.07-4.46-6.71-8.65-3.23-6.07-12.1-4.99-14.27-9.21-12.44-5.09.65-4.12-3.89-8.77-1.29,1.5-23.95,3.09,20.33,14.8,6.1,10.61,12.53,6.72,13.4,13.21,14.48.51.81-4.36-45.38h0s-11.62-32.55-11.62-32.55l76.64-7.37-6.65,34.31.04.37h0s17.56,182.66,17.56,182.66h.05s11.49,32.19,11.49,32.19l37.96-3.65,11.34-29.88h-.05s2.46-32.56,2.46-32.56l-10.96-114-15.05,16.12-.52,11.77-3.15-11.84-9.54,10.22-.52,11.77-3.9-14.64,9.4-9.2,8.4-8.56-6.7-2.77-2.57-11.52,6.65-10.85,4.42-15.96-3.23-8.66,2.85-6.9-7.38-8.54c.28-1.23.56-2.47.84-3.7-3.33-1.76-6.67-3.51-9.98-5.29.11-1.37.23-2.74.34-4.11l-129.62,12.46-2.7-28.1-10.29.99c-10.92,1.05-16.29-11.62-10.14-18.91.88-1.04,1.99-1.97,3.36-2.74h0s119.84-67.16,119.84-67.16c-8.59-5.63-17.12-11.3-25.53-17.05,2.5-12.7,5.2-25.35,8.07-37.96L0,42.77l42.23,439.37,67.28-6.47-.04-.37Zm75.87-262.93l.04.37.04.37h0s-.04-.37-.04-.37l-.04-.37h0Zm-109.09-73.47h0c-1.37.77-2.48,1.7-3.36,2.74.88-1.04,1.99-1.97,3.36-2.74Z"/>
      <rect class="cls-5" x="185.4" y="212.74" width="0" height=".37" transform="translate(-12.92 11.98) rotate(-3.58)"/>
      <rect class="cls-5" x="185.36" y="212.37" width="0" height=".38" transform="translate(-19.47 18.69) rotate(-5.49)"/>
      <path class="cls-1" d="m76.25,138.9h0c-1.37.77-2.48,1.7-3.36,2.74.88-1.04,1.99-1.97,3.36-2.74Z"/>
      <polygon class="cls-5" points="250.26 409.19 250.2 409.94 253.66 410.2 253.8 409.46 250.26 409.19"/>
      <polygon class="cls-6" points="255.72 399.59 255.67 399.6 253.02 372.03 250.56 404.58 250.61 404.58 254.69 404.89 255.72 399.59"/>
      <polygon class="cls-6" points="253.66 410.2 250.2 409.94 250.26 409.19 253.8 409.46 254.69 404.89 250.61 404.58 239.27 434.46 249.14 433.51 253.66 410.2"/>
      <polygon class="cls-7" points="227.01 274.14 242.06 258.03 241.22 249.3 235.19 241.72 236.21 230.92 231.12 239.22 233.69 250.74 240.39 253.51 231.99 262.08 231.88 262.18 232.83 263.9 223.34 274.07 226.49 285.91 227.01 274.14"/>
      <rect class="cls-6" x="183.1" y="406.24" width="6.68" height="0" transform="translate(-38.01 19.7) rotate(-5.49)"/>
      <polygon class="cls-5" points="131.45 411.53 131.45 411.54 131.45 411.53 131.45 411.53"/>
      <polygon class="cls-5" points="131.45 411.53 183.11 406.56 183.08 406.19 131.41 411.16 131.45 411.53 131.45 411.53 131.45 411.53"/>
      <polygon class="cls-5" points="183.15 406.94 183.11 406.56 131.45 411.53 131.45 411.54 131.48 411.9 183.15 406.94"/>
      <rect class="cls-5" x="157.28" y="383.1" width="0" height="51.9" transform="translate(-273.75 488.25) rotate(-79.38)"/>
      <polygon class="cls-5" points="239.12 434.85 239.27 434.46 201.3 438.11 201.43 438.47 124.8 445.84 124.87 445.46 106.78 447.2 106.85 447.94 106.85 447.94 106.81 447.57 239.12 434.85"/>
      <polygon class="cls-5" points="249.06 433.9 249.14 433.51 239.27 434.46 239.12 434.85 249.06 433.9"/>
      <polygon class="cls-5" points="201.43 438.47 201.3 438.11 124.87 445.46 124.8 445.84 201.43 438.47"/>
      <path class="cls-5" d="m109.51,475.67l255.79-24.59c-.2-.11-.41-.21-.61-.32l-255.21,24.53.04.37Z"/>
      <polygon class="cls-6" points="183.08 406.19 183.11 406.56 189.76 405.92 172.2 223.26 120.54 228.23 120.5 227.86 113.8 228.5 118.17 273.89 133.25 297.71 148.39 300.94 151.32 328.69 159.87 336.79 146.26 330.14 145.47 317.01 144.5 305.06 138.02 308.31 127.63 302.69 123.79 290.56 119.09 283.47 131.4 411.54 131.45 411.53 131.41 411.16 183.08 406.19"/>
      <polygon class="cls-6" points="171.21 212.95 172.13 222.52 172.13 222.52 172.17 222.89 178.82 188.58 102.18 195.95 113.8 228.5 113.8 228.5 112.85 218.56 171.21 212.95"/>
      <polygon class="cls-6" points="120.46 227.48 172.13 222.52 171.21 212.95 112.85 218.56 113.8 228.5 120.5 227.86 120.46 227.48"/>
      <polygon class="cls-6" points="189.81 405.92 189.76 405.92 189.76 405.93 183.11 406.56 183.15 406.94 131.48 411.9 131.45 411.54 124.87 445.46 201.3 438.11 189.81 405.92"/>
      <path class="cls-6" d="m82.81,197.81l129.62-12.46c.79-9.55,1.68-19.09,2.68-28.62l-135,12.98,2.7,28.1Z"/>
      <path class="cls-6" d="m331.26,444.28l-16.28-1.23h0s-76.78-5.79-76.78-5.79h0s.14-.37.14-.37l.62-1.64-132.12,12.7,2.63,27.35,255.21-24.53c-8.74-4.53-17.44-9.17-26.08-13.9-2.34,2.35-4.69,4.69-7.01,7.07-.11.12-.23.23-.34.35Zm-208.53,21.24l-.04-.37h0s.04.37.04.37h0Z"/>
      <path class="cls-6" d="m341.67,425.37l-13.98,1.34,4.34,4.52-12.36-1.36c1.59-.95,3.19-1.9,4.79-2.85l-12.05,1.16,2.51,14.48,16.69,1.26c2.32-2.37,4.67-4.71,7.01-7.07-1.15-.63-2.32-1.25-3.47-1.88,2.16-3.22,4.34-6.42,6.53-9.61Z"/>
      <polygon class="cls-6" points="238.34 436.89 314.91 442.67 312.4 428.19 238.97 435.24 238.34 436.89"/>
      <path class="cls-6" d="m331.26,444.28c.11-.12.23-.23.34-.35l-16.69-1.26.07.38,16.28,1.23Z"/>
      <polygon class="cls-6" points="238.21 437.25 314.98 443.05 314.91 442.67 238.34 436.89 238.21 437.25"/>
      <rect class="cls-6" x="276.59" y="401.66" width="0" height="76.99" transform="translate(-183.14 682.82) rotate(-85.68)"/>
      <rect class="cls-6" x="122.71" y="465.15" width="0" height=".37" transform="translate(-43.98 13.88) rotate(-5.49)"/>
      <path class="cls-6" d="m319.66,429.88l12.36,1.36-4.34-4.52-3.24.31c-1.6.95-3.19,1.89-4.79,2.85Z"/>
      <path class="cls-4" d="m378.6,457.88c-4.24-2.13-8.47-4.3-12.69-6.48l-256.36,24.64-.04-.37-67.28,6.47,2.78,28.88,319.52-30.71c4.6-7.54,9.28-15.02,14.07-22.43Z"/>
      <path class="cls-4" d="m63.04,149.05h0c-1.37.77-2.48,1.7-3.36,2.74-6.16,7.29-.78,19.96,10.14,18.91l10.29-.99h0s135-12.98,135-12.98c.31-2.98.63-5.95.97-8.93-7.25-4.16-14.43-8.39-21.57-12.64l-28.9,2.78c-7.78.75-11.04-9.67-4.22-13.49h0s23.51-13.18,23.51-13.18c1.28-8.47,2.64-16.94,4.08-25.38-2.04-1.32-4.06-2.67-6.09-4l-119.84,67.16s0,0,0,0Z"/>
      <path class="cls-6" d="m161.38,124.45c-6.82,3.82-3.56,14.24,4.22,13.49l28.9-2.78c-4.02-2.39-8.04-4.78-12.03-7.2.77-5.57,1.58-11.13,2.42-16.68l-23.51,13.18h0Z"/>
      <polygon class="cls-5" points="239.12 434.85 106.81 447.57 106.85 447.94 238.97 435.24 239.12 434.85"/>
      <path class="cls-5" d="m341.67,425.37c.09-.14.19-.27.28-.4l-14.59,1.4.33.35,13.98-1.34Z"/>
      <path class="cls-5" d="m324.45,427.03c.25-.15.5-.3.75-.44l-12.86,1.24.06.37,12.05-1.16Z"/>
      <polygon class="cls-5" points="249.06 433.9 239.12 434.85 238.97 435.24 312.4 428.19 312.34 427.82 249.06 433.9 249.06 433.9"/>
      <path class="cls-5" d="m327.69,426.72l-.33-.35-1.65.16h0s-.51.05-.51.05c-.25.15-.5.3-.75.44l3.24-.31Z"/>
      <path class="cls-5" d="m109.51,475.67l.04.37,256.36-24.64c-.2-.11-.41-.21-.61-.32l-255.79,24.59h0Z"/>
      <polygon class="cls-7" points="117.66 273.08 104.45 258.6 97.73 245.2 87.12 232.67 72.32 226.57 69.23 206.24 67.74 230.18 76.51 231.47 80.62 235.37 85.71 234.71 94.92 247.15 99.91 261.42 105.98 273.52 114.63 276.76 119.09 283.47 118.17 273.89 117.66 273.08"/>
      <polygon class="cls-7" points="127.63 302.69 138.02 308.31 144.5 305.06 145.47 317.01 146.26 330.14 159.87 336.79 151.32 328.69 148.39 300.94 133.25 297.71 118.17 273.89 119.09 283.47 123.79 290.56 127.63 302.69"/>
      <path class="cls-7" d="m306,293.63l-.17-2.72,4.22-8.24-.18-.49-5.85-4.67c.02,2.02.06,4.05.09,6.07l-1.72-1.38-.13,8.42,3.75,2.99Z"/>
      <path class="cls-7" d="m302.21,293.8l1.84,5.6c.79.33,1.58.65,2.38.97l-.42-6.74-3.75-2.99-.05,3.16Z"/>
      <polygon class="cls-7" points="306.9 308.1 306.7 304.9 306.67 307.38 306.9 308.1"/>
      <path class="cls-7" d="m304.04,299.4l2.62,7.98.04-2.47-.28-4.54c-.79-.32-1.59-.65-2.38-.97Z"/>
      <polygon class="cls-6" points="297.69 271.71 301.9 275.84 302.48 276.29 302.49 275.54 297.69 271.71"/>
      <path class="cls-6" d="m303.93,268.81c-1.82-.81-3.62-1.65-5.44-2.47l5.45,4.35c0-.63-.01-1.26-.02-1.88Z"/>
      <path class="cls-6" d="m266.75,251.69l7.5,9,13.72,1.47,8.82,8.64c-.03-1.76-.06-3.52-.08-5.28-10.05-4.54-20.05-9.14-29.94-13.84Z"/>
      <path class="cls-6" d="m303.95,270.7l-5.45-4.35c-.6-.27-1.2-.55-1.8-.82.02,1.76.05,3.52.08,5.28l.92.9,4.79,3.83v.75s1.52,1.22,1.52,1.22c-.03-2.27-.05-4.55-.06-6.82Z"/>
      <path class="cls-7" d="m255.9,205.97l.61-.06.06-.48.31-.74c-1.38-.71-2.77-1.42-4.14-2.14l2.83,7.93.34-4.51Z"/>
      <polygon class="cls-7" points="255.94 210.81 256.51 205.91 255.9 205.97 255.56 210.48 255.58 210.53 255.94 210.81"/>
      <path class="cls-7" d="m250.33,195.82l-3.34-9.34,1.96-.19s0,0,0,0l-3.95.38c-.1.44-.2.88-.3,1.31l.5,1.4.2.56,2.85,7.98.36.28-.06.54-.29-.82-3.52-2.73-.58-3.99c-.02-.17-.05-.33-.07-.5-.49,2.17-.98,4.35-1.48,6.52,2.86,1.51,5.71,3.03,8.58,4.53-.29-1.98-.57-3.96-.86-5.94Z"/>
      <path class="cls-7" d="m245,189.73c-.21-.11-.42-.21-.62-.32-.1.43-.19.86-.29,1.29.02.17.05.33.07.5l.84-1.47Z"/>
      <path class="cls-7" d="m245,189.73l.2-.35-.5-1.4c-.11.48-.22.96-.32,1.44.21.11.42.21.62.32Z"/>
      <path class="cls-7" d="m245.4,189.94l-.2-.56-.2.35c.13.07.27.14.4.21Z"/>
      <path class="cls-7" d="m244.15,191.2l.58,3.99,3.52,2.73-2.85-7.98c-.13-.07-.27-.14-.4-.21l-.84,1.47Z"/>
      <path class="cls-7" d="m247.51,207.56l1.64,1.9,2.32-5.61.02-.03c-.1-.69-.2-1.37-.3-2.06-2.87-1.5-5.72-3.02-8.58-4.53-.03.14-.06.28-.1.43l5.42,6.28-.43,3.64Z"/>
      <path class="cls-7" d="m247.51,207.56l.43-3.64-5.42-6.28c-.25,1.09-.49,2.18-.74,3.27l5.74,6.64Z"/>
      <path class="cls-7" d="m259.42,239.08s-.1-.05-.15-.07c0-.03,0-.07,0-.1l-2.74-3.28-.81,8.56,6.03,7.58-2.21-23.04c-.1,3.39-.2,6.79-.27,10.18l.14.17Z"/>
      <path class="cls-7" d="m258.61,219.03l-2.74-7.68-.61,5.19,2.77,3.21-1.5,15.88,2.74,3.28c.07-3.4.17-6.79.27-10.18l-.93-9.7h0Z"/>
      <path class="cls-7" d="m259.42,239.08l-.14-.17s0,.07,0,.1c.05.02.1.05.15.07Z"/>
      <path class="cls-6" d="m252.53,201.99l6.45-11.26,1.23-5.53-11.26,1.08,1.38,9.53,2.2,6.17Z"/>
      <path class="cls-6" d="m264.2,208.46c-1.28-.65-2.55-1.31-3.82-1.97-.04.78-.07,1.56-.11,2.34l3.93-.38Z"/>
      <path class="cls-6" d="m256.51,205.91l2.31-.22c-.65-.34-1.3-.67-1.95-1.01l-.31.74-.06.48Z"/>
      <path class="cls-6" d="m255.94,210.81l2.04,1.58-.32-3.3,2.61-.25c.04-.78.07-1.56.11-2.34-.52-.27-1.04-.53-1.55-.8l-2.31.22-.57,4.9Z"/>
      <path class="cls-6" d="m267.65,210.23l-7.47.72c-.04,1.02-.07,2.04-.12,3.05l3.31,2.57-.15,2.01,4.53-.43c.12-2.56.24-5.11.38-7.67-.16-.08-.32-.17-.48-.25Z"/>
      <path class="cls-6" d="m260.21,210.2l6.2-.6c-.74-.38-1.48-.76-2.22-1.14l-3.93.38c-.02.45-.04.91-.06,1.36Z"/>
      <path class="cls-6" d="m258.42,210.37l1.79-.17c.02-.45.04-.91.06-1.36l-2.61.25.32,3.3,2.09,1.62c.04-1.02.07-2.04.12-3.05l-1.68.16-.07-.75Z"/>
      <path class="cls-6" d="m258.42,210.37l.07.75,1.68-.16c.01-.25.02-.5.03-.76l-1.79.17Z"/>
      <path class="cls-6" d="m260.18,210.95l7.47-.72c-.41-.21-.82-.42-1.23-.63l-6.2.6c-.01.25-.02.5-.03.76Z"/>
      <path class="cls-7" d="m252.53,201.99l.2.56c1.38.72,2.76,1.42,4.14,2.14l5.41-13.11,1.03-6.67-3.12.3-1.23,5.53-6.45,11.26Z"/>
      <path class="cls-6" d="m240.11,163.25c.5,3.47,1,6.94,1.51,10.41l11.26-1.08,2.13-9.58-3.83-3.41.08-1.9-15.61,1.5c-.53,5.06-1.03,10.12-1.5,15.18l3.52-.34c.81-3.6,1.63-7.19,2.44-10.79Z"/>
      <polygon class="cls-6" points="256.44 157.2 255.65 157.27 255.79 157.7 256.44 157.2"/>
      <path class="cls-6" d="m244.26,186.73l.74-.07c.81-3.6,1.63-7.19,2.44-10.79.5,3.47,1,6.94,1.51,10.41l11.26-1.08,2.13-9.58-3.83-3.41v-.16s-2.52.24-2.52.24l-3.12.3-11.26,1.08s0,0,0,0l-3.95.38c-.8,3.52-1.59,7.04-2.39,10.56-.65-.34-1.29-.69-1.94-1.03-.12,1.41-.26,2.82-.37,4.23l10.55-1.01-.52-3.6,1.26,3.52Z"/>
      <polygon class="cls-6" points="258.52 172.04 258.75 166.54 257.25 164.19 255.99 172.28 258.52 172.04"/>
      <polygon class="cls-6" points="255.99 172.29 258.52 172.05 258.52 172.04 255.99 172.28 255.99 172.29"/>
      <path class="cls-6" d="m237.67,174.04l-3.52.34c-.28,3.06-.55,6.13-.81,9.2.65.34,1.29.69,1.94,1.03.8-3.52,1.59-7.04,2.39-10.56Z"/>
      <polygon class="cls-6" points="241.62 173.66 241.62 173.67 252.88 172.59 252.88 172.58 241.62 173.66"/>
      <path class="cls-6" d="m243,183.2l.52,3.6.74-.07-1.26-3.52Z"/>
      <polygon class="cls-6" points="252.88 172.58 252.88 172.59 255.99 172.29 255.99 172.28 252.88 172.58"/>
      <polygon class="cls-6" points="255.01 163.01 252.88 172.58 255.99 172.28 257.25 164.19 253.98 159.08 255.79 157.7 255.65 157.27 251.26 157.7 251.18 159.59 255.01 163.01"/>
      <path class="cls-6" d="m237.67,174.04l3.95-.38c-.5-3.47-1-6.94-1.51-10.41-.81,3.6-1.63,7.19-2.44,10.79Z"/>
      <path class="cls-6" d="m296.69,265.53c0-.21,0-.42,0-.63l1.81,1.44c1.82.82,3.62,1.65,5.44,2.47,0,.63.01,1.26.02,1.88l2.31,1.84,3.61,9.65,3.72,2.97,3.79,10.14-4.22,8.24.59,9.46c.81.33,1.63.66,2.45.99l4.59-60.85-3.3-34.36-49.98,4.8c-.4,9.31-.71,18.63-.9,27.96l.14.17c9.9,4.69,19.89,9.29,29.94,13.84Z"/>
      <path class="cls-6" d="m327.07,318.4l-6.27-65.27-4.59,60.85c3.62,1.48,7.23,2.96,10.87,4.42Z"/>
      <path class="cls-6" d="m309.87,282.18l-3.61-9.65-2.31-1.84c.02,2.27.04,4.55.06,6.82l5.85,4.67Z"/>
      <path class="cls-6" d="m296.68,264.9c0,.21,0,.42,0,.63.6.27,1.2.55,1.8.82l-1.81-1.44Z"/>
      <path class="cls-6" d="m267.75,218.15c-.07,1.55-.15,3.11-.21,4.66l49.88-4.79-.44-4.61h0s-49.22,4.74-49.22,4.74Z"/>
      <path class="cls-6" d="m256.87,204.68c.65.34,1.3.67,1.95,1.01l1.6-.15c-.02.32-.03.64-.04.95,1.27.66,2.54,1.32,3.82,1.97l51.82-4.98.95,9.93,5.28-27.23c-.06-.05-.12-.11-.18-.16.09-.08.17-.16.26-.24l1.29-6.67-60.31,5.8-1.03,6.67-5.41,13.11Z"/>
      <path class="cls-6" d="m260.42,205.54l-1.6.15c.52.27,1.04.53,1.55.8.01-.32.03-.64.04-.95Z"/>
      <path class="cls-6" d="m264.2,208.46c.74.38,1.48.76,2.22,1.14l43.67-4.2h0s.07.75.07.75h0s-42.51,4.09-42.51,4.09c.16.08.32.17.48.25-.14,2.55-.26,5.11-.38,7.67l49.22-4.73h0s-.95-9.94-.95-9.94l-51.82,4.98Z"/>
      <rect class="cls-6" x="310.12" y="205.4" width="0" height=".75" transform="translate(-18.27 30.63) rotate(-5.49)"/>
      <path class="cls-6" d="m310.16,206.15l-.07-.75-43.67,4.2c.41.21.82.42,1.23.63l42.51-4.09Z"/>
      <path class="cls-6" d="m315.01,173.16l-.08.4c-.06-.05-.12-.11-.18-.16.09-.08.17-.16.26-.24l1.29-6.67-52.77,5.07,1.27,3.78-1.48,9.55,66.87-6.43c9.1-8.4,18.31-16.65,27.61-24.76-2.02-1.88-4.02-3.78-6.03-5.67l-89.02,8.56-3.05,3.58,3.82,11.39,59.33-5.7c-2.63,2.42-5.25,4.86-7.86,7.31Z"/>
      <path class="cls-6" d="m316.3,166.49l-1.29,6.67c2.61-2.45,5.23-4.88,7.86-7.31l-59.33,5.7h0s52.77-5.06,52.77-5.06Z"/>
      <path class="cls-6" d="m314.93,173.56l.08-.4c-.09.08-.17.16-.26.24.06.05.12.11.18.16Z"/>
      <path class="cls-4" d="m264.44,132.88l-49.4,4.75c4.96,2.95,9.95,5.88,14.95,8.8l19.12-1.84,15.33-11.71Z"/>
      <path class="cls-4" d="m246.65,146.46l2.46-1.88-19.11,1.84c2.2,1.28,4.4,2.57,6.62,3.84-.33,2.97-.65,5.95-.97,8.93l15.61-1.5.16-3.76-4.77-7.47Z"/>
      <path class="cls-4" d="m255.44,143.97l83.78-8.05c-3.16-3.09-6.31-6.19-9.43-9.33l-64.86,6.23-9.49,11.14Z"/>
      <path class="cls-4" d="m252.39,147.55l3.26,9.72.8-.08,16.61-12.68-10.28,12.07,89.01-8.56c-4.23-4-8.41-8.04-12.56-12.11l-83.78,8.05-3.05,3.58Z"/>
      <polygon class="cls-4" points="249.11 144.58 230 146.42 230 146.42 249.11 144.58 249.11 144.58"/>
      <polygon class="cls-4" points="255.44 143.98 255.44 143.98 339.22 135.92 339.22 135.92 255.44 143.98"/>
      <polygon class="cls-4" points="249.11 144.58 249.11 144.58 229.99 146.42 230 146.42 249.11 144.58"/>
      <polygon class="cls-4" points="255.44 143.98 339.22 135.92 339.21 135.92 255.44 143.97 255.44 143.98"/>
      <polygon class="cls-4" points="252.39 147.55 255.44 143.98 249.11 144.58 246.65 146.46 251.42 153.93 251.26 157.69 255.65 157.27 252.39 147.55"/>
      <rect class="cls-4" x="252.27" y="141.1" width="0" height="6.36" transform="translate(-36.11 180.22) rotate(-36.87)"/>
      <polygon class="cls-4" points="264.93 132.83 264.44 132.88 249.11 144.58 255.44 143.97 264.93 132.83"/>
      <rect class="cls-4" x="249.1" y="144.28" width="6.35" height="0" transform="translate(-12.65 24.8) rotate(-5.49)"/>
      <path class="cls-4" d="m317.67,50.74c-15.08-4.98,10.14-35.28-1.82-29.36-.29.14-.59.3-.93.49-.01,0-.02.01-.03.02l-111.47,62.47c2.03,1.33,4.05,2.68,6.09,4-1.45,8.44-2.8,16.91-4.08,25.38l112.37-62.97-.14-.02Zm-112.74,33.27s0,0,0,0l111.47-62.47s.02-.01.03-.02c-.01,0-.02.01-.03.02l-111.47,62.47Z"/>
      <path class="cls-4" d="m316.43,21.52s-.02.01-.03.02l-111.47,62.47s0,0,0,0l111.47-62.47s.02-.01.03-.02Z"/>
      <path class="cls-6" d="m318.62,65.06c-2.74,2.84-4.88,6.21-6.28,9.9-2.82,7.44-2.02,15.76,2.16,22.52,2.08,3.36,4.82,6.25,8.05,8.52,3.4,2.4,7.21,4.16,11.25,5.19,1.4.36,2.8.63,4.22.82,8.42-6.93,16.92-13.75,25.48-20.45-10.12-10.66-20-21.54-29.63-32.64,1.98-1.49,3.96-2.97,5.95-4.45h-.01c-3.86.53-7.61,1.66-11.14,3.34-3.76,1.78-7.17,4.24-10.05,7.25Z"/>
      <path class="cls-6" d="m265.72,131.9l-.79.93,64.86-6.23c-1.41-1.41-2.82-2.82-4.22-4.24,3.87-3.26,7.75-6.48,11.65-9.69-1.21-.19-2.42-.44-3.61-.75-4.12-1.06-8.02-2.86-11.49-5.31-3.32-2.32-6.12-5.3-8.26-8.74-4.3-6.96-5.12-15.52-2.23-23.18,1.44-3.79,3.63-7.24,6.44-10.15,2.94-3.07,6.42-5.58,10.27-7.4,2.96-1.4,6.07-2.41,9.24-3.04l-19.78-3.34-112.37,62.97c-.84,5.56-1.65,11.12-2.42,16.68,3.99,2.42,8.01,4.81,12.03,7.2l49.4-4.75,1.28-.98Z"/>
      <polygon class="cls-6" points="265.72 131.9 264.44 132.88 264.93 132.83 265.72 131.9"/>
      <path class="cls-7" d="m259.55,228.73l2.21,23.04,9.97,12.53,12.23,3.19,18.42,14.72.09-5.92-.57-.46-4.21-4.13-.92-.73c0-.06,0-.11,0-.17l-8.82-8.64-13.72-1.47-7.5-9s-.1-.05-.15-.07c0-.03,0-.07,0-.1l-4.23-5.08-.7-6.98,1.56-20.88-3.35.32c-.12,3.27-.23,6.55-.33,9.82Z"/>
      <path class="cls-7" d="m259.55,228.73c.1-3.27.21-6.55.33-9.82l-1.26.12.93,9.7Z"/>
      <path class="cls-7" d="m296.78,270.98l.92.73-.92-.9c0,.06,0,.11,0,.17Z"/>
      <path class="cls-7" d="m304.01,277.52l-1.54-1.22-.09,5.92,1.72,1.38c-.03-2.02-.07-4.05-.09-6.07Z"/>
      <path class="cls-7" d="m250.33,195.82l-1.38-9.53-1.96.19,3.34,9.34Z"/>
      <polygon class="cls-7" points="258.61 219.03 258.61 219.03 257.98 212.39 255.94 210.81 255.87 211.35 258.61 219.03"/>
      <path class="cls-7" d="m260.06,214c-.07,1.63-.12,3.27-.19,4.9l3.35-.32.15-2.01-3.31-2.57Z"/>
      <path class="cls-7" d="m258.61,219.03l1.26-.12c.06-1.63.12-3.27.19-4.9l-2.09-1.62.64,6.64Z"/>
      <path class="cls-7" d="m255.56,210.51l-3.5-2.71-.58-3.99-.02.03-2.32,5.61,5.97,6.92.44-5.86Z"/>
      <polygon class="cls-7" points="255.87 211.35 255.58 210.53 255.56 210.51 255.12 216.37 255.26 216.54 255.87 211.35"/>
      <polygon class="cls-7" points="248.61 198.19 248.25 197.92 248.54 198.74 248.61 198.19"/>
      <path class="cls-3" d="m378.07,37.63s0,0,0,0c0,0-.01,0-.02,0h.01Z"/>
      <path class="cls-3" d="m378.05,37.62s.01,0,.02,0c.42-.26.85-.52,1.27-.77-.84,0-1.69.05-2.53.12l.16.37,1.08.29Z"/>
      <polygon class="cls-3" points="580.35 191.74 580.31 189.85 571.67 185.2 580.35 191.74"/>
      <polygon class="cls-3" points="580.31 189.85 579.75 167.13 568.76 183 571.67 185.2 580.31 189.85"/>
      <polygon class="cls-3" points="571.67 185.2 568.76 183 568.44 183.46 571.67 185.2"/>
      <polygon class="cls-3" points="568.44 183.46 543.43 219.56 581.01 218.64 580.35 191.74 571.67 185.2 568.44 183.46"/>
      <path class="cls-3" d="m481.09,153.31c-2.3.68-4.6,1.35-6.9,2.04-4.28-3.27-9.18-5.49-14.34-6.6-.08.02-.16.04-.23.06-3.11.83-6.07,2.13-8.79,3.85-2.59,1.63-4.85,3.72-6.7,6.16-1.79,2.39-2.7,5.32-2.58,8.3.13,5.42,2.05,9.55,5.76,12.38,4.13,3.05,8.75,5.4,13.65,6.95,2.34.78,4.8,1.54,7.33,2.29,8.17-3.04,16.35-6.03,24.56-8.91-4.06-8.78-7.97-17.63-11.77-26.52Z"/>
      <path class="cls-3" d="m504.41,148.98c-.27-.32-.56-.63-.84-.94v.49s.84.45.84.45Z"/>
      <path class="cls-3" d="m406.68,317.02c3.6-2.13,7.22-4.25,10.84-6.33-.33-.16-.65-.3-.98-.44,2.33-1.18,4.67-2.33,7-3.5l1.05-1.43c2.39-3.25,5.26-4.32,8.22-3.18,4.59-2.25,9.18-4.48,13.79-6.67-3.9-6.3-7.73-12.64-11.5-19.02-.46-.23-.92-.45-1.37-.7-2.73-1.44-5.18-3.38-7.2-5.71l.25,10.06-5.99.15-1.11-45.36,9.41-.23c.07,3.38,1.12,6.66,3.01,9.45,1.91,2.86,4.37,5.31,7.24,7.21,1.5.99,3.08,1.87,4.7,2.63l1.48.35-4.61-6.15c1.14-.5,2.29-.99,3.43-1.49,7.7-3.34,15.43-6.61,23.18-9.8-1.31-2.43-2.6-4.87-3.89-7.31,0,0,0,0,0,0,0,0,0,0,0,0-3.12-5.9-6.16-11.85-9.17-17.81-1.43-.42-2.88-.84-4.36-1.26-3.93-1.09-7.77-2.49-11.47-4.18-.43.25-.86.5-1.29.76l-2.53-2.63c-.82-.43-1.63-.87-2.44-1.33-5.52-3.16-10.24-7.55-13.8-12.83-3.7-5.4-5.66-12.67-5.88-21.8-.2-6.26,1.35-12.45,4.48-17.88,3.13-5.49,7.26-10.34,12.16-14.32,4.58-3.73,9.71-6.73,15.19-8.92,3.3-3.79,4.91-6.23-.03-5.62,7.67-1.2,15.42-.86,22.81.96.65.16,1.28.35,1.92.54,1.22.07,2.44.17,3.66.31,3.23.35,6.43.95,9.57,1.8,3.07.82,6.04,1.96,8.86,3.42,1.95.98,3.74,2.25,5.31,3.76.47-.15.94-.3,1.41-.44l-.16-6.58,5.13-.13.13,5.13c6.46-1.99,12.93-3.95,19.41-5.85-1.76-4.55-3.47-9.13-5.16-13.71-.87-2.35-1.73-4.69-2.58-7.04l112.71,26.5-95.01-83.18c-6.16-5.38-14.12-8.25-22.3-8.02-8.18.18-15.99,3.43-21.88,9.1l-105.59,102c-6.29,6.06-9.77,14.47-9.58,23.2l2.08,84.8c.8.26,1.6.53,2.39.84-.49.08-.98.16-1.47.24,0,0,0,0,0,0h-.01s-.89-.68-.89-.68l.69,28.17c.39,15.95,12.9,28.87,28.7,30.54-.07-.11-.14-.22-.21-.33.75-.05,1.51-.08,2.26-.07Zm58.32-225.22c.45-.21.9-.42,1.35-.63,4.64.46,9.2,1.74,13.45,3.82,3.14,1.54,6.02,3.55,8.55,5.94l-2-.78-21.36-8.34s0,0,0,0Zm-56.27,212.64l-3.66,3.79c-.16-1.31-.31-2.61-.45-3.92l4.11.13Z"/>
      <path class="cls-3" d="m424.59,305.31l-1.05,1.43c3.09-1.55,6.17-3.1,9.27-4.62-2.96-1.13-5.83-.06-8.22,3.18Z"/>
      <path class="cls-3" d="m481.09,153.31c-.54-1.27-1.09-2.53-1.63-3.8-.9-.34-1.81-.65-2.73-.9-2.75-.81-5.61-1.21-8.48-1.18-2.84.12-5.66.57-8.4,1.33,5.15,1.11,10.06,3.34,14.34,6.6,2.3-.69,4.6-1.36,6.9-2.04Z"/>
      <rect class="cls-3" x="631.51" y="243.52" width="0" height="50.98" transform="translate(225.1 822.19) rotate(-76.77)"/>
      <polygon class="cls-3" points="515.46 241.73 515.46 241.73 580.73 257.08 580.73 257.07 515.46 241.73"/>
      <polygon class="cls-3" points="487.06 235.05 463.63 229.54 463.63 229.54 487.06 235.05 487.06 235.05"/>
      <polygon class="cls-3" points="487.06 235.05 463.63 229.54 463.63 229.54 487.06 235.05 487.06 235.05"/>
      <rect class="cls-3" x="631.51" y="243.52" width="0" height="50.98" transform="translate(225.1 822.19) rotate(-76.77)"/>
      <polygon class="cls-3" points="580.73 257.07 580.73 257.07 515.46 241.73 515.46 241.73 580.73 257.07"/>
      <path class="cls-3" d="m479.46,95.67c-4.01-1.98-8.34-3.24-12.78-3.71-.56-.06-1.12-.11-1.68-.15,0,0,0,0,0,0l21.36,8.34c-2.1-1.76-4.41-3.27-6.89-4.48Z"/>
      <path class="cls-3" d="m487.24,194.33c2.97-.64,5.85-1.68,8.56-3.08,3.51-1.81,6.61-4.31,9.13-7.36,5.05-6.14,6.97-14.28,5.18-22.02-.89-3.85-2.56-7.47-4.89-10.66-.51-.7-1.06-1.37-1.62-2.03l.42,17.27-8.98.22c-.05-2.93-1.06-5.76-2.87-8.07-1.89-2.42-4.19-4.5-6.78-6.15-.15-.1-.32-.18-.47-.28-1.27.37-2.55.75-3.82,1.13,3.8,8.89,7.71,17.74,11.77,26.52-8.21,2.88-16.39,5.86-24.56,8.91,3.29.97,6.73,1.92,10.34,2.85,2.93.73,5.8,1.66,8.61,2.75Z"/>
      <path class="cls-3" d="m481.09,153.31c1.27-.38,2.55-.76,3.82-1.13-1.73-1.07-3.55-1.96-5.45-2.67.54,1.27,1.09,2.54,1.63,3.8Z"/>
      <path class="cls-3" d="m517,218.01l-3.74-.88c1.1,2.77,1.89,5.86,2.36,9.31l-.15-6.19,1.53-2.23Z"/>
      <path class="cls-3" d="m632.32,230.91c6.24,4.7,1.6,14.59-6,12.8l-20.22-4.75.59,24.22,49.63,11.67-1.09-44.66-50-26.92.18,7.36,26.92,20.29Z"/>
      <path class="cls-3" d="m580.29,239.35l-64.31,1.58-.06-2.34c-.11,1.06-.27,2.11-.47,3.15l65.27,15.35-.43-17.73Z"/>
      <path class="cls-3" d="m481.44,223.19c-4.14-3.1-8.75-5.52-13.66-7.16-4.19-1.48-8.63-2.91-13.32-4.3,3.01,5.96,6.05,11.91,9.17,17.81l23.43,5.51c-.24-5.15-2.1-9.11-5.62-11.86Z"/>
      <path class="cls-3" d="m454.63,256.43l.44.39-.03.24c1.01.11,2.02.17,3.04.18l-3.44-.81Z"/>
      <path class="cls-3" d="m473.9,280.74c-3.71.85-7.51,1.36-11.33,1.47-3.15.05-6.3-.12-9.43-.52-.43-.05-.85-.12-1.28-.18l.16,5.05,10.86,15.03,9.41,1.67,1.83-7.8-.24-14.71Z"/>
      <polygon class="cls-3" points="548.52 278.51 531.21 308.87 530.15 313.37 530.15 313.37 529.98 314.1 529.98 314.1 529.85 314.64 595.48 313.03 595.1 289.46 620.94 295.53 620.94 295.53 500.38 267.18 500.37 267.19 548.52 278.51"/>
      <path class="cls-3" d="m420.4,317.32c6.24-.11,12.51-.24,18.81-.38-.12-1.01-.24-2.03-.35-3.04l4.11.13-2.79,2.89c1.99-.05,3.97-.09,5.97-.14,7.27-.18,14.5-.39,21.69-.62l1.43-.04,1.75-7.45-10.89-3.66-14.58-21.17.56-3.44c-1.04-.25-2.07-.52-3.09-.83-2.73-.81-5.38-1.87-7.93-3.14,3.77,6.38,7.6,12.72,11.5,19.02-4.61,2.19-9.2,4.42-13.79,6.67,1.05.4,2.12,1.08,3.17,2.04-1.67,3.1-3.33,6.24-4.99,9.41-.45.06-.9.16-1.34.32l-8.1-4.46,1.98-2.7c-2.33,1.17-4.68,2.32-7,3.5.33.14.66.29.98.44-3.62,2.08-7.24,4.2-10.84,6.33-.75-.01-1.51.01-2.26.07.07.11.14.22.21.33,1.41.15,2.85.22,4.31.18l11.46-.28Z"/>
      <path class="cls-3" d="m445.53,254.28l-1.48-.35c.59.28,1.19.52,1.8.77l-.31-.42Z"/>
      <path class="cls-3" d="m421.55,309.44l8.1,4.46c.44-.16.89-.26,1.34-.32,1.65-3.17,3.31-6.31,4.99-9.41-1.06-.96-2.12-1.64-3.17-2.04-3.1,1.52-6.18,3.07-9.27,4.62l-1.98,2.7Z"/>
      <polygon class="cls-3" points="628.22 297.24 648.09 301.91 648.1 301.91 628.22 297.24 628.22 297.24"/>
      <path class="cls-3" d="m517.38,110.94l48.09,36.24,8.17-11.94,29.91-.73,1.03,42.15,50.27,37.89-1.17-47.93c-.25-8.73-4.13-16.96-10.71-22.71l-15.45-13.53-112.71-26.5c.85,2.35,1.71,4.7,2.58,7.04Z"/>
      <polygon class="cls-3" points="479.45 302.22 479.63 301.49 530.15 313.37 531.21 308.87 474.13 295.45 472.3 303.25 476.47 303.99 486.86 315.69 529.85 314.64 529.98 314.1 479.45 302.22"/>
      <polygon class="cls-3" points="472.12 309.04 471.03 308.67 469.27 316.12 479.55 315.87 472.12 309.04"/>
      <path class="cls-3" d="m476.42,285.73l57.07,13.42-2.29,9.72,17.32-30.36-48.15-11.32c-.27.24-.54.49-.82.73-5.18,4.38-11.06,7.85-17.4,10.27-2.69,1.06-5.45,1.9-8.25,2.55l.24,14.71,2.29-9.72Z"/>
      <rect class="cls-3" x="498.82" y="267.98" width="9.99" height="58.63" transform="translate(99.1 719.7) rotate(-76.77)"/>
      <rect class="cls-3" x="529.69" y="313.73" width=".75" height="0" transform="translate(103.32 757.9) rotate(-76.77)"/>
      <rect class="cls-3" x="504.43" y="281.84" width=".75" height="51.9" transform="translate(89.64 728.75) rotate(-76.77)"/>
      <polygon class="cls-3" points="620.94 295.53 595.1 289.46 595.48 313.03 615.04 312.55 620.94 295.53"/>
      <path class="cls-3" d="m622.17,302.02l-1.41,10.39,4.22-.1c9.18-.22,17.38-4.21,23.11-10.39l-19.87-4.67c-2.02,1.59-4.03,3.18-6.05,4.78Z"/>
      <path class="cls-3" d="m656.32,274.85l-49.63-11.67.21,8.54,16.22-.4.12,4.77-58.25,1.43-.12-4.77,16.23-.4-.37-15.28-65.27-15.35c-.7,3.74-1.91,7.38-3.66,10.8-2.86,5.56-6.74,10.52-11.42,14.66l120.56,28.35,2.03-5.87c8.17-2.55,16.35-5.1,24.52-7.64-6.42,5.07-12.85,10.15-19.27,15.22l19.87,4.67c5.36-5.79,8.56-13.51,8.36-21.91l-.13-5.15Z"/>
      <path class="cls-3" d="m454.63,256.43l3.44.81c.22,0,.44.02.66.02,3.15-.12,6.27-.66,9.27-1.62,3.27-.98,6.4-2.39,9.31-4.19,2.81-1.72,5.23-4,7.11-6.7,1.86-2.68,2.8-5.9,2.66-9.16,0-.18-.03-.35-.04-.53l-23.43-5.51c1.29,2.44,2.58,4.88,3.89,7.31-7.75,3.18-15.48,6.46-23.18,9.8.02.22.03.43.05.65l10.24,9.13Z"/>
      <path class="cls-3" d="m408.73,304.45l-4.11-.13c.15,1.31.3,2.61.45,3.92l3.66-3.79Z"/>
      <path class="cls-3" d="m438.86,313.9c.11,1.01.23,2.02.35,3.04.32,0,.65-.01.97-.02l2.79-2.89-4.11-.13Z"/>
      <path class="cls-3" d="m550.42,169.18l15.05-21.99-48.09-36.24c1.69,4.58,3.4,9.15,5.16,13.71-6.48,1.9-12.94,3.85-19.41,5.85l.08,3.1,47.21,35.58Z"/>
      <polygon class="cls-3" points="605.23 203.26 655.23 230.18 654.85 214.56 604.57 176.67 605.23 203.26"/>
      <path class="cls-3" d="m548.13,172.52l2.29-3.34-47.21-35.58.35,14.44c.28.31.57.62.84.94l43.72,23.54Z"/>
      <path class="cls-3" d="m498.04,132.08c-.47.15-.94.3-1.41.44.51.49.99,1,1.45,1.53l-.05-1.97Z"/>
      <path class="cls-3" d="m626.85,231.64l.16,6.56-20.91.51v.24s20.22,4.75,20.22,4.75c7.6,1.79,12.24-8.1,6-12.8l-26.92-20.29.53,21.53,20.91-.51Z"/>
      <path class="cls-3" d="m548.13,172.52l-43.72-23.54c.49.58.96,1.18,1.41,1.79,2.39,3.27,4.1,6.98,5.01,10.93,1.84,7.97-.13,16.35-5.33,22.66-2.58,3.12-5.76,5.69-9.36,7.55-2.44,1.27-5.02,2.24-7.69,2.91,2.7,1.11,5.34,2.38,7.89,3.82,5.48,3.13,10.19,7.44,13.79,12.61,1.24,1.75,2.27,3.72,3.13,5.88l3.74.88,31.13-45.49Z"/>
      <path class="cls-3" d="m479.46,95.67c2.47,1.21,4.78,2.72,6.89,4.48l2,.78c-2.54-2.39-5.42-4.4-8.55-5.94-4.25-2.08-8.81-3.36-13.45-3.82-.45.21-.9.42-1.35.63.56.04,1.12.09,1.68.15,4.45.47,8.77,1.73,12.78,3.71Z"/>
      <path class="cls-3" d="m503.59,149.18c.56.66,1.11,1.33,1.62,2.03,2.33,3.18,4,6.81,4.89,10.66,1.79,7.75-.12,15.89-5.18,22.02-2.51,3.04-5.62,5.55-9.13,7.36-2.71,1.41-5.59,2.44-8.56,3.08.41.16.81.32,1.21.49,2.66-.66,5.24-1.63,7.69-2.91,3.6-1.86,6.78-4.42,9.36-7.55,5.2-6.32,7.17-14.69,5.33-22.66-.91-3.94-2.62-7.66-5.01-10.93-.45-.61-.92-1.21-1.41-1.79l-.83-.45.02.65Z"/>
      <path class="cls-3" d="m437.34,207.05c.43-.25.86-.51,1.29-.76-1.29-.59-2.56-1.21-3.82-1.87l2.53,2.63Z"/>
      <path class="cls-3" d="m462.89,301.58l-10.86-15.03-.16-5.05c-1.93-.28-3.85-.64-5.74-1.1l-.56,3.44,14.58,21.17,10.89,3.66,1.27-5.42-9.41-1.67Z"/>
      <path class="cls-3" d="m448.86,255.78c2.01.64,4.09,1.05,6.18,1.28l.03-.24-.44-.39-9.11-2.14.31.42c.99.4,2,.77,3.02,1.08Z"/>
      <polygon class="cls-3" points="479.55 315.87 486.86 315.69 476.47 303.99 472.3 303.25 471.03 308.67 472.12 309.04 479.55 315.87"/>
      <path class="cls-3" d="m444.39,247.3c-.02-.22-.03-.43-.05-.65-1.14.5-2.29.99-3.43,1.49l4.61,6.15,9.11,2.14-10.24-9.13Z"/>
      <polygon class="cls-3" points="628.22 297.24 628.22 297.24 620.94 295.53 620.94 295.53 628.22 297.24"/>
      <path class="cls-3" d="m615.04,312.55l5.72-.14,1.41-10.39c2.02-1.59,4.03-3.18,6.05-4.78l-7.28-1.71-5.9,17.02Z"/>
      <path class="cls-3" d="m647.5,282.02c-8.17,2.55-16.35,5.1-24.52,7.64l-2.03,5.87,7.28,1.71c6.42-5.07,12.85-10.15,19.27-15.22Z"/>
      <path class="cls-3" d="m464.23,123.11c1.68-.03,3.35.02,5.02.12-.64-.18-1.28-.38-1.92-.54-7.39-1.82-15.14-2.16-22.81-.96,4.94-.61,3.33,1.82.03,5.62.49-.2.98-.4,1.48-.58,5.82-2.23,11.97-3.46,18.2-3.66Z"/>
      <rect class="cls-7" x="580.37" y="260.13" width="26.68" height="0" transform="translate(-14.25 35.31) rotate(-3.37)"/>
      <rect class="cls-7" x="593.71" y="246.79" width="0" height="26.68" transform="translate(204.6 778.54) rotate(-76.77)"/>
      <path class="cls-7" d="m580.29,239.35l.43,17.73,25.97,6.11-.59-24.22-89.1-20.95-1.53,2.23.15,6.19c.28,2.05.45,4.22.5,6.51.07,1.89,0,3.77-.2,5.64l.06,2.34,64.31-1.58Z"/>
      <polygon class="cls-7" points="580.35 191.74 605.41 210.62 605.23 203.26 580.31 189.85 580.35 191.74"/>
      <polygon class="cls-7" points="603.54 134.52 573.63 135.25 565.46 147.19 604.57 176.67 603.54 134.52"/>
      <polygon class="cls-7" points="581.1 272.36 564.88 272.76 564.99 277.53 623.25 276.1 623.13 271.33 606.91 271.73 606.7 263.18 580.73 257.08 581.1 272.36"/>
      <polygon class="cls-7" points="568.76 183 579.75 167.13 580.31 189.85 605.23 203.26 604.57 176.67 565.46 147.19 550.42 169.18 568.76 183"/>
      <polygon class="cls-7" points="568.44 183.46 568.76 183 550.42 169.18 548.13 172.52 568.44 183.46"/>
      <polygon class="cls-7" points="543.43 219.56 568.44 183.46 548.13 172.52 517 218.01 606.1 238.96 606.1 238.71 627.01 238.2 626.85 231.64 605.93 232.15 605.41 210.62 580.35 191.74 581.01 218.64 543.43 219.56"/>
      <path class="cls-7" d="m502.52,147.97l1.06.57v-.49c-2.05-2.28-4.37-4.31-6.94-5.99-1.08-.7-2.18-1.34-3.32-1.93.43,1.2.87,2.4,1.31,3.6l7.88,4.24Z"/>
      <path class="cls-7" d="m423.63,255.84c3.26-1.48,6.52-2.94,9.79-4.4l10.62,2.5c-1.63-.76-3.2-1.64-4.7-2.63-2.87-1.89-5.33-4.35-7.24-7.21-1.9-2.79-2.95-6.08-3.01-9.45l-9.41.23,1.11,45.36,5.99-.15-.25-10.06c2.03,2.33,4.47,4.27,7.2,5.71.45.24.91.47,1.37.7-3.96-6.71-7.85-13.46-11.67-20.25l.2-.35Z"/>
      <path class="cls-7" d="m503.14,130.5l-.13-5.13-5.13.13.16,6.58c.74-.23,1.48-.47,2.22-.7.96-.3,1.92-.59,2.87-.88Z"/>
      <path class="cls-7" d="m447.05,196.81c4.71-1.84,9.42-3.65,14.14-5.44.32-.12.64-.24.97-.36,2.04-.77,4.09-1.52,6.14-2.28-2.53-.75-4.99-1.51-7.33-2.29-4.9-1.54-9.51-3.89-13.65-6.95-3.71-2.83-5.63-6.96-5.76-12.38-.13-2.98.79-5.92,2.58-8.3,1.84-2.44,4.11-4.53,6.7-6.16,2.72-1.72,5.68-3.02,8.79-3.85.08-.02.16-.04.23-.06-4.51-.97-9.22-1.09-13.87-.28l-9.33,1.64-.12-.07c-3.36-2.58-3.41-5.92-1.94-9.39,1.99-4.69,6.77-9.63,9.96-13.3-5.48,2.19-10.61,5.2-15.19,8.92-4.91,3.98-9.03,8.83-12.16,14.32-3.13,5.43-4.68,11.62-4.48,17.88.22,9.13,2.18,16.4,5.88,21.8,3.56,5.28,8.28,9.66,13.8,12.83.8.46,1.62.9,2.44,1.33l-4.77-4.96c1.45-8.44,2.89-16.88,4.34-25.31,2.06,10.34,4.12,20.67,6.17,31.01-.64.38-1.29.76-1.93,1.14,3.71,1.69,7.54,3.09,11.47,4.18,1.48.41,2.93.83,4.36,1.26-1.6-3.18-3.21-6.36-4.78-9.55-.88-1.79-1.77-3.57-2.63-5.37Z"/>
      <path class="cls-7" d="m488.86,133.05l1.78,1.37c2-.64,4-1.27,6-1.9-1.57-1.51-3.36-2.78-5.31-3.76-2.82-1.46-5.79-2.61-8.86-3.42-3.14-.85-6.33-1.45-9.57-1.8-1.22-.14-2.43-.24-3.66-.31,3.77,1.07,7.45,2.51,10.95,4.33,3.02,1.57,5.92,3.39,8.66,5.5Z"/>
      <path class="cls-7" d="m476.73,148.6c.93.25,1.83.57,2.73.9-1.42-3.36-2.81-6.72-4.19-10.1,2.35-.78,4.71-1.54,7.06-2.31l12.3,6.62c-.44-1.2-.88-2.4-1.31-3.6-3.04-1.58-6.25-2.75-9.57-3.49,2.29-.74,4.59-1.48,6.88-2.21l-1.78-1.37c-2.74-2.1-5.64-3.93-8.66-5.5l-45.62,13.1c-1.47,3.47-1.41,6.81,1.94,9.39l.12.07,9.33-1.64c4.65-.82,9.35-.7,13.87.28,2.74-.76,5.56-1.21,8.4-1.33,2.87-.02,5.73.38,8.48,1.18Z"/>
      <polygon class="cls-7" points="487.06 235.05 487.06 235.05 515.46 241.73 515.46 241.73 487.06 235.05"/>
      <polygon class="cls-7" points="515.46 241.73 487.06 235.05 487.06 235.05 515.46 241.73 515.46 241.73"/>
      <path class="cls-7" d="m483.95,194.88c1.11-.13,2.2-.31,3.29-.55-2.81-1.09-5.68-2.02-8.61-2.75-3.61-.92-7.05-1.87-10.34-2.85-2.04.76-4.09,1.51-6.14,2.28,6.71,3.37,14.28,4.74,21.8,3.87Z"/>
      <path class="cls-7" d="m494.64,143.72c.63,1.71,1.25,3.42,1.89,5.12-3.88,1.09-7.75,2.21-11.62,3.33.16.1.32.18.47.28,2.6,1.65,4.89,3.72,6.78,6.15,1.81,2.3,2.82,5.14,2.87,8.07l8.98-.22-.42-17.27c-.35-.41-.7-.82-1.07-1.22l-7.88-4.24Z"/>
      <path class="cls-7" d="m494.64,143.72l-12.3-6.62c-2.35.77-4.71,1.53-7.06,2.31,1.38,3.37,2.78,6.74,4.19,10.1,1.9.71,3.72,1.61,5.45,2.67,3.87-1.13,7.74-2.24,11.62-3.33-.64-1.7-1.27-3.41-1.89-5.12Z"/>
      <path class="cls-7" d="m481.44,223.19c3.51,2.74,5.37,6.7,5.62,11.86l28.4,6.68c.19-1.04.35-2.09.47-3.15l-.3-12.14c-.47-3.44-1.26-6.54-2.36-9.31l-63.58-14.95c1.57,3.2,3.18,6.37,4.78,9.55,4.69,1.39,9.13,2.82,13.32,4.3,4.91,1.64,9.52,4.06,13.66,7.16Z"/>
      <path class="cls-7" d="m455.04,257.06l-3.24,22.48.06,1.96c.43.06.85.13,1.28.18,3.13.4,6.28.57,9.43.52,3.82-.11,7.62-.61,11.33-1.47l-.32-19.85,26.8,6.3s0,0,0,0l-42.3-9.95c-1.02,0-2.03-.07-3.04-.18Z"/>
      <path class="cls-7" d="m445.84,254.7c-.6-.24-1.21-.49-1.8-.77l-10.62-2.5c-3.27,1.45-6.53,2.92-9.79,4.4l-.2.35c3.82,6.79,7.71,13.54,11.67,20.25,2.55,1.27,5.19,2.34,7.93,3.14,1.02.31,2.05.58,3.09.83l3.41-20.78-3.69-4.92Z"/>
      <path class="cls-7" d="m499.55,267.92c.28-.24.55-.49.82-.73l-26.8-6.3.32,19.85c2.81-.65,5.57-1.49,8.25-2.55,6.34-2.42,12.22-5.89,17.4-10.27Z"/>
      <path class="cls-7" d="m487.09,235.58c.13,3.26-.8,6.48-2.66,9.16-1.88,2.71-4.3,4.99-7.11,6.7-2.91,1.8-6.04,3.2-9.31,4.19-3,.95-6.12,1.5-9.27,1.62-.22,0-.44-.02-.66-.02l42.3,9.95c4.68-4.14,8.55-9.1,11.42-14.66,1.74-3.42,2.96-7.06,3.66-10.8l-28.4-6.68c0,.18.03.35.04.53Z"/>
      <path class="cls-7" d="m500.37,131.45l2.85,2.15-.08-3.1c-.96.3-1.92.58-2.87.88.03.02.07.05.1.07Z"/>
      <path class="cls-7" d="m491.5,135.08c.6,1.68,1.21,3.36,1.82,5.04,1.13.59,2.24,1.23,3.32,1.93,2.57,1.68,4.89,3.71,6.93,5.99l-.35-14.44-2.85-2.15s-.07-.05-.1-.07c-.74.23-1.48.47-2.22.7l.05,1.97c-.46-.54-.95-1.05-1.45-1.53-2,.63-4,1.26-6,1.9l.87.67Z"/>
      <path class="cls-7" d="m493.32,140.13c-.61-1.68-1.22-3.36-1.82-5.04l-.87-.67c-2.3.73-4.59,1.47-6.88,2.21,3.32.74,6.53,1.92,9.57,3.49Z"/>
      <path class="cls-7" d="m496.35,198.64c-2.55-1.44-5.19-2.71-7.89-3.82-1.45.36-2.92.64-4.41.81-4.53.54-9.11.27-13.55-.78-3.24-.75-6.37-1.92-9.3-3.47-4.72,1.79-9.44,3.59-14.14,5.44.87,1.79,1.76,3.58,2.63,5.37l63.58,14.95c-.85-2.16-1.89-4.13-3.13-5.88-3.6-5.18-8.31-9.49-13.79-12.61Z"/>
      <path class="cls-7" d="m502.52,147.97c.37.39.72.8,1.07,1.22l-.02-.65-1.06-.57Z"/>
      <path class="cls-7" d="m484.04,195.63c1.49-.17,2.96-.45,4.41-.81-.4-.17-.81-.33-1.21-.49-1.09.23-2.18.42-3.29.55-7.52.87-15.09-.5-21.8-3.87-.32.12-.64.24-.97.36,2.94,1.55,6.06,2.72,9.3,3.47,4.43,1.06,9.02,1.32,13.55.78Z"/>
      <path class="cls-7" d="m434.39,174.15c-1.45,8.44-2.89,16.88-4.34,25.31l4.77,4.96c1.26.66,2.53,1.28,3.82,1.87.64-.38,1.29-.76,1.93-1.14-2.06-10.34-4.12-20.67-6.17-31.01Z"/>
      <path class="cls-7" d="m451.8,279.54l3.24-22.48c-2.09-.22-4.17-.63-6.18-1.28-1.03-.31-2.03-.68-3.02-1.08l3.69,4.92-3.41,20.78c1.9.46,3.81.82,5.74,1.1l-.06-1.96Z"/>
      <path class="cls-7" d="m480.2,127.55c-3.51-1.82-7.18-3.26-10.95-4.33-1.67-.1-3.35-.14-5.02-.12-6.23.19-12.38,1.43-18.2,3.66-.5.18-.99.38-1.48.58-3.19,3.67-7.97,8.61-9.96,13.3l45.62-13.1Z"/>
      <path class="cls-6" d="m360.08,415.8l3.66-3.79-4.11-.13c.15,1.31.3,2.61.45,3.92Z"/>
      <path class="cls-6" d="m396.92,362.38c.15,1.31.3,2.61.45,3.92l3.66-3.79-4.11-.13Z"/>
      <path class="cls-6" d="m422.42,354.49c-2.67-.58-5.34-1.15-8.01-1.72l6.61,7.64c.49-.27.99-.54,1.48-.82l-.09-5.1Z"/>
      <path class="cls-6" d="m422.51,359.59c-.49.27-.99.54-1.48.82l1.53,1.76-.04-2.58Z"/>
      <g>
        <path class="cls-2" d="m597.15,518.66l-44.73-10.52-.03.12,44.76,10.52c.92-.04,1.84-.08,2.76-.12l-.44-.1c-.77.03-1.54.07-2.32.1Z"/>
        <path class="cls-2" d="m419.35,457.24c.07-.01.15-.03.22-.04-.11-.14-.23-.28-.35-.41,3.84-2.64,7.69-5.25,11.55-7.85-6.61-1.95-13.71-1.12-19.71,2.35l-5.93,3.42,14.21,2.53Z"/>
        <rect class="cls-2" x="625.95" y="310.41" width=".75" height="51.91" transform="translate(155.52 869.06) rotate(-76.77)"/>
        <path class="cls-2" d="m438.23,410.13l-5.32-5.54c-2.35,1.39-4.7,2.78-7.04,4.19l12.36,1.36Z"/>
        <path class="cls-2" d="m422.13,388.65c1.65-3.17,3.31-6.31,4.99-9.41-4.02-3.67-8.15-3.26-11.39,1.14l-3.04,4.13,8.1,4.46c.44-.16.89-.26,1.34-.32Z"/>
        <polygon class="cls-2" points="481.57 486.79 431.75 475.07 431.36 475.75 481.39 487.52 481.57 486.79"/>
        <path class="cls-2" d="m489.29,495.3c5.75-.74,11.36-1.46,16.8-2.15,13.49,4.49,28.33,9.51,44.51,15.17l3.02-5.3h-.05s23.64-100.55,23.64-100.55l-7.28.37-14.34,9.54,10.02-11.23,13.7-7.65,5.71-24.31,1.46-9.67-3.36-12.18,9.39-23.92,3.11-1.43-.15-8.97-65.63,1.61-40.73,173.23h.05s.12,7.44.12,7.44Z"/>
        <polygon class="cls-2" points="489.73 522.44 489.73 522.43 489.73 522.43 489.73 522.44"/>
        <path class="cls-2" d="m410.01,421.52c-10.22,6.45-20.36,13.05-30.4,19.83,1.37,1.67,2.75,3.33,4.12,5l1.74-2.37c3.24-4.4,7.37-4.81,11.39-1.14-1.67,3.1-3.33,6.24-4.99,9.41-.45.06-.9.16-1.34.32l-3.05-1.68c5.24,6.28,10.53,12.51,15.89,18.68,2.23-.63,4.62.11,6.97,2.26-.63,1.17-1.25,2.37-1.88,3.55.82.93,1.63,1.87,2.45,2.79-8.9,6.24-17.7,12.62-26.42,19.13l30.49,7.17,16.38-28.72-.49-.12.17-.73.71.17.35-.61h-.05s2.43-10.34,2.43-10.34l-4.04-.44,4.04.44,34.8-148-1.43.04c-7.19.23-14.42.44-21.69.62-2,.05-3.98.09-5.97.14l-.87.9c-.04-.29-.07-.59-.1-.88-6.3.14-12.57.28-18.81.38l-11.46.28c-1.46.04-2.9-.03-4.31-.18,8.26,12.83,16.77,25.49,25.52,37.97-2.55,1.39-5.1,2.8-7.64,4.21l.04,2.58-1.53-1.76c-10.57,5.87-21.08,11.91-31.49,18.11,0,0,0,0,0,0,1.66-.49,3.36-.87,5.09-1.12-.82,1.57-1.63,3.15-2.44,4.72,3.65,4.98,7.32,9.93,11.05,14.85l1.91.06-1.05,1.08c4.66,6.13,9.37,12.22,14.14,18.26-1.89,1.17-3.76,2.35-5.64,3.53,2.32-.81,4.84-.1,7.31,2.15-1.67,3.1-3.33,6.24-4.99,9.41-.45.06-.9.16-1.34.32l-8.1-4.46,3.04-4.13c.48-.65.98-1.21,1.5-1.68Zm22.9-16.94l5.32,5.54-12.36-1.36c2.34-1.4,4.69-2.8,7.04-4.19Zm-20.22-20.07l3.04-4.13c3.24-4.4,7.37-4.81,11.39-1.14-1.67,3.1-3.33,6.24-4.99,9.41-.45.06-.9.16-1.34.32l-8.1-4.46Zm-1.62,66.78c6-3.47,13.1-4.3,19.71-2.35-3.86,2.6-7.71,5.21-11.55,7.85.11.14.23.28.35.41-.07.01-.15.02-.22.04l-14.21-2.53,5.93-3.42Z"/>
        <path class="cls-2" d="m651.51,342.67l-40.86,173.77h.05s.03,1.75.03,1.75c14.57-.62,27.71-1.14,39.44-1.67,17.42,7.73,36.1,16.2,55.99,25.51l87.59-372.54-166.23-39.08,15.45,13.53c6.58,5.74,10.46,13.98,10.71,22.71l1.17,47.93,71.6,53.97h0c4.07,3.07,5.26,7.51,4.42,11.51-1.23,5.84-6.8,10.74-14.05,9.04l-19.55-4.6-6.46,27.48-42.72-10.04s0,0,0,0l21.96,5.16-17.31,30.36-1.06,4.5-.17.73Z"/>
        <path class="cls-2" d="m600.42,531.28l.4,24.62,22.22,5.22-.09.36h0s-6.46,27.48-6.46,27.48l65.79,15.47,13.43-57.14c-4.18-1.96-8.3-3.87-12.38-5.76-11.9,4.61-24.1,9.37-36.63,14.3-15.86-8.49-31.29-16.67-46.3-24.57Zm18.85,22.71c2.34-1.4,4.69-2.8,7.04-4.19l5.32,5.54-12.36-1.36Z"/>
        <path class="cls-2" d="m618.02,522.72c.83.41,1.66.98,2.49,1.74-1.67,3.1-3.33,6.24-4.99,9.41-.45.06-.9.16-1.34.32l-8.1-4.46,3.04-4.13c.85-1.15,1.76-2.02,2.71-2.63-3.75.16-7.59.32-11.54.49l.13,7.82c15.01,7.9,30.44,16.08,46.3,24.57,12.53-4.93,24.73-9.69,36.63-14.3-15.3-7.08-29.85-13.65-43.61-19.75-6.76.3-14,.61-21.7.93Z"/>
        <path class="cls-6" d="m481.57,486.79l-.17.73-50.03-11.76-16.38,28.72,2.68.63c26.05-3.8,49.94-7,71.63-9.8l-.12-7.42h-.05s-57.03-13.42-57.03-13.42l-.35.61,49.82,11.71Z"/>
        <polygon class="cls-6" points="431.04 474.91 430.87 475.64 431.36 475.75 431.75 475.07 431.04 474.91"/>
        <path class="cls-6" d="m479.28,526.97l-.43-26.39c-21.69,2.8-45.58,6-71.63,9.8l70.75,16.64v-.36s1.3.31,1.3.31Z"/>
        <polygon class="cls-6" points="553.62 503.03 610.65 516.44 651.51 342.67 600.98 330.79 601.15 330.06 651.68 341.94 652.74 337.43 652.74 337.44 601.33 325.35 599.58 326.19 594.25 330.05 589.2 351.51 593.11 360.32 588.26 379.24 586.06 394.01 579.18 402.38 577.22 402.48 553.58 503.02 553.62 503.03"/>
        <path class="cls-6" d="m610.65,516.44l-57.03-13.41-3.02,5.3c9.92,3.47,20.35,7.18,31.26,11.16,5.24-.25,10.34-.49,15.29-.71l-44.76-10.52.03-.12h-.03s.17-.74.17-.74l47.34,11.13c-.15,0-.29.01-.44.02l.44.1c3.69-.16,7.3-.32,10.82-.47l-.03-1.74h-.05Z"/>
        <path class="cls-6" d="m562.91,546.98l37.91,8.91-.4-24.62c-.2-.11-.41-.22-.62-.33-12.01,5.18-24.31,10.52-36.89,16.03Zm34.58-3.65c-.29-.38-.58-.76-.87-1.14l1.91.06-1.05,1.08Z"/>
        <path class="cls-6" d="m526.8,537.03l-.74,1.29,6.53,1.53c-1.94-.95-3.86-1.88-5.79-2.82Z"/>
        <path class="cls-6" d="m532.59,539.86l30.32,7.13c12.57-5.51,24.88-10.85,36.89-16.03.2.11.41.22.62.33l-.13-7.82c-3.52.15-7.13.31-10.82.47l3.18.75-.17.73-5.77-1.36c-4.95.22-10.04.46-15.29.71-10.92-3.98-21.34-7.69-31.26-11.16l-13.36,23.43c1.93.94,3.85,1.87,5.79,2.82Z"/>
        <path class="cls-5" d="m599.47,518.55l-46.9-11.03-.14.61,44.73,10.52c.78-.03,1.55-.07,2.32-.1Z"/>
        <path class="cls-5" d="m599.47,518.55c.15,0,.29-.01.44-.02l-47.34-11.13-.17.73h.03s.14-.61.14-.61l46.9,11.03Z"/>
        <path class="cls-5" d="m602.92,520.14l.17-.73-3.18-.75c-.91.04-1.83.08-2.76.12l5.77,1.36Z"/>
        <path class="cls-6" d="m421.74,533.52c13.25,5.9,26.98,12.04,41.17,18.42,13.15-6.39,26.03-12.58,38.65-18.61l-23.97-5.64v.09s0,0,0,0h0s-45.79-10.77-45.79-10.77l-26.83-6.31c-.25.04-.51.07-.76.11-5.46-1.27-10.68-2.47-15.69-3.59l14.98,3.52c-.34.05-.67.1-1.01.15-11.07-2.58-21.19-4.84-30.4-6.85-2.71,2.03-5.41,4.06-8.09,6.12,7.54,8.25,15.18,16.39,22.92,24.43l22.58,5.31c4.11-2.15,8.19-4.28,12.24-6.4Z"/>
        <path class="cls-6" d="m561.77,547.49l-26.14-6.15c6.25,3.05,12.55,6.14,18.96,9.3,2.41-1.06,4.79-2.1,7.18-3.15Z"/>
        <path class="cls-6" d="m388.5,507.23l-16.96-3.99c-.24.18-.47.36-.71.54.41.09.83.18,1.25.27.15-.12.31-.23.46-.35,5.03,1.09,10.36,2.27,15.96,3.52Z"/>
        <path class="cls-4" d="m387.87,535.6c3.3,3.42,6.61,6.83,9.94,10.21-.3.24-.59.48-.89.72,3.88-2.04,7.73-4.07,11.57-6.08l-20.62-4.85Z"/>
        <path class="cls-5" d="m405.97,510.56l-.45-.11c-.34.05-.67.1-1.01.15l.45.11c.08-.01.16-.02.24-.04.26-.04.51-.07.77-.11Z"/>
        <path class="cls-5" d="m414.78,504.81l1.87.44c.34-.05.67-.1,1.01-.15l-2.68-.63-.19.34Z"/>
        <path class="cls-5" d="m532.59,539.86l-6.53-1.53-.19.34,8.23,1.94c-.5-.25-1.01-.5-1.51-.74Z"/>
        <path class="cls-5" d="m562.34,547.23c.19-.08.38-.17.57-.25l-30.32-7.13c.5.24,1.01.49,1.51.74l28.24,6.64Z"/>
        <path class="cls-5" d="m562.34,547.23l38.48,9.05v-.39s-37.91-8.91-37.91-8.91c-.19.08-.38.17-.57.25Z"/>
        <path class="cls-5" d="m562.33,547.24l-28.2-6.63c.5.24,1,.49,1.5.73l26.14,6.15c.19-.08.38-.17.56-.25Z"/>
        <path class="cls-5" d="m414.78,504.82l1.86.44s.01,0,.02,0l-1.87-.44h0Z"/>
        <path class="cls-5" d="m562.34,547.23l-28.24-6.64s.02,0,.02.01l28.2,6.63s0,0,0,0Z"/>
        <path class="cls-5" d="m525.87,538.66h0s8.26,1.95,8.26,1.95c0,0-.02,0-.02-.01l-8.23-1.94Z"/>
        <path class="cls-6" d="m611.83,522.98c2.1-.09,4.16-.17,6.19-.26-2.14-1.06-4.26-.97-6.19.26Z"/>
        <path class="cls-6" d="m609.12,525.6l-3.04,4.13,8.1,4.46c.44-.16.89-.26,1.34-.32,1.65-3.17,3.31-6.31,4.99-9.41-.83-.76-1.66-1.33-2.49-1.74-2.03.08-4.09.17-6.19.26-.95.6-1.86,1.47-2.71,2.63Z"/>
        <path class="cls-6" d="m619.26,553.99l12.36,1.36-5.32-5.54c-2.35,1.39-4.7,2.78-7.04,4.19Z"/>
        <path class="cls-6" d="m597.49,543.34l1.05-1.08-1.91-.06c.29.38.58.76.87,1.14Z"/>
        <path class="cls-6" d="m540.16,560.1l12.36,1.36-5.32-5.54c-2.35,1.39-4.7,2.78-7.04,4.19Z"/>
        <path class="cls-6" d="m590.97,580.96l12.36,1.36-5.32-5.54c-2.35,1.39-4.7,2.78-7.04,4.19Z"/>
      </g>
      <path class="cls-6" d="m553.34,565.04l-5.36,7.81,19.21-5.76c.92-.7,1.87-1.37,2.85-1.99,1.82-3.57,3.67-7.12,5.52-10.67-.88-1.2-1.77-2.4-2.65-3.6-7.91,2.33-14.84,7.31-19.57,14.2Z"/>
      <path class="cls-6" d="m532.85,565.08c2.5-5.3,5.01-10.55,7.53-15.74-6.23-6.22-12.57-5.59-17.49,1.76l-4.61,6.9,12.51,7.6c.68-.26,1.36-.43,2.06-.52Z"/>
      <path class="cls-6" d="m588.94,561.96l-3.04,4.13,8.1,4.46c.44-.16.89-.26,1.34-.32,1.65-3.17,3.31-6.31,4.99-9.41-4.02-3.67-8.15-3.26-11.39,1.14Z"/>
      <path class="cls-6" d="m587.79,576.78l3.66-3.79-4.11-.13c.15,1.31.3,2.61.45,3.92Z"/>
      <path class="cls-6" d="m576.36,559.89c.15,1.31.3,2.61.45,3.92l3.66-3.79-4.11-.13Z"/>
    </g>
  </g>
</svg>