<?xml version="1.0" encoding="UTF-8"?>
<svg id="Layer_2" data-name="Layer 2" xmlns="http://www.w3.org/2000/svg" viewBox="0 0 793.74 760.19">
  <defs>
    <style>
      .cls-1 {
        fill: rgba(92, 92, 92, 0);
      }

      .cls-1, .cls-2, .cls-3, .cls-4, .cls-5, .cls-6, .cls-7 {
        stroke-width: 0px;
      }

      .cls-2 {
        fill: none;
      }

      .cls-3 {
        fill: #756746;
      }

      .cls-4 {
        fill: #5c5c5c;
      }

      .cls-5 {
        fill: #2c2c7c;
      }

      .cls-6 {
        fill: #d0d8d7;
      }

      .cls-7 {
        fill: #fff;
      }
    </style>
  </defs>
  <g id="Layer_8" data-name="Layer 8">
    <g>
      <polygon class="cls-2" points="489.73 655.22 489.73 655.22 489.73 655.22 443.94 644.45 489.73 655.22"/>
      <path class="cls-5" d="m375.88,169.82l1.1.29-.16-.37c-.31.02-.62.04-.94.07Z"/>
      <path class="cls-2" d="m196.1,204.52l111.47-62.47s.02-.01.03-.02c.33-.19.64-.34.93-.49,6.84-3.67,14.27-5.9,21.85-6.63,7.93-.76,16.02.11,23.75,2.66l3.17,1.05c-1.57-1.94-3.15-3.89-4.7-5.84l-173.95,16.72c-2.87,12.61-5.57,25.27-8.07,37.96,8.41,5.76,16.94,11.43,25.53,17.05Z"/>
      <path class="cls-2" d="m255.99,305.07l60.31-5.8-1.29,6.67c2.61-2.45,5.23-4.88,7.86-7.31l-66.87,6.43h0Z"/>
      <path class="cls-2" d="m243.86,321.92c.1.69.2,1.37.3,2.06l.84-1.47c-.38-.2-.76-.39-1.14-.59Z"/>
      <path class="cls-2" d="m225.64,307.98c-.11,1.37-.23,2.74-.34,4.11,3.31,1.78,6.65,3.53,9.98,5.29.8-3.52,1.59-7.04,2.39-10.56l-12.03,1.16Z"/>
      <polygon class="cls-2" points="252.88 305.36 241.62 306.44 241.62 306.45 252.88 305.37 252.88 305.36"/>
      <path class="cls-2" d="m245.2,322.16l-2.2-6.17c.29,1.98.57,3.96.86,5.94.38.2.76.39,1.14.59l.2-.35Z"/>
      <rect class="cls-5" x="185.4" y="345.52" width="0" height=".37" transform="translate(-21.2 12.24) rotate(-3.58)"/>
      <rect class="cls-5" x="185.36" y="345.15" width="0" height=".38" transform="translate(-32.22 19.34) rotate(-5.49)"/>
      <path class="cls-6" d="m258.49,343.9l-.07-.75,1.79-.17c.07-1.55.14-3.11.21-4.66l-4.53.43-1.56,20.88.7,6.98,4.23,5.08c.19-9.33.5-18.65.9-27.96l-1.68.16Z"/>
      <path class="cls-6" d="m306.87,427.1l-5.71-4.56c.15,8.57.37,17.15.7,25.73,2.18.91,4.38,1.79,6.57,2.69l-1.84-5.6.28-18.26Z"/>
      <path class="cls-6" d="m314.93,306.34l.08-.4c-.09.08-.17.16-.26.24.06.05.12.11.18.16Z"/>
      <rect class="cls-5" x="310.12" y="338.18" width="0" height=".75" transform="translate(-30.98 31.24) rotate(-5.49)"/>
      <path class="cls-5" d="m258.49,343.9l1.68-.16c.01-.25.02-.5.03-.76l-1.79.17.07.75Z"/>
      <path class="cls-5" d="m260.18,343.73l49.98-4.8-.07-.75-49.88,4.79c-.01.25-.02.5-.03.76Z"/>
      <polygon class="cls-4" points="228.32 279.36 228.32 279.36 249.11 277.37 249.11 277.37 228.32 279.36"/>
      <polygon class="cls-4" points="255.44 276.76 344.45 268.2 344.45 268.2 255.44 276.76 255.44 276.76"/>
      <path class="cls-1" d="m76.25,271.68h0c-1.37.77-2.48,1.7-3.36,2.74.88-1.04,1.99-1.97,3.36-2.74Z"/>
      <polygon class="cls-1" points="249.11 277.37 249.11 277.36 228.32 279.36 228.32 279.36 249.11 277.37"/>
      <polygon class="cls-1" points="255.44 276.76 344.45 268.2 344.45 268.2 255.44 276.76 255.44 276.76"/>
      <path class="cls-5" d="m318.07,197.32c-2.81,2.91-5,6.37-6.44,10.15-2.9,7.65-2.07,16.22,2.23,23.18,2.13,3.44,4.94,6.41,8.26,8.74,3.48,2.45,7.37,4.25,11.49,5.31,1.19.31,2.4.56,3.61.75.27-.22.53-.44.8-.65-1.41-.2-2.82-.47-4.22-.82-4.03-1.03-7.85-2.79-11.25-5.19-3.23-2.27-5.97-5.16-8.05-8.52-4.18-6.76-4.98-15.08-2.16-22.52,1.4-3.69,3.54-7.06,6.28-9.9,2.88-3.01,6.29-5.46,10.05-7.25,3.52-1.68,7.28-2.81,11.14-3.34l-2.22-.37c-3.17.63-6.28,1.64-9.24,3.04-3.85,1.82-7.33,4.33-10.27,7.4Z"/>
      <g>
        <path class="cls-2" d="m322.52,363.03h0s-.06.75-.06.75h0s-7.54,99.81-7.54,99.81c5.12,3.16,10.26,6.31,15.43,9.43-1.41,13.21-2.61,26.46-3.59,39.74.98-13.28,2.18-26.53,3.59-39.74-5.17-3.12-10.3-6.27-15.43-9.43l-5.9,78.19h.05s5.84,33.68,5.84,33.68l16.69,1.26c7.61-7.78,15.32-15.45,23.14-22.99-12.4-10.26-24.61-20.77-36.62-31.53,11.23-10.46,22.67-20.68,34.28-30.66-11.62-10.75-23.03-21.74-34.22-32.96,12.01-9.97,24.19-19.68,36.54-29.15-10.8-11.2-21.38-22.61-31.72-34.25,12.74-9.43,25.64-18.6,38.69-27.5-9.9-11.53-19.56-23.27-28.97-35.2l-9.85,25.93-.35,4.62Z"/>
        <rect class="cls-5" x="275.73" y="518.35" width=".75" height="51.9" transform="translate(-287.45 778.61) rotate(-85.68)"/>
        <g>
          <path class="cls-6" d="m314.93,463.58c-4.09-2.52-8.14-5.06-12.2-7.6l-.84,7.7-1.33-9.06c-2-1.26-4.02-2.5-6.01-3.77,1.14-8.51,2.38-17,3.69-25.48l-17.11-19.29-11.51-5.23-7.69-14.05-11.37,150.56h.05s58.41,4.41,58.41,4.41l5.9-78.19Z"/>
          <path class="cls-6" d="m309.07,541.78h-.05s-58.41-4.41-58.41-4.41l-12.26,32.31,76.57,5.78-5.84-33.67Zm-58.87.94l.06-.75,51.76,3.91-.06.75-51.76-3.91Z"/>
          <path class="cls-5" d="m314.98,575.83l16.28,1.23c.11-.12.23-.23.34-.35l-16.69-1.26.07.38Z"/>
        </g>
        <polygon class="cls-5" points="314.98 575.83 314.91 575.45 238.34 569.67 238.21 570.04 314.98 575.83"/>
        <rect class="cls-5" x="276.59" y="534.44" width="0" height="76.99" transform="translate(-315.54 805.61) rotate(-85.68)"/>
      </g>
      <rect class="cls-5" x="122.71" y="597.93" width="0" height=".37" transform="translate(-55.29 14.06) rotate(-5.36)"/>
      <path class="cls-6" d="m398.25,416.07c4.63-3.45,9.28-6.88,13.95-10.27-9.6-3.14-20.08-2.11-28.89,2.82l-8.27,4.63,19.78,3.34c1.14-.22,2.28-.4,3.43-.52Z"/>
      <path class="cls-6" d="m398.96,510.71l-3.04,4.13,8.1,4.46c.44-.16.89-.26,1.34-.32,1.65-3.17,3.31-6.31,4.99-9.41-4.02-3.67-8.15-3.26-11.39,1.14Z"/>
      <path class="cls-6" d="m379.62,505.62c2.5-5.3,5.01-10.55,7.53-15.74-6.23-6.22-12.57-5.59-17.49,1.76l-4.61,6.9,12.51,7.6c.68-.26,1.36-.43,2.06-.52Z"/>
      <path class="cls-6" d="m428.77,547.8c-6.61-1.95-13.71-1.12-19.71,2.35l-5.93,3.42,14.21,2.53c.07-.01.15-.03.22-.04-.11-.14-.23-.28-.35-.41,3.84-2.64,7.69-5.25,11.55-7.85Z"/>
      <path class="cls-6" d="m411.77,470.14l-3.04,4.13,8.1,4.46c.44-.16.89-.26,1.34-.32,1.65-3.17,3.31-6.31,4.99-9.41-4.02-3.67-8.15-3.26-11.39,1.14Z"/>
      <path class="cls-6" d="m357.95,570.66l-3.04,4.13,8.1,4.46c.44-.16.89-.26,1.34-.32,1.65-3.17,3.31-6.31,4.99-9.41-4.02-3.67-8.15-3.26-11.39,1.14Z"/>
      <path class="cls-6" d="m398.96,605.76l-3.04,4.13,8.1,4.46c.44-.16.89-.26,1.34-.32,1.65-3.17,3.31-6.31,4.99-9.41-4.02-3.67-8.15-3.26-11.39,1.14Z"/>
      <path class="cls-4" d="m496.61,194.38l-2.89-1.67c-2.99-1.73-6.11-3.15-9.31-4.31l-43.5,18.97c-1,3.63-.51,6.93,3.16,9.05l.13.05,9.04-2.85c9.64-3.04,20.1-1.9,28.86,3.12,7.08-3.19,14.18-6.32,21.3-9.38-2.3-4.31-4.55-8.64-6.79-12.98Z"/>
      <path class="cls-4" d="m716.82,421.85l-19.55-4.6h0s19.55,4.6,19.55,4.6c7.25,1.7,12.82-3.2,14.05-9.04-1.23,5.84-6.8,10.74-14.05,9.04Z"/>
      <polygon class="cls-4" points="697.28 417.26 463.63 362.32 463.63 362.33 697.28 417.26 697.28 417.26"/>
      <path class="cls-1" d="m730.87,412.82c.84-4-.35-8.44-4.42-11.5h0s0,0,0,0c4.07,3.07,5.26,7.51,4.42,11.5Z"/>
      <polygon class="cls-1" points="697.28 417.26 463.63 362.32 463.63 362.32 697.28 417.26 697.28 417.26"/>
      <path class="cls-6" d="m479.46,228.45c-4.01-1.98-8.34-3.24-12.78-3.71-.56-.06-1.12-.11-1.68-.15,0,0,0,0,0,0l21.36,8.34c-2.1-1.76-4.41-3.27-6.89-4.48Z"/>
      <path class="cls-6" d="m483.95,327.66c4.14-.48,8.15-1.71,11.85-3.63,3.51-1.81,6.61-4.31,9.13-7.36,5.05-6.14,6.97-14.28,5.18-22.02-.89-3.85-2.56-7.47-4.89-10.66-.83-1.14-1.73-2.22-2.69-3.25l-20.19-10.87c-2.35.77-4.71,1.53-7.06,2.31,5.56,13.6,11.42,27.08,17.59,40.42-10.26,3.6-20.5,7.33-30.7,11.19,6.71,3.37,14.28,4.74,21.8,3.87Z"/>
      <path class="cls-4" d="m697.28,417.26l19.55,4.6c7.25,1.7,12.82-3.2,14.05-9.04.84-4-.35-8.44-4.42-11.5h0s-154.78-83.34-154.78-83.34l60.65,45.72c6.24,4.7,1.6,14.59-6,12.8l-176.64-41.53c4.51,9.19,9.16,18.31,13.95,27.36l233.64,54.93h0Z"/>
      <polygon class="cls-2" points="553.62 635.81 553.58 635.8 577.22 535.26 569.94 535.63 555.6 545.17 565.63 533.94 579.32 526.29 585.04 501.98 586.5 492.31 583.13 480.13 592.52 456.2 595.63 454.78 595.1 422.24 620.94 428.31 620.94 428.31 454.63 389.21 455.08 389.6 451.8 412.32 452.02 419.33 462.89 434.36 472.3 436.03 474.13 428.23 473.57 393.67 548.52 411.29 531.21 441.65 530.15 446.15 530.15 446.15 529.98 446.88 529.98 446.88 489.12 620.65 489.17 620.66 489.72 654.83 536.5 665.83 553.62 635.81"/>
      <path class="cls-2" d="m432.05,607.23l38.98-165.78-10.89-3.66-14.58-21.17,3.98-24.22-4-5.34-12.11-2.85c-3.27,1.45-6.53,2.92-9.79,4.4l-.2.35c7.45,13.25,15.17,26.34,23.17,39.27-10.08,4.79-20.1,9.72-30.07,14.79.33.14.66.29.98.44-3.62,2.08-7.24,4.2-10.84,6.33-.75-.01-1.51.01-2.26.07,8.32,12.94,16.9,25.71,25.74,38.3-13.67,7.44-27.21,15.15-40.62,23.13,9.32,12.82,18.89,25.44,28.7,37.86-13.02,8.06-25.9,16.38-38.62,24.98,10.2,12.48,20.64,24.76,31.3,36.82-8.9,6.24-17.7,12.62-26.42,19.13l30.49,7.17,17.12-30.02h-.05Z"/>
      <polygon class="cls-2" points="587.52 480.49 589.2 484.29 594.25 462.83 593.9 463.08 587.52 480.49"/>
      <path class="cls-2" d="m514.8,236.68c.85,2.35,1.71,4.7,2.58,7.04l209.07,157.59h0c4.07,3.07,5.26,7.51,4.42,11.51-1.23,5.84-6.8,10.74-14.05,9.04l-19.55-4.6-6.46,27.48-62.59-14.72s0,0,0,0l41.83,9.84-17.31,30.36-1.06,4.5-.17.73-40.86,173.77h.05s.55,34.18.55,34.18l22.22,5.22-.09.36h0s-6.46,27.48-6.46,27.48l65.79,15.47,101.03-429.68-278.94-65.59Z"/>
      <polygon class="cls-6" points="479.45 435 479.63 434.27 530.15 446.15 531.21 441.65 474.13 428.23 472.3 436.03 476.47 436.77 489.44 451.37 500.46 461.47 503.54 471.84 498.77 479.77 498.66 496.99 494.95 482.4 496.49 464.2 472.12 441.82 471.03 441.45 432.05 607.23 432.1 607.24 489.12 620.65 529.98 446.88 479.45 435"/>
      <polygon class="cls-6" points="533.49 431.93 531.21 441.65 548.52 411.29 473.57 393.67 474.13 428.23 476.42 418.51 533.49 431.93"/>
      <rect class="cls-6" x="498.82" y="400.77" width="9.99" height="58.63" transform="translate(-30.16 822.09) rotate(-76.77)"/>
      <rect class="cls-5" x="529.69" y="446.51" width=".75" height="0" transform="translate(-25.93 860.29) rotate(-76.77)"/>
      <rect class="cls-5" x="504.43" y="414.62" width=".75" height="51.9" transform="translate(-39.61 831.14) rotate(-76.77)"/>
      <path class="cls-6" d="m489.17,620.66h-.05s-57.03-13.42-57.03-13.42l-17.12,30.02,74.75,17.57-.55-34.17Zm-7.78,3.69l-50.53-11.88.17-.73,50.53,11.88-.17.73Z"/>
      <rect class="cls-5" x="455.84" y="592.09" width=".75" height="51.91" transform="translate(-249.84 920.69) rotate(-76.77)"/>
      <polygon class="cls-6" points="585.04 501.98 579.32 526.29 581.57 525.04 585.04 501.98"/>
      <polygon class="cls-6" points="601.33 458.13 599.58 458.98 594.25 462.83 589.2 484.29 593.11 493.1 588.26 512.02 586.06 526.8 579.18 535.16 577.22 535.26 553.58 635.8 553.62 635.81 610.65 649.22 651.51 475.45 600.98 463.57 601.15 462.84 651.68 474.72 652.74 470.22 652.74 470.22 601.33 458.13"/>
      <polygon class="cls-6" points="595.63 454.78 596.2 454.51 597.95 447.08 607.49 449.33 614.83 445.95 620.94 428.31 595.1 422.24 595.63 454.78"/>
      <path class="cls-6" d="m620.25,448.98l-4.65,2.25,39.42,9.27-2.28,9.71,17.31-30.36-41.83-9.84c-2.02,1.59-4.03,3.18-6.05,4.78l-1.92,14.18Z"/>
      <polygon class="cls-6" points="596.2 454.51 607.49 449.33 597.95 447.08 596.2 454.51"/>
      <polygon class="cls-6" points="615.6 451.23 601.33 458.13 652.74 470.22 652.74 470.22 655.02 460.5 615.6 451.23"/>
      <rect class="cls-5" x="625.95" y="443.19" width=".75" height="51.9" transform="translate(26.28 971.47) rotate(-76.77)"/>
      <path class="cls-6" d="m536.5,665.83l74.75,17.58-.55-34.17h-.05s-57.03-13.42-57.03-13.42l-17.12,30.02Zm66.42-12.91l-50.53-11.88.17-.73,50.53,11.88-.17.73Z"/>
      <rect class="cls-5" x="577.37" y="620.66" width=".75" height="51.91" transform="translate(-183.94 1061.02) rotate(-76.77)"/>
      <path class="cls-6" d="m454.63,389.21l166.31,39.1,2.03-5.87c8.17-2.55,16.35-5.1,24.52-7.64-6.42,5.07-12.85,10.15-19.27,15.22l62.59,14.72,6.46-27.48-233.64-54.93c1.29,2.44,2.58,4.88,3.89,7.31-7.75,3.18-15.48,6.46-23.18,9.8.02.22.03.43.05.65l10.24,9.13Z"/>
      <path class="cls-6" d="m445.44,483.19c-2.35,1.39-4.7,2.78-7.04,4.19l12.36,1.36-5.32-5.54Z"/>
      <path class="cls-6" d="m626.92,716.47h0s6.46-27.48,6.46-27.48h0s-.09.37-.09.37l-249.6-58.69c-3.1,2.32-6.19,4.65-9.27,7.01,7.54,8.25,15.18,16.39,22.92,24.43l229.66,54-.09.37Z"/>
      <path class="cls-4" d="m626.92,716.47l-.09.37-228.53-53.73c3.3,3.42,6.61,6.83,9.94,10.21-6.91,5.48-13.75,11.07-20.52,16.73l298.35,70.15,6.64-28.24-65.79-15.47h0Z"/>
      <path class="cls-4" d="m571.67,317.98l154.78,83.33-209.07-157.59c1.69,4.58,3.4,9.15,5.16,13.71-7.44,2.18-14.86,4.42-22.28,6.73.03.02.07.05.1.07l71.3,53.74Z"/>
      <path class="cls-6" d="m504.41,281.76l67.26,36.21-71.3-53.74s-.07-.05-.1-.07c-5.51,1.71-11.01,3.47-16.51,5.25,4.55,1.02,8.92,2.84,12.88,5.42,2.93,1.91,5.54,4.25,7.77,6.93Z"/>
      <path class="cls-6" d="m632.32,363.69l-60.65-45.72-67.26-36.21c.49.58.96,1.18,1.41,1.79,2.39,3.27,4.1,6.98,5.01,10.93,1.84,7.97-.13,16.35-5.33,22.66-2.58,3.12-5.76,5.69-9.36,7.55-3.77,1.96-7.87,3.22-12.1,3.72-4.53.54-9.11.27-13.55-.78-3.24-.75-6.37-1.92-9.3-3.47-4.72,1.79-9.44,3.59-14.14,5.44.87,1.79,1.76,3.58,2.63,5.37l176.64,41.53c7.6,1.79,12.24-8.1,6-12.8Z"/>
      <path class="cls-5" d="m479.46,228.45c2.47,1.21,4.78,2.72,6.89,4.48l2,.78c-2.54-2.39-5.42-4.4-8.55-5.94-4.25-2.08-8.81-3.36-13.45-3.82-.45.21-.9.42-1.35.63.56.04,1.12.09,1.68.15,4.45.47,8.77,1.73,12.78,3.71Z"/>
      <path class="cls-5" d="m484.04,328.41c4.23-.49,8.33-1.75,12.1-3.72,3.6-1.86,6.78-4.42,9.36-7.55,5.2-6.32,7.17-14.69,5.33-22.66-.91-3.94-2.62-7.66-5.01-10.93-.45-.61-.92-1.21-1.41-1.79l-1.89-1.02c.96,1.03,1.86,2.11,2.69,3.25,2.33,3.18,4,6.81,4.89,10.66,1.79,7.75-.12,15.89-5.18,22.02-2.51,3.04-5.62,5.55-9.13,7.36-3.69,1.92-7.71,3.15-11.85,3.63-7.52.87-15.09-.5-21.8-3.87-.32.12-.64.24-.97.36,2.94,1.55,6.06,2.72,9.3,3.47,4.43,1.06,9.02,1.32,13.55.78Z"/>
      <polygon class="cls-5" points="489.72 654.83 489.73 655.22 536.31 666.17 536.5 665.83 489.72 654.83"/>
      <polygon class="cls-5" points="633.38 688.99 633.47 688.63 611.25 683.4 611.26 683.79 633.38 688.99"/>
      <polygon class="cls-5" points="489.73 655.22 489.72 654.83 414.98 637.25 414.78 637.59 443.94 644.45 489.73 655.22"/>
      <polygon class="cls-5" points="536.31 666.17 611.26 683.79 611.25 683.4 536.5 665.83 536.31 666.17"/>
      <path class="cls-5" d="m633.38,688.99l-22.12-5.2h0s-74.95-17.62-74.95-17.62h0s-46.58-10.96-46.58-10.96h0s-105.33-24.76-105.33-24.76h0s18.54,4.35,18.54,4.35l-18.85-4.43c-.13.1-.26.19-.4.29l249.6,58.69.09-.37Z"/>
      <polygon class="cls-5" points="442.52 597.78 430.43 596.46 442.52 597.78 442.52 597.78"/>
      <polygon class="cls-5" points="443.94 644.45 414.78 637.59 414.78 637.6 489.73 655.22 489.73 655.22 443.94 644.45"/>
      <polygon class="cls-5" points="443.94 644.45 414.78 637.59 414.78 637.59 443.94 644.45"/>
      <polygon class="cls-5" points="384.4 630.46 489.73 655.22 414.78 637.6 414.78 637.59 402.95 634.81 384.4 630.45 384.4 630.46"/>
      <rect class="cls-5" x="573.78" y="636.48" width="0" height="77" transform="translate(-214.61 1079.05) rotate(-76.77)"/>
      <path class="cls-5" d="m627.01,716.11l-229.66-54c.16.17.32.33.48.5l229.09,53.86.09-.37Z"/>
      <path class="cls-5" d="m626.92,716.47l-229.09-53.86c.16.17.32.33.48.5l228.53,53.73.09-.37Z"/>
      <polygon class="cls-7" points="238.97 336.53 242.2 345.18 237.78 361.15 231.12 372 233.69 383.53 240.39 386.29 231.99 394.86 222.59 404.06 226.49 418.69 227.01 406.93 246.05 386.54 238.56 372.98 246.96 345.06 247.94 336.71 241.82 329.63 238.97 336.53"/>
      <path class="cls-7" d="m245.4,322.72l-.2-.56-.2.35c.13.07.27.14.4.21Z"/>
      <path class="cls-7" d="m245,322.51l-.84,1.47.58,3.99,3.52,2.73-2.85-7.98c-.13-.07-.27-.14-.4-.21Z"/>
      <polygon class="cls-7" points="252.88 305.37 255.99 305.07 255.99 305.06 252.88 305.36 252.88 305.37"/>
      <polygon class="cls-7" points="246.65 279.24 251.42 286.71 251.18 292.37 255.01 295.79 252.88 305.36 255.99 305.06 257.47 295.52 252.39 280.34 255.44 276.76 249.11 277.37 246.65 279.24"/>
      <rect class="cls-7" x="249.1" y="277.06" width="6.36" height="0" transform="translate(-25.35 25.41) rotate(-5.49)"/>
      <polygon class="cls-7" points="265.72 264.68 249.11 277.36 255.44 276.76 265.72 264.68"/>
      <rect class="cls-7" x="252.27" y="273.88" width="0" height="6.35" transform="translate(-122.39 282.92) rotate(-48.58)"/>
      <path class="cls-7" d="m434.39,306.93c-1.45,8.44-2.89,16.88-4.34,25.31l7.29,7.59c1.07-.63,2.15-1.26,3.22-1.89-2.06-10.34-4.12-20.67-6.17-31.01Z"/>
      <polygon class="cls-7" points="462.89 434.36 452.02 419.33 451.8 412.32 455.08 389.6 454.63 389.21 445.53 387.07 449.53 392.4 445.55 416.63 460.13 437.79 471.03 441.45 472.3 436.03 462.89 434.36"/>
      <polygon class="cls-7" points="496.49 464.2 494.95 482.4 498.66 496.99 498.77 479.77 503.54 471.84 500.46 461.47 489.44 451.37 476.47 436.77 472.3 436.03 471.03 441.45 472.12 441.82 496.49 464.2"/>
      <path class="cls-7" d="m454.63,389.21l-10.24-9.13c-.02-.22-.03-.43-.05-.65-1.14.5-2.29.99-3.43,1.49l4.61,6.15,9.11,2.14Z"/>
      <polygon class="cls-7" points="595.66 456.8 595.63 454.78 592.52 456.2 583.13 480.13 586.5 492.31 585.04 501.98 589.2 484.29 587.52 480.49 593.9 463.08 594.25 462.83 595.66 456.8 595.66 456.8"/>
      <polygon class="cls-7" points="565.63 533.94 555.6 545.17 569.94 535.63 577.22 535.26 579.32 526.29 565.63 533.94"/>
      <polygon class="cls-7" points="620.94 428.31 628.22 430.02 628.22 430.02 620.94 428.31 620.94 428.31"/>
      <polygon class="cls-7" points="594.25 462.83 599.58 458.98 601.33 458.13 595.66 456.8 594.25 462.83"/>
      <polygon class="cls-7" points="581.57 525.04 579.32 526.29 577.22 535.26 579.18 535.16 586.06 526.8 588.26 512.02 593.11 493.1 589.2 484.29 585.04 501.98 581.57 525.04"/>
      <polygon class="cls-7" points="595.66 456.8 596.2 454.51 595.63 454.78 595.66 456.8 595.66 456.8"/>
      <path class="cls-7" d="m614.83,445.95l-7.34,3.37,8.11,1.91,4.65-2.25,1.92-14.18c2.02-1.59,4.03-3.18,6.05-4.78l-7.28-1.71-6.11,17.64Z"/>
      <polygon class="cls-7" points="595.66 456.8 601.33 458.13 615.6 451.23 607.49 449.33 596.2 454.51 595.66 456.8"/>
      <path class="cls-7" d="m622.98,422.44l-2.03,5.87,7.28,1.71c6.42-5.07,12.85-10.15,19.27-15.22-8.17,2.55-16.35,5.1-24.52,7.64Z"/>
      <g>
        <rect class="cls-5" x="120.4" y="358.16" width="51.9" height=".37" transform="translate(-33.6 15.64) rotate(-5.49)"/>
        <rect class="cls-5" x="120.36" y="357.78" width="51.9" height=".38" transform="translate(-33.58 15.64) rotate(-5.49)"/>
        <path class="cls-4" d="m69.82,303.48c-10.92,1.05-16.29-11.62-10.14-18.91-6.16,7.29-.78,19.96,10.14,18.91l10.29-.99h0s-10.29.99-10.29.99Z"/>
        <polygon class="cls-4" points="182.88 214.67 182.88 214.67 63.04 281.83 63.04 281.83 63.04 281.83 182.88 214.67"/>
        <polygon class="cls-4" points="215.11 289.51 80.1 302.49 80.1 302.49 215.11 289.51 215.11 289.51"/>
        <polygon class="cls-1" points="80.1 302.49 215.11 289.51 215.11 289.51 80.1 302.49 80.1 302.49"/>
        <g>
          <path class="cls-2" d="m109.48,608.08h0s-2.63-27.35-2.63-27.35h0s-.07-.75-.07-.75l18.09-1.74,6.58-33.92h0s-.05,0-.05,0l-12.31-128.07-4.46-6.71-8.65-3.23-6.07-12.1-4.99-14.27-9.21-12.44-5.09.65-4.12-3.89-8.77-1.29,1.5-23.95,3.09,20.33,14.8,6.1,10.61,12.53,6.72,13.4,13.21,14.48.51.81-4.36-45.38h0s-11.62-32.55-11.62-32.55l76.64-7.37-6.65,34.31.04.37h0s17.56,182.66,17.56,182.66h.05s11.49,32.19,11.49,32.19l47.83-4.6,6.58-33.92h-.05s-14.45-150.29-14.45-150.29l-6.03-7.58,2.3-24.44-2.77-3.21-.98,8.35-8.39,27.92,7.48,13.55-19.04,20.39-.52,11.77-3.9-14.64,9.4-9.2,8.4-8.56-6.7-2.77-2.57-11.52,6.65-10.85,4.42-15.96-3.23-8.66,2.85-6.9-7.38-8.54c.28-1.23.56-2.47.84-3.7-3.33-1.76-6.67-3.51-9.98-5.29.11-1.37.23-2.74.34-4.11l-129.62,12.46-2.7-28.1-10.29.99c-10.92,1.05-16.29-11.62-10.14-18.91.88-1.04,1.99-1.97,3.36-2.74h0s119.84-67.16,119.84-67.16c-8.59-5.63-17.12-11.3-25.53-17.05,2.5-12.7,5.2-25.35,8.07-37.96L0,175.55l42.23,439.37,67.28-6.47-.04-.37Z"/>
          <rect class="cls-6" x="183.1" y="539.03" width="6.68" height="0" transform="translate(-50.72 20.31) rotate(-5.49)"/>
          <polygon class="cls-5" points="131.45 544.31 131.45 544.32 131.45 544.31 131.45 544.31"/>
          <polygon class="cls-5" points="131.45 544.31 183.11 539.35 183.08 538.97 131.41 543.94 131.45 544.31 131.45 544.31 131.45 544.31"/>
          <polygon class="cls-5" points="183.15 539.72 183.11 539.35 131.45 544.31 131.45 544.32 131.48 544.68 183.15 539.72"/>
          <rect class="cls-5" x="157.28" y="515.88" width="0" height="51.9" transform="translate(-404.25 596.56) rotate(-79.38)"/>
          <polygon class="cls-5" points="249.06 566.68 249.14 566.3 201.3 570.89 201.43 571.26 124.8 578.62 124.87 578.24 106.78 579.98 106.85 580.73 106.85 580.73 106.81 580.35 249.06 566.68"/>
          <polygon class="cls-5" points="201.43 571.26 201.3 570.89 124.87 578.24 124.8 578.62 201.43 571.26"/>
          <path class="cls-5" d="m109.51,608.45l255.79-24.59c-.2-.11-.41-.21-.61-.32l-255.21,24.53.04.37Z"/>
          <g>
            <g>
              <polygon class="cls-6" points="183.08 538.97 183.11 539.35 189.76 538.71 172.2 356.05 120.54 361.01 120.5 360.64 113.8 361.28 118.17 406.67 133.25 430.5 148.39 433.72 151.32 461.47 159.87 469.57 146.26 462.92 145.47 449.8 144.5 437.84 138.02 441.09 127.63 435.48 123.79 423.34 119.09 416.25 131.4 544.32 131.45 544.31 131.41 543.94 183.08 538.97"/>
              <polygon class="cls-6" points="171.21 345.73 172.13 355.3 172.13 355.3 172.17 355.67 178.82 321.36 102.18 328.73 113.8 361.28 113.8 361.28 112.85 351.34 171.21 345.73"/>
              <polygon class="cls-6" points="120.46 360.27 172.13 355.3 171.21 345.73 112.85 351.34 113.8 361.28 120.5 360.64 120.46 360.27"/>
              <polygon class="cls-6" points="189.81 538.7 189.76 538.71 189.76 538.71 183.11 539.35 183.15 539.72 131.48 544.68 131.45 544.32 124.87 578.24 201.3 570.89 189.81 538.7"/>
              <path class="cls-6" d="m80.1,302.49l2.7,28.1,129.62-12.46c.79-9.55,1.68-19.09,2.68-28.62l-135,12.98Z"/>
              <path class="cls-6" d="m109.48,608.08l255.21-24.53c-9.91-5.13-19.77-10.39-29.55-15.78,2.16-3.22,4.34-6.42,6.53-9.61l-234.82,22.57,2.63,27.35Z"/>
              <path class="cls-4" d="m109.55,608.83l-.04-.37-67.28,6.47,2.78,28.88,319.52-30.71c4.6-7.54,9.28-15.02,14.07-22.43-4.24-2.13-8.47-4.3-12.69-6.48l-256.36,24.64Z"/>
              <path class="cls-4" d="m69.82,303.48l10.29-.99h0s135-12.98,135-12.98c.31-2.98.63-5.95.97-8.93-7.25-4.16-14.43-8.39-21.57-12.64l-28.9,2.78c-7.78.75-11.04-9.67-4.22-13.49h0s23.51-13.18,23.51-13.18c1.28-8.47,2.64-16.94,4.08-25.38-2.04-1.32-4.06-2.67-6.09-4l-119.84,67.16s0,0,0,0h0c-1.37.77-2.48,1.7-3.36,2.74-6.16,7.29-.78,19.96,10.14,18.91Z"/>
              <path class="cls-6" d="m161.38,257.23c-6.82,3.82-3.56,14.24,4.22,13.49l28.9-2.78c-4.02-2.39-8.04-4.78-12.03-7.2.77-5.57,1.58-11.13,2.42-16.68l-23.51,13.18h0Z"/>
            </g>
            <path class="cls-5" d="m325.7,559.32l-76.64,7.37h0s-142.25,13.67-142.25,13.67l.04.37,234.82-22.57c.09-.14.19-.27.28-.4l-16.25,1.56h0Z"/>
            <path class="cls-5" d="m109.51,608.45l.04.37,256.36-24.64c-.2-.11-.41-.21-.61-.32l-255.79,24.59h0Z"/>
          </g>
        </g>
        <polygon class="cls-7" points="117.66 405.86 104.45 391.38 97.73 377.98 87.12 365.45 72.32 359.35 69.23 339.02 67.74 362.97 76.51 364.26 80.62 368.15 85.71 367.49 94.92 379.93 99.91 394.2 105.98 406.3 114.63 409.54 119.09 416.25 118.17 406.67 117.66 405.86"/>
        <polygon class="cls-7" points="127.63 435.48 138.02 441.09 144.5 437.84 145.47 449.8 146.26 462.92 159.87 469.57 151.32 461.47 148.39 433.72 133.25 430.5 118.17 406.67 119.09 416.25 123.79 423.34 127.63 435.48"/>
      </g>
      <path class="cls-7" d="m310.05,415.46l-3.79-10.14-9.58-7.64c.02,2.02.06,4.05.09,6.07l5.71,4.56-.28,18.26,1.84,5.6c.79.33,1.58.65,2.38.97l-.59-9.46,4.22-8.24Z"/>
      <path class="cls-7" d="m259.27,371.79s.1.05.15.07l-.14-.17s0,.07,0,.1Z"/>
      <path class="cls-7" d="m306.9,440.88l-.48-7.73c-.79-.32-1.59-.65-2.38-.97l2.86,8.7Z"/>
      <path class="cls-7" d="m237.67,306.82l3.95-.38c-.5-3.47-1-6.94-1.51-10.41-.81,3.6-1.63,7.19-2.44,10.79Z"/>
      <g>
        <path class="cls-4" d="m316.4,154.32s.02-.01.03-.02c-.01,0-.02.01-.03.02l-111.47,62.47s0,0,0,0l111.47-62.47Z"/>
        <g>
          <path class="cls-6" d="m266.75,384.48l7.5,9,13.72,1.47,13.95,13.67,2.11,1.68c-.04-2.9-.07-5.8-.08-8.7-12.51-5.59-24.91-11.3-37.18-17.12Z"/>
          <g>
            <path class="cls-7" d="m255.58,343.31l.36.28.63-5.38.31-.74c-1.38-.71-2.77-1.42-4.14-2.14l2.85,7.98Z"/>
            <path class="cls-7" d="m250.33,328.6l-3.34-9.34,1.96-.19s0,0,0,0l-3.95.38c-.8,3.52-1.59,7.04-2.39,10.56,2.86,1.51,5.71,3.03,8.58,4.53-.29-1.98-.57-3.96-.86-5.94Z"/>
            <path class="cls-7" d="m251.48,336.6c-.1-.69-.2-1.37-.3-2.06-2.87-1.5-5.72-3.02-8.58-4.53-.28,1.23-.56,2.47-.84,3.7l7.38,8.54,2.32-5.61.02-.03Z"/>
            <polygon class="cls-7" points="258.61 351.81 255.87 344.13 255.26 349.32 258.04 352.53 255.73 376.97 261.76 384.55 258.61 351.81 258.61 351.81"/>
            <g>
              <path class="cls-6" d="m258.98,323.51l1.23-5.53-11.26,1.08,1.38,9.53,2.2,6.17,6.45-11.26Z"/>
              <path class="cls-6" d="m255.94,343.59l2.04,1.58-.32-3.3,6.54-.63c-2.45-1.25-4.89-2.51-7.32-3.77l-.31.74-.63,5.38Z"/>
              <path class="cls-6" d="m257.98,345.17l5.4,4.18-.15,2.01,4.53-.43c.12-2.56.24-5.11.38-7.67-1.32-.67-2.62-1.35-3.93-2.03l-6.54.63.32,3.3Z"/>
              <path class="cls-7" d="m258.98,323.51l-6.45,11.26.2.56c1.38.72,2.76,1.42,4.14,2.14l5.41-13.11,1.03-6.67-3.12.3-1.23,5.53Z"/>
              <g>
                <path class="cls-6" d="m247.44,308.65c.5,3.47,1,6.94,1.51,10.41l11.26-1.08,2.13-9.58-3.83-3.41.24-5.66-4.77-7.47,2.46-1.88-20.79,2c-1,9.52-1.89,19.06-2.68,28.62l12.03-1.16c.81-3.6,1.63-7.19,2.44-10.79Z"/>
                <g>
                  <path class="cls-6" d="m266.6,384.3l.14.17c12.28,5.82,24.67,11.53,37.18,17.12.02,2.9.05,5.8.08,8.7l9.58,7.64,3.79,10.14-4.22,8.24.59,9.46c4.43,1.82,8.86,3.63,13.32,5.41l-9.58-99.63-49.98,4.8c-.4,9.31-.71,18.63-.9,27.96Z"/>
                  <path class="cls-6" d="m267.75,350.93c-.07,1.55-.15,3.11-.21,4.66l49.88-4.79-.44-4.61h0s-49.22,4.74-49.22,4.74Z"/>
                  <path class="cls-6" d="m263.32,317.69l-1.03,6.67-5.41,13.11c2.44,1.26,4.88,2.52,7.32,3.77l51.82-4.98.95,9.93,5.28-27.23c-.06-.05-.12-.11-.18-.16.09-.08.17-.16.26-.24l1.29-6.67-60.31,5.8Z"/>
                  <path class="cls-6" d="m267.75,350.93l49.22-4.73h0s-.95-9.94-.95-9.94l-51.82,4.98c1.31.67,2.62,1.36,3.93,2.03-.14,2.55-.26,5.11-.38,7.67Z"/>
                  <path class="cls-6" d="m259.72,292.95l5.08,15.18-1.48,9.55,66.87-6.43c9.1-8.4,18.31-16.65,27.61-24.76-2.02-1.88-4.02-3.78-6.03-5.67l-89.02,8.56-3.05,3.58Z"/>
                  <path class="cls-4" d="m236.62,283.05c-.33,2.97-.65,5.95-.97,8.93l20.79-2,16.61-12.68-10.28,12.07,89.01-8.56c-7.44-7.04-14.77-14.18-21.99-21.44l-114.74,11.03c7.14,4.25,14.32,8.48,21.57,12.64Z"/>
                  <path class="cls-4" d="m314.9,154.67l-111.47,62.47c2.03,1.33,4.05,2.68,6.09,4-1.45,8.44-2.8,16.91-4.08,25.38l112.37-62.97-.14-.02c-15.08-4.98,10.14-35.28-1.82-29.36-.29.14-.59.3-.93.49-.01,0-.02.01-.03.02Z"/>
                  <path class="cls-6" d="m318.62,197.84c-2.74,2.84-4.88,6.21-6.28,9.9-2.82,7.44-2.02,15.76,2.16,22.52,2.08,3.36,4.82,6.25,8.05,8.52,3.4,2.4,7.21,4.16,11.25,5.19,1.4.36,2.8.63,4.22.82,8.42-6.93,16.92-13.75,25.48-20.45-10.12-10.66-20-21.54-29.63-32.64,1.98-1.49,3.96-2.97,5.95-4.45h-.01c-3.86.53-7.61,1.66-11.14,3.34-3.76,1.78-7.17,4.24-10.05,7.25Z"/>
                  <path class="cls-6" d="m203.01,263.2c3.99,2.42,8.01,4.81,12.03,7.2l114.74-11.03c-1.41-1.41-2.82-2.82-4.22-4.24,3.87-3.26,7.75-6.48,11.65-9.69-1.21-.19-2.42-.44-3.61-.75-4.12-1.06-8.02-2.86-11.49-5.31-3.32-2.32-6.12-5.3-8.26-8.74-4.3-6.96-5.12-15.52-2.23-23.18,1.44-3.79,3.63-7.24,6.44-10.15,2.94-3.07,6.42-5.58,10.27-7.4,2.96-1.4,6.07-2.41,9.24-3.04l-19.78-3.34-112.37,62.97c-.84,5.56-1.65,11.12-2.42,16.68Z"/>
                </g>
                <path class="cls-7" d="m283.96,400.28l20.14,16.09c-.03-2.02-.07-4.05-.09-6.07l-2.11-1.68-13.95-13.67-13.72-1.47-7.5-9s-.1-.05-.15-.07c0-.03,0-.07,0-.1l-4.23-5.08-.7-6.98,1.56-20.88-4.61.44,3.15,32.74,9.97,12.53,12.23,3.19Z"/>
                <path class="cls-7" d="m246.99,319.26l3.34,9.34-1.38-9.53-1.96.19Z"/>
              </g>
            </g>
            <polygon class="cls-7" points="255.94 343.59 255.87 344.13 258.61 351.81 258.61 351.81 257.98 345.17 255.94 343.59"/>
            <polygon class="cls-7" points="257.98 345.17 258.61 351.81 263.23 351.37 263.38 349.35 257.98 345.17"/>
            <path class="cls-7" d="m255.58,343.31l-3.52-2.73-.58-3.99-.02.03-2.32,5.61,6.12,7.08.61-5.19-.29-.82Z"/>
          </g>
        </g>
      </g>
      <polygon class="cls-7" points="248.25 330.7 248.54 331.52 248.61 330.98 248.25 330.7"/>
      <polygon class="cls-3" points="581.54 118.12 552.42 174.86 589.55 169.01 581.54 118.12"/>
      <path class="cls-3" d="m455.46,270.36c7.76-.25,15.41,1.05,22.52,3.76,4.29,1.64,8.37,3.8,12.18,6.41l155.28-24.43c17.57-2.76,29.66-18.98,26.96-36.16l-17.63-112.02c-1.39-8.62-6.32-16.27-13.6-21.11L518.98,5.44c-6.81-4.53-15.08-6.32-23.16-5.03-8.09,1.25-15.41,5.49-20.5,11.9l-91.29,114.98c-5.44,6.83-7.78,15.63-6.46,24.26l13.18,83.79c.83.15,1.66.32,2.48.52-.48.14-.95.29-1.43.43,0,0,0,0,0,0h-.01s-.97-.56-.97-.56l4.38,27.83c2.7,17.17,19.19,28.89,36.76,26.13l11.33-1.78c5.19-8.98,21.97-17.55,12.19-17.55Zm-4.42-25.41c-2.9-1.07-5.58-2.67-7.89-4.72l1.56,9.94-5.92.93-7.05-44.82,9.3-1.46c.51,3.34,1.98,6.46,4.23,8.98,2.26,2.59,5.03,4.7,8.12,6.2,3.17,1.54,6.55,2.62,10.03,3.19,3.3.59,6.67.65,9.98.16,3.11-.53,6.13-1.48,8.98-2.82,3.12-1.41,6.03-3.21,8.68-5.37,2.56-2.07,4.66-4.65,6.17-7.58,1.49-2.9,2-6.22,1.44-9.43-.84-5.35-3.25-9.2-7.23-11.54-4.51-2.53-9.4-4.32-14.48-5.31-5.68-1.2-11.76-2.26-18.26-3.19-6.36-.89-12.59-2.56-18.54-4.99-5.89-2.41-11.14-6.14-15.36-10.91-4.37-4.87-7.27-11.82-8.69-20.84-1.02-6.18-.29-12.52,2.1-18.31,2.39-5.85,5.84-11.2,10.18-15.79,4.42-4.68,9.58-8.61,15.28-11.61,5.48-2.97,11.42-5,17.57-6.01,2.87-.43,5.76-.67,8.66-.71,3.25-.07,6.5.1,9.72.53,3.15.41,6.24,1.16,9.23,2.23,2.73.95,5.24,2.43,7.4,4.36l-1.33-8.46,5.07-.8,6.39,40.59-8.87,1.4c-.44-2.9-1.81-5.57-3.91-7.62-2.19-2.15-4.74-3.91-7.53-5.2-2.88-1.35-5.94-2.25-9.08-2.69-2.84-.44-5.72-.46-8.56-.06-2.88.5-5.69,1.34-8.37,2.51-2.97,1.23-5.74,2.91-8.2,4.97-2.35,1.96-4.32,4.32-5.83,6.99-1.46,2.6-1.98,5.63-1.47,8.57.84,5.36,3.29,9.2,7.33,11.52,4.5,2.49,9.38,4.21,14.44,5.1,5.58,1.07,11.65,1.99,18.19,2.77,6.34.72,12.56,2.3,18.49,4.67,5.84,2.38,11.08,6.03,15.32,10.7,3.32,3.59,5.8,8.37,7.43,14.33l-.96-6.12,46.51-91.89,29.55-4.65,15.18,96.48,20.67-3.25,1.02,6.48-20.66,3.25,5.13,32.62,16.03-2.52.74,4.72-57.56,9.06-.74-4.72,16.03-2.52-5.13-32.62-63.55,10-.36-2.32c.13,4.87-.62,9.74-2.26,14.37-2.23,6.23-5.67,11.96-10.12,16.87-4.56,5.02-9.94,9.24-15.9,12.47-5.87,3.26-12.26,5.48-18.89,6.55-3.12.47-6.26.71-9.41.72-3.45.04-6.89-.22-10.3-.76-3.32-.52-6.58-1.39-9.72-2.58Z"/>
      <path class="cls-3" d="m378.07,170.41s0,0,0,0c0,0-.01,0-.02,0h.01Z"/>
      <path class="cls-3" d="m378.08,170.41c.42-.26.85-.52,1.27-.77-.84,0-1.69.05-2.53.12l.16.37,1.08.29s.01,0,.02,0Z"/>
      <path class="cls-3" d="m471.01,185.27c-7.57-.83-15.3-.16-22.74,2.04,9.47-2.47-4.61,10.07-7.36,20.06l43.5-18.97c-4.34-1.57-8.84-2.63-13.4-3.13Z"/>
      <path class="cls-7" d="m527.64,197.32l.36,2.32,63.55-10,5.13,32.62-16.03,2.52.74,4.72,57.56-9.06-.74-4.72-16.03,2.52-5.13-32.62,20.66-3.25-1.02-6.48-20.67,3.25-15.18-96.48-29.55,4.65-46.51,91.89.96,6.12c.55,2,1,4.12,1.35,6.38.32,1.86.49,3.74.54,5.62Zm53.9-79.2l8.01,50.89-37.13,5.84,29.12-56.74Z"/>
      <path class="cls-7" d="m480.47,247.57c6.63-1.07,13.02-3.29,18.89-6.55,5.97-3.23,11.34-7.44,15.9-12.47,4.45-4.9,7.89-10.63,10.12-16.87,1.64-4.62,2.39-9.5,2.26-14.37l-1.89-12c-1.63-5.96-4.11-10.74-7.43-14.33-4.25-4.66-9.48-8.32-15.32-10.7-5.93-2.38-12.15-3.95-18.49-4.67-6.54-.78-12.61-1.7-18.19-2.77-5.06-.89-9.94-2.61-14.44-5.1-4.05-2.32-6.49-6.16-7.33-11.52-.52-2.94,0-5.97,1.47-8.57,1.51-2.66,3.48-5.03,5.83-6.99,2.47-2.07,5.23-3.74,8.2-4.97,2.68-1.16,5.49-2.01,8.37-2.51,2.84-.4,5.73-.38,8.56.06,3.15.43,6.21,1.34,9.08,2.69,2.79,1.29,5.34,3.05,7.53,5.2,2.1,2.04,3.47,4.72,3.91,7.62l8.87-1.4-6.39-40.59-5.07.8,1.33,8.46c-2.16-1.93-4.67-3.41-7.4-4.36-2.99-1.08-6.08-1.82-9.23-2.23-3.22-.43-6.47-.6-9.72-.53-2.9.05-5.79.29-8.66.71-6.15,1.01-12.09,3.04-17.57,6.01-5.7,3-10.86,6.93-15.28,11.61-4.34,4.59-7.79,9.94-10.18,15.79-2.39,5.79-3.12,12.13-2.1,18.31,1.42,9.02,4.32,15.97,8.69,20.84,4.22,4.76,9.47,8.49,15.36,10.91,5.95,2.43,12.18,4.1,18.54,4.99,6.5.93,12.58,1.99,18.26,3.19,5.08.98,9.97,2.77,14.48,5.31,3.98,2.34,6.38,6.18,7.23,11.54.56,3.22.05,6.53-1.44,9.43-1.51,2.93-3.61,5.51-6.17,7.58-2.65,2.16-5.57,3.97-8.68,5.37-2.85,1.34-5.87,2.29-8.98,2.82-3.32.49-6.69.43-9.98-.16-3.48-.57-6.86-1.64-10.03-3.19-3.09-1.5-5.86-3.61-8.12-6.2-2.25-2.52-3.72-5.64-4.23-8.98l-9.3,1.46,7.05,44.82,5.92-.93-1.56-9.94c2.32,2.05,4.99,3.65,7.89,4.72,3.14,1.2,6.4,2.06,9.72,2.58,3.4.55,6.85.8,10.3.76,3.15-.01,6.3-.26,9.41-.72Z"/>
    </g>
  </g>
</svg>