<?xml version="1.0" encoding="UTF-8"?>
<svg id="Layer_2" data-name="Layer 2" xmlns="http://www.w3.org/2000/svg" viewBox="0 0 722.85 567.59">
  <defs>
    <style>
      .cls-1 {
        fill: rgba(92, 92, 92, 0);
      }

      .cls-1, .cls-2, .cls-3, .cls-4, .cls-5, .cls-6, .cls-7 {
        stroke-width: 0px;
      }

      .cls-2 {
        fill: none;
      }

      .cls-3 {
        fill: #756746;
      }

      .cls-4 {
        fill: #5c5c5c;
      }

      .cls-5 {
        fill: #2c2c7c;
      }

      .cls-6 {
        fill: #d0d8d7;
      }

      .cls-7 {
        fill: #fff;
      }
    </style>
  </defs>
  <g id="Layer_8" data-name="Layer 8">
    <g>
      <rect class="cls-2" x="113.83" y="469.4" width="0" height=".37" transform="translate(-93.72 33.25) rotate(-11.81)"/>
      <path class="cls-2" d="m261.34,231.22l11.51,5.23,17.11,19.29c-1.32,8.47-2.55,16.97-3.69,25.48,1.99,1.26,4.01,2.51,6.01,3.77l1.33,9.06.84-7.7c4.06,2.54,8.11,5.08,12.2,7.6l1.27-16.83c-.81-.33-1.63-.66-2.45-.99l-.59-9.46,4.22-8.24-3.79-10.14-3.72-2.97.18.49-4.22,8.24.17,2.72.86.69-.16,10.58.2,3.19-.24-.72-.08,5.21,1.84,5.6c-2.19-.9-4.39-1.78-6.57-2.69-.33-8.58-.55-17.16-.7-25.73l1.1.88.13-8.42-18.42-14.72-12.23-3.19-9.97-12.53-6.03-7.58.81-8.56-1.5-1.8-.7-6.98.78-10.48-5.97-6.92-1.64-1.9-.55,4.72-8.39,27.92,7.48,13.55-3.99,4.27,10.96,114,8.91-118,7.69,14.05Z"/>
      <path class="cls-2" d="m4.87,227.29h0c-1.27.92-2.28,1.97-3.03,3.1.76-1.13,1.76-2.19,3.03-3.1Z"/>
      <path class="cls-2" d="m236.43,151.12c.1-.44.2-.88.3-1.31l-.74.07.44,1.24Z"/>
      <path class="cls-2" d="m188.04,238.61l3.7-1.42c-1.41-3.21-2.82-6.42-4.23-9.63.18,3.68.35,7.37.53,11.05Z"/>
      <path class="cls-2" d="m247.28,173.67v-.04s-2.83-7.93-2.83-7.93l-.2-.56-2.2-6.17c.29,1.98.57,3.96.86,5.94.1.69.2,1.37.3,2.06l.58,3.99,3.5,2.71Z"/>
      <path class="cls-2" d="m258.47,214.84l-.14-.17s0,.07,0,.1c.05.02.1.05.15.07Z"/>
      <polygon class="cls-2" points="163.86 185.67 163.89 186.04 163.93 186.42 163.93 186.42 163.89 186.04 163.86 185.67 163.86 185.67"/>
      <path class="cls-6" d="m374.17,411.27l5.05,2.78c-1.26-1.51-2.5-3.03-3.75-4.54l-1.3,1.76Z"/>
      <path class="cls-5" d="m368.54.12c-.31.02-.62.04-.94.07l1.1.29-.16-.37Z"/>
      <polygon class="cls-2" points="201.87 219.12 201.87 219.11 197.16 220.91 197.16 220.92 201.87 219.12"/>
      <path class="cls-2" d="m235.58,152.29c.08.52.15,1.04.23,1.56.1-.43.19-.86.29-1.29-.17-.09-.35-.18-.52-.27Z"/>
      <path class="cls-2" d="m166.32,232.74c.26,1.35.51,2.71.77,4.06,2.95.67,5.92,1.31,8.89,1.96-.57-3.03-1.13-6.05-1.68-9.08l-7.98,3.06Z"/>
      <path class="cls-2" d="m236.43,151.12l-.44-1.24-.74.07c.11.78.23,1.56.34,2.34.17.09.34.18.52.27.11-.48.22-.96.32-1.44Z"/>
      <polygon class="cls-6" points="247.29 173.63 247.28 173.67 247.31 173.68 247.29 173.63"/>
      <polygon class="cls-6" points="246.99 179.69 246.85 179.52 246.06 190 246.77 196.98 248.27 198.78 249.76 182.9 246.99 179.69"/>
      <polygon class="cls-6" points="247.6 174.5 247.66 173.96 247.31 173.68 247.6 174.5"/>
      <path class="cls-6" d="m293.93,256.95l.05-3.16-1.1-.88c.15,8.57.37,17.15.7,25.73,2.18.91,4.38,1.79,6.57,2.69l-1.84-5.6.08-5.21-2.62-7.98-1.84-5.6Z"/>
      <polygon class="cls-6" points="298.43 268.05 298.59 257.47 297.73 256.78 298.15 263.52 298.43 268.05"/>
      <polygon class="cls-4" points="161.26 204.45 161.26 204.45 162.84 203.85 162.83 203.85 161.26 204.45"/>
      <polygon class="cls-4" points="265.28 164.55 270.19 162.67 270.19 162.67 265.28 164.55 265.28 164.55"/>
      <polygon class="cls-1" points="162.83 203.85 161.26 204.45 161.26 204.45 162.83 203.85 162.83 203.85"/>
      <polygon class="cls-1" points="270.19 162.67 270.19 162.67 265.28 164.55 265.28 164.55 270.19 162.67"/>
      <path class="cls-5" d="m139.67,230.89c-1.93,3.56-3.12,7.47-3.49,11.5-.75,8.15,2.33,16.18,8.34,21.74,2.97,2.75,6.48,4.86,10.29,6.22,4.01,1.44,8.24,2.13,12.49,2.05,1.23-.02,2.46-.11,3.68-.24.2-.28.4-.56.59-.84-1.42.19-2.85.3-4.29.33-4.16.08-8.31-.6-12.23-2-3.72-1.32-7.13-3.38-10.04-6.06-5.84-5.4-8.83-13.21-8.1-21.12.37-3.93,1.53-7.75,3.41-11.22,1.97-3.67,4.6-6.94,7.75-9.67,2.94-2.56,6.26-4.65,9.84-6.19l-2.24.23c-2.89,1.45-5.61,3.25-8.09,5.4-3.22,2.78-5.9,6.13-7.92,9.88Z"/>
      <path class="cls-2" d="m307.92,277.13l-1.27,16.83c5.12,3.16,10.26,6.31,15.43,9.43-1.41,13.21-2.61,26.46-3.59,39.74.98-13.28,2.18-26.53,3.59-39.74-5.17-3.12-10.3-6.27-15.43-9.43l-5.9,78.19h.05s3.27,18.83,3.27,18.83l12.86-1.24c.5-.3,1-.6,1.51-.9l.65.68,14.59-1.4c-.09.14-.19.27-.28.4-2.19,3.19-4.37,6.39-6.53,9.61,1.15.64,2.31,1.25,3.47,1.88,5.33-5.36,10.7-10.68,16.13-15.92-12.4-10.26-24.61-20.77-36.62-31.53,11.23-10.46,22.67-20.68,34.28-30.66-11.62-10.75-23.03-21.74-34.22-32.96,12.01-9.97,24.19-19.68,36.54-29.15-10.8-11.2-21.38-22.61-31.72-34.25,12.74-9.43,25.64-18.6,38.69-27.5-9.9-11.53-19.56-23.27-28.97-35.2l-9.85,25.93-.35,4.62h0s-.06.75-.06.75h0s-1.67,22.13-1.67,22.13l6.27,65.27c-3.64-1.46-7.25-2.94-10.87-4.42Z"/>
      <polygon class="cls-5" points="293.74 376.25 245.53 372.61 245.38 373.35 293.69 377 293.74 376.25"/>
      <path class="cls-6" d="m247.44,362.74l-1.03,5.3,54.33,4.1,5.9-78.19c-4.09-2.52-8.14-5.06-12.2-7.6l-.84,7.7-1.33-9.06c-2-1.26-4.02-2.5-6.01-3.77,1.14-8.51,2.38-17,3.69-25.48l-17.11-19.29-11.51-5.23-7.69-14.05-8.91,118,2.65,27.57h.05Z"/>
      <polygon class="cls-6" points="245.53 372.61 293.74 376.25 293.69 377 245.38 373.35 240.86 396.66 240.79 397.05 240.79 397.05 304.06 390.97 300.8 372.15 300.75 372.15 246.41 368.04 245.53 372.61"/>
      <path class="cls-6" d="m361.69,355.88l-5.36,7.81,19.21-5.76c.92-.7,1.87-1.37,2.85-1.99,1.82-3.57,3.67-7.12,5.52-10.67-.88-1.2-1.77-2.4-2.65-3.6-7.91,2.33-14.84,7.31-19.57,14.2Z"/>
      <path class="cls-6" d="m401.74,384.67c.86-.54,1.72-1.07,2.58-1.61-.89.31-1.75.85-2.58,1.61Z"/>
      <path class="cls-6" d="m378.94,396.51c2.5-5.3,5.01-10.55,7.53-15.74-6.23-6.22-12.57-5.59-17.49,1.76l-4.61,6.9,12.51,7.6c.68-.26,1.36-.43,2.06-.52Z"/>
      <path class="cls-6" d="m349.68,401.03l-3.04,4.13,8.1,4.46c.44-.16.89-.26,1.34-.32,1.65-3.17,3.31-6.31,4.99-9.41-4.02-3.67-8.15-3.26-11.39,1.14Z"/>
      <path class="cls-6" d="m390.68,436.12l-3.04,4.13,8.1,4.46c.44-.16.89-.26,1.34-.32,1.03-1.97,2.07-3.91,3.1-5.86-1.7-1.93-3.4-3.87-5.09-5.81-1.58.45-3.08,1.57-4.42,3.4Z"/>
      <path class="cls-4" d="m708.55,252.22l-19.55-4.6h0s19.55,4.6,19.55,4.6c7.25,1.7,12.82-3.2,14.05-9.04-1.23,5.84-6.8,10.74-14.05,9.04Z"/>
      <path class="cls-1" d="m722.6,243.19c.84-4-.35-8.44-4.42-11.5h0s0,0,0,0c4.07,3.07,5.26,7.51,4.42,11.5Z"/>
      <path class="cls-4" d="m618.45,458.46l37.89,18.29h0s18.08,8.73,18.08,8.73c6.71,3.24,13.2-.34,15.67-5.77,1.69-3.72,1.49-8.31-1.81-12.19h0s-61.2-52.89-61.2-52.89l-8.62,43.84Z"/>
      <path class="cls-6" d="m383.61,415.4c1.65-3.17,3.31-6.31,4.99-9.41-4.02-3.67-8.15-3.26-11.39,1.14l-1.74,2.37c1.25,1.51,2.5,3.04,3.75,4.54l3.05,1.68c.44-.16.89-.26,1.34-.32Z"/>
      <path class="cls-6" d="m381.26,341.68c.88,1.2,1.77,2.4,2.65,3.6.82-1.57,1.62-3.15,2.44-4.72-1.73.25-3.43.63-5.09,1.12Z"/>
      <path class="cls-6" d="m400.24,386.36l-3.04,4.13,8.1,4.46c.44-.16.89-.26,1.34-.32,1.65-3.17,3.31-6.31,4.99-9.41-2.47-2.26-4.99-2.97-7.31-2.15-.86.54-1.72,1.07-2.58,1.61-.52.48-1.02,1.03-1.5,1.68Z"/>
      <path class="cls-6" d="m422.5,412.09c-6.61-1.95-13.71-1.12-19.71,2.35l-5.93,3.42,14.21,2.53c.07-.01.15-.03.22-.04-.11-.14-.23-.28-.35-.41,3.84-2.64,7.69-5.25,11.55-7.85Z"/>
      <path class="cls-6" d="m413.86,351.8c1.65-3.17,3.31-6.31,4.99-9.41-4.02-3.67-8.15-3.26-11.39,1.14l-3.04,4.13,8.1,4.46c.44-.16.89-.26,1.34-.32Z"/>
      <path class="cls-6" d="m395.11,432.72c1.69,1.94,3.39,3.88,5.09,5.81.63-1.18,1.25-2.38,1.88-3.55-2.35-2.15-4.74-2.89-6.97-2.26Z"/>
      <polygon class="cls-2" points="579.24 310.86 580.93 314.66 585.97 293.2 585.62 293.45 579.24 310.86"/>
      <polygon class="cls-6" points="479.2 405.35 481.78 406.48 492.8 410.42 495.88 414.47 491.11 417.56 491 424.27 487.29 418.58 488.83 411.49 471.9 405.42 461.62 405.52 426.82 463.23 434.86 463.58 426.82 463.23 424.39 467.26 424.44 467.27 481.46 472.5 522.19 404.94 479.2 405.35"/>
      <rect class="cls-5" x="447.57" y="418.41" width=".75" height="51.91" transform="translate(-87.13 778.73) rotate(-76.77)"/>
      <polygon class="cls-6" points="576.77 332.35 571.05 356.66 573.3 355.4 576.77 332.35"/>
      <polygon class="cls-6" points="600.01 347.82 609.55 350.06 616.89 346.69 617.1 346.07 597.54 346.55 597.69 355.51 598.26 355.25 600.01 347.82"/>
      <path class="cls-6" d="m636.96,401.62l-4.22.1-.51,3.79-4.65,2.25,39.42,9.27-2.28,9.71,17.31-30.36-21.96-5.16c-5.73,6.19-13.93,10.17-23.11,10.39Z"/>
      <polygon class="cls-6" points="620.31 354.51 631.59 349.32 622.05 347.08 620.31 354.51"/>
      <polygon class="cls-6" points="647.88 344.24 633.54 337.48 656.47 385.05 656.48 385.05 665.46 380.72 647.88 344.24"/>
      <path class="cls-6" d="m429.96,373.28l-5.32-5.54c-2.35,1.39-4.7,2.78-7.04,4.19l12.36,1.36Z"/>
      <path class="cls-6" d="m317.42,389.68l1.65-.16-.65-.68c-.5.3-1,.6-1.51.9l.51-.05h0Z"/>
      <path class="cls-6" d="m392.76,360.05c.15,1.31.3,2.61.45,3.92l2.61-2.71c-.29-.38-.58-.76-.87-1.14l-2.2-.07Z"/>
      <path class="cls-6" d="m394.95,360.12c.29.38.58.76.87,1.14l1.05-1.08-1.91-.06Z"/>
      <path class="cls-6" d="m431.04,280.97l.87-.9c-.32,0-.65.02-.97.02.03.29.07.59.1.88Z"/>
      <path class="cls-7" d="m232.95,212.45l.84,8.72,3.99-4.27-7.48-13.55,8.39-27.92.55-4.72-5.74-6.64c.25-1.09.49-2.18.74-3.27l-.69-.8-2.85,6.9,3.23,8.66-4.42,15.96-1.57,2.56-1.02,10.8,6.03,7.58Z"/>
      <polygon class="cls-7" points="223.61 225.33 214.32 234.43 215.06 237.22 224.56 227.05 223.61 225.33"/>
      <rect class="cls-7" x="186.19" y="208.24" width="4.4" height="0" transform="translate(-62.08 81.28) rotate(-20.98)"/>
      <polygon class="cls-7" points="193.84 213.69 193.67 212.23 190.7 207.82 189.33 209.63 193.84 213.69"/>
      <polygon class="cls-7" points="488.21 294.57 486.68 312.77 490.38 327.36 490.5 310.14 495.27 302.21 492.18 291.84 481.17 281.74 478.59 278.84 471.28 279.02 488.21 294.57"/>
      <polygon class="cls-7" points="587.39 287.17 587.36 285.15 584.25 286.57 574.86 310.5 578.22 322.68 576.77 332.35 580.93 314.66 579.24 310.86 585.62 293.45 585.97 293.2 587.39 287.17 587.39 287.17"/>
      <polygon class="cls-7" points="557.35 364.31 547.33 375.54 561.67 366 568.94 365.63 571.05 356.66 557.35 364.31"/>
      <polygon class="cls-7" points="585.97 293.2 591.31 289.34 593.05 288.5 587.39 287.17 585.97 293.2"/>
      <polygon class="cls-7" points="587.39 287.17 587.93 284.88 587.36 285.15 587.39 287.17 587.39 287.17"/>
      <polygon class="cls-7" points="606.56 276.32 599.21 279.7 607.32 281.6 611.98 279.35 612.49 275.56 606.77 275.7 606.56 276.32"/>
      <polygon class="cls-7" points="587.93 284.88 587.39 287.17 593.05 288.5 607.32 281.6 599.21 279.7 587.93 284.88"/>
      <rect class="cls-5" x="96.4" y="216.92" width="51.9" height=".37" transform="translate(-42.28 30.02) rotate(-11.94)"/>
      <rect class="cls-5" x="96.32" y="216.55" width="51.9" height=".38" transform="translate(-42.22 30.01) rotate(-11.95)"/>
      <path class="cls-4" d="m14.04,248.04c-10.73,2.27-17.5-9.71-12.2-17.65-5.3,7.94,1.47,19.92,12.2,17.65l10.11-2.14h0s-10.11,2.14-10.11,2.14Z"/>
      <polygon class="cls-2" points="232.12 216.66 225.41 213.89 222.85 202.37 227.94 194.07 229.22 180.43 226.45 177.23 225.47 185.58 217.08 213.5 223.61 225.33 223.72 225.23 232.12 216.66"/>
      <rect class="cls-5" x="177.12" y="175.89" width="0" height=".37" transform="translate(-10.64 11.39) rotate(-3.58)"/>
      <rect class="cls-5" x="177.09" y="175.52" width="0" height=".38" transform="translate(-15.99 17.73) rotate(-5.49)"/>
      <path class="cls-1" d="m16.86,215.72h0c-1.27.92-2.28,1.97-3.03,3.1.76-1.13,1.76-2.19,3.03-3.1Z"/>
      <polygon class="cls-5" points="241.98 372.34 241.93 373.09 245.38 373.35 245.53 372.61 241.98 372.34"/>
      <polygon class="cls-6" points="247.44 362.74 247.39 362.75 244.74 335.18 242.29 367.73 242.33 367.73 246.41 368.04 247.44 362.74"/>
      <polygon class="cls-6" points="245.38 373.35 241.93 373.09 241.98 372.34 245.53 372.61 246.41 368.04 242.33 367.73 230.99 397.61 240.86 396.66 245.38 373.35"/>
      <polygon class="cls-7" points="218.73 237.29 233.79 221.18 232.95 212.45 226.92 204.87 227.94 194.07 222.85 202.37 225.41 213.89 232.12 216.66 223.72 225.23 223.61 225.33 224.56 227.05 215.06 237.22 218.22 249.06 218.73 237.29"/>
      <rect class="cls-6" x="174.82" y="369.39" width="6.68" height="0" transform="translate(-34.53 18.74) rotate(-5.49)"/>
      <polygon class="cls-5" points="128.45 403.57 128.45 403.58 128.46 403.57 128.45 403.57"/>
      <polygon class="cls-5" points="128.46 403.57 179.23 392.83 179.16 392.46 128.38 403.2 128.45 403.57 128.46 403.57 128.46 403.57"/>
      <polygon class="cls-5" points="179.31 393.19 179.23 392.83 128.46 403.57 128.45 403.58 128.53 403.94 179.31 393.19"/>
      <rect class="cls-5" x="153.84" y="372.25" width="0" height="51.9" transform="translate(-254.47 522.73) rotate(-85.84)"/>
      <polygon class="cls-5" points="238.07 414.64 238.17 414.23 200.86 422.13 201.03 422.47 125.7 438.41 125.73 438.02 107.95 441.79 108.11 442.52 108.11 442.52 108.03 442.15 238.07 414.64"/>
      <polygon class="cls-5" points="240.79 397.05 240.86 396.66 230.99 397.61 230.84 398 240.79 397.05"/>
      <polygon class="cls-5" points="201.03 422.47 200.86 422.13 125.73 438.02 125.7 438.41 201.03 422.47"/>
      <path class="cls-5" d="m113.87,469.77l251.4-53.19c-.21-.08-.43-.17-.64-.25l-250.83,53.07.08.37Z"/>
      <polygon class="cls-6" points="179.16 392.46 179.23 392.83 185.77 391.44 147.78 211.92 97 222.66 96.92 222.3 90.34 223.69 99.78 268.29 117.45 290.27 132.86 291.78 138.89 319.02 148.29 326.11 134.02 321.03 131.76 308.08 129.46 296.3 123.38 300.26 112.43 295.85 107.25 284.22 101.77 277.71 128.41 403.58 128.45 403.57 128.38 403.2 179.16 392.46"/>
      <polygon class="cls-6" points="76.93 445.36 115.32 410.43 108.85 403.32 65.49 442.78 72.21 450.17 77.19 445.64 76.93 445.36"/>
      <polygon class="cls-6" points="185.82 391.43 185.77 391.44 185.77 391.45 179.23 392.83 179.31 393.19 128.53 403.94 128.45 403.58 125.73 438.02 200.86 422.13 185.82 391.43"/>
      <path class="cls-6" d="m330.68,413.65l-16.31.61h0s-76.94,2.88-76.94,2.88h0s.1-.38.1-.38l.44-1.7-129.85,27.48,5.69,26.88,250.83-53.07c-9.2-3.52-18.36-7.15-27.48-10.88-2.06,2.6-4.13,5.19-6.17,7.81-.1.13-.2.26-.3.39Zm-204.82,44.56l-.08-.37h0s.08.37.08.37h0Z"/>
      <path class="cls-6" d="m333.39,388.52l-13.98,1.34,4.34,4.52-12.36-1.36c1.59-.95,3.19-1.9,4.79-2.85l-12.05,1.16,2.51,14.48,16.69,1.26c2.32-2.37,4.67-4.71,7.01-7.07-1.15-.63-2.32-1.25-3.47-1.88,2.16-3.22,4.34-6.42,6.53-9.61Z"/>
      <polygon class="cls-6" points="230.07 400.04 306.64 405.82 304.13 391.34 230.7 398.4 230.07 400.04"/>
      <path class="cls-6" d="m322.98,407.43c.11-.12.23-.23.34-.35l-16.69-1.26.07.38,16.28,1.23Z"/>
      <polygon class="cls-6" points="229.93 400.4 306.7 406.2 306.64 405.82 230.07 400.04 229.93 400.4"/>
      <rect class="cls-6" x="268.32" y="364.81" width="0" height="76.99" transform="translate(-154.05 640.5) rotate(-85.68)"/>
      <rect class="cls-6" x="125.82" y="457.83" width="0" height=".37" transform="translate(-92.1 35.97) rotate(-11.95)"/>
      <path class="cls-6" d="m311.39,393.03l12.36,1.36-4.34-4.52-3.24.31c-1.6.95-3.19,1.89-4.79,2.85Z"/>
      <path class="cls-4" d="m37.12,513.89h0c-.34,1.53-.38,2.98-.19,4.33,1.35,9.45,14.38,13.86,20.86,5.01l6.1-8.34h0s80.1-109.44,80.1-109.44c-2.01-2.21-4.03-4.43-6.02-6.66-7.93,2.64-15.86,5.19-23.79,7.7l-17.15,23.43c-4.62,6.31-14.56,1.81-12.88-5.82h0s5.8-26.32,5.8-26.32c-5.48-6.59-10.89-13.23-16.24-19.93-2.35.65-4.69,1.25-7.04,1.89l-29.56,134.16s0,0,0,0Z"/>
      <path class="cls-6" d="m164.99,268.78c-5.27,5.77,1.11,14.64,8.26,11.48l26.55-11.74c-4.57-1-9.14-2.01-13.69-3.05-1.02-5.53-2-11.06-2.96-16.6l-18.16,19.91h0Z"/>
      <polygon class="cls-5" points="238.07 414.64 108.03 442.15 108.11 442.52 237.96 415.05 238.07 414.64"/>
      <path class="cls-5" d="m333.39,388.52c.09-.14.19-.27.28-.4l-14.59,1.4.33.35,13.98-1.34Z"/>
      <path class="cls-5" d="m316.17,390.18c.25-.15.5-.3.75-.44l-12.86,1.24.06.37,12.05-1.16Z"/>
      <polygon class="cls-5" points="240.79 397.05 230.84 398 230.7 398.4 304.13 391.34 304.06 390.97 240.79 397.05 240.79 397.05"/>
      <path class="cls-5" d="m319.41,389.87l-.33-.35-1.65.16h0s-.51.05-.51.05c-.25.15-.5.3-.75.44l3.24-.31Z"/>
      <path class="cls-5" d="m113.87,469.77l.08.37,251.97-53.31c-.21-.08-.43-.17-.64-.25l-251.4,53.19h0Z"/>
      <polygon class="cls-7" points="300.01 378.09 285.26 365.19 277.07 352.63 265.12 341.37 249.73 336.97 244.38 317.11 245.58 341.08 254.44 341.37 258.97 344.78 263.95 343.56 274.5 354.88 281.06 368.5 288.45 379.84 297.42 382.08 302.6 388.25 300.61 378.83 300.01 378.09"/>
      <polygon class="cls-7" points="112.43 295.85 123.38 300.26 129.46 296.3 131.76 308.08 134.02 321.03 148.29 326.11 138.89 319.02 132.86 291.78 117.45 290.27 99.78 268.29 101.77 277.71 107.25 284.22 112.43 295.85"/>
      <path class="cls-7" d="m297.73,256.78l-.17-2.72,4.22-8.24-.18-.49-5.85-4.67c.02,2.02.06,4.05.09,6.07l-1.72-1.38-.13,8.42,3.75,2.99Z"/>
      <path class="cls-7" d="m293.93,256.95l1.84,5.6c.79.33,1.58.65,2.38.97l-.42-6.74-3.75-2.99-.05,3.16Z"/>
      <polygon class="cls-7" points="298.63 271.25 298.43 268.05 298.39 270.53 298.63 271.25"/>
      <path class="cls-7" d="m295.77,262.55l2.62,7.98.04-2.47-.28-4.54c-.79-.32-1.59-.65-2.38-.97Z"/>
      <polygon class="cls-6" points="289.42 234.86 293.63 238.99 294.2 239.44 294.21 238.69 289.42 234.86"/>
      <path class="cls-6" d="m295.66,231.96c-1.82-.81-3.62-1.65-5.44-2.47l5.45,4.35c0-.63-.01-1.26-.02-1.88Z"/>
      <path class="cls-6" d="m258.47,214.84l7.5,9,13.72,1.47,8.82,8.64c-.03-1.76-.06-3.52-.08-5.28-10.05-4.54-20.05-9.14-29.94-13.84Z"/>
      <path class="cls-6" d="m295.67,233.85l-5.45-4.35c-.6-.27-1.2-.55-1.8-.82.02,1.76.05,3.52.08,5.28l.92.9,4.79,3.83v.75s1.52,1.22,1.52,1.22c-.03-2.27-.05-4.55-.06-6.82Z"/>
      <path class="cls-7" d="m247.62,169.12l.61-.06.06-.48.31-.74c-1.38-.71-2.77-1.42-4.14-2.14l2.83,7.93.34-4.51Z"/>
      <polygon class="cls-7" points="247.66 173.96 248.24 169.06 247.62 169.12 247.29 173.63 247.31 173.68 247.66 173.96"/>
      <path class="cls-7" d="m242.05,158.97l-3.34-9.34,1.96-.19s0,0,0,0l-3.95.38c-.1.44-.2.88-.3,1.31l.5,1.4.2.56,2.85,7.98.36.28-.06.54-.29-.82-3.52-2.73-.58-3.99c-.02-.17-.05-.33-.07-.5-.49,2.17-.98,4.35-1.48,6.52,2.86,1.51,5.71,3.03,8.58,4.53-.29-1.98-.57-3.96-.86-5.94Z"/>
      <path class="cls-7" d="m236.72,152.88c-.21-.11-.42-.21-.62-.32-.1.43-.19.86-.29,1.29.02.17.05.33.07.5l.84-1.47Z"/>
      <path class="cls-7" d="m236.72,152.88l.2-.35-.5-1.4c-.11.48-.22.96-.32,1.44.21.11.42.21.62.32Z"/>
      <path class="cls-7" d="m237.13,153.09l-.2-.56-.2.35c.13.07.27.14.4.21Z"/>
      <path class="cls-7" d="m235.88,154.35l.58,3.99,3.52,2.73-2.85-7.98c-.13-.07-.27-.14-.4-.21l-.84,1.47Z"/>
      <path class="cls-7" d="m239.24,170.71l1.64,1.9,2.32-5.61.02-.03c-.1-.69-.2-1.37-.3-2.06-2.87-1.5-5.72-3.02-8.58-4.53-.03.14-.06.28-.1.43l5.42,6.28-.43,3.64Z"/>
      <path class="cls-7" d="m239.24,170.71l.43-3.64-5.42-6.28c-.25,1.09-.49,2.18-.74,3.27l5.74,6.64Z"/>
      <path class="cls-7" d="m251.14,202.23s-.1-.05-.15-.07c0-.03,0-.07,0-.1l-2.74-3.28-.81,8.56,6.03,7.58-2.21-23.04c-.1,3.39-.2,6.79-.27,10.18l.14.17Z"/>
      <path class="cls-7" d="m250.34,182.18l-2.74-7.68-.61,5.19,2.77,3.21-1.5,15.88,2.74,3.28c.07-3.4.17-6.79.27-10.18l-.93-9.7h0Z"/>
      <path class="cls-7" d="m251.14,202.23l-.14-.17s0,.07,0,.1c.05.02.1.05.15.07Z"/>
      <path class="cls-6" d="m244.26,165.14l6.45-11.26,1.23-5.53-11.26,1.08,1.38,9.53,2.2,6.17Z"/>
      <path class="cls-6" d="m255.92,171.61c-1.28-.65-2.55-1.31-3.82-1.97-.04.78-.07,1.56-.11,2.34l3.93-.38Z"/>
      <path class="cls-6" d="m248.24,169.06l2.31-.22c-.65-.34-1.3-.67-1.95-1.01l-.31.74-.06.48Z"/>
      <path class="cls-6" d="m247.66,173.96l2.04,1.58-.32-3.3,2.61-.25c.04-.78.07-1.56.11-2.34-.52-.27-1.04-.53-1.55-.8l-2.31.22-.57,4.9Z"/>
      <path class="cls-6" d="m259.37,173.38l-7.47.72c-.04,1.02-.07,2.04-.12,3.05l3.31,2.57-.15,2.01,4.53-.43c.12-2.56.24-5.11.38-7.67-.16-.08-.32-.17-.48-.25Z"/>
      <path class="cls-6" d="m251.94,173.35l6.2-.6c-.74-.38-1.48-.76-2.22-1.14l-3.93.38c-.02.45-.04.91-.06,1.36Z"/>
      <path class="cls-6" d="m250.15,173.52l1.79-.17c.02-.45.04-.91.06-1.36l-2.61.25.32,3.3,2.09,1.62c.04-1.02.07-2.04.12-3.05l-1.68.16-.07-.75Z"/>
      <path class="cls-6" d="m250.15,173.52l.07.75,1.68-.16c.01-.25.02-.5.03-.76l-1.79.17Z"/>
      <path class="cls-6" d="m251.9,174.1l7.47-.72c-.41-.21-.82-.42-1.23-.63l-6.2.6c-.01.25-.02.5-.03.76Z"/>
      <path class="cls-7" d="m244.26,165.14l.2.56c1.38.72,2.76,1.42,4.14,2.14l5.41-13.11,1.03-6.67-3.12.3-1.23,5.53-6.45,11.26Z"/>
      <path class="cls-6" d="m177.08,217.37c1.41,3.21,2.82,6.42,4.23,9.63l10.57-4.05-.51-9.8-4.6-2.27-.43-1.85-14.64,5.62c.84,5.02,1.71,10.03,2.61,15.03l3.3-1.27c-.18-3.68-.35-7.37-.53-11.05Z"/>
      <polygon class="cls-6" points="191.2 207.17 190.45 207.45 190.7 207.82 191.2 207.17"/>
      <path class="cls-6" d="m187.34,238.88l.7-.27c-.18-3.68-.35-7.37-.53-11.05,1.41,3.21,2.82,6.42,4.23,9.63l10.57-4.05-.51-9.8-4.6-2.27-.04-.15-2.37.91-2.92,1.12-10.56,4.05s0,0,0,0l-3.7,1.42c.17,3.61.35,7.21.52,10.82-.71-.16-1.43-.32-2.14-.47.26,1.39.51,2.79.77,4.18l9.9-3.8-1.46-3.33,2.15,3.06Z"/>
      <polygon class="cls-6" points="197.16 220.91 195.92 215.56 193.84 213.69 194.8 221.82 197.16 220.91"/>
      <polygon class="cls-6" points="194.8 221.83 197.16 220.92 197.16 220.91 194.8 221.82 194.8 221.83"/>
      <path class="cls-6" d="m177.61,228.42l-3.3,1.27c.54,3.03,1.11,6.05,1.68,9.08.71.16,1.43.32,2.14.47-.17-3.61-.35-7.21-.52-10.82Z"/>
      <polygon class="cls-6" points="181.31 226.99 181.31 227 191.88 222.95 191.87 222.94 181.31 226.99"/>
      <path class="cls-6" d="m234.72,146.35l.52,3.6.74-.07-1.26-3.52Z"/>
      <polygon class="cls-6" points="191.87 222.94 191.88 222.95 194.8 221.83 194.8 221.82 191.87 222.94"/>
      <polygon class="cls-6" points="191.37 213.15 191.87 222.94 194.8 221.82 193.84 213.69 189.33 209.63 190.7 207.82 190.45 207.45 186.34 209.03 186.77 210.88 191.37 213.15"/>
      <path class="cls-6" d="m177.61,228.42l3.7-1.42c-1.41-3.21-2.82-6.42-4.23-9.63.18,3.68.35,7.37.53,11.05Z"/>
      <path class="cls-6" d="m288.42,228.68c0-.21,0-.42,0-.63l1.81,1.44c1.82.82,3.62,1.65,5.44,2.47,0,.63.01,1.26.02,1.88l2.31,1.84,3.61,9.65,3.72,2.97,3.79,10.14-4.22,8.24.59,9.46c.81.33,1.63.66,2.45.99l4.59-60.85-3.3-34.36-49.98,4.8c-.4,9.31-.71,18.63-.9,27.96l.14.17c9.9,4.69,19.89,9.29,29.94,13.84Z"/>
      <path class="cls-6" d="m318.79,281.55l-6.27-65.27-4.59,60.85c3.62,1.48,7.23,2.96,10.87,4.42Z"/>
      <path class="cls-6" d="m301.59,245.33l-3.61-9.65-2.31-1.84c.02,2.27.04,4.55.06,6.82l5.85,4.67Z"/>
      <path class="cls-6" d="m288.41,228.05c0,.21,0,.42,0,.63.6.27,1.2.55,1.8.82l-1.81-1.44Z"/>
      <path class="cls-6" d="m259.48,181.3c-.07,1.55-.15,3.11-.21,4.66l49.88-4.79-.44-4.61h0s-49.22,4.74-49.22,4.74Z"/>
      <path class="cls-6" d="m204.3,252.81c.72.15,1.43.3,2.15.45l1.5-.57c.07.31.14.62.21.93,1.4.29,2.8.59,4.21.88l48.61-18.64,3.57,9.31-2.18-27.65c-.07-.04-.14-.07-.22-.11.06-.1.12-.2.18-.3l-.53-6.77-56.57,21.7.79,6.7-1.71,14.08Z"/>
      <path class="cls-6" d="m252.15,168.69l-1.6.15c.52.27,1.04.53,1.55.8.01-.32.03-.64.04-.95Z"/>
      <path class="cls-6" d="m255.92,171.61c.74.38,1.48.76,2.22,1.14l43.67-4.2h0s.07.75.07.75h0s-42.51,4.09-42.51,4.09c.16.08.32.17.48.25-.14,2.55-.26,5.11-.38,7.67l49.22-4.73h0s-.95-9.94-.95-9.94l-51.82,4.98Z"/>
      <rect class="cls-6" x="301.85" y="168.55" width="0" height=".75" transform="translate(-14.78 29.66) rotate(-5.49)"/>
      <path class="cls-6" d="m301.89,169.3l-.07-.75-43.67,4.2c.41.21.82.42,1.23.63l42.51-4.09Z"/>
      <path class="cls-6" d="m251.9,206.9l.03.41c-.07-.04-.14-.07-.22-.11.06-.1.12-.2.18-.3l-.53-6.77-49.49,18.98,2.23,3.31,1.12,9.6,62.72-24.06c6.53-10.52,13.19-20.94,20-31.24-2.45-1.27-4.89-2.56-7.32-3.86l-83.5,32.02-1.98,4.26,6.72,9.96,55.65-21.35c-1.88,3.04-3.76,6.08-5.62,9.14Z"/>
      <path class="cls-6" d="m251.37,200.13l.53,6.77c1.86-3.06,3.74-6.1,5.62-9.14l-55.65,21.35h0s49.49-18.98,49.49-18.98Z"/>
      <path class="cls-6" d="m251.93,207.31l-.03-.41c-.06.1-.12.2-.18.3.07.04.14.07.22.11Z"/>
      <path class="cls-4" d="m192.41,181.59l-46.34,17.77c5.57,1.52,11.15,3.01,16.76,4.48l17.93-6.88,11.65-15.38Z"/>
      <path class="cls-4" d="m178.9,199.44l1.87-2.47-17.93,6.88c2.47.65,4.93,1.3,7.4,1.94.47,2.96.96,5.91,1.45,8.86l14.64-5.62-.85-3.67-6.59-5.92Z"/>
      <path class="cls-4" d="m186.7,194.69l78.58-30.14c-3.87-2.14-7.73-4.28-11.58-6.47l-60.83,23.33-6.17,13.28Z"/>
      <path class="cls-4" d="m184.72,198.96l5.73,8.5.75-.29,12.62-16.66-6.68,14.38,83.49-32.02c-5.14-2.72-10.25-5.5-15.34-8.31l-78.58,30.14-1.98,4.26Z"/>
      <polygon class="cls-4" points="180.77 196.97 162.83 203.85 162.84 203.85 180.76 196.97 180.77 196.97"/>
      <polygon class="cls-4" points="186.7 194.69 186.7 194.69 265.28 164.55 265.28 164.55 186.7 194.69"/>
      <polygon class="cls-4" points="180.77 196.97 180.77 196.97 162.83 203.85 162.83 203.85 180.77 196.97"/>
      <polygon class="cls-4" points="186.7 194.69 265.28 164.55 265.28 164.55 186.7 194.69 186.7 194.69"/>
      <polygon class="cls-4" points="184.72 198.96 186.7 194.69 180.76 196.97 178.9 199.44 185.49 205.36 186.34 209.03 190.45 207.45 184.72 198.96"/>
      <rect class="cls-4" x="183.73" y="192.65" width="0" height="6.36" transform="translate(-83.54 221.75) rotate(-52.36)"/>
      <polygon class="cls-4" points="192.87 181.42 192.41 181.59 180.77 196.97 186.7 194.69 192.87 181.42"/>
      <rect class="cls-4" x="180.55" y="195.83" width="6.35" height="0" transform="translate(-57.94 78.78) rotate(-20.98)"/>
      <path class="cls-4" d="m196.56,320.88c-15.87-.77.35-36.71-9.59-27.81-.24.21-.49.45-.76.72,0,0-.02.02-.02.02l-90.73,89.98c2.32.74,4.62,1.5,6.94,2.23.86,8.52,1.82,17.04,2.85,25.55l91.47-90.7h-.14Zm-99.76,62.17s0,0,0,0l90.73-89.97s.02-.02.03-.02c0,0-.02.02-.02.02l-90.73,89.98Z"/>
      <polygon class="cls-6" points="193.38 180.31 192.41 181.59 192.87 181.42 193.38 180.31"/>
      <path class="cls-7" d="m251.27,191.88l2.21,23.04,9.97,12.53,12.23,3.19,18.42,14.72.09-5.92-.57-.46-4.21-4.13-.92-.73c0-.06,0-.11,0-.17l-8.82-8.64-13.72-1.47-7.5-9s-.1-.05-.15-.07c0-.03,0-.07,0-.1l-4.23-5.08-.7-6.98,1.56-20.88-3.35.32c-.12,3.27-.23,6.55-.33,9.82Z"/>
      <path class="cls-7" d="m251.27,191.88c.1-3.27.21-6.55.33-9.82l-1.26.12.93,9.7Z"/>
      <path class="cls-7" d="m288.5,234.13l.92.73-.92-.9c0,.06,0,.11,0,.17Z"/>
      <path class="cls-7" d="m295.74,240.67l-1.54-1.22-.09,5.92,1.72,1.38c-.03-2.02-.07-4.05-.09-6.07Z"/>
      <path class="cls-7" d="m242.05,158.97l-1.38-9.53-1.96.19,3.34,9.34Z"/>
      <polygon class="cls-7" points="250.34 182.18 250.34 182.18 249.7 175.54 247.66 173.96 247.6 174.5 250.34 182.18"/>
      <path class="cls-7" d="m251.79,177.15c-.07,1.63-.12,3.27-.19,4.9l3.35-.32.15-2.01-3.31-2.57Z"/>
      <path class="cls-7" d="m250.34,182.18l1.26-.12c.06-1.63.12-3.27.19-4.9l-2.09-1.62.64,6.64Z"/>
      <path class="cls-7" d="m247.28,173.67l-3.5-2.71-.58-3.99-.02.03-2.32,5.61,5.97,6.92.44-5.86Z"/>
      <polygon class="cls-7" points="247.6 174.5 247.31 173.68 247.28 173.67 246.85 179.52 246.99 179.69 247.6 174.5"/>
      <polygon class="cls-7" points="240.33 161.34 239.98 161.07 240.27 161.89 240.33 161.34"/>
      <path class="cls-3" d="m369.79.78s0,0,0,0c0,0-.01,0-.02,0h.01Z"/>
      <path class="cls-3" d="m369.78.78s.01,0,.02,0c.42-.26.85-.52,1.27-.77-.84,0-1.69.05-2.53.12l.16.37,1.08.29Z"/>
      <path class="cls-3" d="m416.32,268.46l-1.05,1.43c3.09-1.55,6.17-3.1,9.27-4.62-2.96-1.13-5.83-.06-8.22,3.18Z"/>
      <rect class="cls-3" x="521.42" y="276.88" width=".75" height="0" transform="translate(132.81 721.43) rotate(-76.77)"/>
      <path class="cls-3" d="m400.46,267.6l-4.11-.13c.15,1.31.3,2.61.45,3.92l3.66-3.79Z"/>
      <path class="cls-3" d="m430.58,277.05c.11,1.01.23,2.02.35,3.04.32,0,.65-.01.97-.02l2.79-2.89-4.11-.13Z"/>
      <path class="cls-6" d="m351.81,378.95l3.66-3.79-4.11-.13c.15,1.31.3,2.61.45,3.92Z"/>
      <path class="cls-6" d="m388.64,325.53c.15,1.31.3,2.61.45,3.92l3.66-3.79-4.11-.13Z"/>
      <path class="cls-6" d="m414.14,317.64c-2.67-.58-5.34-1.15-8.01-1.72l6.61,7.64c.49-.27.99-.54,1.48-.82l-.09-5.1Z"/>
      <path class="cls-6" d="m414.23,322.74c-.49.27-.99.54-1.48.82l1.53,1.76-.04-2.58Z"/>
      <g>
        <path class="cls-2" d="m588.88,481.81l-44.73-10.52-.03.12,44.76,10.52c.92-.04,1.84-.08,2.76-.12l-.44-.1c-.77.03-1.54.07-2.32.1Z"/>
        <path class="cls-2" d="m411.08,420.39c.07-.01.15-.03.22-.04-.11-.14-.23-.28-.35-.41,3.84-2.64,7.69-5.25,11.55-7.85-6.61-1.95-13.71-1.12-19.71,2.35l-5.93,3.42,14.21,2.53Z"/>
        <path class="cls-2" d="m429.96,373.28l-5.32-5.54c-2.35,1.39-4.7,2.78-7.04,4.19l12.36,1.36Z"/>
        <path class="cls-2" d="m413.86,351.8c1.65-3.17,3.31-6.31,4.99-9.41-4.02-3.67-8.15-3.26-11.39,1.14l-3.04,4.13,8.1,4.46c.44-.16.89-.26,1.34-.32Z"/>
        <polygon class="cls-2" points="473.29 449.94 423.47 438.22 423.09 438.9 473.12 450.67 473.29 449.94"/>
        <path class="cls-2" d="m481.02,458.45c5.75-.74,11.36-1.46,16.8-2.15,13.49,4.49,28.33,9.51,44.51,15.17l3.02-5.3h-.05s23.64-100.55,23.64-100.55l-7.28.37-14.34,9.54,10.02-11.23,13.7-7.65,5.71-24.31,1.46-9.67-3.36-12.18,9.39-23.92,3.11-1.43-.15-8.97-65.63,1.61-40.73,173.23h.05s.12,7.44.12,7.44Z"/>
        <polygon class="cls-2" points="481.46 485.59 481.46 485.58 481.46 485.58 481.46 485.59"/>
        <path class="cls-2" d="m401.74,384.67c-10.22,6.45-20.36,13.05-30.4,19.83,1.37,1.67,2.75,3.33,4.12,5l1.74-2.37c3.24-4.4,7.37-4.81,11.39-1.14-1.67,3.1-3.33,6.24-4.99,9.41-.45.06-.9.16-1.34.32l-3.05-1.68c5.24,6.28,10.53,12.51,15.89,18.68,2.23-.63,4.62.11,6.97,2.26-.63,1.17-1.25,2.37-1.88,3.55.82.93,1.63,1.87,2.45,2.79-8.9,6.24-17.7,12.62-26.42,19.13l30.49,7.17,16.38-28.72-.49-.12.17-.73.71.17.35-.61h-.05s2.43-10.34,2.43-10.34l-4.04-.44,4.04.44,34.8-148-1.43.04c-7.19.23-14.42.44-21.69.62-2,.05-3.98.09-5.97.14l-.87.9c-.04-.29-.07-.59-.1-.88-6.3.14-12.57.28-18.81.38l-11.46.28c-1.46.04-2.9-.03-4.31-.18,8.26,12.83,16.77,25.49,25.52,37.97-2.55,1.39-5.1,2.8-7.64,4.21l.04,2.58-1.53-1.76c-10.57,5.87-21.08,11.91-31.49,18.11,0,0,0,0,0,0,1.66-.49,3.36-.87,5.09-1.12-.82,1.57-1.63,3.15-2.44,4.72,3.65,4.98,7.32,9.93,11.05,14.85l1.91.06-1.05,1.08c4.66,6.13,9.37,12.22,14.14,18.26-1.89,1.17-3.76,2.35-5.64,3.53,2.32-.81,4.84-.1,7.31,2.15-1.67,3.1-3.33,6.24-4.99,9.41-.45.06-.9.16-1.34.32l-8.1-4.46,3.04-4.13c.48-.65.98-1.21,1.5-1.68Zm22.9-16.94l5.32,5.54-12.36-1.36c2.34-1.4,4.69-2.8,7.04-4.19Zm-20.22-20.07l3.04-4.13c3.24-4.4,7.37-4.81,11.39-1.14-1.67,3.1-3.33,6.24-4.99,9.41-.45.06-.9.16-1.34.32l-8.1-4.46Zm-1.62,66.78c6-3.47,13.1-4.3,19.71-2.35-3.86,2.6-7.71,5.21-11.55,7.85.11.14.23.28.35.41-.07.01-.15.02-.22.04l-14.21-2.53,5.93-3.42Z"/>
        <path class="cls-2" d="m592.14,494.43l.4,24.62,22.22,5.22-.09.36h0s-6.46,27.48-6.46,27.48l65.79,15.47,13.43-57.14c-4.18-1.96-8.3-3.87-12.38-5.76-11.9,4.61-24.1,9.37-36.63,14.3-15.86-8.49-31.29-16.67-46.3-24.57Zm18.85,22.71c2.34-1.4,4.69-2.8,7.04-4.19l5.32,5.54-12.36-1.36Z"/>
        <path class="cls-2" d="m609.75,485.87c.83.41,1.66.98,2.49,1.74-1.67,3.1-3.33,6.24-4.99,9.41-.45.06-.9.16-1.34.32l-8.1-4.46,3.04-4.13c.85-1.15,1.76-2.02,2.71-2.63-3.75.16-7.59.32-11.54.49l.13,7.82c15.01,7.9,30.44,16.08,46.3,24.57,12.53-4.93,24.73-9.69,36.63-14.3-15.3-7.08-29.85-13.65-43.61-19.75-6.76.3-14,.61-21.7.93Z"/>
        <path class="cls-6" d="m473.29,449.94l-.17.73-50.03-11.76-16.38,28.72,2.68.63c26.05-3.8,49.94-7,71.63-9.8l-.12-7.42h-.05s-57.03-13.42-57.03-13.42l-.35.61,49.82,11.71Z"/>
        <polygon class="cls-6" points="422.76 438.06 422.59 438.79 423.09 438.9 423.47 438.22 422.76 438.06"/>
        <path class="cls-6" d="m471.01,490.12l-.43-26.39c-21.69,2.8-45.58,6-71.63,9.8l70.75,16.64v-.36s1.3.31,1.3.31Z"/>
        <polygon class="cls-6" points="545.34 470.96 596.09 479.59 632.44 367.8 587.48 360.16 587.64 359.69 632.6 367.33 633.54 364.43 633.54 364.43 587.79 356.66 586.24 357.2 581.49 359.68 577 373.48 580.48 379.15 576.17 391.32 574.2 400.83 568.09 406.21 566.34 406.28 545.3 470.96 545.34 470.96"/>
        <path class="cls-6" d="m602.38,479.59l-57.03-13.41-3.02,5.3c9.92,3.47,20.35,7.18,31.26,11.16,5.24-.25,10.34-.49,15.29-.71l-44.76-10.52.03-.12h-.03s.17-.74.17-.74l47.34,11.13c-.15,0-.29.01-.44.02l.44.1c3.69-.16,7.3-.32,10.82-.47l-.03-1.74h-.05Z"/>
        <path class="cls-6" d="m554.64,510.13l37.91,8.91-.4-24.62c-.2-.11-.41-.22-.62-.33-12.01,5.18-24.31,10.52-36.89,16.03Zm34.58-3.65c-.29-.38-.58-.76-.87-1.14l1.91.06-1.05,1.08Z"/>
        <path class="cls-6" d="m518.53,500.18l-.74,1.29,6.53,1.53c-1.94-.95-3.86-1.88-5.79-2.82Z"/>
        <path class="cls-6" d="m524.32,503.01l30.32,7.13c12.57-5.51,24.88-10.85,36.89-16.03.2.11.41.22.62.33l-.13-7.82c-3.52.15-7.13.31-10.82.47l3.18.75-.17.73-5.77-1.36c-4.95.22-10.04.46-15.29.71-10.92-3.98-21.34-7.69-31.26-11.16l-13.36,23.43c1.93.94,3.85,1.87,5.79,2.82Z"/>
        <path class="cls-5" d="m591.2,481.7l-46.9-11.03-.14.61,44.73,10.52c.78-.03,1.55-.07,2.32-.1Z"/>
        <path class="cls-5" d="m591.2,481.7c.15,0,.29-.01.44-.02l-47.34-11.13-.17.73h.03s.14-.61.14-.61l46.9,11.03Z"/>
        <path class="cls-5" d="m594.65,483.29l.17-.73-3.18-.75c-.91.04-1.83.08-2.76.12l5.77,1.36Z"/>
        <path class="cls-6" d="m413.47,496.67c13.25,5.9,26.98,12.04,41.17,18.42,13.15-6.39,26.03-12.58,38.65-18.61l-23.97-5.64v.09s0,0,0,0h0s-45.79-10.77-45.79-10.77l-26.83-6.31c-.25.04-.51.07-.76.11-5.46-1.27-10.68-2.47-15.69-3.59l14.98,3.52c-.34.05-.67.1-1.01.15-11.07-2.58-21.19-4.84-30.4-6.85-2.71,2.03-5.41,4.06-8.09,6.12,7.54,8.25,15.18,16.39,22.92,24.43l22.58,5.31c4.11-2.15,8.19-4.28,12.24-6.4Z"/>
        <path class="cls-6" d="m553.49,510.64l-26.14-6.15c6.25,3.05,12.55,6.14,18.96,9.3,2.41-1.06,4.79-2.1,7.18-3.15Z"/>
        <path class="cls-6" d="m380.23,470.38l-16.96-3.99c-.24.18-.47.36-.71.54.41.09.83.18,1.25.27.15-.12.31-.23.46-.35,5.03,1.09,10.36,2.27,15.96,3.52Z"/>
        <path class="cls-4" d="m379.59,498.75c3.3,3.42,6.61,6.83,9.94,10.21-.3.24-.59.48-.89.72,3.88-2.04,7.73-4.07,11.57-6.08l-20.62-4.85Z"/>
        <path class="cls-5" d="m397.69,473.71l-.45-.11c-.34.05-.67.1-1.01.15l.45.11c.08-.01.16-.02.24-.04.26-.04.51-.07.77-.11Z"/>
        <path class="cls-5" d="m406.51,467.96l1.87.44c.34-.05.67-.1,1.01-.15l-2.68-.63-.19.34Z"/>
        <path class="cls-5" d="m524.32,503.01l-6.53-1.53-.19.34,8.23,1.94c-.5-.25-1.01-.5-1.51-.74Z"/>
        <path class="cls-5" d="m554.07,510.39c.19-.08.38-.17.57-.25l-30.32-7.13c.5.24,1.01.49,1.51.74l28.24,6.64Z"/>
        <path class="cls-5" d="m554.07,510.39l38.48,9.05v-.39s-37.91-8.91-37.91-8.91c-.19.08-.38.17-.57.25Z"/>
        <path class="cls-5" d="m554.06,510.39l-28.2-6.63c.5.24,1,.49,1.5.73l26.14,6.15c.19-.08.38-.17.56-.25Z"/>
        <path class="cls-5" d="m406.51,467.97l1.86.44s.01,0,.02,0l-1.87-.44h0Z"/>
        <path class="cls-5" d="m554.07,510.39l-28.24-6.64s.02,0,.02.01l28.2,6.63s0,0,0,0Z"/>
        <path class="cls-5" d="m517.6,501.81h0s8.26,1.95,8.26,1.95c0,0-.02,0-.02-.01l-8.23-1.94Z"/>
        <path class="cls-6" d="m603.56,486.13c2.1-.09,4.16-.17,6.19-.26-2.14-1.06-4.26-.97-6.19.26Z"/>
        <path class="cls-6" d="m600.85,488.75l-3.04,4.13,8.1,4.46c.44-.16.89-.26,1.34-.32,1.65-3.17,3.31-6.31,4.99-9.41-.83-.76-1.66-1.33-2.49-1.74-2.03.08-4.09.17-6.19.26-.95.6-1.86,1.47-2.71,2.63Z"/>
        <path class="cls-6" d="m610.99,517.14l12.36,1.36-5.32-5.54c-2.35,1.39-4.7,2.78-7.04,4.19Z"/>
        <path class="cls-6" d="m589.22,506.49l1.05-1.08-1.91-.06c.29.38.58.76.87,1.14Z"/>
        <path class="cls-6" d="m531.89,523.25l12.36,1.36-5.32-5.54c-2.35,1.39-4.7,2.78-7.04,4.19Z"/>
        <path class="cls-6" d="m582.7,544.11l12.36,1.36-5.32-5.54c-2.35,1.39-4.7,2.78-7.04,4.19Z"/>
        <path class="cls-6" d="m492.77,478.36l12.36,1.36-5.32-5.54c-2.35,1.39-4.7,2.78-7.04,4.19Z"/>
        <path class="cls-6" d="m513.29,475.42l8.99,8.59-.86-7.64c-2.71-.33-5.42-.65-8.13-.96Z"/>
        <path class="cls-6" d="m437.68,517.14l12.36,1.36-5.32-5.54c-2.35,1.39-4.7,2.78-7.04,4.19Z"/>
        <path class="cls-6" d="m480.15,516.47l3.98,11.78,2.78-7.16c-2.25-1.54-4.5-3.09-6.76-4.62Z"/>
        <path class="cls-6" d="m452.33,522.86l3.98,11.78,2.78-7.16c-2.25-1.54-4.5-3.09-6.76-4.62Z"/>
      </g>
      <path class="cls-6" d="m545.07,528.19l-5.36,7.81,19.21-5.76c.92-.7,1.87-1.37,2.85-1.99,1.82-3.57,3.67-7.12,5.52-10.67-.88-1.2-1.77-2.4-2.65-3.6-7.91,2.33-14.84,7.31-19.57,14.2Z"/>
      <path class="cls-6" d="m524.57,528.23c2.5-5.3,5.01-10.55,7.53-15.74-6.23-6.22-12.57-5.59-17.49,1.76l-4.61,6.9,12.51,7.6c.68-.26,1.36-.43,2.06-.52Z"/>
      <path class="cls-6" d="m580.66,525.11l-3.04,4.13,8.1,4.46c.44-.16.89-.26,1.34-.32,1.65-3.17,3.31-6.31,4.99-9.41-4.02-3.67-8.15-3.26-11.39,1.14Z"/>
      <path class="cls-6" d="m579.52,539.93l3.66-3.79-4.11-.13c.15,1.31.3,2.61.45,3.92Z"/>
      <path class="cls-6" d="m568.09,523.04c.15,1.31.3,2.61.45,3.92l3.66-3.79-4.11-.13Z"/>
      <polygon class="cls-7" points="382.48 422.85 367.73 409.96 359.54 397.39 347.59 386.14 332.2 381.73 326.85 361.88 328.05 385.84 336.91 386.14 341.44 389.54 346.42 388.32 356.97 399.65 363.53 413.26 370.92 424.61 379.89 426.85 385.07 433.02 383.08 423.6 382.48 422.85"/>
      <polygon class="cls-7" points="185.08 408.65 165.81 393.59 155.2 378.84 139.59 365.68 119.34 360.7 112.57 337.26 113.79 365.64 125.49 365.85 131.41 369.81 138.01 368.29 151.77 381.54 160.22 397.58 169.8 410.91 181.6 413.42 188.35 420.65 185.86 409.52 185.08 408.65"/>
      <line class="cls-2" x1="38.17" y1="502.61" x2="379.89" y2="426.85"/>
      <line class="cls-2" x1="326.38" y1="528.75" x2="668.09" y2="452.99"/>
      <path class="cls-4" d="m365.18,440.59l-255.63,31.31-.05-.37-67.09,8.22,2.34,19.13c13.63.09,27.3.35,41.02.81,21.94-9.8,43.07-18.99,63.36-27.62,20.89,1.8,41.85,4.03,62.87,6.72,19.39-7.61,37.92-14.7,55.55-21.3,20.09,3.65,40.22,7.72,60.38,12.24,16-5.48,31.15-10.54,45.45-15.25,1.54-2.58,3.08-5.17,4.64-7.74-4.3-2.02-8.58-4.07-12.85-6.14Z"/>
      <path class="cls-4" d="m258.32,489.64l-1.63,5.77,5.83-4.25c.28-.52.57-1.01.86-1.47.55-2.63,1.11-5.25,1.67-7.87-.27-.89-.54-1.77-.8-2.66-2.4,1.72-4.5,5.4-5.94,10.48Z"/>
      <path class="cls-4" d="m211.94,493.02l-5.45,2.49,7.01,1.7c.58-.12,1.14-.22,1.68-.29,2.37-1.28,4.73-2.55,7.09-3.81.5-.78,1-1.55,1.51-2.33-2.87-.72-7.03.06-11.84,2.25Z"/>
      <path class="cls-4" d="m294.8,481.24l-5.45,2.49,7.01,1.7c.58-.12,1.14-.22,1.68-.29,2.37-1.28,4.73-2.55,7.09-3.81.5-.78,1-1.55,1.51-2.33-2.87-.72-7.03.06-11.84,2.25Z"/>
      <path class="cls-4" d="m342.46,465.92l-3.04,4.13,8.1,4.46c.44-.16.89-.26,1.34-.32,1.65-3.17,3.31-6.31,4.99-9.41-4.02-3.67-8.15-3.26-11.39,1.14Z"/>
      <path class="cls-4" d="m206.05,512.25l-1.63,5.77,5.83-4.25c.28-.52.57-1.01.86-1.47.55-2.63,1.11-5.25,1.67-7.87-.27-.89-.54-1.77-.8-2.66-2.4,1.72-4.5,5.4-5.94,10.48Z"/>
      <path class="cls-4" d="m242.53,503.84l-5.45,2.49,7.01,1.7c.58-.12,1.14-.22,1.68-.29,2.37-1.28,4.73-2.55,7.09-3.81.5-.78,1-1.55,1.51-2.33-2.87-.72-7.03.06-11.84,2.25Z"/>
      <polygon class="cls-7" points="289.76 454.69 275.45 443.55 267.57 432.63 255.98 422.89 240.94 419.22 235.92 401.86 236.82 422.87 245.51 423.03 249.91 425.96 254.81 424.83 265.02 434.64 271.29 446.5 278.41 456.37 287.17 458.23 292.18 463.58 290.34 455.34 289.76 454.69"/>
      <polygon class="cls-7" points="49.75 470.27 64.29 474.96 72.55 480.67 84.36 484.94 99.2 484.65 105.03 495.05 103 481.53 94.55 482.98 90.1 481.86 85.4 483.47 74.92 478.91 68.17 472.3 60.7 467.14 52.07 467.5 46.91 464.91 49.15 469.95 49.75 470.27"/>
      <path class="cls-4" d="m164.63,478.34l-1.63,5.77,5.83-4.25c.28-.52.57-1.01.86-1.47.55-2.63,1.11-5.25,1.67-7.87-.27-.89-.54-1.77-.8-2.66-2.4,1.72-4.5,5.4-5.94,10.48Z"/>
      <path class="cls-4" d="m201.11,469.94l-5.45,2.49,7.01,1.7c.58-.12,1.14-.22,1.68-.29,2.37-1.28,4.73-2.55,7.09-3.81.5-.78,1-1.55,1.51-2.33-2.87-.72-7.03.06-11.84,2.25Z"/>
      <path class="cls-4" d="m148.83,492.54l-5.45,2.49,7.01,1.7c.58-.12,1.14-.22,1.68-.29,2.37-1.28,4.73-2.55,7.09-3.81.5-.78,1-1.55,1.51-2.33-2.87-.72-7.03.06-11.84,2.25Z"/>
      <path class="cls-4" d="m187.49,478.34l-1.63,5.77,5.83-4.25c.28-.52.57-1.01.86-1.47.55-2.63,1.11-5.25,1.67-7.87-.27-.89-.54-1.77-.8-2.66-2.4,1.72-4.5,5.4-5.94,10.48Z"/>
      <path class="cls-4" d="m223.97,469.94l-5.45,2.49,7.01,1.7c.58-.12,1.14-.22,1.68-.29,2.37-1.28,4.73-2.55,7.09-3.81.5-.78,1-1.55,1.51-2.33-2.87-.72-7.03.06-11.84,2.25Z"/>
      <path class="cls-4" d="m171.7,492.54l-5.45,2.49,7.01,1.7c.58-.12,1.14-.22,1.68-.29,2.37-1.28,4.73-2.55,7.09-3.81.5-.78,1-1.55,1.51-2.33-2.87-.72-7.03.06-11.84,2.25Z"/>
      <path class="cls-4" d="m281.25,473.5l-3.04,4.13,8.1,4.46c.44-.16.89-.26,1.34-.32,1.65-3.17,3.31-6.31,4.99-9.41-4.02-3.67-8.15-3.26-11.39,1.14Z"/>
      <path class="cls-4" d="m181.69,507.41l-3.04,4.13,8.1,4.46c.44-.16.89-.26,1.34-.32,1.65-3.17,3.31-6.31,4.99-9.41-4.02-3.67-8.15-3.26-11.39,1.14Z"/>
      <path class="cls-4" d="m109.62,503.47l-3.04-6.3,8.1-6.8c.44.24.89.4,1.34.49,1.65,4.83,3.31,9.62,4.99,14.35-4.02,5.6-8.15,4.97-11.39-1.74Z"/>
      <path class="cls-6" d="m513.52,462.67c2.5-5.3,5.01-10.55,7.53-15.74-6.23-6.22-12.57-5.59-17.49,1.76l-4.61,6.9,12.51,7.6c.68-.26,1.36-.43,2.06-.52Z"/>
      <polygon class="cls-7" points="617.72 422.07 602.96 409.17 594.78 396.61 582.83 385.35 567.44 380.95 562.08 361.1 563.29 385.06 572.15 385.36 576.68 388.76 581.66 387.54 592.21 398.86 598.77 412.48 606.16 423.82 615.12 426.07 620.31 432.23 618.31 422.82 617.72 422.07"/>
      <polygon class="cls-7" points="656.21 456.4 653.16 459.98 654.97 462.18 648.38 462.58 641.14 462.93 637.52 467.62 641.96 464.65 657.25 463.49 658.98 458.29 672.07 452.99 666.79 453.36 662.9 455.01 656.21 456.4"/>
      <path class="cls-6" d="m417.21,506.45l-9.12-2.59,11.59,16.37c.96.65,1.89,1.34,2.79,2.06,3.96.59,7.92,1.21,11.87,1.83.86-1.22,1.71-2.44,2.57-3.66-4.74-6.75-11.67-11.73-19.7-14.01Z"/>
      <path class="cls-6" d="m466.09,517.31l-5.09-.59.14,9.25c.36.31.67.64.94,1.01,3.57-.13,7.12-.24,10.65-.33,1.2-5.31-1.2-8.7-6.63-9.33Z"/>
    </g>
  </g>
  <g id="Layer_4" data-name="Layer 4">
    <g id="Group_133" data-name="Group 133">
      <path id="Path_1" data-name="Path 1" class="cls-3" d="m377.2,62.25c8.18-.06,16.09,2.96,22.14,8.47l108.5,98.9c6.46,5.87,10.18,14.18,10.25,22.92l.51,113.4c.08,17.38-14.33,31.59-32.11,31.67l-216.11.97c-17.78.08-32.31-14-32.39-31.38l-.51-113.4c0-8.73,3.64-17.07,10.05-23.01l107.61-99.87c6-5.56,13.88-8.65,22.06-8.66Z"/>
      <path id="Path_13" data-name="Path 13" class="cls-7" d="m469.08,263.65l.15,33.02,16.23-.07.02,4.77-58.27.26-.02-4.77,16.23-.07-.15-33.02-64.33.29-.09-20.69,59.85-83.81,29.92-.13.44,97.67,20.92-.09.03,6.56-20.92.09Zm-24.91-72.09l-37.36,51.69,37.59-.17-.23-51.52Z"/>
      <path id="Path_14" data-name="Path 14" class="cls-7" d="m374.52,275.57c-3.15,5.82-7.41,10.97-12.55,15.15-5.27,4.28-11.22,7.63-17.6,9.92-6.3,2.34-12.95,3.56-19.66,3.62-3.15,0-6.3-.25-9.41-.71-3.41-.48-6.78-1.25-10.06-2.31-3.2-1.02-6.29-2.36-9.22-4.02-2.7-1.5-5.11-3.48-7.09-5.86l.04,10.06-5.99.03-.2-45.37,9.41-.04c0,3.38.98,6.68,2.82,9.51,1.85,2.9,4.26,5.4,7.09,7.35,2.9,2,6.08,3.58,9.43,4.67,3.17,1.08,6.5,1.65,9.85,1.67,3.15-.06,6.28-.54,9.3-1.43,3.29-.92,6.45-2.26,9.39-4,2.84-1.66,5.31-3.89,7.24-6.56,1.91-2.65,2.91-5.84,2.85-9.11-.02-5.42-1.82-9.58-5.4-12.49-4.08-3.18-8.64-5.69-13.51-7.43-5.43-2.04-11.29-4.01-17.57-5.91-6.16-1.84-12.06-4.44-17.57-7.73-5.46-3.27-10.09-7.76-13.54-13.1-3.59-5.47-5.4-12.78-5.44-21.91-.07-6.26,1.6-12.42,4.84-17.79,3.24-5.42,7.46-10.19,12.45-14.07,5.08-3.96,10.77-7.06,16.86-9.17,5.86-2.11,12.04-3.22,18.27-3.29,2.9.01,5.79.21,8.67.6,3.22.42,6.41,1.08,9.53,1.99,3.05.88,6,2.08,8.79,3.6,2.55,1.35,4.82,3.2,6.66,5.43l-.04-8.56,5.13-.02.18,41.09-8.98.04c0-2.93-.94-5.78-2.71-8.12-1.84-2.46-4.1-4.59-6.66-6.28-2.64-1.77-5.53-3.12-8.57-4.03-2.74-.86-5.59-1.32-8.46-1.35-2.92.06-5.83.47-8.66,1.22-3.12.77-6.11,2.01-8.86,3.68-2.62,1.58-4.93,3.62-6.82,6.02-1.84,2.35-2.81,5.27-2.74,8.25.02,5.42,1.86,9.59,5.51,12.49,4.07,3.14,8.64,5.58,13.51,7.22,5.36,1.9,11.21,3.73,17.56,5.49,6.16,1.67,12.07,4.17,17.57,7.41,5.41,3.24,10.04,7.64,13.53,12.89,3.66,5.41,5.51,12.67,5.55,21.8.12,6.79-1.51,13.51-4.72,19.49Z"/>
    </g>
  </g>
</svg>