<?xml version="1.0" encoding="UTF-8"?>
<svg id="Layer_2" data-name="Layer 2" xmlns="http://www.w3.org/2000/svg" viewBox="0 0 758.82 678.13">
  <defs>
    <style>
      .cls-1 {
        fill: none;
      }

      .cls-1, .cls-2, .cls-3, .cls-4, .cls-5, .cls-6, .cls-7 {
        stroke-width: 0px;
      }

      .cls-3 {
        fill: #756746;
      }

      .cls-4 {
        fill: #5c5c5c;
      }

      .cls-5 {
        fill: #2c2c7c;
      }

      .cls-6 {
        fill: #d0d8d7;
      }

      .cls-7 {
        fill: #fff;
      }
    </style>
  </defs>
  <g id="Layer_2-2" data-name="Layer 2">
    <polygon class="cls-1" points="518.09 586.32 518.09 586.33 518.09 586.32 471.69 578.6 518.09 586.32"/>
    <path class="cls-5" d="m375.88,161.34l1.1.29-.16-.37c-.31.02-.62.04-.94.07h0Z"/>
    <path class="cls-1" d="m196.1,196.03l111.47-62.47s.02,0,.03-.02c.33-.19.64-.34.93-.49,6.84-3.67,14.27-5.9,21.85-6.63,7.93-.76,16.02.11,23.75,2.66l3.17,1.05c-1.57-1.94-3.15-3.89-4.7-5.84l-173.95,16.72c-2.87,12.61-5.57,25.27-8.07,37.96,8.41,5.76,16.94,11.43,25.53,17.05h-.01Z"/>
    <path class="cls-1" d="m255.99,296.59l60.31-5.8-1.29,6.67c2.61-2.45,5.23-4.88,7.86-7.31l-66.87,6.43h0Z"/>
    <path class="cls-1" d="m243.86,313.44c.1.69.2,1.37.3,2.06l.84-1.47c-.38-.2-.76-.39-1.14-.59Z"/>
    <path class="cls-1" d="m225.64,299.49c-.11,1.37-.23,2.74-.34,4.11,3.31,1.78,6.65,3.53,9.98,5.29.8-3.52,1.59-7.04,2.39-10.56l-12.03,1.16Z"/>
    <polygon class="cls-1" points="252.88 296.88 241.62 297.96 241.62 297.97 252.88 296.89 252.88 296.88"/>
    <path class="cls-1" d="m245.2,313.67l-2.2-6.17c.29,1.98.57,3.96.86,5.94.38.2.76.39,1.14.59l.2-.35h0Z"/>
    <path class="cls-6" d="m259.42,363.38l7.5,9,13.72,1.47,13.95,13.67,2.11,1.68c-.04-2.9-.07-5.8-.08-8.7-12.51-5.59-24.91-11.3-37.18-17.12h-.02Z"/>
    <path class="cls-6" d="m258.49,335.41l-.07-.75,1.79-.17c.07-1.55.14-3.11.21-4.66l-4.53.43-1.56,20.88.7,6.98,4.23,5.08c.19-9.33.5-18.65.9-27.96l-1.68.16h.01Z"/>
    <path class="cls-6" d="m306.87,418.62l-5.71-4.56c.15,8.57.37,17.15.7,25.73,2.18.91,4.38,1.79,6.57,2.69l-1.84-5.6.28-18.26h0Z"/>
    <path class="cls-6" d="m251.65,302.41l1.23-5.53-11.26,1.08,1.38,9.53,2.2,6.17,6.45-11.26h0Z"/>
    <path class="cls-6" d="m248.61,322.49l2.04,1.58-.32-3.3,6.54-.63c-2.45-1.25-4.89-2.51-7.32-3.77l-.31.74-.63,5.38h0Z"/>
    <path class="cls-6" d="m314.93,297.86l.08-.4c-.09.08-.17.16-.26.24.06.05.12.11.18.16h0Z"/>
    <path class="cls-6" d="m250.65,324.07l5.4,4.18-.15,2.01,4.53-.43c.12-2.56.24-5.11.38-7.67-1.32-.67-2.62-1.35-3.93-2.03l-6.54.63.32,3.3h-.01Z"/>
    <path class="cls-5" d="m258.49,335.41l1.68-.16c.01-.25.02-.5.03-.76l-1.79.17.07.75h.01Z"/>
    <path class="cls-5" d="m260.18,335.25l49.98-4.8-.07-.75-49.88,4.79c-.01.25-.02.5-.03.76h0Z"/>
    <path class="cls-6" d="m240.11,287.55c.5,3.47,1,6.94,1.51,10.41l11.26-1.08,2.13-9.58-3.83-3.41.24-5.66-4.77-7.47,2.46-1.88-20.79,2c-1,9.52-1.89,19.06-2.68,28.62l12.03-1.16c.81-3.6,1.63-7.19,2.44-10.79h0Z"/>
    <path class="cls-4" d="m307.57,133.57s.02,0,.03-.02c-.01,0-.02,0-.03.02l-111.47,62.47h0l111.47-62.47Z"/>
    <polygon class="cls-4" points="228.32 270.88 228.32 270.88 249.11 268.88 249.11 268.88 228.32 270.88"/>
    <polygon class="cls-4" points="255.44 268.27 344.45 259.72 344.45 259.72 255.44 268.27 255.44 268.27"/>
    <path class="cls-2" d="m76.25,263.19h0c-1.37.77-2.48,1.7-3.36,2.74.88-1.04,1.99-1.97,3.36-2.74Z"/>
    <polygon class="cls-2" points="249.11 268.88 249.11 268.88 228.32 270.88 228.32 270.88 249.11 268.88"/>
    <polygon class="cls-2" points="255.44 268.27 344.45 259.72 344.45 259.71 255.44 268.27 255.44 268.27"/>
    <g>
      <path class="cls-6" d="m259.27,363.2l.14.17c12.28,5.82,24.67,11.53,37.18,17.12.02,2.9.05,5.8.08,8.7l9.58,7.64,3.79,10.14-4.22,8.24.59,9.46c4.43,1.82,8.86,3.63,13.32,5.41l-9.58-99.63-49.98,4.8c-.4,9.31-.71,18.63-.9,27.96h0Z"/>
      <path class="cls-6" d="m260.42,329.83c-.07,1.55-.15,3.11-.21,4.66l49.88-4.79-.44-4.61h0l-49.22,4.74h-.01Z"/>
      <path class="cls-6" d="m255.99,296.59l-1.03,6.67-5.41,13.11c2.44,1.26,4.88,2.52,7.32,3.77l51.82-4.98.95,9.93,5.28-27.23c-.06-.05-.12-.11-.18-.16.09-.08.17-.16.26-.24l1.29-6.67-60.31,5.8h0Z"/>
      <path class="cls-6" d="m260.42,329.83l49.22-4.73h0l-.95-9.94-51.82,4.98c1.31.67,2.62,1.36,3.93,2.03-.14,2.55-.26,5.11-.38,7.67h0Z"/>
      <path class="cls-6" d="m252.39,271.85l5.08,15.18-1.48,9.55,66.87-6.43c9.1-8.4,18.31-16.65,27.61-24.76-2.02-1.88-4.02-3.78-6.03-5.67l-89.02,8.56-3.05,3.58h.02,0Z"/>
      <path class="cls-4" d="m229.29,261.95c-.33,2.97-.65,5.95-.97,8.93l20.79-2,16.61-12.68-10.28,12.07,89.01-8.56c-7.44-7.04-14.77-14.18-21.99-21.44l-114.74,11.03c7.14,4.25,14.32,8.48,21.57,12.64h0Z"/>
      <path class="cls-4" d="m307.57,133.57l-111.47,62.47c2.03,1.33,4.05,2.68,6.09,4-1.45,8.44-2.8,16.91-4.08,25.38l112.37-62.97-.14-.02c-15.08-4.98,10.14-35.28-1.82-29.36-.29.14-.59.3-.93.49-.01,0-.02,0-.03.02h.01Z"/>
      <path class="cls-6" d="m311.29,176.74c-2.74,2.84-4.88,6.21-6.28,9.9-2.82,7.44-2.02,15.76,2.16,22.52,2.08,3.36,4.82,6.25,8.05,8.52,3.4,2.4,7.21,4.16,11.25,5.19,1.4.36,2.8.63,4.22.82,8.42-6.93,16.92-13.75,25.48-20.45-10.12-10.66-20-21.54-29.63-32.64,1.98-1.49,3.96-2.97,5.95-4.45h-.01c-3.86.53-7.61,1.66-11.14,3.34-3.76,1.78-7.17,4.24-10.05,7.25h0Z"/>
      <path class="cls-6" d="m195.68,242.1c3.99,2.42,8.01,4.81,12.03,7.2l114.74-11.03c-1.41-1.41-2.82-2.82-4.22-4.24,3.87-3.26,7.75-6.48,11.65-9.69-1.21-.19-2.42-.44-3.61-.75-4.12-1.06-8.02-2.86-11.49-5.31-3.32-2.32-6.12-5.3-8.26-8.74-4.3-6.96-5.12-15.52-2.23-23.18,1.44-3.79,3.63-7.24,6.44-10.15,2.94-3.07,6.42-5.58,10.27-7.4,2.96-1.4,6.07-2.41,9.24-3.04l-19.78-3.34-112.37,62.97c-.84,5.56-1.65,11.12-2.42,16.68v.02h.01Z"/>
    </g>
    <path class="cls-5" d="m310.74,176.23c-2.81,2.91-5,6.37-6.44,10.15-2.9,7.65-2.07,16.22,2.23,23.18,2.13,3.44,4.94,6.41,8.26,8.74,3.48,2.45,7.37,4.25,11.49,5.31,1.19.31,2.4.56,3.61.75.27-.22.53-.44.8-.65-1.41-.2-2.82-.47-4.22-.82-4.03-1.03-7.85-2.79-11.25-5.19-3.23-2.27-5.97-5.16-8.05-8.52-4.18-6.76-4.98-15.08-2.16-22.52,1.4-3.69,3.54-7.06,6.28-9.9,2.88-3.01,6.29-5.46,10.05-7.25,3.52-1.68,7.28-2.81,11.14-3.34l-2.22-.37c-3.17.63-6.28,1.64-9.24,3.04-3.85,1.82-7.33,4.33-10.27,7.4h-.01Z"/>
    <g>
      <path class="cls-1" d="m322.52,354.54h0l-.06.75h0l-7.54,99.81c5.12,3.16,10.26,6.31,15.43,9.43-1.41,13.21-2.61,26.46-3.59,39.74.98-13.28,2.18-26.53,3.59-39.74-5.17-3.12-10.3-6.27-15.43-9.43l-5.9,78.19h.05l5.84,33.68,16.69,1.26c7.61-7.78,15.32-15.45,23.14-22.99-12.4-10.26-24.61-20.77-36.62-31.53,11.23-10.46,22.67-20.68,34.28-30.66-11.62-10.75-23.03-21.74-34.22-32.96,12.01-9.97,24.19-19.68,36.54-29.15-10.8-11.2-21.38-22.61-31.72-34.25,12.74-9.43,25.64-18.6,38.69-27.5-9.9-11.53-19.56-23.27-28.97-35.2l-9.85,25.93-.35,4.62h0Z"/>
      <rect class="cls-5" x="275.73" y="509.85" width=".75" height="51.9" transform="translate(-278.97 770.75) rotate(-85.68)"/>
      <g>
        <path class="cls-6" d="m314.93,455.1c-4.09-2.52-8.14-5.06-12.2-7.6l-.84,7.7-1.33-9.06c-2-1.26-4.02-2.5-6.01-3.77,1.14-8.51,2.38-17,3.69-25.48l-17.11-19.29-11.51-5.23-7.69-14.05-11.37,150.56h.05l58.41,4.41,5.9-78.19h.01Z"/>
        <path class="cls-6" d="m309.07,533.29h-.05l-58.41-4.41-12.26,32.31,76.57,5.78-5.84-33.67h-.01Zm-58.87.94l.06-.75,51.76,3.91-.06.75-51.76-3.91h0Z"/>
        <path class="cls-5" d="m314.98,567.35l16.28,1.23c.11-.12.23-.23.34-.35l-16.69-1.26.07.38Z"/>
      </g>
      <polygon class="cls-5" points="314.98 567.35 314.91 566.97 238.34 561.19 238.21 561.55 314.98 567.35"/>
    </g>
    <path class="cls-6" d="m435.06,342.45c4.63-3.45,9.28-6.88,13.95-10.27-9.6-3.14-20.08-2.11-28.89,2.82l-8.27,4.63,19.78,3.34c1.14-.22,2.28-.4,3.43-.52h0Z"/>
    <path class="cls-6" d="m391.15,424.19l-3.04,4.13,8.1,4.46c.44-.16.89-.26,1.34-.32,1.65-3.17,3.31-6.31,4.99-9.41-4.02-3.67-8.15-3.26-11.39,1.14h0Z"/>
    <path class="cls-6" d="m371.82,419.1c2.5-5.3,5.01-10.55,7.53-15.74-6.23-6.22-12.57-5.59-17.49,1.76l-4.61,6.9,12.51,7.6c.68-.26,1.36-.43,2.06-.52h0Z"/>
    <path class="cls-6" d="m420.96,461.28c-6.61-1.95-13.71-1.12-19.71,2.35l-5.93,3.42,14.21,2.53c.07-.01.15-.03.22-.04-.11-.14-.23-.28-.35-.41,3.84-2.64,7.69-5.25,11.55-7.85h.01Z"/>
    <path class="cls-6" d="m391.15,357.13l-3.04,4.13,8.1,4.46c.44-.16.89-.26,1.34-.32,1.65-3.17,3.31-6.31,4.99-9.41-4.02-3.67-8.15-3.26-11.39,1.14h0Z"/>
    <path class="cls-6" d="m350.15,484.14l-3.04,4.13,8.1,4.46c.44-.16.89-.26,1.34-.32,1.65-3.17,3.31-6.31,4.99-9.41-4.02-3.67-8.15-3.26-11.39,1.14h0Z"/>
    <path class="cls-6" d="m391.15,519.24l-3.04,4.13,8.1,4.46c.44-.16.89-.26,1.34-.32,1.65-3.17,3.31-6.31,4.99-9.41-4.02-3.67-8.15-3.26-11.39,1.14h0Z"/>
    <path class="cls-4" d="m496.61,185.9l-2.89-1.67c-2.99-1.73-6.11-3.15-9.31-4.31l-43.5,18.97c-1,3.63-.51,6.93,3.16,9.05l.13.05,9.04-2.85c9.64-3.04,20.1-1.9,28.86,3.12,7.08-3.19,14.18-6.32,21.3-9.38-2.3-4.31-4.55-8.64-6.79-12.98h0Z"/>
    <path class="cls-4" d="m716.18,338.53l-19.96-2.19h0l19.96,2.19c7.4.81,12.33-4.73,12.85-10.67-.51,5.95-5.44,11.49-12.85,10.67Z"/>
    <polygon class="cls-4" points="725.62 350.5 488.19 315.42 488.19 315.42 725.62 350.5 725.62 350.5"/>
    <path class="cls-2" d="m729.03,327.86c.35-4.07-1.37-8.33-5.78-10.88h0c4.41,2.55,6.13,6.81,5.78,10.88Z"/>
    <polygon class="cls-2" points="725.62 350.5 488.19 315.42 488.19 315.42 725.62 350.5 725.62 350.5"/>
    <path class="cls-6" d="m479.46,219.96c-4.01-1.98-8.34-3.24-12.78-3.71-.56-.06-1.12-.11-1.68-.15h0l21.36,8.34c-2.1-1.76-4.41-3.27-6.89-4.48h0Z"/>
    <path class="cls-6" d="m505.52,279.17c4.08-.83,7.97-2.39,11.5-4.61,3.34-2.1,6.23-4.85,8.48-8.1,4.52-6.55,5.74-14.82,3.31-22.38-1.21-3.76-3.17-7.23-5.77-10.2-.92-1.07-1.91-2.06-2.96-3.01l-21.03-9.13c-2.28.97-4.56,1.92-6.84,2.9,6.69,13.09,13.66,26.03,20.93,38.8-9.92,4.44-19.81,9.03-29.64,13.73,6.97,2.79,14.63,3.52,22.04,2.02h0Z"/>
    <path class="cls-4" d="m725.62,350.5l19.86,2.93c7.36,1.09,12.5-4.27,13.24-10.18.5-4.05-1.06-8.38-5.37-11.09h0l-161.24-70.02,64.29,40.45c6.61,4.16,2.82,14.41-4.9,13.26l-179.51-26.52c5.28,8.77,10.68,17.47,16.2,26.09l237.44,35.08h-.01Z"/>
    <polygon class="cls-6" points="535.42 370.76 534.33 380.69 547.84 348.45 471.31 340.05 476.05 374.29 477.14 364.36 535.42 370.76"/>
    <rect class="cls-6" x="500.76" y="343.24" width="9.99" height="58.63" transform="translate(80.2 834.6) rotate(-83.73)"/>
    <path class="cls-6" d="m515.26,551.88h-.05s-57.78-9.63-57.78-9.63l-15.1,31.08,75.75,12.61-2.8-34.06h0Zm-7.51,4.19l-51.2-8.53.12-.74,51.2,8.53-.12.74Z"/>
    <rect class="cls-5" x="481.84" y="525.51" width=".75" height="51.91" transform="translate(-140.97 936.56) rotate(-80.55)"/>
    <path class="cls-6" d="m565.47,593.84l75.75,12.61-2.8-34.06h-.05s-57.78-9.63-57.78-9.63l-15.1,31.08h0s0,0,0,0Zm65.42-17.26l-51.2-8.53.12-.74,51.2,8.53-.12.74Z"/>
    <path class="cls-6" d="m481.48,342.96l169.01,24.97,1.54-6.02c7.93-3.23,15.86-6.45,23.79-9.68-5.97,5.6-11.95,11.19-17.93,16.79l63.6,9.4,4.12-27.93-237.44-35.08c1.49,2.32,2.98,4.64,4.48,6.95-7.46,3.82-14.88,7.73-22.27,11.71.03.21.06.43.11.64l10.97,8.23h.02s0,0,0,0Z"/>
    <path class="cls-6" d="m437.64,396.67c-2.35,1.39-4.7,2.78-7.04,4.19l12.36,1.36-5.32-5.54h0Z"/>
    <path class="cls-6" d="m659.02,638.41h0l4.63-27.85h0l-.06.37-252.92-42.1c-2.94,2.52-5.87,5.05-8.79,7.6,8.06,7.74,16.23,15.36,24.49,22.87l232.72,38.74-.06.37h0s0,0,0,0Z"/>
    <path class="cls-4" d="m659.02,638.41l-.06.37-231.58-38.55c3.52,3.19,7.05,6.37,10.59,9.53-6.53,5.93-12.98,11.95-19.37,18.04l302.33,50.33,4.77-28.62-66.67-11.1h0s0,0,0,0Z"/>
    <path class="cls-4" d="m592.11,262.14l161.24,70.01-221.58-139.44c2.07,4.42,4.16,8.83,6.3,13.22-7.23,2.79-14.44,5.66-21.64,8.58.04.02.07.04.11.06l75.57,47.55h0Z"/>
    <path class="cls-6" d="m522.04,231.71l70.06,30.42-75.57-47.55s-.07-.04-.11-.06c-5.34,2.17-10.68,4.38-16.01,6.62,4.62.63,9.13,2.08,13.3,4.32,3.08,1.66,5.88,3.77,8.32,6.25h0Z"/>
    <path class="cls-6" d="m656.39,302.58l-64.29-40.45-70.06-30.42c.53.54,1.05,1.09,1.55,1.67,2.66,3.05,4.68,6.62,5.91,10.47,2.5,7.79,1.24,16.3-3.4,23.03-2.31,3.33-5.26,6.16-8.69,8.31-3.6,2.28-7.58,3.87-11.74,4.72-4.47.91-9.06,1.04-13.56.35-3.29-.47-6.5-1.38-9.56-2.68-4.55,2.18-9.1,4.37-13.64,6.61,1.02,1.71,2.05,3.42,3.08,5.13l179.51,26.52c7.72,1.14,11.52-9.1,4.9-13.26h-.01s0,0,0,0Z"/>
    <path class="cls-5" d="m479.46,219.96c2.47,1.21,4.78,2.72,6.89,4.48l2,.78c-2.54-2.39-5.42-4.4-8.55-5.94-4.25-2.08-8.81-3.36-13.45-3.82-.45.21-.9.42-1.35.63.56.04,1.12.09,1.68.15,4.45.47,8.77,1.73,12.78,3.71h0Z"/>
    <path class="cls-5" d="m505.67,279.91c4.17-.84,8.15-2.45,11.74-4.72,3.43-2.15,6.39-4.98,8.69-8.31,4.65-6.73,5.9-15.24,3.4-23.03-1.25-3.85-3.26-7.42-5.91-10.47-.5-.58-1.02-1.13-1.55-1.67l-1.97-.85c1.05.94,2.04,1.94,2.96,3.01,2.59,2.98,4.55,6.44,5.77,10.2,2.43,7.57,1.21,15.84-3.31,22.38-2.25,3.25-5.13,6-8.48,8.1-3.52,2.23-7.42,3.79-11.5,4.61-7.42,1.5-15.08.78-22.04-2.02-.31.15-.62.3-.93.45,3.05,1.29,6.26,2.2,9.56,2.68,4.51.68,9.11.56,13.56-.35h0Z"/>
    <polygon class="cls-5" points="518.06 585.94 518.09 586.32 565.3 594.19 565.47 593.84 518.06 585.94"/>
    <polygon class="cls-5" points="663.66 610.55 663.72 610.19 641.21 606.44 641.24 606.82 663.66 610.55"/>
    <polygon class="cls-5" points="518.09 586.32 518.06 585.94 442.31 573.34 442.14 573.69 471.69 578.6 518.09 586.32"/>
    <polygon class="cls-5" points="565.3 594.19 641.24 606.82 641.21 606.44 565.47 593.84 565.3 594.19"/>
    <path class="cls-5" d="m663.66,610.55l-22.42-3.73h0l-75.96-12.64h0l-47.2-7.86h0l-106.74-17.77h0l18.79,3.12-19.1-3.18c-.13.1-.25.22-.38.32l252.92,42.1.06-.37h.02s0,0,0,0Z"/>
    <polygon class="cls-5" points="471.69 578.6 442.14 573.69 442.14 573.69 518.09 586.33 518.09 586.32 471.69 578.6"/>
    <polygon class="cls-5" points="471.69 578.6 442.14 573.69 442.14 573.69 471.69 578.6"/>
    <polygon class="cls-5" points="411.36 568.57 518.09 586.33 442.14 573.69 442.14 573.69 430.15 571.69 411.36 568.56 411.36 568.57"/>
    <path class="cls-5" d="m659.09,638.03l-232.72-38.74c.17.15.34.31.5.47l232.14,38.64.06-.37h0Z"/>
    <path class="cls-5" d="m659.02,638.41l-232.14-38.64c.17.15.33.31.5.47l231.58,38.55.06-.37h0Z"/>
    <polygon class="cls-7" points="238.97 328.04 242.2 336.7 237.78 352.66 231.12 363.52 233.69 375.04 240.39 377.81 231.99 386.37 222.59 395.57 226.49 410.21 227.01 398.44 246.05 378.05 238.56 364.5 246.96 336.57 247.94 328.22 241.82 321.14 238.97 328.04"/>
    <path class="cls-7" d="m245.4,314.23l-.2-.56-.2.35c.13.07.27.14.4.21Z"/>
    <path class="cls-7" d="m245,314.02l-.84,1.47.58,3.99,3.52,2.73-2.85-7.98c-.13-.07-.27-.14-.4-.21h-.01Z"/>
    <polygon class="cls-7" points="252.88 296.89 255.99 296.59 255.99 296.58 252.88 296.88 252.88 296.89"/>
    <path class="cls-7" d="m251.65,302.41l-6.45,11.26.2.56c1.38.72,2.76,1.42,4.14,2.14l5.41-13.11,1.03-6.67-3.12.3-1.23,5.53h.02,0Z"/>
    <path class="cls-7" d="m248.25,322.21l.36.28.63-5.38.31-.74c-1.38-.71-2.77-1.42-4.14-2.14l2.85,7.98h-.01Z"/>
    <polygon class="cls-7" points="246.65 270.76 251.42 278.23 251.18 283.89 255.01 287.3 252.88 296.88 255.99 296.58 257.47 287.03 252.39 271.85 255.44 268.27 249.11 268.88 246.65 270.76"/>
    <polygon class="cls-7" points="249.12 268.88 255.45 268.27 255.45 268.27 249.12 268.88"/>
    <polygon class="cls-7" points="265.72 256.2 249.11 268.88 255.44 268.27 265.72 256.2"/>
    <path class="cls-7" d="m434.39,298.44c-1.45,8.44-2.89,16.88-4.34,25.31l7.29,7.59c1.07-.63,2.15-1.26,3.22-1.89-2.06-10.34-4.12-20.67-6.17-31.01h0Z"/>
    <path class="cls-7" d="m451.97,337.91l-11.27-7.82c-.04-.21-.08-.43-.13-.64-1.07.63-2.15,1.26-3.22,1.89l5.32,5.54,9.3,1.02h0Z"/>
    <polygon class="cls-7" points="621.79 356.57 629.22 357.38 629.22 357.38 621.79 356.56 621.79 356.57"/>
    <path class="cls-7" d="m617.86,374.82l-6.88,4.24,8.28.91,4.35-2.8.18-14.31c1.81-1.82,3.62-3.65,5.42-5.47l-7.43-.82-3.93,18.25h.01Z"/>
    <path class="cls-7" d="m623.1,350.49l-1.31,6.07,7.43.82c5.76-5.82,11.52-11.63,17.29-17.45-7.8,3.52-15.61,7.04-23.41,10.56Z"/>
    <g>
      <rect class="cls-5" x="120.41" y="349.66" width="51.9" height=".37" transform="translate(-32.8 15.61) rotate(-5.49)"/>
      <rect class="cls-5" x="120.37" y="349.31" width="51.9" height=".38" transform="translate(-32.77 15.6) rotate(-5.49)"/>
      <path class="cls-4" d="m69.82,294.99c-10.92,1.05-16.29-11.62-10.14-18.91-6.16,7.29-.78,19.96,10.14,18.91l10.29-.99h0l-10.29.99Z"/>
      <polygon class="cls-4" points="182.88 206.18 182.88 206.18 63.04 273.34 63.04 273.34 63.04 273.34 182.88 206.18"/>
      <polygon class="cls-4" points="215.11 281.03 80.1 294 80.1 294 215.11 281.03 215.11 281.03"/>
      <polygon class="cls-2" points="80.1 294 215.11 281.03 215.11 281.03 80.1 294 80.1 294"/>
      <g>
        <path class="cls-1" d="m109.48,599.59h0l-2.63-27.35h0l-.07-.75,18.09-1.74,6.58-33.92h-.05l-12.31-128.07-4.46-6.71-8.65-3.23-6.07-12.1-4.99-14.27-9.21-12.44-5.09.65-4.12-3.89-8.77-1.29,1.5-23.95,3.09,20.33,14.8,6.1,10.61,12.53,6.72,13.4,13.21,14.48.51.81-4.36-45.38h0l-11.62-32.55,76.64-7.37-6.65,34.31.04.37h0l17.56,182.66h.05l11.49,32.19,47.83-4.6,6.58-33.92h-.05l-14.45-150.29-6.03-7.58,2.3-24.44-2.77-3.21-.98,8.35-8.39,27.92,7.48,13.55-19.04,20.39-.52,11.77-3.9-14.64,9.4-9.2,8.4-8.56-6.7-2.77-2.57-11.52,6.65-10.85,4.42-15.96-3.23-8.66,2.85-6.9-7.38-8.54c.28-1.23.56-2.47.84-3.7-3.33-1.76-6.67-3.51-9.98-5.29.11-1.37.23-2.74.34-4.11l-129.62,12.46-2.7-28.1-10.29.99c-10.92,1.05-16.29-11.62-10.14-18.91.88-1.04,1.99-1.97,3.36-2.74h0l119.84-67.16c-8.59-5.63-17.12-11.3-25.53-17.05,2.5-12.7,5.2-25.35,8.07-37.96L0,167.07l42.23,439.37,67.28-6.47-.04-.37h.01Z"/>
        <polygon class="cls-6" points="183.11 530.86 189.76 530.22 189.76 530.22 183.11 530.86"/>
        <polygon class="cls-5" points="131.45 535.83 183.11 530.86 183.08 530.49 131.41 535.45 131.45 535.83 131.45 535.83 131.45 535.83"/>
        <polygon class="cls-5" points="183.15 531.23 183.11 530.86 131.45 535.83 131.45 535.83 131.48 536.2 183.15 531.23"/>
        <polygon class="cls-5" points="249.06 558.19 249.14 557.81 201.3 562.41 201.43 562.77 124.8 570.14 124.87 569.75 106.78 571.49 106.85 572.24 106.85 572.24 106.81 571.87 249.06 558.19"/>
        <polygon class="cls-5" points="201.43 562.77 201.3 562.41 124.87 569.75 124.8 570.14 201.43 562.77"/>
        <path class="cls-5" d="m109.51,599.97l255.79-24.59c-.2-.11-.41-.21-.61-.32l-255.21,24.53.04.37h0Z"/>
        <g>
          <g>
            <polygon class="cls-6" points="183.08 530.49 183.11 530.86 189.76 530.22 172.2 347.56 120.54 352.53 120.5 352.15 113.8 352.8 118.17 398.18 133.25 422.01 148.39 425.24 151.32 452.98 159.87 461.08 146.26 454.44 145.47 441.31 144.5 429.35 138.02 432.6 127.63 426.99 123.79 414.85 119.09 407.76 131.4 535.83 131.45 535.83 131.41 535.45 183.08 530.49"/>
            <polygon class="cls-6" points="171.21 337.25 172.13 346.81 172.13 346.81 172.17 347.19 178.82 312.88 102.18 320.24 113.8 352.8 113.8 352.8 112.85 342.86 171.21 337.25"/>
            <polygon class="cls-6" points="120.46 351.78 172.13 346.81 171.21 337.25 112.85 342.86 113.8 352.8 120.5 352.15 120.46 351.78"/>
            <polygon class="cls-6" points="189.81 530.22 189.76 530.22 189.76 530.22 183.11 530.86 183.15 531.23 131.48 536.2 131.45 535.83 124.87 569.75 201.3 562.41 189.81 530.22"/>
            <path class="cls-6" d="m80.1,294l2.7,28.1,129.62-12.46c.79-9.55,1.68-19.09,2.68-28.62l-135,12.98h0Z"/>
            <path class="cls-6" d="m109.48,599.59l255.21-24.53c-9.91-5.13-19.77-10.39-29.55-15.78,2.16-3.22,4.34-6.42,6.53-9.61l-234.82,22.57,2.63,27.35h0Z"/>
            <path class="cls-4" d="m109.55,600.34l-.04-.37-67.28,6.47,2.78,28.88,319.52-30.71c4.6-7.54,9.28-15.02,14.07-22.43-4.24-2.13-8.47-4.3-12.69-6.48l-256.36,24.64h0Z"/>
            <path class="cls-4" d="m69.82,294.99l10.29-.99h0l135-12.98c.31-2.98.63-5.95.97-8.93-7.25-4.16-14.43-8.39-21.57-12.64l-28.9,2.78c-7.78.75-11.04-9.67-4.22-13.49h0l23.51-13.18c1.28-8.47,2.64-16.94,4.08-25.38-2.04-1.32-4.06-2.67-6.09-4l-119.84,67.16h0c-1.37.77-2.48,1.7-3.36,2.74-6.16,7.29-.78,19.96,10.14,18.91h-.01Z"/>
            <path class="cls-6" d="m161.38,248.74c-6.82,3.82-3.56,14.24,4.22,13.49l28.9-2.78c-4.02-2.39-8.04-4.78-12.03-7.2.77-5.57,1.58-11.13,2.42-16.68l-23.51,13.18h0Z"/>
          </g>
          <path class="cls-5" d="m325.7,550.83l-76.64,7.37h0l-142.25,13.67.04.37,234.82-22.57c.09-.14.19-.27.28-.4l-16.25,1.56h0Z"/>
          <path class="cls-5" d="m109.51,599.97l.04.37,256.36-24.64c-.2-.11-.41-.21-.61-.32l-255.79,24.59h0Z"/>
        </g>
      </g>
      <polygon class="cls-7" points="117.66 397.37 104.45 382.9 97.73 369.5 87.12 356.97 72.32 350.86 69.23 330.53 67.74 354.48 76.51 355.77 80.62 359.66 85.71 359.01 94.92 371.44 99.91 385.71 105.98 397.82 114.63 401.05 119.09 407.76 118.17 398.18 117.66 397.37"/>
      <polygon class="cls-7" points="127.63 426.99 138.02 432.6 144.5 429.35 145.47 441.31 146.26 454.44 159.87 461.08 151.32 452.98 148.39 425.24 133.25 422.01 118.17 398.18 119.09 407.76 123.79 414.85 127.63 426.99"/>
    </g>
    <path class="cls-7" d="m243,307.5l-3.34-9.34,1.96-.19h0l-3.95.38c-.8,3.52-1.59,7.04-2.39,10.56,2.86,1.51,5.71,3.03,8.58,4.53-.29-1.98-.57-3.96-.86-5.94h0Z"/>
    <path class="cls-7" d="m244.15,315.5c-.1-.69-.2-1.37-.3-2.06-2.87-1.5-5.72-3.02-8.58-4.53-.28,1.23-.56,2.47-.84,3.7l7.38,8.54,2.32-5.61.02-.03h0Z"/>
    <polygon class="cls-7" points="251.28 330.71 248.54 323.03 247.94 328.22 250.71 331.43 248.4 355.87 254.43 363.45 251.29 330.71 251.28 330.71"/>
    <path class="cls-7" d="m310.05,406.97l-3.79-10.14-9.58-7.64c.02,2.02.06,4.05.09,6.07l5.71,4.56-.28,18.26,1.84,5.6c.79.33,1.58.65,2.38.97l-.59-9.46,4.22-8.24v.02Z"/>
    <path class="cls-7" d="m276.63,379.18l20.14,16.09c-.03-2.02-.07-4.05-.09-6.07l-2.11-1.68-13.95-13.67-13.72-1.47-7.5-9s-.1-.05-.15-.07v-.1l-4.23-5.08-.7-6.98,1.56-20.88-4.61.44,3.15,32.74,9.97,12.53,12.23,3.19h0Z"/>
    <path class="cls-7" d="m259.27,363.31s.1.05.15.07l-.14-.17v.1h0Z"/>
    <path class="cls-7" d="m306.9,432.39l-.48-7.73c-.79-.32-1.59-.65-2.38-.97l2.86,8.7h0Z"/>
    <path class="cls-7" d="m239.66,298.16l3.34,9.34-1.38-9.53-1.96.19h0Z"/>
    <polygon class="cls-7" points="248.61 322.49 248.54 323.03 251.28 330.71 251.29 330.71 250.65 324.07 248.61 322.49"/>
    <polygon class="cls-7" points="250.65 324.07 251.29 330.71 255.9 330.27 256.05 328.25 250.65 324.07"/>
    <path class="cls-7" d="m237.67,298.34l3.95-.38c-.5-3.47-1-6.94-1.51-10.41-.81,3.6-1.63,7.19-2.44,10.79Z"/>
    <path class="cls-7" d="m248.25,322.21l-3.52-2.73-.58-3.99-.02.03-2.32,5.61,6.12,7.08.61-5.19-.29-.82h0Z"/>
    <polygon class="cls-7" points="248.25 322.21 248.54 323.03 248.61 322.49 248.25 322.21"/>
    <path class="cls-7" d="m495.14,136.9c-.61-2.2-1.31-4.27-2.08-6.18l3.26,11.7c-.27-1.86-.65-3.7-1.18-5.52h0Z"/>
    <g id="Group_133" data-name="Group 133">
      <path id="Path_1" data-name="Path 1" class="cls-3" d="m424.46,2.75c7.49-3.29,15.95-3.64,23.68-.98l138.77,47.91c8.26,2.84,14.96,9,18.48,16.99l45.33,103.95c6.95,15.93-.66,34.68-16.96,41.79l-198.1,86.38c-16.3,7.11-35.21-.07-42.16-16.01l-45.33-103.95c-3.46-8.02-3.42-17.12.13-25.1l59.32-134.29c3.31-7.48,9.32-13.44,16.83-16.68h.01Z"/>
      <path id="Path_13" data-name="Path 13" class="cls-7" d="m588.52,151.37l13.2,30.27,14.88-6.49,1.91,4.38-53.41,23.29-1.91-4.38,14.88-6.49-13.2-30.27-58.97,25.71-8.27-18.96,21.81-100.65,27.42-11.96,39.04,89.52,19.18-8.36,2.62,6.02-19.17,8.36h-.01Zm-51.4-56.36l-13.86,62.25,34.45-15.02-20.59-47.23Z"/>
      <path id="Path_14" data-name="Path 14" class="cls-7" d="m506.39,199.73c-.59,6.59-2.47,13.01-5.54,18.88-3.14,6.01-7.28,11.45-12.24,16.08-4.86,4.64-10.48,8.39-16.63,11.1-2.9,1.24-5.88,2.26-8.93,3.07-3.33.91-6.72,1.53-10.16,1.86-3.35.33-6.72.32-10.06-.05-3.08-.3-6.07-1.18-8.83-2.57l4.02,9.22-5.49,2.39-18.14-41.59,8.63-3.76c1.34,3.1,3.54,5.75,6.36,7.62,2.84,1.93,6.05,3.28,9.42,3.95,3.46.69,7,.88,10.51.55,3.34-.26,6.62-1.06,9.7-2.36,2.87-1.3,5.55-2.98,7.97-5,2.66-2.15,5.03-4.63,7.04-7.39,1.96-2.65,3.34-5.68,4.06-8.89.71-3.19.36-6.52-.99-9.49-2.17-4.97-5.47-8.08-9.9-9.34-5-1.31-10.19-1.81-15.35-1.48-5.79.27-11.95.78-18.47,1.52-6.38.75-12.83.7-19.2-.15-6.31-.85-12.33-3.13-17.61-6.68-5.46-3.61-10.02-9.6-13.67-17.97-2.54-5.72-3.44-12.04-2.59-18.25.83-6.26,2.82-12.31,5.87-17.85,3.09-5.65,7.1-10.75,11.86-15.09,4.55-4.26,9.78-7.72,15.48-10.25,2.67-1.14,5.41-2.1,8.2-2.88,3.12-.89,6.31-1.54,9.54-1.94,3.15-.4,6.33-.46,9.49-.17,2.88.23,5.69,1.03,8.26,2.35l-3.42-7.85,4.7-2.05,16.42,37.66-8.23,3.59c-1.15-2.69-3.16-4.94-5.7-6.39-2.67-1.53-5.58-2.59-8.6-3.14-3.12-.58-6.31-.68-9.47-.31-2.86.29-5.65,1-8.3,2.1-2.66,1.21-5.17,2.74-7.47,4.54-2.57,1.94-4.82,4.26-6.68,6.88-1.78,2.49-3.09,5.28-3.88,8.23-.76,2.89-.5,5.95.74,8.66,2.17,4.97,5.5,8.07,10,9.3,4.98,1.27,10.14,1.7,15.26,1.29,5.67-.37,11.77-1.01,18.3-1.91,6.32-.9,12.74-.95,19.07-.15,6.25.83,12.24,3.04,17.53,6.48,5.5,3.52,10.08,9.46,13.72,17.83,2.79,6.19,3.96,13,3.38,19.77l.02.03h0Z"/>
    </g>
    <rect class="cls-5" x="258.31" y="332.12" width="51.9" height=".75" transform="translate(-29.66 27.84) rotate(-5.33)"/>
    <rect class="cls-5" x="120.42" y="349.12" width="51.9" height=".75" transform="translate(-31.89 15.14) rotate(-5.34)"/>
    <rect class="cls-5" x="131.33" y="532.77" width="51.9" height=".75" transform="translate(-50.11 17.42) rotate(-5.47)"/>
    <rect class="cls-5" x="275.74" y="509.89" width=".75" height="51.9" transform="translate(-278.88 771.11) rotate(-85.71)"/>
    <g>
      <polygon class="cls-1" points="504.64 354.89 504.67 354.9 504.83 354.18 555.46 365.51 555.46 365.49 504.82 354.16 504.64 354.89"/>
      <polygon class="cls-1" points="678.3 388.23 677.29 392.75 626.64 381.41 626.48 382.15 626.49 382.15 626.65 381.44 677.28 392.76 677.29 392.75 678.3 388.23 695.28 357.69 695.28 357.69 678.3 388.23"/>
      <polygon class="cls-1" points="573.46 330.43 498.32 313.63 499.25 348.19 556.47 360.99 573.46 330.43"/>
      <polygon class="cls-1" points="677.12 393.5 673.53 409.56 673.53 409.56 677.12 393.5 677.12 393.5"/>
      <polygon class="cls-1" points="496.29 361.44 482.63 422.47 482.64 422.47 496.29 361.44 496.29 361.44"/>
      <polygon class="cls-1" points="459.95 538.76 489.93 435.27 489.93 435.27 459.95 538.76"/>
      <path class="cls-1" d="m476.74,332.51l.31,7.01,11.02,14.91,9.43,1.57,1.74-7.82-.93-34.55,75.13,16.8-16.99,30.55-1,4.51v.02s.01,0,.01,0l-.16.73h-.01s-10.15,45.38-10.15,45.38c2.98-2.4,5.9-4.8,8.77-7.19,13.44,5.62,27.47,11.7,42.05,18.27,5.43-4.77,10.62-9.54,15.58-14.3l-2.73-9.51,9.13-24.02,3.09-1.47-.88-32.53,25.91,5.8h0s-166.72-37.31-166.72-37.31l.44.39-3.03,22.75Z"/>
      <path class="cls-1" d="m608.6,474.3h-7.29s-14.8,8.79-14.8,8.79l10.59-10.7,14.07-6.94,6.94-23.98,1.95-9.59-.59-2.68c-5.24,4.45-10.72,8.88-16.43,13.31-14.15-7.46-27.77-14.39-40.84-20.84-3.01,2.21-6.08,4.42-9.2,6.63l-36.73,126.77.05.02-1.19,34.15,46.16,13.38,18.63-29.1-.05-.02,28.74-99.2Z"/>
      <polygon class="cls-1" points="555.46 365.51 555.46 365.49 555.46 365.51 555.46 365.51"/>
      <path class="cls-1" d="m482.63,422.47l13.65-61.03-10.93-3.55-14.81-21,3.71-24.27-4.06-5.29-12.13-2.72c-3.25,1.49-6.5,2.99-9.74,4.5l-.2.36c7.59,13.17,15.46,26.18,23.59,39.02-10.02,4.89-19.99,9.94-29.9,15.12.33.14.66.28.99.43-3.6,2.13-7.19,4.27-10.77,6.45-.75,0-1.51.03-2.26.09,8.46,12.85,17.19,25.52,26.15,38.02-13.58,7.59-27.04,15.44-40.36,23.58,4.61,6.2,9.29,12.36,14.03,18.47,15.8-10.46,30.76-20.73,44.86-30.86,2.7.88,5.43,1.77,8.18,2.69Z"/>
      <path class="cls-1" d="m489.93,435.27c-2.69-1.08-5.36-2.15-8-3.19-14.7,9.23-30.27,18.56-46.68,28.03,4.56,6.7,9.18,13.36,13.87,19.97-13.42,7.39-26.7,15.04-39.84,22.97,9.55,12.99,19.35,25.79,29.38,38.38-9.2,5.78-18.32,11.7-27.37,17.75l30.08,8.72,18.63-29.1h-.05s0-.03,0-.03h0s29.98-103.49,29.98-103.49Z"/>
      <polygon class="cls-1" points="613.19 399.21 614.93 402.99 619.73 381.48 619.39 381.73 613.19 399.21"/>
      <rect class="cls-1" x="695.28" y="357.69" width="0" height="0" transform="translate(41.28 786.23) rotate(-60.46)"/>
      <path class="cls-1" d="m515.52,167.06h-.02s.03,0,.03,0c0,0,0,0,0-.01h0Z"/>
      <path class="cls-6" d="m522.55,448.83c-11.24-4.84-22.11-9.35-32.62-13.57l-29.98,103.49h0s0,0,0,0l.05.02,56.27,16.3,36.73-126.77c-9.63,6.83-19.77,13.66-30.44,20.53Z"/>
      <path class="cls-6" d="m504.66,354.91h0s-.02-.02-.02-.02l.17-.74,50.65,11.33,1-4.51-57.22-12.8-1.74,7.82,4.17.69,13.13,14.46,11.13,9.98,3.2,10.34-4.69,7.98.08,17.21-3.87-14.55,1.34-18.21-24.61-22.11-1.1-.35-13.65,61.03c10.75,3.56,21.88,7.39,33.4,11.52,10.22-7.52,19.93-14.97,29.11-22.38l10.15-45.38-50.63-11.33Z"/>
      <polygon class="cls-6" points="459.95 538.76 459.95 538.76 459.95 538.76 459.95 538.76"/>
      <polygon class="cls-5" points="555.46 365.51 504.83 354.18 504.67 354.9 555.3 366.22 555.46 365.51"/>
      <polygon class="cls-5" points="555.3 366.22 555.3 366.24 555.31 366.24 555.48 365.51 555.46 365.51 555.3 366.23 555.46 365.51 555.46 365.51 555.3 366.22"/>
      <polygon class="cls-5" points="504.67 354.9 504.66 354.91 555.3 366.24 555.3 366.22 504.67 354.9"/>
      <path class="cls-6" d="m634.06,416.22c-3.32,3.11-6.76,6.2-10.3,9.29l2.88,7.49-5.81,18.65-2.96,14.64-7.29,8.01h-1.97s-28.74,99.2-28.74,99.2l.05.02,56.27,16.3,45.09-155.62c-2.06,2.27-4.19,4.53-6.37,6.78-14.11-8.79-27.73-17.02-40.83-24.74Z"/>
      <path class="cls-6" d="m626.49,382.17v-.02s-.01,0-.01,0l.16-.74,50.65,11.33,1.02-4.52-51.54-11.53-1.74.86-5.3,3.92-4.81,21.51.67,1.47c3.35-3.3,6.59-6.6,9.71-9.91,13.55,6.89,27.65,14.27,42.28,22.17,2.04-2.38,4.02-4.77,5.94-7.16l3.59-16.06-50.63-11.33Z"/>
      <polygon class="cls-6" points="621.03 373.4 621.6 373.15 623.27 365.69 632.83 367.83 640.13 364.38 646.06 346.67 620.15 340.88 621.03 373.4"/>
      <path class="cls-6" d="m678.3,388.23l16.98-30.54-41.93-9.38,41.93,9.38h0s-41.93-9.38-41.93-9.38c-2,1.61-4,3.23-5.99,4.84l-1.76,14.2h0s-4.63,2.3-4.63,2.3l39.53,8.84-2.18,9.74Z"/>
      <polygon class="cls-6" points="695.28 357.69 695.28 357.69 653.35 348.31 695.28 357.69"/>
      <polygon class="cls-6" points="621.6 373.15 632.83 367.83 623.27 365.69 621.6 373.15"/>
      <polygon class="cls-6" points="678.3 388.23 680.48 378.49 640.96 369.65 626.76 376.7 678.3 388.23"/>
      <polygon class="cls-5" points="626.49 382.15 677.13 393.47 677.12 393.5 677.12 393.5 677.13 393.48 677.28 392.76 626.65 381.44 626.49 382.15"/>
      <polygon class="cls-5" points="677.12 393.5 677.14 393.5 677.3 392.77 677.28 392.76 677.13 393.48 677.12 393.5"/>
      <polygon class="cls-5" points="626.49 382.15 626.49 382.17 677.12 393.5 677.13 393.47 626.49 382.15"/>
      <polygon class="cls-7" points="496.29 361.44 496.29 361.44 497.51 356 488.07 354.43 477.05 339.52 476.74 332.51 479.78 309.76 479.34 309.37 470.21 307.33 474.27 312.62 470.55 336.89 485.35 357.89 496.29 361.43 496.29 361.44"/>
      <polygon class="cls-7" points="496.29 361.43 485.35 357.89 496.29 361.44 496.29 361.43"/>
      <polygon class="cls-7" points="521.99 383.91 520.65 402.12 524.52 416.67 524.44 399.45 529.13 391.47 525.93 381.14 514.81 371.16 501.68 356.7 497.51 356 496.29 361.44 497.39 361.79 521.99 383.91"/>
      <path class="cls-7" d="m603,414.81l.9,2.59-.81,9.75,2.53-15.18c-.87.95-1.74,1.89-2.62,2.84Z"/>
      <path class="cls-7" d="m621.03,373.4l-3.09,1.47-9.13,24.02,2.73,9.51c.93-.9,1.85-1.79,2.77-2.69l.61-2.72-1.73-3.78,6.2-17.47.34-.25,1.36-6.05-.06-2.03Z"/>
      <polygon class="cls-7" points="585.83 460.31 576.57 472.17 590.24 461.72 597.48 460.87 599 451.78 585.83 460.31"/>
      <polygon class="cls-7" points="619.73 381.48 625.03 377.56 626.76 376.7 621.09 375.43 619.73 381.48"/>
      <path class="cls-7" d="m662.73,441.72l-1.94,23.23-2.15,1.4-1.52,9.09,1.96-.23,6.31-8.8,1.23-14.88,3.59-19.2-3.73-7.11c-.4.44-.8.88-1.21,1.33l-2.53,15.18Z"/>
      <path class="cls-7" d="m606.83,410.64l-.75-1.43-.46,2.75c.4-.44.81-.88,1.21-1.33Z"/>
      <polygon class="cls-7" points="621.6 373.15 621.03 373.4 621.09 375.43 621.6 373.15"/>
      <polygon class="cls-7" points="621.09 375.43 626.76 376.7 640.96 369.65 632.83 367.83 621.6 373.15 621.09 375.43"/>
    </g>
    <path class="cls-6" d="m411.86,375.97l-3.04,4.13,8.1,4.46c.44-.16.89-.26,1.34-.32,1.65-3.17,3.31-6.31,4.99-9.41-4.02-3.67-8.15-3.26-11.39,1.14h0Z"/>
    <path class="cls-6" d="m384.64,576.01c2.03-5.3,4.06-10.55,6.1-15.74-5.05-6.22-10.19-5.59-14.18,1.76l-3.74,6.9,10.14,7.6c.55-.26,1.1-.43,1.67-.52h0Z"/>
    <path class="cls-6" d="m394.8,387.55c-2.35,1.39-4.7,2.78-7.04,4.19l12.36,1.36-5.32-5.54h0Z"/>
    <path class="cls-6" d="m382.51,484.24c-2.35,1.39-4.7,2.78-7.04,4.19l12.36,1.36-5.32-5.54h0Z"/>
    <path class="cls-6" d="m431.46,512.84c-2.35,1.39-4.7,2.78-7.04,4.19l12.36,1.36-5.32-5.54h0Z"/>
    <rect class="cls-5" x="605" y="546.01" width=".75" height="51.91" transform="translate(-58.26 1075.17) rotate(-80.55)"/>
  </g>
</svg>