<?xml version="1.0" encoding="UTF-8"?>
<svg id="Layer_2" data-name="Layer 2" xmlns="http://www.w3.org/2000/svg" viewBox="0 0 787.6 447.22">
  <defs>
    <style>
      .cls-1 {
        fill: none;
      }

      .cls-1, .cls-2, .cls-3, .cls-4, .cls-5, .cls-6, .cls-7 {
        stroke-width: 0px;
      }

      .cls-3 {
        fill: #756746;
      }

      .cls-4 {
        fill: #5c5c5c;
      }

      .cls-5 {
        fill: #2c2c7c;
      }

      .cls-6 {
        fill: #d0d8d7;
      }

      .cls-7 {
        fill: #fff;
      }
    </style>
  </defs>
  <g id="Layer_2-2" data-name="Layer 2">
    <g id="Layer_2-2" data-name="Layer 2-2">
      <g id="Layer_2-2-2" data-name="Layer 2-2">
        <g id="Layer_2-2-2" data-name="Layer 2-2-2">
          <path class="cls-5" d="m397.63,1.55l1.1.29-.16-.37c-.31.02-.62.04-.94.07h0Z"/>
          <path class="cls-1" d="m200.69,180.38l56.05-23,.69,6.76c1.79-3.09,3.6-6.19,5.41-9.27l-62.15,25.5h0v.02s-.01,0-.01,0h0Z"/>
          <path class="cls-1" d="m196.77,198.45c.2.67.4,1.33.62,1.99l.6-1.58c-.41-.14-.81-.27-1.22-.41h.01Z"/>
          <path class="cls-1" d="m176.62,187.45c.1,1.37.2,2.74.29,4.11,3.55,1.26,7.11,2.47,10.67,3.7.24-3.6.5-7.2.74-10.81l-11.72,2.99h.02s0,.01,0,.01Z"/>
          <polygon class="cls-1" points="197.8 181.54 187.35 185.84 187.35 185.85 197.81 181.55 197.8 181.54"/>
          <path class="cls-1" d="m195.31,199.84l-3.9-5.28c.85,1.82,1.68,3.63,2.54,5.44.43.09.84.15,1.27.24l.09-.4h0Z"/>
          <path class="cls-6" d="m223.3,243.32l9.78,6.45,13.56-2.57,17.3,9.05,2.5,1c-.88-2.76-1.74-5.52-2.59-8.31-13.6-1.73-27.11-3.61-40.54-5.63h-.02s0,0,0,0Z"/>
          <path class="cls-6" d="m214.32,216.82l-.29-.69,1.67-.68c-.38-1.5-.77-3.02-1.14-4.52l-4.21,1.73,4.54,20.45,2.69,6.48,5.52,3.63c-2.51-8.98-4.91-18-7.24-27.02l-1.55.64h0Z"/>
          <path class="cls-6" d="m321.84,269.98l-6.34-3.64c1.45,8.45,2.98,16.9,4.61,25.32,2.29.57,4.6,1.1,6.91,1.66l-2.68-5.25-2.5-18.09h0Z"/>
          <path class="cls-6" d="m201.11,213.16l-.43-5.65-10.47,4.29,4.08,8.73,3.9,5.28,2.92-12.64h0Z"/>
          <path class="cls-6" d="m201.13,207.29l2.41.93-1.26-3.07,6.07-2.49c-2.7-.48-5.41-.99-8.1-1.49l-.08.79.96,5.33h0v.02h0v-.02h0Z"/>
          <path class="cls-6" d="m351.25,62.08l.08-.4c-.09.08-.17.16-.26.24.06.05.12.11.18.16h0Z"/>
          <path class="cls-6" d="m203.54,208.22l6.37,2.45.44,1.97,4.21-1.73c-.63-2.49-1.24-4.96-1.85-7.45-1.45-.25-2.9-.54-4.35-.8l-6.07,2.49,1.26,3.07h0Z"/>
          <path class="cls-5" d="m214.32,216.82l1.55-.64c-.06-.24-.13-.48-.19-.74l-1.67.68.29.69h.02Z"/>
          <path class="cls-5" d="m215.9,216.18l46.46-19.06-.29-.69-46.36,19.02c.06.24.13.48.19.74h0Z"/>
          <path class="cls-6" d="m185.25,237.64c1.49,3.18,2.96,6.35,4.46,9.53l10.47-4.29-.73-9.78-4.65-2.16-1.4-5.49-6.73-5.77,1.81-2.52-19.32,7.92c1.8,9.4,3.71,18.79,5.72,28.17l11.18-4.59c-.27-3.68-.51-7.36-.79-11.04h-.02s0,0,0,0Z"/>
          <path class="cls-4" d="m202.93,9.4s.02,0,.03-.03c0,0-.02,0-.03.03l-88.63,92.04h0L202.93,9.4Z"/>
          <polygon class="cls-4" points="174.87 158.78 174.87 158.78 195.11 153.61 195.11 153.61 174.87 158.78"/>
          <polygon class="cls-4" points="191.99 153.42 274.72 119.49 274.72 119.49 191.99 153.42 191.99 153.42"/>
          <polygon class="cls-2" points="195.11 153.61 195.11 153.61 174.87 158.78 174.87 158.78 195.11 153.61"/>
          <polygon class="cls-2" points="191.99 153.42 274.72 119.49 274.72 119.48 191.99 153.42 191.99 153.42"/>
          <g>
            <path class="cls-6" d="m223.11,243.19l.18.13c13.43,2.02,26.96,3.89,40.54,5.63.87,2.77,1.72,5.54,2.59,8.31l11.38,4.55,6.57,8.61-1.65,9.11,3.3,8.89c4.77.46,9.53.91,14.31,1.33l-37.98-92.6-46.46,19.06c2.31,9.03,4.71,18.03,7.24,27.02h0v-.04s-.02,0-.02,0h0Z"/>
            <path class="cls-6" d="m214.56,210.92c.38,1.5.76,3.02,1.14,4.52l46.36-19.02-1.75-4.29h0l-45.74,18.77h-.02s0,0,0,0Z"/>
            <path class="cls-6" d="m200.69,180.38l.94,6.69-1.39,14.11c2.7.5,5.4,1,8.1,1.49l48.17-19.75,3.78,9.22-2.82-27.59c-.07-.03-.15-.07-.21-.1.06-.1.11-.2.18-.3l-.69-6.76-56.05,23h0v-.02h0v-.02s0,0,0,0Z"/>
            <path class="cls-6" d="m214.56,210.92l45.74-18.76h0l-3.79-9.24-48.17,19.75c1.44.27,2.9.55,4.35.8.6,2.47,1.22,4.97,1.85,7.45h0s0,0,0,0Z"/>
            <path class="cls-6" d="m190.1,157.74l9.26,13.07,1.34,9.56,62.15-25.5c6.28-10.66,12.71-21.23,19.26-31.69-2.48-1.22-4.94-2.45-7.42-3.67l-82.74,33.93-1.88,4.32h.02s0-.02,0-.02h0Z"/>
            <path class="cls-4" d="m165.13,154.93c.54,2.94,1.1,5.87,1.65,8.83l19.32-7.92,12.23-16.94-6.35,14.54,82.73-33.93c-9.15-4.58-18.25-9.3-27.25-14.16l-106.65,43.75c8.06,2.01,16.16,3.98,24.31,5.86h0v-.02h.01Z"/>
            <path class="cls-4" d="m202.93,9.4l-88.63,92.04c2.33.68,4.66,1.39,6.99,2.07,1.06,8.5,2.21,17,3.44,25.47l89.35-92.77-.14.03c-15.88-.41-.49-36.72-10.23-27.59-.24.22-.48.46-.75.74,0,0-.02,0-.03.03h0v-.03h.01Z"/>
            <path class="cls-6" d="m218.97,49.66c-1.8,3.5-2.87,7.35-3.14,11.29-.55,7.93,2.63,15.66,8.59,20.93,2.96,2.62,6.42,4.59,10.16,5.83,3.94,1.3,8.11,1.89,12.27,1.72,1.45-.06,2.87-.21,4.28-.44,6.05-9.06,12.21-18.06,18.48-26.95-12.78-7.28-25.39-14.83-37.81-22.67,1.47-2,2.94-3.98,4.41-5.98h0c-3.55,1.64-6.81,3.8-9.69,6.42-3.08,2.8-5.64,6.14-7.53,9.85h-.02s0,0,0,0h0Z"/>
            <path class="cls-6" d="m127.22,145.65c4.52,1.17,9.06,2.3,13.6,3.41l106.65-43.75c-1.76-.95-3.51-1.88-5.26-2.83,2.77-4.24,5.55-8.44,8.35-12.64-1.21.18-2.44.28-3.67.32-4.25.18-8.5-.43-12.53-1.76-3.85-1.26-7.39-3.3-10.43-5.98-6.13-5.42-9.39-13.39-8.85-21.55.28-4.04,1.37-7.98,3.23-11.58,1.92-3.79,4.54-7.2,7.69-10.05,2.43-2.2,5.11-4.06,7.96-5.58l-19.9,2.52-89.35,92.77c.81,5.56,1.63,11.12,2.5,16.67v.02h0v.02s.02,0,.02,0h0Z"/>
          </g>
          <path class="cls-5" d="m217.82,50.75c-1.58,3.72-2.38,7.74-2.38,11.78.04,8.18,3.88,15.88,10.38,20.84,3.22,2.45,6.9,4.22,10.84,5.22,4.12,1.04,8.4,1.33,12.63.85,1.23-.14,2.44-.34,3.64-.59.17-.3.34-.61.51-.89-1.38.32-2.8.58-4.24.74-4.13.49-8.33.21-12.36-.82-3.82-.96-7.42-2.68-10.56-5.08-6.32-4.81-10.04-12.3-10.07-20.25-.01-3.95.79-7.86,2.33-11.49,1.61-3.85,3.92-7.36,6.79-10.37,2.69-2.83,5.8-5.22,9.21-7.11l-2.2.45c-2.74,1.72-5.28,3.78-7.54,6.14-2.94,3.07-5.3,6.67-6.94,10.59h-.02s0,0,0,0Z"/>
          <g>
            <path class="cls-1" d="m300.66,154.7h0l.05.75h0l7.77,99.79c5.54,2.35,11.11,4.67,16.69,6.96.62,13.27,1.45,26.55,2.51,39.82-1.06-13.27-1.89-26.55-2.51-39.82-5.59-2.29-11.13-4.63-16.69-6.96l6.09,78.17h.05l10.91,32.38,16.69-1.3c6.34-8.85,12.79-17.61,19.37-26.25-13.82-8.25-27.49-16.77-41-25.58,9.5-12.05,19.25-23.9,29.2-35.53-13.12-8.85-26.07-17.97-38.85-27.36,10.35-11.68,20.91-23.14,31.67-34.38-12.38-9.42-24.58-19.08-36.57-29.02,11.15-11.26,22.5-22.29,34.05-33.08-11.54-9.88-22.88-20.02-34-30.37l-5.78,27.13.36,4.62h0v.03h0Z"/>
            <rect class="cls-5" x="256.47" y="340.53" width="51.9" height=".75" transform="translate(-25.6 22.94) rotate(-4.45)"/>
            <g>
              <path class="cls-6" d="m308.49,255.24c-4.43-1.87-8.81-3.76-13.21-5.65l.35,7.73-2.7-8.75c-2.17-.94-4.36-1.86-6.51-2.81-.17-8.59-.24-17.17-.24-25.75l-19.85-16.45-12.17-3.41-9.74-12.71,11.72,150.53h.05l58.4-4.56-6.09-78.17h-.01Z"/>
              <path class="cls-6" d="m314.62,333.41h-.05l-58.4,4.56-7.19,33.8,76.56-5.96-10.91-32.39h-.01Zm-58.04,9.9l-.05-.75,51.74-4.02.05.75-51.74,4.02h0Z"/>
            </g>
            <polygon class="cls-5" points="325.65 366.17 325.53 365.79 248.97 371.77 248.9 372.14 325.65 366.17"/>
          </g>
          <path class="cls-6" d="m513.28,259.78c4.63-3.45,9.28-6.88,13.95-10.27-9.6-3.14-20.08-2.11-28.89,2.82l-8.27,4.63,19.78,3.34c1.14-.22,2.28-.4,3.43-.52h0Z"/>
          <path class="cls-6" d="m395.33,214.86l-3.04,4.13,8.1,4.46c.44-.16.89-.26,1.34-.32,1.65-3.17,3.31-6.31,4.99-9.41-4.02-3.67-8.15-3.26-11.39,1.14h0Z"/>
          <path class="cls-6" d="m359.08,330.28c2.5-5.3,5.01-10.55,7.53-15.74-6.23-6.22-12.57-5.59-17.49,1.76l-4.61,6.9,12.51,7.6c.68-.26,1.36-.43,2.06-.52h0Z"/>
          <path class="cls-6" d="m444.46,271.67c-6.61-1.95-17.63,15.32-23.63,18.79l-2.01-13.02,14.21,2.53c.07-.01.15-.03.22-.04-.11-.14-.23-.28-.35-.41,3.84-2.64,7.69-5.25,11.55-7.85h.01Z"/>
          <path class="cls-6" d="m448.18,138.44l-3.04,4.13,8.1,4.46c.44-.16.89-.26,1.34-.32,1.65-3.17,3.31-6.31,4.99-9.41-4.02-3.67-8.15-3.26-11.39,1.14h0Z"/>
          <path class="cls-6" d="m382.55,264.8l-3.04,4.13,8.1,4.46c.44-.16.89-.26,1.34-.32,1.65-3.17,3.31-6.31,4.99-9.41-4.02-3.67-8.15-3.26-11.39,1.14h0Z"/>
          <path class="cls-6" d="m443.28,333.78l-3.04,4.13,8.1,4.46c.44-.16.89-.26,1.34-.32,1.65-3.17,3.31-6.31,4.99-9.41-4.02-3.67-8.15-3.26-11.39,1.14h0Z"/>
          <polygon class="cls-4" points="762.59 225.9 537.04 143.85 537.04 143.85 762.59 225.9 762.59 225.9"/>
          <polygon class="cls-2" points="762.59 225.9 537.04 143.85 537.04 143.85 762.59 225.9 762.59 225.9"/>
          <polygon class="cls-6" points="569.58 190.36 567.84 200.19 583.45 168.92 507.64 155.49 510.11 189.96 511.85 180.13 569.58 190.36"/>
          <rect class="cls-6" x="535.19" y="130.84" width="9.99" height="58.63" transform="translate(321.99 679.62) rotate(-83.73)"/>
          <path class="cls-6" d="m524.94,169.48l160.55,58.4,2.71-5.59c8.42-1.57,16.83-3.13,25.25-4.71-6.98,4.28-13.95,8.57-20.94,12.85l60.41,21.98,9.64-26.54-225.56-82.05c.99,2.57,1.99,5.15,2.99,7.71-8.08,2.24-16.13,4.58-24.16,7,0,.21-.03.43-.02.65l9.09,10.27h.02s0,.02,0,.02h.01Z"/>
          <path class="cls-6" d="m492.11,189.07c-2.35,1.39-4.7,2.78-7.04,4.19l12.36,1.36-5.32-5.54h0Z"/>
          <path class="cls-6" d="m705.56,184.69l-47.23-59.48-56.01-51.93c.32.69.63,1.38.9,2.09,1.49,3.76,2.22,7.79,2.1,11.84-.22,8.18-4.23,15.79-10.85,20.6-3.28,2.38-7.01,4.07-10.95,4.96-4.15.96-8.43,1.14-12.64.56-4.52-.62-8.89-2.03-12.9-4.17-2.95-1.53-5.67-3.46-8.13-5.7-5.01.54-10.03,1.11-15.06,1.71.4,1.95.8,3.9,1.21,5.86l160.56,84.56c6.9,3.63,13.89-4.77,9.02-10.89h0s0,0,0,0Z"/>
          <polygon class="cls-7" points="193.51 215.4 199.11 222.76 199.48 239.3 196.27 251.64 202.04 261.92 209.26 262.64 203.7 273.27 197.36 284.79 205.32 297.66 202.42 286.26 214.75 261.24 203.66 250.41 203.63 221.25 202.14 212.99 194.24 207.97 193.51 215.4"/>
          <path class="cls-7" d="m195.67,200.32l-.35-.48-.09.4c.15.03.3.06.45.08h0Z"/>
          <path class="cls-7" d="m195.23,200.24l-.38,1.65,1.71,3.65,4.16,1.6-5.03-6.82c-.15-.03-.3-.06-.45-.08h0s0,0,0,0Z"/>
          <polygon class="cls-7" points="197.81 181.55 200.69 180.38 200.69 180.37 197.8 181.54 197.81 181.55"/>
          <path class="cls-7" d="m198.23,187.19l-2.92,12.64.35.48c1.53.29,3.06.57,4.59.85l1.39-14.11-.94-6.69-2.9,1.2.43,5.65h.02s-.02-.02-.02-.02h0Z"/>
          <path class="cls-7" d="m200.71,207.14l.42.17-.96-5.33.08-.79c-1.53-.28-3.07-.56-4.59-.85l5.03,6.82h0v-.02h.01Z"/>
          <polygon class="cls-7" points="184.3 158.35 191.02 164.13 192.43 169.62 197.08 171.77 197.8 181.54 200.69 180.37 199.36 170.8 190.1 157.74 191.99 153.42 186.11 155.84 184.3 158.35"/>
          <polygon class="cls-7" points="186.11 155.83 192 153.42 192 153.42 186.11 155.83"/>
          <polygon class="cls-7" points="198.34 138.89 186.11 155.84 191.99 153.42 198.34 138.89"/>
          <path class="cls-7" d="m470.71,62.66c-1.45,8.44-2.89,16.88-4.34,25.31l7.29,7.59c1.07-.63,2.15-1.26,3.22-1.89-2.06-10.34-4.12-20.67-6.17-31.01h0Z"/>
          <path class="cls-7" d="m491.9,128.87l-10.73-8.55c-.03-.21-.05-.43-.09-.65-1.11.56-2.23,1.12-3.34,1.67l4.94,5.88,9.21,1.63h0v.02h.01Z"/>
          <polygon class="cls-7" points="656.7 181.9 664.06 183.2 664.06 183.2 656.7 181.89 656.7 181.9"/>
          <path class="cls-7" d="m651.57,199.85l-7.14,3.78,8.2,1.45,4.53-2.51,1.12-14.27c1.93-1.7,3.85-3.4,5.77-5.1l-7.36-1.31-5.13,17.95h0Z"/>
          <path class="cls-7" d="m678.19,221.56l-2.5,5.68,7.11,2.3c6.81-4.55,13.62-9.08,20.44-13.62-8.35,1.88-16.7,3.76-25.06,5.64h0Z"/>
          <rect class="cls-5" x="86.32" y="252.91" width="51.9" height=".37" transform="translate(-114.93 94.84) rotate(-31.22)"/>
          <rect class="cls-5" x="86.12" y="252.59" width="51.9" height=".38" transform="translate(-114.79 94.7) rotate(-31.22)"/>
          <polygon class="cls-4" points="147.23 190.35 26.09 251.36 26.09 251.36 147.23 190.35 147.23 190.35"/>
          <polygon class="cls-2" points="26.09 251.36 147.23 190.35 147.23 190.35 26.09 251.36 26.09 251.36"/>
          <polygon class="cls-7" points="113.9 287.99 96.36 279.28 85.25 269.22 70.83 261.37 54.81 261.03 44.58 243.18 51.85 266.05 60.49 264.09 65.74 266.23 70.24 263.79 83.33 272.04 93.14 283.54 103.18 292.64 112.4 292.52 118.99 297.16 114.68 288.56 113.9 287.99"/>
          <path class="cls-7" d="m195,192.71l-4.74-8.72,1.9-.49h0l-3.85.97c-.24,3.6-.5,7.2-.74,10.81,3.05,1.06,6.11,2.12,9.17,3.16-.59-1.92-1.16-3.82-1.76-5.74h0Z"/>
          <path class="cls-7" d="m197.35,200.44c-.2-.67-.4-1.33-.62-1.99-3.06-1.04-6.11-2.11-9.17-3.16-.1,1.26-.18,2.53-.26,3.78l8.6,7.31,1.44-5.91.02-.03h-.02s0,0,0,0Z"/>
          <polygon class="cls-7" points="206.06 214.4 201.21 207.83 202.14 212.99 205.73 215.25 210.59 239.31 218.54 244.82 206.07 214.4 206.06 214.4"/>
          <path class="cls-7" d="m298.18,187.44l-5.29-9.45-10.63-6.09c.33,1.99.67,4,1.02,5.99l6.34,3.64,2.5,18.09,2.68,5.25c.83.21,1.66.41,2.5.59l-2.03-9.26,2.91-8.79v.02h0Z"/>
          <path class="cls-7" d="m244.34,253.46l23.93,9.57c-.61-1.93-1.23-3.86-1.84-5.79l-2.5-1-17.3-9.05-13.56,2.57-9.78-6.45s-.11,0-.17-.03l-.02-.1-5.53-3.63-2.69-6.48-4.54-20.45-4.29,1.75,12.48,30.43,13.17,9.11,12.63-.48h0v.03s.03,0,.03,0h0Z"/>
          <path class="cls-7" d="m223.13,243.3s.11,0,.17.03l-.18-.13.02.1h0Z"/>
          <path class="cls-7" d="m343.22,196.61l-.48-7.73c-.79-.32-1.59-.65-2.38-.97l2.86,8.7h0Z"/>
          <path class="cls-7" d="m190.26,183.99l4.74,8.72-2.83-9.21-1.9.49h0s0,0,0,0Z"/>
          <polygon class="cls-7" points="201.13 207.29 201.21 207.83 206.06 214.4 206.07 214.4 203.54 208.22 201.13 207.29"/>
          <polygon class="cls-7" points="203.54 208.22 206.07 214.4 210.36 212.64 209.92 210.67 203.54 208.22"/>
          <path class="cls-7" d="m188.33,184.48l3.85-.97c-1.02-3.35-2.05-6.7-3.09-10.05-.25,3.68-.52,7.36-.76,11.04h0v-.02h0Z"/>
          <path class="cls-7" d="m196.52,218.44l-4.16-1.6-1.71-3.65v.03s-.62,6.05-.62,6.05l7.9,5-.91-5.14-.51-.7h0Z"/>
          <polygon class="cls-7" points="200.71 207.14 201.21 207.83 201.13 207.29 200.71 207.14"/>
          <rect class="cls-5" x="212.2" y="206.22" width="51.9" height=".75" transform="translate(-60.29 104.96) rotate(-22.14)"/>
          <rect class="cls-5" x="86.18" y="252.4" width="51.9" height=".75" transform="translate(-114.37 94.13) rotate(-31.07)"/>
          <rect class="cls-5" x="256.56" y="340.51" width="51.9" height=".75" transform="translate(-25.76 23.11) rotate(-4.48)"/>
          <g>
            <path class="cls-6" d="m590.87,285.26c-9.18-8.09-18.11-15.76-26.8-23.03l-60.63,89.07h0l.04.04,48.43,32.96,74.27-109.1c-11.28,3.51-23.04,6.85-35.31,10.06h0Z"/>
            <polygon class="cls-1" points="605.93 187.38 605.94 187.4 606.32 186.77 650.93 213.26 650.94 213.24 606.32 186.74 605.93 187.38"/>
            <polygon class="cls-1" points="760.65 272.99 758.28 276.97 713.65 250.47 713.28 251.13 713.29 251.13 713.66 250.5 758.27 276.98 758.28 276.97 760.65 272.99 786.27 249.24 786.27 249.24 760.65 272.99"/>
            <polygon class="cls-1" points="678.93 185.5 612.72 146.2 602.88 179.34 653.3 209.28 678.93 185.5"/>
            <polygon class="cls-1" points="757.89 277.64 749.49 291.79 749.49 291.79 757.89 277.64 757.89 277.64"/>
            <polygon class="cls-1" points="595.95 191.02 564.02 244.79 564.03 244.79 595.95 191.02 595.95 191.02"/>
            <polygon class="cls-1" points="506.35 348.29 566.98 259.22 566.98 259.22 506.35 348.29"/>
            <path class="cls-1" d="m586.35,157.45l-1.88,6.76,5.85,17.6,8.47,4.42,4.08-6.9,9.84-33.14,66.2,39.3-25.63,23.76-2.35,3.97v.02h0l-.38.65h0l-23.74,39.98c3.57-1.36,7.1-2.73,10.57-4.11,11.03,9.51,22.48,19.65,34.3,30.42,6.64-2.85,13.06-5.77,19.25-8.75l.36-9.89,16.14-20,3.39-.44,9.26-31.2,22.83,13.56h0l-146.89-87.23.3.51-9.94,20.69h0v.02s-.01,0-.01,0Z"/>
            <path class="cls-1" d="m667.67,333.17l-6.93-2.26-16.8,3.76,13.39-6.88,15.53-2.23,14.04-20.64,4.83-8.51.27-2.73c-6.36,2.6-12.95,5.11-19.75,7.55-11.14-11.49-21.93-22.3-32.35-32.49-3.54,1.17-7.15,2.31-10.8,3.44l-74.27,109.1.04.04-11.73,32.1,39.73,27.05,26.75-21.88-.04-.04,58.12-85.37h0Z"/>
            <path class="cls-1" d="m564.02,244.79l31.92-53.77-9.29-6.77-7.56-24.56,11.06-21.92-2.22-6.29-10.68-6.35c-3.56.4-7.11.82-10.66,1.26l-.3.28c3.12,14.88,6.57,29.68,10.31,44.42-11.04,1.54-22.09,3.25-33.12,5.09.27.24.54.47.81.71-4.09.9-8.16,1.83-12.24,2.79-.71-.23-1.45-.44-2.18-.62,4.05,14.84,8.42,29.6,13.05,44.26-15.27,3-30.5,6.28-45.69,9.88,2.46,7.33,4.99,14.63,7.61,21.92,18.27-5.04,35.67-10.16,52.22-15.41,2.29,1.67,4.61,3.37,6.94,5.09h0v-.02s0,0,0,0Z"/>
            <path class="cls-1" d="m566.98,259.22c-2.22-1.86-4.43-3.71-6.62-5.52-16.84,4.21-34.54,8.25-53.08,12.15,2.26,7.78,4.58,15.55,6.99,23.29-15.05,2.86-30.05,6-45.01,9.47,5.05,15.31,10.39,30.52,16.01,45.6-10.54,2.64-21.04,5.43-31.53,8.38l25.88,17.62,26.75-21.88h-.05s0-.05,0-.05h0l60.63-89.07h0s0,0,0,0Z"/>
            <polygon class="cls-1" points="695.34 263.22 695.82 267.35 707.07 248.39 706.67 248.53 695.34 263.22"/>
            <path class="cls-6" d="m605.93,187.41h0l-.02-.02.39-.65,44.63,26.5,2.35-3.97-50.42-29.93-4.08,6.9,3.75,1.95,7.99,17.82,7.48,12.94-.17,10.82-6.93,6.13-5.26,16.38.84-15.03,6.93-16.89-16.53-28.65-.94-.68-31.92,53.77c9.11,6.72,18.5,13.81,28.17,21.32,12.05-3.97,23.59-8.04,34.62-12.24l23.74-39.98-44.61-26.49v.02h0v-.03s0,0,0,0Z"/>
            <polygon class="cls-5" points="650.93 213.26 606.32 186.77 605.94 187.4 650.56 213.89 650.93 213.26"/>
            <polygon class="cls-5" points="650.56 213.89 650.55 213.9 650.56 213.91 650.95 213.26 650.93 213.26 650.55 213.89 650.93 213.26 650.93 213.26 650.56 213.89"/>
            <polygon class="cls-5" points="605.94 187.4 605.93 187.41 650.55 213.9 650.56 213.89 605.94 187.4"/>
            <path class="cls-6" d="m712.25,278.69c-4.12,1.92-8.35,3.8-12.67,5.63l.42,8.01-11.31,15.92-7.36,13-9.42,5.35-1.87-.61-58.12,85.37.04.04,48.43,32.96,91.18-133.93c-2.66,1.52-5.39,3.01-8.16,4.47-10.68-12.74-21.08-24.78-31.13-36.19l-.02-.02h0Z"/>
            <path class="cls-6" d="m713.28,251.15v-.02h0l.38-.66,44.63,26.5,2.37-3.98-45.41-26.97-1.92.27-6.25,2.08-11.25,18.95.18,1.6c4.21-2.1,8.32-4.23,12.3-6.41,10.74,10.75,21.86,22.15,33.3,34.2,2.68-1.63,5.3-3.29,7.87-4.96l8.4-14.15-44.61-26.49h0v.02s0,0,0,0Z"/>
            <polygon class="cls-6" points="710.81 241.11 711.44 241.05 715.33 234.48 723.76 239.49 731.77 238.47 742.9 223.48 720.08 209.93 710.81 241.11"/>
            <path class="cls-6" d="m760.65,272.99l25.62-23.75-36.95-21.93,36.95,21.93h0l-36.95-21.93c-2.41.91-4.8,1.83-7.2,2.74l-6.09,12.95h0l-5.12.75,34.83,20.67-5.1,8.58h-.02s0,0,0,0h0Z"/>
            <polygon class="cls-6" points="786.27 249.24 786.27 249.24 749.33 227.3 786.27 249.24"/>
            <polygon class="cls-6" points="711.44 241.05 723.76 239.49 715.33 234.48 711.44 241.05"/>
            <polygon class="cls-6" points="760.65 272.99 765.74 264.41 730.92 243.74 715.23 246.03 760.65 272.99"/>
            <polygon class="cls-5" points="713.29 251.13 757.91 277.61 757.89 277.64 757.89 277.64 757.91 277.62 758.27 276.98 713.66 250.5 713.29 251.13"/>
            <polygon class="cls-5" points="757.89 277.64 757.91 277.64 758.29 276.99 758.27 276.98 757.91 277.62 757.89 277.64"/>
            <polygon class="cls-5" points="713.29 251.13 713.28 251.15 757.89 277.64 757.91 277.61 713.29 251.13"/>
            <polygon class="cls-7" points="594.93 331.14 594.93 331.14 597.77 326.35 589.29 321.93 583.44 304.33 585.31 297.57 595.27 276.89 594.98 276.38 586.93 271.61 589.15 277.89 578.08 299.81 585.62 324.37 594.93 331.13 594.93 331.14"/>
            <polygon class="cls-7" points="595.96 191.01 586.65 184.25 595.95 191.02 595.96 191.01"/>
            <polygon class="cls-7" points="613.4 220.35 606.48 237.25 605.63 252.28 610.91 235.89 617.84 229.76 618.01 218.95 610.54 206.01 602.55 188.18 598.8 186.22 595.95 191.02 596.89 191.69 613.4 220.35"/>
            <path class="cls-7" d="m680.82,274.88l.06,2.74-3.8,9.01,7.12-13.65c-1.12.63-2.24,1.26-3.37,1.89h0Z"/>
            <path class="cls-7" d="m710.81,241.11l-3.39.44-16.14,20-.36,9.89c1.16-.57,2.31-1.13,3.47-1.7l1.43-2.4-.47-4.13,11.32-14.68.4-.14,3.17-5.33.57-1.95h0Z"/>
            <polygon class="cls-7" points="650.37 312.8 637.89 321.2 654.13 315.51 661.27 316.95 665.53 308.78 650.37 312.8"/>
            <polygon class="cls-7" points="707.07 248.39 713.32 246.31 715.23 246.03 710.24 243.06 707.07 248.39"/>
            <path class="cls-7" d="m729.24,319l-9.05,21.48-2.48.67-4.27,8.17,1.93.39,8.74-6.41,5.79-13.76,9.38-17.14-1.33-7.91c-.52.3-1.03.59-1.56.89l-7.12,13.65h0l-.03-.02h0Z"/>
            <path class="cls-7" d="m685.75,272.11l-.27-1.6-1.29,2.47c.52-.3,1.04-.59,1.56-.89h0v.02s0,0,0,0Z"/>
            <polygon class="cls-7" points="711.44 241.05 710.81 241.11 710.24 243.06 711.44 241.05"/>
            <polygon class="cls-7" points="710.24 243.06 715.23 246.03 730.92 243.74 723.76 239.49 711.44 241.05 710.24 243.06"/>
          </g>
          <path class="cls-6" d="m420.59,374.46c2.03-5.3,4.06-10.55,6.1-15.74-5.05-6.22-10.19-5.59-14.18,1.76l-3.74,6.9,10.14,7.6c.55-.26,1.1-.43,1.67-.52h0Z"/>
          <path class="cls-6" d="m437.54,200.14c-2.35,1.39-4.7,2.78-7.04,4.19l12.36,1.36-5.32-5.54h0Z"/>
          <path class="cls-6" d="m418.83,248.46c-2.35,1.39-4.7,2.78-7.04,4.19l12.36,1.36-5.32-5.54h0Z"/>
          <path class="cls-6" d="m467.78,277.06c-2.35,1.39-4.7,2.78-7.04,4.19l12.36,1.36-5.32-5.54h0Z"/>
          <polygon class="cls-1" points="121.77 372.16 121.77 372.16 121.77 372.16 127.23 399.09 127.23 399.09 121.77 372.16"/>
          <path class="cls-1" d="m200.85,341.96h.02l-14.29-53.65h-.02l14.3,53.66h-.01Z"/>
          <path class="cls-1" d="m131.01,267.24l-46.35,23.36.17.33.17.34,46.34-23.35,57.57,114.29h.02s-57.57-114.31-57.57-114.31l-.17-.33-6.24-34.38h0l6.24,34.38-.17-.34h0s0,0,0,0Z"/>
          <polygon class="cls-1" points="217.54 371.82 200.92 341.96 200.9 341.96 217.52 371.83 217.54 371.82"/>
          <path class="cls-1" d="m138.01,234.95c1.51.1,3.03.2,4.53.32l-1.35-5.11-15.03-.86c.45,1.76.92,3.49,1.36,5.24,3.42.06,6.85.21,10.27.41l.19-.14v.15h.04,0Z"/>
          <polygon class="cls-1" points="121.61 371.42 121.63 371.49 121.61 371.42 121.61 371.42"/>
          <path class="cls-1" d="m96.36,279.27l-11.11-10.06-14.42-7.85-16.01-.33-10.24-17.84,7.26,22.87,8.64-1.97,5.25,2.14,4.51-2.45,13.08,8.26,9.81,11.5,5.53,5.01c3.31-1.12,6.63-2.18,9.98-3.18l-12.3-6.11h.02Z"/>
          <path class="cls-1" d="m155.91,368.02l-44.49-120.72,6.34,5.66,6.8,10.76,11.47,2.79,5.26-4.64c-3.42.15-6.83.37-10.25.67-.63-1.69-1.27-3.38-1.91-5.07l-.42.03-20.65-19.2h0l-.7-.65-4.92-3.19c-3.44.61-6.86,1.3-10.27,2.04l4.01,4.55,9.19.93,6.02,5.35,44.49,120.72h.05-.05.02v-.03h0Z"/>
          <path class="cls-1" d="m140.76,246.48l2.78,12.86,14.46,4.49-9.68-6.7-5.77-21.86c-1.51-.12-3.02-.22-4.53-.32l2.75,11.53h-.02.01Z"/>
          <path class="cls-1" d="m112.01,288.15l-1.61-4.53-3.97.62,4.88,3.24.69.66h.01Z"/>
          <path class="cls-1" d="m121.2,229.73h0l8.24,33.95.19.32,64.18,110.73c11.38-.35,22.83.04,34.26,1.2,3.82,10.55,7.53,21.12,11.13,31.73-3.6-10.6-7.29-21.18-11.13-31.73-11.42-1.16-22.86-1.56-34.26-1.2l27.83,48.03h.05s23.85,24.47,23.85,24.47l41.58-24.1h0l-8.13-33.57h-.05s-75.7-130.61-75.7-130.61l-8.63-4.37-8.08-23.18-3.85-1.76,2.59,8,3.99,28.88,12.45,9.21-8.83,26.47,4.43,10.92-9.64-11.69,4.72-12.28,4.07-11.29-7.25.26-7.13-9.42,1.53-12.63-2.63-16.35-6.54-6.52-.29-7.46-10.27-4.69c-.25-1.23-.51-2.48-.77-3.71-3.76-.22-7.52-.41-11.27-.67-.47-1.29-.93-2.6-1.4-3.88l-29.61,17.15.41-.24h0v.02s0-.02,0-.02h0Z"/>
          <polygon class="cls-5" points="121.69 371.8 121.69 371.8 121.63 371.49 121.69 371.8"/>
          <polygon class="cls-5" points="121.77 372.16 121.77 372.16 121.68 371.8 121.77 372.16"/>
          <polygon class="cls-5" points="139.4 368.2 151.28 365.78 139.4 368.2 139.4 368.2"/>
          <path class="cls-6" d="m141.87,320.09c9.62-1.34,19.31-2.18,29.04-2.49,4.19,10.3,8.28,20.65,12.23,31.03,2.62,0,5.24.06,7.85.13l-57.3-114.43-46.4,23.24-.17-.34-6.01,3.01h0l18.26,36.47c4.2-1.17,8.41-2.26,12.66-3.23,4.28,8.04,8.43,16.13,12.56,24.26l14.88-2.38,2.41,4.7h0l-.02.02h.01Z"/>
          <path class="cls-6" d="m104.86,218.61l1.61,4.53h0l20.42,19.45.42-.02c-3.09-8.58-6.24-17.13-9.49-25.62-4.33.45-8.65,1.01-12.96,1.66h0Z"/>
          <path class="cls-6" d="m165.07,295.73c-1.77-10.98-3.68-21.93-5.7-32.87-9.58-1.67-19.25-2.8-28.94-3.44l6.02,21.78,9.75,6.59-14.52-4.31-2.93-12.82-2.88-11.49c-.07,0-.15-.01-.22,0l-5.67,4.14-11.16-3.84-5.78-11.34-5.79-6.22,33.14,124.32h.05l-.09-.38,50.16-13.36.08.37,6.45-1.72-14.3-53.66c-2.55-.61-5.1-1.18-7.66-1.72h-.02v-.03h.01Z"/>
          <path class="cls-6" d="m137.98,234.8l-.19.14c.07,0,.15.01.22.02v-.15h-.03Z"/>
          <polygon class="cls-6" points="106.47 223.14 104.86 218.61 104.86 218.61 106.47 223.14 106.47 223.14"/>
          <polygon class="cls-6" points="94.19 247.83 94.19 247.83 94.18 247.84 112.52 284.26 112.52 284.26 94.19 247.83"/>
          <polygon class="cls-6" points="56.19 267.82 56.19 267.82 124.52 233.4 56.19 267.82"/>
          <polygon class="cls-6" points="126.68 258.67 131.01 267.24 131.19 267.59 124.94 233.19 56.21 267.83 78.8 293.93 74.32 285.04 126.68 258.67"/>
          <polygon class="cls-6" points="78.8 293.93 56.21 267.83 124.94 233.19 124.94 233.19 124.52 233.4 56.19 267.82 78.8 293.96 78.8 293.93"/>
          <polygon class="cls-6" points="90.01 266.34 89.81 266.03 134.2 239.11 129.21 230.9 79.08 261.29 84.24 269.81 84.25 269.83 90.01 266.34"/>
          <polygon class="cls-6" points="96.61 233.53 96.61 233.56 96.62 233.55 96.61 233.53"/>
          <polygon class="cls-6" points="135.24 394.82 210.49 379.55 195.69 348.74 195.66 348.74 195.66 348.74 195.64 348.74 189.1 350.07 189.19 350.43 138.32 360.77 138.24 360.4 138.24 360.4 138.24 360.4 135.24 394.82"/>
          <polygon class="cls-6" points="200.91 341.94 200.94 341.93 200.94 341.93 200.91 341.94"/>
          <path class="cls-6" d="m26.09,251.36l12.69,25.21,116.3-58.58c-2.73-9.19-5.35-18.41-7.87-27.64l-121.11,61.02h0s0-.01,0-.01Z"/>
          <path class="cls-4" d="m.59,242.07c-3.11,9.03,6.5,18.89,16.3,13.95h0l9.22-4.66h0l121.12-61.03h0c-.8-2.89-1.56-5.78-2.34-8.67-8.26-1.24-16.49-2.6-24.69-3.96l-25.92,13.06c-.22.1-.44.21-.66.3-6.75,2.7-12.99-5.48-8.18-11.34h0l17.13-20.8c-1.88-8.36-3.67-16.76-5.39-25.14-2.39-.5-4.76-1.03-7.12-1.51L2.73,238.3c-.99,1.21-1.7,2.47-2.13,3.78h0v-.02h0Z"/>
          <polygon class="cls-4" points="26.09 251.36 26.09 251.36 26.1 251.36 147.22 190.36 147.21 190.35 26.09 251.36"/>
          <path class="cls-6" d="m93.62,191.06c.22-.09.43-.18.65-.29l25.92-13.06c-4.62-.76-9.22-1.55-13.82-2.35-1.31-5.46-2.56-10.94-3.8-16.42l-17.13,20.8h0c-4.79,5.83,1.44,14.02,8.17,11.32h0Z"/>
          <polygon class="cls-5" points="121.51 372.03 121.87 371.96 121.87 371.96 121.51 372.03"/>
          <polygon class="cls-5" points="121.68 371.8 121.77 372.16 121.69 371.8 121.68 371.8"/>
          <rect class="cls-5" x="86.33" y="252.71" width="51.9" height=".75" transform="translate(-114.48 94.21) rotate(-31.06)"/>
          <rect class="cls-5" x="140.01" y="355.73" width="51.9" height=".75" transform="translate(-85.3 54.08) rotate(-14.77)"/>
          <path class="cls-6" d="m110.3,275.3l-2.38,4.55,8.69,3.17c.41-.23.84-.39,1.28-.52,1.15-3.39,2.31-6.74,3.49-10.06-4.53-3.01-8.55-1.98-11.08,2.86h0Z"/>
          <path class="cls-6" d="m228.39,334.07c-6.76-1.33-13.76.16-19.41,4.16l-5.59,3.95,14.38,1.2c.07-.02.15-.04.22-.06-.12-.13-.26-.26-.39-.37,3.59-2.98,7.17-5.94,10.77-8.89h.02,0Z"/>
          <path class="cls-6" d="m226.64,367.66l-2.38,4.55,8.69,3.17c.41-.23.84-.39,1.28-.52,1.15-3.39,2.31-6.74,3.49-10.06-4.53-3.01-8.55-1.98-11.08,2.86h0Z"/>
          <path class="cls-6" d="m496.38,297.3c2.5-5.3,5.01-10.55,7.53-15.74-6.23-6.22-12.57-5.59-17.49,1.76l-4.61,6.9,12.51,7.6c.68-.26,1.36-.43,2.06-.52h0Z"/>
          <path class="cls-6" d="m244.01,245.63c-6.83-.92-13.73.99-19.12,5.32l-5.34,4.28,14.43.33c.07-.02.15-.05.22-.07-.13-.12-.27-.24-.41-.35,3.4-3.19,6.8-6.36,10.22-9.52h0Z"/>
          <path class="cls-6" d="m244.95,282.15c-2.26,1.54-4.52,3.07-6.76,4.62l12.42.58-5.66-5.19h0Z"/>
          <path class="cls-6" d="m313.95,206.73c-2.26,1.54-4.52,3.07-6.76,4.62l12.42.58-5.66-5.19h0Z"/>
          <path class="cls-6" d="m407.98,405.2l-3.04,4.13,8.1,4.46c.44-.16.89-.26,1.34-.32,1.65-3.17,3.31-6.31,4.99-9.41-4.02-3.67-8.15-3.26-11.39,1.14h0Z"/>
          <path class="cls-6" d="m396.03,438.46c2.03-5.3,4.06-10.55,6.1-15.74-5.05-6.22-10.19-5.59-14.18,1.76l-3.74,6.9,10.14,7.6c.55-.26,1.1-.43,1.67-.52h0Z"/>
          <path class="cls-6" d="m399.56,321.49c-2.35,1.39-4.7,2.78-7.04,4.19l12.36,1.36-5.32-5.54h0Z"/>
          <path class="cls-6" d="m389.73,390.11c-2.35,1.39-4.7,2.78-7.04,4.19l12.36,1.36-5.32-5.54h0Z"/>
          <path class="cls-6" d="m458.14,214.57c-2.35,1.39-4.7,2.78-7.04,4.19l12.36,1.36-5.32-5.54h0Z"/>
          <path class="cls-6" d="m369.65,350.88l-3.04,4.13,8.1,4.46c.44-.16.89-.26,1.34-.32,1.65-3.17,3.31-6.31,4.99-9.41-4.02-3.67-8.15-3.26-11.39,1.14h0Z"/>
          <path class="cls-6" d="m593.27,320.61l-3.04,4.13,8.1,4.46c.44-.16.89-.26,1.34-.32,1.65-3.17,3.31-6.31,4.99-9.41-4.02-3.67-8.15-3.26-11.39,1.14h0Z"/>
          <path class="cls-6" d="m478.69,330.71c-2.35,1.39-4.7,2.78-7.04,4.19l12.36,1.36-5.32-5.54h0Z"/>
          <path class="cls-6" d="m619.66,341.66c-2.63-.73-5.26-1.45-7.9-2.16l7.6,9.84.29-7.68h.01Z"/>
          <polygon class="cls-1" points="645.8 368.43 645.81 368.46 661.46 371.07 661.55 370.51 661.46 371.04 645.8 368.43"/>
          <polygon class="cls-1" points="610.26 362.52 610.26 362.54 638.91 367.31 638.89 367.28 610.26 362.52"/>
          <path class="cls-1" d="m689.49,407.03h-.01l-.02.37-152.49-9.07h-.02l152.52,9.07.02-.38h0Z"/>
          <path class="cls-1" d="m689.49,407.02l-151.87-9.03h-.02l151.89,9.04h0Z"/>
          <polygon class="cls-1" points="513.83 364.71 554.34 371.46 554.46 370.72 554.44 370.71 554.31 371.45 513.83 364.71"/>
          <path class="cls-1" d="m603.43,372.81c-4.44-.89-8.87-1.77-13.28-2.6-1.92,1.01-3.86,2.03-5.8,3.04l18.34,1.09.74-1.53Z"/>
          <polygon class="cls-1" points="511.48 363.56 508.21 363.01 508.21 363.01 511.48 363.56"/>
          <polygon class="cls-6" points="511.48 363.56 554.44 370.71 554.44 370.71 554.46 370.72 554.34 371.46 513.83 364.71 508.46 363.82 508.65 364.43 503.96 372.41 504.04 389.2 563.97 392.76 562.62 376.42 520.5 369.41 562.62 376.42 561.87 367.27 561.85 367.27 561.85 367.27 561.8 367.27 506.68 358.08 508.21 363.01 511.48 363.56"/>
          <polygon class="cls-6" points="500.17 375.08 500.99 363.86 489.12 388.31 503.92 389.19 500.17 375.08"/>
          <path class="cls-6" d="m670.96,390.94l-1.98-24.06h-.05l-26.26-4.38,2.68,5.1,16.22,2.7-.04.21-.09.56-15.64-2.61.9,1.72,6.13,8.42-.5,8.81-1.34,1.46-3.18-5.67.93-2.19-9.55-13.15h.01l-.31-.55-28.65-4.77v-.02h0l.12-.74,28.05,4.67-2.88-5.13-24.39-4.06-13.49,27.76c3.59.72,7.19,1.46,10.79,2.22l62.5,3.72.02-.02h0Z"/>
          <path class="cls-6" d="m614.22,375.02c-3.61-.76-7.2-1.49-10.79-2.22l-.74,1.53,11.54.69h-.01Z"/>
          <polygon class="cls-6" points="691.13 379.23 691.11 379.6 691.11 379.6 691.13 379.23"/>
          <polygon class="cls-6" points="689.49 407.03 689.46 407.41 689.47 407.39 689.49 407.03 689.49 407.03 689.49 407.03"/>
          <path class="cls-6" d="m562.59,383.5l.63,7.69-70.92-11.81-46.16-2.7c.11-.11.22-.25.34-.36l19.33,1.13-19.02-1.11,42,2.46-1.33-.22.2-.41-42.19-2.51c-2.66,2.82-5.31,5.64-7.94,8.48,8.83,6.85,17.76,13.57,26.76,20.16l83.63,4.97c15.47-8.26,30.56-16.24,45.28-23.98l-30.63-1.79h.02Z"/>
          <path class="cls-6" d="m614.22,375.02l-11.54-.69-.21.44,14.57.85c-.94-.2-1.88-.41-2.82-.61h0Z"/>
          <path class="cls-4" d="m681.87,414.41h0v.38l-153.41.07c-10.67,6.55-21.52,13.24-32.54,20.1-15.28-.8-30.37-1.3-45.29-1.51-2.57,3.35-5.12,6.7-7.65,10.08l306.49-.13v-29.01l-67.6.02h0Z"/>
          <path class="cls-4" d="m518.19,414.41l-80.4-12.33c3.56,3.14,7.12,6.27,10.69,9.38-3.37,3.14-6.71,6.3-10.04,9.49,14.71,2.48,29.56,5.26,44.53,8.38,11.94-5.1,23.68-10.07,35.22-14.91h0Z"/>
          <path class="cls-6" d="m702.27,363.85c1.65-3.17,3.31-6.31,4.99-9.41-4.02-3.67-8.15-3.26-11.39,1.14l-3.04,4.13,8.1,4.46c.44-.16.89-.26,1.34-.32Z"/>
          <polygon class="cls-5" points="645.38 367.63 645.8 368.43 661.46 371.04 661.55 370.51 661.58 370.33 645.38 367.63"/>
          <polygon class="cls-5" points="638.44 366.47 610.38 361.8 610.26 362.52 638.89 367.28 638.44 366.47"/>
          <polygon class="cls-5" points="661.58 370.33 661.55 370.51 661.58 370.3 645.36 367.6 645.38 367.63 661.58 370.33"/>
          <polygon class="cls-5" points="638.44 366.47 638.42 366.44 610.38 361.78 610.25 362.52 610.26 362.52 610.38 361.8 638.44 366.47"/>
          <path class="cls-6" d="m710.08,405.52l9.91,7.51-1.73-7.48h0c-2.73-.02-5.46-.03-8.19-.02h.01Z"/>
          <polygon class="cls-5" points="508.46 363.81 513.83 364.71 554.31 371.45 554.44 370.71 511.48 363.56 508.21 363.01 508.46 363.81"/>
          <polygon class="cls-5" points="508.46 363.81 508.46 363.82 513.83 364.71 508.46 363.81"/>
          <polygon class="cls-5" points="554.44 370.71 511.48 363.56 554.44 370.71 554.44 370.71"/>
          <path class="cls-6" d="m690.32,384.93h0c-2.35,1.38-4.7,2.77-7.04,4.18l12.36,1.36-5.32-5.54h0Z"/>
          <path class="cls-7" d="m640.29,357.95l-6.12-1.06c-.09.5-.17,1-.26,1.51l1.64,2.91,7.14,1.19-2.39-4.55h-.01Z"/>
          <polygon class="cls-7" points="638.89 367.28 638.91 367.31 645.81 368.46 645.8 368.43 638.89 367.28"/>
          <polygon class="cls-7" points="645.36 367.6 642.68 362.5 635.54 361.31 638.42 366.44 645.36 367.6"/>
          <polygon class="cls-7" points="639.22 367.86 639.21 367.86 648.76 381.01 647.83 383.2 651.01 388.87 652.35 387.41 652.85 378.6 646.72 370.18 645.81 368.46 638.91 367.31 639.22 367.86"/>
          <polygon class="cls-7" points="645.8 368.43 645.38 367.63 638.44 366.47 638.89 367.28 645.8 368.43"/>
          <polygon class="cls-7" points="638.44 366.47 645.38 367.63 645.36 367.6 638.42 366.44 638.44 366.47"/>
          <path class="cls-6" d="m559.24,407.83l12.36,1.36-5.32-5.54h0c-2.35,1.38-4.7,2.77-7.04,4.18h0Z"/>
          <path class="cls-6" d="m578.65,404.97h.02c-1.71.17-3.42.35-5.14.54l2.55,4.86,2.57-5.4h0Z"/>
          <polygon class="cls-7" points="515.27 370.55 514.04 366.57 502.92 356.59 489.79 342.13 485.62 341.43 484.4 346.87 485.5 347.22 510.1 369.34 509.58 376.33 512.61 370.11 515.27 370.55"/>
          <polygon class="cls-7" points="503.92 389.19 504.04 389.2 503.96 372.41 508.65 364.43 508.46 363.82 503.11 362.92 503.23 362.18 503.26 362.19 503.26 362.19 508.21 363.01 506.68 358.08 504.02 357.64 500.99 363.86 500.17 375.08 503.92 389.19"/>
          <polygon class="cls-7" points="492.27 368.2 492.27 367.77 492.16 367.76 492.27 368.2"/>
          <polygon class="cls-7" points="508.46 363.81 508.21 363.01 503.26 362.19 503.14 362.93 508.46 363.81"/>
          <polygon class="cls-7" points="503.14 362.93 503.26 362.19 503.23 362.18 503.11 362.92 508.46 363.82 508.46 363.81 503.14 362.93"/>
          <path class="cls-6" d="m432.12,443.4c1.65-3.17,3.31-6.31,4.99-9.41-4.02-3.67-8.15-3.26-11.39,1.14h0l-3.04,4.13,8.1,4.46c.44-.16.89-.26,1.34-.32h0Z"/>
          <path class="cls-6" d="m448.66,353.58h0c-2.35,1.38-4.7,2.77-7.04,4.18l12.36,1.36-5.32-5.54h0Z"/>
          <path class="cls-6" d="m708.52,393.72c-1.6,1.05-3.19,2.1-4.8,3.16-7.54-.86-15.03-1.65-22.49-2.38l-62.46-.99h.02l.33-1.05-19.35,1.76c-13.41,9.84-27.15,19.97-41.22,30.44l151.53-13.62-1.56-17.31h0Z"/>
          <path class="cls-4" d="m752.75,250.07l17.75,9.38c6.58,3.49,13.2.14,15.87-5.18,1.82-3.65,1.8-8.26-1.37-12.25h0l-128.69-119.75,47.13,59.57c4.84,6.12-2.14,14.52-9.04,10.87l-160.41-84.83c2.06,10.03,4.25,20.03,6.58,30l212.17,112.21h0v-.02s0,0,0,0Z"/>
          <g id="Group_133" data-name="Group 133">
            <path id="Path_1" data-name="Path 1" class="cls-3" d="m415.5.26c8.12-1.04,16.32,1.02,23,5.75l119.59,85.17c7.13,5.06,11.81,12.86,12.93,21.52l14.11,112.52c2.17,17.25-10.43,33.09-28.08,35.3l-214.44,26.89c-17.64,2.21-33.76-10.02-35.92-27.27l-14.11-112.52c-1.05-8.67,1.56-17.39,7.21-24.05L394.64,11.52c5.29-6.24,12.73-10.26,20.86-11.24h.01Z"/>
            <path id="Path_13" data-name="Path 13" class="cls-7" d="m530.9,189.18l4.12,32.77,16.11-2.01.59,4.75-57.81,7.26-.59-4.75,16.11-2.01-4.12-32.77-63.84,8-2.57-20.52,49.35-90.38,29.68-3.73,12.16,96.9,20.76-2.6.81,6.51-20.75,2.6h0Zm-33.38-68.58l-30.89,55.79,37.29-4.68-6.41-51.12h0Z"/>
            <path id="Path_14" data-name="Path 14" class="cls-7" d="m438.44,212.36c-2.42,6.16-6.04,11.78-10.65,16.55-4.71,4.88-10.21,8.93-16.28,11.96-5.97,3.09-12.43,5.09-19.09,5.94-3.13.38-6.28.51-9.43.42-3.46-.07-6.88-.42-10.28-1.08-3.3-.63-6.54-1.59-9.63-2.89-2.87-1.16-5.49-2.85-7.75-4.96l1.25,9.98-5.93.74-5.66-45.02,9.33-1.16c.41,3.36,1.76,6.51,3.94,9.11,2.18,2.65,4.88,4.85,7.92,6.45,3.12,1.64,6.47,2.82,9.93,3.5,3.27.69,6.65.85,9.98.48,3.12-.44,6.17-1.29,9.06-2.55,3.16-1.31,6.13-3.02,8.83-5.1,2.63-1.99,4.81-4.5,6.4-7.38,1.58-2.87,2.19-6.15,1.73-9.38-.68-5.39-2.96-9.29-6.86-11.75-4.43-2.66-9.26-4.61-14.31-5.75-5.63-1.37-11.68-2.62-18.15-3.76-6.33-1.08-12.5-2.96-18.37-5.57-5.82-2.59-10.94-6.49-15-11.38-4.22-5.01-6.9-12.04-8.04-21.1-.83-6.2.1-12.52,2.66-18.24,2.57-5.77,6.19-11.02,10.67-15.46,4.56-4.55,9.85-8.31,15.64-11.12,5.58-2.81,11.56-4.64,17.75-5.46,2.88-.34,5.78-.49,8.68-.45,3.24.02,6.49.31,9.7.83,3.13.51,6.2,1.35,9.15,2.51,2.7,1.03,5.17,2.6,7.27,4.58l-1.06-8.49,5.08-.64,5.12,40.76-8.91,1.12c-.34-2.91-1.64-5.64-3.66-7.74-2.13-2.22-4.62-4.06-7.37-5.44-2.83-1.43-5.86-2.44-8.99-2.97-2.83-.53-5.7-.63-8.55-.33-2.88.41-5.73,1.17-8.45,2.24-3.02,1.14-5.82,2.73-8.35,4.72-2.41,1.88-4.45,4.19-6.05,6.8-1.54,2.56-2.16,5.57-1.74,8.52.68,5.39,3,9.3,6.97,11.75,4.41,2.62,9.25,4.49,14.28,5.55,5.54,1.24,11.57,2.36,18.1,3.34,6.31.92,12.5,2.69,18.33,5.24,5.76,2.56,10.88,6.37,14.99,11.17,4.29,4.93,7,11.93,8.13,20.98.93,6.72.13,13.59-2.34,19.92l.02.03h0l-.03-.04h0Z"/>
          </g>
          <g>
            <path class="cls-6" d="m257.33,400.85c.16-1.02.31-2.04.47-3.06-9.4-4.55-18.9-8.31-28.4-11.29.63-3.4,1.26-6.83,1.88-10.26l-113.56,13.24,3.19,27.27h0l136.42-15.9h0Z"/>
            <path class="cls-6" d="m249.84,376.7c8.68,4.89,17.18,10.54,25.44,16.94-.36.97-.74,1.94-1.1,2.9l118.49,11.1c-8.76-6.89-17.44-13.91-26.03-21.03,2.72-2.76,5.47-5.49,8.23-8.22l-121.04-11.34c-1.33,3.23-2.65,6.45-3.98,9.65h0Z"/>
            <path class="cls-4" d="m409.9,423.4c-3.49-3.22-6.96-6.46-10.44-9.7l.02-.02h-.05s.03.02.04.03l-118.41-21.72c-2.81,5.82-5.61,11.62-8.39,17.37,3.41,3.86,6.73,7.87,9.96,12.03l107.61,19.73c6.49-5.99,13.03-11.92,19.66-17.72h0Z"/>
            <path class="cls-4" d="m262.91,403.15l-136.9,8.19h0l-.02-.34h0v-.04l-67.47,4.06,1.74,28.96,211.2-12.65c-4.14-3.27-8.32-6.37-12.55-9.31,1.33-6.24,2.66-12.54,4-18.87h0Z"/>
          </g>
          <path class="cls-4" d="m640.24,112.19l111.47,82.24-145.97-148.21c.84,3.92,1.7,7.84,2.6,11.75-5.99,1.14-11.98,2.35-17.95,3.6.03.02.05.04.08.07l49.79,50.54h0v.02s-.01,0-.01,0h0Z"/>
          <path class="cls-7" d="m149.09,333.16l24.61,7.67c-.76-1.88-1.53-3.75-2.29-5.63l-2.57-.8-17.96-7.67-13.32,3.62-10.26-5.66s-.11,0-.17-.02l-.03-.1-5.8-3.19-3.19-6.25-6.13-20.03-4.14,2.08,14.83,29.36,13.84,8.05,12.55-1.47h0v.03h.03Z"/>
          <path class="cls-6" d="m752.45,359.9l-3.04,4.13,8.1,4.46c.44-.16.89-.26,1.34-.32,1.65-3.17,3.31-6.31,4.99-9.41-4.02-3.67-8.15-3.26-11.39,1.14h0Z"/>
          <path class="cls-6" d="m732.91,400.54c2.03-5.3,4.06-10.55,6.1-15.74-5.05-6.22-10.19-5.59-14.18,1.76l-3.74,6.9,10.14,7.6c.55-.26,1.1-.43,1.67-.52h0Z"/>
          <path class="cls-6" d="m708.73,347.61c-2.35,1.39-4.7,2.78-7.04,4.19l12.36,1.36-5.32-5.54h0Z"/>
          <path class="cls-6" d="m678.82,377l-3.04,4.13,8.1,4.46c.44-.16.89-.26,1.34-.32,1.65-3.17,3.31-6.31,4.99-9.41-4.02-3.67-8.15-3.26-11.39,1.14h0Z"/>
          <path class="cls-6" d="m766.42,392.17h0c-2.35,1.38-4.7,2.77-7.04,4.18l12.36,1.36-5.32-5.54h0Z"/>
          <path class="cls-6" d="m711.68,315.66l-3.04,4.13,8.1,4.46c.44-.16.89-.26,1.34-.32,1.65-3.17,3.31-6.31,4.99-9.41-4.02-3.67-8.15-3.26-11.39,1.14h0Z"/>
          <path class="cls-6" d="m692.14,356.3c2.03-5.3,4.06-10.55,6.1-15.74-5.05-6.22-10.19-5.59-14.18,1.76l-3.74,6.9,10.14,7.6c.55-.26,1.1-.43,1.67-.52h0Z"/>
          <path class="cls-6" d="m667.96,303.37c-2.35,1.39-4.7,2.78-7.04,4.19l12.36,1.36-5.32-5.54h0Z"/>
          <path class="cls-6" d="m638.05,332.76l-3.04,4.13,8.1,4.46c.44-.16.89-.26,1.34-.32,1.65-3.17,3.31-6.31,4.99-9.41-4.02-3.67-8.15-3.26-11.39,1.14h0Z"/>
          <path class="cls-6" d="m725.65,347.93h0c-2.35,1.38-4.7,2.77-7.04,4.18l12.36,1.36-5.32-5.54h0Z"/>
          <path class="cls-4" d="m290.81,428.04l-80.4-12.33c3.56,3.14,7.12,6.27,10.69,9.38-3.37,3.14-6.71,6.3-10.04,9.49,14.71,2.48,29.56,5.26,44.53,8.38,11.94-5.1,23.68-10.07,35.22-14.91h0Z"/>
          <path class="cls-7" d="m115.97,388.73l-5.23-25.24c-1.28,1.58-2.54,3.16-3.81,4.73l.55,2.64,2.01,19.43,9.63,9.89.03,11.72s.05.1.06.16l-.07.07.02,6.62-3.92,5.82-14.54,15.08,3.83,2.61,18.48-27.21.33-16.01-7.37-10.26h.03s-.01-.04-.01-.04h0Z"/>
          <path class="cls-6" d="m111.73,406.1l-2.38,4.55,8.69,3.17c.41-.23.84-.39,1.28-.52,1.15-3.39,2.31-6.74,3.49-10.06-4.53-3.01-8.55-1.98-11.08,2.86h0Z"/>
        </g>
      </g>
    </g>
  </g>
</svg>