<?xml version="1.0" encoding="UTF-8"?>
<svg id="Layer_2" data-name="Layer 2" xmlns="http://www.w3.org/2000/svg" viewBox="0 0 766.47 604.43">
  <defs>
    <style>
      .cls-1 {
        fill: rgba(92, 92, 92, 0);
      }

      .cls-1, .cls-2, .cls-3, .cls-4, .cls-5, .cls-6, .cls-7 {
        stroke-width: 0px;
      }

      .cls-2 {
        fill: none;
      }

      .cls-3 {
        fill: #756746;
      }

      .cls-4 {
        fill: #5c5c5c;
      }

      .cls-5 {
        fill: #2c2c7c;
      }

      .cls-6 {
        fill: #d0d8d7;
      }

      .cls-7 {
        fill: #fff;
      }
    </style>
  </defs>
  <g id="Layer_8" data-name="Layer 8">
    <g>
      <rect class="cls-2" x="157.46" y="506.25" width="0" height=".37" transform="translate(-100.33 42.96) rotate(-11.81)"/>
      <path class="cls-2" d="m304.97,268.07l11.51,5.23,17.11,19.29c-1.32,8.47-2.55,16.97-3.69,25.48,1.99,1.26,4.01,2.51,6.01,3.77l1.33,9.06.84-7.7c4.06,2.54,8.11,5.08,12.2,7.6l1.27-16.83c-.81-.33-1.63-.66-2.45-.99l-.59-9.46,4.22-8.24-3.79-10.14-3.72-2.97.18.49-4.22,8.24.17,2.72.86.69-.16,10.58.2,3.19-.24-.72-.08,5.21,1.84,5.6c-2.19-.9-4.39-1.78-6.57-2.69-.33-8.58-.55-17.16-.7-25.73l1.1.88.13-8.42-18.42-14.72-12.23-3.19-9.97-12.53-6.03-7.58.81-8.56-1.5-1.8-.7-6.98.78-10.48-5.97-6.92-1.64-1.9-.55,4.72-8.39,27.92,7.48,13.55-3.99,4.27,10.96,114,8.91-118,7.69,14.05Z"/>
      <path class="cls-2" d="m74.59,187.29h0c-1.27.92-2.28,1.97-3.03,3.1.76-1.13,1.76-2.19,3.03-3.1Z"/>
      <path class="cls-2" d="m280.05,187.97c.1-.44.2-.88.3-1.31l-.74.07.44,1.24Z"/>
      <path class="cls-2" d="m280.35,186.66l3.95-.38c-.5-3.47-1-6.94-1.51-10.41-.81,3.6-1.63,7.19-2.44,10.79Z"/>
      <path class="cls-2" d="m290.91,210.51v-.04s-2.83-7.93-2.83-7.93l-.2-.56-2.2-6.17c.29,1.98.57,3.96.86,5.94.1.69.2,1.37.3,2.06l.58,3.99,3.5,2.71Z"/>
      <path class="cls-2" d="m302.1,251.69l-.14-.17s0,.07,0,.1c.05.02.1.05.15.07Z"/>
      <polygon class="cls-2" points="207.48 222.52 207.52 222.89 207.55 223.26 207.55 223.26 207.52 222.89 207.48 222.52 207.48 222.52"/>
      <path class="cls-6" d="m417.79,448.12l5.05,2.78c-1.26-1.51-2.5-3.03-3.75-4.54l-1.3,1.76Z"/>
      <path class="cls-5" d="m412.17,36.97c-.31.02-.62.04-.94.07l1.1.29-.16-.37Z"/>
      <path class="cls-2" d="m342.92,9.27s.02-.01.03-.02c.33-.19.64-.34.93-.49,6.84-3.67,14.27-5.9,21.85-6.63,7.93-.76,16.02.11,23.75,2.66l3.17,1.05c-1.57-1.94-3.15-3.89-4.7-5.84l-173.95,16.72c-2.87,12.61-5.57,25.27-8.07,37.96,8.41,5.76,16.94,11.43,25.53,17.05l111.47-62.47Z"/>
      <polygon class="cls-2" points="298.89 171.57 298.88 171.56 293.87 172.04 293.87 172.05 298.89 171.57"/>
      <path class="cls-2" d="m279.21,189.14c.08.52.15,1.04.23,1.56.1-.43.19-.86.29-1.29-.17-.09-.35-.18-.52-.27Z"/>
      <path class="cls-2" d="m260.99,175.2c-.11,1.37-.23,2.74-.34,4.11,2.67,1.43,5.36,2.85,8.05,4.27.26-3.07.53-6.13.81-9.2l-8.51.82Z"/>
      <path class="cls-2" d="m280.05,187.97l-.44-1.24-.74.07c.11.78.23,1.56.34,2.34.17.09.34.18.52.27.11-.48.22-.96.32-1.44Z"/>
      <polygon class="cls-6" points="290.91 210.48 290.91 210.51 290.93 210.53 290.91 210.48"/>
      <polygon class="cls-6" points="290.61 216.54 290.47 216.37 289.69 226.85 290.39 233.83 291.89 235.63 293.39 219.75 290.61 216.54"/>
      <polygon class="cls-6" points="291.22 211.35 291.29 210.81 290.93 210.53 291.22 211.35"/>
      <path class="cls-6" d="m337.56,293.8l.05-3.16-1.1-.88c.15,8.57.37,17.15.7,25.73,2.18.91,4.38,1.79,6.57,2.69l-1.84-5.6.08-5.21-2.62-7.98-1.84-5.6Z"/>
      <polygon class="cls-6" points="342.05 304.9 342.22 294.32 341.35 293.63 341.77 300.37 342.05 304.9"/>
      <polygon class="cls-4" points="263.67 146.58 263.67 146.58 265.35 146.42 265.35 146.42 263.67 146.58"/>
      <polygon class="cls-4" points="374.57 135.92 379.8 135.42 379.8 135.42 374.57 135.92 374.57 135.92"/>
      <polygon class="cls-1" points="265.34 146.42 263.67 146.58 263.67 146.58 265.35 146.42 265.34 146.42"/>
      <polygon class="cls-1" points="379.8 135.42 379.8 135.42 374.56 135.92 374.57 135.92 379.8 135.42"/>
      <path class="cls-5" d="m353.42,64.54c-2.81,2.91-5,6.37-6.44,10.15-2.9,7.65-2.07,16.22,2.23,23.18,2.13,3.44,4.94,6.41,8.26,8.74,3.48,2.45,7.37,4.25,11.49,5.31,1.19.31,2.4.56,3.61.75.27-.22.53-.44.8-.65-1.41-.2-2.82-.47-4.22-.82-4.03-1.03-7.85-2.79-11.25-5.19-3.23-2.27-5.97-5.16-8.05-8.52-4.18-6.76-4.98-15.08-2.16-22.52,1.4-3.69,3.54-7.06,6.28-9.9,2.88-3.01,6.29-5.46,10.05-7.25,3.52-1.68,7.28-2.81,11.14-3.34l-2.22-.37c-3.17.63-6.28,1.64-9.24,3.04-3.85,1.82-7.33,4.33-10.27,7.4Z"/>
      <path class="cls-2" d="m351.55,313.98l-1.27,16.83c5.12,3.16,10.26,6.31,15.43,9.43-1.41,13.21-2.61,26.46-3.59,39.74.98-13.28,2.18-26.53,3.59-39.74-5.17-3.12-10.3-6.27-15.43-9.43l-5.9,78.19h.05s3.27,18.83,3.27,18.83l12.86-1.24c.5-.3,1-.6,1.51-.9l.65.68,14.59-1.4c-.09.14-.19.27-.28.4-2.19,3.19-4.37,6.39-6.53,9.61,1.15.64,2.31,1.25,3.47,1.88,5.33-5.36,10.7-10.68,16.13-15.92-12.4-10.26-24.61-20.77-36.62-31.53,11.23-10.46,22.67-20.68,34.28-30.66-11.62-10.75-23.03-21.74-34.22-32.96,12.01-9.97,24.19-19.68,36.54-29.15-10.8-11.2-21.38-22.61-31.72-34.25,12.74-9.43,25.64-18.6,38.69-27.5-9.9-11.53-19.56-23.27-28.97-35.2l-9.85,25.93-.35,4.62h0s-.06.75-.06.75h0s-1.67,22.13-1.67,22.13l6.27,65.27c-3.64-1.46-7.25-2.94-10.87-4.42Z"/>
      <polygon class="cls-5" points="337.37 413.1 289.15 409.46 289.01 410.2 337.31 413.84 337.37 413.1"/>
      <path class="cls-6" d="m291.07,399.59l-1.03,5.3,54.33,4.1,5.9-78.19c-4.09-2.52-8.14-5.06-12.2-7.6l-.84,7.7-1.33-9.06c-2-1.26-4.02-2.5-6.01-3.77,1.14-8.51,2.38-17,3.69-25.48l-17.11-19.29-11.51-5.23-7.69-14.05-8.91,118,2.65,27.57h.05Z"/>
      <polygon class="cls-6" points="289.15 409.46 337.37 413.1 337.31 413.84 289.01 410.2 284.49 433.51 284.41 433.9 284.41 433.9 347.69 427.82 344.42 409 344.37 408.99 290.04 404.89 289.15 409.46"/>
      <path class="cls-6" d="m405.32,392.73l-5.36,7.81,19.21-5.76c.92-.7,1.87-1.37,2.85-1.99,1.82-3.57,3.67-7.12,5.52-10.67-.88-1.2-1.77-2.4-2.65-3.6-7.91,2.33-14.84,7.31-19.57,14.2Z"/>
      <path class="cls-6" d="m445.36,421.52c.86-.54,1.72-1.07,2.58-1.61-.89.31-1.75.85-2.58,1.61Z"/>
      <path class="cls-6" d="m422.57,433.36c2.5-5.3,5.01-10.55,7.53-15.74-6.23-6.22-12.57-5.59-17.49,1.76l-4.61,6.9,12.51,7.6c.68-.26,1.36-.43,2.06-.52Z"/>
      <path class="cls-6" d="m393.3,437.88l-3.04,4.13,8.1,4.46c.44-.16.89-.26,1.34-.32,1.65-3.17,3.31-6.31,4.99-9.41-4.02-3.67-8.15-3.26-11.39,1.14Z"/>
      <path class="cls-6" d="m434.31,472.97l-3.04,4.13,8.1,4.46c.44-.16.89-.26,1.34-.32,1.03-1.97,2.07-3.91,3.1-5.86-1.7-1.93-3.4-3.87-5.09-5.81-1.58.45-3.08,1.57-4.42,3.4Z"/>
      <path class="cls-4" d="m752.17,289.07l-19.55-4.6h0s19.55,4.6,19.55,4.6c7.25,1.7,12.82-3.2,14.05-9.04-1.23,5.84-6.8,10.74-14.05,9.04Z"/>
      <path class="cls-1" d="m766.22,280.04c.84-4-.35-8.44-4.42-11.5h0s0,0,0,0c4.07,3.07,5.26,7.51,4.42,11.5Z"/>
      <path class="cls-4" d="m684.21,386.46l37.89,18.29h0s18.08,8.73,18.08,8.73c6.71,3.24,13.2-.34,15.67-5.77,1.69-3.72,1.49-8.31-1.81-12.19h0s-61.2-52.89-61.2-52.89l-8.62,43.84Z"/>
      <path class="cls-6" d="m427.23,452.25c1.65-3.17,3.31-6.31,4.99-9.41-4.02-3.67-8.15-3.26-11.39,1.14l-1.74,2.37c1.25,1.51,2.5,3.04,3.75,4.54l3.05,1.68c.44-.16.89-.26,1.34-.32Z"/>
      <path class="cls-6" d="m424.89,378.53c.88,1.2,1.77,2.4,2.65,3.6.82-1.57,1.62-3.15,2.44-4.72-1.73.25-3.43.63-5.09,1.12Z"/>
      <path class="cls-6" d="m443.86,423.21l-3.04,4.13,8.1,4.46c.44-.16.89-.26,1.34-.32,1.65-3.17,3.31-6.31,4.99-9.41-2.47-2.26-4.99-2.97-7.31-2.15-.86.54-1.72,1.07-2.58,1.61-.52.48-1.02,1.03-1.5,1.68Z"/>
      <path class="cls-6" d="m466.13,448.94c-6.61-1.95-13.71-1.12-19.71,2.35l-5.93,3.42,14.21,2.53c.07-.01.15-.03.22-.04-.11-.14-.23-.28-.35-.41,3.84-2.64,7.69-5.25,11.55-7.85Z"/>
      <path class="cls-6" d="m457.48,388.65c1.65-3.17,3.31-6.31,4.99-9.41-4.02-3.67-8.15-3.26-11.39,1.14l-3.04,4.13,8.1,4.46c.44-.16.89-.26,1.34-.32Z"/>
      <path class="cls-6" d="m438.73,469.57c1.69,1.94,3.39,3.88,5.09,5.81.63-1.18,1.25-2.38,1.88-3.55-2.35-2.15-4.74-2.89-6.97-2.26Z"/>
      <polygon class="cls-2" points="622.86 347.71 624.55 351.51 629.6 330.05 629.25 330.3 622.86 347.71"/>
      <polygon class="cls-6" points="510.54 366.7 513.11 368.73 524.13 375.82 527.22 383.1 522.44 388.66 522.33 400.74 518.63 390.51 520.16 377.74 503.23 366.82 492.95 367 458.15 470.85 466.2 471.47 458.15 470.85 455.72 478.1 455.77 478.11 512.8 487.52 553.53 365.96 510.54 366.7"/>
      <rect class="cls-5" x="491.19" y="455.26" width=".75" height="51.91" transform="translate(-89.37 849.61) rotate(-76.77)"/>
      <polygon class="cls-6" points="620.39 369.2 614.67 393.51 616.92 392.25 620.39 369.2"/>
      <polygon class="cls-6" points="633.3 314.3 642.84 316.55 650.18 313.17 650.39 312.55 630.83 313.03 630.98 321.99 631.55 321.73 633.3 314.3"/>
      <path class="cls-6" d="m680.58,438.47l-4.22.1-.51,3.79-4.65,2.25,39.42,9.27-2.28,9.71,17.31-30.36-21.96-5.16c-5.73,6.19-13.93,10.17-23.11,10.39Z"/>
      <polygon class="cls-6" points="631.55 321.73 642.84 316.55 633.3 314.3 631.55 321.73"/>
      <polygon class="cls-6" points="679.1 317.24 663.52 320.17 709.98 345.28 709.98 345.28 714.73 336.51 679.1 317.24"/>
      <rect class="cls-5" x="661.3" y="310.41" width=".75" height="51.91" transform="translate(182.8 903.49) rotate(-76.77)"/>
      <path class="cls-6" d="m473.58,410.13l-5.32-5.54c-2.35,1.39-4.7,2.78-7.04,4.19l12.36,1.36Z"/>
      <path class="cls-6" d="m361.05,426.53l1.65-.16-.65-.68c-.5.3-1,.6-1.51.9l.51-.05h0Z"/>
      <path class="cls-6" d="m436.38,396.9c.15,1.31.3,2.61.45,3.92l2.61-2.71c-.29-.38-.58-.76-.87-1.14l-2.2-.07Z"/>
      <path class="cls-6" d="m438.58,396.97c.29.38.58.76.87,1.14l1.05-1.08-1.91-.06Z"/>
      <path class="cls-6" d="m474.66,317.82l.87-.9c-.32,0-.65.02-.97.02.03.29.07.59.1.88Z"/>
      <path class="cls-7" d="m276.57,249.3l.84,8.72,3.99-4.27-7.48-13.55,8.39-27.92.55-4.72-5.74-6.64c.25-1.09.49-2.18.74-3.27l-.69-.8-2.85,6.9,3.23,8.66-4.42,15.96-1.57,2.56-1.02,10.8,6.03,7.58Z"/>
      <polygon class="cls-7" points="267.23 262.18 257.94 271.27 258.69 274.07 268.18 263.9 267.23 262.18"/>
      <rect class="cls-7" x="286.6" y="157.48" width="4.4" height="0" transform="translate(-13.74 28.36) rotate(-5.49)"/>
      <polygon class="cls-7" points="292.6 164.19 292.82 162.73 291.14 157.7 289.33 159.08 292.6 164.19"/>
      <polygon class="cls-7" points="531.84 331.42 530.3 349.62 534.01 364.21 534.12 346.99 538.89 339.06 535.81 328.69 524.79 318.59 522.21 315.69 514.9 315.87 531.84 331.42"/>
      <polygon class="cls-7" points="631.01 324.02 630.98 321.99 627.87 323.42 618.48 347.35 621.85 359.53 620.39 369.2 624.55 351.51 622.86 347.71 629.25 330.3 629.6 330.05 631.01 324.02 631.01 324.02"/>
      <polygon class="cls-7" points="600.98 401.16 590.95 412.39 605.29 402.85 612.57 402.48 614.67 393.51 600.98 401.16"/>
      <polygon class="cls-7" points="629.6 330.05 634.93 326.19 636.68 325.35 631.01 324.02 629.6 330.05"/>
      <polygon class="cls-7" points="616.92 392.25 614.67 393.51 612.57 402.48 614.53 402.38 621.41 394.01 623.61 379.24 628.46 360.32 624.55 351.51 620.39 369.2 616.92 392.25"/>
      <polygon class="cls-7" points="631.01 324.02 631.55 321.73 630.98 321.99 631.01 324.02 631.01 324.02"/>
      <polygon class="cls-7" points="650.18 313.17 642.84 316.55 650.95 318.45 655.6 316.2 656.12 312.41 650.39 312.55 650.18 313.17"/>
      <polygon class="cls-7" points="631.55 321.73 631.01 324.02 636.68 325.35 650.95 318.45 642.84 316.55 631.55 321.73"/>
      <rect class="cls-5" x="140.02" y="253.77" width="51.9" height=".37" transform="translate(-48.97 39.85) rotate(-11.94)"/>
      <rect class="cls-5" x="139.95" y="253.4" width="51.9" height=".38" transform="translate(-48.9 39.83) rotate(-11.95)"/>
      <path class="cls-4" d="m83.76,208.04c-10.73,2.27-17.5-9.71-12.2-17.65-5.3,7.94,1.47,19.92,12.2,17.65l10.11-2.14h0s-10.11,2.14-10.11,2.14Z"/>
      <polygon class="cls-4" points="74.59 187.29 74.59 187.29 186.12 107.09 186.12 107.09 74.59 187.29 74.59 187.29"/>
      <polygon class="cls-4" points="93.87 205.91 226.56 177.83 226.56 177.83 93.87 205.91 93.87 205.91"/>
      <polygon class="cls-1" points="93.87 205.91 226.56 177.83 226.56 177.83 93.87 205.9 93.87 205.91"/>
      <polygon class="cls-2" points="275.74 253.51 269.04 250.74 266.47 239.22 271.56 230.92 272.84 217.28 270.07 214.08 269.09 222.43 260.7 250.35 267.23 262.18 267.34 262.08 275.74 253.51"/>
      <path class="cls-2" d="m157.42,506.25h0s-5.69-26.88-5.69-26.88h0s-.16-.73-.16-.73l17.78-3.76,2.72-34.45h0s-.05,0-.05,0l-26.63-125.87-5.18-6.17-8.96-2.24-7.39-11.35-6.56-13.62-10.55-11.32-4.98,1.22-4.53-3.4-8.86-.3-1.21-23.96,5.36,19.85,15.39,4.4,11.95,11.26,8.18,12.56,14.75,12.9.6.75-9.44-44.61h0s-15.21-31.04-15.21-31.04l75.33-15.94-2.75,34.84.08.37h0s37.99,179.53,37.99,179.53h.05s15.04,30.68,15.04,30.68l37.31-7.89,7.91-30.96h-.05s-1.22-32.62-1.22-32.62l-23.71-112.05-13.14,17.71.81,11.75-4.46-11.41-8.33,11.23.81,11.75-5.52-14.11,8.3-10.2,7.39-9.45-6.97-2-3.85-11.16,5.39-11.53,2.6-16.36-4.18-8.24,2.06-7.18-8.29-7.66c.14-1.26.28-2.51.42-3.77-3.51-1.38-7.03-2.74-10.52-4.14-.05-1.38-.08-2.75-.12-4.13l-127.4,26.96-5.84-27.62-10.11,2.14c-10.73,2.27-17.5-9.71-12.2-17.65.76-1.13,1.76-2.19,3.03-3.1h0s111.53-80.21,111.53-80.21c-9.17-4.62-18.28-9.3-27.28-14.08,1.06-12.9,2.32-25.77,3.75-38.63L0,88.78l91.37,431.83,66.13-13.99-.08-.37Zm45.82-269.79l.08.37.08.37h0s-.08-.37-.08-.37l-.08-.37h0Zm-116.66-60.74h0c-1.27.92-2.28,1.97-3.03,3.1.76-1.13,1.76-2.19,3.03-3.1Z"/>
      <rect class="cls-5" x="220.75" y="212.74" width="0" height=".37" transform="translate(-12.85 14.18) rotate(-3.58)"/>
      <rect class="cls-5" x="220.71" y="212.37" width="0" height=".38" transform="translate(-19.31 22.07) rotate(-5.49)"/>
      <path class="cls-1" d="m86.58,175.72h0c-1.27.92-2.28,1.97-3.03,3.1.76-1.13,1.76-2.19,3.03-3.1Z"/>
      <polygon class="cls-5" points="285.61 409.19 285.55 409.94 289.01 410.2 289.15 409.46 285.61 409.19"/>
      <polygon class="cls-6" points="291.07 399.59 291.02 399.6 288.37 372.03 285.91 404.58 285.96 404.58 290.04 404.89 291.07 399.59"/>
      <polygon class="cls-6" points="289.01 410.2 285.55 409.94 285.61 409.19 289.15 409.46 290.04 404.89 285.96 404.58 274.62 434.46 284.49 433.51 289.01 410.2"/>
      <polygon class="cls-7" points="262.36 274.14 277.41 258.03 276.57 249.3 270.54 241.72 271.56 230.92 266.47 239.22 269.04 250.74 275.74 253.51 267.34 262.08 267.23 262.18 268.18 263.9 258.69 274.07 261.84 285.91 262.36 274.14"/>
      <rect class="cls-6" x="218.45" y="406.24" width="6.68" height="0" transform="translate(-37.85 23.08) rotate(-5.49)"/>
      <polygon class="cls-5" points="172.08 440.42 172.08 440.43 172.08 440.42 172.08 440.42"/>
      <polygon class="cls-5" points="172.08 440.42 222.86 429.68 222.78 429.31 172 440.05 172.08 440.42 172.08 440.42 172.08 440.42"/>
      <polygon class="cls-5" points="222.94 430.04 222.86 429.68 172.08 440.42 172.08 440.43 172.15 440.79 222.94 430.04"/>
      <rect class="cls-5" x="197.47" y="409.1" width="0" height="51.9" transform="translate(-250.77 600.41) rotate(-85.84)"/>
      <polygon class="cls-5" points="281.69 451.49 281.79 451.08 244.48 458.98 244.65 459.32 169.33 475.26 169.36 474.87 151.57 478.64 151.73 479.37 151.73 479.37 151.65 479 281.69 451.49"/>
      <polygon class="cls-5" points="284.41 433.9 284.49 433.51 274.62 434.46 274.47 434.85 284.41 433.9"/>
      <polygon class="cls-5" points="244.65 459.32 244.48 458.98 169.36 474.87 169.33 475.26 244.65 459.32"/>
      <path class="cls-5" d="m157.5,506.62l251.4-53.19c-.21-.08-.43-.17-.64-.25l-250.83,53.07.08.37Z"/>
      <polygon class="cls-6" points="222.78 429.31 222.86 429.68 229.39 428.29 191.41 248.77 140.63 259.51 140.55 259.15 133.97 260.54 143.41 305.14 161.07 327.12 176.48 328.63 182.51 355.87 191.92 362.96 177.65 357.88 175.38 344.93 173.08 333.15 167 337.11 156.05 332.7 150.87 321.07 145.4 314.56 172.03 440.43 172.08 440.42 172 440.05 222.78 429.31"/>
      <polygon class="cls-6" points="189.26 238.63 191.25 248.03 191.25 248.03 191.33 248.4 194.08 213.56 118.76 229.5 133.97 260.54 133.97 260.54 131.9 250.77 189.26 238.63"/>
      <polygon class="cls-6" points="140.47 258.78 191.25 248.03 189.26 238.63 131.9 250.77 133.97 260.54 140.55 259.15 140.47 258.78"/>
      <polygon class="cls-6" points="229.44 428.28 229.39 428.29 229.39 428.3 222.86 429.68 222.94 430.04 172.15 440.79 172.08 440.43 169.36 474.87 244.48 458.98 229.44 428.28"/>
      <path class="cls-6" d="m99.71,233.52l127.4-26.96c-.29-9.58-.48-19.16-.55-28.74l-132.69,28.07,5.84,27.62Z"/>
      <path class="cls-6" d="m374.3,450.5l-16.31.61h0s-76.94,2.88-76.94,2.88h0s.1-.38.1-.38l.44-1.7-129.85,27.48,5.69,26.88,250.83-53.07c-9.2-3.52-18.36-7.15-27.48-10.88-2.06,2.6-4.13,5.19-6.17,7.81-.1.13-.2.26-.3.39Zm-204.82,44.56l-.08-.37h0s.08.37.08.37h0Z"/>
      <path class="cls-6" d="m377.02,425.37l-13.98,1.34,4.34,4.52-12.36-1.36c1.59-.95,3.19-1.9,4.79-2.85l-12.05,1.16,2.51,14.48,16.69,1.26c2.32-2.37,4.67-4.71,7.01-7.07-1.15-.63-2.32-1.25-3.47-1.88,2.16-3.22,4.34-6.42,6.53-9.61Z"/>
      <polygon class="cls-6" points="273.69 436.89 350.26 442.67 347.75 428.19 274.32 435.24 273.69 436.89"/>
      <path class="cls-6" d="m366.61,444.28c.11-.12.23-.23.34-.35l-16.69-1.26.07.38,16.28,1.23Z"/>
      <polygon class="cls-6" points="273.56 437.25 350.33 443.05 350.26 442.67 273.69 436.89 273.56 437.25"/>
      <rect class="cls-6" x="311.94" y="401.66" width="0" height="76.99" transform="translate(-150.45 718.07) rotate(-85.68)"/>
      <rect class="cls-6" x="169.44" y="494.68" width="0" height=".37" transform="translate(-98.78 45.8) rotate(-11.95)"/>
      <path class="cls-6" d="m355.01,429.88l12.36,1.36-4.34-4.52-3.24.31c-1.6.95-3.19,1.89-4.79,2.85Z"/>
      <path class="cls-4" d="m74.59,187.29h0c-1.27.92-2.28,1.97-3.03,3.1-5.3,7.94,1.47,19.92,12.2,17.65l10.11-2.14h0s132.69-28.08,132.69-28.08c-.02-2.99-.04-5.99-.04-8.98-7.67-3.32-15.28-6.71-22.86-10.14l-28.4,6.01c-7.64,1.62-12.05-8.37-5.71-12.93h0s21.88-15.74,21.88-15.74c.32-8.56.71-17.12,1.2-25.68-2.18-1.09-4.33-2.2-6.51-3.29l-111.53,80.21s0,0,0,0Z"/>
      <path class="cls-6" d="m151.23,164.83c-5.27,5.77,1.11,14.64,8.26,11.48l26.55-11.74c-4.57-1-9.14-2.01-13.69-3.05-1.02-5.53-2-11.06-2.96-16.6l-18.16,19.91h0Z"/>
      <polygon class="cls-5" points="281.69 451.49 151.65 479 151.73 479.37 281.59 451.89 281.69 451.49"/>
      <path class="cls-5" d="m377.02,425.37c.09-.14.19-.27.28-.4l-14.59,1.4.33.35,13.98-1.34Z"/>
      <path class="cls-5" d="m359.8,427.03c.25-.15.5-.3.75-.44l-12.86,1.24.06.37,12.05-1.16Z"/>
      <polygon class="cls-5" points="284.41 433.9 274.47 434.85 274.32 435.24 347.75 428.19 347.69 427.82 284.41 433.9 284.41 433.9"/>
      <path class="cls-5" d="m363.04,426.72l-.33-.35-1.65.16h0s-.51.05-.51.05c-.25.15-.5.3-.75.44l3.24-.31Z"/>
      <path class="cls-5" d="m157.5,506.62l.08.37,251.97-53.31c-.21-.08-.43-.17-.64-.25l-251.4,53.19h0Z"/>
      <polygon class="cls-7" points="343.63 414.94 328.88 402.04 320.7 389.48 308.75 378.22 293.36 373.82 288 353.96 289.21 377.93 298.06 378.22 302.59 381.63 307.57 380.41 318.13 391.73 324.69 405.35 332.08 416.69 341.04 418.93 346.22 425.1 344.23 415.68 343.63 414.94"/>
      <polygon class="cls-7" points="156.05 332.7 167 337.11 173.08 333.15 175.38 344.93 177.65 357.88 191.92 362.96 182.51 355.87 176.48 328.63 161.07 327.12 143.41 305.14 145.4 314.56 150.87 321.07 156.05 332.7"/>
      <path class="cls-7" d="m341.35,293.63l-.17-2.72,4.22-8.24-.18-.49-5.85-4.67c.02,2.02.06,4.05.09,6.07l-1.72-1.38-.13,8.42,3.75,2.99Z"/>
      <path class="cls-7" d="m337.56,293.8l1.84,5.6c.79.33,1.58.65,2.38.97l-.42-6.74-3.75-2.99-.05,3.16Z"/>
      <polygon class="cls-7" points="342.25 308.1 342.05 304.9 342.02 307.38 342.25 308.1"/>
      <path class="cls-7" d="m339.39,299.4l2.62,7.98.04-2.47-.28-4.54c-.79-.32-1.59-.65-2.38-.97Z"/>
      <polygon class="cls-6" points="333.04 271.71 337.25 275.84 337.83 276.29 337.84 275.54 333.04 271.71"/>
      <path class="cls-6" d="m339.28,268.81c-1.82-.81-3.62-1.65-5.44-2.47l5.45,4.35c0-.63-.01-1.26-.02-1.88Z"/>
      <path class="cls-6" d="m302.1,251.69l7.5,9,13.72,1.47,8.82,8.64c-.03-1.76-.06-3.52-.08-5.28-10.05-4.54-20.05-9.14-29.94-13.84Z"/>
      <path class="cls-6" d="m339.3,270.7l-5.45-4.35c-.6-.27-1.2-.55-1.8-.82.02,1.76.05,3.52.08,5.28l.92.9,4.79,3.83v.75s1.52,1.22,1.52,1.22c-.03-2.27-.05-4.55-.06-6.82Z"/>
      <path class="cls-7" d="m291.25,205.97l.61-.06.06-.48.31-.74c-1.38-.71-2.77-1.42-4.14-2.14l2.83,7.93.34-4.51Z"/>
      <polygon class="cls-7" points="291.29 210.81 291.86 205.91 291.25 205.97 290.91 210.48 290.93 210.53 291.29 210.81"/>
      <path class="cls-7" d="m285.68,195.82l-3.34-9.34,1.96-.19s0,0,0,0l-3.95.38c-.1.44-.2.88-.3,1.31l.5,1.4.2.56,2.85,7.98.36.28-.06.54-.29-.82-3.52-2.73-.58-3.99c-.02-.17-.05-.33-.07-.5-.49,2.17-.98,4.35-1.48,6.52,2.86,1.51,5.71,3.03,8.58,4.53-.29-1.98-.57-3.96-.86-5.94Z"/>
      <path class="cls-7" d="m280.35,189.73c-.21-.11-.42-.21-.62-.32-.1.43-.19.86-.29,1.29.02.17.05.33.07.5l.84-1.47Z"/>
      <path class="cls-7" d="m280.35,189.73l.2-.35-.5-1.4c-.11.48-.22.96-.32,1.44.21.11.42.21.62.32Z"/>
      <path class="cls-7" d="m280.75,189.94l-.2-.56-.2.35c.13.07.27.14.4.21Z"/>
      <path class="cls-7" d="m279.5,191.2l.58,3.99,3.52,2.73-2.85-7.98c-.13-.07-.27-.14-.4-.21l-.84,1.47Z"/>
      <path class="cls-7" d="m282.86,207.56l1.64,1.9,2.32-5.61.02-.03c-.1-.69-.2-1.37-.3-2.06-2.87-1.5-5.72-3.02-8.58-4.53-.03.14-.06.28-.1.43l5.42,6.28-.43,3.64Z"/>
      <path class="cls-7" d="m282.86,207.56l.43-3.64-5.42-6.28c-.25,1.09-.49,2.18-.74,3.27l5.74,6.64Z"/>
      <path class="cls-7" d="m294.77,239.08s-.1-.05-.15-.07c0-.03,0-.07,0-.1l-2.74-3.28-.81,8.56,6.03,7.58-2.21-23.04c-.1,3.39-.2,6.79-.27,10.18l.14.17Z"/>
      <path class="cls-7" d="m293.96,219.03l-2.74-7.68-.61,5.19,2.77,3.21-1.5,15.88,2.74,3.28c.07-3.4.17-6.79.27-10.18l-.93-9.7h0Z"/>
      <path class="cls-7" d="m294.77,239.08l-.14-.17s0,.07,0,.1c.05.02.1.05.15.07Z"/>
      <path class="cls-6" d="m287.88,201.99l6.45-11.26,1.23-5.53-11.26,1.08,1.38,9.53,2.2,6.17Z"/>
      <path class="cls-6" d="m299.55,208.46c-1.28-.65-2.55-1.31-3.82-1.97-.04.78-.07,1.56-.11,2.34l3.93-.38Z"/>
      <path class="cls-6" d="m291.86,205.91l2.31-.22c-.65-.34-1.3-.67-1.95-1.01l-.31.74-.06.48Z"/>
      <path class="cls-6" d="m291.29,210.81l2.04,1.58-.32-3.3,2.61-.25c.04-.78.07-1.56.11-2.34-.52-.27-1.04-.53-1.55-.8l-2.31.22-.57,4.9Z"/>
      <path class="cls-6" d="m303,210.23l-7.47.72c-.04,1.02-.07,2.04-.12,3.05l3.31,2.57-.15,2.01,4.53-.43c.12-2.56.24-5.11.38-7.67-.16-.08-.32-.17-.48-.25Z"/>
      <path class="cls-6" d="m295.56,210.2l6.2-.6c-.74-.38-1.48-.76-2.22-1.14l-3.93.38c-.02.45-.04.91-.06,1.36Z"/>
      <path class="cls-6" d="m293.77,210.37l1.79-.17c.02-.45.04-.91.06-1.36l-2.61.25.32,3.3,2.09,1.62c.04-1.02.07-2.04.12-3.05l-1.68.16-.07-.75Z"/>
      <path class="cls-6" d="m293.77,210.37l.07.75,1.68-.16c.01-.25.02-.5.03-.76l-1.79.17Z"/>
      <path class="cls-6" d="m295.53,210.95l7.47-.72c-.41-.21-.82-.42-1.23-.63l-6.2.6c-.01.25-.02.5-.03.76Z"/>
      <path class="cls-7" d="m287.88,201.99l.2.56c1.38.72,2.76,1.42,4.14,2.14l5.41-13.11,1.03-6.67-3.12.3-1.23,5.53-6.45,11.26Z"/>
      <path class="cls-6" d="m275.46,163.25c.5,3.47,1,6.94,1.51,10.41l11.26-1.08,2.13-9.58-3.83-3.41.08-1.9-15.61,1.5c-.53,5.06-1.03,10.12-1.5,15.18l3.52-.34c.81-3.6,1.63-7.19,2.44-10.79Z"/>
      <polygon class="cls-6" points="291.79 157.2 291 157.27 291.14 157.7 291.79 157.2"/>
      <path class="cls-6" d="m279.61,186.73l.74-.07c.81-3.6,1.63-7.19,2.44-10.79.5,3.47,1,6.94,1.51,10.41l11.26-1.08,2.13-9.58-3.83-3.41v-.16s-2.52.24-2.52.24l-3.12.3-11.26,1.08s0,0,0,0l-3.95.38c-.8,3.52-1.59,7.04-2.39,10.56-.65-.34-1.29-.69-1.94-1.03-.12,1.41-.26,2.82-.37,4.23l10.55-1.01-.52-3.6,1.26,3.52Z"/>
      <polygon class="cls-6" points="293.87 172.04 294.1 166.54 292.6 164.19 291.34 172.28 293.87 172.04"/>
      <polygon class="cls-6" points="291.34 172.29 293.87 172.05 293.87 172.04 291.34 172.28 291.34 172.29"/>
      <path class="cls-6" d="m273.02,174.04l-3.52.34c-.28,3.06-.55,6.13-.81,9.2.65.34,1.29.69,1.94,1.03.8-3.52,1.59-7.04,2.39-10.56Z"/>
      <polygon class="cls-6" points="276.97 173.66 276.97 173.67 288.23 172.59 288.23 172.58 276.97 173.66"/>
      <path class="cls-6" d="m278.35,183.2l.52,3.6.74-.07-1.26-3.52Z"/>
      <polygon class="cls-6" points="288.23 172.58 288.23 172.59 291.34 172.29 291.34 172.28 288.23 172.58"/>
      <polygon class="cls-6" points="290.36 163.01 288.23 172.58 291.34 172.28 292.6 164.19 289.33 159.08 291.14 157.7 291 157.27 286.61 157.7 286.53 159.59 290.36 163.01"/>
      <path class="cls-6" d="m273.02,174.04l3.95-.38c-.5-3.47-1-6.94-1.51-10.41-.81,3.6-1.63,7.19-2.44,10.79Z"/>
      <path class="cls-6" d="m332.04,265.53c0-.21,0-.42,0-.63l1.81,1.44c1.82.82,3.62,1.65,5.44,2.47,0,.63.01,1.26.02,1.88l2.31,1.84,3.61,9.65,3.72,2.97,3.79,10.14-4.22,8.24.59,9.46c.81.33,1.63.66,2.45.99l4.59-60.85-3.3-34.36-49.98,4.8c-.4,9.31-.71,18.63-.9,27.96l.14.17c9.9,4.69,19.89,9.29,29.94,13.84Z"/>
      <path class="cls-6" d="m362.42,318.4l-6.27-65.27-4.59,60.85c3.62,1.48,7.23,2.96,10.87,4.42Z"/>
      <path class="cls-6" d="m345.22,282.18l-3.61-9.65-2.31-1.84c.02,2.27.04,4.55.06,6.82l5.85,4.67Z"/>
      <path class="cls-6" d="m332.03,264.9c0,.21,0,.42,0,.63.6.27,1.2.55,1.8.82l-1.81-1.44Z"/>
      <path class="cls-6" d="m303.1,218.15c-.07,1.55-.15,3.11-.21,4.66l49.88-4.79-.44-4.61h0s-49.22,4.74-49.22,4.74Z"/>
      <path class="cls-6" d="m292.22,204.68c.65.34,1.3.67,1.95,1.01l1.6-.15c-.02.32-.03.64-.04.95,1.27.66,2.54,1.32,3.82,1.97l51.82-4.98.95,9.93,5.28-27.23c-.06-.05-.12-.11-.18-.16.09-.08.17-.16.26-.24l1.29-6.67-60.31,5.8-1.03,6.67-5.41,13.11Z"/>
      <path class="cls-6" d="m295.77,205.54l-1.6.15c.52.27,1.04.53,1.55.8.01-.32.03-.64.04-.95Z"/>
      <path class="cls-6" d="m299.55,208.46c.74.38,1.48.76,2.22,1.14l43.67-4.2h0s.07.75.07.75h0s-42.51,4.09-42.51,4.09c.16.08.32.17.48.25-.14,2.55-.26,5.11-.38,7.67l49.22-4.73h0s-.95-9.94-.95-9.94l-51.82,4.98Z"/>
      <rect class="cls-6" x="345.47" y="205.4" width="0" height=".75" transform="translate(-18.11 34.01) rotate(-5.49)"/>
      <path class="cls-6" d="m345.51,206.15l-.07-.75-43.67,4.2c.41.21.82.42,1.23.63l42.51-4.09Z"/>
      <path class="cls-6" d="m350.36,173.16l-.08.4c-.06-.05-.12-.11-.18-.16.09-.08.17-.16.26-.24l1.29-6.67-52.77,5.07,1.27,3.78-1.48,9.55,66.87-6.43c9.1-8.4,18.31-16.65,27.61-24.76-2.02-1.88-4.02-3.78-6.03-5.67l-89.02,8.56-3.05,3.58,3.82,11.39,59.33-5.7c-2.63,2.42-5.25,4.86-7.86,7.31Z"/>
      <path class="cls-6" d="m351.65,166.49l-1.29,6.67c2.61-2.45,5.23-4.88,7.86-7.31l-59.33,5.7h0s52.77-5.06,52.77-5.06Z"/>
      <path class="cls-6" d="m350.28,173.56l.08-.4c-.09.08-.17.16-.26.24.06.05.12.11.18.16Z"/>
      <path class="cls-4" d="m299.79,132.88l-49.4,4.75c4.96,2.95,9.95,5.88,14.95,8.8l19.12-1.84,15.33-11.71Z"/>
      <path class="cls-4" d="m282,146.46l2.46-1.88-19.11,1.84c2.2,1.28,4.4,2.57,6.62,3.84-.33,2.97-.65,5.95-.97,8.93l15.61-1.5.16-3.76-4.77-7.47Z"/>
      <path class="cls-4" d="m290.79,143.97l83.78-8.05c-3.16-3.09-6.31-6.19-9.43-9.33l-64.86,6.23-9.49,11.14Z"/>
      <path class="cls-4" d="m287.74,147.55l3.26,9.72.8-.08,16.61-12.68-10.28,12.07,89.01-8.56c-4.23-4-8.41-8.04-12.56-12.11l-83.78,8.05-3.05,3.58Z"/>
      <polygon class="cls-4" points="284.46 144.58 265.35 146.42 265.35 146.42 284.46 144.58 284.46 144.58"/>
      <polygon class="cls-4" points="290.79 143.98 290.79 143.98 374.57 135.92 374.57 135.92 290.79 143.98"/>
      <polygon class="cls-4" points="284.46 144.58 284.46 144.58 265.34 146.42 265.35 146.42 284.46 144.58"/>
      <polygon class="cls-4" points="290.79 143.98 374.57 135.92 374.56 135.92 290.79 143.97 290.79 143.98"/>
      <polygon class="cls-4" points="287.74 147.55 290.79 143.98 284.46 144.58 282 146.46 286.77 153.93 286.61 157.69 291 157.27 287.74 147.55"/>
      <rect class="cls-4" x="287.62" y="141.1" width="0" height="6.36" transform="translate(-29.04 201.43) rotate(-36.87)"/>
      <polygon class="cls-4" points="300.28 132.83 299.79 132.88 284.46 144.58 290.79 143.97 300.28 132.83"/>
      <rect class="cls-4" x="284.45" y="144.28" width="6.35" height="0" transform="translate(-12.48 28.18) rotate(-5.49)"/>
      <path class="cls-4" d="m353.02,50.74c-15.08-4.98,10.14-35.28-1.82-29.36-.29.14-.59.3-.93.49-.01,0-.02.01-.03.02l-111.47,62.47c2.03,1.33,4.05,2.68,6.09,4-1.45,8.44-2.8,16.91-4.08,25.38l112.37-62.97-.14-.02Zm-112.74,33.27s0,0,0,0l111.47-62.47s.02-.01.03-.02c-.01,0-.02.01-.03.02l-111.47,62.47Z"/>
      <path class="cls-4" d="m351.78,21.52s-.02.01-.03.02l-111.47,62.47s0,0,0,0l111.47-62.47s.02-.01.03-.02Z"/>
      <path class="cls-6" d="m353.97,65.06c-2.74,2.84-4.88,6.21-6.28,9.9-2.82,7.44-2.02,15.76,2.16,22.52,2.08,3.36,4.82,6.25,8.05,8.52,3.4,2.4,7.21,4.16,11.25,5.19,1.4.36,2.8.63,4.22.82,8.42-6.93,16.92-13.75,25.48-20.45-10.12-10.66-20-21.54-29.63-32.64,1.98-1.49,3.96-2.97,5.95-4.45h-.01c-3.86.53-7.61,1.66-11.14,3.34-3.76,1.78-7.17,4.24-10.05,7.25Z"/>
      <path class="cls-6" d="m301.07,131.9l-.79.93,64.86-6.23c-1.41-1.41-2.82-2.82-4.22-4.24,3.87-3.26,7.75-6.48,11.65-9.69-1.21-.19-2.42-.44-3.61-.75-4.12-1.06-8.02-2.86-11.49-5.31-3.32-2.32-6.12-5.3-8.26-8.74-4.3-6.96-5.12-15.52-2.23-23.18,1.44-3.79,3.63-7.24,6.44-10.15,2.94-3.07,6.42-5.58,10.27-7.4,2.96-1.4,6.07-2.41,9.24-3.04l-19.78-3.34-112.37,62.97c-.84,5.56-1.65,11.12-2.42,16.68,3.99,2.42,8.01,4.81,12.03,7.2l49.4-4.75,1.28-.98Z"/>
      <polygon class="cls-6" points="301.07 131.9 299.79 132.88 300.28 132.83 301.07 131.9"/>
      <path class="cls-7" d="m294.9,228.73l2.21,23.04,9.97,12.53,12.23,3.19,18.42,14.72.09-5.92-.57-.46-4.21-4.13-.92-.73c0-.06,0-.11,0-.17l-8.82-8.64-13.72-1.47-7.5-9s-.1-.05-.15-.07c0-.03,0-.07,0-.1l-4.23-5.08-.7-6.98,1.56-20.88-3.35.32c-.12,3.27-.23,6.55-.33,9.82Z"/>
      <path class="cls-7" d="m294.9,228.73c.1-3.27.21-6.55.33-9.82l-1.26.12.93,9.7Z"/>
      <path class="cls-7" d="m332.13,270.98l.92.73-.92-.9c0,.06,0,.11,0,.17Z"/>
      <path class="cls-7" d="m339.36,277.52l-1.54-1.22-.09,5.92,1.72,1.38c-.03-2.02-.07-4.05-.09-6.07Z"/>
      <path class="cls-7" d="m285.68,195.82l-1.38-9.53-1.96.19,3.34,9.34Z"/>
      <polygon class="cls-7" points="293.96 219.03 293.96 219.03 293.33 212.39 291.29 210.81 291.22 211.35 293.96 219.03"/>
      <path class="cls-7" d="m295.41,214c-.07,1.63-.12,3.27-.19,4.9l3.35-.32.15-2.01-3.31-2.57Z"/>
      <path class="cls-7" d="m293.96,219.03l1.26-.12c.06-1.63.12-3.27.19-4.9l-2.09-1.62.64,6.64Z"/>
      <path class="cls-7" d="m290.91,210.51l-3.5-2.71-.58-3.99-.02.03-2.32,5.61,5.97,6.92.44-5.86Z"/>
      <polygon class="cls-7" points="291.22 211.35 290.93 210.53 290.91 210.51 290.47 216.37 290.61 216.54 291.22 211.35"/>
      <polygon class="cls-7" points="283.96 198.19 283.6 197.92 283.89 198.74 283.96 198.19"/>
      <path class="cls-3" d="m413.42,37.63s0,0,0,0c0,0-.01,0-.02,0h.01Z"/>
      <path class="cls-3" d="m413.4,37.62s.01,0,.02,0c.42-.26.85-.52,1.27-.77-.84,0-1.69.05-2.53.12l.16.37,1.08.29Z"/>
      <path class="cls-3" d="m459.94,305.31l-1.05,1.43c3.09-1.55,6.17-3.1,9.27-4.62-2.96-1.13-5.83-.06-8.22,3.18Z"/>
      <rect class="cls-3" x="565.04" y="313.73" width=".75" height="0" transform="translate(130.57 792.31) rotate(-76.77)"/>
      <path class="cls-3" d="m444.08,304.45l-4.11-.13c.15,1.31.3,2.61.45,3.92l3.66-3.79Z"/>
      <path class="cls-3" d="m474.21,313.9c.11,1.01.23,2.02.35,3.04.32,0,.65-.01.97-.02l2.79-2.89-4.11-.13Z"/>
      <path class="cls-6" d="m395.43,415.8l3.66-3.79-4.11-.13c.15,1.31.3,2.61.45,3.92Z"/>
      <path class="cls-6" d="m432.27,362.38c.15,1.31.3,2.61.45,3.92l3.66-3.79-4.11-.13Z"/>
      <path class="cls-6" d="m457.77,354.49c-2.67-.58-5.34-1.15-8.01-1.72l6.61,7.64c.49-.27.99-.54,1.48-.82l-.09-5.1Z"/>
      <path class="cls-6" d="m457.86,359.59c-.49.27-.99.54-1.48.82l1.53,1.76-.04-2.58Z"/>
      <g>
        <path class="cls-2" d="m632.5,518.66l-44.73-10.52-.03.12,44.76,10.52c.92-.04,1.84-.08,2.76-.12l-.44-.1c-.77.03-1.54.07-2.32.1Z"/>
        <path class="cls-2" d="m454.7,457.24c.07-.01.15-.03.22-.04-.11-.14-.23-.28-.35-.41,3.84-2.64,7.69-5.25,11.55-7.85-6.61-1.95-13.71-1.12-19.71,2.35l-5.93,3.42,14.21,2.53Z"/>
        <rect class="cls-2" x="661.3" y="310.41" width=".75" height="51.91" transform="translate(182.78 903.47) rotate(-76.77)"/>
        <path class="cls-2" d="m473.58,410.13l-5.32-5.54c-2.35,1.39-4.7,2.78-7.04,4.19l12.36,1.36Z"/>
        <path class="cls-2" d="m457.48,388.65c1.65-3.17,3.31-6.31,4.99-9.41-4.02-3.67-8.15-3.26-11.39,1.14l-3.04,4.13,8.1,4.46c.44-.16.89-.26,1.34-.32Z"/>
        <polygon class="cls-2" points="516.92 486.79 467.1 475.07 466.71 475.75 516.74 487.52 516.92 486.79"/>
        <path class="cls-2" d="m524.64,495.3c5.75-.74,11.36-1.46,16.8-2.15,13.49,4.49,28.33,9.51,44.51,15.17l3.02-5.3h-.05s23.64-100.55,23.64-100.55l-7.28.37-14.34,9.54,10.02-11.23,13.7-7.65,5.71-24.31,1.46-9.67-3.36-12.18,9.39-23.92,3.11-1.43-.15-8.97-65.63,1.61-40.73,173.23h.05s.12,7.44.12,7.44Z"/>
        <polygon class="cls-2" points="525.08 522.44 525.08 522.43 525.08 522.43 525.08 522.44"/>
        <path class="cls-2" d="m445.36,421.52c-10.22,6.45-20.36,13.05-30.4,19.83,1.37,1.67,2.75,3.33,4.12,5l1.74-2.37c3.24-4.4,7.37-4.81,11.39-1.14-1.67,3.1-3.33,6.24-4.99,9.41-.45.06-.9.16-1.34.32l-3.05-1.68c5.24,6.28,10.53,12.51,15.89,18.68,2.23-.63,4.62.11,6.97,2.26-.63,1.17-1.25,2.37-1.88,3.55.82.93,1.63,1.87,2.45,2.79-8.9,6.24-17.7,12.62-26.42,19.13l30.49,7.17,16.38-28.72-.49-.12.17-.73.71.17.35-.61h-.05s2.43-10.34,2.43-10.34l-4.04-.44,4.04.44,34.8-148-1.43.04c-7.19.23-14.42.44-21.69.62-2,.05-3.98.09-5.97.14l-.87.9c-.04-.29-.07-.59-.1-.88-6.3.14-12.57.28-18.81.38l-11.46.28c-1.46.04-2.9-.03-4.31-.18,8.26,12.83,16.77,25.49,25.52,37.97-2.55,1.39-5.1,2.8-7.64,4.21l.04,2.58-1.53-1.76c-10.57,5.87-21.08,11.91-31.49,18.11,0,0,0,0,0,0,1.66-.49,3.36-.87,5.09-1.12-.82,1.57-1.63,3.15-2.44,4.72,3.65,4.98,7.32,9.93,11.05,14.85l1.91.06-1.05,1.08c4.66,6.13,9.37,12.22,14.14,18.26-1.89,1.17-3.76,2.35-5.64,3.53,2.32-.81,4.84-.1,7.31,2.15-1.67,3.1-3.33,6.24-4.99,9.41-.45.06-.9.16-1.34.32l-8.1-4.46,3.04-4.13c.48-.65.98-1.21,1.5-1.68Zm22.9-16.94l5.32,5.54-12.36-1.36c2.34-1.4,4.69-2.8,7.04-4.19Zm-20.22-20.07l3.04-4.13c3.24-4.4,7.37-4.81,11.39-1.14-1.67,3.1-3.33,6.24-4.99,9.41-.45.06-.9.16-1.34.32l-8.1-4.46Zm-1.62,66.78c6-3.47,13.1-4.3,19.71-2.35-3.86,2.6-7.71,5.21-11.55,7.85.11.14.23.28.35.41-.07.01-.15.02-.22.04l-14.21-2.53,5.93-3.42Z"/>
        <path class="cls-2" d="m635.77,531.28l.4,24.62,22.22,5.22-.09.36h0s-6.46,27.48-6.46,27.48l65.79,15.47,13.43-57.14c-4.18-1.96-8.3-3.87-12.38-5.76-11.9,4.61-24.1,9.37-36.63,14.3-15.86-8.49-31.29-16.67-46.3-24.57Zm18.85,22.71c2.34-1.4,4.69-2.8,7.04-4.19l5.32,5.54-12.36-1.36Z"/>
        <path class="cls-2" d="m653.37,522.72c.83.41,1.66.98,2.49,1.74-1.67,3.1-3.33,6.24-4.99,9.41-.45.06-.9.16-1.34.32l-8.1-4.46,3.04-4.13c.85-1.15,1.76-2.02,2.71-2.63-3.75.16-7.59.32-11.54.49l.13,7.82c15.01,7.9,30.44,16.08,46.3,24.57,12.53-4.93,24.73-9.69,36.63-14.3-15.3-7.08-29.85-13.65-43.61-19.75-6.76.3-14,.61-21.7.93Z"/>
        <path class="cls-6" d="m516.92,486.79l-.17.73-50.03-11.76-16.38,28.72,2.68.63c26.05-3.8,49.94-7,71.63-9.8l-.12-7.42h-.05s-57.03-13.42-57.03-13.42l-.35.61,49.82,11.71Z"/>
        <polygon class="cls-6" points="466.39 474.91 466.22 475.64 466.71 475.75 467.1 475.07 466.39 474.91"/>
        <path class="cls-6" d="m514.63,526.97l-.43-26.39c-21.69,2.8-45.58,6-71.63,9.8l70.75,16.64v-.36s1.3.31,1.3.31Z"/>
        <polygon class="cls-6" points="588.97 503.03 646 516.44 686.86 342.67 636.33 330.79 636.5 330.06 687.03 341.94 688.09 337.43 688.09 337.44 636.68 325.35 634.93 326.19 629.6 330.05 624.55 351.51 628.46 360.32 623.61 379.24 621.41 394.01 614.53 402.38 612.57 402.48 588.93 503.02 588.97 503.03"/>
        <path class="cls-6" d="m646,516.44l-57.03-13.41-3.02,5.3c9.92,3.47,20.35,7.18,31.26,11.16,5.24-.25,10.34-.49,15.29-.71l-44.76-10.52.03-.12h-.03s.17-.74.17-.74l47.34,11.13c-.15,0-.29.01-.44.02l.44.1c3.69-.16,7.3-.32,10.82-.47l-.03-1.74h-.05Z"/>
        <path class="cls-6" d="m598.26,546.98l37.91,8.91-.4-24.62c-.2-.11-.41-.22-.62-.33-12.01,5.18-24.31,10.52-36.89,16.03Zm34.58-3.65c-.29-.38-.58-.76-.87-1.14l1.91.06-1.05,1.08Z"/>
        <path class="cls-6" d="m562.15,537.03l-.74,1.29,6.53,1.53c-1.94-.95-3.86-1.88-5.79-2.82Z"/>
        <path class="cls-6" d="m567.94,539.86l30.32,7.13c12.57-5.51,24.88-10.85,36.89-16.03.2.11.41.22.62.33l-.13-7.82c-3.52.15-7.13.31-10.82.47l3.18.75-.17.73-5.77-1.36c-4.95.22-10.04.46-15.29.71-10.92-3.98-21.34-7.69-31.26-11.16l-13.36,23.43c1.93.94,3.85,1.87,5.79,2.82Z"/>
        <path class="cls-5" d="m634.82,518.55l-46.9-11.03-.14.61,44.73,10.52c.78-.03,1.55-.07,2.32-.1Z"/>
        <path class="cls-5" d="m634.82,518.55c.15,0,.29-.01.44-.02l-47.34-11.13-.17.73h.03s.14-.61.14-.61l46.9,11.03Z"/>
        <path class="cls-5" d="m638.27,520.14l.17-.73-3.18-.75c-.91.04-1.83.08-2.76.12l5.77,1.36Z"/>
        <path class="cls-6" d="m457.09,533.52c13.25,5.9,26.98,12.04,41.17,18.42,13.15-6.39,26.03-12.58,38.65-18.61l-23.97-5.64v.09s0,0,0,0h0s-45.79-10.77-45.79-10.77l-26.83-6.31c-.25.04-.51.07-.76.11-5.46-1.27-10.68-2.47-15.69-3.59l14.98,3.52c-.34.05-.67.1-1.01.15-11.07-2.58-21.19-4.84-30.4-6.85-2.71,2.03-5.41,4.06-8.09,6.12,7.54,8.25,15.18,16.39,22.92,24.43l22.58,5.31c4.11-2.15,8.19-4.28,12.24-6.4Z"/>
        <path class="cls-6" d="m597.12,547.49l-26.14-6.15c6.25,3.05,12.55,6.14,18.96,9.3,2.41-1.06,4.79-2.1,7.18-3.15Z"/>
        <path class="cls-6" d="m423.85,507.23l-16.96-3.99c-.24.18-.47.36-.71.54.41.09.83.18,1.25.27.15-.12.31-.23.46-.35,5.03,1.09,10.36,2.27,15.96,3.52Z"/>
        <path class="cls-4" d="m423.22,535.6c3.3,3.42,6.61,6.83,9.94,10.21-.3.24-.59.48-.89.72,3.88-2.04,7.73-4.07,11.57-6.08l-20.62-4.85Z"/>
        <path class="cls-5" d="m441.32,510.56l-.45-.11c-.34.05-.67.1-1.01.15l.45.11c.08-.01.16-.02.24-.04.26-.04.51-.07.77-.11Z"/>
        <path class="cls-5" d="m450.13,504.81l1.87.44c.34-.05.67-.1,1.01-.15l-2.68-.63-.19.34Z"/>
        <path class="cls-5" d="m567.94,539.86l-6.53-1.53-.19.34,8.23,1.94c-.5-.25-1.01-.5-1.51-.74Z"/>
        <path class="cls-5" d="m597.69,547.23c.19-.08.38-.17.57-.25l-30.32-7.13c.5.24,1.01.49,1.51.74l28.24,6.64Z"/>
        <path class="cls-5" d="m597.69,547.23l38.48,9.05v-.39s-37.91-8.91-37.91-8.91c-.19.08-.38.17-.57.25Z"/>
        <path class="cls-5" d="m597.68,547.24l-28.2-6.63c.5.24,1,.49,1.5.73l26.14,6.15c.19-.08.38-.17.56-.25Z"/>
        <path class="cls-5" d="m450.13,504.82l1.86.44s.01,0,.02,0l-1.87-.44h0Z"/>
        <path class="cls-5" d="m597.69,547.23l-28.24-6.64s.02,0,.02.01l28.2,6.63s0,0,0,0Z"/>
        <path class="cls-5" d="m561.22,538.66h0s8.26,1.95,8.26,1.95c0,0-.02,0-.02-.01l-8.23-1.94Z"/>
        <path class="cls-6" d="m647.18,522.98c2.1-.09,4.16-.17,6.19-.26-2.14-1.06-4.26-.97-6.19.26Z"/>
        <path class="cls-6" d="m644.47,525.6l-3.04,4.13,8.1,4.46c.44-.16.89-.26,1.34-.32,1.65-3.17,3.31-6.31,4.99-9.41-.83-.76-1.66-1.33-2.49-1.74-2.03.08-4.09.17-6.19.26-.95.6-1.86,1.47-2.71,2.63Z"/>
        <path class="cls-6" d="m654.61,553.99l12.36,1.36-5.32-5.54c-2.35,1.39-4.7,2.78-7.04,4.19Z"/>
        <path class="cls-6" d="m632.84,543.34l1.05-1.08-1.91-.06c.29.38.58.76.87,1.14Z"/>
        <path class="cls-6" d="m575.51,560.1l12.36,1.36-5.32-5.54c-2.35,1.39-4.7,2.78-7.04,4.19Z"/>
        <path class="cls-6" d="m626.32,580.96l12.36,1.36-5.32-5.54c-2.35,1.39-4.7,2.78-7.04,4.19Z"/>
      </g>
      <path class="cls-6" d="m588.69,565.04l-5.36,7.81,19.21-5.76c.92-.7,1.87-1.37,2.85-1.99,1.82-3.57,3.67-7.12,5.52-10.67-.88-1.2-1.77-2.4-2.65-3.6-7.91,2.33-14.84,7.31-19.57,14.2Z"/>
      <path class="cls-6" d="m568.2,565.08c2.5-5.3,5.01-10.55,7.53-15.74-6.23-6.22-12.57-5.59-17.49,1.76l-4.61,6.9,12.51,7.6c.68-.26,1.36-.43,2.06-.52Z"/>
      <path class="cls-6" d="m624.29,561.96l-3.04,4.13,8.1,4.46c.44-.16.89-.26,1.34-.32,1.65-3.17,3.31-6.31,4.99-9.41-4.02-3.67-8.15-3.26-11.39,1.14Z"/>
      <path class="cls-6" d="m623.14,576.78l3.66-3.79-4.11-.13c.15,1.31.3,2.61.45,3.92Z"/>
      <path class="cls-6" d="m611.71,559.89c.15,1.31.3,2.61.45,3.92l3.66-3.79-4.11-.13Z"/>
      <polygon class="cls-7" points="426.1 459.7 411.35 446.8 403.17 434.24 391.22 422.99 375.82 418.58 370.47 398.73 371.68 422.69 380.53 422.99 385.06 426.39 390.04 425.17 400.6 436.5 407.16 450.11 414.55 461.46 423.51 463.7 428.69 469.87 426.7 460.45 426.1 459.7"/>
      <polygon class="cls-7" points="228.71 445.5 209.43 430.44 198.82 415.68 183.21 402.53 162.96 397.55 156.2 374.11 157.42 402.49 169.11 402.7 175.04 406.66 181.63 405.14 195.39 418.39 203.84 434.43 213.42 447.76 225.22 450.27 231.97 457.5 229.49 446.37 228.71 445.5"/>
      <line class="cls-2" x1="81.79" y1="539.46" x2="423.51" y2="463.7"/>
      <line class="cls-2" x1="370" y1="565.6" x2="711.71" y2="489.84"/>
      <g>
        <path class="cls-4" d="m409.54,452.91l-251.97,53.31-.08-.37-66.13,13.99,3.99,18.85c13.59-1.09,27.23-2.02,40.93-2.74,21.01-11.67,41.27-22.65,60.73-33,20.96-.02,42.04.4,63.22,1.26,18.66-9.26,36.5-17.92,53.5-26.03,20.33,1.89,40.74,4.21,61.21,6.97,15.46-6.84,30.12-13.2,43.96-19.13,1.31-2.71,2.62-5.42,3.96-8.11-4.45-1.64-8.9-3.32-13.34-5.01Z"/>
        <path class="cls-4" d="m326.11,484.04c-17,8.11-34.85,16.77-53.5,26.03-21.18-.86-42.26-1.28-63.22-1.26-19.47,10.35-39.72,21.33-60.73,33-13.7.73-27.34,1.66-40.93,2.74l2.02,9.53,314.04-66.45c2.45-5.28,4.96-10.53,7.5-15.76-13.84,5.93-28.5,12.29-43.96,19.13-20.48-2.75-40.89-5.07-61.21-6.97Z"/>
      </g>
      <path class="cls-4" d="m301.95,526.49l-1.63,5.77,5.83-4.25c.28-.52.57-1.01.86-1.47.55-2.63,1.11-5.25,1.67-7.87-.27-.89-.54-1.77-.8-2.66-2.4,1.72-4.5,5.4-5.94,10.48Z"/>
      <path class="cls-4" d="m255.57,529.87l-5.45,2.49,7.01,1.7c.58-.12,1.14-.22,1.68-.29,2.37-1.28,4.73-2.55,7.09-3.81.5-.78,1-1.55,1.51-2.33-2.87-.72-7.03.06-11.84,2.25Z"/>
      <path class="cls-4" d="m338.43,518.09l-5.45,2.49,7.01,1.7c.58-.12,1.14-.22,1.68-.29,2.37-1.28,4.73-2.55,7.09-3.81.5-.78,1-1.55,1.51-2.33-2.87-.72-7.03.06-11.84,2.25Z"/>
      <path class="cls-4" d="m386.09,502.77l-3.04,4.13,8.1,4.46c.44-.16.89-.26,1.34-.32,1.65-3.17,3.31-6.31,4.99-9.41-4.02-3.67-8.15-3.26-11.39,1.14Z"/>
      <path class="cls-4" d="m249.67,549.1l-1.63,5.77,5.83-4.25c.28-.52.57-1.01.86-1.47.55-2.63,1.11-5.25,1.67-7.87-.27-.89-.54-1.77-.8-2.66-2.4,1.72-4.5,5.4-5.94,10.48Z"/>
      <path class="cls-4" d="m286.15,540.69l-5.45,2.49,7.01,1.7c.58-.12,1.14-.22,1.68-.29,2.37-1.28,4.73-2.55,7.09-3.81.5-.78,1-1.55,1.51-2.33-2.87-.72-7.03.06-11.84,2.25Z"/>
    </g>
  </g>
  <g id="Layer_4" data-name="Layer 4">
    <g id="Group_133" data-name="Group 133">
      <path id="Path_1" data-name="Path 1" class="cls-3" d="m490.97,95.45c8.18-.06,16.09,2.96,22.14,8.47l108.5,98.9c6.46,5.87,10.18,14.18,10.25,22.92l.51,113.4c.08,17.38-14.33,31.59-32.11,31.67l-216.11.97c-17.78.08-32.31-14-32.39-31.38l-.51-113.4c0-8.73,3.64-17.07,10.05-23.01l107.61-99.87c6-5.56,13.88-8.65,22.06-8.66Z"/>
      <path id="Path_13" data-name="Path 13" class="cls-7" d="m582.85,296.85l.15,33.02,16.23-.07.02,4.77-58.27.26-.02-4.77,16.23-.07-.15-33.02-64.33.29-.09-20.69,59.85-83.81,29.92-.13.44,97.67,20.92-.09.03,6.56-20.92.09Zm-24.91-72.09l-37.36,51.69,37.59-.17-.23-51.52Z"/>
      <path id="Path_14" data-name="Path 14" class="cls-7" d="m488.3,308.78c-3.15,5.82-7.41,10.97-12.55,15.15-5.27,4.28-11.22,7.63-17.6,9.92-6.3,2.34-12.95,3.56-19.66,3.62-3.15,0-6.3-.25-9.41-.71-3.41-.48-6.78-1.25-10.06-2.31-3.2-1.02-6.29-2.36-9.22-4.02-2.7-1.5-5.11-3.48-7.09-5.86l.04,10.06-5.99.03-.2-45.37,9.41-.04c0,3.38.98,6.68,2.82,9.51,1.85,2.9,4.26,5.4,7.09,7.35,2.9,2,6.08,3.58,9.43,4.67,3.17,1.08,6.5,1.65,9.85,1.67,3.15-.06,6.28-.54,9.3-1.43,3.29-.92,6.45-2.26,9.39-4,2.84-1.66,5.31-3.89,7.24-6.56,1.91-2.65,2.91-5.84,2.85-9.11-.02-5.42-1.82-9.58-5.4-12.49-4.08-3.18-8.64-5.69-13.51-7.43-5.43-2.04-11.29-4.01-17.57-5.91-6.16-1.84-12.06-4.44-17.57-7.73-5.46-3.27-10.09-7.76-13.54-13.1-3.59-5.47-5.4-12.78-5.44-21.91-.07-6.26,1.6-12.42,4.84-17.79,3.24-5.42,7.46-10.19,12.45-14.07,5.08-3.96,10.77-7.06,16.86-9.17,5.86-2.11,12.04-3.22,18.27-3.29,2.9.01,5.79.21,8.67.6,3.22.42,6.41,1.08,9.53,1.99,3.05.88,6,2.08,8.79,3.6,2.55,1.35,4.82,3.2,6.66,5.43l-.04-8.56,5.13-.02.18,41.09-8.98.04c0-2.93-.94-5.78-2.71-8.12-1.84-2.46-4.1-4.59-6.66-6.28-2.64-1.77-5.53-3.12-8.57-4.03-2.74-.86-5.59-1.32-8.46-1.35-2.92.06-5.83.47-8.66,1.22-3.12.77-6.11,2.01-8.86,3.68-2.62,1.58-4.93,3.62-6.82,6.02-1.84,2.35-2.81,5.27-2.74,8.25.02,5.42,1.86,9.59,5.51,12.49,4.07,3.14,8.64,5.58,13.51,7.22,5.36,1.9,11.21,3.73,17.56,5.49,6.16,1.67,12.07,4.17,17.57,7.41,5.41,3.24,10.04,7.64,13.53,12.89,3.66,5.41,5.51,12.67,5.55,21.8.12,6.79-1.51,13.51-4.72,19.49Z"/>
    </g>
  </g>
</svg>