<svg xmlns="http://www.w3.org/2000/svg" width="280.609" height="275.84" viewBox="0 0 280.609 275.84">
  <g id="Group_133" data-name="Group 133" transform="translate(-659.755 -614.964)">
    <path id="Path_1" data-name="Path 1" d="M562.7,797.147a32.531,32.531,0,0,1,22.1,8.566L692.856,905.1a31.319,31.319,0,0,1,10.15,22.962v113.4c0,17.384-14.467,31.527-32.25,31.527H454.646c-17.782,0-32.25-14.143-32.25-31.527v-113.4a31.317,31.317,0,0,1,10.15-22.962L540.6,805.712A32.537,32.537,0,0,1,562.7,797.147ZM454.646,1062.205Z" transform="translate(237.358 -182.182)" fill="#756746"/>
    <path id="Path_13" data-name="Path 13" d="M682.722,1019.036v33.021h16.229v4.774H640.68v-4.774h16.23v-33.021H592.577V998.35L652.8,914.807h29.918v97.666h20.921v6.563Zm-24.588-72.205-37.588,51.52h37.588Z" transform="translate(208.316 -202.262)" fill="#fff"/>
    <path id="Path_14" data-name="Path 14" d="M567.234,1027.485a50.383,50.383,0,0,1-12.62,15.089,60.154,60.154,0,0,1-17.647,9.843,57.95,57.95,0,0,1-19.679,3.532,65.672,65.672,0,0,1-9.411-.75,60.541,60.541,0,0,1-10.054-2.355,48.311,48.311,0,0,1-9.2-4.064,24.942,24.942,0,0,1-7.061-5.887v10.06h-5.988v-45.371h9.412a17.445,17.445,0,0,0,2.781,9.524,25.689,25.689,0,0,0,7.059,7.384,36.355,36.355,0,0,0,9.411,4.708,31,31,0,0,0,9.838,1.712,34.993,34.993,0,0,0,9.306-1.392,39.215,39.215,0,0,0,9.411-3.959,23.637,23.637,0,0,0,7.272-6.528,15.021,15.021,0,0,0,2.888-9.095q0-8.13-5.346-12.519a48.389,48.389,0,0,0-13.477-7.491q-8.131-3.1-17.539-5.992a77.484,77.484,0,0,1-17.539-7.811,41.561,41.561,0,0,1-13.477-13.162q-5.346-8.236-5.346-21.935a33.671,33.671,0,0,1,4.919-17.764,51.011,51.011,0,0,1,12.512-14.017,58.524,58.524,0,0,1,16.9-9.095,55.853,55.853,0,0,1,18.288-3.21,66.235,66.235,0,0,1,8.664.641,63.086,63.086,0,0,1,9.518,2.034,43.8,43.8,0,0,1,8.769,3.638,22.01,22.01,0,0,1,6.632,5.457v-8.56h5.132v41.09h-8.981a13.414,13.414,0,0,0-2.675-8.133,26.812,26.812,0,0,0-6.631-6.312,31.538,31.538,0,0,0-8.555-4.066,29.384,29.384,0,0,0-8.45-1.392,36.984,36.984,0,0,0-8.663,1.177,31.587,31.587,0,0,0-8.877,3.637,25.293,25.293,0,0,0-6.845,5.994,12.927,12.927,0,0,0-2.78,8.239q0,8.137,5.454,12.519a46.44,46.44,0,0,0,13.474,7.278q8.023,2.886,17.539,5.564a71.436,71.436,0,0,1,17.54,7.49,42.372,42.372,0,0,1,13.476,12.948q5.454,8.134,5.454,21.828A39.824,39.824,0,0,1,567.234,1027.485Z" transform="translate(229.194 -199.212)" fill="#fff"/>
  </g>
</svg>
